<svg id="Слой_1" data-name="Слой 1" xmlns="http://www.w3.org/2000/svg" viewBox="0 0 1942 907.33"><defs><style>.cls-1{fill:#fff;}</style></defs><path class="cls-1" d="M46,1109.72V202.39H1988v907.33ZM499.21,294.19c-1.54,1.38-4,2.68-2.28,5.11s3.9.67,5.71-.34c.73-.4,1.14-1.37,2.18-2.69l-5.75-2c3.54-3.82,7.59-4.51,12.19-2a11,11,0,0,0,2.16,1c1.82.53,3.89.65,4.57-1.35a4.66,4.66,0,0,0-1-4.08,84.33,84.33,0,0,0-8-6c-2-1.4-4.35-2.49-4.15-5.51.78-.18,1.29-.47,1.51-.32,3.77,2.48,7.49,3.08,11.42.22.89-.64,2.27-.58,3.4-.91,4.08-1.18,9.76-.86,10.94-5.67,1.27-5.16,7.29-5.53,8.31-10.26,0-.19.13-.38.17-.57.52-2.4,2.32-3.07,4.43-3.05s4.32.36,6.48.37a26.39,26.39,0,0,0,6.42-.39c5.54-1.38,5.94-1.47,9.37,3.07a17.73,17.73,0,0,0,7.57,6.3c3.32,1.35,3.56,4.23.73,6.35C574,272.54,572,273,570.25,274c-2.38,1.31-5.13,2.36-6.9,4.28-3,3.23-6.51,4.25-10.61,4.09-2.56-.1-5.13-.57-7.67-.43-3.38.18-6.77.74-7.49,5.09,3.22,3.31,6.6,1.63,9.95.62,5.81-1.76,10.51-.25,14,4.54.8,1.1,1.16,2.56,2,3.57,1.11,1.28,2.37,2.74,3.88,3.31a103.32,103.32,0,0,0,11.83,3.58c2.73.67,5.63,1.58,8.63-.43l-3.22-6.95,10.47,3.63a47.47,47.47,0,0,0,4-2.66c4-3.3,4.14-6,.58-9.92a22.65,22.65,0,0,1-2-2.17c-1.23-1.77-1.56-3.76,0-5.43,1.76-1.88,4-1.72,5.87-.2,1.36,1.09,2.24,2.8,3.63,3.84s3.22,2.25,4.5,1.94c6-1.45,11.46-4,16-9.37-1.91-1.77-3.36-3.66-5.27-4.78a45.64,45.64,0,0,0-8.62-3.78c-3.41-1.12-5.55-3-5.32-6.77.15-2.43.47-4.85.78-7.95-3.93-1.81-8-4.7-12.38-5.44-5.22-.87-8.88-2.68-11-7.52a5.53,5.53,0,0,0-5.52-3.66c-8.42.07-16.84,0-25.26,0-2.16,0-4.47.5-6.45-.1-10.62-3.19-19.86.4-28.6,5.78a17.18,17.18,0,0,0-5.69,6.51c-1.92,3.59-.8,5.19,3.23,6.28,2.15.58,4.25,1.35,6.93,2.21-1.24,2.08-1.71,3.9-2.86,4.63-5,3.14-10.1,6.05-15.28,8.83a2.48,2.48,0,0,1-3.81-1.62,7.34,7.34,0,0,1,.67-1.53c3.41-4.71,3.48-4.92-2-6.45-3.31-.93-4.6-2.75-4.29-5.95.18-2,.8-3.92.72-5.86-.16-4.23,2.38-6.07,5.86-7,3-.8,6.22-1.1,9.27-1.85,3.37-.82,7.06-1.26,9-5.3a56.43,56.43,0,0,1-6.93-3,4.53,4.53,0,0,0-5,0c-6,3.27-13,4.76-17,11.15-1,1.54-2.7,3-5.16,1,1.5-2.67,3-5.33,4.69-8.31-1.43-.68-2.5-1.68-3.42-1.56-4.66.61-9.55.81-13.82,2.52-3.74,1.5-7.12,3.63-11.34,3.38-.23,0-.49.56-.79.92,3.05,5,6.6,8.89,13.36,6.62.64-.22,1.64.65,2.76,1.14-.71,1.13-1,2.19-1.74,2.69-3.29,2.34-4.26,4.93-1.76,8.51a3.87,3.87,0,0,1-.13,3.28c-1.48,2.83-6.22,4.21-11,2.15l5.93-2.88c-2.16-4.62-4.7-5.53-8-4.77-3.58.85-6.77,2.36-8.19,6.06-1.51,4-4.47,5.13-8.42,5s-7.92.28-11.82-.14a47.07,47.07,0,0,1-10.23-2.45c-1.68-.58-3.79-1.5-3.44-4.62,2,.33,3.85.68,5.75.95,5.82.83,11.75,2.46,16.7-2.66.7-.72,2.28-.5,3.35-1a43.16,43.16,0,0,0,4.12-2.37c-1.74-1.6-2.8-3-4.21-3.78-2.89-1.63-2.76-3.76-1-5.85a59.94,59.94,0,0,1,6.58-6.56c1.36-1.21,3.79-1.42,3.41-5-4.41.73-8.81,1-12.91,2.27-3.25,1-6.13,3.18-9.49,5-2.33-2.09-5.15-2.48-8.62-2.63-5.47-.24-11.4-.33-16.08-4.68-1.67-1.55-4.57-2.05-7-2.43-5-.77-10.18-1-15.23-1.73a22.66,22.66,0,0,0-15.36,2.75c-4.07,2.36-8.42,4.23-12.65,6.34-1.58.78-3.4,1.35-4.63,2.52-1,.91-1.89,2.82-1.55,3.88s2.09,2.2,3.45,2.72c1,.38,2.32-.08,3.47-.33,3.66-.8,7.28-1.78,11-2.47,2.36-.43,4.79-.47,8.63-.82-2.39,5.22-4.15,9.09-5.93,13-1.64,3.57-3.12,4.64-6.84,3.89-3.25-.66-6.33-2.15-9.57-3s-6.59-2-9.75-1.7a74.41,74.41,0,0,1-14.08.39c-2.45-.2-4.56.25-5.95-2.39-1.15-2.19-3.14-1.89-5.18-1.24a34.32,34.32,0,0,1-5.64,1.36c-3.67.5-7.38.72-11.05,1.21-3.12.42-6.2,1.46-9.3,1.49a68.32,68.32,0,0,0-18.1,2.39c-4.67,1.3-9.26,1.2-13.68-1.56-1.71-1.08-4.1-1.09-6.2-1.5-2.3-.45-4.62-.83-6.94-1.17a79,79,0,0,0-8.74-1.17c-6.08-.23-12.21.47-18.06-2.11-1.51-.67-3.5-.24-5.27-.3a24.6,24.6,0,0,1-4.72-.2c-10.49-2.56-20.93-5.32-31.74-1.58a14.93,14.93,0,0,1-2.94.15c-3.51.44-7,1-10.52,1.39-15,1.51-28.48,9.39-43.68,9.89a6.27,6.27,0,0,0-1.69.5c-4.4,1.48-4.85,2.38-3.55,6.85a16.69,16.69,0,0,1,.86,4c.11,3.18-1.66,4.74-4.8,4.38a16,16,0,0,1-2.86-.72c-9.51-2.9-18.26.68-27,3.4a4.76,4.76,0,0,0-2.44,4c.2,1.22,2.23,2.8,3.64,3,3.29.48,6.69.15,10,.3,2,.08,4,.46,6.43.76-2.5,3.77-2.49,4.13-5.82,4.23-6.46.2-12.62,2.19-19.07,2.77-6.94.63-13.55,4.85-20.28,7.58-.42.17-.6.92-1.25,2a49,49,0,0,0,5.12,3.6c2.42,1.3,5.11,2.11,7.52,3.43,12.38,6.72,25.5,7.73,39.08,5.18,2.88-.55,5.31-.41,7.76,1.49,1.09.84,3.27,1.41,4.38.89,5.63-2.64,11.67-3.3,17.66-4.34,1.45-.25,2.82-1.36,4.09-2.26,5.16-3.68,5.42-3.86,10.43-.56a18.34,18.34,0,0,0,9.43,3c2.56.13,5.13.15,7.69.19A13.53,13.53,0,0,1,182.07,323c1,1.88,2.11,3.74,3.08,5.44-2,4.51-3.13,14.79-1.91,18.69,2-.39,4.06-1,6.15-1.16,2.63-.24,4.41,2.3,2.72,4.15-3.61,3.95-3,8.09-2.14,12.71.89,4.93.91,9.89-4.39,13-1.85,1.08-1.89,3-1,4.69a10.69,10.69,0,0,0,2.51,3.25c4.13,3.39,3.73,7.14,1.77,11.61-4.29,9.76-10.84,17.79-18.33,25.18A33.39,33.39,0,0,0,162.46,432c-1.27,3.2-3.52,6-5.28,9-1.16,2-3.19,4-3.18,6.05.08,10.41.52,20.83,1.18,31.23.27,4.25,2.74,6.78,7.19,8.21,5.8,1.86,9.66,6,9.32,12.78a25.82,25.82,0,0,0,.15,5.9c.92,5.13.18,10.59,4.22,15s3.89,4.83.26,9.94c-1.87,2.65-1.68,4.54,1.05,6.51a53.93,53.93,0,0,0,5.67,3.18c2.91,1.61,4.27,3.89,3.52,7.33-.32,1.48-.83,3.69-.09,4.5,3.61,4,6.84,8.49,12.3,10.23.22.07.61-.38,1.55-1-.58-1.38-1.22-2.9-1.87-4.41-1.21-2.85-2.9-5.6-3.54-8.57-1.14-5.23-2.26-10.35-5.6-14.75a9.8,9.8,0,0,1-1.61-4.37,22.56,22.56,0,0,0-4.81-11.23,7.38,7.38,0,0,1-.24-9.35c2.47-3.64,7.36-3.32,8.92.78a14.52,14.52,0,0,1,.43,6.86,12,12,0,0,0,3.14,10.29c3.27,3.66,6.18,7.66,9.16,11.57.69.91,1.63,2.14,1.49,3.08-.55,4,2.13,6.05,4.27,8.6,4,4.83,8.21,9.61,11.77,14.79,3.24,4.73,4.44,10,1.48,15.6-2.19,4.19-1.58,6.06,1.9,9.36.71.68,1.52,1.24,2.28,1.88,7.73,6.53,17.61,9.19,26.07,14.49,4.43,2.79,9.82,4,14.63,6.27,5.1,2.36,9.94,3.32,15.17.19,4.5-2.69,8.81-1.4,12.45,2,2.44,2.28,4.46,5,7,7.24a25.36,25.36,0,0,0,7.2,4.87,48.75,48.75,0,0,0,13.07,3.49c8.07.67,13.64,4.47,17.49,11.31A6.73,6.73,0,0,0,342,642.7a6.14,6.14,0,0,1,2.21,5.78c-.37,3.27,1.12,5.27,4.31,6,3.91.9,6.46,3.46,8.69,6.64,1.07,1.53,2.72,3.32,4.37,3.64a26.25,26.25,0,0,1,12.51,6.13c2.65,2.29,5.26,1.24,6.51-2,.42-1.09.4-2.36.88-3.41,1.3-2.8,4.72-5.19,6.91-4.85,3,.45,3.93,2.85,4.92,5.31,1.08,2.72,2.58,5.29,3.66,8a22.89,22.89,0,0,1,1.91,6.71c.26,4.32-.07,8.66-.06,13,0,3.65-1.83,6.08-4.39,8.58-4.85,4.75-9.25,10-13.82,15a1.85,1.85,0,0,0-.3.51c-1.65,3.57-3.43,7.1-4.92,10.74a9.31,9.31,0,0,0,1,9.51c3.68,5.13,3.53,5.12-.83,9.67-1.44,1.5-3.61,3.68-3.35,5.19.83,4.91,1.62,10,6.19,13.5a31.75,31.75,0,0,1,7.22,7.55c3.69,5.58,6.77,11.56,10.24,17.29s7.15,11.31,10.64,17c1.43,2.33,3.23,4.7,3.73,7.28a14,14,0,0,0,6.4,9.53c5.8,3.67,11.65,7.46,17.93,10.14a48.14,48.14,0,0,1,15.77,10.16,18,18,0,0,1,4.93,8.44,156,156,0,0,1,2.57,21c.54,8.79-.08,17.69.92,26.42,1,8.39-1.31,16.93,1.48,25.17a3.51,3.51,0,0,1,0,1.76c-.89,3.71.5,6.92,1.88,10.24a44.31,44.31,0,0,1,3,9.46c1.48,8.7-.63,17.27-2.33,25.65-1,5-.31,8.73,2.32,12.69,1.4,2.1,2.88,4.42,3.31,6.83,1.17,6.53,1.81,13.16,2.65,19.76.33,2.6.87,5.06,3.82,5.88,4.16-2-.45-5.65,1.8-7.88,3.26,2.18,3.26,2.18,4.75,13.4,0,.31-.28.67-.45,1.06l-5.22,1.18c.31,1.42.63,2.51.77,3.62.24,1.87.77,3.83.47,5.63-.85,5.15-1.05,5.23,3.61,7.57,2.45,1.24,4.11,2.67,2.55,5.46-2.29,4.09-1,7.64,1.42,11,4,5.55,8.21,11,12.35,16.44a3.27,3.27,0,0,0,1.39,1.09c4.83,1.78,8,5.6,11.49,9.08a13.89,13.89,0,0,0,4.31,3c8,3.28,16.12,6.27,24.1,9.6,5.38,2.25,10.89,1,16.35,1.09a7.31,7.31,0,0,0,3.75-1.6c2.5-1.71,2.6-4.06,0-5.67-2.13-1.32-4.71-1.91-7-2.92-2.87-1.24-6.21-2-8.4-4a166.91,166.91,0,0,1-12.5-13.39c-1.88-2.12-2.3-4.47-.22-6.91.87-1,2.14-2.49,1.94-3.49-.89-4.36,1.69-6.91,4.11-9.82,2.65-3.19,1.76-6.3-2-8.13a40.64,40.64,0,0,0-5-1.75c-2.65-.88-5.42-1.68-6-5s2.17-4.22,4.07-5.89c1.55-1.36,3.95-3.62,3.63-4.89-1.35-5.39.9-9,4.4-12.49.28-.28,0-1.08,0-1.94-2.42-.65-5-.92-7.18-2.07-2.42-1.29-3.14-3.73-2-6.92,2.75.45,5.22,1,7.71,1.23,4.56.42,6.07-1.12,6-5.75,0-2.69,0-5.39,0-8.41,2.78-.46,5.1-.79,7.4-1.22,4.06-.78,8.22-1.25,12.13-2.51,6.12-2,9.86-9.74,6.86-14.08-2.65-3.84-5.9-7.27-8.81-10.93a19.26,19.26,0,0,1-1.5-3.35c4.49,1,8.11,1.67,11.68,2.59,6.48,1.66,11.49-.07,15.43-5.65a59.09,59.09,0,0,0,7.84-17c.5-1.64,1-3.67,2.24-4.63,4.47-3.55,6.73-8.68,10.14-13,3.17-4,3.79-8,2.75-12.7a48.38,48.38,0,0,1-1-5.22c-.43-3.77.55-7.35,3.64-9.51,8.69-6.08,17.31-12.49,28.6-12.85,6.14-.19,10.42-3,12.89-8.68,1.64-3.79,3.39-7.55,5.36-11.18,1.63-3,2.88-6,2.43-9.51a8.07,8.07,0,0,1,.86-4.55c3.59-6.61,3.76-13.47,2.17-20.63-1.26-5.67-.45-11,3.72-15.42a15.74,15.74,0,0,0,3.53-4.71c2.39-6.3,6.86-11,11.43-15.62,8.15-8.26,8.86-17.81,4.09-28.94-1.38-3.21-3.65-5.12-7.29-4.89-4.49.28-8-1.81-11.22-4.53-2.86-2.42-5.59-5-8.51-7.34s-6.06-4.08-9.77-3.41c-3.88.69-7.36-.17-11-1.13a33.4,33.4,0,0,0-9.29-1.26c-3.47.11-5.62-.89-6.78-4.22-.36-1-1.23-2.43-2.13-2.67-6.23-1.66-11.76-5.68-18.58-5.38-6.47.28-9.69-5.3-14.34-8.29-.43-.28-.45-1.49-.34-2.23.52-3.68-1.41-6.3-3.36-9.13a22.84,22.84,0,0,1-3.53-7.86,12.56,12.56,0,0,0-4.72-7.87c-2.37-1.78-4.7-3.6-7.09-5.34-6-4.36-12.47-6.69-20-5.29a15.46,15.46,0,0,1-13.21-3.76,48.29,48.29,0,0,1-6.84-7.3c-2.48-3.19-5.11-6-9.2-7a5.73,5.73,0,0,1-4.44-4.22c-.83-2.74-2.14-5.32-3.37-8.31l-4.36,2.05c-.56-.46-1-.79-1.44-1.19-4.89-4.85-9-5.42-14.58-1.4-3,2.18-5.7,2.29-8.68.35a12.51,12.51,0,0,0-9.61-1.91,7.28,7.28,0,0,1-7-2.22,30.73,30.73,0,0,0-3.61-3c-5.9-4.14-6.48-4.08-12.16.33-2,1.57-4.12,3.38-6.57.33a11,11,0,0,0,1-2.2c.27-1.37,1-3.3.38-4.09-1.6-2-3.15-.13-4.42.94a26.25,26.25,0,0,1-15,6.33,10.07,10.07,0,0,0-9,6.67,30.19,30.19,0,0,1-4.5,7.57c-3.69,4.48-5.81,4.62-10.37.91-2.69-2.19-5.49-4.12-9.06-3.52a30.18,30.18,0,0,0-7.8,2.48c-4.72,2.22-9.09,2.36-13.25-1.09-4.65-3.87-9.15-8.25-8.49-14.73a90.29,90.29,0,0,1,4.18-17.73c1.81-5.72,1-8.76-4.22-11.8a15.39,15.39,0,0,0-9.7-1.7c-4.31.45-8.65.74-13,.79-1.77,0-3.54-.78-5.11-1.16,0-1.24-.15-1.71,0-2,3-5.23,3.37-11.5,7.19-16.56,2.37-3.15,3.17-7.52,4.49-11.41a9.79,9.79,0,0,0,.31-4.07c-.35-3.25-1.66-4.25-5.07-4.29-8.37-.08-15.18,2.35-18.24,11.05a20,20,0,0,1-1.62,3.15,10.36,10.36,0,0,1-7.55,5.15c-4.26.78-8.51,1.61-12.77,2.39-5.8,1.06-11-.68-14.16-5.35-6.14-9.09-9.58-19.11-5.74-30.17,1.47-4.25,3.77-8.21,5.5-12.38,1-2.49,2.35-5.13,2.38-7.72.06-5.2,2.58-8.55,6.68-11.06,3.52-2.15,7.46-3.74,10.71-6.24,7.08-5.42,14.71-6.13,22.95-3.78,1.7.48,3.33,1.18,5,1.75,3.61,1.22,7.22,1.14,9.95-1.64,3.86-3.93,8.22-5.83,13.72-5.22,1.34.15,2.8-.57,4.11-.34,2.84.49,5.87.86,8.36,2.16,2.79,1.45,5.18,2.63,8.26,1,2.52-1.3,4.52-.2,6.23,1.8,2.35,2.76,3.22,5.65,1.89,9.28-.85,2.3-1.86,5.2,1.06,6.91a37.91,37.91,0,0,0,13.83,4.5c.43-1.47,1-2.43.92-3.31-.6-5.06-.83-10.25-2.18-15.12-2.65-9.6,1.33-15.95,8.89-21.07,3.91-2.64,7.64-5.56,11.54-8.22a50.4,50.4,0,0,1,5.2-2.74c5.42-2.78,10.8-5.66,16.28-8.32,4.78-2.33,6.26-6.09,5.77-11.14-.27-2.8-.05-5.65-.05-8.93,5.34,1.57,8.33-.1,9.81-4.69a4.6,4.6,0,0,1,2.26-2.59c4-1.66,6.26-5.28,9.39-7.82s7.71-3.34,11.65-4.91c.18-.07.33-.22.52-.28q4.46-1.47,8.92-2.9c1.43-.46,2.88-.87,4.56-1.38-1-7,2.18-11.25,8.1-13.74.91-.39,1.81-.79,2.73-1.12,6.29-2.3,12.56-4.66,18.89-6.83,2.27-.77,4.68-1.88,7.79-.27-1.65,1.31-3.17,2-3.89,3.24a5.79,5.79,0,0,0-.61,4.21c.59,1.83,2.35,1.79,4,1,1.23-.62,2.4-1.37,3.66-1.92,3.92-1.75,7.8-3.63,11.83-5.09,5.18-1.86,10.54-3.24,15.73-5.08a15.41,15.41,0,0,0,4.91-3.14c1.44-1.3,1.94-3.39.28-4.66-.84-.64-3-.4-4.08.25a43.24,43.24,0,0,0-5.32,4.27c-2.78-.44-5-1.45-6.72-.93-2.93.88-5,.41-6.78-1.88a6.53,6.53,0,0,1-.35-8.23c1.4-2.12,3.35-3.86,4.88-5.91,1.94-2.58,1.23-4.45-2-5-1.92-.31-3.94,0-5.9-.13a40.55,40.55,0,0,1-4.2-.73c-.12-.41-.23-.83-.34-1.24,1.62-1.27,3.09-3.32,4.88-3.63a61.64,61.64,0,0,1,11.62-.48c2.08,0,3.29,1.24,4.1,3.5,1.43,4,3,4.39,8,2.68l-5.26-5.24c2.8-.56,4.76-1.49,6.55-1.23,9.9,1.44,18.69-1,26.8-6.68,1.9-1.33,4.36-1.79,6.65,1.25-7.2,6.59-15.07,12.5-21.12,21.78,3.61.38,6.26.58,8.88.94,7.1,1,14.61.17,20.87,5,.94.73,3.41.77,4.23.06,1.1-1,2.11-3.29,1.67-4.47a12.36,12.36,0,0,1,0-8.56c.75-2.39-.7-4.18-3.08-4.91-1.11-.35-2.42-.13-3.49-.54-1.55-.59-3.72-1.21-4.22-2.41s.81-3,1.5-4.53,1.67-3,2.43-4.51a50.27,50.27,0,0,1,2.43-5.26c3.66-5.64,3.69-6.11-.63-11.12a5.57,5.57,0,0,1-1.36-1.9c-1.14-4.19-4.52-5.59-8.1-7-5.91-2.31-6.28-3.47-6.34-9.74a60.63,60.63,0,0,0-1.46-14.57c-2.2-8.5-5.23-9.28-11.68-3.46a35.76,35.76,0,0,1-12.62,7.43,5,5,0,0,1-5.83-1.41,5.72,5.72,0,0,1-1.37-6.52c.44-1.08,1.28-2,1.81-3,.92-1.82.64-3.26-1.2-4.54-2.71-1.87-5.13-4.17-7.88-6-1.7-1.13-4.15-2.81-5.62-2.32-5.08,1.7-9.65.65-14.43-.83-4.57-1.42-6.23-.56-8.84,3.51-2.42,3.77-4.63,7.72-7.46,11.15-2.36,2.86-2.88,5.64-2.58,9.21,1.11,13.05-5.41,22-18.2,25.11-4,1-8.15,1.2-13.16,1.9-.67,2.49-1.66,5.42-2.21,8.42-.91,5-3.28,8.81-8,11-3.22,1.49-5.33,1.18-7.49-1.19-2-2.21-3-4.59-1.09-7.48.71-1.11,1.51-2.64,1.28-3.77-.51-2.39.56-3.66,2.16-5s3.11-2.75,2.16-5-3-2.41-5-2.2c-8.85.91-16.18-2.5-22.88-7.81-3.68-2.92-7.7-4.68-12.57-4.1-1.21.14-2.52-.46-4.71-.92,2.91-4.77,1-8.11-2.63-10.84,2.36-5.69,6.86-8.69,11.47-11.82,12.06-8.18,26.72-10.45,39.19-17.63,1-.56,2.31-.47,3.43-.83q6.69-2.19,13.34-4.49c1.87-.64,3.42-2.47,6.11-1.57l-6.28,7.71C492.6,295.8,492.6,295.8,499.21,294.19ZM1562.43,658.1c3.87.75,6.37-1.52,8.25-4.28a23.81,23.81,0,0,1,11-8.56,19.25,19.25,0,0,0,5.57-3.26,8.72,8.72,0,0,0,2.9-4.84c1-9.82-.87-18.89-8.3-26-3-2.87-6.33-5.36-9.26-8.27-3.75-3.75-7.37-7.65-10.82-11.68a6.45,6.45,0,0,1-.51-8.22,29.56,29.56,0,0,1,12.2-10.89,8.85,8.85,0,0,1,10.62,2.76c1.94,2.55,1.94,5-.08,7.5-.63.76-1.44,1.36-2.08,2.1-2.7,3.11-2.87,5.43-.59,7.76a6.5,6.5,0,0,0,8.61.6c4.11-3.07,4.73-7.22,1.75-11.84s-2-7.22,3.07-8.84c1.3-.42,2.71-.49,4-.79,1.92-.44,4.25-.42,5.65-1.53,4.69-3.75,10.38-4.75,15.83-6.24,13.94-3.82,22.32-12.69,25.5-26.66.48-2.1.48-4.87,1.82-6.12,4-3.73,2.84-8.29,3.09-12.7.13-2.41-.47-4.26-2.83-5.27s-2.67-2.42-2.67-5.06a13.49,13.49,0,0,0-4.49-9.86c-3-2.8-5.74-5.91-8.72-8.76-2.53-2.41-5-5.12-7.94-6.83-3.92-2.26-4.25-5.6-1.31-8.7,1.49-1.56,3.35-2.75,5-4.21s2.93-2.91,4.68-4.66c-5.41-3.51-10.07-5.09-15.47-1.7-1.19.74-4,.79-4.78-.05-3-3.2-6.48-4.87-10.54-6.12-3-.92-3.23-3.72-.41-5.05,3.6-1.69,5.93-4.44,8.18-7.45a12.92,12.92,0,0,1,2-2.14c1.72-1.42,3.6-2.63,5.92-1.56,2.15,1,2.23,3,2.14,5.06-.1,2.33-.29,4.75,2.77,6.23,1.7-1.13,3.44-2.39,5.27-3.48,6.09-3.62,15.67-1.13,16.89,4.91,1.07,5.33,4,7.26,8.81,7.71,2.22.2,4.66.76,5.25,3.15,1.31,5.33,6.11,9.16,6,15.13,0,2.81,2.33,4,5,3.76a20,20,0,0,0,5.14-1.22c8.55-3.2,9.76-6.49,4.73-14.09a45,45,0,0,0-17.48-15.52c-4.94-2.51-5.34-4.75-1.24-8.35,3-2.66,3.74-5.4,3.22-9.37-.88-6.64,5.09-11.14,11.37-8.85,3.1,1.12,5.73.95,8.34-.95a14.13,14.13,0,0,0,5.66-8.05c.89-3.42,2-6.78,2.84-10.21a30.28,30.28,0,0,0,.74-5.21c.26-3.51,0-7.13.71-10.51a11.08,11.08,0,0,0-1.69-9c-1.72-2.63-3.74-5.06-5.57-7.63a23.13,23.13,0,0,1-2.79-4.49,3.72,3.72,0,0,1,.53-3.05,2.73,2.73,0,0,1,2.61-.14,23.91,23.91,0,0,1,5.43,4.44c3.6,4.42,6.82,9.16,10.36,13.64,1.69,2.13,2.95,5.23,6.8,4.48.18-1.77-.17-3.65.58-4.82,2.31-3.61.63-5.86-2-8.06a48.89,48.89,0,0,0-5-4.17c-5.78-3.59-10.4-8.35-14.76-13.51-2.08-2.45-5-4.22-7.82-6.58-3.93,5.83-7.94,4-12,1.47-1.67-1-3.45-1.9-5.16-2.88-2.58-1.46-5.19-1.87-7.85-.28-3.3,2-6.36,1.33-9.44-.58s-5.94-3.62-9.85-3.39c-3.19.19-4.09-1.77-2.61-4.72,1-2.09,2.62-4,3.44-6.13,1.73-4.53,2.81-9.33,4.78-13.74a9.29,9.29,0,0,1,5-4.4c2.51-.87,5.43-.77,8.16-.67,3.94.15,7.87,1,11.79,1a30.78,30.78,0,0,0,10.38-1.42,11.8,11.8,0,0,1,10.19.34,32.21,32.21,0,0,0,4.81,2.24c5.57,1.72,11,1.68,16.59-1.36-1-1.36-1.43-2.2-2-2.92-4.32-5-2.39-11.39,4-13.16,4-1.12,7.32.16,10.45,2.61,2.58,2,5,4.75,8.9,3.14,4.18-1.74,4.82-5.24,3.57-10.67a61.06,61.06,0,0,1,5.13,3.91c4,3.84,4,5.09,2.14,10.43-1,2.89-1.19,6.06-1.94,9.06-.36,1.44-.82,3.25-1.88,4.05-3.51,2.66-2.73,5.7-1.44,9a30.71,30.71,0,0,0,9.66,12.5c9,7.33,18.17,14.53,27.3,21.75,1.36,1.07,2.91,1.9,4.17,2.71,3.43-1.44,3.75-3.7,2.93-6.51-.44-1.47-1.34-3.33-.83-4.46,1.43-3.16,0-5.66-1.3-8.19l4-5a31.75,31.75,0,0,1-3.63-3.25c-.93-1.14-2.38-2.85-2.07-3.82,1.12-3.56-.69-5-3.34-6.49-1.49-.85-2.47-2.56-3.9-3.55-1.87-1.31-3.87-3-6-3.26-3.92-.5-5.39-2.68-6.11-6.08-1.25-5.85-.23-7.07,5.7-7,2.1,0,4.74.23,6.21-.87,4.06-3,8-2.52,12.3-1.08,5.42,1.79,5.94,1.48,9.22-3.29.44-.65.79-1.38,1.29-2,4.31-5.21,9.27-9.06,16.65-8.08,1.17.15,2.43-.47,3.9-.78-1.6-3.93-4.89-4.52-7.7-5.76s-5.6-2-8-3.58c-2.86-1.83-2.81-4.86,0-6.8a9.5,9.5,0,0,1,4.89-1.69,38.5,38.5,0,0,1,9.35.85c4.59,1.11,9,2.84,13.55,4.16,3.79,1.1,7.64,1.93,11.61.43.79-4.92-1.75-8.32-5.56-10.2-4.17-2.05-9-4.59-13.3-4.16-9.91,1-18.5-2.76-27.51-5.25-1.14-.31-2.33-.44-3.48-.7-5-1.11-10.13-1.84-15-3.45-7.34-2.43-14.5-4.17-22.4-2.63-6.84,1.33-13.88.85-20.1-2.86-6.6-3.93-13.66-2.26-20.6-2.23-.26,0-.52.52-.84.87.09,1.24.18,2.53.33,4.65-2.3-.53-4.31-.59-5.91-1.43-5-2.64-9.83-5.16-15.49-1.85a2.45,2.45,0,0,1-1.16.08c-8.28-.1-16.57,0-24.83-.42a17.84,17.84,0,0,1-8.78-2.78,31.64,31.64,0,0,0-17.8-5.5,125.77,125.77,0,0,0-14.79.34c-6.33.6-12.54,1.17-18.55-1.65a7.6,7.6,0,0,0-3.48-.56,15.72,15.72,0,0,1-11.49-3.76c-2.55-2.15-5.58-2.64-8.86-2.59-6.51.11-13,0-19.52,0-5.52,0-11-.2-16.56-.11-1.47,0-3.77.34-4.26,1.28-3,5.7-8.11,4.65-13,4.43-4.14-.19-8.27-.76-12.39-.66a9.25,9.25,0,0,0-5.79,2,5.65,5.65,0,0,1-7,1.22,25.42,25.42,0,0,1-7.33-4.73c-6.43-6.58-13.73-10.34-23.21-9.21a35.1,35.1,0,0,1-10-.18,11.86,11.86,0,0,0-9,1.7,10.21,10.21,0,0,1-8.45,1.33,99.48,99.48,0,0,0-14.39-2.64c-5.48-.51-11-.27-16.53-.43-2.32-.07-4.91.27-6.92-.61-4-1.78-8.26-3.59-10.45-8a6.29,6.29,0,0,0-3.06-2.61c-7-3.07-14.08-5.83-22.19-4.35-5,.9-10.14.46-14.75-2.78-1.48-1.05-4.09-.7-6.17-.64-4.3.12-8.62.29-12.88.82a19.71,19.71,0,0,0-7.72,2.16c-4.72,2.88-9.46,3.82-14.64,1.9-3.75-1.39-7.26-.83-10.94.42-4.45,1.52-9,2.64-13.61,3.8-3,.77-6.2,1.14-9.24,2-4.89,1.33-4.92,1.51-5.28,6.77-5.8,2.53-12.61-.57-18.38,2.84.11,1.73.2,3.19.31,5.06a13.27,13.27,0,0,1-3.23-.37c-3.39-1.37-6-.37-8.52,2.07-3.53,3.39-3.76,3.39-7.71.37-2.32-1.76-3.86-1.3-5.48.73-1.29,1.61-2.68,3.12-4.69,5.46-1.19-2.51-1.9-4-2.62-5.54-2.85-5.95-13.6-7.87-18.36-3.29-5.07,4.89-6.09,10-2.35,14.56,1.34,1.65,3.81,2.41,5.84,3.45,1.58.81,3.88.84,3.54,4.34-4.08-1-7.9-1.74-11.59-2.89a78.06,78.06,0,0,0-27.38-3.78c-.3,0-.57.41-1,.71.49,1.49,1,3,1.79,5.38a43.72,43.72,0,0,0-5.18-1.07,24.36,24.36,0,0,0-6.38-.05c-7.21,1.35-14.36,4.53-21.54-.06a1.63,1.63,0,0,0-1.15-.16c-4.34,1.12-8.92,1.73-12.92,3.59-4.72,2.21-10.16,3.11-13.94,7.42-1.64,1.87-4.42,1.32-6.59-.06s-1.29-3.31-.57-5.18c.18-.46-.13-1.11-.23-1.77-2.73-1.62-5.57-2.59-8.18-.22-2.45,2.22-.69,4.66.26,7,1.42,3.56.8,4.24-3.39,4.09-8.48-.28-12.53,2.17-15.76,10-2.11-.4-4.35-.87-6.6-1.24s-4.79-2-6.84.75c1.36,1.53,2.51,2.82,4,4.5-10.35.37-17-5.39-16-13.95,4.62.61,9.23,1.4,13.87,1.76a50.71,50.71,0,0,0,9.93-.24c2.81-.34,5.69-1.59,6-4.8.33-3.47-2.88-4.45-5.39-5.39a195,195,0,0,0-19-6.53c-7.57-2-15.33-3.19-23-4.65-1.14-.22-2.44.27-3.53,0-1.8-.51-4.18-.92-5.09-2.22-2.71-3.89-6.43-4.09-10.47-4-5.31.07-10.67-.37-15.93.19-5.95.64-12.17.07-17.67,3.61-1.84,1.19-4.54,1-6.82,1.55-3.58.89-7.53,1.25-10.61,3-4.06,2.35-7.86,4.39-12.7,3.72-.84-.11-1.78.53-3.12,1,2.58,5.29-.16,8.17-4.35,10.36-5.86,3.08-8.77,9-12.11,14-2.46,3.75-4.93,5.09-8.87,5.37a19.17,19.17,0,0,0-6.29,1.23c-4.46,2-8.81,4.25-13.07,6.64-1.82,1-4.61,2.55-4.72,4-.54,6.77-.33,13.61,3.2,19.81a2.3,2.3,0,0,0,.4.43c4,3.95,9.07,4.73,14.09,2,2.75-1.52,5.24-3.54,8-5,3.74-1.91,5.53-1,7.38,2.83a38.85,38.85,0,0,0,3.53,6.05c1.69,2.32,4.84,4.27,3.53,7.5-1.39,3.4-5.19,3.05-8.25,3.49a6.36,6.36,0,0,1-2.05-.37c-.69-6.88-.69-6.88-2.61-9.8-1.8.51-3.72,1-5.56,1.61-5.2,1.83-6.77,4.77-5.31,10,.53,1.89,1.52,3.66,2,5.55,1,4-.28,6.11-4.31,6.76a50.51,50.51,0,0,1-8.84.7c-4-.06-6.44,1.77-8.74,4.93-2.49,3.44-5.38,7-8.91,9.18-4.59,2.85-10.21,4-13.11,9.29-.33.59-1.3.84-2,1.24-4.33,2.59-8.82,4.18-13.49,1.69-.82.93-1.4,1.31-1.55,1.82-1.37,4.4-4.58,4.92-8.46,4.13-.78-.16-1.55-.32-2.33-.43-3.53-.47-6.07.51-6.32,2.7-.38,3.22,2.44,3.52,4.53,4.45,2.48,1.1,5.29,1.81,7.34,3.46,6.66,5.37,7.39,12.62,5.45,20.38-.87,3.47-2.8,5.14-6.3,5.13-6.89,0-13.79-.32-20.68-.61-3.54-.15-7.07-.79-10.6-.77-8.38,0-10.93,2.8-10.34,11,.41,5.59.32,11-2.91,15.95-1.69,2.61-2.16,5.32-.35,8.32.85,1.39.84,3.36,1,5.09.41,3.94,1.33,4.84,5.16,4.62,1-.06,1.94-.37,2.93-.44A8.7,8.7,0,0,1,821,476.24a19.83,19.83,0,0,1-12,12.27c-9,3.51-12.93,11.36-14.36,20.14-.65,4-1.88,7.08-4.51,9.82a31.59,31.59,0,0,1-12.91,8.07c-1.65.56-3.55,1.08-4.73,2.23-3.48,3.43-7.87,6.64-9.69,10.89-2.85,6.64-7.17,12-11.32,17.6-2.3,3.12-3.68,6.9-5.69,10.26-2.67,4.48-2.79,5.38.6,9.35,1.37,1.6,2.56,3.12,1.81,5.26-1,2.8-.37,5.35.63,8,.53,1.42,1,3.29.55,4.59-2.28,6.19-2.05,13.26-6.51,18.68a6.75,6.75,0,0,0-.95,7.69,12.47,12.47,0,0,1,1.22,6.77c-.77,4.12.87,6.87,3.66,9.36,3.83,3.41,7.58,6.91,11.55,10.15,4.42,3.61,7.57,7.78,8.81,13.56a12.48,12.48,0,0,0,4.17,6.79c7.49,5.75,15.36,11,23,16.53,5.25,3.76,10.57,4.57,16.64,1.71,7.59-3.57,15.81-3.68,23.73-1.7,5.39,1.36,9.87.53,14.81-1.51a147.5,147.5,0,0,1,22.26-7.68c11.12-2.66,14.67-.87,20.25,9,2.19,3.85,4.92,5.3,9.14,4.54a57,57,0,0,1,8.19-1.13c8.27-.25,13.85,6.89,11.89,14.91q-1.26,5.16-2.32,10.36c-.51,2.49-.33,5.3-1.44,7.47-2.21,4.3-1.49,8,1.09,11.61a40.16,40.16,0,0,0,6.17,7.08A42.44,42.44,0,0,1,935.93,754c2.48,5.58,5.14,11.09,7.36,16.77.89,2.28,1.61,5.14,1,7.36-1.13,4.21-.3,7.76,1.62,11.34a12.79,12.79,0,0,1,.51,11.95c-1.25,2.63-3.45,4.8-4.83,7.38a63.08,63.08,0,0,0-3.92,9.05c-1,2.73-1.42,5.63-2.22,8.43-1.92,6.76-2.76,13.14,1.37,19.77,7.09,11.37,15.39,22.39,15.21,36.81a5.14,5.14,0,0,0,.21,1.16c1.13,5.18,2.28,10.36,3.41,15.54s3,9.59,6.87,13.44c2.55,2.55,4.16,6.1,5.93,9.35,2,3.62,3.32,7.6,5.51,11,2.06,3.24,2.74,6,1.4,9.85-2.1,6,5.16,14,11.44,13,4.05-.64,8-1.81,12-2.56a95.26,95.26,0,0,1,9.81-1.38c4.5-.36,9.17.2,13.51-.79,15.57-3.54,27-13.16,36.16-25.83a69.55,69.55,0,0,1,8.09-9.23c5-4.81,7.51-10.65,6.8-17.4-.38-3.67.8-5.73,3.73-7.09,2.67-1.24,5.49-2.18,8.27-3.16,3.92-1.38,6-4,6.66-8.19.95-6.25-.22-12.13-2.27-17.95-1.86-5.26-1.49-6.49,2.8-10.2,3.57-3.09,7.36-6,10.65-9.33,2.84-2.91,5.89-5.34,9.79-6.32,5.91-1.49,9.94-5.37,13.68-9.8,2.59-3.06,3.34-6.42,3-10.41-.51-6.46-.62-12.95-.7-19.43a15.83,15.83,0,0,0-2.27-8.89c-3.24-5.1-5.84-10.5-4.51-17.17.5-2.54-.94-5.71-2.17-8.28s-1.75-5.32-.48-7.92c2.77-5.64,5.63-11.25,8.77-16.69,1-1.79,3.07-3,4.56-4.53,2-2.11,4.3-4.08,5.8-6.52,5.26-8.58,12-15.81,20.57-20.86,10.73-6.31,17.94-15.82,25.28-25.33a7.37,7.37,0,0,0,1.69-3.09c1.06-6.7,5.78-11.56,8.43-17.41a67.5,67.5,0,0,0,4.86-16.88c.87-5.34-1.53-6.57-6.61-4.79a90.91,90.91,0,0,1-10.77,2.62c-7.44,1.58-15,2.88-22.33,4.7-5.08,1.26-12.45-3-13.53-8.55.58-1.41,1.23-3,1.52-3.73,3.7-1.26,6.63-2.29,9.58-3.27,3.15-1,6.31-2,9.46-3,5-1.63,10.62-2.37,14.9-5.15a53.46,53.46,0,0,1,15.59-6.61c2.45-.66,5.39-2.33,6.54-4.41,2.62-4.73,6.39-6.45,11.39-7.26a21.21,21.21,0,0,0,8.58-3.39c4.33-3.06,8.22-6.74,12.24-10.23,1.16-1,3-2.25,3-3.39,0-4.32,2.94-6.57,5.35-9.41a43,43,0,0,0,4.94-8c.57-1.1,1-3,.46-3.82-3-4.4-6-9.17-11.93-9.67s-9.15-3.81-10.79-9.26c-.53-1.75-1.65-3.32-2.78-5.53-2.89,2.65-5.17,4.76-7.48,6.84a20.38,20.38,0,0,1-15.12,5.55c-5.29-.23-6.13-.88-6.86-6-.27-1.87-.61-3.74-.94-5.69l-4.6-.29c-4-4-7.41-7.24-10.56-10.68a65.35,65.35,0,0,1-7.75-9.56c-2.58-4.19-1.22-7,3.37-8.66,3.66-1.3,6.82-.54,9.54,2.69a39.22,39.22,0,0,1,3.9,5.91,18,18,0,0,0,7.91,7.69c2.48,1.2,4.79,2.74,7.19,4.1,6.28,3.56,12.58,5.35,19.63,1.68,3.6-1.88,5.77-1.16,7.28,2.39,2,4.68,5.71,6,10.12,7,15.43,3.6,31,2.15,46.53,1.52,3.26-.13,6,.13,8,2.6,4.35,5.58,9.92,9.47,16.05,12.78,1.91,1,2.9,2.46,3.13,5.11.71,8.1,10.18,12.79,17,8.85,4.9-2.81,6.68-1.88,7.14,3.61a84.64,84.64,0,0,0,12.45,38.34c1.95,3.12,3,6.78,4.52,10.2,1.17,2.7,1.73,5.92,3.58,8,4.72,5.34,7.2,11.64,9.54,18.16a27.21,27.21,0,0,0,4.33,7.63c2,2.52,5.1,3,6.73.95,5.33-6.64,13.74-11.74,11.86-22.27a4.59,4.59,0,0,1,.59-2.86c2.84-4.91,1.62-9.91.52-14.94-1.63-7.49-1.21-8.5,5.72-12.15a26.77,26.77,0,0,0,8.36-7.14c5.08-6.19,11-11.67,16.7-17.39a7.19,7.19,0,0,1,2.55-1.47c3.62-1.34,6.13-3.38,6-7.72-.06-2.28,1.49-3.56,3.71-3.88,1.37-.19,2.75-.29,4.12-.37,6.5-.37,13-.46,18.67-4.53,1.71-1.24,3.2-.65,4.66.86,5.16,5.33,9.1,11.91,15.87,15.66.92.51,1.39,1.85,2.06,2.81a54.7,54.7,0,0,0,4,5.77c2.78,3.07,3.76,6.46,2.41,10.35-1,2.8-.59,5.06,2,6.71a6.44,6.44,0,0,0,7.74-.18c1.44-1,2.73-2.26,4.12-3.35,4-3.16,5.9-2.71,8.06,2,.57,1.25.9,2.61,1.43,3.87,2.13,5.08,4.3,10.13,6.46,15.19.46,1.09,1.31,2.16,1.32,3.25.09,7.82,2.75,15.55.62,23.44-1.36,5.09,0,9,4.7,12.09,5.76,3.79,10.23,9.29,10.83,16.25s4.06,12.26,8.25,17.21a34.77,34.77,0,0,0,16.8,11.16c1.42-4.3,1.63-4.45-.51-7.46-2.79-3.89-3.67-8.11-3.75-12.78,0-2.45-.49-5.34-1.88-7.21-3.64-4.92-8-9.37-13.78-11.78-3.85-1.6-5.86-4.19-7.26-7.93a25.28,25.28,0,0,0-4.55-8.15c-3.41-3.73-3.59-7.48-2.16-12,1.37-4.28,2.16-8.74,3.32-13.09a16.35,16.35,0,0,1,1.6-3.09c1,.46,1.94.59,2.36,1.12,2.66,3.38,6.34,5.09,10.08,6.93,2.17,1.07,3.82,3.24,5.58,5s3.21,4,5.14,5.59c2.11,1.73,5.21,2.51,6.78,4.55S1561.64,655.3,1562.43,658.1Zm174.83,293.65c1,4.42,1.83,8.48,2.72,12.53,0,.18.23.33.37.46,3,2.61,2.88,5.5,1.53,9.06s-.31,6.49,2.77,7.45c6.38,2,12.44,6.24,19.81,3.22a7.4,7.4,0,0,1,6.07.6c4.18,2.93,7.58,2.07,11.29-.69a21,21,0,0,1,13.2-4.56c5.67.17,9.15-2.66,12-7.07,6.46-9.81,16-16.73,24-25.11a9.84,9.84,0,0,1,2.43-1.68c5.37-2.9,9.2-7.34,12.51-12.32,2.61-3.94,5.09-8,7.89-11.79a25.92,25.92,0,0,0,4.75-13.74,31.69,31.69,0,0,1,1.84-8.56c1.35-3.53,1-6.4-1.47-9.28-2.3-2.68-4.86-5.37-6.29-8.51-1.62-3.57-2.4-7.36-6.21-9.56-.91-.52-1.28-2.38-1.45-3.68-.83-6.26-3.31-11-9.71-13.46-4.28-1.62-6.2-5.32-5.91-9.95a22.78,22.78,0,0,0-2.3-12,9.41,9.41,0,0,1-.77-4.57c.32-7,.37-7-6.23-10a16,16,0,0,1-2-1.29c-.6-7.38,0-15.06-5.78-21.2-3.25,1.75-4.53,4.61-5.62,7.56-2.57,7-5,14-5.85,21.57a21.94,21.94,0,0,1-6.89,14c-2.83,2.63-5.14,2.71-7.93.74-6.23-4.42-12.44-8.85-18.74-13.16-5.72-3.91-5.68-6.92.3-10.2a6.31,6.31,0,0,0,.9-.58c1-2.72,1.86-4.84,2.51-7,.53-1.77,1.58-4,1-5.37-1-2.46-3.86-1.7-5.78-1.08-4.3,1.37-8.17.38-12-1.32-2.35-1-4.65-2.17-7-3.06a19.1,19.1,0,0,0-3.84-.55c.29,6.29.16,6.67-5.49,6.46a10.52,10.52,0,0,0-10.29,5.52c-1.83,3-3.78,6-5.82,8.9-2.58,3.64-4.74,4-8.43,1.46-1.46-1-2.64-2.56-4.22-3.18-1.89-.74-4.31-1.5-6.09-.94-6.08,1.92-11.73,4.83-14.87,10.83-2.5,4.79-6.2,7.57-11.68,7.64-3.26.05-5.12,1.63-5.9,4.7a18.69,18.69,0,0,1-1.06,3.38c-3.28,6.84-8,12.1-15.76,13.93-5.34,1.24-10.61,2.76-15.92,4.15a13.74,13.74,0,0,1-4,.89c-4.65-.3-8.37,1.77-12,4.2a63.27,63.27,0,0,1-8.55,5.22c-3.81,1.72-6.89,3.55-7.14,8.34-.09,1.64-1.21,3.33-2.16,4.8-1.75,2.7-2.34,5.4-.73,8.32,1.37,2.48.7,4.43-1.22,6.34-.91.91-2.06,2.29-2,3.37a62.74,62.74,0,0,0,1.81,12.16c1.15,4.1,1.93,7.92.43,12.11a8.63,8.63,0,0,0,.11,5.22c2.4,7.36-.39,13.08-5.33,18.19-4.3,4.44-4.24,6.38,1.12,9.42a13.28,13.28,0,0,0,7.17,1.93,24.14,24.14,0,0,0,10.1-2.75,37.49,37.49,0,0,1,25-5.06,15.87,15.87,0,0,0,13.09-3.66c4.73-3.89,10.23-7.3,16.49-7.33a54.49,54.49,0,0,0,19-3.75c8.73-3.24,17.11-2,25.11,2.27a11,11,0,0,1,4.6,4.33c2,4.13,3.42,8.55,5.31,13.5C1728.88,958.18,1731.49,951.65,1737.26,951.75Zm10.73-230c-.76.67-2.71,1.74-3.7,3.38-1.64,2.71-1.6,6.15.69,8.24,2.84,2.61,5.11,5.07,5.57,9.12.13,1.11,2.09,2.26,3.44,2.93a14.55,14.55,0,0,0,5.58,1.79c8.92.42,15.81,5.63,22.93,9.95,2.48,1.5,4,5.2,5.11,8.2,1,2.71-1.86,4-3.61,5.48-.6.51-1.45.95-1.69,1.6-.5,1.38-1.29,3.19-.78,4.24s2.52,1.79,3.81,1.71a22.4,22.4,0,0,0,6.23-1.67c2.7-1,5.26-.88,7,1.43,4,5.36,9.4,5.63,15.35,5.21,2.65-.19,4.52-1,6-3,1-1.44,2-2.92,3-4.35A6.43,6.43,0,0,1,1829,773c4.46.49,8.48,2,11,6.05,1.12,1.85,2.12,3.77,3.1,5.7a9.79,9.79,0,0,0,8.8,5.88c3.07.21,6.06,1.41,9.13,2a23.71,23.71,0,0,0,4.3,0,24.36,24.36,0,0,0-.69-4.8,7.45,7.45,0,0,0-2.26-2.68c-4.07-3.63-8.14-7.26-12.3-10.78-3.92-3.32-4.11-3.65-.74-7.95,1.61-2.06,1.36-3.57-.49-5a12.79,12.79,0,0,0-3.6-2c-3.5-1.21-6.14-3.08-7.71-6.7a11.12,11.12,0,0,0-4.44-4.53,45.39,45.39,0,0,0-8.58-3.88c-9.11-3.08-18.28-6-27.41-9a15.33,15.33,0,0,1-4.29-1.95c-5-3.64-9.76-2.24-14.35.49-2,1.18-3.51,3.11-5.16,4.79-4.2,4.28-7.11,4-10.19-1.15a12.17,12.17,0,0,1-1.44-5C1761.13,726.88,1755.17,721.52,1748,721.75Zm-90.92-38.43c-4.78-2.7-8-5.76-9.82-10.06a4.54,4.54,0,0,0-1.16-1.33c-2.49-2.25-4.5-2.24-6.47.41a49.48,49.48,0,0,0-3.51,6.14c-1.62,3-3.44,5.9-6.82,7.06-3.79,1.31-6.23,3.94-8.28,7.19-2.4,3.82-5.47,6.64-10.38,6.87-2.51.12-4.17,1.58-5.41,3.95-2.35,4.49-2.52,4.4-7.36,3.48s-7.18.51-7.88,5.25c-.81,5.44-.13,10.67,3.83,14.91a13.21,13.21,0,0,1,3.9,7.73c.45,3.86,2.52,6,6.72,5.85,1.31-.06,2.64.69,4,1,1.68.45,3.6,1.6,5,1.16,5.14-1.63,9.09.47,13.36,2.83,5.9,3.26,12.47-.3,13.51-6.9a10.41,10.41,0,0,0,.26-1.75c0-4.23,1.41-7.59,5.13-10,1.17-.76,2.61-2.58,2.43-3.68-.85-5.35,1.91-8,6.28-9.93.45-.19.68-.88.91-1.2,0-.4.15-.65.07-.78-.82-1.32-1.64-2.64-2.51-3.93-4.67-7-4.5-12.21.58-18.88C1654.59,687.22,1655.58,685.56,1657.07,683.32ZM1153.6,894.81c5.24-1,11.52-.73,14.17-7.76,2.55-6.78,5.52-13.4,8.13-20.15,3-7.7,5.91-15.43,8.59-23.24a68.53,68.53,0,0,0,2.73-11.44c.33-2.05.64-3.78,2.47-5,2.49-1.68,2.79-3.9,1.91-6.73s-1-5.8-1.71-8.67a17.89,17.89,0,0,0-1.76-5c-1.73-3-4.18-3-5.7,0-2.53,5.06-7.79,8.12-9.71,13.62-.35,1-1.62,1.69-2.54,2.42a29.59,29.59,0,0,1-11.58,5.6c-7.27,1.72-10.52,6.22-10.39,13.66A20.4,20.4,0,0,0,1149,848c1.71,5.39.61,10-3,14.3a16.89,16.89,0,0,0-3.39,5.48,20.7,20.7,0,0,0-.89,7.43c.21,3.5,1.06,6.95,1.53,10.44A10.15,10.15,0,0,0,1153.6,894.81Zm410.17-161.07c-2.81-3.07-5.79-5.87-8.13-9.12-1-1.37-.38-3.79-1-5.58a12.79,12.79,0,0,0-2.68-5,28,28,0,0,0-5.76-4.06c-6.69-4-14.45-6.4-19.59-12.8-.35-.44-1-.6-1.47-1-3.11-2.67-6.18-5.39-9.29-8.06-1.61-1.39-3.09-3.43-5-3.93-4.22-1.11-8.65-1.45-13.23-2.15-.72,3.08.78,5.37,2.72,7.32,5.25,5.27,10.49,10.58,16,15.54a20.32,20.32,0,0,1,5.67,8,23.38,23.38,0,0,0,4.86,7.85,33.6,33.6,0,0,1,7.36,11.24,27.9,27.9,0,0,0,4.44,7.55c3.74,4.3,7.83,8.31,11.93,12.29a50.68,50.68,0,0,0,7.67,6.46c5.46,3.53,10.24.9,10.4-5.48,0-1.18,0-2.36,0-3.54-.1-3.36.75-6.25,3.84-8.08.86-.5,1.75-1,2.39-1.32-1.39-4.21-2.88-7-6.25-8.85ZM1705.4,494.3c4.95,1,7.67-1.64,10.49-4.15,2.09-1.87,4.24-3.68,7.33-1.89s5.17.42,6.72-2.38a9,9,0,0,1,7.18-4.57c2.14-.28,4.29-.58,6.4-1.05,2.84-.64,5.86-1,7.65-4.25-1-3.63-1.88-7.48-3.22-11.14-1.43-3.93-2.65-7.73-1.7-12a7.32,7.32,0,0,0-.76-4.52,19.61,19.61,0,0,0-15.42-11.06c-2.13,2.42-1.74,4.61-.47,6.79.89,1.52,2,2.94,2.83,4.49a12.54,12.54,0,0,1-5.77,17.38c-1.48.71-3.37,1.81-3.85,3.16-2,5.52-6,6.61-11.21,6.48-2.85-.07-6.36,0-8.45,1.55-4.54,3.35-8.45,7.6-12.44,11.66a4.06,4.06,0,0,0-.19,5.88c2.67,3.14,5.24,6.39,8.15,9.29a5.07,5.07,0,0,0,4.16,1c.87-.22,1.6-2.06,1.86-3.28A71.66,71.66,0,0,0,1705.4,494.3ZM850.64,320.74c-3.6.79-6.31,1.19-8.9,2-9.26,2.85-14,11.42-6.65,20.44a16.54,16.54,0,0,0,7.73,5.05c1.62.58,3.08,2.91,3.65,4.75.66,2.08-1.52,2.74-3.16,3.52a7.67,7.67,0,0,0-3.1,2.44c-1.47,2.26-2.59,4.75-4.17,7.74l4.13,2.44-4.29,5c2,2.52,4.15,1.93,6.56,1.44,4.78-1,9.63-1.62,14.47-2.27,2.53-.34,5.11-.28,7.64-.61s5-1.08,5.65-4.25c.28-1.26,1.39-2.33,2.07-3.52,1.85-3.26,1.56-4.35-1.61-6.17-1.34-.77-3.49-1.26-3.88-2.36-1.93-5.54-6.89-8.51-10.31-12.75-4.89-6.08-5-6-1.26-12.54.17-.29,0-.75,0-1.62l-6.64-3C849.26,324.61,849.83,323,850.64,320.74Zm1085.84,681.92c-6.78-4.44-6.78-4.44-13,.05-1.12.81-2.26,1.59-3.3,2.48-6.65,5.75-14.35,9.55-22.49,12.69s-16,6.61-23.92,10.06a28.92,28.92,0,0,0-6.12,3.49c-2.94,2.28-2.62,4.65.79,6.27,4.49,2.12,9.25,2.56,13.66.12a122.07,122.07,0,0,0,14.87-9.44c4.3-3.27,8.42-6.39,14-7a11.71,11.71,0,0,0,4.85-1.9c4.42-2.89,8.7-6,13.05-9C1932,1008.4,1935.36,1006.62,1936.48,1002.66Zm-252.13-245.9a10,10,0,0,0-.36-9.4c-2.3-4.47-4.17-9.16-6-13.3,2.32-4,8.07-4.14,7.84-10.4-3.22.91-6,1.49-8.71,2.49-3.77,1.42-6.94,1.7-10.19-1.57-2.78-2.78-4.6-1.89-5.82,1.88s-2.45,7.37-3.93,10.95c-.88,2.13-.67,3.86.94,5.36a7.84,7.84,0,0,1,2.13,9.11,3.78,3.78,0,0,0-.27,2.31,20.38,20.38,0,0,0,1.9,3.23c1.2-.77,2.92-1.26,3.47-2.35.76-1.49.44-3.48.93-5.16.83-2.9-.15-6.36,3-9.22,1.06,1.89,2,3.54,2.91,5.16a84.89,84.89,0,0,0,4.9,8C1678.76,756.12,1680.94,757.94,1684.35,756.76ZM1630,777.7c-1.64-3.23-5-3.43-7.83-4.5-1.81-.67-5.06-1.57-5.05-2.35,0-4.08-3-3.39-5.23-4.06-4.92-1.48-9.64-2.68-14.89-.42-2.16.93-5.38-.14-8-.84-2.43-.65-4.65-2.06-7-3-4.1-1.71-8.31-2.45-12.61-.79-3.34,1.3-3.83,3.5-1,5.58,4.64,3.41,9.89,6.2,15.63,6.24a59.47,59.47,0,0,1,18.43,3.14c2.38.78,5,.73,7.55,1,4.28.53,8.57,1,12.84,1.59C1625.37,779.62,1627.88,780.22,1630,777.7Zm350.29,201.64c-2.12,0-3.08-.06-4,0-5.55.42-5.52.41-7.77-4.8-1.47-3.38-3.58-6.5-2.2-10.61.62-1.84-.6-3.46-2.83-3.61s-3.27,1.2-3.47,3.19a13.74,13.74,0,0,0,.17,4.1c1.57,7.23-1.2,12.68-6.77,17-2.44,1.91-4.86,3.84-7.51,5.94,2.94,4.16,2,7.16-1.74,9.71-.85.58-1,2.17-1.77,4,2.17-.18,3.76.16,4.72-.46A193,193,0,0,0,1963,992.79c2.65-2.13,5-4.3,8.47-4.93C1975.68,987.11,1978,984.09,1980.27,979.34ZM809.63,357.51a21.59,21.59,0,0,0-2.56,3.08c-.75,1.42-2.05,3.46-1.55,4.4.63,1.21,2.78,1.76,4.38,2.27a5.27,5.27,0,0,0,2.88-.29c4.49-1.34,9-2.65,13.4-4.26,1.08-.39,2.55-1.95,2.47-2.85-.45-4.88,2.21-8.5,4.61-12-4.58-5.86-11.39-6.54-16.47-2.16a25.29,25.29,0,0,1-6.31,3.93c-2.49,1.08-3.46,2.38-2.16,4.93C808.76,355.38,809.1,356.28,809.63,357.51Zm918.42,77.33c.19-1.34.32-2.47.52-3.59.39-2.14,2.06-3.52,3.77-2.51,5.55,3.24,9.55,1.26,13.21-3,.35-.42,1.07-.51,1.54-.84,2.24-1.58,2.39-3.64.19-5.12a8.58,8.58,0,0,0-3.81-1.42c-6.42-.67-12.08-3.28-17.62-6.35-1.59-.87-3.29-2.4-5.57-.75a11.63,11.63,0,0,0,.93,2.66c2.6,4,3.52,7.79-.14,11.77-1.51,1.65-1.06,3.7.36,5.39C1723.09,433,1725,434.61,1728.05,434.84ZM1776,1000.62c-2.43.12-4.35.29-6.27.28a31.24,31.24,0,0,1-6.43-.3c-6.71-1.39-7.51-1-9.49,5.62a38,38,0,0,0-1.46,6.29c-.48,4.06,1.4,5.94,5.38,5.7C1766,1017.71,1774.38,1010,1776,1000.62Zm-381.9-347.9c-2.35,7.45-3.21,13.93-1.48,20.57.67,2.57,2.13,4.73,5.13,5,2.73.24,5.51-.55,6.64-2.92a11.48,11.48,0,0,0,.85-7.26C1403.63,662.1,1400,657.29,1394.08,652.72Zm196,87.28a7.11,7.11,0,1,0-14.19.45,6.79,6.79,0,0,0,6.65,6.9A7.17,7.17,0,0,0,1590.1,740Zm74.46-21.31c6.47-2.43,12.07-1.63,17.7-.76a30.94,30.94,0,0,0,7.07.16c2.58-.19,4.2-1.6,4.33-4.58-1.17-.4-2.11-1-3-1a61.49,61.49,0,0,1-17.59-.95C1669.33,710.9,1666.91,713.14,1664.56,718.69Zm45,59.54c-5.16-1.74-8.45-.84-11.6,1-2.73,1.56-5.45,3.14-8.18,4.69-3.61,2.06-5.22,4.24-3.88,5.54,2.49,2.41,4.64.17,6.78-1,3.77-2.06,7.55-4.09,11.26-6.24C1705.52,781.25,1707,780.05,1709.54,778.23Zm145.66-19.59c4.54,4.43,10.64,5.89,14.87,3.91,3-1.41,4-3.33,3.57-7.41-3.08.31-6.16.71-9.25.91S1858.13,756,1855.2,758.64Zm-219.09,18.82c2.15,3.83,4.29,4.91,7.7,4.42,2.67-.38,5.36-.67,8-1.19,1.18-.23,2.26-.92,4.83-2-2.72-1.27-4.15-2.52-5.54-2.48C1646.29,776.36,1641.49,777,1636.11,777.46ZM565.77,264.38c-3.71-2.45-7.15-2.15-9.59.84-1.55,1.91-.84,3.86,1.56,4.26C560.7,270,564,267.87,565.77,264.38ZM1709.86,392.13c-.92,4.6.82,7,3.2,9.08,1.19,1,2.81,2.13,4,.42.64-1,.68-3.27,0-4C1715.11,395.67,1712.67,394.23,1709.86,392.13Zm-52.57,393.1c1.65,3.95,4.26,4.63,7.61,4.33C1664.16,784.48,1663.27,784,1657.29,785.23Zm6.11-7.33c3.36,4,5.39,4.2,8.85,1.14C1669.58,776.37,1666.74,776.37,1663.4,777.9ZM181.37,352c-1.45-.42-2.4-1-2.87-.76a19.87,19.87,0,0,0-3.94,3c-.18.17.64,1.85.76,1.82a23.07,23.07,0,0,0,4.65-1.46C180.5,354.36,180.68,353.36,181.37,352Zm934.85-94c-1.06-1.8-2.35-3-4.55-1.35-.44.33-.75,1.64-.49,1.93a3,3,0,0,0,4.62.2C1115.94,258.7,1116,258.48,1116.22,258Zm619.39,540.82c-2.23-2-3.9-2-5.64.58C1732.19,801.44,1733.89,801.75,1735.61,798.86ZM1562.43,658.1c-.79-2.8-.91-5.83-2.43-7.79s-4.67-2.82-6.78-4.55c-1.93-1.6-3.37-3.78-5.14-5.59s-3.41-4-5.58-5c-3.74-1.84-7.42-3.55-10.08-6.93-.42-.53-1.35-.66-2.36-1.12a16.35,16.35,0,0,0-1.6,3.09c-1.16,4.35-2,8.81-3.32,13.09-1.43,4.5-1.25,8.25,2.16,12a25.28,25.28,0,0,1,4.55,8.15c1.4,3.74,3.41,6.33,7.26,7.93,5.76,2.41,10.14,6.86,13.78,11.78,1.39,1.87,1.84,4.76,1.88,7.21.08,4.67,1,8.89,3.75,12.78,2.14,3,1.93,3.16.51,7.46a34.77,34.77,0,0,1-16.8-11.16c-4.19-4.95-7.64-10.16-8.25-17.21s-5.07-12.46-10.83-16.25c-4.75-3.12-6.06-7-4.7-12.09,2.13-7.89-.53-15.62-.62-23.44,0-1.09-.86-2.16-1.32-3.25-2.16-5.06-4.33-10.11-6.46-15.19-.53-1.26-.86-2.62-1.43-3.87-2.16-4.74-4-5.19-8.06-2-1.39,1.09-2.68,2.33-4.12,3.35a6.44,6.44,0,0,1-7.74.18c-2.54-1.65-2.92-3.91-2-6.71,1.35-3.89.37-7.28-2.41-10.35a54.7,54.7,0,0,1-4-5.77c-.67-1-1.14-2.3-2.06-2.81-6.77-3.75-10.71-10.33-15.87-15.66-1.46-1.51-2.95-2.1-4.66-.86-5.63,4.07-12.17,4.16-18.67,4.53-1.37.08-2.75.18-4.12.37-2.22.32-3.77,1.6-3.71,3.88.1,4.34-2.41,6.38-6,7.72a7.19,7.19,0,0,0-2.55,1.47c-5.65,5.72-11.62,11.2-16.7,17.39a26.77,26.77,0,0,1-8.36,7.14c-6.93,3.65-7.35,4.66-5.72,12.15,1.1,5,2.32,10-.52,14.94a4.59,4.59,0,0,0-.59,2.86c1.88,10.53-6.53,15.63-11.86,22.27-1.63,2-4.7,1.57-6.73-.95a27.21,27.21,0,0,1-4.33-7.63c-2.34-6.52-4.82-12.82-9.54-18.16-1.85-2.09-2.41-5.31-3.58-8-1.47-3.42-2.57-7.08-4.52-10.2a84.64,84.64,0,0,1-12.45-38.34c-.46-5.49-2.24-6.42-7.14-3.61-6.87,3.94-16.34-.75-17-8.85-.23-2.65-1.22-4.09-3.13-5.11-6.13-3.31-11.7-7.2-16.05-12.78-1.92-2.47-4.71-2.73-8-2.6-15.53.63-31.1,2.08-46.53-1.52-4.41-1-8.12-2.31-10.12-7-1.51-3.55-3.68-4.27-7.28-2.39-7,3.67-13.35,1.88-19.63-1.68-2.4-1.36-4.71-2.9-7.19-4.1a18,18,0,0,1-7.91-7.69,39.22,39.22,0,0,0-3.9-5.91c-2.72-3.23-5.88-4-9.54-2.69-4.59,1.64-6,4.47-3.37,8.66a65.35,65.35,0,0,0,7.75,9.56c3.15,3.44,6.55,6.65,10.56,10.68l4.6.29c.33,2,.67,3.82.94,5.69.73,5.1,1.57,5.75,6.86,6a20.38,20.38,0,0,0,15.12-5.55c2.31-2.08,4.59-4.19,7.48-6.84,1.13,2.21,2.25,3.78,2.78,5.53,1.64,5.45,4.72,8.74,10.79,9.26s9,5.27,11.93,9.67c.55.83.11,2.72-.46,3.82a43,43,0,0,1-4.94,8c-2.41,2.84-5.35,5.09-5.35,9.41,0,1.14-1.87,2.38-3,3.39-4,3.49-7.91,7.17-12.24,10.23a21.21,21.21,0,0,1-8.58,3.39c-5,.81-8.77,2.53-11.39,7.26-1.15,2.08-4.09,3.75-6.54,4.41a53.46,53.46,0,0,0-15.59,6.61c-4.28,2.78-9.88,3.52-14.9,5.15-3.15,1-6.31,2-9.46,3-3,1-5.88,2-9.58,3.27-.29.71-.94,2.32-1.52,3.73,1.08,5.56,8.45,9.81,13.53,8.55,7.38-1.82,14.89-3.12,22.33-4.7a90.91,90.91,0,0,0,10.77-2.62c5.08-1.78,7.48-.55,6.61,4.79a67.5,67.5,0,0,1-4.86,16.88c-2.65,5.85-7.37,10.71-8.43,17.41a7.37,7.37,0,0,1-1.69,3.09c-7.34,9.51-14.55,19-25.28,25.33-8.57,5-15.31,12.28-20.57,20.86-1.5,2.44-3.79,4.41-5.8,6.52-1.49,1.56-3.53,2.74-4.56,4.53-3.14,5.44-6,11-8.77,16.69-1.27,2.6-.82,5.2.48,7.92s2.67,5.74,2.17,8.28c-1.33,6.67,1.27,12.07,4.51,17.17a15.83,15.83,0,0,1,2.27,8.89c.08,6.48.19,13,.7,19.43.32,4-.43,7.35-3,10.41-3.74,4.43-7.77,8.31-13.68,9.8-3.9,1-6.95,3.41-9.79,6.32-3.29,3.36-7.08,6.24-10.65,9.33-4.29,3.71-4.66,4.94-2.8,10.2,2.05,5.82,3.22,11.7,2.27,17.95-.64,4.17-2.74,6.81-6.66,8.19-2.78,1-5.6,1.92-8.27,3.16-2.93,1.36-4.11,3.42-3.73,7.09.71,6.75-1.78,12.59-6.8,17.4a69.55,69.55,0,0,0-8.09,9.23c-9.19,12.67-20.59,22.29-36.16,25.83-4.34,1-9,.43-13.51.79a95.26,95.26,0,0,0-9.81,1.38c-4,.75-8,1.92-12,2.56-6.28,1-13.54-7-11.44-13,1.34-3.85.66-6.61-1.4-9.85-2.19-3.45-3.55-7.43-5.51-11-1.77-3.25-3.38-6.8-5.93-9.35-3.85-3.85-5.76-8.36-6.87-13.44s-2.28-10.36-3.41-15.54a5.14,5.14,0,0,1-.21-1.16c.18-14.42-8.12-25.44-15.21-36.81-4.13-6.63-3.29-13-1.37-19.77.8-2.8,1.26-5.7,2.22-8.43a63.08,63.08,0,0,1,3.92-9.05c1.38-2.58,3.58-4.75,4.83-7.38a12.79,12.79,0,0,0-.51-11.95c-1.92-3.58-2.75-7.13-1.62-11.34.6-2.22-.12-5.08-1-7.36-2.22-5.68-4.88-11.19-7.36-16.77a42.44,42.44,0,0,0-11.09-15.13,40.16,40.16,0,0,1-6.17-7.08c-2.58-3.57-3.3-7.31-1.09-11.61,1.11-2.17.93-5,1.44-7.47q1.07-5.19,2.32-10.36c2-8-3.62-15.16-11.89-14.91a57,57,0,0,0-8.19,1.13c-4.22.76-7-.69-9.14-4.54-5.58-9.83-9.13-11.62-20.25-9a147.5,147.5,0,0,0-22.26,7.68c-4.94,2-9.42,2.87-14.81,1.51-7.92-2-16.14-1.87-23.73,1.7-6.07,2.86-11.39,2-16.64-1.71-7.68-5.51-15.55-10.78-23-16.53a12.48,12.48,0,0,1-4.17-6.79c-1.24-5.78-4.39-10-8.81-13.56-4-3.24-7.72-6.74-11.55-10.15-2.79-2.49-4.43-5.24-3.66-9.36A12.47,12.47,0,0,0,742,621.1a6.75,6.75,0,0,1,.95-7.69c4.46-5.42,4.23-12.49,6.51-18.68.48-1.3,0-3.17-.55-4.59-1-2.66-1.61-5.21-.63-8,.75-2.14-.44-3.66-1.81-5.26-3.39-4-3.27-4.87-.6-9.35,2-3.36,3.39-7.14,5.69-10.26,4.15-5.64,8.47-11,11.32-17.6,1.82-4.25,6.21-7.46,9.69-10.89,1.18-1.15,3.08-1.67,4.73-2.23a31.59,31.59,0,0,0,12.91-8.07c2.63-2.74,3.86-5.83,4.51-9.82,1.43-8.78,5.33-16.63,14.36-20.14a19.83,19.83,0,0,0,12-12.27,8.7,8.7,0,0,0-8.85-11.84c-1,.07-1.95.38-2.93.44-3.83.22-4.75-.68-5.16-4.62-.18-1.73-.17-3.7-1-5.09-1.81-3-1.34-5.71.35-8.32,3.23-4.95,3.32-10.36,2.91-15.95-.59-8.19,2-11,10.34-11,3.53,0,7.06.62,10.6.77,6.89.29,13.79.59,20.68.61,3.5,0,5.43-1.66,6.3-5.13,1.94-7.76,1.21-15-5.45-20.38-2-1.65-4.86-2.36-7.34-3.46-2.09-.93-4.91-1.23-4.53-4.45.25-2.19,2.79-3.17,6.32-2.7.78.11,1.55.27,2.33.43,3.88.79,7.09.27,8.46-4.13.15-.51.73-.89,1.55-1.82,4.67,2.49,9.16.9,13.49-1.69.68-.4,1.65-.65,2-1.24,2.9-5.26,8.52-6.44,13.11-9.29,3.53-2.18,6.42-5.74,8.91-9.18,2.3-3.16,4.74-5,8.74-4.93a50.51,50.51,0,0,0,8.84-.7c4-.65,5.33-2.74,4.31-6.76-.48-1.89-1.47-3.66-2-5.55-1.46-5.27.11-8.21,5.31-10,1.84-.65,3.76-1.1,5.56-1.61,1.92,2.92,1.92,2.92,2.61,9.8a6.36,6.36,0,0,0,2.05.37c3.06-.44,6.86-.09,8.25-3.49,1.31-3.23-1.84-5.18-3.53-7.5a38.85,38.85,0,0,1-3.53-6.05c-1.85-3.86-3.64-4.74-7.38-2.83-2.8,1.43-5.29,3.45-8,5-5,2.76-10.07,2-14.09-2a2.3,2.3,0,0,1-.4-.43c-3.53-6.2-3.74-13-3.2-19.81.11-1.48,2.9-3,4.72-4,4.26-2.39,8.61-4.66,13.07-6.64a19.17,19.17,0,0,1,6.29-1.23c3.94-.28,6.41-1.62,8.87-5.37,3.34-5.06,6.25-11,12.11-14,4.19-2.19,6.93-5.07,4.35-10.36,1.34-.44,2.28-1.08,3.12-1,4.84.67,8.64-1.37,12.7-3.72,3.08-1.79,7-2.15,10.61-3,2.28-.57,5-.36,6.82-1.55,5.5-3.54,11.72-3,17.67-3.61,5.26-.56,10.62-.12,15.93-.19,4-.05,7.76.15,10.47,4,.91,1.3,3.29,1.71,5.09,2.22,1.09.31,2.39-.18,3.53,0,7.69,1.46,15.45,2.68,23,4.65a195,195,0,0,1,19,6.53c2.51.94,5.72,1.92,5.39,5.39-.3,3.21-3.18,4.46-6,4.8a50.71,50.71,0,0,1-9.93.24c-4.64-.36-9.25-1.15-13.87-1.76-1,8.56,5.67,14.32,16,13.95-1.51-1.68-2.66-3-4-4.5,2-2.79,4.55-1.12,6.84-.75s4.49.84,6.6,1.24c3.23-7.82,7.28-10.27,15.76-10,4.19.15,4.81-.53,3.39-4.09-.95-2.36-2.71-4.8-.26-7,2.61-2.37,5.45-1.4,8.18.22.1.66.41,1.31.23,1.77-.72,1.87-1.71,3.73.57,5.18s5,1.93,6.59.06c3.78-4.31,9.22-5.21,13.94-7.42,4-1.86,8.58-2.47,12.92-3.59a1.63,1.63,0,0,1,1.15.16c7.18,4.59,14.33,1.41,21.54.06a24.36,24.36,0,0,1,6.38.05,43.72,43.72,0,0,1,5.18,1.07c-.79-2.37-1.3-3.89-1.79-5.38.38-.3.65-.69,1-.71a78.06,78.06,0,0,1,27.38,3.78c3.69,1.15,7.51,1.89,11.59,2.89.34-3.5-2-3.53-3.54-4.34-2-1-4.5-1.8-5.84-3.45-3.74-4.58-2.72-9.67,2.35-14.56,4.76-4.58,15.51-2.66,18.36,3.29.72,1.51,1.43,3,2.62,5.54,2-2.34,3.4-3.85,4.69-5.46,1.62-2,3.16-2.49,5.48-.73,4,3,4.18,3,7.71-.37,2.56-2.44,5.13-3.44,8.52-2.07a13.27,13.27,0,0,0,3.23.37c-.11-1.87-.2-3.33-.31-5.06,5.77-3.41,12.58-.31,18.38-2.84.36-5.26.39-5.44,5.28-6.77,3-.82,6.19-1.19,9.24-2,4.57-1.16,9.16-2.28,13.61-3.8,3.68-1.25,7.19-1.81,10.94-.42,5.18,1.92,9.92,1,14.64-1.9a19.71,19.71,0,0,1,7.72-2.16c4.26-.53,8.58-.7,12.88-.82,2.08-.06,4.69-.41,6.17.64,4.61,3.24,9.73,3.68,14.75,2.78,8.11-1.48,15.14,1.28,22.19,4.35a6.29,6.29,0,0,1,3.06,2.61c2.19,4.44,6.4,6.25,10.45,8,2,.88,4.6.54,6.92.61,5.51.16,11-.08,16.53.43a99.48,99.48,0,0,1,14.39,2.64,10.21,10.21,0,0,0,8.45-1.33,11.86,11.86,0,0,1,9-1.7,35.1,35.1,0,0,0,10,.18c9.48-1.13,16.78,2.63,23.21,9.21a25.42,25.42,0,0,0,7.33,4.73,5.65,5.65,0,0,0,7-1.22,9.25,9.25,0,0,1,5.79-2c4.12-.1,8.25.47,12.39.66,4.86.22,10,1.27,13-4.43.49-.94,2.79-1.25,4.26-1.28,5.52-.09,11,.07,16.56.11,6.51,0,13,.15,19.52,0,3.28-.05,6.31.44,8.86,2.59a15.72,15.72,0,0,0,11.49,3.76,7.6,7.6,0,0,1,3.48.56c6,2.82,12.22,2.25,18.55,1.65a125.77,125.77,0,0,1,14.79-.34,31.64,31.64,0,0,1,17.8,5.5,17.84,17.84,0,0,0,8.78,2.78c8.26.46,16.55.32,24.83.42a2.45,2.45,0,0,0,1.16-.08c5.66-3.31,10.52-.79,15.49,1.85,1.6.84,3.61.9,5.91,1.43-.15-2.12-.24-3.41-.33-4.65.32-.35.58-.87.84-.87,6.94,0,14-1.7,20.6,2.23,6.22,3.71,13.26,4.19,20.1,2.86,7.9-1.54,15.06.2,22.4,2.63,4.83,1.61,10,2.34,15,3.45,1.15.26,2.34.39,3.48.7,9,2.49,17.6,6.25,27.51,5.25,4.28-.43,9.13,2.11,13.3,4.16,3.81,1.88,6.35,5.28,5.56,10.2-4,1.5-7.82.67-11.61-.43-4.54-1.32-9-3-13.55-4.16a38.5,38.5,0,0,0-9.35-.85,9.5,9.5,0,0,0-4.89,1.69c-2.78,1.94-2.83,5,0,6.8,2.45,1.56,5.36,2.39,8,3.58s6.1,1.83,7.7,5.76c-1.47.31-2.73.93-3.9.78-7.38-1-12.34,2.87-16.65,8.08-.5.61-.85,1.34-1.29,2-3.28,4.77-3.8,5.08-9.22,3.29-4.32-1.44-8.24-2-12.3,1.08-1.47,1.1-4.11.89-6.21.87-5.93,0-7,1.18-5.7,7,.72,3.4,2.19,5.58,6.11,6.08,2.1.27,4.1,1.95,6,3.26,1.43,1,2.41,2.7,3.9,3.55,2.65,1.5,4.46,2.93,3.34,6.49-.31,1,1.14,2.68,2.07,3.82a31.75,31.75,0,0,0,3.63,3.25l-4,5c1.29,2.53,2.73,5,1.3,8.19-.51,1.13.39,3,.83,4.46.82,2.81.5,5.07-2.93,6.51-1.26-.81-2.81-1.64-4.17-2.71-9.13-7.22-18.27-14.42-27.3-21.75a30.71,30.71,0,0,1-9.66-12.5c-1.29-3.27-2.07-6.31,1.44-9,1.06-.8,1.52-2.61,1.88-4.05.75-3,.93-6.17,1.94-9.06,1.88-5.34,1.84-6.59-2.14-10.43a61.06,61.06,0,0,0-5.13-3.91c1.25,5.43.61,8.93-3.57,10.67-3.85,1.61-6.32-1.1-8.9-3.14-3.13-2.45-6.45-3.73-10.45-2.61-6.36,1.77-8.29,8.18-4,13.16.62.72,1.1,1.56,2,2.92-5.59,3-11,3.08-16.59,1.36a32.21,32.21,0,0,1-4.81-2.24,11.8,11.8,0,0,0-10.19-.34,30.78,30.78,0,0,1-10.38,1.42c-3.92,0-7.85-.8-11.79-1-2.73-.1-5.65-.2-8.16.67a9.29,9.29,0,0,0-5,4.4c-2,4.41-3,9.21-4.78,13.74-.82,2.16-2.4,4-3.44,6.13-1.48,3-.58,4.91,2.61,4.72,3.91-.23,6.84,1.53,9.85,3.39s6.14,2.54,9.44.58c2.66-1.59,5.27-1.18,7.85.28,1.71,1,3.49,1.85,5.16,2.88,4.09,2.54,8.1,4.36,12-1.47,2.86,2.36,5.74,4.13,7.82,6.58,4.36,5.16,9,9.92,14.76,13.51a48.89,48.89,0,0,1,5,4.17c2.66,2.2,4.34,4.45,2,8.06-.75,1.17-.4,3-.58,4.82-3.85.75-5.11-2.35-6.8-4.48-3.54-4.48-6.76-9.22-10.36-13.64a23.91,23.91,0,0,0-5.43-4.44,2.73,2.73,0,0,0-2.61.14,3.72,3.72,0,0,0-.53,3.05,23.13,23.13,0,0,0,2.79,4.49c1.83,2.57,3.85,5,5.57,7.63a11.08,11.08,0,0,1,1.69,9c-.76,3.38-.45,7-.71,10.51a30.28,30.28,0,0,1-.74,5.21c-.86,3.43-2,6.79-2.84,10.21a14.13,14.13,0,0,1-5.66,8.05c-2.61,1.9-5.24,2.07-8.34.95-6.28-2.29-12.25,2.21-11.37,8.85.52,4-.19,6.71-3.22,9.37-4.1,3.6-3.7,5.84,1.24,8.35a45,45,0,0,1,17.48,15.52c5,7.6,3.82,10.89-4.73,14.09a20,20,0,0,1-5.14,1.22c-2.69.24-5.07-1-5-3.76.09-6-4.71-9.8-6-15.13-.59-2.39-3-2.95-5.25-3.15-4.84-.45-7.74-2.38-8.81-7.71-1.22-6-10.8-8.53-16.89-4.91-1.83,1.09-3.57,2.35-5.27,3.48-3.06-1.48-2.87-3.9-2.77-6.23.09-2.06,0-4.07-2.14-5.06-2.32-1.07-4.2.14-5.92,1.56a12.92,12.92,0,0,0-2,2.14c-2.25,3-4.58,5.76-8.18,7.45-2.82,1.33-2.59,4.13.41,5.05,4.06,1.25,7.59,2.92,10.54,6.12.76.84,3.59.79,4.78.05,5.4-3.39,10.06-1.81,15.47,1.7-1.75,1.75-3.15,3.27-4.68,4.66s-3.46,2.65-5,4.21c-2.94,3.1-2.61,6.44,1.31,8.7,3,1.71,5.41,4.42,7.94,6.83,3,2.85,5.71,6,8.72,8.76a13.49,13.49,0,0,1,4.49,9.86c0,2.64.41,4.09,2.67,5.06s3,2.86,2.83,5.27c-.25,4.41.91,9-3.09,12.7-1.34,1.25-1.34,4-1.82,6.12-3.18,14-11.56,22.84-25.5,26.66-5.45,1.49-11.14,2.49-15.83,6.24-1.4,1.11-3.73,1.09-5.65,1.53-1.34.3-2.75.37-4,.79-5,1.62-6,4.36-3.07,8.84s2.36,8.77-1.75,11.84a6.5,6.5,0,0,1-8.61-.6c-2.28-2.33-2.11-4.65.59-7.76.64-.74,1.45-1.34,2.08-2.1,2-2.47,2-4.95.08-7.5a8.85,8.85,0,0,0-10.62-2.76,29.56,29.56,0,0,0-12.2,10.89,6.45,6.45,0,0,0,.51,8.22c3.45,4,7.07,7.93,10.82,11.68,2.93,2.91,6.28,5.4,9.26,8.27,7.43,7.16,9.32,16.23,8.3,26a8.72,8.72,0,0,1-2.9,4.84,19.25,19.25,0,0,1-5.57,3.26,23.81,23.81,0,0,0-11,8.56C1568.8,656.58,1566.3,658.85,1562.43,658.1ZM957.63,458.87a19.54,19.54,0,0,1,.82-3.48c1.41-2.95.44-5.37-1.54-7.57-4.14-4.58-8.67-8.51-14.86-10.24a26.76,26.76,0,0,1-7.4-3.52,44.76,44.76,0,0,1-12.85-12.87c-3.34-5.08-6.36-5.35-11.45-2.16-3,1.88-6.13,3.58-9.08,5.54a9.69,9.69,0,0,1-8.48,1.15c-1.32-.38-2.6-.93-3.93-1.29-5.3-1.45-7.67.2-7.9,5.81-.09,2.3-.75,3.81-3,4.38-7.61,1.9-12,8.08-17.06,13.18a6.21,6.21,0,0,0-1.43,4.8c.79,4.23-1.32,7.16-4.29,9-6.37,4-12.29,9.32-20.85,8.22a15.46,15.46,0,0,0-7.43,1.37c-1.07.43-2,2.44-2,3.78,0,1,1.22,2.45,2.27,3a11.18,11.18,0,0,0,4.56,1,91.6,91.6,0,0,0,11.23.22,20.26,20.26,0,0,0,7.19-1.92c4.95-2.35,9.56-5.45,14.61-7.53,5.51-2.26,11.49-2.48,17.47-2.34,4.11.1,8.23-.38,12.35-.59,3.7-.19,7.45-.83,11.08-.41s7.26.77,11-.68c1.74-.69,4.26-.22,6.17.45,5.45,1.91,1.31,8.18,4.74,11.23.45.41.37,2,0,2.69-.92,1.49-2.26,2.71-3.34,4.12-1.27,1.64-1.44,3.44.5,4.56,5.2,3,9.9,6.74,16.73,6.32,6.16-.39,12.18,1.4,15.68,7.44,1.65,2.84,4,3.78,7.27,4.18,3.43.42,6.75,1.82,10.08,2.93,1.48.49,2.8,1.48,4.28,2,4.16,1.37,6.33-.21,6.58-4.65,0-.79,0-1.58,0-2.37.08-6.14,2.48-9.16,8.49-10,2.69-.37,5.86-.81,8.16.22,5.67,2.54,11.51,4.53,17.33,6.61,1.27.45,2.49,1.62,3.7,1.57,5.76-.24,10.76,2.17,15.89,4.16,4.49,1.74,8.82,2,13-.89,3.54-2.5,7.3-2.64,11.26-1.16,1.47.55,3,1,4.51,1.41,8.1,2.25,11.91-.13,13.56-8.28.58-2.88.85-6.09,2.34-8.47,3.49-5.57,3.11-11.13,1.49-17-1.08-3.91-2.19-4.81-6.16-4.08a12.91,12.91,0,0,0-3.89,1.34c-5.5,3.07-10.72,3.53-15.9-.83-1.62-1.36-4.21-2.61-6-.8-4.3,4.41-8.71,3.49-13.43,1.16a3,3,0,0,0-1.71-.37c-3.83.82-5.79-1.75-7.8-4.2-4.49-5.51-6.44-12.11-8-18.85-1.5-6.34-5-7.78-10.69-4.46-2.63,1.53-5.36,2.87-8.58,4.58-1.17,3,1.2,4.75,3.66,6.55,2.16,1.58,5.06,2.49,5.55,6-.38.51-.71,1.37-1.33,1.7-3,1.61-5.81,3.21-6.91,6.83-.24.77-1.82,1.45-2.86,1.61-3.94.62-7.1-1.34-7.64-5.54-.57-4.47-3-7.54-5.72-10.71a55.78,55.78,0,0,1-5.77-7.47c-1.05-1.74-2-4.11-1.67-6,.67-4.38-1.45-6.77-4.83-8.5-4.21-2.16-8.51-4.13-12.79-6.14-3.79-1.78-7.24-3.88-9.64-7.53-.9-1.37-2.66-2.2-4.06-3.21-1.85-1.34-3.7-2.71-5.65-3.89-1.08-.66-2.67-1.65-3.51-1.29a5.72,5.72,0,0,0-2.87,3.34c-.86,3.25,1.07,5.43,3.43,7.56a48.43,48.43,0,0,1,7,7.81c1.81,2.55,3.74,4.36,7,4.92a17.66,17.66,0,0,1,5.38,2.2c2.9,1.6,5.66,3.45,8.52,5.12,1.8,1,4.14,1.57,3.93,4.54l-8.25,1C965.9,454.93,965.32,456.29,957.63,458.87Zm73.78-19.14c3.58,3.46,4.55,3.84,6.58,1,2.74-3.85,6.18-4.49,10.31-3.85a11.22,11.22,0,0,0,8.46-1.68c6.89-4.73,14.34-5,22-2.42,3.74,1.24,7.38,2.75,11.09,4.06a37.38,37.38,0,0,0,21.56.83c5.27-1.26,6.54-5.07,3.09-9.26a20.44,20.44,0,0,0-6-4.7c-6-3.29-12.24-6.3-18.38-9.43-5.59-2.84-5.78-3.69-2-8.49a10.8,10.8,0,0,0,1.65-2.42c.9-2.18-.13-4.46-2.37-4.24a43.2,43.2,0,0,0-11.91,2.55c-2.94,1.19-2.64,3.72.07,5.9.88.71,1.74,1.45,3,2.5-2.53,1.23-4.59,2.38-6.76,3.25-5.27,2.11-8.25,1.35-10.64-3.88-1.69-3.71-4.52-5.16-7.79-6.5-4.4-1.8-6.85-1.59-9.21,2.32-3,4.93-8,8.55-8.82,14.94-.35,2.72-3.48,5.22-3.48,7.82s2.34,5.19,3.76,8ZM924.07,345.84c1,1.35,1.53,2.79,2.27,2.91,2.43.4,5.19,1,7.38.26,3.48-1.19,6.57-1.28,9.59.65,3.56,2.29,7.09,1.89,10.71.36,2.18-.92,4.27-2.28,6.54-2.66,3-.52,6.34-1,9.18-.19,3.35.93,6,1,8.83-1.1s5-4.34,4.15-8.25a8.19,8.19,0,0,1,.2-2.94c1.11-6.36,4.5-8.22,10.48-5.93a51.62,51.62,0,0,0,5.32,1.45c.77-5.62-1.07-8.3-4.76-7.8-.94.12-1.81,1-2.73,1a14.79,14.79,0,0,1-3.45-.74c.77-.94,1.37-2.16,2.35-2.75,1.48-.88,3.54-.94,4.8-2,2.65-2.24,5.64-2.65,8.83-2.62,3.55.05,7.1.34,10.64.23,2.88-.09,6-.22,7.18-4.72-2.93-.44-5.6-1.27-8.2-1.11-3.3.21-6.55,1.25-9.82,1.91a93.46,93.46,0,0,1-10.4,2c-5,.42-11.82-3.8-11.39-10.22a17.4,17.4,0,0,0-.69-4.65c-.92-4.34-.6-5.45,3.09-7.86,2.46-1.61,5.16-2.87,7.67-4.41s5-3.16,5.11-6.59a13.8,13.8,0,0,0-11.77-1.5c-2,.72-3.47,1.79-3.79,4.07-.62,4.45-3.76,6.64-7.5,8.38a47.11,47.11,0,0,0-8.34,4.35c-6,4.43-5.65,10.55.53,14.51,5.21,3.34,5.1,6.29-.35,9.5-.51.3-1.05.54-1.57.83-5,2.84-5.23,3.25-4.5,8.83.59,4.54-.12,5.39-4.3,7a36.74,36.74,0,0,0-8.23,4.21c-2.23,1.56-4.17,2.73-7,1.9-1.16-.34-3.2-.29-3.75.42-2.5,3.23-5.59,3.15-9.06,2.48C926.51,344.86,925.57,345.43,924.07,345.84ZM1180,408.31c.82-6.87-.12-8.26-6.15-9.12-11.07-1.57-18.46,5.28-25.9,11.68-2,1.71-1.75,4.05.21,6.25a14.9,14.9,0,0,1,3.57,5.94,15,15,0,0,0,5.41,8.17c3.46,2.93,6.82,6,10.18,9,2.23,2,3.32,4.05,1.38,7.19-1.29,2.08-1.73,4.78-2.14,7.27-.73,4.35.38,6.08,4.37,7.88,3.4,1.54,6.84,3,10.17,4.68a15.14,15.14,0,0,0,12,.69c4.48-1.48,5.95-3.58,4.45-8-1.15-3.43-3.4-6.54-5.45-9.6-1.71-2.56-4.15-4.7-3.79-8.59l7.67-.87c-.46-8.11-6.9-6.07-11.55-7-.46-4.34-3.28-6.5-6.66-8.44a34.24,34.24,0,0,1-7.47-5.74c-3.49-3.59-2.65-7.44,2-9.38C1174.6,409.34,1177.18,409,1180,408.31Zm-102.88,121.4c3.26,5.74,6.38,11.17,9.44,16.64,1.63,2.91,3.85,5.73,4.55,8.86a17.72,17.72,0,0,0,6.42,10.26c4.25,3.48,6.51,7.79,6.06,13.4a13.47,13.47,0,0,0,6.29,13.13,15.63,15.63,0,0,1,7.2,11c.77,5.6,3.94,9.33,8.83,11.75a43.42,43.42,0,0,1,13.22,10.73,62.21,62.21,0,0,0,5.5,5c-.24-5.12-.85-9.88-2.67-14.12s-4.81-7.84-7.36-11.84l2.83-3a6.46,6.46,0,0,0-.92-2.22c-6.71-6.62-10-16-18-21.67a13.8,13.8,0,0,1-6-11.61c0-5-2.59-8.9-6.37-12.17-1.88-1.62-3.92-3.55-4.78-5.77-2.79-7.18-7.48-12.91-12.83-18.2C1084.65,526.06,1084,526.07,1077.12,529.71ZM1068.86,729a26.2,26.2,0,0,1,0,2.94c-.31,2.8,1.36,3.91,3.69,4.43,2.51.56,5.25,1.28,7-1.42a63.69,63.69,0,0,0,4.7-8.82c1.74-4.09-.27-7-4.72-7.24C1072.73,718.47,1068.91,722.12,1068.86,729ZM1232.7,271.48c4.41,1.54,6.77.81,8.51-2.43,1.93-3.6.92-8.42-2.85-10.19-4.2-2-7.09-4.61-8.6-9-.78-2.26-2.63-3.31-5.87-1.5,1,2.11,1.78,4.3,3.1,6s3.18,2.91,4.77,4.37c4.17,3.81,4.4,5.16,1.91,10.15A23.11,23.11,0,0,0,1232.7,271.48ZM1481,343.3c-.75,4.09-1,8.07-2.29,11.67s-3.69,6.94-5.6,10.39c3-1.17,5.31-3.1,7.72-4.86C1487.66,355.53,1487.89,349.54,1481,343.3Zm-260.55,64.44c-.47.51-1.72,1.3-2.08,2.39-.7,2.1,1.73,5.75,4.29,6.25,1.24.24,2.71-.69,4.07-1.12.12,0,.18-.34.22-.53C1227.68,411.79,1224.29,407.63,1220.48,407.74ZM1058.22,768.49c0-.66.24-1.4,0-1.73a15.26,15.26,0,0,1-3.28-10.39c0-1.21-1.06-2.44-2-4.34C1050.05,759.84,1052.07,765.52,1058.22,768.49Zm27.53,27.38c-1.53,4.62-2.67,8.09-.39,12.13C1088.91,803.07,1089,801.05,1085.75,795.87ZM1388.5,227.43c-4.53.75-7.5,2.53-11.17,6C1382.44,232.68,1386,232,1388.5,227.43ZM1310.38,402l-1.36-.84-2.28,3.64C1309.84,404.72,1310.62,403.76,1310.38,402ZM499.24,294.17c-6.64,1.63-6.64,1.63-10.51-2l6.28-7.71c-2.69-.9-4.24.93-6.11,1.57q-6.64,2.31-13.34,4.49c-1.12.36-2.45.27-3.43.83-12.47,7.18-27.13,9.45-39.19,17.63-4.61,3.13-9.11,6.13-11.47,11.82,3.59,2.73,5.54,6.07,2.63,10.84,2.19.46,3.5,1.06,4.71.92,4.87-.58,8.89,1.18,12.57,4.1,6.7,5.31,14,8.72,22.88,7.81,2-.21,4.12,0,5,2.2s-.64,3.74-2.16,5-2.67,2.61-2.16,5c.23,1.13-.57,2.66-1.28,3.77-1.86,2.89-.91,5.27,1.09,7.48,2.16,2.37,4.27,2.68,7.49,1.19,4.7-2.16,7.07-6,8-11,.55-3,1.54-5.93,2.21-8.42,5-.7,9.17-.94,13.16-1.9,12.79-3.1,19.31-12.06,18.2-25.11-.3-3.57.22-6.35,2.58-9.21,2.83-3.43,5-7.38,7.46-11.15,2.61-4.07,4.27-4.93,8.84-3.51,4.78,1.48,9.35,2.53,14.43.83,1.47-.49,3.92,1.19,5.62,2.32,2.75,1.82,5.17,4.12,7.88,6,1.84,1.28,2.12,2.72,1.2,4.54-.53,1.05-1.37,2-1.81,3a5.72,5.72,0,0,0,1.37,6.52,5,5,0,0,0,5.83,1.41,35.76,35.76,0,0,0,12.62-7.43c6.45-5.82,9.48-5,11.68,3.46A60.63,60.63,0,0,1,593,334.12c.06,6.27.43,7.43,6.34,9.74,3.58,1.41,7,2.81,8.1,7a5.57,5.57,0,0,0,1.36,1.9c4.32,5,4.29,5.48.63,11.12a50.27,50.27,0,0,0-2.43,5.26c-.76,1.53-1.72,3-2.43,4.51s-2,3.41-1.5,4.53,2.67,1.82,4.22,2.41c1.07.41,2.38.19,3.49.54,2.38.73,3.83,2.52,3.08,4.91a12.36,12.36,0,0,0,0,8.56c.44,1.18-.57,3.51-1.67,4.47-.82.71-3.29.67-4.23-.06-6.26-4.84-13.77-4-20.87-5-2.62-.36-5.27-.56-8.88-.94,6-9.28,13.92-15.19,21.12-21.78-2.29-3-4.75-2.58-6.65-1.25-8.11,5.7-16.9,8.12-26.8,6.68-1.79-.26-3.75.67-6.55,1.23l5.26,5.24c-5,1.71-6.57,1.34-8-2.68-.81-2.26-2-3.46-4.1-3.5a61.64,61.64,0,0,0-11.62.48c-1.79.31-3.26,2.36-4.88,3.63.11.41.22.83.34,1.24a40.55,40.55,0,0,0,4.2.73c2,.14,4-.18,5.9.13,3.21.52,3.92,2.39,2,5-1.53,2.05-3.48,3.79-4.88,5.91a6.53,6.53,0,0,0,.35,8.23c1.8,2.29,3.85,2.76,6.78,1.88,1.74-.52,3.94.49,6.72.93a43.24,43.24,0,0,1,5.32-4.27c1.08-.65,3.24-.89,4.08-.25,1.66,1.27,1.16,3.36-.28,4.66a15.41,15.41,0,0,1-4.91,3.14c-5.19,1.84-10.55,3.22-15.73,5.08-4,1.46-7.91,3.34-11.83,5.09-1.26.55-2.43,1.3-3.66,1.92-1.61.81-3.37.85-4-1a5.79,5.79,0,0,1,.61-4.21c.72-1.2,2.24-1.93,3.89-3.24-3.11-1.61-5.52-.5-7.79.27-6.33,2.17-12.6,4.53-18.89,6.83-.92.33-1.82.73-2.73,1.12-5.92,2.49-9.13,6.7-8.1,13.74-1.68.51-3.13.92-4.56,1.38q-4.47,1.43-8.92,2.9c-.19.06-.34.21-.52.28-3.94,1.57-8.52,2.36-11.65,4.91s-5.37,6.16-9.39,7.82a4.6,4.6,0,0,0-2.26,2.59c-1.48,4.59-4.47,6.26-9.81,4.69,0,3.28-.22,6.13.05,8.93.49,5.05-1,8.81-5.77,11.14-5.48,2.66-10.86,5.54-16.28,8.32a50.4,50.4,0,0,0-5.2,2.74c-3.9,2.66-7.63,5.58-11.54,8.22C400,503.07,396,509.42,398.69,519c1.35,4.87,1.58,10.06,2.18,15.12.1.88-.49,1.84-.92,3.31a37.91,37.91,0,0,1-13.83-4.5c-2.92-1.71-1.91-4.61-1.06-6.91,1.33-3.63.46-6.52-1.89-9.28-1.71-2-3.71-3.1-6.23-1.8-3.08,1.6-5.47.42-8.26-1-2.49-1.3-5.52-1.67-8.36-2.16-1.31-.23-2.77.49-4.11.34-5.5-.61-9.86,1.29-13.72,5.22-2.73,2.78-6.34,2.86-9.95,1.64-1.68-.57-3.31-1.27-5-1.75-8.24-2.35-15.87-1.64-22.95,3.78-3.25,2.5-7.19,4.09-10.71,6.24-4.1,2.51-6.62,5.86-6.68,11.06,0,2.59-1.35,5.23-2.38,7.72-1.73,4.17-4,8.13-5.5,12.38-3.84,11.06-.4,21.08,5.74,30.17,3.15,4.67,8.36,6.41,14.16,5.35,4.26-.78,8.51-1.61,12.77-2.39a10.36,10.36,0,0,0,7.55-5.15,20,20,0,0,0,1.62-3.15c3.06-8.7,9.87-11.13,18.24-11.05,3.41,0,4.72,1,5.07,4.29a9.79,9.79,0,0,1-.31,4.07c-1.32,3.89-2.12,8.26-4.49,11.41-3.82,5.06-4.18,11.33-7.19,16.56-.17.3,0,.77,0,2,1.57.38,3.34,1.18,5.11,1.16,4.33,0,8.67-.34,13-.79a15.39,15.39,0,0,1,9.7,1.7c5.23,3,6,6.08,4.22,11.8a90.29,90.29,0,0,0-4.18,17.73c-.66,6.48,3.84,10.86,8.49,14.73,4.16,3.45,8.53,3.31,13.25,1.09a30.18,30.18,0,0,1,7.8-2.48c3.57-.6,6.37,1.33,9.06,3.52,4.56,3.71,6.68,3.57,10.37-.91a30.19,30.19,0,0,0,4.5-7.57,10.07,10.07,0,0,1,9-6.67,26.25,26.25,0,0,0,15-6.33c1.27-1.07,2.82-3,4.42-.94.62.79-.11,2.72-.38,4.09a11,11,0,0,1-1,2.2c2.45,3,4.55,1.24,6.57-.33,5.68-4.41,6.26-4.47,12.16-.33a30.73,30.73,0,0,1,3.61,3,7.28,7.28,0,0,0,7,2.22,12.51,12.51,0,0,1,9.61,1.91c3,1.94,5.65,1.83,8.68-.35,5.62-4,9.69-3.45,14.58,1.4.41.4.88.73,1.44,1.19l4.36-2.05c1.23,3,2.54,5.57,3.37,8.31a5.73,5.73,0,0,0,4.44,4.22c4.09,1,6.72,3.81,9.2,7a48.29,48.29,0,0,0,6.84,7.3,15.46,15.46,0,0,0,13.21,3.76c7.5-1.4,14,.93,20,5.29,2.39,1.74,4.72,3.56,7.09,5.34a12.56,12.56,0,0,1,4.72,7.87,22.84,22.84,0,0,0,3.53,7.86c2,2.83,3.88,5.45,3.36,9.13-.11.74-.09,2,.34,2.23,4.65,3,7.87,8.57,14.34,8.29,6.82-.3,12.35,3.72,18.58,5.38.9.24,1.77,1.63,2.13,2.67,1.16,3.33,3.31,4.33,6.78,4.22a33.4,33.4,0,0,1,9.29,1.26c3.65,1,7.13,1.82,11,1.13,3.71-.67,6.95,1.14,9.77,3.41s5.65,4.92,8.51,7.34c3.24,2.72,6.73,4.81,11.22,4.53,3.64-.23,5.91,1.68,7.29,4.89,4.77,11.13,4.06,20.68-4.09,28.94-4.57,4.64-9,9.32-11.43,15.62a15.74,15.74,0,0,1-3.53,4.71c-4.17,4.46-5,9.75-3.72,15.42,1.59,7.16,1.42,14-2.17,20.63a8.07,8.07,0,0,0-.86,4.55c.45,3.56-.8,6.5-2.43,9.51-2,3.63-3.72,7.39-5.36,11.18-2.47,5.7-6.75,8.49-12.89,8.68-11.29.36-19.91,6.77-28.6,12.85-3.09,2.16-4.07,5.74-3.64,9.51a48.38,48.38,0,0,0,1,5.22c1,4.67.42,8.74-2.75,12.7-3.41,4.27-5.67,9.4-10.14,13-1.21,1-1.74,3-2.24,4.63a59.09,59.09,0,0,1-7.84,17c-3.94,5.58-9,7.31-15.43,5.65-3.57-.92-7.19-1.61-11.68-2.59a19.26,19.26,0,0,0,1.5,3.35c2.91,3.66,6.16,7.09,8.81,10.93,3,4.34-.74,12.11-6.86,14.08-3.91,1.26-8.07,1.73-12.13,2.51-2.3.43-4.62.76-7.4,1.22,0,3,0,5.72,0,8.41,0,4.63-1.46,6.17-6,5.75-2.49-.23-5-.78-7.71-1.23-1.11,3.19-.39,5.63,2,6.92,2.14,1.15,4.76,1.42,7.18,2.07,0,.86.24,1.66,0,1.94-3.5,3.46-5.75,7.1-4.4,12.49.32,1.27-2.08,3.53-3.63,4.89-1.9,1.67-4.58,2.68-4.07,5.89s3.3,4.11,6,5a40.64,40.64,0,0,1,5,1.75c3.81,1.83,4.7,4.94,2,8.13-2.42,2.91-5,5.46-4.11,9.82.2,1-1.07,2.47-1.94,3.49-2.08,2.44-1.66,4.79.22,6.91a166.91,166.91,0,0,0,12.5,13.39c2.19,2,5.53,2.76,8.4,4,2.33,1,4.91,1.6,7,2.92,2.61,1.61,2.51,4,0,5.67a7.31,7.31,0,0,1-3.75,1.6c-5.46-.07-11,1.16-16.35-1.09-8-3.33-16.1-6.32-24.1-9.6a13.89,13.89,0,0,1-4.31-3c-3.48-3.48-6.66-7.3-11.49-9.08a3.27,3.27,0,0,1-1.39-1.09c-4.14-5.46-8.32-10.89-12.35-16.44-2.44-3.34-3.71-6.89-1.42-11,1.56-2.79-.1-4.22-2.55-5.46-4.66-2.34-4.46-2.42-3.61-7.57.3-1.8-.23-3.76-.47-5.63-.14-1.11-.46-2.2-.77-3.62l5.22-1.18c.17-.39.49-.75.45-1.06-1.49-11.22-1.49-11.22-4.74-13.4-2.26,2.23,2.35,5.92-1.81,7.88-3-.82-3.49-3.28-3.82-5.88-.84-6.6-1.48-13.23-2.65-19.76-.43-2.41-1.91-4.73-3.31-6.83-2.63-4-3.35-7.67-2.32-12.69,1.7-8.38,3.81-16.95,2.33-25.65a44.31,44.31,0,0,0-3-9.46c-1.38-3.32-2.77-6.53-1.88-10.24a3.51,3.51,0,0,0,0-1.76c-2.79-8.24-.52-16.78-1.48-25.17-1-8.73-.38-17.63-.92-26.42a156,156,0,0,0-2.57-21,18,18,0,0,0-4.93-8.44,48.14,48.14,0,0,0-15.77-10.16c-6.28-2.68-12.13-6.47-17.93-10.14a14,14,0,0,1-6.4-9.53c-.5-2.58-2.3-4.95-3.73-7.28-3.49-5.71-7.18-11.3-10.64-17s-6.55-11.71-10.24-17.29a31.75,31.75,0,0,0-7.22-7.55c-4.57-3.48-5.36-8.59-6.19-13.5-.26-1.51,1.91-3.69,3.35-5.19,4.36-4.55,4.51-4.54.83-9.67a9.31,9.31,0,0,1-1-9.51c1.49-3.64,3.27-7.17,4.92-10.74a1.85,1.85,0,0,1,.3-.51c4.57-5,9-10.25,13.82-15,2.56-2.5,4.4-4.93,4.39-8.58,0-4.34.32-8.68.06-13A22.89,22.89,0,0,0,397,674c-1.08-2.72-2.58-5.29-3.66-8-1-2.46-1.92-4.86-4.92-5.31-2.19-.34-5.61,2.05-6.91,4.85-.48,1.05-.46,2.32-.88,3.41-1.25,3.21-3.86,4.26-6.51,2a26.25,26.25,0,0,0-12.51-6.13c-1.65-.32-3.3-2.11-4.37-3.64-2.23-3.18-4.78-5.74-8.69-6.64-3.19-.74-4.68-2.74-4.31-6A6.14,6.14,0,0,0,342,642.7a6.73,6.73,0,0,1-1.48-1.83c-3.85-6.84-9.42-10.64-17.49-11.31A48.75,48.75,0,0,1,310,626.07a25.36,25.36,0,0,1-7.2-4.87c-2.51-2.21-4.53-5-7-7.24-3.64-3.4-7.95-4.69-12.45-2-5.23,3.13-10.07,2.17-15.17-.19-4.81-2.24-10.2-3.48-14.63-6.27-8.46-5.3-18.34-8-26.07-14.49-.76-.64-1.57-1.2-2.28-1.88-3.48-3.3-4.09-5.17-1.9-9.36,3-5.65,1.76-10.87-1.48-15.6-3.56-5.18-7.73-10-11.77-14.79-2.14-2.55-4.82-4.65-4.27-8.6.14-.94-.8-2.17-1.49-3.08-3-3.91-5.89-7.91-9.16-11.57A12,12,0,0,1,192,515.84a14.52,14.52,0,0,0-.43-6.86c-1.56-4.1-6.45-4.42-8.92-.78a7.38,7.38,0,0,0,.24,9.35,22.56,22.56,0,0,1,4.81,11.23,9.8,9.8,0,0,0,1.61,4.37c3.34,4.4,4.46,9.52,5.6,14.75.64,3,2.33,5.72,3.54,8.57.65,1.51,1.29,3,1.87,4.41-.94.64-1.33,1.09-1.55,1-5.46-1.74-8.69-6.28-12.3-10.23-.74-.81-.23-3,.09-4.5.75-3.44-.61-5.72-3.52-7.33a53.93,53.93,0,0,1-5.67-3.18c-2.73-2-2.92-3.86-1.05-6.51,3.63-5.11,3.9-5.35-.26-9.94s-3.3-9.91-4.22-15a25.82,25.82,0,0,1-.15-5.9c.34-6.8-3.52-10.92-9.32-12.78-4.45-1.43-6.92-4-7.19-8.21-.66-10.4-1.1-20.82-1.18-31.23,0-2,2-4.06,3.18-6.05,1.76-3,4-5.83,5.28-9a33.39,33.39,0,0,1,8.11-11.48c7.49-7.39,14-15.42,18.33-25.18,2-4.47,2.36-8.22-1.77-11.61a10.69,10.69,0,0,1-2.51-3.25c-.93-1.73-.89-3.61,1-4.69,5.3-3.08,5.28-8,4.39-13-.84-4.62-1.47-8.76,2.14-12.71,1.69-1.85-.09-4.39-2.72-4.15-2.09.2-4.14.77-6.15,1.16-1.22-3.9-.1-14.18,1.91-18.69-1-1.7-2.05-3.56-3.08-5.44a13.53,13.53,0,0,0-12.52-7.49c-2.56,0-5.13-.06-7.69-.19a18.34,18.34,0,0,1-9.43-3c-5-3.3-5.27-3.12-10.43.56-1.27.9-2.64,2-4.09,2.26-6,1-12,1.7-17.66,4.34-1.11.52-3.29-.05-4.38-.89-2.45-1.9-4.88-2-7.76-1.49-13.58,2.55-26.7,1.54-39.08-5.18-2.41-1.32-5.1-2.13-7.52-3.43a49,49,0,0,1-5.12-3.6c.65-1.09.83-1.84,1.25-2,6.73-2.73,13.34-6.95,20.28-7.58,6.45-.58,12.61-2.57,19.07-2.77,3.33-.1,3.32-.46,5.82-4.23-2.41-.3-4.41-.68-6.43-.76-3.34-.15-6.74.18-10-.3-1.41-.2-3.44-1.78-3.64-3a4.76,4.76,0,0,1,2.44-4c8.78-2.72,17.53-6.3,27-3.4a16,16,0,0,0,2.86.72c3.14.36,4.91-1.2,4.8-4.38a16.69,16.69,0,0,0-.86-4c-1.3-4.47-.85-5.37,3.55-6.85a6.27,6.27,0,0,1,1.69-.5c15.2-.5,28.71-8.38,43.68-9.89,3.52-.36,7-.95,10.52-1.39a14.93,14.93,0,0,0,2.94-.15c10.81-3.74,21.25-1,31.74,1.58a24.6,24.6,0,0,0,4.72.2c1.77.06,3.76-.37,5.27.3,5.85,2.58,12,1.88,18.06,2.11a79,79,0,0,1,8.74,1.17c2.32.34,4.64.72,6.94,1.17,2.1.41,4.49.42,6.2,1.5,4.42,2.76,9,2.86,13.68,1.56a68.32,68.32,0,0,1,18.1-2.39c3.1,0,6.18-1.07,9.3-1.49,3.67-.49,7.38-.71,11.05-1.21a34.32,34.32,0,0,0,5.64-1.36c2-.65,4-1,5.18,1.24,1.39,2.64,3.5,2.19,5.95,2.39a74.41,74.41,0,0,0,14.08-.39c3.16-.33,6.54.88,9.75,1.7s6.32,2.31,9.57,3c3.72.75,5.2-.32,6.84-3.89,1.78-3.87,3.54-7.74,5.93-13-3.84.35-6.27.39-8.63.82-3.68.69-7.3,1.67-11,2.47-1.15.25-2.5.71-3.47.33-1.36-.52-3.06-1.54-3.45-2.72s.59-3,1.55-3.88c1.23-1.17,3.05-1.74,4.63-2.52,4.23-2.11,8.58-4,12.65-6.34A22.66,22.66,0,0,1,385.79,230c5,.75,10.19,1,15.23,1.73,2.44.38,5.34.88,7,2.43,4.68,4.35,10.61,4.44,16.08,4.68,3.47.15,6.29.54,8.62,2.63,3.36-1.84,6.24-4,9.49-5,4.1-1.26,8.5-1.54,12.91-2.27.38,3.53-2.05,3.74-3.41,5a59.94,59.94,0,0,0-6.58,6.56c-1.73,2.09-1.86,4.22,1,5.85,1.41.79,2.47,2.18,4.21,3.78a43.16,43.16,0,0,1-4.12,2.37c-1.07.45-2.65.23-3.35,1-5,5.12-10.88,3.49-16.7,2.66-1.9-.27-3.79-.62-5.75-.95-.35,3.12,1.76,4,3.44,4.62a47.07,47.07,0,0,0,10.23,2.45c3.9.42,7.88,0,11.82.14s6.91-1,8.42-5c1.42-3.7,4.61-5.21,8.19-6.06,3.27-.76,5.81.15,8,4.77l-5.93,2.88c4.78,2.06,9.52.68,11-2.15a3.87,3.87,0,0,0,.13-3.28c-2.5-3.58-1.53-6.17,1.76-8.51.71-.5,1-1.56,1.74-2.69-1.12-.49-2.12-1.36-2.76-1.14-6.76,2.27-10.31-1.59-13.36-6.62.3-.36.56-.93.79-.92,4.22.25,7.6-1.88,11.34-3.38,4.27-1.71,9.16-1.91,13.82-2.52.92-.12,2,.88,3.42,1.56-1.69,3-3.19,5.64-4.69,8.31,2.46,2,4.2.52,5.16-1,4-6.39,11.08-7.88,17-11.15a4.53,4.53,0,0,1,5,0,56.43,56.43,0,0,0,6.93,3c-2,4-5.65,4.48-9,5.3-3.05.75-6.23,1.05-9.27,1.85-3.48.92-6,2.76-5.86,7,.08,1.94-.54,3.9-.72,5.86-.31,3.2,1,5,4.29,5.95,5.44,1.53,5.37,1.74,2,6.45a7.34,7.34,0,0,0-.67,1.53,2.48,2.48,0,0,0,3.81,1.62c5.18-2.78,10.31-5.69,15.28-8.83,1.15-.73,1.62-2.55,2.86-4.63-2.68-.86-4.78-1.63-6.93-2.21-4-1.09-5.15-2.69-3.23-6.28a17.18,17.18,0,0,1,5.69-6.51c8.74-5.38,18-9,28.6-5.78,2,.6,4.29.1,6.45.1,8.42,0,16.84.06,25.26,0a5.53,5.53,0,0,1,5.52,3.66c2.12,4.84,5.78,6.65,11,7.52,4.41.74,8.45,3.63,12.38,5.44-.31,3.1-.63,5.52-.78,7.95-.23,3.79,1.91,5.65,5.32,6.77a45.64,45.64,0,0,1,8.62,3.78c1.91,1.12,3.36,3,5.27,4.78-4.57,5.4-10.06,7.92-16,9.37-1.28.31-3.19-1-4.5-1.94s-2.27-2.75-3.63-3.84c-1.9-1.52-4.11-1.68-5.87.2-1.56,1.67-1.23,3.66,0,5.43a22.65,22.65,0,0,0,2,2.17c3.56,3.91,3.44,6.62-.58,9.92a47.47,47.47,0,0,1-4,2.66l-10.47-3.63,3.22,6.95c-3,2-5.9,1.1-8.63.43a103.32,103.32,0,0,1-11.83-3.58c-1.51-.57-2.77-2-3.88-3.31-.88-1-1.24-2.47-2-3.57-3.46-4.79-8.16-6.3-14-4.54-3.35,1-6.73,2.69-9.95-.62.72-4.35,4.11-4.91,7.49-5.09,2.54-.14,5.11.33,7.67.43,4.1.16,7.61-.86,10.61-4.09,1.77-1.92,4.52-3,6.9-4.28,1.71-1,3.73-1.44,5.27-2.59,2.83-2.12,2.59-5-.73-6.35a17.73,17.73,0,0,1-7.57-6.3c-3.43-4.54-3.83-4.45-9.37-3.07a26.39,26.39,0,0,1-6.42.39c-2.16,0-4.32-.35-6.48-.37s-3.91.65-4.43,3.05c0,.19-.13.38-.17.57-1,4.73-7,5.1-8.31,10.26-1.18,4.81-6.86,4.49-10.94,5.67-1.13.33-2.51.27-3.4.91-3.93,2.86-7.65,2.26-11.42-.22-.22-.15-.73.14-1.51.32-.2,3,2.19,4.11,4.15,5.51a84.33,84.33,0,0,1,8,6,4.66,4.66,0,0,1,1,4.08c-.68,2-2.75,1.88-4.57,1.35a11,11,0,0,1-2.16-1c-4.6-2.48-8.65-1.79-12.19,2ZM385.59,397c1.77,1,2.78,2,3.7,1.91a26.5,26.5,0,0,0,6.83-1.45c3.23-1.19,6.09-1.4,8.64,1.33,1.92,2.06,4.38,2.44,7.05,2.06,2.34-.33,4.7-.48,7-.91,4.66-.86,5.81-3.41,3.53-7.62-3.1-5.71-7.4-7.36-13.9-5.11q-9.45,3.27-18.78,6.86C388.37,394.61,387.32,395.77,385.59,397Zm38.28,8.39c.12.45.24.89.37,1.34-.46,2.54-1.09,5.06-1.3,7.62a12.55,12.55,0,0,0,.56,5.14c1.3,3.64,3.53,4,6,1.06a35.94,35.94,0,0,0,2.66-3.88c1.81-2.81,3.93-4.83,7.72-3.8,1.95.53,3.53-.09,3.82-2.41s-1.28-4.82-3.44-4.47c-3.51.56-6.48-.76-9.7-1.44C428.46,404.15,426.1,405.1,423.87,405.43Zm-7.7,1.3c-6.58-1.84-11.43-.4-14.53,3.55-2.06,2.62-4.48,5-6.33,7.74a95.07,95.07,0,0,0-6,10.63c-.39.78.07,2.79.7,3.1a4.65,4.65,0,0,0,3.71-.09c3.07-1.67,4.78-4.4,5.76-7.82,1.88-6.54,5.58-11.6,12.38-13.95C413.25,409.4,414.38,408.07,416.17,406.73Zm-102.46-126c4.05.45,18.49-2.64,22.39-4.68-.52-3.17-2.81-4.15-5.55-4-2.94.13-5.84.92-8.77,1C317,273.27,314.82,276,313.71,280.78Zm88.09-17.13c-4.59-2.27-8.3-1.69-11.91-1.82-2.69-.09-5.25.09-7.73-1.87-4.47-3.51-6.16-2.6-7.6,3.66a11.41,11.41,0,0,0,8.75,2c4.83-.64,9.64-1.8,14.53,0C398.55,265.9,399.83,264.68,401.8,263.65Zm-64.28,39.53c-3.83-4.74-5.06-5-9-2.72-2.33,1.36-4.82,2.48-7.15,3.84a33.48,33.48,0,0,0-3.67,3.06C325.57,307.88,331.12,304.51,337.52,303.18Zm97.53,125a31.37,31.37,0,0,0-4.85,0c-3.68.58-7.32,1.39-11,2.1-1.59.3-3.55.73-2.87,2.75a4.27,4.27,0,0,0,3.46,2.19A27,27,0,0,0,435.05,428.2Zm-61.94-70.55c-.06-1.82-.23-3.82-3-3.83-2.45,0-4.43,2.63-4.46,5.83,0,2.64,1.45,4.59,3.42,4.49C371.25,364,373.08,361.17,373.11,357.65Zm73.77,63.07c6.14,3.27,11.42,2.68,13.76-1.59C455.94,418.78,451.35,418,446.88,420.72ZM440.76,650c-.76,1.52-1.79,2.65-1.54,3.28.38,1,1.64,1.57,2.53,2.32.46-.92,1.34-1.89,1.26-2.77S441.84,651.24,440.76,650ZM1740,964.28c0,.18.23.33.37.46,3,2.61,2.88,5.5,1.53,9.06s-.31,6.49,2.77,7.45c6.38,2,12.44,6.24,19.81,3.22a7.4,7.4,0,0,1,6.07.6c4.18,2.93,7.58,2.07,11.29-.69a21,21,0,0,1,13.2-4.56c5.67.17,9.15-2.66,12-7.07,6.46-9.81,16-16.73,24-25.11a9.84,9.84,0,0,1,2.43-1.68c5.37-2.9,9.2-7.34,12.51-12.32,2.61-3.94,5.09-8,7.89-11.79a25.92,25.92,0,0,0,4.75-13.74,31.69,31.69,0,0,1,1.84-8.56c1.35-3.53,1-6.4-1.47-9.28-2.3-2.68-4.86-5.37-6.29-8.51-1.62-3.57-2.4-7.36-6.21-9.56-.91-.52-1.28-2.38-1.45-3.68-.83-6.26-3.31-11-9.71-13.46-4.28-1.62-6.2-5.32-5.91-9.95a22.78,22.78,0,0,0-2.3-12,9.41,9.41,0,0,1-.77-4.57c.32-7,.37-7-6.23-10a16,16,0,0,1-2-1.29c-.6-7.38,0-15.06-5.78-21.2-3.25,1.75-4.53,4.61-5.62,7.56-2.57,7-5,14-5.85,21.57a21.94,21.94,0,0,1-6.89,14c-2.83,2.63-5.14,2.71-7.93.74-6.23-4.42-12.44-8.85-18.74-13.16-5.72-3.91-5.68-6.92.3-10.2a6.31,6.31,0,0,0,.9-.58c1-2.72,1.86-4.84,2.51-7,.53-1.77,1.58-4,1-5.37-1-2.46-3.86-1.7-5.78-1.08-4.3,1.37-8.17.38-12-1.32-2.35-1-4.65-2.17-7-3.06a19.1,19.1,0,0,0-3.84-.55c.29,6.29.16,6.67-5.49,6.46a10.52,10.52,0,0,0-10.29,5.52c-1.83,3-3.78,6-5.82,8.9-2.58,3.64-4.74,4-8.43,1.46-1.46-1-2.64-2.56-4.22-3.18-1.89-.74-4.31-1.5-6.09-.94-6.08,1.92-11.73,4.83-14.87,10.83-2.5,4.79-6.2,7.57-11.68,7.64-3.26.05-5.12,1.63-5.9,4.7a18.69,18.69,0,0,1-1.06,3.38c-3.28,6.84-8,12.1-15.76,13.93-5.34,1.24-10.61,2.76-15.92,4.15a13.74,13.74,0,0,1-4,.89c-4.65-.3-8.37,1.77-12,4.2a63.27,63.27,0,0,1-8.55,5.22c-3.81,1.72-6.89,3.55-7.14,8.34-.09,1.64-1.21,3.33-2.16,4.8-1.75,2.7-2.34,5.4-.73,8.32,1.37,2.48.7,4.43-1.22,6.34-.91.91-2.06,2.29-2,3.37a62.74,62.74,0,0,0,1.81,12.16c1.15,4.1,1.93,7.92.43,12.11a8.63,8.63,0,0,0,.11,5.22c2.4,7.36-.39,13.08-5.33,18.19-4.3,4.44-4.24,6.38,1.12,9.42a13.28,13.28,0,0,0,7.17,1.93,24.14,24.14,0,0,0,10.1-2.75,37.49,37.49,0,0,1,25-5.06,15.87,15.87,0,0,0,13.09-3.66c4.73-3.89,10.23-7.3,16.49-7.33a54.49,54.49,0,0,0,19-3.75c8.73-3.24,17.11-2,25.11,2.27a11,11,0,0,1,4.6,4.33c2,4.13,3.42,8.55,5.31,13.5,4.87-.31,7.48-6.84,13.25-6.74C1738.22,956.17,1739.09,960.23,1740,964.28Zm4.31-239.15c-1.64,2.71-1.6,6.15.69,8.24,2.84,2.61,5.11,5.07,5.57,9.12.13,1.11,2.09,2.26,3.44,2.93a14.55,14.55,0,0,0,5.58,1.79c8.92.42,15.81,5.63,22.93,9.95,2.48,1.5,4,5.2,5.11,8.2,1,2.71-1.86,4-3.61,5.48-.6.51-1.45.95-1.69,1.6-.5,1.38-1.29,3.19-.78,4.24s2.52,1.79,3.81,1.71a22.4,22.4,0,0,0,6.23-1.67c2.7-1,5.26-.88,7,1.43,4,5.36,9.4,5.63,15.35,5.21,2.65-.19,4.52-1,6-3,1-1.44,2-2.92,3-4.35A6.43,6.43,0,0,1,1829,773c4.46.49,8.48,2,11,6.05,1.12,1.85,2.12,3.77,3.1,5.7a9.79,9.79,0,0,0,8.8,5.88c3.07.21,6.06,1.41,9.13,2a23.71,23.71,0,0,0,4.3,0,24.36,24.36,0,0,0-.69-4.8,7.45,7.45,0,0,0-2.26-2.68c-4.07-3.63-8.14-7.26-12.3-10.78-3.92-3.32-4.11-3.65-.74-7.95,1.61-2.06,1.36-3.57-.49-5a12.79,12.79,0,0,0-3.6-2c-3.5-1.21-6.14-3.08-7.71-6.7a11.12,11.12,0,0,0-4.44-4.53,45.39,45.39,0,0,0-8.58-3.88c-9.11-3.08-18.28-6-27.41-9a15.33,15.33,0,0,1-4.29-1.95c-5-3.64-9.76-2.24-14.35.49-2,1.18-3.51,3.11-5.16,4.79-4.2,4.28-7.11,4-10.19-1.15a12.17,12.17,0,0,1-1.44-5c-.53-5.74-6.49-11.1-13.67-10.87C1747.23,722.42,1745.28,723.49,1744.29,725.13Zm-97-51.87a4.54,4.54,0,0,0-1.16-1.33c-2.49-2.25-4.5-2.24-6.47.41a49.48,49.48,0,0,0-3.51,6.14c-1.62,3-3.44,5.9-6.82,7.06-3.79,1.31-6.23,3.94-8.28,7.19-2.4,3.82-5.47,6.64-10.38,6.87-2.51.12-4.17,1.58-5.41,3.95-2.35,4.49-2.52,4.4-7.36,3.48s-7.18.51-7.88,5.25c-.81,5.44-.13,10.67,3.83,14.91a13.21,13.21,0,0,1,3.9,7.73c.45,3.86,2.52,6,6.72,5.85,1.31-.06,2.64.69,4,1,1.68.45,3.6,1.6,5,1.16,5.14-1.63,9.09.47,13.36,2.83,5.9,3.26,12.47-.3,13.51-6.9a10.41,10.41,0,0,0,.26-1.75c0-4.23,1.41-7.59,5.13-10,1.17-.76,2.61-2.58,2.43-3.68-.85-5.35,1.91-8,6.28-9.93.45-.19.68-.88.91-1.2,0-.4.15-.65.07-.78-.82-1.32-1.64-2.64-2.51-3.93-4.67-7-4.5-12.21.58-18.88,1.16-1.53,2.15-3.19,3.64-5.43C1652.29,680.62,1649.08,677.56,1647.25,673.26ZM1167.77,887.05c2.55-6.78,5.52-13.4,8.13-20.15,3-7.7,5.91-15.43,8.59-23.24a68.53,68.53,0,0,0,2.73-11.44c.33-2.05.64-3.78,2.47-5,2.49-1.68,2.79-3.9,1.91-6.73s-1-5.8-1.71-8.67a17.89,17.89,0,0,0-1.76-5c-1.73-3-4.18-3-5.7,0-2.53,5.06-7.79,8.12-9.71,13.62-.35,1-1.62,1.69-2.54,2.42a29.59,29.59,0,0,1-11.58,5.6c-7.27,1.72-10.52,6.22-10.39,13.66A20.4,20.4,0,0,0,1149,848c1.71,5.39.61,10-3,14.3a16.89,16.89,0,0,0-3.39,5.48,20.7,20.7,0,0,0-.89,7.43c.21,3.5,1.06,6.95,1.53,10.44a10.15,10.15,0,0,0,10.36,9.16C1158.84,893.83,1165.12,894.08,1167.77,887.05Zm387.87-162.43c-1-1.37-.38-3.79-1-5.58a12.79,12.79,0,0,0-2.68-5,28,28,0,0,0-5.76-4.06c-6.69-4-14.45-6.4-19.59-12.8-.35-.44-1-.6-1.47-1-3.11-2.67-6.18-5.39-9.29-8.06-1.61-1.39-3.09-3.43-5-3.93-4.22-1.11-8.65-1.45-13.23-2.15-.72,3.08.78,5.37,2.72,7.32,5.25,5.27,10.49,10.58,16,15.54a20.32,20.32,0,0,1,5.67,8,23.38,23.38,0,0,0,4.86,7.85,33.6,33.6,0,0,1,7.36,11.24,27.9,27.9,0,0,0,4.44,7.55c3.74,4.3,7.83,8.31,11.93,12.29a50.68,50.68,0,0,0,7.67,6.46c5.46,3.53,10.24.9,10.4-5.48,0-1.18,0-2.36,0-3.54-.1-3.36.75-6.25,3.84-8.08.86-.5,1.75-1,2.39-1.32-1.39-4.21-2.88-7-6.25-8.85l-5,2.7C1561,730.67,1558,727.87,1555.64,724.62Zm160.25-234.47c2.09-1.87,4.24-3.68,7.33-1.89s5.17.42,6.72-2.38a9,9,0,0,1,7.18-4.57c2.14-.28,4.29-.58,6.4-1.05,2.84-.64,5.86-1,7.65-4.25-1-3.63-1.88-7.48-3.22-11.14-1.43-3.93-2.65-7.73-1.7-12a7.32,7.32,0,0,0-.76-4.52,19.61,19.61,0,0,0-15.42-11.06c-2.13,2.42-1.74,4.61-.47,6.79.89,1.52,2,2.94,2.83,4.49a12.54,12.54,0,0,1-5.77,17.38c-1.48.71-3.37,1.81-3.85,3.16-2,5.52-6,6.61-11.21,6.48-2.85-.07-6.36,0-8.45,1.55-4.54,3.35-8.45,7.6-12.44,11.66a4.06,4.06,0,0,0-.19,5.88c2.67,3.14,5.24,6.39,8.15,9.29a5.07,5.07,0,0,0,4.16,1c.87-.22,1.6-2.06,1.86-3.28a71.66,71.66,0,0,0,.71-7.39C1710.35,495.29,1713.07,492.66,1715.89,490.15ZM841.74,322.73c-9.26,2.85-14,11.42-6.65,20.44a16.54,16.54,0,0,0,7.73,5.05c1.62.58,3.08,2.91,3.65,4.75.66,2.08-1.52,2.74-3.16,3.52a7.67,7.67,0,0,0-3.1,2.44c-1.47,2.26-2.59,4.75-4.17,7.74l4.13,2.44-4.29,5c2,2.52,4.15,1.93,6.56,1.44,4.78-1,9.63-1.62,14.47-2.27,2.53-.34,5.11-.28,7.64-.61s5-1.08,5.65-4.25c.28-1.26,1.39-2.33,2.07-3.52,1.85-3.26,1.56-4.35-1.61-6.17-1.34-.77-3.49-1.26-3.88-2.36-1.93-5.54-6.89-8.51-10.31-12.75-4.89-6.08-5-6-1.26-12.54.17-.29,0-.75,0-1.62l-6.64-3c.67-1.91,1.24-3.5,2-5.78C847,321.53,844.33,321.93,841.74,322.73Zm1081.77,680c-1.12.81-2.26,1.59-3.3,2.48-6.65,5.75-14.35,9.55-22.49,12.69s-16,6.61-23.92,10.06a28.92,28.92,0,0,0-6.12,3.49c-2.94,2.28-2.62,4.65.79,6.27,4.49,2.12,9.25,2.56,13.66.12a122.07,122.07,0,0,0,14.87-9.44c4.3-3.27,8.42-6.39,14-7a11.71,11.71,0,0,0,4.85-1.9c4.42-2.89,8.7-6,13.05-9,3-2.11,6.44-3.89,7.56-7.85C1929.7,998.22,1929.7,998.22,1923.51,1002.71ZM1684,747.36c-2.3-4.47-4.17-9.16-6-13.3,2.32-4,8.07-4.14,7.84-10.4-3.22.91-6,1.49-8.71,2.49-3.77,1.42-6.94,1.7-10.19-1.57-2.78-2.78-4.6-1.89-5.82,1.88s-2.45,7.37-3.93,10.95c-.88,2.13-.67,3.86.94,5.36a7.84,7.84,0,0,1,2.13,9.11,3.78,3.78,0,0,0-.27,2.31,20.38,20.38,0,0,0,1.9,3.23c1.2-.77,2.92-1.26,3.47-2.35.76-1.49.44-3.48.93-5.16.83-2.9-.15-6.36,3-9.22,1.06,1.89,2,3.54,2.91,5.16a84.89,84.89,0,0,0,4.9,8c1.66,2.23,3.84,4.05,7.25,2.87A10,10,0,0,0,1684,747.36Zm-61.84,25.84c-1.81-.67-5.06-1.57-5.05-2.35,0-4.08-3-3.39-5.23-4.06-4.92-1.48-9.64-2.68-14.89-.42-2.16.93-5.38-.14-8-.84-2.43-.65-4.65-2.06-7-3-4.1-1.71-8.31-2.45-12.61-.79-3.34,1.3-3.83,3.5-1,5.58,4.64,3.41,9.89,6.2,15.63,6.24a59.47,59.47,0,0,1,18.43,3.14c2.38.78,5,.73,7.55,1,4.28.53,8.57,1,12.84,1.59,2.52.34,5,.94,7.13-1.58C1628.34,774.47,1625,774.27,1622.15,773.2Zm354.09,206.15c-5.55.42-5.52.41-7.77-4.8-1.47-3.38-3.58-6.5-2.2-10.61.62-1.84-.6-3.46-2.83-3.61s-3.27,1.2-3.47,3.19a13.74,13.74,0,0,0,.17,4.1c1.57,7.23-1.2,12.68-6.77,17-2.44,1.91-4.86,3.84-7.51,5.94,2.94,4.16,2,7.16-1.74,9.71-.85.58-1,2.17-1.77,4,2.17-.18,3.76.16,4.72-.46A193,193,0,0,0,1963,992.79c2.65-2.13,5-4.3,8.47-4.93,4.23-.75,6.58-3.77,8.82-8.52C1978.15,979.34,1977.19,979.28,1976.24,979.35ZM807.07,360.59c-.75,1.42-2.05,3.46-1.55,4.4.63,1.21,2.78,1.76,4.38,2.27a5.27,5.27,0,0,0,2.88-.29c4.49-1.34,9-2.65,13.4-4.26,1.08-.39,2.55-1.95,2.47-2.85-.45-4.88,2.21-8.5,4.61-12-4.58-5.86-11.39-6.54-16.47-2.16a25.29,25.29,0,0,1-6.31,3.93c-2.49,1.08-3.46,2.38-2.16,4.93.44.86.78,1.76,1.31,3A21.59,21.59,0,0,0,807.07,360.59Zm921.5,70.66c.39-2.14,2.06-3.52,3.77-2.51,5.55,3.24,9.55,1.26,13.21-3,.35-.42,1.07-.51,1.54-.84,2.24-1.58,2.39-3.64.19-5.12a8.58,8.58,0,0,0-3.81-1.42c-6.42-.67-12.08-3.28-17.62-6.35-1.59-.87-3.29-2.4-5.57-.75a11.63,11.63,0,0,0,.93,2.66c2.6,4,3.52,7.79-.14,11.77-1.51,1.65-1.06,3.7.36,5.39,1.66,2,3.58,3.56,6.62,3.79C1728.24,433.5,1728.37,432.37,1728.57,431.25Zm41.14,569.65a31.24,31.24,0,0,1-6.43-.3c-6.71-1.39-7.51-1-9.49,5.62a38,38,0,0,0-1.46,6.29c-.48,4.06,1.4,5.94,5.38,5.7,8.26-.5,16.67-8.24,18.27-17.59C1773.55,1000.74,1771.63,1000.91,1769.71,1000.9ZM1392.6,673.29c.67,2.57,2.13,4.73,5.13,5,2.73.24,5.51-.55,6.64-2.92a11.48,11.48,0,0,0,.85-7.26c-1.59-6-5.22-10.81-11.14-15.38C1391.73,660.17,1390.87,666.65,1392.6,673.29Zm190.45,59.47a7.1,7.1,0,0,0-7.14,7.69,6.79,6.79,0,0,0,6.65,6.9,7.3,7.3,0,0,0,.49-14.59Zm99.21-14.83a30.94,30.94,0,0,0,7.07.16c2.58-.19,4.2-1.6,4.33-4.58-1.17-.4-2.11-1-3-1a61.49,61.49,0,0,1-17.59-.95c-3.77-.7-6.19,1.54-8.54,7.09C1671,716.26,1676.63,717.06,1682.26,717.93Zm15.68,61.27c-2.73,1.56-5.45,3.14-8.18,4.69-3.61,2.06-5.22,4.24-3.88,5.54,2.49,2.41,4.64.17,6.78-1,3.77-2.06,7.55-4.09,11.26-6.24,1.6-.93,3-2.13,5.62-3.95C1704.38,776.49,1701.09,777.39,1697.94,779.2Zm172.13-16.65c3-1.41,4-3.33,3.57-7.41-3.08.31-6.16.71-9.25.91s-6.26,0-9.19,2.59C1859.74,763.07,1865.84,764.53,1870.07,762.55Zm-226.26,19.33c2.67-.38,5.36-.67,8-1.19,1.18-.23,2.26-.92,4.83-2-2.72-1.27-4.15-2.52-5.54-2.48-4.81.16-9.61.77-15,1.26C1638.26,781.29,1640.4,782.37,1643.81,781.88ZM556.18,265.22c-1.55,1.91-.84,3.86,1.56,4.26,3,.49,6.28-1.61,8-5.1C562.06,261.93,558.62,262.23,556.18,265.22Zm1156.88,136c1.19,1,2.81,2.13,4,.42.64-1,.68-3.27,0-4-1.89-2-4.33-3.4-7.14-5.5C1708.94,396.73,1710.68,399.12,1713.06,401.21Zm-1213.83-107c-1.56,1.39-4,2.69-2.3,5.12s3.9.67,5.71-.34c.73-.4,1.14-1.37,2.18-2.69l-5.75-2ZM1664.9,789.56c-.74-5.08-1.63-5.6-7.61-4.33C1658.94,789.18,1661.55,789.86,1664.9,789.56Zm7.35-10.52c-2.67-2.67-5.51-2.67-8.85-1.14C1666.76,781.89,1668.79,782.1,1672.25,779ZM178.5,351.28a19.87,19.87,0,0,0-3.94,3c-.18.17.64,1.85.76,1.82a23.07,23.07,0,0,0,4.65-1.46c.53-.25.71-1.25,1.4-2.57C179.92,351.62,179,351,178.5,351.28Zm933.17-94.59c-.44.33-.75,1.64-.49,1.93a3,3,0,0,0,4.62.2c.14-.12.19-.34.42-.78C1115.16,256.24,1113.87,255,1111.67,256.69ZM1730,799.44c2.22,2,3.92,2.31,5.64-.58C1733.38,796.86,1731.71,796.84,1730,799.44ZM957.63,458.87c7.69-2.58,8.27-3.94,6-13.81l8.25-1c.21-3-2.13-3.49-3.93-4.54-2.86-1.67-5.62-3.52-8.52-5.12a17.66,17.66,0,0,0-5.38-2.2c-3.22-.56-5.15-2.37-7-4.92a48.43,48.43,0,0,0-7-7.81c-2.36-2.13-4.29-4.31-3.43-7.56a5.72,5.72,0,0,1,2.87-3.34c.84-.36,2.43.63,3.51,1.29,2,1.18,3.8,2.55,5.65,3.89,1.4,1,3.16,1.84,4.06,3.21,2.4,3.65,5.85,5.75,9.64,7.53,4.28,2,8.58,4,12.79,6.14,3.38,1.73,5.5,4.12,4.83,8.5-.29,1.89.62,4.26,1.67,6a55.78,55.78,0,0,0,5.77,7.47c2.69,3.17,5.15,6.24,5.72,10.71.54,4.2,3.7,6.16,7.64,5.54,1-.16,2.62-.84,2.86-1.61,1.1-3.62,3.93-5.22,6.91-6.83.62-.33.95-1.19,1.33-1.7-.49-3.46-3.39-4.37-5.55-6-2.46-1.8-4.83-3.58-3.66-6.55,3.22-1.71,5.95-3.05,8.58-4.58,5.68-3.32,9.19-1.88,10.69,4.46,1.6,6.74,3.55,13.34,8,18.85,2,2.45,4,5,7.8,4.2a3,3,0,0,1,1.71.37c4.72,2.33,9.13,3.25,13.43-1.16,1.77-1.81,4.36-.56,6,.8,5.18,4.36,10.4,3.9,15.9.83a12.91,12.91,0,0,1,3.89-1.34c4-.73,5.08.17,6.16,4.08,1.62,5.89,2,11.45-1.49,17-1.49,2.38-1.76,5.59-2.34,8.47-1.65,8.15-5.46,10.53-13.56,8.28-1.52-.42-3-.86-4.51-1.41-4-1.48-7.72-1.34-11.26,1.16-4.13,2.91-8.46,2.63-13,.89-5.13-2-10.13-4.4-15.89-4.16-1.21.05-2.43-1.12-3.7-1.57-5.82-2.08-11.66-4.07-17.33-6.61-2.3-1-5.47-.59-8.16-.22-6,.84-8.41,3.86-8.49,10,0,.79,0,1.58,0,2.37-.25,4.44-2.42,6-6.58,4.65-1.48-.49-2.8-1.48-4.28-2-3.33-1.11-6.65-2.51-10.08-2.93-3.23-.4-5.62-1.34-7.27-4.18-3.5-6-9.52-7.83-15.68-7.44-6.83.42-11.53-3.31-16.73-6.32-1.94-1.12-1.77-2.92-.5-4.56,1.08-1.41,2.42-2.63,3.34-4.12.42-.69.5-2.28,0-2.69-3.43-3,.71-9.32-4.74-11.23-1.91-.67-4.43-1.14-6.17-.45-3.72,1.45-7.2,1.12-11,.68s-7.38.22-11.08.41c-4.12.21-8.24.69-12.35.59-6-.14-12,.08-17.47,2.34-5.05,2.08-9.66,5.18-14.61,7.53a20.26,20.26,0,0,1-7.19,1.92,91.6,91.6,0,0,1-11.23-.22,11.18,11.18,0,0,1-4.56-1c-1.05-.56-2.3-2-2.27-3,0-1.34,1-3.35,2-3.78a15.46,15.46,0,0,1,7.43-1.37c8.56,1.1,14.48-4.22,20.85-8.22,3-1.88,5.08-4.81,4.29-9a6.21,6.21,0,0,1,1.43-4.8c5.1-5.1,9.45-11.28,17.06-13.18,2.27-.57,2.93-2.08,3-4.38.23-5.61,2.6-7.26,7.9-5.81,1.33.36,2.61.91,3.93,1.29a9.69,9.69,0,0,0,8.48-1.15c3-2,6.07-3.66,9.08-5.54,5.09-3.19,8.11-2.92,11.45,2.16a44.76,44.76,0,0,0,12.85,12.87,26.76,26.76,0,0,0,7.4,3.52c6.19,1.73,10.72,5.66,14.86,10.24,2,2.2,3,4.62,1.54,7.57A19.54,19.54,0,0,0,957.63,458.87Zm-46.16-14a19,19,0,0,0-.35,3.53c.1,1.24.23,3.17,1,3.5a5.62,5.62,0,0,0,4.28-.07c3.81-1.84,5.07-8.85,2.48-12.3a3.7,3.7,0,0,0-4.65-1.3C910.83,439.42,910.74,442,911.47,444.85Zm26.91,14.86c2.4,4.33,6.13,5.51,9.92,6.37,4.6,1,5.47.44,6.88-4a18.05,18.05,0,0,0,.38-3.13C949.79,458.46,944.42,456.85,938.38,459.71Zm135.47,18.65c-5.55-2.29-6.78-1.87-8.1,2.7C1069,482.21,1071.69,482,1073.85,478.36Zm-158-44.27c1.87-1.76,3.68-3.23,1.93-5.83a2.47,2.47,0,0,0-2.4-.35C913.33,429.63,912.84,431.62,915.87,434.09ZM1038,440.7c2.74-3.85,6.18-4.49,10.31-3.85a11.22,11.22,0,0,0,8.46-1.68c6.89-4.73,14.34-5,22-2.42,3.74,1.24,7.38,2.75,11.09,4.06a37.38,37.38,0,0,0,21.56.83c5.27-1.26,6.54-5.07,3.09-9.26a20.44,20.44,0,0,0-6-4.7c-6-3.29-12.24-6.3-18.38-9.43-5.59-2.84-5.78-3.69-2-8.49a10.8,10.8,0,0,0,1.65-2.42c.9-2.18-.13-4.46-2.37-4.24a43.2,43.2,0,0,0-11.91,2.55c-2.94,1.19-2.64,3.72.07,5.9.88.71,1.74,1.45,3,2.5-2.53,1.23-4.59,2.38-6.76,3.25-5.27,2.11-8.25,1.35-10.64-3.88-1.69-3.71-4.52-5.16-7.79-6.5-4.4-1.8-6.85-1.59-9.21,2.32-3,4.93-8,8.55-8.82,14.94-.35,2.72-3.48,5.22-3.48,7.82s2.34,5.19,3.76,8l-4.3,3.72C1035,443.19,1036,443.57,1038,440.7ZM926.34,348.75c2.43.4,5.19,1,7.38.26,3.48-1.19,6.57-1.28,9.59.65,3.56,2.29,7.09,1.89,10.71.36,2.18-.92,4.27-2.28,6.54-2.66,3-.52,6.34-1,9.18-.19,3.35.93,6,1,8.83-1.1s5-4.34,4.15-8.25a8.19,8.19,0,0,1,.2-2.94c1.11-6.36,4.5-8.22,10.48-5.93a51.62,51.62,0,0,0,5.32,1.45c.77-5.62-1.07-8.3-4.76-7.8-.94.12-1.81,1-2.73,1a14.79,14.79,0,0,1-3.45-.74c.77-.94,1.37-2.16,2.35-2.75,1.48-.88,3.54-.94,4.8-2,2.65-2.24,5.64-2.65,8.83-2.62,3.55.05,7.1.34,10.64.23,2.88-.09,6-.22,7.18-4.72-2.93-.44-5.6-1.27-8.2-1.11-3.3.21-6.55,1.25-9.82,1.91a93.46,93.46,0,0,1-10.4,2c-5,.42-11.82-3.8-11.39-10.22a17.4,17.4,0,0,0-.69-4.65c-.92-4.34-.6-5.45,3.09-7.86,2.46-1.61,5.16-2.87,7.67-4.41s5-3.16,5.11-6.59a13.8,13.8,0,0,0-11.77-1.5c-2,.72-3.47,1.79-3.79,4.07-.62,4.45-3.76,6.64-7.5,8.38a47.11,47.11,0,0,0-8.34,4.35c-6,4.43-5.65,10.55.53,14.51,5.21,3.34,5.1,6.29-.35,9.5-.51.3-1.05.54-1.57.83-5,2.84-5.23,3.25-4.5,8.83.59,4.54-.12,5.39-4.3,7a36.74,36.74,0,0,0-8.23,4.21c-2.23,1.56-4.17,2.73-7,1.9-1.16-.34-3.2-.29-3.75.42-2.5,3.23-5.59,3.15-9.06,2.48-.8-.15-1.74.42-3.24.83C925.07,347.19,925.6,348.63,926.34,348.75Zm247.51,50.44c-11.07-1.57-18.46,5.28-25.9,11.68-2,1.71-1.75,4.05.21,6.25a14.9,14.9,0,0,1,3.57,5.94,15,15,0,0,0,5.41,8.17c3.46,2.93,6.82,6,10.18,9,2.23,2,3.32,4.05,1.38,7.19-1.29,2.08-1.73,4.78-2.14,7.27-.73,4.35.38,6.08,4.37,7.88,3.4,1.54,6.84,3,10.17,4.68a15.14,15.14,0,0,0,12,.69c4.48-1.48,5.95-3.58,4.45-8-1.15-3.43-3.4-6.54-5.45-9.6-1.71-2.56-4.15-4.7-3.79-8.59l7.67-.87c-.46-8.11-6.9-6.07-11.55-7-.46-4.34-3.28-6.5-6.66-8.44a34.24,34.24,0,0,1-7.47-5.74c-3.49-3.59-2.65-7.44,2-9.38,2.31-1,4.89-1.3,7.71-2C1180.82,401.44,1179.88,400.05,1173.85,399.19Zm-87.29,147.16c1.63,2.91,3.85,5.73,4.55,8.86a17.72,17.72,0,0,0,6.42,10.26c4.25,3.48,6.51,7.79,6.06,13.4a13.47,13.47,0,0,0,6.29,13.13,15.63,15.63,0,0,1,7.2,11c.77,5.6,3.94,9.33,8.83,11.75a43.42,43.42,0,0,1,13.22,10.73,62.21,62.21,0,0,0,5.5,5c-.24-5.12-.85-9.88-2.67-14.12s-4.81-7.84-7.36-11.84l2.83-3a6.46,6.46,0,0,0-.92-2.22c-6.71-6.62-10-16-18-21.67a13.8,13.8,0,0,1-6-11.61c0-5-2.59-8.9-6.37-12.17-1.88-1.62-3.92-3.55-4.78-5.77-2.79-7.18-7.48-12.91-12.83-18.2-3.87-3.83-4.57-3.82-11.4-.18C1080.38,535.45,1083.5,540.88,1086.56,546.35Zm-17.72,185.56c-.31,2.8,1.36,3.91,3.69,4.43,2.51.56,5.25,1.28,7-1.42a63.69,63.69,0,0,0,4.7-8.82c1.74-4.09-.27-7-4.72-7.24-6.73-.39-10.55,3.26-10.6,10.11A26.2,26.2,0,0,1,1068.84,731.91Zm172.37-462.86c1.93-3.6.92-8.42-2.85-10.19-4.2-2-7.09-4.61-8.6-9-.78-2.26-2.63-3.31-5.87-1.5,1,2.11,1.78,4.3,3.1,6s3.18,2.91,4.77,4.37c4.17,3.81,4.4,5.16,1.91,10.15a23.11,23.11,0,0,0-1,2.6C1237.11,273,1239.47,272.29,1241.21,269.05ZM1478.74,355c-1.33,3.66-3.69,6.94-5.6,10.39,3-1.17,5.31-3.1,7.72-4.86,6.8-5,7-11,.17-17.2C1480.28,347.39,1480,351.37,1478.74,355ZM1218.4,410.13c-.7,2.1,1.73,5.75,4.29,6.25,1.24.24,2.71-.69,4.07-1.12.12,0,.18-.34.22-.53.7-2.94-2.69-7.1-6.5-7C1220,408.25,1218.76,409,1218.4,410.13ZM1058.19,766.76a15.26,15.26,0,0,1-3.28-10.39c0-1.21-1.06-2.44-2-4.34-2.91,7.81-.89,13.49,5.26,16.46C1058.22,767.83,1058.46,767.09,1058.19,766.76ZM1085.36,808c3.55-4.93,3.68-7,.39-12.13C1084.22,800.49,1083.08,804,1085.36,808Zm292-574.61c5.11-.71,8.65-1.41,11.17-6C1384,228.18,1381,230,1377.33,233.39ZM1309,401.12l-2.28,3.64c3.1,0,3.88-1,3.64-2.8ZM389.29,399a26.5,26.5,0,0,0,6.83-1.45c3.23-1.19,6.09-1.4,8.64,1.33,1.92,2.06,4.38,2.44,7.05,2.06,2.34-.33,4.7-.48,7-.91,4.66-.86,5.81-3.41,3.53-7.62-3.1-5.71-7.4-7.36-13.9-5.11q-9.45,3.27-18.78,6.86c-1.31.5-2.36,1.66-4.09,2.93C387.36,398,388.37,399,389.29,399Zm34.95,7.82c-.46,2.54-1.09,5.06-1.3,7.62a12.55,12.55,0,0,0,.56,5.14c1.3,3.64,3.53,4,6,1.06a35.94,35.94,0,0,0,2.66-3.88c1.81-2.81,3.93-4.83,7.72-3.8,1.95.53,3.53-.09,3.82-2.41s-1.28-4.82-3.44-4.47c-3.51.56-6.48-.76-9.7-1.44-2.07-.44-4.43.51-6.66.84C424,405.88,424.11,406.32,424.24,406.77Zm-22.6,3.51c-2.06,2.62-4.48,5-6.33,7.74a95.07,95.07,0,0,0-6,10.63c-.39.78.07,2.79.7,3.1a4.65,4.65,0,0,0,3.71-.09c3.07-1.67,4.78-4.4,5.76-7.82,1.88-6.54,5.58-11.6,12.38-13.95,1.43-.49,2.56-1.82,4.35-3.16C409.59,404.89,404.74,406.33,401.64,410.28ZM336.1,276.1c-.52-3.17-2.81-4.15-5.55-4-2.94.13-5.84.92-8.77,1-4.78.18-7,2.9-8.07,7.69C317.76,281.23,332.2,278.14,336.1,276.1Zm53.79-14.27c-2.69-.09-5.25.09-7.73-1.87-4.47-3.51-6.16-2.6-7.6,3.66a11.41,11.41,0,0,0,8.75,2c4.83-.64,9.64-1.8,14.53,0,.71.27,2-.95,4-2C397.21,261.38,393.5,262,389.89,261.83Zm-61.33,38.63c-2.33,1.36-4.82,2.48-7.15,3.84a33.48,33.48,0,0,0-3.67,3.06c7.83.52,13.38-2.85,19.78-4.18C333.69,298.44,332.46,298.18,328.56,300.46ZM430.2,428.24c-3.68.58-7.32,1.39-11,2.1-1.59.3-3.55.73-2.87,2.75a4.27,4.27,0,0,0,3.46,2.19,27,27,0,0,0,15.24-7.08A31.37,31.37,0,0,0,430.2,428.24Zm-60.05-74.42c-2.45,0-4.43,2.63-4.46,5.83,0,2.64,1.45,4.59,3.42,4.49,2.14-.1,4-3,4-6.49C373.05,355.83,372.88,353.83,370.15,353.82Zm90.49,65.31c-4.7-.35-9.29-1.15-13.76,1.59C453,424,458.3,423.4,460.64,419.13Zm-21.42,234.1c.38,1,1.64,1.57,2.53,2.32.46-.92,1.34-1.89,1.26-2.77s-1.17-1.54-2.25-2.83C440,651.47,439,652.6,439.22,653.23Zm471.9-204.85c.1,1.24.23,3.17,1,3.5a5.62,5.62,0,0,0,4.28-.07c3.81-1.84,5.07-8.85,2.48-12.3a3.7,3.7,0,0,0-4.65-1.3c-3.35,1.21-3.44,3.81-2.71,6.64A19,19,0,0,0,911.12,448.38Zm37.18,17.7c4.6,1,5.47.44,6.88-4a18.05,18.05,0,0,0,.38-3.13c-5.77-.5-11.14-2.11-17.18.75C940.78,464,944.51,465.22,948.3,466.08Zm117.45,15c3.26,1.15,5.94,1,8.1-2.7C1068.3,476.07,1067.07,476.49,1065.75,481.06Zm-148-52.8a2.47,2.47,0,0,0-2.4-.35c-2.07,1.72-2.56,3.71.47,6.18C917.74,432.33,919.55,430.86,917.8,428.26Z" transform="translate(-46 -202.39)"/></svg>