<svg width="1944" height="991" viewBox="0 0 1944 991" fill="none" xmlns="http://www.w3.org/2000/svg">
<path d="M504.7 971.8H523.4V990.5H504.7V971.8ZM486 990.5H504.7V971.8H486V990.5ZM486 971.8H504.7V953.1H486V971.8ZM467.3 971.8H486V953.1H467.3V971.8ZM448.6 971.8H467.3V953.1H448.6V971.8ZM486 953.1H504.7V934.4H486V953.1ZM467.3 953.1H486V934.4H467.3V953.1ZM448.6 953.1H467.3V934.4H448.6V953.1ZM486 934.4H504.7V915.7H486V934.4ZM467.3 934.4H486V915.7H467.3V934.4ZM448.6 934.4H467.3V915.7H448.6V934.4ZM1831.8 915.8H1850.5V897.1H1831.8V915.8ZM486 915.8H504.7V897.1H486V915.8ZM467.3 915.8H486V897.1H467.3V915.8ZM448.6 915.8H467.3V897.1H448.6V915.8ZM1869.2 897.1H1887.9V878.4H1869.2V897.1ZM1850.5 897.1H1869.2V878.4H1850.5V897.1ZM1831.8 897.1H1850.5V878.4H1831.8V897.1ZM486 897.1H504.7V878.4H486V897.1ZM467.3 897.1H486V878.4H467.3V897.1ZM448.6 897.1H467.3V878.4H448.6V897.1ZM429.9 897.1H448.6V878.4H429.9V897.1ZM1869.2 878.4H1887.9V859.7H1869.2V878.4ZM1850.5 878.4H1869.2V859.7H1850.5V878.4ZM1738.3 878.4H1757V859.7H1738.3V878.4ZM1719.6 878.4H1738.3V859.7H1719.6V878.4ZM504.7 878.4H523.4V859.7H504.7V878.4ZM486 878.4H504.7V859.7H486V878.4ZM467.3 878.4H486V859.7H467.3V878.4ZM448.6 878.4H467.3V859.7H448.6V878.4ZM429.9 878.4H448.6V859.7H429.9V878.4ZM1925.2 859.7H1943.9V841H1925.2V859.7ZM1906.6 859.7H1925.3V841H1906.6V859.7ZM1738.3 859.7H1757V841H1738.3V859.7ZM504.7 859.7H523.4V841H504.7V859.7ZM486 859.7H504.7V841H486V859.7ZM467.3 859.7H486V841H467.3V859.7ZM448.6 859.7H467.3V841H448.6V859.7ZM429.9 859.7H448.6V841H429.9V859.7ZM1906.6 841H1925.3V822.3H1906.6V841ZM1757 841H1775.7V822.3H1757V841ZM1738.3 841H1757V822.3H1738.3V841ZM1719.6 841H1738.3V822.3H1719.6V841ZM1700.9 841H1719.6V822.3H1700.9V841ZM1009.3 841H1028V822.3H1009.3V841ZM990.7 841H1009.4V822.3H990.7V841ZM972 841H990.7V822.3H972V841ZM542.1 841H560.8V822.3H542.1V841ZM523.4 841H542.1V822.3H523.4V841ZM504.7 841H523.4V822.3H504.7V841ZM486 841H504.7V822.3H486V841ZM467.3 841H486V822.3H467.3V841ZM448.6 841H467.3V822.3H448.6V841ZM429.9 841H448.6V822.3H429.9V841ZM1906.6 822.3H1925.3V803.6H1906.6V822.3ZM1775.7 822.3H1794.4V803.6H1775.7V822.3ZM1757 822.3H1775.7V803.6H1757V822.3ZM1738.3 822.3H1757V803.6H1738.3V822.3ZM1719.6 822.3H1738.3V803.6H1719.6V822.3ZM1700.9 822.3H1719.6V803.6H1700.9V822.3ZM1682.3 822.3H1701V803.6H1682.3V822.3ZM1607.5 822.3H1626.2V803.6H1607.5V822.3ZM1588.8 822.3H1607.5V803.6H1588.8V822.3ZM1570.1 822.3H1588.8V803.6H1570.1V822.3ZM1028 822.3H1046.7V803.6H1028V822.3ZM1009.3 822.3H1028V803.6H1009.3V822.3ZM990.7 822.3H1009.4V803.6H990.7V822.3ZM972 822.3H990.7V803.6H972V822.3ZM542.1 822.3H560.8V803.6H542.1V822.3ZM523.4 822.3H542.1V803.6H523.4V822.3ZM504.7 822.3H523.4V803.6H504.7V822.3ZM486 822.3H504.7V803.6H486V822.3ZM467.3 822.3H486V803.6H467.3V822.3ZM448.6 822.3H467.3V803.6H448.6V822.3ZM429.9 822.3H448.6V803.6H429.9V822.3ZM1794.4 803.6H1813.1V784.9H1794.4V803.6ZM1775.7 803.6H1794.4V784.9H1775.7V803.6ZM1757 803.6H1775.7V784.9H1757V803.6ZM1738.3 803.6H1757V784.9H1738.3V803.6ZM1719.6 803.6H1738.3V784.9H1719.6V803.6ZM1700.9 803.6H1719.6V784.9H1700.9V803.6ZM1682.3 803.6H1701V784.9H1682.3V803.6ZM1663.6 803.6H1682.3V784.9H1663.6V803.6ZM1644.9 803.6H1663.6V784.9H1644.9V803.6ZM1626.2 803.6H1644.9V784.9H1626.2V803.6ZM1607.5 803.6H1626.2V784.9H1607.5V803.6ZM1588.8 803.6H1607.5V784.9H1588.8V803.6ZM1570.1 803.6H1588.8V784.9H1570.1V803.6ZM1046.7 803.6H1065.4V784.9H1046.7V803.6ZM1028 803.6H1046.7V784.9H1028V803.6ZM1009.3 803.6H1028V784.9H1009.3V803.6ZM990.7 803.6H1009.4V784.9H990.7V803.6ZM972 803.6H990.7V784.9H972V803.6ZM542.1 803.6H560.8V784.9H542.1V803.6ZM523.4 803.6H542.1V784.9H523.4V803.6ZM504.7 803.6H523.4V784.9H504.7V803.6ZM486 803.6H504.7V784.9H486V803.6ZM467.3 803.6H486V784.9H467.3V803.6ZM448.6 803.6H467.3V784.9H448.6V803.6ZM429.9 803.6H448.6V784.9H429.9V803.6ZM1794.4 784.9H1813.1V766.2H1794.4V784.9ZM1775.7 784.9H1794.4V766.2H1775.7V784.9ZM1757 784.9H1775.7V766.2H1757V784.9ZM1738.3 784.9H1757V766.2H1738.3V784.9ZM1719.6 784.9H1738.3V766.2H1719.6V784.9ZM1700.9 784.9H1719.6V766.2H1700.9V784.9ZM1682.3 784.9H1701V766.2H1682.3V784.9ZM1663.6 784.9H1682.3V766.2H1663.6V784.9ZM1644.9 784.9H1663.6V766.2H1644.9V784.9ZM1626.2 784.9H1644.9V766.2H1626.2V784.9ZM1607.5 784.9H1626.2V766.2H1607.5V784.9ZM1588.8 784.9H1607.5V766.2H1588.8V784.9ZM1570.1 784.9H1588.8V766.2H1570.1V784.9ZM1065.4 784.9H1084.1V766.2H1065.4V784.9ZM1046.7 784.9H1065.4V766.2H1046.7V784.9ZM1028 784.9H1046.7V766.2H1028V784.9ZM1009.3 784.9H1028V766.2H1009.3V784.9ZM990.7 784.9H1009.4V766.2H990.7V784.9ZM972 784.9H990.7V766.2H972V784.9ZM953.3 784.9H972V766.2H953.3V784.9ZM542.1 784.9H560.8V766.2H542.1V784.9ZM523.4 784.9H542.1V766.2H523.4V784.9ZM504.7 784.9H523.4V766.2H504.7V784.9ZM486 784.9H504.7V766.2H486V784.9ZM467.3 784.9H486V766.2H467.3V784.9ZM448.6 784.9H467.3V766.2H448.6V784.9ZM429.9 784.9H448.6V766.2H429.9V784.9ZM1813.1 766.2H1831.8V747.5H1813.1V766.2ZM1794.4 766.2H1813.1V747.5H1794.4V766.2ZM1775.7 766.2H1794.4V747.5H1775.7V766.2ZM1757 766.2H1775.7V747.5H1757V766.2ZM1738.3 766.2H1757V747.5H1738.3V766.2ZM1719.6 766.2H1738.3V747.5H1719.6V766.2ZM1700.9 766.2H1719.6V747.5H1700.9V766.2ZM1682.3 766.2H1701V747.5H1682.3V766.2ZM1663.6 766.2H1682.3V747.5H1663.6V766.2ZM1644.9 766.2H1663.6V747.5H1644.9V766.2ZM1626.2 766.2H1644.9V747.5H1626.2V766.2ZM1607.5 766.2H1626.2V747.5H1607.5V766.2ZM1588.8 766.2H1607.5V747.5H1588.8V766.2ZM1570.1 766.2H1588.8V747.5H1570.1V766.2ZM1140.2 766.2H1158.9V747.5H1140.2V766.2ZM1121.5 766.2H1140.2V747.5H1121.5V766.2ZM1065.4 766.2H1084.1V747.5H1065.4V766.2ZM1046.7 766.2H1065.4V747.5H1046.7V766.2ZM1028 766.2H1046.7V747.5H1028V766.2ZM1009.3 766.2H1028V747.5H1009.3V766.2ZM990.7 766.2H1009.4V747.5H990.7V766.2ZM972 766.2H990.7V747.5H972V766.2ZM953.3 766.2H972V747.5H953.3V766.2ZM579.4 766.2H598.1V747.5H579.4V766.2ZM560.8 766.2H579.5V747.5H560.8V766.2ZM542.1 766.2H560.8V747.5H542.1V766.2ZM523.4 766.2H542.1V747.5H523.4V766.2ZM504.7 766.2H523.4V747.5H504.7V766.2ZM486 766.2H504.7V747.5H486V766.2ZM467.3 766.2H486V747.5H467.3V766.2ZM448.6 766.2H467.3V747.5H448.6V766.2ZM429.9 766.2H448.6V747.5H429.9V766.2ZM1813.1 747.6H1831.8V728.9H1813.1V747.6ZM1794.4 747.6H1813.1V728.9H1794.4V747.6ZM1775.7 747.6H1794.4V728.9H1775.7V747.6ZM1757 747.6H1775.7V728.9H1757V747.6ZM1738.3 747.6H1757V728.9H1738.3V747.6ZM1719.6 747.6H1738.3V728.9H1719.6V747.6ZM1700.9 747.6H1719.6V728.9H1700.9V747.6ZM1682.3 747.6H1701V728.9H1682.3V747.6ZM1663.6 747.6H1682.3V728.9H1663.6V747.6ZM1644.9 747.6H1663.6V728.9H1644.9V747.6ZM1626.2 747.6H1644.9V728.9H1626.2V747.6ZM1607.5 747.6H1626.2V728.9H1607.5V747.6ZM1588.8 747.6H1607.5V728.9H1588.8V747.6ZM1570.1 747.6H1588.8V728.9H1570.1V747.6ZM1158.9 747.6H1177.6V728.9H1158.9V747.6ZM1140.2 747.6H1158.9V728.9H1140.2V747.6ZM1121.5 747.6H1140.2V728.9H1121.5V747.6ZM1065.4 747.6H1084.1V728.9H1065.4V747.6ZM1046.7 747.6H1065.4V728.9H1046.7V747.6ZM1028 747.6H1046.7V728.9H1028V747.6ZM1009.3 747.6H1028V728.9H1009.3V747.6ZM990.7 747.6H1009.4V728.9H990.7V747.6ZM972 747.6H990.7V728.9H972V747.6ZM953.3 747.6H972V728.9H953.3V747.6ZM598.1 747.6H616.8V728.9H598.1V747.6ZM579.4 747.6H598.1V728.9H579.4V747.6ZM560.8 747.6H579.5V728.9H560.8V747.6ZM542.1 747.6H560.8V728.9H542.1V747.6ZM523.4 747.6H542.1V728.9H523.4V747.6ZM504.7 747.6H523.4V728.9H504.7V747.6ZM486 747.6H504.7V728.9H486V747.6ZM467.3 747.6H486V728.9H467.3V747.6ZM448.6 747.6H467.3V728.9H448.6V747.6ZM429.9 747.6H448.6V728.9H429.9V747.6ZM1794.4 728.9H1813.1V710.2H1794.4V728.9ZM1775.7 728.9H1794.4V710.2H1775.7V728.9ZM1757 728.9H1775.7V710.2H1757V728.9ZM1738.3 728.9H1757V710.2H1738.3V728.9ZM1719.6 728.9H1738.3V710.2H1719.6V728.9ZM1700.9 728.9H1719.6V710.2H1700.9V728.9ZM1682.3 728.9H1701V710.2H1682.3V728.9ZM1663.6 728.9H1682.3V710.2H1663.6V728.9ZM1644.9 728.9H1663.6V710.2H1644.9V728.9ZM1626.2 728.9H1644.9V710.2H1626.2V728.9ZM1607.5 728.9H1626.2V710.2H1607.5V728.9ZM1588.8 728.9H1607.5V710.2H1588.8V728.9ZM1158.9 728.9H1177.6V710.2H1158.9V728.9ZM1140.2 728.9H1158.9V710.2H1140.2V728.9ZM1084.1 728.9H1102.8V710.2H1084.1V728.9ZM1065.4 728.9H1084.1V710.2H1065.4V728.9ZM1046.7 728.9H1065.4V710.2H1046.7V728.9ZM1028 728.9H1046.7V710.2H1028V728.9ZM1009.3 728.9H1028V710.2H1009.3V728.9ZM990.7 728.9H1009.4V710.2H990.7V728.9ZM972 728.9H990.7V710.2H972V728.9ZM953.3 728.9H972V710.2H953.3V728.9ZM934.6 728.9H953.3V710.2H934.6V728.9ZM598.1 728.9H616.8V710.2H598.1V728.9ZM579.4 728.9H598.1V710.2H579.4V728.9ZM560.8 728.9H579.5V710.2H560.8V728.9ZM542.1 728.9H560.8V710.2H542.1V728.9ZM523.4 728.9H542.1V710.2H523.4V728.9ZM504.7 728.9H523.4V710.2H504.7V728.9ZM486 728.9H504.7V710.2H486V728.9ZM467.3 728.9H486V710.2H467.3V728.9ZM448.6 728.9H467.3V710.2H448.6V728.9ZM429.9 728.9H448.6V710.2H429.9V728.9ZM411.2 728.9H429.9V710.2H411.2V728.9ZM1775.7 710.2H1794.4V691.5H1775.7V710.2ZM1757 710.2H1775.7V691.5H1757V710.2ZM1738.3 710.2H1757V691.5H1738.3V710.2ZM1719.6 710.2H1738.3V691.5H1719.6V710.2ZM1700.9 710.2H1719.6V691.5H1700.9V710.2ZM1682.3 710.2H1701V691.5H1682.3V710.2ZM1663.6 710.2H1682.3V691.5H1663.6V710.2ZM1644.9 710.2H1663.6V691.5H1644.9V710.2ZM1626.2 710.2H1644.9V691.5H1626.2V710.2ZM1158.9 710.2H1177.6V691.5H1158.9V710.2ZM1140.2 710.2H1158.9V691.5H1140.2V710.2ZM1102.8 710.2H1121.5V691.5H1102.8V710.2ZM1084.1 710.2H1102.8V691.5H1084.1V710.2ZM1065.4 710.2H1084.1V691.5H1065.4V710.2ZM1046.7 710.2H1065.4V691.5H1046.7V710.2ZM1028 710.2H1046.7V691.5H1028V710.2ZM1009.3 710.2H1028V691.5H1009.3V710.2ZM990.7 710.2H1009.4V691.5H990.7V710.2ZM972 710.2H990.7V691.5H972V710.2ZM953.3 710.2H972V691.5H953.3V710.2ZM934.6 710.2H953.3V691.5H934.6V710.2ZM598.1 710.2H616.8V691.5H598.1V710.2ZM579.4 710.2H598.1V691.5H579.4V710.2ZM560.8 710.2H579.5V691.5H560.8V710.2ZM542.1 710.2H560.8V691.5H542.1V710.2ZM523.4 710.2H542.1V691.5H523.4V710.2ZM504.7 710.2H523.4V691.5H504.7V710.2ZM486 710.2H504.7V691.5H486V710.2ZM467.3 710.2H486V691.5H467.3V710.2ZM448.6 710.2H467.3V691.5H448.6V710.2ZM429.9 710.2H448.6V691.5H429.9V710.2ZM411.2 710.2H429.9V691.5H411.2V710.2ZM392.5 710.2H411.2V691.5H392.5V710.2ZM373.8 710.2H392.5V691.5H373.8V710.2ZM1775.7 691.5H1794.4V672.8H1775.7V691.5ZM1757 691.5H1775.7V672.8H1757V691.5ZM1738.3 691.5H1757V672.8H1738.3V691.5ZM1719.6 691.5H1738.3V672.8H1719.6V691.5ZM1700.9 691.5H1719.6V672.8H1700.9V691.5ZM1682.3 691.5H1701V672.8H1682.3V691.5ZM1663.6 691.5H1682.3V672.8H1663.6V691.5ZM1644.9 691.5H1663.6V672.8H1644.9V691.5ZM1626.2 691.5H1644.9V672.8H1626.2V691.5ZM1158.9 691.5H1177.6V672.8H1158.9V691.5ZM1102.8 691.5H1121.5V672.8H1102.8V691.5ZM1084.1 691.5H1102.8V672.8H1084.1V691.5ZM1065.4 691.5H1084.1V672.8H1065.4V691.5ZM1046.7 691.5H1065.4V672.8H1046.7V691.5ZM1028 691.5H1046.7V672.8H1028V691.5ZM1009.3 691.5H1028V672.8H1009.3V691.5ZM990.7 691.5H1009.4V672.8H990.7V691.5ZM972 691.5H990.7V672.8H972V691.5ZM953.3 691.5H972V672.8H953.3V691.5ZM934.6 691.5H953.3V672.8H934.6V691.5ZM598.1 691.5H616.8V672.8H598.1V691.5ZM579.4 691.5H598.1V672.8H579.4V691.5ZM560.8 691.5H579.5V672.8H560.8V691.5ZM542.1 691.5H560.8V672.8H542.1V691.5ZM523.4 691.5H542.1V672.8H523.4V691.5ZM504.7 691.5H523.4V672.8H504.7V691.5ZM486 691.5H504.7V672.8H486V691.5ZM467.3 691.5H486V672.8H467.3V691.5ZM448.6 691.5H467.3V672.8H448.6V691.5ZM429.9 691.5H448.6V672.8H429.9V691.5ZM411.2 691.5H429.9V672.8H411.2V691.5ZM392.5 691.5H411.2V672.8H392.5V691.5ZM373.8 691.5H392.5V672.8H373.8V691.5ZM1757 672.8H1775.7V654.1H1757V672.8ZM1719.6 672.8H1738.3V654.1H1719.6V672.8ZM1700.9 672.8H1719.6V654.1H1700.9V672.8ZM1682.3 672.8H1701V654.1H1682.3V672.8ZM1663.6 672.8H1682.3V654.1H1663.6V672.8ZM1158.9 672.8H1177.6V654.1H1158.9V672.8ZM1102.8 672.8H1121.5V654.1H1102.8V672.8ZM1084.1 672.8H1102.8V654.1H1084.1V672.8ZM1065.4 672.8H1084.1V654.1H1065.4V672.8ZM1046.7 672.8H1065.4V654.1H1046.7V672.8ZM1028 672.8H1046.7V654.1H1028V672.8ZM1009.3 672.8H1028V654.1H1009.3V672.8ZM990.7 672.8H1009.4V654.1H990.7V672.8ZM972 672.8H990.7V654.1H972V672.8ZM953.3 672.8H972V654.1H953.3V672.8ZM616.8 672.8H635.5V654.1H616.8V672.8ZM598.1 672.8H616.8V654.1H598.1V672.8ZM579.4 672.8H598.1V654.1H579.4V672.8ZM560.8 672.8H579.5V654.1H560.8V672.8ZM542.1 672.8H560.8V654.1H542.1V672.8ZM523.4 672.8H542.1V654.1H523.4V672.8ZM504.7 672.8H523.4V654.1H504.7V672.8ZM486 672.8H504.7V654.1H486V672.8ZM467.3 672.8H486V654.1H467.3V672.8ZM448.6 672.8H467.3V654.1H448.6V672.8ZM429.9 672.8H448.6V654.1H429.9V672.8ZM411.2 672.8H429.9V654.1H411.2V672.8ZM392.5 672.8H411.2V654.1H392.5V672.8ZM373.8 672.8H392.5V654.1H373.8V672.8ZM355.1 672.8H373.8V654.1H355.1V672.8ZM1813.1 654.1H1831.8V635.4H1813.1V654.1ZM1757 654.1H1775.7V635.4H1757V654.1ZM1700.9 654.1H1719.6V635.4H1700.9V654.1ZM1644.9 654.1H1663.6V635.4H1644.9V654.1ZM1102.8 654.1H1121.5V635.4H1102.8V654.1ZM1084.1 654.1H1102.8V635.4H1084.1V654.1ZM1065.4 654.1H1084.1V635.4H1065.4V654.1ZM1046.7 654.1H1065.4V635.4H1046.7V654.1ZM1028 654.1H1046.7V635.4H1028V654.1ZM1009.3 654.1H1028V635.4H1009.3V654.1ZM990.7 654.1H1009.4V635.4H990.7V654.1ZM972 654.1H990.7V635.4H972V654.1ZM953.3 654.1H972V635.4H953.3V654.1ZM635.5 654.1H654.2V635.4H635.5V654.1ZM616.8 654.1H635.5V635.4H616.8V654.1ZM598.1 654.1H616.8V635.4H598.1V654.1ZM579.4 654.1H598.1V635.4H579.4V654.1ZM560.8 654.1H579.5V635.4H560.8V654.1ZM542.1 654.1H560.8V635.4H542.1V654.1ZM523.4 654.1H542.1V635.4H523.4V654.1ZM504.7 654.1H523.4V635.4H504.7V654.1ZM486 654.1H504.7V635.4H486V654.1ZM467.3 654.1H486V635.4H467.3V654.1ZM448.6 654.1H467.3V635.4H448.6V654.1ZM429.9 654.1H448.6V635.4H429.9V654.1ZM411.2 654.1H429.9V635.4H411.2V654.1ZM392.5 654.1H411.2V635.4H392.5V654.1ZM373.8 654.1H392.5V635.4H373.8V654.1ZM355.1 654.1H373.8V635.4H355.1V654.1ZM1794.4 635.4H1813.1V616.7H1794.4V635.4ZM1775.7 635.4H1794.4V616.7H1775.7V635.4ZM1757 635.4H1775.7V616.7H1757V635.4ZM1738.3 635.4H1757V616.7H1738.3V635.4ZM1570.1 635.4H1588.8V616.7H1570.1V635.4ZM1551.4 635.4H1570.1V616.7H1551.4V635.4ZM1102.8 635.4H1121.5V616.7H1102.8V635.4ZM1084.1 635.4H1102.8V616.7H1084.1V635.4ZM1065.4 635.4H1084.1V616.7H1065.4V635.4ZM1046.7 635.4H1065.4V616.7H1046.7V635.4ZM1028 635.4H1046.7V616.7H1028V635.4ZM1009.3 635.4H1028V616.7H1009.3V635.4ZM990.7 635.4H1009.4V616.7H990.7V635.4ZM972 635.4H990.7V616.7H972V635.4ZM953.3 635.4H972V616.7H953.3V635.4ZM934.6 635.4H953.3V616.7H934.6V635.4ZM616.8 635.4H635.5V616.7H616.8V635.4ZM598.1 635.4H616.8V616.7H598.1V635.4ZM579.4 635.4H598.1V616.7H579.4V635.4ZM560.8 635.4H579.5V616.7H560.8V635.4ZM542.1 635.4H560.8V616.7H542.1V635.4ZM523.4 635.4H542.1V616.7H523.4V635.4ZM504.7 635.4H523.4V616.7H504.7V635.4ZM486 635.4H504.7V616.7H486V635.4ZM467.3 635.4H486V616.7H467.3V635.4ZM448.6 635.4H467.3V616.7H448.6V635.4ZM429.9 635.4H448.6V616.7H429.9V635.4ZM411.2 635.4H429.9V616.7H411.2V635.4ZM392.5 635.4H411.2V616.7H392.5V635.4ZM373.8 635.4H392.5V616.7H373.8V635.4ZM355.1 635.4H373.8V616.7H355.1V635.4ZM336.5 635.4H355.2V616.7H336.5V635.4ZM1813.1 616.7H1831.8V598H1813.1V616.7ZM1794.4 616.7H1813.1V598H1794.4V616.7ZM1775.7 616.7H1794.4V598H1775.7V616.7ZM1757 616.7H1775.7V598H1757V616.7ZM1738.3 616.7H1757V598H1738.3V616.7ZM1626.2 616.7H1644.9V598H1626.2V616.7ZM1532.7 616.7H1551.4V598H1532.7V616.7ZM1102.8 616.7H1121.5V598H1102.8V616.7ZM1084.1 616.7H1102.8V598H1084.1V616.7ZM1065.4 616.7H1084.1V598H1065.4V616.7ZM1046.7 616.7H1065.4V598H1046.7V616.7ZM1028 616.7H1046.7V598H1028V616.7ZM1009.3 616.7H1028V598H1009.3V616.7ZM990.7 616.7H1009.4V598H990.7V616.7ZM972 616.7H990.7V598H972V616.7ZM953.3 616.7H972V598H953.3V616.7ZM934.6 616.7H953.3V598H934.6V616.7ZM915.9 616.7H934.6V598H915.9V616.7ZM616.8 616.7H635.5V598H616.8V616.7ZM598.1 616.7H616.8V598H598.1V616.7ZM579.4 616.7H598.1V598H579.4V616.7ZM560.8 616.7H579.5V598H560.8V616.7ZM542.1 616.7H560.8V598H542.1V616.7ZM523.4 616.7H542.1V598H523.4V616.7ZM504.7 616.7H523.4V598H504.7V616.7ZM486 616.7H504.7V598H486V616.7ZM467.3 616.7H486V598H467.3V616.7ZM448.6 616.7H467.3V598H448.6V616.7ZM429.9 616.7H448.6V598H429.9V616.7ZM411.2 616.7H429.9V598H411.2V616.7ZM392.5 616.7H411.2V598H392.5V616.7ZM373.8 616.7H392.5V598H373.8V616.7ZM355.1 616.7H373.8V598H355.1V616.7ZM336.5 616.7H355.2V598H336.5V616.7ZM1775.7 598H1794.4V579.3H1775.7V598ZM1757 598H1775.7V579.3H1757V598ZM1738.3 598H1757V579.3H1738.3V598ZM1719.6 598H1738.3V579.3H1719.6V598ZM1700.9 598H1719.6V579.3H1700.9V598ZM1626.2 598H1644.9V579.3H1626.2V598ZM1588.8 598H1607.5V579.3H1588.8V598ZM1570.1 598H1588.8V579.3H1570.1V598ZM1532.7 598H1551.4V579.3H1532.7V598ZM1514 598H1532.7V579.3H1514V598ZM1495.3 598H1514V579.3H1495.3V598ZM1121.5 598H1140.2V579.3H1121.5V598ZM1102.8 598H1121.5V579.3H1102.8V598ZM1084.1 598H1102.8V579.3H1084.1V598ZM1065.4 598H1084.1V579.3H1065.4V598ZM1046.7 598H1065.4V579.3H1046.7V598ZM1028 598H1046.7V579.3H1028V598ZM1009.3 598H1028V579.3H1009.3V598ZM990.7 598H1009.4V579.3H990.7V598ZM972 598H990.7V579.3H972V598ZM953.3 598H972V579.3H953.3V598ZM934.6 598H953.3V579.3H934.6V598ZM915.9 598H934.6V579.3H915.9V598ZM560.8 598H579.5V579.3H560.8V598ZM542.1 598H560.8V579.3H542.1V598ZM523.4 598H542.1V579.3H523.4V598ZM504.7 598H523.4V579.3H504.7V598ZM486 598H504.7V579.3H486V598ZM467.3 598H486V579.3H467.3V598ZM448.6 598H467.3V579.3H448.6V598ZM429.9 598H448.6V579.3H429.9V598ZM411.2 598H429.9V579.3H411.2V598ZM392.5 598H411.2V579.3H392.5V598ZM373.8 598H392.5V579.3H373.8V598ZM355.1 598H373.8V579.3H355.1V598ZM336.5 598H355.2V579.3H336.5V598ZM1700.9 579.4H1719.6V560.7H1700.9V579.4ZM1626.2 579.4H1644.9V560.7H1626.2V579.4ZM1607.5 579.4H1626.2V560.7H1607.5V579.4ZM1588.8 579.4H1607.5V560.7H1588.8V579.4ZM1570.1 579.4H1588.8V560.7H1570.1V579.4ZM1551.4 579.4H1570.1V560.7H1551.4V579.4ZM1514 579.4H1532.7V560.7H1514V579.4ZM1495.3 579.4H1514V560.7H1495.3V579.4ZM1140.2 579.4H1158.9V560.7H1140.2V579.4ZM1121.5 579.4H1140.2V560.7H1121.5V579.4ZM1102.8 579.4H1121.5V560.7H1102.8V579.4ZM1084.1 579.4H1102.8V560.7H1084.1V579.4ZM1065.4 579.4H1084.1V560.7H1065.4V579.4ZM1046.7 579.4H1065.4V560.7H1046.7V579.4ZM1028 579.4H1046.7V560.7H1028V579.4ZM1009.3 579.4H1028V560.7H1009.3V579.4ZM990.7 579.4H1009.4V560.7H990.7V579.4ZM972 579.4H990.7V560.7H972V579.4ZM953.3 579.4H972V560.7H953.3V579.4ZM934.6 579.4H953.3V560.7H934.6V579.4ZM915.9 579.4H934.6V560.7H915.9V579.4ZM523.4 579.4H542.1V560.7H523.4V579.4ZM504.7 579.4H523.4V560.7H504.7V579.4ZM486 579.4H504.7V560.7H486V579.4ZM467.3 579.4H486V560.7H467.3V579.4ZM448.6 579.4H467.3V560.7H448.6V579.4ZM429.9 579.4H448.6V560.7H429.9V579.4ZM411.2 579.4H429.9V560.7H411.2V579.4ZM392.5 579.4H411.2V560.7H392.5V579.4ZM373.8 579.4H392.5V560.7H373.8V579.4ZM355.1 579.4H373.8V560.7H355.1V579.4ZM1607.5 560.7H1626.2V542H1607.5V560.7ZM1588.8 560.7H1607.5V542H1588.8V560.7ZM1570.1 560.7H1588.8V542H1570.1V560.7ZM1551.4 560.7H1570.1V542H1551.4V560.7ZM1514 560.7H1532.7V542H1514V560.7ZM1495.3 560.7H1514V542H1495.3V560.7ZM1476.6 560.7H1495.3V542H1476.6V560.7ZM1158.9 560.7H1177.6V542H1158.9V560.7ZM1140.2 560.7H1158.9V542H1140.2V560.7ZM1121.5 560.7H1140.2V542H1121.5V560.7ZM1102.8 560.7H1121.5V542H1102.8V560.7ZM1084.1 560.7H1102.8V542H1084.1V560.7ZM1065.4 560.7H1084.1V542H1065.4V560.7ZM1046.7 560.7H1065.4V542H1046.7V560.7ZM1028 560.7H1046.7V542H1028V560.7ZM1009.3 560.7H1028V542H1009.3V560.7ZM990.7 560.7H1009.4V542H990.7V560.7ZM972 560.7H990.7V542H972V560.7ZM953.3 560.7H972V542H953.3V560.7ZM934.6 560.7H953.3V542H934.6V560.7ZM915.9 560.7H934.6V542H915.9V560.7ZM897.2 560.7H915.9V542H897.2V560.7ZM841.1 560.7H859.8V542H841.1V560.7ZM803.7 560.7H822.4V542H803.7V560.7ZM504.7 560.7H523.4V542H504.7V560.7ZM486 560.7H504.7V542H486V560.7ZM467.3 560.7H486V542H467.3V560.7ZM448.6 560.7H467.3V542H448.6V560.7ZM429.9 560.7H448.6V542H429.9V560.7ZM411.2 560.7H429.9V542H411.2V560.7ZM392.5 560.7H411.2V542H392.5V560.7ZM373.8 560.7H392.5V542H373.8V560.7ZM355.1 560.7H373.8V542H355.1V560.7ZM1607.5 542H1626.2V523.3H1607.5V542ZM1588.8 542H1607.5V523.3H1588.8V542ZM1495.3 542H1514V523.3H1495.3V542ZM1476.6 542H1495.3V523.3H1476.6V542ZM1158.9 542H1177.6V523.3H1158.9V542ZM1140.2 542H1158.9V523.3H1140.2V542ZM1121.5 542H1140.2V523.3H1121.5V542ZM1102.8 542H1121.5V523.3H1102.8V542ZM1084.1 542H1102.8V523.3H1084.1V542ZM1065.4 542H1084.1V523.3H1065.4V542ZM1046.7 542H1065.4V523.3H1046.7V542ZM1028 542H1046.7V523.3H1028V542ZM1009.3 542H1028V523.3H1009.3V542ZM990.7 542H1009.4V523.3H990.7V542ZM972 542H990.7V523.3H972V542ZM953.3 542H972V523.3H953.3V542ZM934.6 542H953.3V523.3H934.6V542ZM915.9 542H934.6V523.3H915.9V542ZM897.2 542H915.9V523.3H897.2V542ZM878.5 542H897.2V523.3H878.5V542ZM859.8 542H878.5V523.3H859.8V542ZM841.1 542H859.8V523.3H841.1V542ZM822.4 542H841.1V523.3H822.4V542ZM803.7 542H822.4V523.3H803.7V542ZM785 542H803.7V523.3H785V542ZM766.4 542H785V523.3H766.3V542H766.4ZM486 542H504.7V523.3H486V542ZM467.3 542H486V523.3H467.3V542ZM448.6 542H467.3V523.3H448.6V542ZM429.9 542H448.6V523.3H429.9V542ZM411.2 542H429.9V523.3H411.2V542ZM392.5 542H411.2V523.3H392.5V542ZM373.8 542H392.5V523.3H373.8V542ZM355.1 542H373.8V523.3H355.1V542ZM336.5 542H355.2V523.3H336.5V542ZM317.8 542H336.5V523.3H317.8V542ZM1663.6 523.3H1682.3V504.6H1663.6V523.3ZM1644.9 523.3H1663.6V504.6H1644.9V523.3ZM1607.5 523.3H1626.2V504.6H1607.5V523.3ZM1588.8 523.3H1607.5V504.6H1588.8V523.3ZM1495.3 523.3H1514V504.6H1495.3V523.3ZM1476.6 523.3H1495.3V504.6H1476.6V523.3ZM1364.5 523.3H1383.2V504.6H1364.5V523.3ZM1345.8 523.3H1364.5V504.6H1345.8V523.3ZM1158.9 523.3H1177.6V504.6H1158.9V523.3ZM1140.2 523.3H1158.9V504.6H1140.2V523.3ZM1121.5 523.3H1140.2V504.6H1121.5V523.3ZM1102.8 523.3H1121.5V504.6H1102.8V523.3ZM1084.1 523.3H1102.8V504.6H1084.1V523.3ZM1065.4 523.3H1084.1V504.6H1065.4V523.3ZM1046.7 523.3H1065.4V504.6H1046.7V523.3ZM1028 523.3H1046.7V504.6H1028V523.3ZM1009.3 523.3H1028V504.6H1009.3V523.3ZM990.7 523.3H1009.4V504.6H990.7V523.3ZM972 523.3H990.7V504.6H972V523.3ZM953.3 523.3H972V504.6H953.3V523.3ZM934.6 523.3H953.3V504.6H934.6V523.3ZM915.9 523.3H934.6V504.6H915.9V523.3ZM897.2 523.3H915.9V504.6H897.2V523.3ZM878.5 523.3H897.2V504.6H878.5V523.3ZM859.8 523.3H878.5V504.6H859.8V523.3ZM841.1 523.3H859.8V504.6H841.1V523.3ZM822.4 523.3H841.1V504.6H822.4V523.3ZM803.7 523.3H822.4V504.6H803.7V523.3ZM785 523.3H803.7V504.6H785V523.3ZM766.4 523.3H785V504.6H766.3V523.3H766.4ZM448.6 523.3H467.3V504.6H448.6V523.3ZM429.9 523.3H448.6V504.6H429.9V523.3ZM411.2 523.3H429.9V504.6H411.2V523.3ZM392.5 523.3H411.2V504.6H392.5V523.3ZM373.8 523.3H392.5V504.6H373.8V523.3ZM317.8 523.3H336.5V504.6H317.8V523.3ZM299.1 523.3H317.8V504.6H299.1V523.3ZM1644.9 504.6H1663.6V485.9H1644.9V504.6ZM1607.5 504.6H1626.2V485.9H1607.5V504.6ZM1532.7 504.6H1551.4V485.9H1532.7V504.6ZM1514 504.6H1532.7V485.9H1514V504.6ZM1476.6 504.6H1495.3V485.9H1476.6V504.6ZM1345.8 504.6H1364.5V485.9H1345.8V504.6ZM1177.6 504.6H1196.3V485.9H1177.6V504.6ZM1158.9 504.6H1177.6V485.9H1158.9V504.6ZM1140.2 504.6H1158.9V485.9H1140.2V504.6ZM1121.5 504.6H1140.2V485.9H1121.5V504.6ZM1102.8 504.6H1121.5V485.9H1102.8V504.6ZM1084.1 504.6H1102.8V485.9H1084.1V504.6ZM1065.4 504.6H1084.1V485.9H1065.4V504.6ZM1046.7 504.6H1065.4V485.9H1046.7V504.6ZM1028 504.6H1046.7V485.9H1028V504.6ZM1009.3 504.6H1028V485.9H1009.3V504.6ZM990.7 504.6H1009.4V485.9H990.7V504.6ZM972 504.6H990.7V485.9H972V504.6ZM953.3 504.6H972V485.9H953.3V504.6ZM934.6 504.6H953.3V485.9H934.6V504.6ZM915.9 504.6H934.6V485.9H915.9V504.6ZM897.2 504.6H915.9V485.9H897.2V504.6ZM878.5 504.6H897.2V485.9H878.5V504.6ZM859.8 504.6H878.5V485.9H859.8V504.6ZM841.1 504.6H859.8V485.9H841.1V504.6ZM822.4 504.6H841.1V485.9H822.4V504.6ZM803.7 504.6H822.4V485.9H803.7V504.6ZM785 504.6H803.7V485.9H785V504.6ZM766.4 504.6H785V485.9H766.3V504.6H766.4ZM747.7 504.6H766.4V485.9H747.7V504.6ZM392.5 504.6H411.2V485.9H392.5V504.6ZM317.8 504.6H336.5V485.9H317.8V504.6ZM299.1 504.6H317.8V485.9H299.1V504.6ZM280.4 504.6H299.1V485.9H280.4V504.6ZM1644.9 485.9H1663.6V467.2H1644.9V485.9ZM1626.2 485.9H1644.9V467.2H1626.2V485.9ZM1551.4 485.9H1570.1V467.2H1551.4V485.9ZM1532.7 485.9H1551.4V467.2H1532.7V485.9ZM1514 485.9H1532.7V467.2H1514V485.9ZM1495.3 485.9H1514V467.2H1495.3V485.9ZM1476.6 485.9H1495.3V467.2H1476.6V485.9ZM1345.8 485.9H1364.5V467.2H1345.8V485.9ZM1327.1 485.9H1345.8V467.2H1327.1V485.9ZM1158.9 485.9H1177.6V467.2H1158.9V485.9ZM1140.2 485.9H1158.9V467.2H1140.2V485.9ZM1121.5 485.9H1140.2V467.2H1121.5V485.9ZM1102.8 485.9H1121.5V467.2H1102.8V485.9ZM1084.1 485.9H1102.8V467.2H1084.1V485.9ZM1065.4 485.9H1084.1V467.2H1065.4V485.9ZM1046.7 485.9H1065.4V467.2H1046.7V485.9ZM1028 485.9H1046.7V467.2H1028V485.9ZM1009.3 485.9H1028V467.2H1009.3V485.9ZM990.7 485.9H1009.4V467.2H990.7V485.9ZM972 485.9H990.7V467.2H972V485.9ZM953.3 485.9H972V467.2H953.3V485.9ZM934.6 485.9H953.3V467.2H934.6V485.9ZM915.9 485.9H934.6V467.2H915.9V485.9ZM897.2 485.9H915.9V467.2H897.2V485.9ZM878.5 485.9H897.2V467.2H878.5V485.9ZM859.8 485.9H878.5V467.2H859.8V485.9ZM841.1 485.9H859.8V467.2H841.1V485.9ZM822.4 485.9H841.1V467.2H822.4V485.9ZM803.7 485.9H822.4V467.2H803.7V485.9ZM785 485.9H803.7V467.2H785V485.9ZM766.4 485.9H785V467.2H766.3V485.9H766.4ZM747.7 485.9H766.4V467.2H747.7V485.9ZM317.8 485.9H336.5V467.2H317.8V485.9ZM299.1 485.9H317.8V467.2H299.1V485.9ZM280.4 485.9H299.1V467.2H280.4V485.9ZM261.7 485.9H280.4V467.2H261.7V485.9ZM243 485.9H261.7V467.2H243V485.9ZM1626.2 467.2H1644.9V448.5H1626.2V467.2ZM1532.7 467.2H1551.4V448.5H1532.7V467.2ZM1514 467.2H1532.7V448.5H1514V467.2ZM1495.3 467.2H1514V448.5H1495.3V467.2ZM1476.6 467.2H1495.3V448.5H1476.6V467.2ZM1457.9 467.2H1476.6V448.5H1457.9V467.2ZM1364.5 467.2H1383.2V448.5H1364.5V467.2ZM1345.8 467.2H1364.5V448.5H1345.8V467.2ZM1327.1 467.2H1345.8V448.5H1327.1V467.2ZM1196.3 467.2H1215V448.5H1196.3V467.2ZM1177.6 467.2H1196.3V448.5H1177.6V467.2ZM1158.9 467.2H1177.6V448.5H1158.9V467.2ZM1140.2 467.2H1158.9V448.5H1140.2V467.2ZM1121.5 467.2H1140.2V448.5H1121.5V467.2ZM1102.8 467.2H1121.5V448.5H1102.8V467.2ZM1084.1 467.2H1102.8V448.5H1084.1V467.2ZM1065.4 467.2H1084.1V448.5H1065.4V467.2ZM1046.7 467.2H1065.4V448.5H1046.7V467.2ZM1028 467.2H1046.7V448.5H1028V467.2ZM1009.3 467.2H1028V448.5H1009.3V467.2ZM990.7 467.2H1009.4V448.5H990.7V467.2ZM972 467.2H990.7V448.5H972V467.2ZM953.3 467.2H972V448.5H953.3V467.2ZM934.6 467.2H953.3V448.5H934.6V467.2ZM915.9 467.2H934.6V448.5H915.9V467.2ZM897.2 467.2H915.9V448.5H897.2V467.2ZM878.5 467.2H897.2V448.5H878.5V467.2ZM859.8 467.2H878.5V448.5H859.8V467.2ZM841.1 467.2H859.8V448.5H841.1V467.2ZM822.4 467.2H841.1V448.5H822.4V467.2ZM803.7 467.2H822.4V448.5H803.7V467.2ZM785 467.2H803.7V448.5H785V467.2ZM766.4 467.2H785V448.5H766.3V467.2H766.4ZM747.7 467.2H766.4V448.5H747.7V467.2ZM411.2 467.2H429.9V448.5H411.2V467.2ZM392.5 467.2H411.2V448.5H392.5V467.2ZM280.4 467.2H299.1V448.5H280.4V467.2ZM261.7 467.2H280.4V448.5H261.7V467.2ZM243 467.2H261.7V448.5H243V467.2ZM224.3 467.2H243V448.5H224.3V467.2ZM205.6 467.2H224.3V448.5H205.6V467.2ZM1626.2 448.5H1644.9V429.8H1626.2V448.5ZM1532.7 448.5H1551.4V429.8H1532.7V448.5ZM1514 448.5H1532.7V429.8H1514V448.5ZM1495.3 448.5H1514V429.8H1495.3V448.5ZM1476.6 448.5H1495.3V429.8H1476.6V448.5ZM1457.9 448.5H1476.6V429.8H1457.9V448.5ZM1439.3 448.5H1458V429.8H1439.3V448.5ZM1383.2 448.5H1401.9V429.8H1383.2V448.5ZM1364.5 448.5H1383.2V429.8H1364.5V448.5ZM1345.8 448.5H1364.5V429.8H1345.8V448.5ZM1327.1 448.5H1345.8V429.8H1327.1V448.5ZM1308.4 448.5H1327.1V429.8H1308.4V448.5ZM1215 448.5H1233.7V429.8H1215V448.5ZM1196.3 448.5H1215V429.8H1196.3V448.5ZM1177.6 448.5H1196.3V429.8H1177.6V448.5ZM1158.9 448.5H1177.6V429.8H1158.9V448.5ZM1140.2 448.5H1158.9V429.8H1140.2V448.5ZM1121.5 448.5H1140.2V429.8H1121.5V448.5ZM1084.1 448.5H1102.8V429.8H1084.1V448.5ZM1065.4 448.5H1084.1V429.8H1065.4V448.5ZM1046.7 448.5H1065.4V429.8H1046.7V448.5ZM1028 448.5H1046.7V429.8H1028V448.5ZM1009.3 448.5H1028V429.8H1009.3V448.5ZM990.7 448.5H1009.4V429.8H990.7V448.5ZM972 448.5H990.7V429.8H972V448.5ZM953.3 448.5H972V429.8H953.3V448.5ZM934.6 448.5H953.3V429.8H934.6V448.5ZM915.9 448.5H934.6V429.8H915.9V448.5ZM897.2 448.5H915.9V429.8H897.2V448.5ZM878.5 448.5H897.2V429.8H878.5V448.5ZM859.8 448.5H878.5V429.8H859.8V448.5ZM841.1 448.5H859.8V429.8H841.1V448.5ZM822.4 448.5H841.1V429.8H822.4V448.5ZM803.7 448.5H822.4V429.8H803.7V448.5ZM785 448.5H803.7V429.8H785V448.5ZM766.4 448.5H785V429.8H766.3V448.5H766.4ZM747.7 448.5H766.4V429.8H747.7V448.5ZM373.8 448.5H392.5V429.8H373.8V448.5ZM355.1 448.5H373.8V429.8H355.1V448.5ZM299.1 448.5H317.8V429.8H299.1V448.5ZM280.4 448.5H299.1V429.8H280.4V448.5ZM224.3 448.5H243V429.8H224.3V448.5ZM205.6 448.5H224.3V429.8H205.6V448.5ZM186.9 448.5H205.6V429.8H186.9V448.5ZM1551.4 429.8H1570.1V411.1H1551.4V429.8ZM1532.7 429.8H1551.4V411.1H1532.7V429.8ZM1514 429.8H1532.7V411.1H1514V429.8ZM1495.3 429.8H1514V411.1H1495.3V429.8ZM1476.6 429.8H1495.3V411.1H1476.6V429.8ZM1457.9 429.8H1476.6V411.1H1457.9V429.8ZM1439.3 429.8H1458V411.1H1439.3V429.8ZM1401.9 429.8H1420.6V411.1H1401.9V429.8ZM1383.2 429.8H1401.9V411.1H1383.2V429.8ZM1364.5 429.8H1383.2V411.1H1364.5V429.8ZM1345.8 429.8H1364.5V411.1H1345.8V429.8ZM1327.1 429.8H1345.8V411.1H1327.1V429.8ZM1308.4 429.8H1327.1V411.1H1308.4V429.8ZM1289.7 429.8H1308.4V411.1H1289.7V429.8ZM1215 429.8H1233.7V411.1H1215V429.8ZM1196.3 429.8H1215V411.1H1196.3V429.8ZM1177.6 429.8H1196.3V411.1H1177.6V429.8ZM1158.9 429.8H1177.6V411.1H1158.9V429.8ZM1140.2 429.8H1158.9V411.1H1140.2V429.8ZM1121.5 429.8H1140.2V411.1H1121.5V429.8ZM1102.8 429.8H1121.5V411.1H1102.8V429.8ZM1084.1 429.8H1102.8V411.1H1084.1V429.8ZM1065.4 429.8H1084.1V411.1H1065.4V429.8ZM1046.7 429.8H1065.4V411.1H1046.7V429.8ZM1028 429.8H1046.7V411.1H1028V429.8ZM1009.3 429.8H1028V411.1H1009.3V429.8ZM990.7 429.8H1009.4V411.1H990.7V429.8ZM972 429.8H990.7V411.1H972V429.8ZM953.3 429.8H972V411.1H953.3V429.8ZM934.6 429.8H953.3V411.1H934.6V429.8ZM915.9 429.8H934.6V411.1H915.9V429.8ZM897.2 429.8H915.9V411.1H897.2V429.8ZM878.5 429.8H897.2V411.1H878.5V429.8ZM859.8 429.8H878.5V411.1H859.8V429.8ZM841.1 429.8H859.8V411.1H841.1V429.8ZM822.4 429.8H841.1V411.1H822.4V429.8ZM803.7 429.8H822.4V411.1H803.7V429.8ZM785 429.8H803.7V411.1H785V429.8ZM766.4 429.8H785V411.1H766.3V429.8H766.4ZM747.7 429.8H766.4V411.1H747.7V429.8ZM336.5 429.8H355.2V411.1H336.5V429.8ZM224.3 429.8H243V411.1H224.3V429.8ZM205.6 429.8H224.3V411.1H205.6V429.8ZM186.9 429.8H205.6V411.1H186.9V429.8ZM168.2 429.8H186.9V411.1H168.2V429.8ZM1607.5 411.2H1626.2V392.5H1607.5V411.2ZM1570.1 411.2H1588.8V392.5H1570.1V411.2ZM1551.4 411.2H1570.1V392.5H1551.4V411.2ZM1532.7 411.2H1551.4V392.5H1532.7V411.2ZM1514 411.2H1532.7V392.5H1514V411.2ZM1495.3 411.2H1514V392.5H1495.3V411.2ZM1476.6 411.2H1495.3V392.5H1476.6V411.2ZM1457.9 411.2H1476.6V392.5H1457.9V411.2ZM1439.3 411.2H1458V392.5H1439.3V411.2ZM1420.6 411.2H1439.3V392.5H1420.6V411.2ZM1401.9 411.2H1420.6V392.5H1401.9V411.2ZM1383.2 411.2H1401.9V392.5H1383.2V411.2ZM1364.5 411.2H1383.2V392.5H1364.5V411.2ZM1345.8 411.2H1364.5V392.5H1345.8V411.2ZM1327.1 411.2H1345.8V392.5H1327.1V411.2ZM1308.4 411.2H1327.1V392.5H1308.4V411.2ZM1289.7 411.2H1308.4V392.5H1289.7V411.2ZM1215 411.2H1233.7V392.5H1215V411.2ZM1196.3 411.2H1215V392.5H1196.3V411.2ZM1177.6 411.2H1196.3V392.5H1177.6V411.2ZM1158.9 411.2H1177.6V392.5H1158.9V411.2ZM1140.2 411.2H1158.9V392.5H1140.2V411.2ZM1121.5 411.2H1140.2V392.5H1121.5V411.2ZM1102.8 411.2H1121.5V392.5H1102.8V411.2ZM1084.1 411.2H1102.8V392.5H1084.1V411.2ZM1065.4 411.2H1084.1V392.5H1065.4V411.2ZM1046.7 411.2H1065.4V392.5H1046.7V411.2ZM1028 411.2H1046.7V392.5H1028V411.2ZM1009.3 411.2H1028V392.5H1009.3V411.2ZM990.7 411.2H1009.4V392.5H990.7V411.2ZM972 411.2H990.7V392.5H972V411.2ZM953.3 411.2H972V392.5H953.3V411.2ZM934.6 411.2H953.3V392.5H934.6V411.2ZM915.9 411.2H934.6V392.5H915.9V411.2ZM897.2 411.2H915.9V392.5H897.2V411.2ZM878.5 411.2H897.2V392.5H878.5V411.2ZM859.8 411.2H878.5V392.5H859.8V411.2ZM841.1 411.2H859.8V392.5H841.1V411.2ZM822.4 411.2H841.1V392.5H822.4V411.2ZM803.7 411.2H822.4V392.5H803.7V411.2ZM785 411.2H803.7V392.5H785V411.2ZM766.4 411.2H785V392.5H766.3V411.2H766.4ZM747.7 411.2H766.4V392.5H747.7V411.2ZM355.1 411.2H373.8V392.5H355.1V411.2ZM243 411.2H261.7V392.5H243V411.2ZM224.3 411.2H243V392.5H224.3V411.2ZM205.6 411.2H224.3V392.5H205.6V411.2ZM186.9 411.2H205.6V392.5H186.9V411.2ZM168.2 411.2H186.9V392.5H168.2V411.2ZM149.5 411.2H168.2V392.5H149.5V411.2ZM1607.5 392.5H1626.2V373.8H1607.5V392.5ZM1588.8 392.5H1607.5V373.8H1588.8V392.5ZM1570.1 392.5H1588.8V373.8H1570.1V392.5ZM1551.4 392.5H1570.1V373.8H1551.4V392.5ZM1532.7 392.5H1551.4V373.8H1532.7V392.5ZM1514 392.5H1532.7V373.8H1514V392.5ZM1495.3 392.5H1514V373.8H1495.3V392.5ZM1476.6 392.5H1495.3V373.8H1476.6V392.5ZM1457.9 392.5H1476.6V373.8H1457.9V392.5ZM1439.3 392.5H1458V373.8H1439.3V392.5ZM1420.6 392.5H1439.3V373.8H1420.6V392.5ZM1401.9 392.5H1420.6V373.8H1401.9V392.5ZM1383.2 392.5H1401.9V373.8H1383.2V392.5ZM1364.5 392.5H1383.2V373.8H1364.5V392.5ZM1345.8 392.5H1364.5V373.8H1345.8V392.5ZM1327.1 392.5H1345.8V373.8H1327.1V392.5ZM1308.4 392.5H1327.1V373.8H1308.4V392.5ZM1289.7 392.5H1308.4V373.8H1289.7V392.5ZM1271 392.5H1289.7V373.8H1271V392.5ZM1252.3 392.5H1271V373.8H1252.3V392.5ZM1233.7 392.5H1252.4V373.8H1233.7V392.5ZM1215 392.5H1233.7V373.8H1215V392.5ZM1196.3 392.5H1215V373.8H1196.3V392.5ZM1158.9 392.5H1177.6V373.8H1158.9V392.5ZM1140.2 392.5H1158.9V373.8H1140.2V392.5ZM1121.5 392.5H1140.2V373.8H1121.5V392.5ZM1102.8 392.5H1121.5V373.8H1102.8V392.5ZM1084.1 392.5H1102.8V373.8H1084.1V392.5ZM1065.4 392.5H1084.1V373.8H1065.4V392.5ZM1046.7 392.5H1065.4V373.8H1046.7V392.5ZM1028 392.5H1046.7V373.8H1028V392.5ZM1009.3 392.5H1028V373.8H1009.3V392.5ZM990.7 392.5H1009.4V373.8H990.7V392.5ZM972 392.5H990.7V373.8H972V392.5ZM953.3 392.5H972V373.8H953.3V392.5ZM934.6 392.5H953.3V373.8H934.6V392.5ZM915.9 392.5H934.6V373.8H915.9V392.5ZM897.2 392.5H915.9V373.8H897.2V392.5ZM878.5 392.5H897.2V373.8H878.5V392.5ZM859.8 392.5H878.5V373.8H859.8V392.5ZM841.1 392.5H859.8V373.8H841.1V392.5ZM822.4 392.5H841.1V373.8H822.4V392.5ZM803.7 392.5H822.4V373.8H803.7V392.5ZM785 392.5H803.7V373.8H785V392.5ZM766.4 392.5H785V373.8H766.3V392.5H766.4ZM355.1 392.5H373.8V373.8H355.1V392.5ZM280.4 392.5H299.1V373.8H280.4V392.5ZM261.7 392.5H280.4V373.8H261.7V392.5ZM243 392.5H261.7V373.8H243V392.5ZM224.3 392.5H243V373.8H224.3V392.5ZM205.6 392.5H224.3V373.8H205.6V392.5ZM186.9 392.5H205.6V373.8H186.9V392.5ZM168.2 392.5H186.9V373.8H168.2V392.5ZM149.5 392.5H168.2V373.8H149.5V392.5ZM1588.8 373.8H1607.5V355.1H1588.8V373.8ZM1570.1 373.8H1588.8V355.1H1570.1V373.8ZM1551.4 373.8H1570.1V355.1H1551.4V373.8ZM1532.7 373.8H1551.4V355.1H1532.7V373.8ZM1514 373.8H1532.7V355.1H1514V373.8ZM1495.3 373.8H1514V355.1H1495.3V373.8ZM1476.6 373.8H1495.3V355.1H1476.6V373.8ZM1457.9 373.8H1476.6V355.1H1457.9V373.8ZM1439.3 373.8H1458V355.1H1439.3V373.8ZM1420.6 373.8H1439.3V355.1H1420.6V373.8ZM1401.9 373.8H1420.6V355.1H1401.9V373.8ZM1383.2 373.8H1401.9V355.1H1383.2V373.8ZM1364.5 373.8H1383.2V355.1H1364.5V373.8ZM1345.8 373.8H1364.5V355.1H1345.8V373.8ZM1327.1 373.8H1345.8V355.1H1327.1V373.8ZM1308.4 373.8H1327.1V355.1H1308.4V373.8ZM1289.7 373.8H1308.4V355.1H1289.7V373.8ZM1271 373.8H1289.7V355.1H1271V373.8ZM1252.3 373.8H1271V355.1H1252.3V373.8ZM1233.7 373.8H1252.4V355.1H1233.7V373.8ZM1215 373.8H1233.7V355.1H1215V373.8ZM1196.3 373.8H1215V355.1H1196.3V373.8ZM1177.6 373.8H1196.3V355.1H1177.6V373.8ZM1158.9 373.8H1177.6V355.1H1158.9V373.8ZM1140.2 373.8H1158.9V355.1H1140.2V373.8ZM1121.5 373.8H1140.2V355.1H1121.5V373.8ZM1102.8 373.8H1121.5V355.1H1102.8V373.8ZM1084.1 373.8H1102.8V355.1H1084.1V373.8ZM1065.4 373.8H1084.1V355.1H1065.4V373.8ZM1046.7 373.8H1065.4V355.1H1046.7V373.8ZM1028 373.8H1046.7V355.1H1028V373.8ZM1009.3 373.8H1028V355.1H1009.3V373.8ZM990.7 373.8H1009.4V355.1H990.7V373.8ZM972 373.8H990.7V355.1H972V373.8ZM953.3 373.8H972V355.1H953.3V373.8ZM934.6 373.8H953.3V355.1H934.6V373.8ZM915.9 373.8H934.6V355.1H915.9V373.8ZM897.2 373.8H915.9V355.1H897.2V373.8ZM878.5 373.8H897.2V355.1H878.5V373.8ZM859.8 373.8H878.5V355.1H859.8V373.8ZM841.1 373.8H859.8V355.1H841.1V373.8ZM822.4 373.8H841.1V355.1H822.4V373.8ZM803.7 373.8H822.4V355.1H803.7V373.8ZM785 373.8H803.7V355.1H785V373.8ZM355.1 373.8H373.8V355.1H355.1V373.8ZM336.5 373.8H355.2V355.1H336.5V373.8ZM317.8 373.8H336.5V355.1H317.8V373.8ZM299.1 373.8H317.8V355.1H299.1V373.8ZM280.4 373.8H299.1V355.1H280.4V373.8ZM261.7 373.8H280.4V355.1H261.7V373.8ZM243 373.8H261.7V355.1H243V373.8ZM224.3 373.8H243V355.1H224.3V373.8ZM205.6 373.8H224.3V355.1H205.6V373.8ZM186.9 373.8H205.6V355.1H186.9V373.8ZM168.2 373.8H186.9V355.1H168.2V373.8ZM149.5 373.8H168.2V355.1H149.5V373.8ZM130.8 373.8H149.5V355.1H130.8V373.8ZM1607.5 355.1H1626.2V336.4H1607.5V355.1ZM1588.8 355.1H1607.5V336.4H1588.8V355.1ZM1570.1 355.1H1588.8V336.4H1570.1V355.1ZM1551.4 355.1H1570.1V336.4H1551.4V355.1ZM1532.7 355.1H1551.4V336.4H1532.7V355.1ZM1514 355.1H1532.7V336.4H1514V355.1ZM1495.3 355.1H1514V336.4H1495.3V355.1ZM1476.6 355.1H1495.3V336.4H1476.6V355.1ZM1457.9 355.1H1476.6V336.4H1457.9V355.1ZM1439.3 355.1H1458V336.4H1439.3V355.1ZM1420.6 355.1H1439.3V336.4H1420.6V355.1ZM1401.9 355.1H1420.6V336.4H1401.9V355.1ZM1383.2 355.1H1401.9V336.4H1383.2V355.1ZM1364.5 355.1H1383.2V336.4H1364.5V355.1ZM1345.8 355.1H1364.5V336.4H1345.8V355.1ZM1327.1 355.1H1345.8V336.4H1327.1V355.1ZM1308.4 355.1H1327.1V336.4H1308.4V355.1ZM1289.7 355.1H1308.4V336.4H1289.7V355.1ZM1271 355.1H1289.7V336.4H1271V355.1ZM1252.3 355.1H1271V336.4H1252.3V355.1ZM1233.7 355.1H1252.4V336.4H1233.7V355.1ZM1215 355.1H1233.7V336.4H1215V355.1ZM1196.3 355.1H1215V336.4H1196.3V355.1ZM1177.6 355.1H1196.3V336.4H1177.6V355.1ZM1158.9 355.1H1177.6V336.4H1158.9V355.1ZM1140.2 355.1H1158.9V336.4H1140.2V355.1ZM1121.5 355.1H1140.2V336.4H1121.5V355.1ZM1102.8 355.1H1121.5V336.4H1102.8V355.1ZM1084.1 355.1H1102.8V336.4H1084.1V355.1ZM1065.4 355.1H1084.1V336.4H1065.4V355.1ZM1046.7 355.1H1065.4V336.4H1046.7V355.1ZM1028 355.1H1046.7V336.4H1028V355.1ZM1009.3 355.1H1028V336.4H1009.3V355.1ZM990.7 355.1H1009.4V336.4H990.7V355.1ZM972 355.1H990.7V336.4H972V355.1ZM953.3 355.1H972V336.4H953.3V355.1ZM934.6 355.1H953.3V336.4H934.6V355.1ZM915.9 355.1H934.6V336.4H915.9V355.1ZM897.2 355.1H915.9V336.4H897.2V355.1ZM878.5 355.1H897.2V336.4H878.5V355.1ZM859.8 355.1H878.5V336.4H859.8V355.1ZM841.1 355.1H859.8V336.4H841.1V355.1ZM822.4 355.1H841.1V336.4H822.4V355.1ZM803.7 355.1H822.4V336.4H803.7V355.1ZM355.1 355.1H373.8V336.4H355.1V355.1ZM336.5 355.1H355.2V336.4H336.5V355.1ZM317.8 355.1H336.5V336.4H317.8V355.1ZM299.1 355.1H317.8V336.4H299.1V355.1ZM280.4 355.1H299.1V336.4H280.4V355.1ZM261.7 355.1H280.4V336.4H261.7V355.1ZM243 355.1H261.7V336.4H243V355.1ZM224.3 355.1H243V336.4H224.3V355.1ZM205.6 355.1H224.3V336.4H205.6V355.1ZM186.9 355.1H205.6V336.4H186.9V355.1ZM168.2 355.1H186.9V336.4H168.2V355.1ZM149.5 355.1H168.2V336.4H149.5V355.1ZM130.8 355.1H149.5V336.4H130.8V355.1ZM1663.6 336.4H1682.3V317.7H1663.6V336.4ZM1644.9 336.4H1663.6V317.7H1644.9V336.4ZM1588.8 336.4H1607.5V317.7H1588.8V336.4ZM1570.1 336.4H1588.8V317.7H1570.1V336.4ZM1551.4 336.4H1570.1V317.7H1551.4V336.4ZM1532.7 336.4H1551.4V317.7H1532.7V336.4ZM1514 336.4H1532.7V317.7H1514V336.4ZM1495.3 336.4H1514V317.7H1495.3V336.4ZM1476.6 336.4H1495.3V317.7H1476.6V336.4ZM1457.9 336.4H1476.6V317.7H1457.9V336.4ZM1439.3 336.4H1458V317.7H1439.3V336.4ZM1420.6 336.4H1439.3V317.7H1420.6V336.4ZM1401.9 336.4H1420.6V317.7H1401.9V336.4ZM1383.2 336.4H1401.9V317.7H1383.2V336.4ZM1364.5 336.4H1383.2V317.7H1364.5V336.4ZM1345.8 336.4H1364.5V317.7H1345.8V336.4ZM1327.1 336.4H1345.8V317.7H1327.1V336.4ZM1308.4 336.4H1327.1V317.7H1308.4V336.4ZM1289.7 336.4H1308.4V317.7H1289.7V336.4ZM1271 336.4H1289.7V317.7H1271V336.4ZM1252.3 336.4H1271V317.7H1252.3V336.4ZM1233.7 336.4H1252.4V317.7H1233.7V336.4ZM1215 336.4H1233.7V317.7H1215V336.4ZM1196.3 336.4H1215V317.7H1196.3V336.4ZM1177.6 336.4H1196.3V317.7H1177.6V336.4ZM1158.9 336.4H1177.6V317.7H1158.9V336.4ZM1140.2 336.4H1158.9V317.7H1140.2V336.4ZM1121.5 336.4H1140.2V317.7H1121.5V336.4ZM1102.8 336.4H1121.5V317.7H1102.8V336.4ZM1084.1 336.4H1102.8V317.7H1084.1V336.4ZM915.9 336.4H934.6V317.7H915.9V336.4ZM897.2 336.4H915.9V317.7H897.2V336.4ZM878.5 336.4H897.2V317.7H878.5V336.4ZM859.8 336.4H878.5V317.7H859.8V336.4ZM841.1 336.4H859.8V317.7H841.1V336.4ZM822.4 336.4H841.1V317.7H822.4V336.4ZM392.5 336.4H411.2V317.7H392.5V336.4ZM373.8 336.4H392.5V317.7H373.8V336.4ZM355.1 336.4H373.8V317.7H355.1V336.4ZM336.5 336.4H355.2V317.7H336.5V336.4ZM317.8 336.4H336.5V317.7H317.8V336.4ZM299.1 336.4H317.8V317.7H299.1V336.4ZM280.4 336.4H299.1V317.7H280.4V336.4ZM261.7 336.4H280.4V317.7H261.7V336.4ZM243 336.4H261.7V317.7H243V336.4ZM224.3 336.4H243V317.7H224.3V336.4ZM205.6 336.4H224.3V317.7H205.6V336.4ZM186.9 336.4H205.6V317.7H186.9V336.4ZM168.2 336.4H186.9V317.7H168.2V336.4ZM149.5 336.4H168.2V317.7H149.5V336.4ZM130.8 336.4H149.5V317.7H130.8V336.4ZM1700.9 317.7H1719.6V299H1700.9V317.7ZM1682.3 317.7H1701V299H1682.3V317.7ZM1663.6 317.7H1682.3V299H1663.6V317.7ZM1644.9 317.7H1663.6V299H1644.9V317.7ZM1626.2 317.7H1644.9V299H1626.2V317.7ZM1570.1 317.7H1588.8V299H1570.1V317.7ZM1551.4 317.7H1570.1V299H1551.4V317.7ZM1532.7 317.7H1551.4V299H1532.7V317.7ZM1514 317.7H1532.7V299H1514V317.7ZM1495.3 317.7H1514V299H1495.3V317.7ZM1476.6 317.7H1495.3V299H1476.6V317.7ZM1457.9 317.7H1476.6V299H1457.9V317.7ZM1439.3 317.7H1458V299H1439.3V317.7ZM1420.6 317.7H1439.3V299H1420.6V317.7ZM1401.9 317.7H1420.6V299H1401.9V317.7ZM1383.2 317.7H1401.9V299H1383.2V317.7ZM1364.5 317.7H1383.2V299H1364.5V317.7ZM1345.8 317.7H1364.5V299H1345.8V317.7ZM1327.1 317.7H1345.8V299H1327.1V317.7ZM1308.4 317.7H1327.1V299H1308.4V317.7ZM1289.7 317.7H1308.4V299H1289.7V317.7ZM1271 317.7H1289.7V299H1271V317.7ZM1252.3 317.7H1271V299H1252.3V317.7ZM1233.7 317.7H1252.4V299H1233.7V317.7ZM1215 317.7H1233.7V299H1215V317.7ZM1196.3 317.7H1215V299H1196.3V317.7ZM1177.6 317.7H1196.3V299H1177.6V317.7ZM1158.9 317.7H1177.6V299H1158.9V317.7ZM1140.2 317.7H1158.9V299H1140.2V317.7ZM1121.5 317.7H1140.2V299H1121.5V317.7ZM1102.8 317.7H1121.5V299H1102.8V317.7ZM1084.1 317.7H1102.8V299H1084.1V317.7ZM1065.4 317.7H1084.1V299H1065.4V317.7ZM1046.7 317.7H1065.4V299H1046.7V317.7ZM1028 317.7H1046.7V299H1028V317.7ZM934.6 317.7H953.3V299H934.6V317.7ZM897.2 317.7H915.9V299H897.2V317.7ZM841.1 317.7H859.8V299H841.1V317.7ZM822.4 317.7H841.1V299H822.4V317.7ZM803.7 317.7H822.4V299H803.7V317.7ZM411.2 317.7H429.9V299H411.2V317.7ZM392.5 317.7H411.2V299H392.5V317.7ZM373.8 317.7H392.5V299H373.8V317.7ZM355.1 317.7H373.8V299H355.1V317.7ZM336.5 317.7H355.2V299H336.5V317.7ZM317.8 317.7H336.5V299H317.8V317.7ZM299.1 317.7H317.8V299H299.1V317.7ZM280.4 317.7H299.1V299H280.4V317.7ZM261.7 317.7H280.4V299H261.7V317.7ZM243 317.7H261.7V299H243V317.7ZM224.3 317.7H243V299H224.3V317.7ZM205.6 317.7H224.3V299H205.6V317.7ZM186.9 317.7H205.6V299H186.9V317.7ZM168.2 317.7H186.9V299H168.2V317.7ZM149.5 317.7H168.2V299H149.5V317.7ZM130.8 317.7H149.5V299H130.8V317.7ZM112.2 317.7H130.9V299H112.2V317.7ZM1682.3 299H1701V280.3H1682.3V299ZM1607.5 299H1626.2V280.3H1607.5V299ZM1588.8 299H1607.5V280.3H1588.8V299ZM1570.1 299H1588.8V280.3H1570.1V299ZM1551.4 299H1570.1V280.3H1551.4V299ZM1532.7 299H1551.4V280.3H1532.7V299ZM1514 299H1532.7V280.3H1514V299ZM1495.3 299H1514V280.3H1495.3V299ZM1476.6 299H1495.3V280.3H1476.6V299ZM1457.9 299H1476.6V280.3H1457.9V299ZM1439.3 299H1458V280.3H1439.3V299ZM1420.6 299H1439.3V280.3H1420.6V299ZM1401.9 299H1420.6V280.3H1401.9V299ZM1383.2 299H1401.9V280.3H1383.2V299ZM1364.5 299H1383.2V280.3H1364.5V299ZM1345.8 299H1364.5V280.3H1345.8V299ZM1327.1 299H1345.8V280.3H1327.1V299ZM1308.4 299H1327.1V280.3H1308.4V299ZM1289.7 299H1308.4V280.3H1289.7V299ZM1271 299H1289.7V280.3H1271V299ZM1252.3 299H1271V280.3H1252.3V299ZM1233.7 299H1252.4V280.3H1233.7V299ZM1215 299H1233.7V280.3H1215V299ZM1196.3 299H1215V280.3H1196.3V299ZM1177.6 299H1196.3V280.3H1177.6V299ZM1140.2 299H1158.9V280.3H1140.2V299ZM1121.5 299H1140.2V280.3H1121.5V299ZM1102.8 299H1121.5V280.3H1102.8V299ZM1084.1 299H1102.8V280.3H1084.1V299ZM1065.4 299H1084.1V280.3H1065.4V299ZM1046.7 299H1065.4V280.3H1046.7V299ZM1028 299H1046.7V280.3H1028V299ZM1009.3 299H1028V280.3H1009.3V299ZM990.7 299H1009.4V280.3H990.7V299ZM972 299H990.7V280.3H972V299ZM953.3 299H972V280.3H953.3V299ZM897.2 299H915.9V280.3H897.2V299ZM859.8 299H878.5V280.3H859.8V299ZM841.1 299H859.8V280.3H841.1V299ZM822.4 299H841.1V280.3H822.4V299ZM803.7 299H822.4V280.3H803.7V299ZM429.9 299H448.6V280.3H429.9V299ZM411.2 299H429.9V280.3H411.2V299ZM392.5 299H411.2V280.3H392.5V299ZM373.8 299H392.5V280.3H373.8V299ZM355.1 299H373.8V280.3H355.1V299ZM336.5 299H355.2V280.3H336.5V299ZM317.8 299H336.5V280.3H317.8V299ZM299.1 299H317.8V280.3H299.1V299ZM280.4 299H299.1V280.3H280.4V299ZM261.7 299H280.4V280.3H261.7V299ZM243 299H261.7V280.3H243V299ZM224.3 299H243V280.3H224.3V299ZM205.6 299H224.3V280.3H205.6V299ZM186.9 299H205.6V280.3H186.9V299ZM168.2 299H186.9V280.3H168.2V299ZM149.5 299H168.2V280.3H149.5V299ZM130.8 299H149.5V280.3H130.8V299ZM1682.3 280.3H1701V261.6H1682.3V280.3ZM1607.5 280.3H1626.2V261.6H1607.5V280.3ZM1588.8 280.3H1607.5V261.6H1588.8V280.3ZM1570.1 280.3H1588.8V261.6H1570.1V280.3ZM1551.4 280.3H1570.1V261.6H1551.4V280.3ZM1532.7 280.3H1551.4V261.6H1532.7V280.3ZM1514 280.3H1532.7V261.6H1514V280.3ZM1495.3 280.3H1514V261.6H1495.3V280.3ZM1476.6 280.3H1495.3V261.6H1476.6V280.3ZM1457.9 280.3H1476.6V261.6H1457.9V280.3ZM1439.3 280.3H1458V261.6H1439.3V280.3ZM1420.6 280.3H1439.3V261.6H1420.6V280.3ZM1401.9 280.3H1420.6V261.6H1401.9V280.3ZM1383.2 280.3H1401.9V261.6H1383.2V280.3ZM1364.5 280.3H1383.2V261.6H1364.5V280.3ZM1345.8 280.3H1364.5V261.6H1345.8V280.3ZM1327.1 280.3H1345.8V261.6H1327.1V280.3ZM1308.4 280.3H1327.1V261.6H1308.4V280.3ZM1289.7 280.3H1308.4V261.6H1289.7V280.3ZM1271 280.3H1289.7V261.6H1271V280.3ZM1252.3 280.3H1271V261.6H1252.3V280.3ZM1233.7 280.3H1252.4V261.6H1233.7V280.3ZM1215 280.3H1233.7V261.6H1215V280.3ZM1196.3 280.3H1215V261.6H1196.3V280.3ZM1177.6 280.3H1196.3V261.6H1177.6V280.3ZM1158.9 280.3H1177.6V261.6H1158.9V280.3ZM1140.2 280.3H1158.9V261.6H1140.2V280.3ZM1121.5 280.3H1140.2V261.6H1121.5V280.3ZM1102.8 280.3H1121.5V261.6H1102.8V280.3ZM1084.1 280.3H1102.8V261.6H1084.1V280.3ZM1065.4 280.3H1084.1V261.6H1065.4V280.3ZM1046.7 280.3H1065.4V261.6H1046.7V280.3ZM1028 280.3H1046.7V261.6H1028V280.3ZM1009.3 280.3H1028V261.6H1009.3V280.3ZM990.7 280.3H1009.4V261.6H990.7V280.3ZM972 280.3H990.7V261.6H972V280.3ZM934.6 280.3H953.3V261.6H934.6V280.3ZM915.9 280.3H934.6V261.6H915.9V280.3ZM897.2 280.3H915.9V261.6H897.2V280.3ZM859.8 280.3H878.5V261.6H859.8V280.3ZM841.1 280.3H859.8V261.6H841.1V280.3ZM822.4 280.3H841.1V261.6H822.4V280.3ZM803.7 280.3H822.4V261.6H803.7V280.3ZM448.6 280.3H467.3V261.6H448.6V280.3ZM429.9 280.3H448.6V261.6H429.9V280.3ZM411.2 280.3H429.9V261.6H411.2V280.3ZM392.5 280.3H411.2V261.6H392.5V280.3ZM373.8 280.3H392.5V261.6H373.8V280.3ZM355.1 280.3H373.8V261.6H355.1V280.3ZM336.5 280.3H355.2V261.6H336.5V280.3ZM317.8 280.3H336.5V261.6H317.8V280.3ZM299.1 280.3H317.8V261.6H299.1V280.3ZM280.4 280.3H299.1V261.6H280.4V280.3ZM261.7 280.3H280.4V261.6H261.7V280.3ZM243 280.3H261.7V261.6H243V280.3ZM224.3 280.3H243V261.6H224.3V280.3ZM205.6 280.3H224.3V261.6H205.6V280.3ZM186.9 280.3H205.6V261.6H186.9V280.3ZM168.2 280.3H186.9V261.6H168.2V280.3ZM149.5 280.3H168.2V261.6H149.5V280.3ZM130.8 280.3H149.5V261.6H130.8V280.3ZM1682.3 261.6H1701V243H1682.3V261.6ZM1626.2 261.6H1644.9V243H1626.2V261.6ZM1607.5 261.6H1626.2V243H1607.5V261.6ZM1588.8 261.6H1607.5V243H1588.8V261.6ZM1570.1 261.6H1588.8V243H1570.1V261.6ZM1551.4 261.6H1570.1V243H1551.4V261.6ZM1532.7 261.6H1551.4V243H1532.7V261.6ZM1514 261.6H1532.7V243H1514V261.6ZM1495.3 261.6H1514V243H1495.3V261.6ZM1476.6 261.6H1495.3V243H1476.6V261.6ZM1457.9 261.6H1476.6V243H1457.9V261.6ZM1439.3 261.6H1458V243H1439.3V261.6ZM1420.6 261.6H1439.3V243H1420.6V261.6ZM1401.9 261.6H1420.6V243H1401.9V261.6ZM1383.2 261.6H1401.9V243H1383.2V261.6ZM1364.5 261.6H1383.2V243H1364.5V261.6ZM1345.8 261.6H1364.5V243H1345.8V261.6ZM1327.1 261.6H1345.8V243H1327.1V261.6ZM1308.4 261.6H1327.1V243H1308.4V261.6ZM1289.7 261.6H1308.4V243H1289.7V261.6ZM1271 261.6H1289.7V243H1271V261.6ZM1252.3 261.6H1271V243H1252.3V261.6ZM1233.7 261.6H1252.4V243H1233.7V261.6ZM1215 261.6H1233.7V243H1215V261.6ZM1196.3 261.6H1215V243H1196.3V261.6ZM1177.6 261.6H1196.3V243H1177.6V261.6ZM1158.9 261.6H1177.6V243H1158.9V261.6ZM1121.5 261.6H1140.2V243H1121.5V261.6ZM1102.8 261.6H1121.5V243H1102.8V261.6ZM1084.1 261.6H1102.8V243H1084.1V261.6ZM1065.4 261.6H1084.1V243H1065.4V261.6ZM1046.7 261.6H1065.4V243H1046.7V261.6ZM1009.3 261.6H1028V243H1009.3V261.6ZM990.7 261.6H1009.4V243H990.7V261.6ZM972 261.6H990.7V243H972V261.6ZM953.3 261.6H972V243H953.3V261.6ZM934.6 261.6H953.3V243H934.6V261.6ZM915.9 261.6H934.6V243H915.9V261.6ZM897.2 261.6H915.9V243H897.2V261.6ZM878.5 261.6H897.2V243H878.5V261.6ZM859.8 261.6H878.5V243H859.8V261.6ZM841.1 261.6H859.8V243H841.1V261.6ZM504.7 261.6H523.4V243H504.7V261.6ZM486 261.6H504.7V243H486V261.6ZM467.3 261.6H486V243H467.3V261.6ZM448.6 261.6H467.3V243H448.6V261.6ZM429.9 261.6H448.6V243H429.9V261.6ZM411.2 261.6H429.9V243H411.2V261.6ZM392.5 261.6H411.2V243H392.5V261.6ZM373.8 261.6H392.5V243H373.8V261.6ZM355.1 261.6H373.8V243H355.1V261.6ZM336.5 261.6H355.2V243H336.5V261.6ZM317.8 261.6H336.5V243H317.8V261.6ZM299.1 261.6H317.8V243H299.1V261.6ZM280.4 261.6H299.1V243H280.4V261.6ZM261.7 261.6H280.4V243H261.7V261.6ZM243 261.6H261.7V243H243V261.6ZM224.3 261.6H243V243H224.3V261.6ZM205.6 261.6H224.3V243H205.6V261.6ZM186.9 261.6H205.6V243H186.9V261.6ZM168.2 261.6H186.9V243H168.2V261.6ZM149.5 261.6H168.2V243H149.5V261.6ZM1663.6 243H1682.3V224.3H1663.6V243ZM1626.2 243H1644.9V224.3H1626.2V243ZM1607.5 243H1626.2V224.3H1607.5V243ZM1588.8 243H1607.5V224.3H1588.8V243ZM1570.1 243H1588.8V224.3H1570.1V243ZM1551.4 243H1570.1V224.3H1551.4V243ZM1532.7 243H1551.4V224.3H1532.7V243ZM1514 243H1532.7V224.3H1514V243ZM1495.3 243H1514V224.3H1495.3V243ZM1476.6 243H1495.3V224.3H1476.6V243ZM1457.9 243H1476.6V224.3H1457.9V243ZM1439.3 243H1458V224.3H1439.3V243ZM1420.6 243H1439.3V224.3H1420.6V243ZM1401.9 243H1420.6V224.3H1401.9V243ZM1383.2 243H1401.9V224.3H1383.2V243ZM1364.5 243H1383.2V224.3H1364.5V243ZM1345.8 243H1364.5V224.3H1345.8V243ZM1327.1 243H1345.8V224.3H1327.1V243ZM1308.4 243H1327.1V224.3H1308.4V243ZM1289.7 243H1308.4V224.3H1289.7V243ZM1271 243H1289.7V224.3H1271V243ZM1252.3 243H1271V224.3H1252.3V243ZM1233.7 243H1252.4V224.3H1233.7V243ZM1215 243H1233.7V224.3H1215V243ZM1196.3 243H1215V224.3H1196.3V243ZM1177.6 243H1196.3V224.3H1177.6V243ZM1158.9 243H1177.6V224.3H1158.9V243ZM1140.2 243H1158.9V224.3H1140.2V243ZM1121.5 243H1140.2V224.3H1121.5V243ZM1102.8 243H1121.5V224.3H1102.8V243ZM1084.1 243H1102.8V224.3H1084.1V243ZM1065.4 243H1084.1V224.3H1065.4V243ZM1046.7 243H1065.4V224.3H1046.7V243ZM1028 243H1046.7V224.3H1028V243ZM1009.3 243H1028V224.3H1009.3V243ZM990.7 243H1009.4V224.3H990.7V243ZM972 243H990.7V224.3H972V243ZM953.3 243H972V224.3H953.3V243ZM934.6 243H953.3V224.3H934.6V243ZM915.9 243H934.6V224.3H915.9V243ZM897.2 243H915.9V224.3H897.2V243ZM878.5 243H897.2V224.3H878.5V243ZM859.8 243H878.5V224.3H859.8V243ZM841.1 243H859.8V224.3H841.1V243ZM542.1 243H560.8V224.3H542.1V243ZM523.4 243H542.1V224.3H523.4V243ZM504.7 243H523.4V224.3H504.7V243ZM486 243H504.7V224.3H486V243ZM467.3 243H486V224.3H467.3V243ZM448.6 243H467.3V224.3H448.6V243ZM429.9 243H448.6V224.3H429.9V243ZM411.2 243H429.9V224.3H411.2V243ZM392.5 243H411.2V224.3H392.5V243ZM373.8 243H392.5V224.3H373.8V243ZM355.1 243H373.8V224.3H355.1V243ZM336.5 243H355.2V224.3H336.5V243ZM317.8 243H336.5V224.3H317.8V243ZM299.1 243H317.8V224.3H299.1V243ZM280.4 243H299.1V224.3H280.4V243ZM261.7 243H280.4V224.3H261.7V243ZM243 243H261.7V224.3H243V243ZM224.3 243H243V224.3H224.3V243ZM205.6 243H224.3V224.3H205.6V243ZM186.9 243H205.6V224.3H186.9V243ZM168.2 243H186.9V224.3H168.2V243ZM149.5 243H168.2V224.3H149.5V243ZM1663.6 224.3H1682.3V205.6H1663.6V224.3ZM1626.2 224.3H1644.9V205.6H1626.2V224.3ZM1607.5 224.3H1626.2V205.6H1607.5V224.3ZM1588.8 224.3H1607.5V205.6H1588.8V224.3ZM1570.1 224.3H1588.8V205.6H1570.1V224.3ZM1551.4 224.3H1570.1V205.6H1551.4V224.3ZM1532.7 224.3H1551.4V205.6H1532.7V224.3ZM1514 224.3H1532.7V205.6H1514V224.3ZM1495.3 224.3H1514V205.6H1495.3V224.3ZM1476.6 224.3H1495.3V205.6H1476.6V224.3ZM1457.9 224.3H1476.6V205.6H1457.9V224.3ZM1439.3 224.3H1458V205.6H1439.3V224.3ZM1420.6 224.3H1439.3V205.6H1420.6V224.3ZM1401.9 224.3H1420.6V205.6H1401.9V224.3ZM1383.2 224.3H1401.9V205.6H1383.2V224.3ZM1364.5 224.3H1383.2V205.6H1364.5V224.3ZM1345.8 224.3H1364.5V205.6H1345.8V224.3ZM1327.1 224.3H1345.8V205.6H1327.1V224.3ZM1308.4 224.3H1327.1V205.6H1308.4V224.3ZM1289.7 224.3H1308.4V205.6H1289.7V224.3ZM1271 224.3H1289.7V205.6H1271V224.3ZM1252.3 224.3H1271V205.6H1252.3V224.3ZM1233.7 224.3H1252.4V205.6H1233.7V224.3ZM1215 224.3H1233.7V205.6H1215V224.3ZM1196.3 224.3H1215V205.6H1196.3V224.3ZM1177.6 224.3H1196.3V205.6H1177.6V224.3ZM1158.9 224.3H1177.6V205.6H1158.9V224.3ZM1140.2 224.3H1158.9V205.6H1140.2V224.3ZM1121.5 224.3H1140.2V205.6H1121.5V224.3ZM1102.8 224.3H1121.5V205.6H1102.8V224.3ZM1084.1 224.3H1102.8V205.6H1084.1V224.3ZM1065.4 224.3H1084.1V205.6H1065.4V224.3ZM1046.7 224.3H1065.4V205.6H1046.7V224.3ZM1028 224.3H1046.7V205.6H1028V224.3ZM1009.3 224.3H1028V205.6H1009.3V224.3ZM990.7 224.3H1009.4V205.6H990.7V224.3ZM972 224.3H990.7V205.6H972V224.3ZM953.3 224.3H972V205.6H953.3V224.3ZM934.6 224.3H953.3V205.6H934.6V224.3ZM915.9 224.3H934.6V205.6H915.9V224.3ZM897.2 224.3H915.9V205.6H897.2V224.3ZM878.5 224.3H897.2V205.6H878.5V224.3ZM859.8 224.3H878.5V205.6H859.8V224.3ZM841.1 224.3H859.8V205.6H841.1V224.3ZM542.1 224.3H560.8V205.6H542.1V224.3ZM523.4 224.3H542.1V205.6H523.4V224.3ZM504.7 224.3H523.4V205.6H504.7V224.3ZM486 224.3H504.7V205.6H486V224.3ZM467.3 224.3H486V205.6H467.3V224.3ZM448.6 224.3H467.3V205.6H448.6V224.3ZM429.9 224.3H448.6V205.6H429.9V224.3ZM411.2 224.3H429.9V205.6H411.2V224.3ZM392.5 224.3H411.2V205.6H392.5V224.3ZM373.8 224.3H392.5V205.6H373.8V224.3ZM355.1 224.3H373.8V205.6H355.1V224.3ZM336.5 224.3H355.2V205.6H336.5V224.3ZM317.8 224.3H336.5V205.6H317.8V224.3ZM299.1 224.3H317.8V205.6H299.1V224.3ZM280.4 224.3H299.1V205.6H280.4V224.3ZM261.7 224.3H280.4V205.6H261.7V224.3ZM243 224.3H261.7V205.6H243V224.3ZM224.3 224.3H243V205.6H224.3V224.3ZM205.6 224.3H224.3V205.6H205.6V224.3ZM186.9 224.3H205.6V205.6H186.9V224.3ZM168.2 224.3H186.9V205.6H168.2V224.3ZM149.5 224.3H168.2V205.6H149.5V224.3ZM1644.9 205.6H1663.6V186.9H1644.9V205.6ZM1626.2 205.6H1644.9V186.9H1626.2V205.6ZM1607.5 205.6H1626.2V186.9H1607.5V205.6ZM1588.8 205.6H1607.5V186.9H1588.8V205.6ZM1570.1 205.6H1588.8V186.9H1570.1V205.6ZM1551.4 205.6H1570.1V186.9H1551.4V205.6ZM1532.7 205.6H1551.4V186.9H1532.7V205.6ZM1514 205.6H1532.7V186.9H1514V205.6ZM1495.3 205.6H1514V186.9H1495.3V205.6ZM1476.6 205.6H1495.3V186.9H1476.6V205.6ZM1457.9 205.6H1476.6V186.9H1457.9V205.6ZM1439.3 205.6H1458V186.9H1439.3V205.6ZM1420.6 205.6H1439.3V186.9H1420.6V205.6ZM1401.9 205.6H1420.6V186.9H1401.9V205.6ZM1383.2 205.6H1401.9V186.9H1383.2V205.6ZM1364.5 205.6H1383.2V186.9H1364.5V205.6ZM1345.8 205.6H1364.5V186.9H1345.8V205.6ZM1327.1 205.6H1345.8V186.9H1327.1V205.6ZM1308.4 205.6H1327.1V186.9H1308.4V205.6ZM1289.7 205.6H1308.4V186.9H1289.7V205.6ZM1271 205.6H1289.7V186.9H1271V205.6ZM1252.3 205.6H1271V186.9H1252.3V205.6ZM1233.7 205.6H1252.4V186.9H1233.7V205.6ZM1215 205.6H1233.7V186.9H1215V205.6ZM1196.3 205.6H1215V186.9H1196.3V205.6ZM1177.6 205.6H1196.3V186.9H1177.6V205.6ZM1158.9 205.6H1177.6V186.9H1158.9V205.6ZM1140.2 205.6H1158.9V186.9H1140.2V205.6ZM1121.5 205.6H1140.2V186.9H1121.5V205.6ZM1102.8 205.6H1121.5V186.9H1102.8V205.6ZM1084.1 205.6H1102.8V186.9H1084.1V205.6ZM1065.4 205.6H1084.1V186.9H1065.4V205.6ZM1046.7 205.6H1065.4V186.9H1046.7V205.6ZM1028 205.6H1046.7V186.9H1028V205.6ZM1009.3 205.6H1028V186.9H1009.3V205.6ZM990.7 205.6H1009.4V186.9H990.7V205.6ZM972 205.6H990.7V186.9H972V205.6ZM953.3 205.6H972V186.9H953.3V205.6ZM934.6 205.6H953.3V186.9H934.6V205.6ZM915.9 205.6H934.6V186.9H915.9V205.6ZM897.2 205.6H915.9V186.9H897.2V205.6ZM878.5 205.6H897.2V186.9H878.5V205.6ZM859.8 205.6H878.5V186.9H859.8V205.6ZM841.1 205.6H859.8V186.9H841.1V205.6ZM822.4 205.6H841.1V186.9H822.4V205.6ZM803.7 205.6H822.4V186.9H803.7V205.6ZM542.1 205.6H560.8V186.9H542.1V205.6ZM523.4 205.6H542.1V186.9H523.4V205.6ZM504.7 205.6H523.4V186.9H504.7V205.6ZM486 205.6H504.7V186.9H486V205.6ZM467.3 205.6H486V186.9H467.3V205.6ZM448.6 205.6H467.3V186.9H448.6V205.6ZM429.9 205.6H448.6V186.9H429.9V205.6ZM411.2 205.6H429.9V186.9H411.2V205.6ZM392.5 205.6H411.2V186.9H392.5V205.6ZM373.8 205.6H392.5V186.9H373.8V205.6ZM355.1 205.6H373.8V186.9H355.1V205.6ZM336.5 205.6H355.2V186.9H336.5V205.6ZM317.8 205.6H336.5V186.9H317.8V205.6ZM299.1 205.6H317.8V186.9H299.1V205.6ZM280.4 205.6H299.1V186.9H280.4V205.6ZM261.7 205.6H280.4V186.9H261.7V205.6ZM243 205.6H261.7V186.9H243V205.6ZM224.3 205.6H243V186.9H224.3V205.6ZM205.6 205.6H224.3V186.9H205.6V205.6ZM186.9 205.6H205.6V186.9H186.9V205.6ZM168.2 205.6H186.9V186.9H168.2V205.6ZM149.5 205.6H168.2V186.9H149.5V205.6ZM130.8 205.6H149.5V186.9H130.8V205.6ZM0 205.6H18.7V186.9H0V205.6ZM1719.6 186.9H1738.3V168.2H1719.6V186.9ZM1700.9 186.9H1719.6V168.2H1700.9V186.9ZM1626.2 186.9H1644.9V168.2H1626.2V186.9ZM1607.5 186.9H1626.2V168.2H1607.5V186.9ZM1588.8 186.9H1607.5V168.2H1588.8V186.9ZM1570.1 186.9H1588.8V168.2H1570.1V186.9ZM1551.4 186.9H1570.1V168.2H1551.4V186.9ZM1532.7 186.9H1551.4V168.2H1532.7V186.9ZM1514 186.9H1532.7V168.2H1514V186.9ZM1495.3 186.9H1514V168.2H1495.3V186.9ZM1476.6 186.9H1495.3V168.2H1476.6V186.9ZM1457.9 186.9H1476.6V168.2H1457.9V186.9ZM1439.3 186.9H1458V168.2H1439.3V186.9ZM1420.6 186.9H1439.3V168.2H1420.6V186.9ZM1401.9 186.9H1420.6V168.2H1401.9V186.9ZM1383.2 186.9H1401.9V168.2H1383.2V186.9ZM1364.5 186.9H1383.2V168.2H1364.5V186.9ZM1345.8 186.9H1364.5V168.2H1345.8V186.9ZM1327.1 186.9H1345.8V168.2H1327.1V186.9ZM1308.4 186.9H1327.1V168.2H1308.4V186.9ZM1289.7 186.9H1308.4V168.2H1289.7V186.9ZM1271 186.9H1289.7V168.2H1271V186.9ZM1252.3 186.9H1271V168.2H1252.3V186.9ZM1233.7 186.9H1252.4V168.2H1233.7V186.9ZM1215 186.9H1233.7V168.2H1215V186.9ZM1196.3 186.9H1215V168.2H1196.3V186.9ZM1177.6 186.9H1196.3V168.2H1177.6V186.9ZM1158.9 186.9H1177.6V168.2H1158.9V186.9ZM1140.2 186.9H1158.9V168.2H1140.2V186.9ZM1121.5 186.9H1140.2V168.2H1121.5V186.9ZM1102.8 186.9H1121.5V168.2H1102.8V186.9ZM1084.1 186.9H1102.8V168.2H1084.1V186.9ZM1065.4 186.9H1084.1V168.2H1065.4V186.9ZM1046.7 186.9H1065.4V168.2H1046.7V186.9ZM1028 186.9H1046.7V168.2H1028V186.9ZM1009.3 186.9H1028V168.2H1009.3V186.9ZM990.7 186.9H1009.4V168.2H990.7V186.9ZM972 186.9H990.7V168.2H972V186.9ZM934.6 186.9H953.3V168.2H934.6V186.9ZM915.9 186.9H934.6V168.2H915.9V186.9ZM897.2 186.9H915.9V168.2H897.2V186.9ZM841.1 186.9H859.8V168.2H841.1V186.9ZM822.4 186.9H841.1V168.2H822.4V186.9ZM523.4 186.9H542.1V168.2H523.4V186.9ZM504.7 186.9H523.4V168.2H504.7V186.9ZM486 186.9H504.7V168.2H486V186.9ZM467.3 186.9H486V168.2H467.3V186.9ZM448.6 186.9H467.3V168.2H448.6V186.9ZM373.8 186.9H392.5V168.2H373.8V186.9ZM355.1 186.9H373.8V168.2H355.1V186.9ZM336.5 186.9H355.2V168.2H336.5V186.9ZM317.8 186.9H336.5V168.2H317.8V186.9ZM299.1 186.9H317.8V168.2H299.1V186.9ZM280.4 186.9H299.1V168.2H280.4V186.9ZM261.7 186.9H280.4V168.2H261.7V186.9ZM243 186.9H261.7V168.2H243V186.9ZM224.3 186.9H243V168.2H224.3V186.9ZM205.6 186.9H224.3V168.2H205.6V186.9ZM186.9 186.9H205.6V168.2H186.9V186.9ZM168.2 186.9H186.9V168.2H168.2V186.9ZM149.5 186.9H168.2V168.2H149.5V186.9ZM56.1 186.9H74.8V168.2H56.1V186.9ZM37.4 186.9H56.1V168.2H37.4V186.9ZM18.7 186.9H37.4V168.2H18.7V186.9ZM1719.6 168.2H1738.3V149.5H1719.6V168.2ZM1700.9 168.2H1719.6V149.5H1700.9V168.2ZM1682.3 168.2H1701V149.5H1682.3V168.2ZM1588.8 168.2H1607.5V149.5H1588.8V168.2ZM1570.1 168.2H1588.8V149.5H1570.1V168.2ZM1551.4 168.2H1570.1V149.5H1551.4V168.2ZM1532.7 168.2H1551.4V149.5H1532.7V168.2ZM1514 168.2H1532.7V149.5H1514V168.2ZM1495.3 168.2H1514V149.5H1495.3V168.2ZM1476.6 168.2H1495.3V149.5H1476.6V168.2ZM1457.9 168.2H1476.6V149.5H1457.9V168.2ZM1439.3 168.2H1458V149.5H1439.3V168.2ZM1420.6 168.2H1439.3V149.5H1420.6V168.2ZM1401.9 168.2H1420.6V149.5H1401.9V168.2ZM1383.2 168.2H1401.9V149.5H1383.2V168.2ZM1364.5 168.2H1383.2V149.5H1364.5V168.2ZM1345.8 168.2H1364.5V149.5H1345.8V168.2ZM1327.1 168.2H1345.8V149.5H1327.1V168.2ZM1308.4 168.2H1327.1V149.5H1308.4V168.2ZM1289.7 168.2H1308.4V149.5H1289.7V168.2ZM1271 168.2H1289.7V149.5H1271V168.2ZM1252.3 168.2H1271V149.5H1252.3V168.2ZM1233.7 168.2H1252.4V149.5H1233.7V168.2ZM1215 168.2H1233.7V149.5H1215V168.2ZM1196.3 168.2H1215V149.5H1196.3V168.2ZM1177.6 168.2H1196.3V149.5H1177.6V168.2ZM1158.9 168.2H1177.6V149.5H1158.9V168.2ZM1140.2 168.2H1158.9V149.5H1140.2V168.2ZM1121.5 168.2H1140.2V149.5H1121.5V168.2ZM1102.8 168.2H1121.5V149.5H1102.8V168.2ZM1084.1 168.2H1102.8V149.5H1084.1V168.2ZM1065.4 168.2H1084.1V149.5H1065.4V168.2ZM1046.7 168.2H1065.4V149.5H1046.7V168.2ZM1028 168.2H1046.7V149.5H1028V168.2ZM1009.3 168.2H1028V149.5H1009.3V168.2ZM990.7 168.2H1009.4V149.5H990.7V168.2ZM953.3 168.2H972V149.5H953.3V168.2ZM934.6 168.2H953.3V149.5H934.6V168.2ZM915.9 168.2H934.6V149.5H915.9V168.2ZM897.2 168.2H915.9V149.5H897.2V168.2ZM635.5 168.2H654.2V149.5H635.5V168.2ZM523.4 168.2H542.1V149.5H523.4V168.2ZM486 168.2H504.7V149.5H486V168.2ZM467.3 168.2H486V149.5H467.3V168.2ZM373.8 168.2H392.5V149.5H373.8V168.2ZM355.1 168.2H373.8V149.5H355.1V168.2ZM336.5 168.2H355.2V149.5H336.5V168.2ZM317.8 168.2H336.5V149.5H317.8V168.2ZM299.1 168.2H317.8V149.5H299.1V168.2ZM280.4 168.2H299.1V149.5H280.4V168.2ZM261.7 168.2H280.4V149.5H261.7V168.2ZM243 168.2H261.7V149.5H243V168.2ZM224.3 168.2H243V149.5H224.3V168.2ZM205.6 168.2H224.3V149.5H205.6V168.2ZM186.9 168.2H205.6V149.5H186.9V168.2ZM168.2 168.2H186.9V149.5H168.2V168.2ZM149.5 168.2H168.2V149.5H149.5V168.2ZM130.8 168.2H149.5V149.5H130.8V168.2ZM112.2 168.2H130.9V149.5H112.2V168.2ZM93.5 168.2H112.2V149.5H93.5V168.2ZM74.8 168.2H93.5V149.5H74.8V168.2ZM56.1 168.2H74.8V149.5H56.1V168.2ZM37.4 168.2H56.1V149.5H37.4V168.2ZM18.7 168.2H37.4V149.5H18.7V168.2ZM1700.9 149.5H1719.6V130.8H1700.9V149.5ZM1682.3 149.5H1701V130.8H1682.3V149.5ZM1644.9 149.5H1663.6V130.8H1644.9V149.5ZM1626.2 149.5H1644.9V130.8H1626.2V149.5ZM1607.5 149.5H1626.2V130.8H1607.5V149.5ZM1588.8 149.5H1607.5V130.8H1588.8V149.5ZM1570.1 149.5H1588.8V130.8H1570.1V149.5ZM1551.4 149.5H1570.1V130.8H1551.4V149.5ZM1532.7 149.5H1551.4V130.8H1532.7V149.5ZM1514 149.5H1532.7V130.8H1514V149.5ZM1495.3 149.5H1514V130.8H1495.3V149.5ZM1476.6 149.5H1495.3V130.8H1476.6V149.5ZM1457.9 149.5H1476.6V130.8H1457.9V149.5ZM1439.3 149.5H1458V130.8H1439.3V149.5ZM1420.6 149.5H1439.3V130.8H1420.6V149.5ZM1401.9 149.5H1420.6V130.8H1401.9V149.5ZM1383.2 149.5H1401.9V130.8H1383.2V149.5ZM1364.5 149.5H1383.2V130.8H1364.5V149.5ZM1345.8 149.5H1364.5V130.8H1345.8V149.5ZM1327.1 149.5H1345.8V130.8H1327.1V149.5ZM1308.4 149.5H1327.1V130.8H1308.4V149.5ZM1289.7 149.5H1308.4V130.8H1289.7V149.5ZM1271 149.5H1289.7V130.8H1271V149.5ZM1252.3 149.5H1271V130.8H1252.3V149.5ZM1233.7 149.5H1252.4V130.8H1233.7V149.5ZM1215 149.5H1233.7V130.8H1215V149.5ZM1196.3 149.5H1215V130.8H1196.3V149.5ZM1177.6 149.5H1196.3V130.8H1177.6V149.5ZM1158.9 149.5H1177.6V130.8H1158.9V149.5ZM1140.2 149.5H1158.9V130.8H1140.2V149.5ZM1121.5 149.5H1140.2V130.8H1121.5V149.5ZM1102.8 149.5H1121.5V130.8H1102.8V149.5ZM1084.1 149.5H1102.8V130.8H1084.1V149.5ZM1065.4 149.5H1084.1V130.8H1065.4V149.5ZM1046.7 149.5H1065.4V130.8H1046.7V149.5ZM1028 149.5H1046.7V130.8H1028V149.5ZM1009.3 149.5H1028V130.8H1009.3V149.5ZM990.7 149.5H1009.4V130.8H990.7V149.5ZM972 149.5H990.7V130.8H972V149.5ZM953.3 149.5H972V130.8H953.3V149.5ZM934.6 149.5H953.3V130.8H934.6V149.5ZM915.9 149.5H934.6V130.8H915.9V149.5ZM897.2 149.5H915.9V130.8H897.2V149.5ZM635.5 149.5H654.2V130.8H635.5V149.5ZM616.8 149.5H635.5V130.8H616.8V149.5ZM523.4 149.5H542.1V130.8H523.4V149.5ZM504.7 149.5H523.4V130.8H504.7V149.5ZM486 149.5H504.7V130.8H486V149.5ZM467.3 149.5H486V130.8H467.3V149.5ZM392.5 149.5H411.2V130.8H392.5V149.5ZM373.8 149.5H392.5V130.8H373.8V149.5ZM355.1 149.5H373.8V130.8H355.1V149.5ZM336.5 149.5H355.2V130.8H336.5V149.5ZM317.8 149.5H336.5V130.8H317.8V149.5ZM299.1 149.5H317.8V130.8H299.1V149.5ZM280.4 149.5H299.1V130.8H280.4V149.5ZM261.7 149.5H280.4V130.8H261.7V149.5ZM243 149.5H261.7V130.8H243V149.5ZM224.3 149.5H243V130.8H224.3V149.5ZM205.6 149.5H224.3V130.8H205.6V149.5ZM186.9 149.5H205.6V130.8H186.9V149.5ZM168.2 149.5H186.9V130.8H168.2V149.5ZM149.5 149.5H168.2V130.8H149.5V149.5ZM130.8 149.5H149.5V130.8H130.8V149.5ZM112.2 149.5H130.9V130.8H112.2V149.5ZM93.5 149.5H112.2V130.8H93.5V149.5ZM74.8 149.5H93.5V130.8H74.8V149.5ZM56.1 149.5H74.8V130.8H56.1V149.5ZM37.4 149.5H56.1V130.8H37.4V149.5ZM1738.3 130.8H1757V112.1H1738.3V130.8ZM1719.6 130.8H1738.3V112.1H1719.6V130.8ZM1700.9 130.8H1719.6V112.1H1700.9V130.8ZM1682.3 130.8H1701V112.1H1682.3V130.8ZM1663.6 130.8H1682.3V112.1H1663.6V130.8ZM1644.9 130.8H1663.6V112.1H1644.9V130.8ZM1626.2 130.8H1644.9V112.1H1626.2V130.8ZM1607.5 130.8H1626.2V112.1H1607.5V130.8ZM1588.8 130.8H1607.5V112.1H1588.8V130.8ZM1570.1 130.8H1588.8V112.1H1570.1V130.8ZM1551.4 130.8H1570.1V112.1H1551.4V130.8ZM1532.7 130.8H1551.4V112.1H1532.7V130.8ZM1514 130.8H1532.7V112.1H1514V130.8ZM1495.3 130.8H1514V112.1H1495.3V130.8ZM1476.6 130.8H1495.3V112.1H1476.6V130.8ZM1457.9 130.8H1476.6V112.1H1457.9V130.8ZM1439.3 130.8H1458V112.1H1439.3V130.8ZM1420.6 130.8H1439.3V112.1H1420.6V130.8ZM1401.9 130.8H1420.6V112.1H1401.9V130.8ZM1383.2 130.8H1401.9V112.1H1383.2V130.8ZM1364.5 130.8H1383.2V112.1H1364.5V130.8ZM1345.8 130.8H1364.5V112.1H1345.8V130.8ZM1327.1 130.8H1345.8V112.1H1327.1V130.8ZM1308.4 130.8H1327.1V112.1H1308.4V130.8ZM1289.7 130.8H1308.4V112.1H1289.7V130.8ZM1271 130.8H1289.7V112.1H1271V130.8ZM1252.3 130.8H1271V112.1H1252.3V130.8ZM1233.7 130.8H1252.4V112.1H1233.7V130.8ZM1215 130.8H1233.7V112.1H1215V130.8ZM1196.3 130.8H1215V112.1H1196.3V130.8ZM1177.6 130.8H1196.3V112.1H1177.6V130.8ZM1158.9 130.8H1177.6V112.1H1158.9V130.8ZM1140.2 130.8H1158.9V112.1H1140.2V130.8ZM1121.5 130.8H1140.2V112.1H1121.5V130.8ZM1102.8 130.8H1121.5V112.1H1102.8V130.8ZM1084.1 130.8H1102.8V112.1H1084.1V130.8ZM1065.4 130.8H1084.1V112.1H1065.4V130.8ZM1046.7 130.8H1065.4V112.1H1046.7V130.8ZM1028 130.8H1046.7V112.1H1028V130.8ZM1009.3 130.8H1028V112.1H1009.3V130.8ZM990.7 130.8H1009.4V112.1H990.7V130.8ZM972 130.8H990.7V112.1H972V130.8ZM953.3 130.8H972V112.1H953.3V130.8ZM934.6 130.8H953.3V112.1H934.6V130.8ZM915.9 130.8H934.6V112.1H915.9V130.8ZM785 130.8H803.7V112.1H785V130.8ZM766.4 130.8H785V112.1H766.3V130.8H766.4ZM747.7 130.8H766.4V112.1H747.7V130.8ZM654.2 130.8H672.9V112.1H654.2V130.8ZM635.5 130.8H654.2V112.1H635.5V130.8ZM616.8 130.8H635.5V112.1H616.8V130.8ZM598.1 130.8H616.8V112.1H598.1V130.8ZM560.8 130.8H579.5V112.1H560.8V130.8ZM542.1 130.8H560.8V112.1H542.1V130.8ZM523.4 130.8H542.1V112.1H523.4V130.8ZM504.7 130.8H523.4V112.1H504.7V130.8ZM486 130.8H504.7V112.1H486V130.8ZM448.6 130.8H467.3V112.1H448.6V130.8ZM429.9 130.8H448.6V112.1H429.9V130.8ZM411.2 130.8H429.9V112.1H411.2V130.8ZM392.5 130.8H411.2V112.1H392.5V130.8ZM373.8 130.8H392.5V112.1H373.8V130.8ZM355.1 130.8H373.8V112.1H355.1V130.8ZM336.5 130.8H355.2V112.1H336.5V130.8ZM317.8 130.8H336.5V112.1H317.8V130.8ZM299.1 130.8H317.8V112.1H299.1V130.8ZM280.4 130.8H299.1V112.1H280.4V130.8ZM261.7 130.8H280.4V112.1H261.7V130.8ZM243 130.8H261.7V112.1H243V130.8ZM224.3 130.8H243V112.1H224.3V130.8ZM205.6 130.8H224.3V112.1H205.6V130.8ZM186.9 130.8H205.6V112.1H186.9V130.8ZM168.2 130.8H186.9V112.1H168.2V130.8ZM149.5 130.8H168.2V112.1H149.5V130.8ZM130.8 130.8H149.5V112.1H130.8V130.8ZM112.2 130.8H130.9V112.1H112.2V130.8ZM93.5 130.8H112.2V112.1H93.5V130.8ZM74.8 130.8H93.5V112.1H74.8V130.8ZM56.1 130.8H74.8V112.1H56.1V130.8ZM1757 112.1H1775.7V93.4H1757V112.1ZM1738.3 112.1H1757V93.4H1738.3V112.1ZM1719.6 112.1H1738.3V93.4H1719.6V112.1ZM1700.9 112.1H1719.6V93.4H1700.9V112.1ZM1682.3 112.1H1701V93.4H1682.3V112.1ZM1663.6 112.1H1682.3V93.4H1663.6V112.1ZM1644.9 112.1H1663.6V93.4H1644.9V112.1ZM1626.2 112.1H1644.9V93.4H1626.2V112.1ZM1607.5 112.1H1626.2V93.4H1607.5V112.1ZM1588.8 112.1H1607.5V93.4H1588.8V112.1ZM1570.1 112.1H1588.8V93.4H1570.1V112.1ZM1551.4 112.1H1570.1V93.4H1551.4V112.1ZM1532.7 112.1H1551.4V93.4H1532.7V112.1ZM1514 112.1H1532.7V93.4H1514V112.1ZM1495.3 112.1H1514V93.4H1495.3V112.1ZM1476.6 112.1H1495.3V93.4H1476.6V112.1ZM1457.9 112.1H1476.6V93.4H1457.9V112.1ZM1439.3 112.1H1458V93.4H1439.3V112.1ZM1420.6 112.1H1439.3V93.4H1420.6V112.1ZM1401.9 112.1H1420.6V93.4H1401.9V112.1ZM1383.2 112.1H1401.9V93.4H1383.2V112.1ZM1364.5 112.1H1383.2V93.4H1364.5V112.1ZM1345.8 112.1H1364.5V93.4H1345.8V112.1ZM1327.1 112.1H1345.8V93.4H1327.1V112.1ZM1308.4 112.1H1327.1V93.4H1308.4V112.1ZM1289.7 112.1H1308.4V93.4H1289.7V112.1ZM1271 112.1H1289.7V93.4H1271V112.1ZM1252.3 112.1H1271V93.4H1252.3V112.1ZM1233.7 112.1H1252.4V93.4H1233.7V112.1ZM1215 112.1H1233.7V93.4H1215V112.1ZM1196.3 112.1H1215V93.4H1196.3V112.1ZM1177.6 112.1H1196.3V93.4H1177.6V112.1ZM1158.9 112.1H1177.6V93.4H1158.9V112.1ZM1140.2 112.1H1158.9V93.4H1140.2V112.1ZM1121.5 112.1H1140.2V93.4H1121.5V112.1ZM1102.8 112.1H1121.5V93.4H1102.8V112.1ZM1084.1 112.1H1102.8V93.4H1084.1V112.1ZM1065.4 112.1H1084.1V93.4H1065.4V112.1ZM1046.7 112.1H1065.4V93.4H1046.7V112.1ZM1028 112.1H1046.7V93.4H1028V112.1ZM1009.3 112.1H1028V93.4H1009.3V112.1ZM990.7 112.1H1009.4V93.4H990.7V112.1ZM972 112.1H990.7V93.4H972V112.1ZM953.3 112.1H972V93.4H953.3V112.1ZM934.6 112.1H953.3V93.4H934.6V112.1ZM915.9 112.1H934.6V93.4H915.9V112.1ZM729 112.1H747.7V93.4H729V112.1ZM710.3 112.1H729V93.4H710.3V112.1ZM691.6 112.1H710.3V93.4H691.6V112.1ZM672.9 112.1H691.6V93.4H672.9V112.1ZM654.2 112.1H672.9V93.4H654.2V112.1ZM635.5 112.1H654.2V93.4H635.5V112.1ZM616.8 112.1H635.5V93.4H616.8V112.1ZM542.1 112.1H560.8V93.4H542.1V112.1ZM523.4 112.1H542.1V93.4H523.4V112.1ZM504.7 112.1H523.4V93.4H504.7V112.1ZM467.3 112.1H486V93.4H467.3V112.1ZM448.6 112.1H467.3V93.4H448.6V112.1ZM429.9 112.1H448.6V93.4H429.9V112.1ZM411.2 112.1H429.9V93.4H411.2V112.1ZM392.5 112.1H411.2V93.4H392.5V112.1ZM373.8 112.1H392.5V93.4H373.8V112.1ZM355.1 112.1H373.8V93.4H355.1V112.1ZM336.5 112.1H355.2V93.4H336.5V112.1ZM317.8 112.1H336.5V93.4H317.8V112.1ZM299.1 112.1H317.8V93.4H299.1V112.1ZM280.4 112.1H299.1V93.4H280.4V112.1ZM261.7 112.1H280.4V93.4H261.7V112.1ZM243 112.1H261.7V93.4H243V112.1ZM224.3 112.1H243V93.4H224.3V112.1ZM205.6 112.1H224.3V93.4H205.6V112.1ZM186.9 112.1H205.6V93.4H186.9V112.1ZM168.2 112.1H186.9V93.4H168.2V112.1ZM149.5 112.1H168.2V93.4H149.5V112.1ZM130.8 112.1H149.5V93.4H130.8V112.1ZM112.2 112.1H130.9V93.4H112.2V112.1ZM93.5 112.1H112.2V93.4H93.5V112.1ZM1738.3 93.4H1757V74.8H1738.3V93.4ZM1719.6 93.4H1738.3V74.8H1719.6V93.4ZM1700.9 93.4H1719.6V74.8H1700.9V93.4ZM1682.3 93.4H1701V74.8H1682.3V93.4ZM1663.6 93.4H1682.3V74.8H1663.6V93.4ZM1644.9 93.4H1663.6V74.8H1644.9V93.4ZM1626.2 93.4H1644.9V74.8H1626.2V93.4ZM1607.5 93.4H1626.2V74.8H1607.5V93.4ZM1588.8 93.4H1607.5V74.8H1588.8V93.4ZM1570.1 93.4H1588.8V74.8H1570.1V93.4ZM1551.4 93.4H1570.1V74.8H1551.4V93.4ZM1532.7 93.4H1551.4V74.8H1532.7V93.4ZM1514 93.4H1532.7V74.8H1514V93.4ZM1495.3 93.4H1514V74.8H1495.3V93.4ZM1476.6 93.4H1495.3V74.8H1476.6V93.4ZM1457.9 93.4H1476.6V74.8H1457.9V93.4ZM1439.3 93.4H1458V74.8H1439.3V93.4ZM1420.6 93.4H1439.3V74.8H1420.6V93.4ZM1401.9 93.4H1420.6V74.8H1401.9V93.4ZM1383.2 93.4H1401.9V74.8H1383.2V93.4ZM1364.5 93.4H1383.2V74.8H1364.5V93.4ZM1345.8 93.4H1364.5V74.8H1345.8V93.4ZM1327.1 93.4H1345.8V74.8H1327.1V93.4ZM1308.4 93.4H1327.1V74.8H1308.4V93.4ZM1289.7 93.4H1308.4V74.8H1289.7V93.4ZM1271 93.4H1289.7V74.8H1271V93.4ZM1252.3 93.4H1271V74.8H1252.3V93.4ZM1233.7 93.4H1252.4V74.8H1233.7V93.4ZM1215 93.4H1233.7V74.8H1215V93.4ZM1196.3 93.4H1215V74.8H1196.3V93.4ZM1177.6 93.4H1196.3V74.8H1177.6V93.4ZM1140.2 93.4H1158.9V74.8H1140.2V93.4ZM1121.5 93.4H1140.2V74.8H1121.5V93.4ZM1084.1 93.4H1102.8V74.8H1084.1V93.4ZM1009.3 93.4H1028V74.8H1009.3V93.4ZM990.7 93.4H1009.4V74.8H990.7V93.4ZM972 93.4H990.7V74.8H972V93.4ZM953.3 93.4H972V74.8H953.3V93.4ZM766.4 93.4H785V74.8H766.3V93.4H766.4ZM747.7 93.4H766.4V74.8H747.7V93.4ZM729 93.4H747.7V74.8H729V93.4ZM710.3 93.4H729V74.8H710.3V93.4ZM691.6 93.4H710.3V74.8H691.6V93.4ZM672.9 93.4H691.6V74.8H672.9V93.4ZM654.2 93.4H672.9V74.8H654.2V93.4ZM635.5 93.4H654.2V74.8H635.5V93.4ZM616.8 93.4H635.5V74.8H616.8V93.4ZM523.4 93.4H542.1V74.8H523.4V93.4ZM504.7 93.4H523.4V74.8H504.7V93.4ZM486 93.4H504.7V74.8H486V93.4ZM467.3 93.4H486V74.8H467.3V93.4ZM448.6 93.4H467.3V74.8H448.6V93.4ZM429.9 93.4H448.6V74.8H429.9V93.4ZM411.2 93.4H429.9V74.8H411.2V93.4ZM392.5 93.4H411.2V74.8H392.5V93.4ZM373.8 93.4H392.5V74.8H373.8V93.4ZM355.1 93.4H373.8V74.8H355.1V93.4ZM336.5 93.4H355.2V74.8H336.5V93.4ZM317.8 93.4H336.5V74.8H317.8V93.4ZM299.1 93.4H317.8V74.8H299.1V93.4ZM1588.8 74.8H1607.5V56.1H1588.8V74.8ZM1570.1 74.8H1588.8V56.1H1570.1V74.8ZM1551.4 74.8H1570.1V56.1H1551.4V74.8ZM1532.7 74.8H1551.4V56.1H1532.7V74.8ZM1514 74.8H1532.7V56.1H1514V74.8ZM1495.3 74.8H1514V56.1H1495.3V74.8ZM1476.6 74.8H1495.3V56.1H1476.6V74.8ZM1457.9 74.8H1476.6V56.1H1457.9V74.8ZM1439.3 74.8H1458V56.1H1439.3V74.8ZM1420.6 74.8H1439.3V56.1H1420.6V74.8ZM1401.9 74.8H1420.6V56.1H1401.9V74.8ZM1383.2 74.8H1401.9V56.1H1383.2V74.8ZM1364.5 74.8H1383.2V56.1H1364.5V74.8ZM1345.8 74.8H1364.5V56.1H1345.8V74.8ZM1327.1 74.8H1345.8V56.1H1327.1V74.8ZM1308.4 74.8H1327.1V56.1H1308.4V74.8ZM1289.7 74.8H1308.4V56.1H1289.7V74.8ZM1271 74.8H1289.7V56.1H1271V74.8ZM1252.3 74.8H1271V56.1H1252.3V74.8ZM1233.7 74.8H1252.4V56.1H1233.7V74.8ZM1215 74.8H1233.7V56.1H1215V74.8ZM1196.3 74.8H1215V56.1H1196.3V74.8ZM1177.6 74.8H1196.3V56.1H1177.6V74.8ZM1102.8 74.8H1121.5V56.1H1102.8V74.8ZM766.4 74.8H785V56.1H766.3V74.8H766.4ZM747.7 74.8H766.4V56.1H747.7V74.8ZM729 74.8H747.7V56.1H729V74.8ZM710.3 74.8H729V56.1H710.3V74.8ZM691.6 74.8H710.3V56.1H691.6V74.8ZM672.9 74.8H691.6V56.1H672.9V74.8ZM654.2 74.8H672.9V56.1H654.2V74.8ZM635.5 74.8H654.2V56.1H635.5V74.8ZM616.8 74.8H635.5V56.1H616.8V74.8ZM504.7 74.8H523.4V56.1H504.7V74.8ZM486 74.8H504.7V56.1H486V74.8ZM467.3 74.8H486V56.1H467.3V74.8ZM448.6 74.8H467.3V56.1H448.6V74.8ZM429.9 74.8H448.6V56.1H429.9V74.8ZM411.2 74.8H429.9V56.1H411.2V74.8ZM392.5 74.8H411.2V56.1H392.5V74.8ZM373.8 74.8H392.5V56.1H373.8V74.8ZM355.1 74.8H373.8V56.1H355.1V74.8ZM336.5 74.8H355.2V56.1H336.5V74.8ZM317.8 74.8H336.5V56.1H317.8V74.8ZM1345.8 56.1H1364.5V37.4H1345.8V56.1ZM1327.1 56.1H1345.8V37.4H1327.1V56.1ZM1308.4 56.1H1327.1V37.4H1308.4V56.1ZM1289.7 56.1H1308.4V37.4H1289.7V56.1ZM1271 56.1H1289.7V37.4H1271V56.1ZM1252.3 56.1H1271V37.4H1252.3V56.1ZM1158.9 56.1H1177.6V37.4H1158.9V56.1ZM1140.2 56.1H1158.9V37.4H1140.2V56.1ZM1121.5 56.1H1140.2V37.4H1121.5V56.1ZM1102.8 56.1H1121.5V37.4H1102.8V56.1ZM934.6 56.1H953.3V37.4H934.6V56.1ZM785 56.1H803.7V37.4H785V56.1ZM766.4 56.1H785V37.4H766.3V56.1H766.4ZM747.7 56.1H766.4V37.4H747.7V56.1ZM729 56.1H747.7V37.4H729V56.1ZM710.3 56.1H729V37.4H710.3V56.1ZM691.6 56.1H710.3V37.4H691.6V56.1ZM672.9 56.1H691.6V37.4H672.9V56.1ZM654.2 56.1H672.9V37.4H654.2V56.1ZM635.5 56.1H654.2V37.4H635.5V56.1ZM616.8 56.1H635.5V37.4H616.8V56.1ZM598.1 56.1H616.8V37.4H598.1V56.1ZM579.4 56.1H598.1V37.4H579.4V56.1ZM542.1 56.1H560.8V37.4H542.1V56.1ZM523.4 56.1H542.1V37.4H523.4V56.1ZM504.7 56.1H523.4V37.4H504.7V56.1ZM467.3 56.1H486V37.4H467.3V56.1ZM448.6 56.1H467.3V37.4H448.6V56.1ZM1289.7 37.4H1308.4V18.7H1289.7V37.4ZM1271 37.4H1289.7V18.7H1271V37.4ZM1252.3 37.4H1271V18.7H1252.3V37.4ZM1233.7 37.4H1252.4V18.7H1233.7V37.4ZM972 37.4H990.7V18.7H972V37.4ZM953.3 37.4H972V18.7H953.3V37.4ZM934.6 37.4H953.3V18.7H934.6V37.4ZM915.9 37.4H934.6V18.7H915.9V37.4ZM803.7 37.4H822.4V18.7H803.7V37.4ZM785 37.4H803.7V18.7H785V37.4ZM766.4 37.4H785V18.7H766.3V37.4H766.4ZM747.7 37.4H766.4V18.7H747.7V37.4ZM729 37.4H747.7V18.7H729V37.4ZM710.3 37.4H729V18.7H710.3V37.4ZM691.6 37.4H710.3V18.7H691.6V37.4ZM672.9 37.4H691.6V18.7H672.9V37.4ZM654.2 37.4H672.9V18.7H654.2V37.4ZM635.5 37.4H654.2V18.7H635.5V37.4ZM616.8 37.4H635.5V18.7H616.8V37.4ZM598.1 37.4H616.8V18.7H598.1V37.4ZM579.4 37.4H598.1V18.7H579.4V37.4ZM560.8 37.4H579.5V18.7H560.8V37.4ZM542.1 37.4H560.8V18.7H542.1V37.4ZM523.4 37.4H542.1V18.7H523.4V37.4ZM747.7 18.7H766.4V0H747.7V18.7Z" fill="black"/>
</svg>
