<svg id="Слой_1" data-name="Слой 1" xmlns="http://www.w3.org/2000/svg" viewBox="0 0 1944 990.6"><defs><style>.cls-1{fill:#555;}</style></defs><path class="cls-1" d="M532.2,1069.5h18.7v18.7H532.2Zm-18.7,0h18.7v18.7H513.5Zm0-18.7h18.7v18.7H513.5Zm-18.7,0h18.7v18.7H494.8Zm-18.7,0h18.7v18.7H476.1Zm37.4-18.7h18.7v18.7H513.5Zm-18.7,0h18.7v18.7H494.8Zm-18.7,0h18.7v18.7H476.1Zm37.4-18.7h18.7v18.7H513.5Zm-18.7,0h18.7v18.7H494.8Zm-18.7,0h18.7v18.7H476.1Zm1383.2-18.7H1878v18.7h-18.7Zm-1345.8,0h18.7v18.7H513.5Zm-18.7,0h18.7v18.7H494.8Zm-18.7,0h18.7v18.7H476.1ZM1896.7,976h18.7v18.7h-18.7Zm-18.7,0h18.7v18.7H1878Zm-18.7,0H1878v18.7h-18.7ZM513.5,976h18.7v18.7H513.5Zm-18.7,0h18.7v18.7H494.8Zm-18.7,0h18.7v18.7H476.1Zm-18.7,0h18.7v18.7H457.4Zm1439.3-18.7h18.7V976h-18.7Zm-18.7,0h18.7V976H1878Zm-112.1,0h18.7V976h-18.7Zm-18.7,0h18.7V976h-18.7Zm-1215,0h18.7V976H532.2Zm-18.7,0h18.7V976H513.5Zm-18.7,0h18.7V976H494.8Zm-18.7,0h18.7V976H476.1Zm-18.7,0h18.7V976H457.4Zm1495.4-18.7h18.7v18.7h-18.7Zm-18.7,0h18.7v18.7h-18.7Zm-168.2,0h18.7v18.7h-18.7Zm-1233.7,0h18.7v18.7H532.2Zm-18.7,0h18.7v18.7H513.5Zm-18.7,0h18.7v18.7H494.8Zm-18.7,0h18.7v18.7H476.1Zm-18.7,0h18.7v18.7H457.4ZM1934.1,920h18.7v18.7h-18.7Zm-149.5,0h18.7v18.7h-18.7Zm-18.7,0h18.7v18.7h-18.7Zm-18.7,0h18.7v18.7h-18.7Zm-18.7,0h18.7v18.7h-18.7Zm-691.6,0h18.7v18.7h-18.7Zm-18.7,0h18.7v18.7h-18.7Zm-18.7,0h18.7v18.7H999.5Zm-429.9,0h18.7v18.7H569.6Zm-18.7,0h18.7v18.7H550.9Zm-18.7,0h18.7v18.7H532.2Zm-18.7,0h18.7v18.7H513.5Zm-18.7,0h18.7v18.7H494.8Zm-18.7,0h18.7v18.7H476.1Zm-18.7,0h18.7v18.7H457.4Zm1476.7-18.7h18.7V920h-18.7Zm-130.9,0h18.7V920h-18.7Zm-18.6,0h18.7V920h-18.7Zm-18.7,0h18.7V920h-18.7Zm-18.7,0h18.7V920h-18.7Zm-18.7,0h18.7V920h-18.7Zm-18.7,0h18.7V920h-18.7Zm-74.8,0h18.7V920H1635Zm-18.7,0H1635V920h-18.7Zm-18.7,0h18.7V920h-18.7Zm-542,0h18.7V920h-18.7Zm-18.7,0h18.7V920h-18.7Zm-18.7,0h18.7V920h-18.7Zm-18.7,0h18.7V920H999.5Zm-429.9,0h18.7V920H569.6Zm-18.7,0h18.7V920H550.9Zm-18.7,0h18.7V920H532.2Zm-18.7,0h18.7V920H513.5Zm-18.7,0h18.7V920H494.8Zm-18.7,0h18.7V920H476.1Zm-18.7,0h18.7V920H457.4Zm1364.5-18.7h18.7v18.7h-18.7Zm-18.7,0h18.7v18.7h-18.7Zm-18.6,0h18.7v18.7h-18.7Zm-18.7,0h18.7v18.7h-18.7Zm-18.7,0h18.7v18.7h-18.7Zm-18.7,0h18.7v18.7h-18.7Zm-18.7,0h18.7v18.7h-18.7Zm-18.7,0h18.7v18.7h-18.7Zm-18.7,0h18.7v18.7h-18.7Zm-18.7,0h18.7v18.7h-18.7Zm-18.7,0h18.7v18.7H1635Zm-18.7,0H1635v18.7h-18.7Zm-18.7,0h18.7v18.7h-18.7Zm-523.3,0H1093v18.7h-18.7Zm-18.7,0h18.7v18.7h-18.7Zm-18.7,0h18.7v18.7h-18.7Zm-18.7,0h18.7v18.7h-18.7Zm-18.7,0h18.7v18.7H999.5Zm-429.9,0h18.7v18.7H569.6Zm-18.7,0h18.7v18.7H550.9Zm-18.7,0h18.7v18.7H532.2Zm-18.7,0h18.7v18.7H513.5Zm-18.7,0h18.7v18.7H494.8Zm-18.7,0h18.7v18.7H476.1Zm-18.7,0h18.7v18.7H457.4Zm1364.5-18.7h18.7v18.7h-18.7Zm-18.7,0h18.7v18.7h-18.7Zm-18.6,0h18.7v18.7h-18.7Zm-18.7,0h18.7v18.7h-18.7Zm-18.7,0h18.7v18.7h-18.7Zm-18.7,0h18.7v18.7h-18.7Zm-18.7,0h18.7v18.7h-18.7Zm-18.7,0h18.7v18.7h-18.7Zm-18.7,0h18.7v18.7h-18.7Zm-18.7,0h18.7v18.7h-18.7Zm-18.7,0h18.7v18.7H1635Zm-18.7,0H1635v18.7h-18.7Zm-18.7,0h18.7v18.7h-18.7Zm-504.6,0h18.7v18.7H1093Zm-18.7,0H1093v18.7h-18.7Zm-18.7,0h18.7v18.7h-18.7Zm-18.7,0h18.7v18.7h-18.7Zm-18.7,0h18.7v18.7h-18.7Zm-18.7,0h18.7v18.7H999.5Zm-18.7,0h18.7v18.7H980.8Zm-411.2,0h18.7v18.7H569.6Zm-18.7,0h18.7v18.7H550.9Zm-18.7,0h18.7v18.7H532.2Zm-18.7,0h18.7v18.7H513.5Zm-18.7,0h18.7v18.7H494.8Zm-18.7,0h18.7v18.7H476.1Zm-18.7,0h18.7v18.7H457.4Zm1383.2-18.7h18.7v18.7h-18.7Zm-18.7,0h18.7v18.7h-18.7Zm-18.7,0h18.7v18.7h-18.7Zm-18.6,0h18.7v18.7h-18.7Zm-18.7,0h18.7v18.7h-18.7Zm-18.7,0h18.7v18.7h-18.7Zm-18.7,0h18.7v18.7h-18.7Zm-18.7,0h18.7v18.7h-18.7Zm-18.7,0h18.7v18.7h-18.7Zm-18.7,0h18.7v18.7h-18.7Zm-18.7,0h18.7v18.7h-18.7Zm-18.7,0h18.7v18.7H1635Zm-18.7,0H1635v18.7h-18.7Zm-18.7,0h18.7v18.7h-18.7Zm-429.9,0h18.7v18.7h-18.7Zm-18.7,0h18.7v18.7H1149Zm-56,0h18.7v18.7H1093Zm-18.7,0H1093v18.7h-18.7Zm-18.7,0h18.7v18.7h-18.7Zm-18.7,0h18.7v18.7h-18.7Zm-18.7,0h18.7v18.7h-18.7Zm-18.7,0h18.7v18.7H999.5Zm-18.7,0h18.7v18.7H980.8Zm-373.8,0h18.7v18.7H607Zm-18.7,0H607v18.7H588.3Zm-18.7,0h18.7v18.7H569.6Zm-18.7,0h18.7v18.7H550.9Zm-18.7,0h18.7v18.7H532.2Zm-18.7,0h18.7v18.7H513.5Zm-18.7,0h18.7v18.7H494.8Zm-18.7,0h18.7v18.7H476.1Zm-18.7,0h18.7v18.7H457.4Zm1383.2-18.7h18.7v18.7h-18.7Zm-18.7,0h18.7v18.7h-18.7Zm-18.7,0h18.7v18.7h-18.7Zm-18.6,0h18.7v18.7h-18.7Zm-18.7,0h18.7v18.7h-18.7Zm-18.7,0h18.7v18.7h-18.7Zm-18.7,0h18.7v18.7h-18.7Zm-18.7,0h18.7v18.7h-18.7Zm-18.7,0h18.7v18.7h-18.7Zm-18.7,0h18.7v18.7h-18.7Zm-18.7,0h18.7v18.7h-18.7Zm-18.7,0h18.7v18.7H1635Zm-18.7,0H1635v18.7h-18.7Zm-18.7,0h18.7v18.7h-18.7Zm-411.2,0h18.7v18.7h-18.7Zm-18.7,0h18.7v18.7h-18.7Zm-18.7,0h18.7v18.7H1149Zm-56,0h18.7v18.7H1093Zm-18.7,0H1093v18.7h-18.7Zm-18.7,0h18.7v18.7h-18.7Zm-18.7,0h18.7v18.7h-18.7Zm-18.7,0h18.7v18.7h-18.7Zm-18.7,0h18.7v18.7H999.5Zm-18.7,0h18.7v18.7H980.8Zm-355.1,0h18.7v18.7H625.7Zm-18.7,0h18.7v18.7H607Zm-18.7,0H607v18.7H588.3Zm-18.7,0h18.7v18.7H569.6Zm-18.7,0h18.7v18.7H550.9Zm-18.7,0h18.7v18.7H532.2Zm-18.7,0h18.7v18.7H513.5Zm-18.7,0h18.7v18.7H494.8Zm-18.7,0h18.7v18.7H476.1Zm-18.7,0h18.7v18.7H457.4Zm1364.5-18.7h18.7v18.7h-18.7Zm-18.7,0h18.7v18.7h-18.7Zm-18.6,0h18.7v18.7h-18.7Zm-18.7,0h18.7v18.7h-18.7Zm-18.7,0h18.7v18.7h-18.7Zm-18.7,0h18.7v18.7h-18.7Zm-18.7,0h18.7v18.7h-18.7Zm-18.7,0h18.7v18.7h-18.7Zm-18.7,0h18.7v18.7h-18.7Zm-18.7,0h18.7v18.7h-18.7Zm-18.7,0h18.7v18.7H1635Zm-18.7,0H1635v18.7h-18.7Zm-429.9,0h18.7v18.7h-18.7Zm-18.7,0h18.7v18.7h-18.7Zm-56,0h18.7v18.7h-18.7Zm-18.7,0h18.7v18.7H1093Zm-18.7,0H1093v18.7h-18.7Zm-18.7,0h18.7v18.7h-18.7Zm-18.7,0h18.7v18.7h-18.7Zm-18.7,0h18.7v18.7h-18.7Zm-18.7,0h18.7v18.7H999.5Zm-18.7,0h18.7v18.7H980.8Zm-18.7,0h18.7v18.7H962.1Zm-336.4,0h18.7v18.7H625.7Zm-18.7,0h18.7v18.7H607Zm-18.7,0H607v18.7H588.3Zm-18.7,0h18.7v18.7H569.6Zm-18.7,0h18.7v18.7H550.9Zm-18.7,0h18.7v18.7H532.2Zm-18.7,0h18.7v18.7H513.5Zm-18.7,0h18.7v18.7H494.8Zm-18.7,0h18.7v18.7H476.1Zm-18.7,0h18.7v18.7H457.4Zm-18.6,0h18.7v18.7H438.8Zm1364.4-18.7h18.7v18.7h-18.7Zm-18.6,0h18.7v18.7h-18.7Zm-18.7,0h18.7v18.7h-18.7Zm-18.7,0h18.7v18.7h-18.7Zm-18.7,0h18.7v18.7h-18.7Zm-18.7,0h18.7v18.7h-18.7Zm-18.7,0h18.7v18.7h-18.7Zm-18.7,0h18.7v18.7h-18.7Zm-18.7,0h18.7v18.7h-18.7Zm-467.3,0h18.7v18.7h-18.7Zm-18.7,0h18.7v18.7h-18.7Zm-37.4,0H1149v18.7h-18.7Zm-18.6,0h18.7v18.7h-18.7Zm-18.7,0h18.7v18.7H1093Zm-18.7,0H1093v18.7h-18.7Zm-18.7,0h18.7v18.7h-18.7Zm-18.7,0h18.7v18.7h-18.7Zm-18.7,0h18.7v18.7h-18.7Zm-18.7,0h18.7v18.7H999.5Zm-18.7,0h18.7v18.7H980.8Zm-18.7,0h18.7v18.7H962.1Zm-336.4,0h18.7v18.7H625.7Zm-18.7,0h18.7v18.7H607Zm-18.7,0H607v18.7H588.3Zm-18.7,0h18.7v18.7H569.6Zm-18.7,0h18.7v18.7H550.9Zm-18.7,0h18.7v18.7H532.2Zm-18.7,0h18.7v18.7H513.5Zm-18.7,0h18.7v18.7H494.8Zm-18.7,0h18.7v18.7H476.1Zm-18.7,0h18.7v18.7H457.4Zm-18.6,0h18.7v18.7H438.8Zm-18.7,0h18.7v18.7H420.1Zm-18.7,0h18.7v18.7H401.4Zm1401.8-18.7h18.7v18.7h-18.7Zm-18.6,0h18.7v18.7h-18.7Zm-18.7,0h18.7v18.7h-18.7Zm-18.7,0h18.7v18.7h-18.7Zm-18.7,0h18.7v18.7h-18.7Zm-18.7,0h18.7v18.7h-18.7Zm-18.7,0h18.7v18.7h-18.7Zm-18.7,0h18.7v18.7h-18.7Zm-18.7,0h18.7v18.7h-18.7Zm-467.3,0h18.7v18.7h-18.7Zm-56.1,0H1149v18.7h-18.7Zm-18.6,0h18.7v18.7h-18.7Zm-18.7,0h18.7v18.7H1093Zm-18.7,0H1093v18.7h-18.7Zm-18.7,0h18.7v18.7h-18.7Zm-18.7,0h18.7v18.7h-18.7Zm-18.7,0h18.7v18.7h-18.7Zm-18.7,0h18.7v18.7H999.5Zm-18.7,0h18.7v18.7H980.8Zm-18.7,0h18.7v18.7H962.1Zm-336.4,0h18.7v18.7H625.7Zm-18.7,0h18.7v18.7H607Zm-18.7,0H607v18.7H588.3Zm-18.7,0h18.7v18.7H569.6Zm-18.7,0h18.7v18.7H550.9Zm-18.7,0h18.7v18.7H532.2Zm-18.7,0h18.7v18.7H513.5Zm-18.7,0h18.7v18.7H494.8Zm-18.7,0h18.7v18.7H476.1Zm-18.7,0h18.7v18.7H457.4Zm-18.6,0h18.7v18.7H438.8Zm-18.7,0h18.7v18.7H420.1Zm-18.7,0h18.7v18.7H401.4Zm1383.2-18.6h18.7v18.7h-18.7Zm-37.4,0h18.7v18.7h-18.7Zm-18.7,0h18.7v18.7h-18.7Zm-18.7,0h18.7v18.7h-18.7Zm-18.7,0h18.7v18.7h-18.7Zm-504.7,0h18.7v18.7h-18.7Zm-56.1,0H1149v18.7h-18.7Zm-18.6,0h18.7v18.7h-18.7Zm-18.7,0h18.7v18.7H1093Zm-18.7,0H1093v18.7h-18.7Zm-18.7,0h18.7v18.7h-18.7Zm-18.7,0h18.7v18.7h-18.7Zm-18.7,0h18.7v18.7h-18.7Zm-18.7,0h18.7v18.7H999.5Zm-18.7,0h18.7v18.7H980.8Zm-336.4,0h18.7v18.7H644.4Zm-18.7,0h18.7v18.7H625.7Zm-18.7,0h18.7v18.7H607Zm-18.7,0H607v18.7H588.3Zm-18.7,0h18.7v18.7H569.6Zm-18.7,0h18.7v18.7H550.9Zm-18.7,0h18.7v18.7H532.2Zm-18.7,0h18.7v18.7H513.5Zm-18.7,0h18.7v18.7H494.8Zm-18.7,0h18.7v18.7H476.1Zm-18.7,0h18.7v18.7H457.4Zm-18.6,0h18.7v18.7H438.8Zm-18.7,0h18.7v18.7H420.1Zm-18.7,0h18.7v18.7H401.4Zm-18.7,0h18.7v18.7H382.7Zm1457.9-18.7h18.7v18.7h-18.7Zm-56,0h18.7v18.7h-18.7Zm-56.1,0h18.7v18.7h-18.7Zm-56.1,0h18.7v18.7h-18.7Zm-542.1,0H1149v18.7h-18.7Zm-18.6,0h18.7v18.7h-18.7Zm-18.7,0h18.7v18.7H1093Zm-18.7,0H1093v18.7h-18.7Zm-18.7,0h18.7v18.7h-18.7Zm-18.7,0h18.7v18.7h-18.7Zm-18.7,0h18.7v18.7h-18.7Zm-18.7,0h18.7v18.7H999.5Zm-18.7,0h18.7v18.7H980.8Zm-317.8,0h18.7v18.7H663Zm-18.6,0h18.7v18.7H644.4Zm-18.7,0h18.7v18.7H625.7Zm-18.7,0h18.7v18.7H607Zm-18.7,0H607v18.7H588.3Zm-18.7,0h18.7v18.7H569.6Zm-18.7,0h18.7v18.7H550.9Zm-18.7,0h18.7v18.7H532.2Zm-18.7,0h18.7v18.7H513.5Zm-18.7,0h18.7v18.7H494.8Zm-18.7,0h18.7v18.7H476.1Zm-18.7,0h18.7v18.7H457.4Zm-18.6,0h18.7v18.7H438.8Zm-18.7,0h18.7v18.7H420.1Zm-18.7,0h18.7v18.7H401.4Zm-18.7,0h18.7v18.7H382.7Zm1439.2-18.7h18.7v18.7h-18.7Zm-18.7,0h18.7v18.7h-18.7Zm-18.6,0h18.7v18.7h-18.7Zm-18.7,0h18.7v18.7h-18.7Zm-168.3,0h18.7v18.7h-18.7Zm-18.7,0h18.7v18.7h-18.7Zm-448.6,0H1149v18.7h-18.7Zm-18.6,0h18.7v18.7h-18.7Zm-18.7,0h18.7v18.7H1093Zm-18.7,0H1093v18.7h-18.7Zm-18.7,0h18.7v18.7h-18.7Zm-18.7,0h18.7v18.7h-18.7Zm-18.7,0h18.7v18.7h-18.7Zm-18.7,0h18.7v18.7H999.5Zm-18.7,0h18.7v18.7H980.8Zm-18.7,0h18.7v18.7H962.1Zm-317.7,0h18.7v18.7H644.4Zm-18.7,0h18.7v18.7H625.7Zm-18.7,0h18.7v18.7H607Zm-18.7,0H607v18.7H588.3Zm-18.7,0h18.7v18.7H569.6Zm-18.7,0h18.7v18.7H550.9Zm-18.7,0h18.7v18.7H532.2Zm-18.7,0h18.7v18.7H513.5Zm-18.7,0h18.7v18.7H494.8Zm-18.7,0h18.7v18.7H476.1Zm-18.7,0h18.7v18.7H457.4Zm-18.6,0h18.7v18.7H438.8Zm-18.7,0h18.7v18.7H420.1Zm-18.7,0h18.7v18.7H401.4Zm-18.7,0h18.7v18.7H382.7Zm-18.7,0h18.7v18.7H364Zm1476.6-18.7h18.7v18.7h-18.7Zm-18.7,0h18.7v18.7h-18.7Zm-18.7,0h18.7v18.7h-18.7Zm-18.6,0h18.7v18.7h-18.7Zm-18.7,0h18.7v18.7h-18.7Zm-112.2,0h18.7v18.7h-18.7Zm-93.4,0H1579v18.7h-18.7Zm-430,0H1149v18.7h-18.7Zm-18.6,0h18.7v18.7h-18.7Zm-18.7,0h18.7v18.7H1093Zm-18.7,0H1093v18.7h-18.7Zm-18.7,0h18.7v18.7h-18.7Zm-18.7,0h18.7v18.7h-18.7Zm-18.7,0h18.7v18.7h-18.7Zm-18.7,0h18.7v18.7H999.5Zm-18.7,0h18.7v18.7H980.8Zm-18.7,0h18.7v18.7H962.1Zm-18.7,0h18.7v18.7H943.4Zm-299,0h18.7v18.7H644.4Zm-18.7,0h18.7v18.7H625.7Zm-18.7,0h18.7v18.7H607Zm-18.7,0H607v18.7H588.3Zm-18.7,0h18.7v18.7H569.6Zm-18.7,0h18.7v18.7H550.9Zm-18.7,0h18.7v18.7H532.2Zm-18.7,0h18.7v18.7H513.5Zm-18.7,0h18.7v18.7H494.8Zm-18.7,0h18.7v18.7H476.1Zm-18.7,0h18.7v18.7H457.4Zm-18.6,0h18.7v18.7H438.8Zm-18.7,0h18.7v18.7H420.1Zm-18.7,0h18.7v18.7H401.4Zm-18.7,0h18.7v18.7H382.7Zm-18.7,0h18.7v18.7H364ZM1803.2,677h18.7v18.7h-18.7Zm-18.6,0h18.7v18.7h-18.7Zm-18.7,0h18.7v18.7h-18.7Zm-18.7,0h18.7v18.7h-18.7Zm-18.7,0h18.7v18.7h-18.7Zm-74.8,0h18.7v18.7h-18.7Zm-37.4,0H1635v18.7h-18.7Zm-18.7,0h18.7v18.7h-18.7Zm-37.3,0H1579v18.7h-18.7Zm-18.7,0h18.7v18.7h-18.7Zm-18.7,0h18.7v18.7h-18.7ZM1149,677h18.7v18.7H1149Zm-18.7,0H1149v18.7h-18.7Zm-18.6,0h18.7v18.7h-18.7Zm-18.7,0h18.7v18.7H1093Zm-18.7,0H1093v18.7h-18.7Zm-18.7,0h18.7v18.7h-18.7Zm-18.7,0h18.7v18.7h-18.7Zm-18.7,0h18.7v18.7h-18.7Zm-18.7,0h18.7v18.7H999.5Zm-18.7,0h18.7v18.7H980.8Zm-18.7,0h18.7v18.7H962.1Zm-18.7,0h18.7v18.7H943.4Zm-355.1,0H607v18.7H588.3Zm-18.7,0h18.7v18.7H569.6Zm-18.7,0h18.7v18.7H550.9Zm-18.7,0h18.7v18.7H532.2Zm-18.7,0h18.7v18.7H513.5Zm-18.7,0h18.7v18.7H494.8Zm-18.7,0h18.7v18.7H476.1Zm-18.7,0h18.7v18.7H457.4Zm-18.6,0h18.7v18.7H438.8Zm-18.7,0h18.7v18.7H420.1Zm-18.7,0h18.7v18.7H401.4Zm-18.7,0h18.7v18.7H382.7ZM364,677h18.7v18.7H364Zm1364.5-18.7h18.7V677h-18.7Zm-74.8,0h18.7V677h-18.7Zm-18.7,0h18.7V677H1635Zm-18.7,0H1635V677h-18.7Zm-18.7,0h18.7V677h-18.7Zm-18.7,0h18.7V677h-18.7Zm-37.3,0h18.7V677h-18.7Zm-18.7,0h18.7V677h-18.7Zm-355.2,0h18.7V677h-18.7Zm-18.7,0h18.7V677H1149Zm-18.7,0H1149V677h-18.7Zm-18.6,0h18.7V677h-18.7Zm-18.7,0h18.7V677H1093Zm-18.7,0H1093V677h-18.7Zm-18.7,0h18.7V677h-18.7Zm-18.7,0h18.7V677h-18.7Zm-18.7,0h18.7V677h-18.7Zm-18.7,0h18.7V677H999.5Zm-18.7,0h18.7V677H980.8Zm-18.7,0h18.7V677H962.1Zm-18.7,0h18.7V677H943.4Zm-392.5,0h18.7V677H550.9Zm-18.7,0h18.7V677H532.2Zm-18.7,0h18.7V677H513.5Zm-18.7,0h18.7V677H494.8Zm-18.7,0h18.7V677H476.1Zm-18.7,0h18.7V677H457.4Zm-18.6,0h18.7V677H438.8Zm-18.7,0h18.7V677H420.1Zm-18.7,0h18.7V677H401.4Zm-18.7,0h18.7V677H382.7ZM1635,639.6h18.7v18.7H1635Zm-18.7,0H1635v18.7h-18.7Zm-18.7,0h18.7v18.7h-18.7Zm-18.7,0h18.7v18.7h-18.7Zm-37.3,0h18.7v18.7h-18.7Zm-18.7,0h18.7v18.7h-18.7Zm-18.7,0h18.7v18.7h-18.7Zm-317.8,0h18.7v18.7h-18.7Zm-18.7,0h18.7v18.7h-18.7Zm-18.7,0h18.7v18.7H1149Zm-18.7,0H1149v18.7h-18.7Zm-18.6,0h18.7v18.7h-18.7Zm-18.7,0h18.7v18.7H1093Zm-18.7,0H1093v18.7h-18.7Zm-18.7,0h18.7v18.7h-18.7Zm-18.7,0h18.7v18.7h-18.7Zm-18.7,0h18.7v18.7h-18.7Zm-18.7,0h18.7v18.7H999.5Zm-18.7,0h18.7v18.7H980.8Zm-18.7,0h18.7v18.7H962.1Zm-18.7,0h18.7v18.7H943.4Zm-18.7,0h18.7v18.7H924.7Zm-56,0h18.7v18.7H868.7Zm-37.4,0H850v18.7H831.3Zm-299.1,0h18.7v18.7H532.2Zm-18.7,0h18.7v18.7H513.5Zm-18.7,0h18.7v18.7H494.8Zm-18.7,0h18.7v18.7H476.1Zm-18.7,0h18.7v18.7H457.4Zm-18.6,0h18.7v18.7H438.8Zm-18.7,0h18.7v18.7H420.1Zm-18.7,0h18.7v18.7H401.4Zm-18.7,0h18.7v18.7H382.7ZM1635,620.9h18.7v18.7H1635Zm-18.7,0H1635v18.7h-18.7Zm-93.4,0h18.7v18.7h-18.7Zm-18.7,0h18.7v18.7h-18.7Zm-317.8,0h18.7v18.7h-18.7Zm-18.7,0h18.7v18.7h-18.7Zm-18.7,0h18.7v18.7H1149Zm-18.7,0H1149v18.7h-18.7Zm-18.6,0h18.7v18.7h-18.7Zm-18.7,0h18.7v18.7H1093Zm-18.7,0H1093v18.7h-18.7Zm-18.7,0h18.7v18.7h-18.7Zm-18.7,0h18.7v18.7h-18.7Zm-18.7,0h18.7v18.7h-18.7Zm-18.7,0h18.7v18.7H999.5Zm-18.7,0h18.7v18.7H980.8Zm-18.7,0h18.7v18.7H962.1Zm-18.7,0h18.7v18.7H943.4Zm-18.7,0h18.7v18.7H924.7Zm-18.7,0h18.7v18.7H906Zm-18.7,0H906v18.7H887.3Zm-18.6,0h18.7v18.7H868.7Zm-18.7,0h18.7v18.7H850Zm-18.7,0H850v18.7H831.3Zm-18.7,0h18.7v18.7H812.6Zm-18.7,0h18.7v18.7H793.9Zm-280.4,0h18.7v18.7H513.5Zm-18.7,0h18.7v18.7H494.8Zm-18.7,0h18.7v18.7H476.1Zm-18.7,0h18.7v18.7H457.4Zm-18.6,0h18.7v18.7H438.8Zm-18.7,0h18.7v18.7H420.1Zm-18.7,0h18.7v18.7H401.4Zm-18.7,0h18.7v18.7H382.7Zm-18.7,0h18.7v18.7H364Zm-18.7,0H364v18.7H345.3Zm1345.8-18.7h18.7v18.7h-18.7Zm-18.7,0h18.7v18.7h-18.7Zm-37.4,0h18.7v18.7H1635Zm-18.7,0H1635v18.7h-18.7Zm-93.4,0h18.7v18.7h-18.7Zm-18.7,0h18.7v18.7h-18.7Zm-112.2,0h18.7v18.7H1392Zm-18.7,0H1392v18.7h-18.7Zm-186.9,0h18.7v18.7h-18.7Zm-18.7,0h18.7v18.7h-18.7Zm-18.7,0h18.7v18.7H1149Zm-18.7,0H1149v18.7h-18.7Zm-18.6,0h18.7v18.7h-18.7Zm-18.7,0h18.7v18.7H1093Zm-18.7,0H1093v18.7h-18.7Zm-18.7,0h18.7v18.7h-18.7Zm-18.7,0h18.7v18.7h-18.7Zm-18.7,0h18.7v18.7h-18.7Zm-18.7,0h18.7v18.7H999.5Zm-18.7,0h18.7v18.7H980.8Zm-18.7,0h18.7v18.7H962.1Zm-18.7,0h18.7v18.7H943.4Zm-18.7,0h18.7v18.7H924.7Zm-18.7,0h18.7v18.7H906Zm-18.7,0H906v18.7H887.3Zm-18.6,0h18.7v18.7H868.7Zm-18.7,0h18.7v18.7H850Zm-18.7,0H850v18.7H831.3Zm-18.7,0h18.7v18.7H812.6Zm-18.7,0h18.7v18.7H793.9Zm-317.8,0h18.7v18.7H476.1Zm-18.7,0h18.7v18.7H457.4Zm-18.6,0h18.7v18.7H438.8Zm-18.7,0h18.7v18.7H420.1Zm-18.7,0h18.7v18.7H401.4Zm-56.1,0H364v18.7H345.3Zm-18.7,0h18.7v18.7H326.6Zm1345.8-18.6h18.7v18.7h-18.7Zm-37.4,0h18.7v18.7H1635Zm-74.7,0H1579v18.7h-18.7Zm-18.7,0h18.7v18.7h-18.7Zm-37.4,0h18.7v18.7h-18.7Zm-130.9,0H1392v18.7h-18.7Zm-168.2,0h18.7v18.7h-18.7Zm-18.7,0h18.7v18.7h-18.7Zm-18.7,0h18.7v18.7h-18.7Zm-18.7,0h18.7v18.7H1149Zm-18.7,0H1149v18.7h-18.7Zm-18.6,0h18.7v18.7h-18.7Zm-18.7,0h18.7v18.7H1093Zm-18.7,0H1093v18.7h-18.7Zm-18.7,0h18.7v18.7h-18.7Zm-18.7,0h18.7v18.7h-18.7Zm-18.7,0h18.7v18.7h-18.7Zm-18.7,0h18.7v18.7H999.5Zm-18.7,0h18.7v18.7H980.8Zm-18.7,0h18.7v18.7H962.1Zm-18.7,0h18.7v18.7H943.4Zm-18.7,0h18.7v18.7H924.7Zm-18.7,0h18.7v18.7H906Zm-18.7,0H906v18.7H887.3Zm-18.6,0h18.7v18.7H868.7Zm-18.7,0h18.7v18.7H850Zm-18.7,0H850v18.7H831.3Zm-18.7,0h18.7v18.7H812.6Zm-18.7,0h18.7v18.7H793.9Zm-18.7,0h18.7v18.7H775.2Zm-355.1,0h18.7v18.7H420.1Zm-74.8,0H364v18.7H345.3Zm-18.7,0h18.7v18.7H326.6Zm-18.7,0h18.7v18.7H307.9Zm1364.5-18.7h18.7v18.7h-18.7Zm-18.7,0h18.7v18.7h-18.7Zm-74.8,0h18.7v18.7h-18.7Zm-18.6,0H1579v18.7h-18.7Zm-18.7,0h18.7v18.7h-18.7Zm-18.7,0h18.7v18.7h-18.7Zm-18.7,0h18.7v18.7h-18.7Zm-130.9,0H1392v18.7h-18.7Zm-18.7,0h18.7v18.7h-18.7Zm-168.2,0h18.7v18.7h-18.7Zm-18.7,0h18.7v18.7h-18.7Zm-18.7,0h18.7v18.7H1149Zm-18.7,0H1149v18.7h-18.7Zm-18.6,0h18.7v18.7h-18.7Zm-18.7,0h18.7v18.7H1093Zm-18.7,0H1093v18.7h-18.7Zm-18.7,0h18.7v18.7h-18.7Zm-18.7,0h18.7v18.7h-18.7Zm-18.7,0h18.7v18.7h-18.7Zm-18.7,0h18.7v18.7H999.5Zm-18.7,0h18.7v18.7H980.8Zm-18.7,0h18.7v18.7H962.1Zm-18.7,0h18.7v18.7H943.4Zm-18.7,0h18.7v18.7H924.7Zm-18.7,0h18.7v18.7H906Zm-18.7,0H906v18.7H887.3Zm-18.6,0h18.7v18.7H868.7Zm-18.7,0h18.7v18.7H850Zm-18.7,0H850v18.7H831.3Zm-18.7,0h18.7v18.7H812.6Zm-18.7,0h18.7v18.7H793.9Zm-18.7,0h18.7v18.7H775.2Zm-429.9,0H364v18.7H345.3Zm-18.7,0h18.7v18.7H326.6Zm-18.7,0h18.7v18.7H307.9Zm-18.7,0h18.7v18.7H289.2Zm-18.7,0h18.7v18.7H270.5Zm1383.2-18.7h18.7v18.7h-18.7Zm-93.4,0H1579v18.7h-18.7Zm-18.7,0h18.7v18.7h-18.7Zm-18.7,0h18.7v18.7h-18.7Zm-18.7,0h18.7v18.7h-18.7Zm-18.7,0h18.7v18.7h-18.7Zm-93.5,0h18.7v18.7H1392Zm-18.7,0H1392v18.7h-18.7Zm-18.7,0h18.7v18.7h-18.7Zm-130.8,0h18.7v18.7h-18.7Zm-18.7,0h18.7v18.7h-18.7Zm-18.7,0h18.7v18.7h-18.7Zm-18.7,0h18.7v18.7h-18.7Zm-18.7,0h18.7v18.7H1149Zm-18.7,0H1149v18.7h-18.7Zm-18.6,0h18.7v18.7h-18.7Zm-18.7,0h18.7v18.7H1093Zm-18.7,0H1093v18.7h-18.7Zm-18.7,0h18.7v18.7h-18.7Zm-18.7,0h18.7v18.7h-18.7Zm-18.7,0h18.7v18.7h-18.7Zm-18.7,0h18.7v18.7H999.5Zm-18.7,0h18.7v18.7H980.8Zm-18.7,0h18.7v18.7H962.1Zm-18.7,0h18.7v18.7H943.4Zm-18.7,0h18.7v18.7H924.7Zm-18.7,0h18.7v18.7H906Zm-18.7,0H906v18.7H887.3Zm-18.6,0h18.7v18.7H868.7Zm-18.7,0h18.7v18.7H850Zm-18.7,0H850v18.7H831.3Zm-18.7,0h18.7v18.7H812.6Zm-18.7,0h18.7v18.7H793.9Zm-18.7,0h18.7v18.7H775.2Zm-336.4,0h18.7v18.7H438.8Zm-18.7,0h18.7v18.7H420.1Zm-112.2,0h18.7v18.7H307.9Zm-18.7,0h18.7v18.7H289.2Zm-18.7,0h18.7v18.7H270.5Zm-18.7,0h18.7v18.7H251.8Zm-18.7,0h18.7v18.7H233.1Zm1420.6-18.7h18.7v18.7h-18.7Zm-93.4,0H1579v18.7h-18.7Zm-18.7,0h18.7v18.7h-18.7Zm-18.7,0h18.7v18.7h-18.7Zm-18.7,0h18.7v18.7h-18.7Zm-18.7,0h18.7v18.7h-18.7Zm-18.7,0h18.7v18.7h-18.7Zm-56.1,0h18.7v18.7h-18.7Zm-18.7,0h18.7v18.7H1392Zm-18.7,0H1392v18.7h-18.7Zm-18.7,0h18.7v18.7h-18.7Zm-18.7,0h18.7v18.7h-18.7Zm-93.4,0h18.7v18.7h-18.7Zm-18.7,0h18.7v18.7h-18.7Zm-18.7,0h18.7v18.7h-18.7Zm-18.7,0h18.7v18.7h-18.7Zm-18.7,0h18.7v18.7h-18.7Zm-18.7,0h18.7v18.7H1149Zm-37.3,0h18.7v18.7h-18.7Zm-18.7,0h18.7v18.7H1093Zm-18.7,0H1093v18.7h-18.7Zm-18.7,0h18.7v18.7h-18.7Zm-18.7,0h18.7v18.7h-18.7Zm-18.7,0h18.7v18.7h-18.7Zm-18.7,0h18.7v18.7H999.5Zm-18.7,0h18.7v18.7H980.8Zm-18.7,0h18.7v18.7H962.1Zm-18.7,0h18.7v18.7H943.4Zm-18.7,0h18.7v18.7H924.7Zm-18.7,0h18.7v18.7H906Zm-18.7,0H906v18.7H887.3Zm-18.6,0h18.7v18.7H868.7Zm-18.7,0h18.7v18.7H850Zm-18.7,0H850v18.7H831.3Zm-18.7,0h18.7v18.7H812.6Zm-18.7,0h18.7v18.7H793.9Zm-18.7,0h18.7v18.7H775.2Zm-373.8,0h18.7v18.7H401.4Zm-18.7,0h18.7v18.7H382.7Zm-56.1,0h18.7v18.7H326.6Zm-18.7,0h18.7v18.7H307.9Zm-56.1,0h18.7v18.7H251.8Zm-18.7,0h18.7v18.7H233.1Zm-18.7,0h18.7v18.7H214.4Zm1364.5-18.7h18.7v18.7h-18.7Zm-18.6,0H1579v18.7h-18.7Zm-18.7,0h18.7v18.7h-18.7Zm-18.7,0h18.7v18.7h-18.7Zm-18.7,0h18.7v18.7h-18.7Zm-18.7,0h18.7v18.7h-18.7Zm-18.7,0h18.7v18.7h-18.7Zm-37.4,0h18.7v18.7h-18.7Zm-18.7,0h18.7v18.7h-18.7Zm-18.7,0h18.7v18.7H1392Zm-18.7,0H1392v18.7h-18.7Zm-18.7,0h18.7v18.7h-18.7Zm-18.7,0h18.7v18.7h-18.7Zm-18.6,0H1336v18.7h-18.7Zm-74.8,0h18.7v18.7h-18.7Zm-18.7,0h18.7v18.7h-18.7Zm-18.7,0h18.7v18.7h-18.7Zm-18.7,0h18.7v18.7h-18.7Zm-18.7,0h18.7v18.7h-18.7Zm-18.7,0h18.7v18.7H1149Zm-18.7,0H1149v18.7h-18.7Zm-18.6,0h18.7v18.7h-18.7Zm-18.7,0h18.7v18.7H1093Zm-18.7,0H1093v18.7h-18.7Zm-18.7,0h18.7v18.7h-18.7Zm-18.7,0h18.7v18.7h-18.7Zm-18.7,0h18.7v18.7h-18.7Zm-18.7,0h18.7v18.7H999.5Zm-18.7,0h18.7v18.7H980.8Zm-18.7,0h18.7v18.7H962.1Zm-18.7,0h18.7v18.7H943.4Zm-18.7,0h18.7v18.7H924.7Zm-18.7,0h18.7v18.7H906Zm-18.7,0H906v18.7H887.3Zm-18.6,0h18.7v18.7H868.7Zm-18.7,0h18.7v18.7H850Zm-18.7,0H850v18.7H831.3Zm-18.7,0h18.7v18.7H812.6Zm-18.7,0h18.7v18.7H793.9Zm-18.7,0h18.7v18.7H775.2Zm-411.2,0h18.7v18.7H364Zm-112.2,0h18.7v18.7H251.8Zm-18.7,0h18.7v18.7H233.1Zm-18.7,0h18.7v18.7H214.4Zm-18.6,0h18.7v18.7H195.8ZM1635,490.1h18.7v18.7H1635Zm-37.4,0h18.7v18.7h-18.7Zm-18.7,0h18.7v18.7h-18.7Zm-18.6,0H1579v18.7h-18.7Zm-18.7,0h18.7v18.7h-18.7Zm-18.7,0h18.7v18.7h-18.7Zm-18.7,0h18.7v18.7h-18.7Zm-18.7,0h18.7v18.7h-18.7Zm-18.7,0h18.7v18.7h-18.7Zm-18.7,0h18.7v18.7h-18.7Zm-18.7,0h18.7v18.7h-18.7Zm-18.7,0h18.7v18.7h-18.7Zm-18.7,0h18.7v18.7H1392Zm-18.7,0H1392v18.7h-18.7Zm-18.7,0h18.7v18.7h-18.7Zm-18.7,0h18.7v18.7h-18.7Zm-18.6,0H1336v18.7h-18.7Zm-74.8,0h18.7v18.7h-18.7Zm-18.7,0h18.7v18.7h-18.7Zm-18.7,0h18.7v18.7h-18.7Zm-18.7,0h18.7v18.7h-18.7Zm-18.7,0h18.7v18.7h-18.7Zm-18.7,0h18.7v18.7H1149Zm-18.7,0H1149v18.7h-18.7Zm-18.6,0h18.7v18.7h-18.7Zm-18.7,0h18.7v18.7H1093Zm-18.7,0H1093v18.7h-18.7Zm-18.7,0h18.7v18.7h-18.7Zm-18.7,0h18.7v18.7h-18.7Zm-18.7,0h18.7v18.7h-18.7Zm-18.7,0h18.7v18.7H999.5Zm-18.7,0h18.7v18.7H980.8Zm-18.7,0h18.7v18.7H962.1Zm-18.7,0h18.7v18.7H943.4Zm-18.7,0h18.7v18.7H924.7Zm-18.7,0h18.7v18.7H906Zm-18.7,0H906v18.7H887.3Zm-18.6,0h18.7v18.7H868.7Zm-18.7,0h18.7v18.7H850Zm-18.7,0H850v18.7H831.3Zm-18.7,0h18.7v18.7H812.6Zm-18.7,0h18.7v18.7H793.9Zm-18.7,0h18.7v18.7H775.2Zm-392.5,0h18.7v18.7H382.7Zm-112.2,0h18.7v18.7H270.5Zm-18.7,0h18.7v18.7H251.8Zm-18.7,0h18.7v18.7H233.1Zm-18.7,0h18.7v18.7H214.4Zm-18.6,0h18.7v18.7H195.8Zm-18.7,0h18.7v18.7H177.1ZM1635,471.4h18.7v18.7H1635Zm-18.7,0H1635v18.7h-18.7Zm-18.7,0h18.7v18.7h-18.7Zm-18.7,0h18.7v18.7h-18.7Zm-18.6,0H1579v18.7h-18.7Zm-18.7,0h18.7v18.7h-18.7Zm-18.7,0h18.7v18.7h-18.7Zm-18.7,0h18.7v18.7h-18.7Zm-18.7,0h18.7v18.7h-18.7Zm-18.7,0h18.7v18.7h-18.7Zm-18.7,0h18.7v18.7h-18.7Zm-18.7,0h18.7v18.7h-18.7Zm-18.7,0h18.7v18.7h-18.7Zm-18.7,0h18.7v18.7H1392Zm-18.7,0H1392v18.7h-18.7Zm-18.7,0h18.7v18.7h-18.7Zm-18.7,0h18.7v18.7h-18.7Zm-18.6,0H1336v18.7h-18.7Zm-18.7,0h18.7v18.7h-18.7Zm-18.7,0h18.7v18.7h-18.7Zm-18.7,0h18.7v18.7h-18.7Zm-18.7,0h18.7v18.7h-18.7Zm-18.7,0h18.7v18.7h-18.7Zm-37.4,0h18.7v18.7h-18.7Zm-18.7,0h18.7v18.7h-18.7Zm-18.7,0h18.7v18.7H1149Zm-18.7,0H1149v18.7h-18.7Zm-18.6,0h18.7v18.7h-18.7Zm-18.7,0h18.7v18.7H1093Zm-18.7,0H1093v18.7h-18.7Zm-18.7,0h18.7v18.7h-18.7Zm-18.7,0h18.7v18.7h-18.7Zm-18.7,0h18.7v18.7h-18.7Zm-18.7,0h18.7v18.7H999.5Zm-18.7,0h18.7v18.7H980.8Zm-18.7,0h18.7v18.7H962.1Zm-18.7,0h18.7v18.7H943.4Zm-18.7,0h18.7v18.7H924.7Zm-18.7,0h18.7v18.7H906Zm-18.7,0H906v18.7H887.3Zm-18.6,0h18.7v18.7H868.7Zm-18.7,0h18.7v18.7H850Zm-18.7,0H850v18.7H831.3Zm-18.7,0h18.7v18.7H812.6Zm-18.7,0h18.7v18.7H793.9Zm-411.2,0h18.7v18.7H382.7Zm-74.8,0h18.7v18.7H307.9Zm-18.7,0h18.7v18.7H289.2Zm-18.7,0h18.7v18.7H270.5Zm-18.7,0h18.7v18.7H251.8Zm-18.7,0h18.7v18.7H233.1Zm-18.7,0h18.7v18.7H214.4Zm-18.6,0h18.7v18.7H195.8Zm-18.7,0h18.7v18.7H177.1Zm1439.2-18.7H1635v18.7h-18.7Zm-18.7,0h18.7v18.7h-18.7Zm-18.7,0h18.7v18.7h-18.7Zm-18.6,0H1579v18.7h-18.7Zm-18.7,0h18.7v18.7h-18.7Zm-18.7,0h18.7v18.7h-18.7Zm-18.7,0h18.7v18.7h-18.7Zm-18.7,0h18.7v18.7h-18.7Zm-18.7,0h18.7v18.7h-18.7Zm-18.7,0h18.7v18.7h-18.7Zm-18.7,0h18.7v18.7h-18.7Zm-18.7,0h18.7v18.7h-18.7Zm-18.7,0h18.7v18.7H1392Zm-18.7,0H1392v18.7h-18.7Zm-18.7,0h18.7v18.7h-18.7Zm-18.7,0h18.7v18.7h-18.7Zm-18.6,0H1336v18.7h-18.7Zm-18.7,0h18.7v18.7h-18.7Zm-18.7,0h18.7v18.7h-18.7Zm-18.7,0h18.7v18.7h-18.7Zm-18.7,0h18.7v18.7h-18.7Zm-18.7,0h18.7v18.7h-18.7Zm-18.7,0h18.7v18.7h-18.7Zm-18.7,0h18.7v18.7h-18.7Zm-18.7,0h18.7v18.7h-18.7Zm-18.7,0h18.7v18.7H1149Zm-18.7,0H1149v18.7h-18.7Zm-18.6,0h18.7v18.7h-18.7Zm-18.7,0h18.7v18.7H1093Zm-18.7,0H1093v18.7h-18.7Zm-18.7,0h18.7v18.7h-18.7Zm-18.7,0h18.7v18.7h-18.7Zm-18.7,0h18.7v18.7h-18.7Zm-18.7,0h18.7v18.7H999.5Zm-18.7,0h18.7v18.7H980.8Zm-18.7,0h18.7v18.7H962.1Zm-18.7,0h18.7v18.7H943.4Zm-18.7,0h18.7v18.7H924.7Zm-18.7,0h18.7v18.7H906Zm-18.7,0H906v18.7H887.3Zm-18.6,0h18.7v18.7H868.7Zm-18.7,0h18.7v18.7H850Zm-18.7,0H850v18.7H831.3Zm-18.7,0h18.7v18.7H812.6Zm-429.9,0h18.7v18.7H382.7Zm-18.7,0h18.7v18.7H364Zm-18.7,0H364v18.7H345.3Zm-18.7,0h18.7v18.7H326.6Zm-18.7,0h18.7v18.7H307.9Zm-18.7,0h18.7v18.7H289.2Zm-18.7,0h18.7v18.7H270.5Zm-18.7,0h18.7v18.7H251.8Zm-18.7,0h18.7v18.7H233.1Zm-18.7,0h18.7v18.7H214.4Zm-18.6,0h18.7v18.7H195.8Zm-18.7,0h18.7v18.7H177.1Zm-18.7,0h18.7v18.7H158.4ZM1635,434h18.7v18.7H1635Zm-18.7,0H1635v18.7h-18.7Zm-18.7,0h18.7v18.7h-18.7Zm-18.7,0h18.7v18.7h-18.7Zm-18.6,0H1579v18.7h-18.7Zm-18.7,0h18.7v18.7h-18.7Zm-18.7,0h18.7v18.7h-18.7Zm-18.7,0h18.7v18.7h-18.7Zm-18.7,0h18.7v18.7h-18.7Zm-18.7,0h18.7v18.7h-18.7Zm-18.7,0h18.7v18.7h-18.7Zm-18.7,0h18.7v18.7h-18.7Zm-18.7,0h18.7v18.7h-18.7Zm-18.7,0h18.7v18.7H1392Zm-18.7,0H1392v18.7h-18.7Zm-18.7,0h18.7v18.7h-18.7Zm-18.7,0h18.7v18.7h-18.7Zm-18.6,0H1336v18.7h-18.7Zm-18.7,0h18.7v18.7h-18.7Zm-18.7,0h18.7v18.7h-18.7Zm-18.7,0h18.7v18.7h-18.7Zm-18.7,0h18.7v18.7h-18.7Zm-18.7,0h18.7v18.7h-18.7Zm-18.7,0h18.7v18.7h-18.7Zm-18.7,0h18.7v18.7h-18.7Zm-18.7,0h18.7v18.7h-18.7Zm-18.7,0h18.7v18.7H1149Zm-18.7,0H1149v18.7h-18.7Zm-18.6,0h18.7v18.7h-18.7Zm-18.7,0h18.7v18.7H1093Zm-18.7,0H1093v18.7h-18.7Zm-18.7,0h18.7v18.7h-18.7Zm-18.7,0h18.7v18.7h-18.7Zm-18.7,0h18.7v18.7h-18.7Zm-18.7,0h18.7v18.7H999.5Zm-18.7,0h18.7v18.7H980.8Zm-18.7,0h18.7v18.7H962.1Zm-18.7,0h18.7v18.7H943.4Zm-18.7,0h18.7v18.7H924.7ZM906,434h18.7v18.7H906Zm-18.7,0H906v18.7H887.3Zm-18.6,0h18.7v18.7H868.7ZM850,434h18.7v18.7H850Zm-18.7,0H850v18.7H831.3Zm-448.6,0h18.7v18.7H382.7ZM364,434h18.7v18.7H364Zm-18.7,0H364v18.7H345.3Zm-18.7,0h18.7v18.7H326.6Zm-18.7,0h18.7v18.7H307.9Zm-18.7,0h18.7v18.7H289.2Zm-18.7,0h18.7v18.7H270.5Zm-18.7,0h18.7v18.7H251.8Zm-18.7,0h18.7v18.7H233.1Zm-18.7,0h18.7v18.7H214.4Zm-18.6,0h18.7v18.7H195.8Zm-18.7,0h18.7v18.7H177.1Zm-18.7,0h18.7v18.7H158.4Zm1532.7-18.6h18.7v18.7h-18.7Zm-18.7,0h18.7v18.7h-18.7Zm-56.1,0H1635v18.7h-18.7Zm-18.7,0h18.7v18.7h-18.7Zm-18.7,0h18.7v18.7h-18.7Zm-18.6,0H1579v18.7h-18.7Zm-18.7,0h18.7v18.7h-18.7Zm-18.7,0h18.7v18.7h-18.7Zm-18.7,0h18.7v18.7h-18.7Zm-18.7,0h18.7v18.7h-18.7Zm-18.7,0h18.7v18.7h-18.7Zm-18.7,0h18.7v18.7h-18.7Zm-18.7,0h18.7v18.7h-18.7Zm-18.7,0h18.7v18.7h-18.7Zm-18.7,0h18.7v18.7H1392Zm-18.7,0H1392v18.7h-18.7Zm-18.7,0h18.7v18.7h-18.7Zm-18.7,0h18.7v18.7h-18.7Zm-18.6,0H1336v18.7h-18.7Zm-18.7,0h18.7v18.7h-18.7Zm-18.7,0h18.7v18.7h-18.7Zm-18.7,0h18.7v18.7h-18.7Zm-18.7,0h18.7v18.7h-18.7Zm-18.7,0h18.7v18.7h-18.7Zm-18.7,0h18.7v18.7h-18.7Zm-18.7,0h18.7v18.7h-18.7Zm-18.7,0h18.7v18.7h-18.7Zm-18.7,0h18.7v18.7H1149Zm-18.7,0H1149v18.7h-18.7Zm-18.6,0h18.7v18.7h-18.7Zm-168.3,0h18.7v18.7H943.4Zm-18.7,0h18.7v18.7H924.7Zm-18.7,0h18.7v18.7H906Zm-18.7,0H906v18.7H887.3Zm-18.6,0h18.7v18.7H868.7Zm-18.7,0h18.7v18.7H850Zm-429.9,0h18.7v18.7H420.1Zm-18.7,0h18.7v18.7H401.4Zm-18.7,0h18.7v18.7H382.7Zm-18.7,0h18.7v18.7H364Zm-18.7,0H364v18.7H345.3Zm-18.7,0h18.7v18.7H326.6Zm-18.7,0h18.7v18.7H307.9Zm-18.7,0h18.7v18.7H289.2Zm-18.7,0h18.7v18.7H270.5Zm-18.7,0h18.7v18.7H251.8Zm-18.7,0h18.7v18.7H233.1Zm-18.7,0h18.7v18.7H214.4Zm-18.6,0h18.7v18.7H195.8Zm-18.7,0h18.7v18.7H177.1Zm-18.7,0h18.7v18.7H158.4Zm1570.1-18.7h18.7v18.7h-18.7Zm-18.7,0h18.7v18.7h-18.7Zm-18.7,0h18.7v18.7h-18.7Zm-18.7,0h18.7v18.7h-18.7Zm-18.7,0h18.7v18.7h-18.7Zm-56.1,0h18.7v18.7h-18.7Zm-18.7,0h18.7v18.7h-18.7Zm-18.6,0H1579v18.7h-18.7Zm-18.7,0h18.7v18.7h-18.7Zm-18.7,0h18.7v18.7h-18.7Zm-18.7,0h18.7v18.7h-18.7Zm-18.7,0h18.7v18.7h-18.7Zm-18.7,0h18.7v18.7h-18.7Zm-18.7,0h18.7v18.7h-18.7Zm-18.7,0h18.7v18.7h-18.7Zm-18.7,0h18.7v18.7h-18.7Zm-18.7,0h18.7v18.7H1392Zm-18.7,0H1392v18.7h-18.7Zm-18.7,0h18.7v18.7h-18.7Zm-18.7,0h18.7v18.7h-18.7Zm-18.6,0H1336v18.7h-18.7Zm-18.7,0h18.7v18.7h-18.7Zm-18.7,0h18.7v18.7h-18.7Zm-18.7,0h18.7v18.7h-18.7Zm-18.7,0h18.7v18.7h-18.7Zm-18.7,0h18.7v18.7h-18.7Zm-18.7,0h18.7v18.7h-18.7Zm-18.7,0h18.7v18.7h-18.7Zm-18.7,0h18.7v18.7h-18.7Zm-18.7,0h18.7v18.7H1149Zm-18.7,0H1149v18.7h-18.7Zm-18.6,0h18.7v18.7h-18.7Zm-18.7,0h18.7v18.7H1093Zm-18.7,0H1093v18.7h-18.7Zm-18.7,0h18.7v18.7h-18.7Zm-93.5,0h18.7v18.7H962.1Zm-37.4,0h18.7v18.7H924.7Zm-56,0h18.7v18.7H868.7Zm-18.7,0h18.7v18.7H850Zm-18.7,0H850v18.7H831.3Zm-392.5,0h18.7v18.7H438.8Zm-18.7,0h18.7v18.7H420.1Zm-18.7,0h18.7v18.7H401.4Zm-18.7,0h18.7v18.7H382.7Zm-18.7,0h18.7v18.7H364Zm-18.7,0H364v18.7H345.3Zm-18.7,0h18.7v18.7H326.6Zm-18.7,0h18.7v18.7H307.9Zm-18.7,0h18.7v18.7H289.2Zm-18.7,0h18.7v18.7H270.5Zm-18.7,0h18.7v18.7H251.8Zm-18.7,0h18.7v18.7H233.1Zm-18.7,0h18.7v18.7H214.4Zm-18.6,0h18.7v18.7H195.8Zm-18.7,0h18.7v18.7H177.1Zm-18.7,0h18.7v18.7H158.4Zm-18.7,0h18.7v18.7H139.7ZM1709.8,378h18.7v18.7h-18.7Zm-74.8,0h18.7v18.7H1635Zm-18.7,0H1635v18.7h-18.7Zm-18.7,0h18.7v18.7h-18.7Zm-18.7,0h18.7v18.7h-18.7Zm-18.6,0H1579v18.7h-18.7Zm-18.7,0h18.7v18.7h-18.7Zm-18.7,0h18.7v18.7h-18.7Zm-18.7,0h18.7v18.7h-18.7Zm-18.7,0h18.7v18.7h-18.7Zm-18.7,0h18.7v18.7h-18.7Zm-18.7,0h18.7v18.7h-18.7Zm-18.7,0h18.7v18.7h-18.7Zm-18.7,0h18.7v18.7h-18.7Zm-18.7,0h18.7v18.7H1392Zm-18.7,0H1392v18.7h-18.7Zm-18.7,0h18.7v18.7h-18.7Zm-18.7,0h18.7v18.7h-18.7Zm-18.6,0H1336v18.7h-18.7Zm-18.7,0h18.7v18.7h-18.7Zm-18.7,0h18.7v18.7h-18.7Zm-18.7,0h18.7v18.7h-18.7Zm-18.7,0h18.7v18.7h-18.7Zm-18.7,0h18.7v18.7h-18.7Zm-18.7,0h18.7v18.7h-18.7Zm-37.4,0h18.7v18.7h-18.7Zm-18.7,0h18.7v18.7H1149Zm-18.7,0H1149v18.7h-18.7Zm-18.6,0h18.7v18.7h-18.7Zm-18.7,0h18.7v18.7H1093Zm-18.7,0H1093v18.7h-18.7Zm-18.7,0h18.7v18.7h-18.7Zm-18.7,0h18.7v18.7h-18.7Zm-18.7,0h18.7v18.7h-18.7Zm-18.7,0h18.7v18.7H999.5Zm-18.7,0h18.7v18.7H980.8Zm-56.1,0h18.7v18.7H924.7Zm-37.4,0H906v18.7H887.3Zm-18.6,0h18.7v18.7H868.7ZM850,378h18.7v18.7H850Zm-18.7,0H850v18.7H831.3Zm-373.9,0h18.7v18.7H457.4Zm-18.6,0h18.7v18.7H438.8Zm-18.7,0h18.7v18.7H420.1Zm-18.7,0h18.7v18.7H401.4Zm-18.7,0h18.7v18.7H382.7ZM364,378h18.7v18.7H364Zm-18.7,0H364v18.7H345.3Zm-18.7,0h18.7v18.7H326.6Zm-18.7,0h18.7v18.7H307.9Zm-18.7,0h18.7v18.7H289.2Zm-18.7,0h18.7v18.7H270.5Zm-18.7,0h18.7v18.7H251.8Zm-18.7,0h18.7v18.7H233.1Zm-18.7,0h18.7v18.7H214.4Zm-18.6,0h18.7v18.7H195.8Zm-18.7,0h18.7v18.7H177.1Zm-18.7,0h18.7v18.7H158.4Zm1551.4-18.7h18.7V378h-18.7Zm-74.8,0h18.7V378H1635Zm-18.7,0H1635V378h-18.7Zm-18.7,0h18.7V378h-18.7Zm-18.7,0h18.7V378h-18.7Zm-18.6,0H1579V378h-18.7Zm-18.7,0h18.7V378h-18.7Zm-18.7,0h18.7V378h-18.7Zm-18.7,0h18.7V378h-18.7Zm-18.7,0h18.7V378h-18.7Zm-18.7,0h18.7V378h-18.7Zm-18.7,0h18.7V378h-18.7Zm-18.7,0h18.7V378h-18.7Zm-18.7,0h18.7V378h-18.7Zm-18.7,0h18.7V378H1392Zm-18.7,0H1392V378h-18.7Zm-18.7,0h18.7V378h-18.7Zm-18.7,0h18.7V378h-18.7Zm-18.6,0H1336V378h-18.7Zm-18.7,0h18.7V378h-18.7Zm-18.7,0h18.7V378h-18.7Zm-18.7,0h18.7V378h-18.7Zm-18.7,0h18.7V378h-18.7Zm-18.7,0h18.7V378h-18.7Zm-18.7,0h18.7V378h-18.7Zm-18.7,0h18.7V378h-18.7Zm-18.7,0h18.7V378h-18.7Zm-18.7,0h18.7V378H1149Zm-18.7,0H1149V378h-18.7Zm-18.6,0h18.7V378h-18.7Zm-18.7,0h18.7V378H1093Zm-18.7,0H1093V378h-18.7Zm-18.7,0h18.7V378h-18.7Zm-18.7,0h18.7V378h-18.7Zm-18.7,0h18.7V378h-18.7Zm-18.7,0h18.7V378H999.5Zm-37.4,0h18.7V378H962.1Zm-18.7,0h18.7V378H943.4Zm-18.7,0h18.7V378H924.7Zm-37.4,0H906V378H887.3Zm-18.6,0h18.7V378H868.7Zm-18.7,0h18.7V378H850Zm-18.7,0H850V378H831.3Zm-355.2,0h18.7V378H476.1Zm-18.7,0h18.7V378H457.4Zm-18.6,0h18.7V378H438.8Zm-18.7,0h18.7V378H420.1Zm-18.7,0h18.7V378H401.4Zm-18.7,0h18.7V378H382.7Zm-18.7,0h18.7V378H364Zm-18.7,0H364V378H345.3Zm-18.7,0h18.7V378H326.6Zm-18.7,0h18.7V378H307.9Zm-18.7,0h18.7V378H289.2Zm-18.7,0h18.7V378H270.5Zm-18.7,0h18.7V378H251.8Zm-18.7,0h18.7V378H233.1Zm-18.7,0h18.7V378H214.4Zm-18.6,0h18.7V378H195.8Zm-18.7,0h18.7V378H177.1Zm-18.7,0h18.7V378H158.4Zm1551.4-18.7h18.7v18.7h-18.7Zm-56.1,0h18.7v18.7h-18.7Zm-18.7,0h18.7v18.7H1635Zm-18.7,0H1635v18.7h-18.7Zm-18.7,0h18.7v18.7h-18.7Zm-18.7,0h18.7v18.7h-18.7Zm-18.6,0H1579v18.7h-18.7Zm-18.7,0h18.7v18.7h-18.7Zm-18.7,0h18.7v18.7h-18.7Zm-18.7,0h18.7v18.7h-18.7Zm-18.7,0h18.7v18.7h-18.7Zm-18.7,0h18.7v18.7h-18.7Zm-18.7,0h18.7v18.7h-18.7Zm-18.7,0h18.7v18.7h-18.7Zm-18.7,0h18.7v18.7h-18.7Zm-18.7,0h18.7v18.7H1392Zm-18.7,0H1392v18.7h-18.7Zm-18.7,0h18.7v18.7h-18.7Zm-18.7,0h18.7v18.7h-18.7Zm-18.6,0H1336v18.7h-18.7Zm-18.7,0h18.7v18.7h-18.7Zm-18.7,0h18.7v18.7h-18.7Zm-18.7,0h18.7v18.7h-18.7Zm-18.7,0h18.7v18.7h-18.7Zm-18.7,0h18.7v18.7h-18.7Zm-18.7,0h18.7v18.7h-18.7Zm-18.7,0h18.7v18.7h-18.7Zm-37.4,0h18.7v18.7H1149Zm-18.7,0H1149v18.7h-18.7Zm-18.6,0h18.7v18.7h-18.7Zm-18.7,0h18.7v18.7H1093Zm-18.7,0H1093v18.7h-18.7Zm-37.4,0h18.7v18.7h-18.7Zm-18.7,0h18.7v18.7h-18.7Zm-18.7,0h18.7v18.7H999.5Zm-18.7,0h18.7v18.7H980.8Zm-18.7,0h18.7v18.7H962.1Zm-18.7,0h18.7v18.7H943.4Zm-18.7,0h18.7v18.7H924.7Zm-18.7,0h18.7v18.7H906Zm-18.7,0H906v18.7H887.3Zm-18.6,0h18.7v18.7H868.7Zm-336.5,0h18.7v18.7H532.2Zm-18.7,0h18.7v18.7H513.5Zm-18.7,0h18.7v18.7H494.8Zm-18.7,0h18.7v18.7H476.1Zm-18.7,0h18.7v18.7H457.4Zm-18.6,0h18.7v18.7H438.8Zm-18.7,0h18.7v18.7H420.1Zm-18.7,0h18.7v18.7H401.4Zm-18.7,0h18.7v18.7H382.7Zm-18.7,0h18.7v18.7H364Zm-18.7,0H364v18.7H345.3Zm-18.7,0h18.7v18.7H326.6Zm-18.7,0h18.7v18.7H307.9Zm-18.7,0h18.7v18.7H289.2Zm-18.7,0h18.7v18.7H270.5Zm-18.7,0h18.7v18.7H251.8Zm-18.7,0h18.7v18.7H233.1Zm-18.7,0h18.7v18.7H214.4Zm-18.6,0h18.7v18.7H195.8Zm-18.7,0h18.7v18.7H177.1Zm1514-18.7h18.7v18.7h-18.7Zm-37.4,0h18.7v18.7h-18.7Zm-18.7,0h18.7v18.7H1635Zm-18.7,0H1635v18.7h-18.7Zm-18.7,0h18.7v18.7h-18.7Zm-18.7,0h18.7v18.7h-18.7Zm-18.6,0H1579v18.7h-18.7Zm-18.7,0h18.7v18.7h-18.7Zm-18.7,0h18.7v18.7h-18.7Zm-18.7,0h18.7v18.7h-18.7Zm-18.7,0h18.7v18.7h-18.7Zm-18.7,0h18.7v18.7h-18.7Zm-18.7,0h18.7v18.7h-18.7Zm-18.7,0h18.7v18.7h-18.7Zm-18.7,0h18.7v18.7h-18.7Zm-18.7,0h18.7v18.7H1392Zm-18.7,0H1392v18.7h-18.7Zm-18.7,0h18.7v18.7h-18.7Zm-18.7,0h18.7v18.7h-18.7Zm-18.6,0H1336v18.7h-18.7Zm-18.7,0h18.7v18.7h-18.7Zm-18.7,0h18.7v18.7h-18.7Zm-18.7,0h18.7v18.7h-18.7Zm-18.7,0h18.7v18.7h-18.7Zm-18.7,0h18.7v18.7h-18.7Zm-18.7,0h18.7v18.7h-18.7Zm-18.7,0h18.7v18.7h-18.7Zm-18.7,0h18.7v18.7h-18.7Zm-18.7,0h18.7v18.7H1149Zm-18.7,0H1149v18.7h-18.7Zm-18.6,0h18.7v18.7h-18.7Zm-18.7,0h18.7v18.7H1093Zm-18.7,0H1093v18.7h-18.7Zm-18.7,0h18.7v18.7h-18.7Zm-18.7,0h18.7v18.7h-18.7Zm-18.7,0h18.7v18.7h-18.7Zm-18.7,0h18.7v18.7H999.5Zm-18.7,0h18.7v18.7H980.8Zm-18.7,0h18.7v18.7H962.1Zm-18.7,0h18.7v18.7H943.4Zm-18.7,0h18.7v18.7H924.7Zm-18.7,0h18.7v18.7H906Zm-18.7,0H906v18.7H887.3Zm-18.6,0h18.7v18.7H868.7Zm-299.1,0h18.7v18.7H569.6Zm-18.7,0h18.7v18.7H550.9Zm-18.7,0h18.7v18.7H532.2Zm-18.7,0h18.7v18.7H513.5Zm-18.7,0h18.7v18.7H494.8Zm-18.7,0h18.7v18.7H476.1Zm-18.7,0h18.7v18.7H457.4Zm-18.6,0h18.7v18.7H438.8Zm-18.7,0h18.7v18.7H420.1Zm-18.7,0h18.7v18.7H401.4Zm-18.7,0h18.7v18.7H382.7Zm-18.7,0h18.7v18.7H364Zm-18.7,0H364v18.7H345.3Zm-18.7,0h18.7v18.7H326.6Zm-18.7,0h18.7v18.7H307.9Zm-18.7,0h18.7v18.7H289.2Zm-18.7,0h18.7v18.7H270.5Zm-18.7,0h18.7v18.7H251.8Zm-18.7,0h18.7v18.7H233.1Zm-18.7,0h18.7v18.7H214.4Zm-18.6,0h18.7v18.7H195.8Zm-18.7,0h18.7v18.7H177.1Zm1514-18.7h18.7v18.7h-18.7Zm-37.4,0h18.7v18.7h-18.7Zm-18.7,0h18.7v18.7H1635Zm-18.7,0H1635v18.7h-18.7Zm-18.7,0h18.7v18.7h-18.7Zm-18.7,0h18.7v18.7h-18.7Zm-18.6,0H1579v18.7h-18.7Zm-18.7,0h18.7v18.7h-18.7Zm-18.7,0h18.7v18.7h-18.7Zm-18.7,0h18.7v18.7h-18.7Zm-18.7,0h18.7v18.7h-18.7Zm-18.7,0h18.7v18.7h-18.7Zm-18.7,0h18.7v18.7h-18.7Zm-18.7,0h18.7v18.7h-18.7Zm-18.7,0h18.7v18.7h-18.7Zm-18.7,0h18.7v18.7H1392Zm-18.7,0H1392v18.7h-18.7Zm-18.7,0h18.7v18.7h-18.7Zm-18.7,0h18.7v18.7h-18.7Zm-18.6,0H1336v18.7h-18.7Zm-18.7,0h18.7v18.7h-18.7Zm-18.7,0h18.7v18.7h-18.7Zm-18.7,0h18.7v18.7h-18.7Zm-18.7,0h18.7v18.7h-18.7Zm-18.7,0h18.7v18.7h-18.7Zm-18.7,0h18.7v18.7h-18.7Zm-18.7,0h18.7v18.7h-18.7Zm-18.7,0h18.7v18.7h-18.7Zm-18.7,0h18.7v18.7H1149Zm-18.7,0H1149v18.7h-18.7Zm-18.6,0h18.7v18.7h-18.7Zm-18.7,0h18.7v18.7H1093Zm-18.7,0H1093v18.7h-18.7Zm-18.7,0h18.7v18.7h-18.7Zm-18.7,0h18.7v18.7h-18.7Zm-18.7,0h18.7v18.7h-18.7Zm-18.7,0h18.7v18.7H999.5Zm-18.7,0h18.7v18.7H980.8Zm-18.7,0h18.7v18.7H962.1Zm-18.7,0h18.7v18.7H943.4Zm-18.7,0h18.7v18.7H924.7Zm-18.7,0h18.7v18.7H906Zm-18.7,0H906v18.7H887.3Zm-18.6,0h18.7v18.7H868.7Zm-299.1,0h18.7v18.7H569.6Zm-18.7,0h18.7v18.7H550.9Zm-18.7,0h18.7v18.7H532.2Zm-18.7,0h18.7v18.7H513.5Zm-18.7,0h18.7v18.7H494.8Zm-18.7,0h18.7v18.7H476.1Zm-18.7,0h18.7v18.7H457.4Zm-18.6,0h18.7v18.7H438.8Zm-18.7,0h18.7v18.7H420.1Zm-18.7,0h18.7v18.7H401.4Zm-18.7,0h18.7v18.7H382.7Zm-18.7,0h18.7v18.7H364Zm-18.7,0H364v18.7H345.3Zm-18.7,0h18.7v18.7H326.6Zm-18.7,0h18.7v18.7H307.9Zm-18.7,0h18.7v18.7H289.2Zm-18.7,0h18.7v18.7H270.5Zm-18.7,0h18.7v18.7H251.8Zm-18.7,0h18.7v18.7H233.1Zm-18.7,0h18.7v18.7H214.4Zm-18.6,0h18.7v18.7H195.8Zm-18.7,0h18.7v18.7H177.1Zm1495.3-18.7h18.7v18.7h-18.7Zm-18.7,0h18.7v18.7h-18.7Zm-18.7,0h18.7v18.7H1635Zm-18.7,0H1635v18.7h-18.7Zm-18.7,0h18.7v18.7h-18.7Zm-18.7,0h18.7v18.7h-18.7Zm-18.6,0H1579v18.7h-18.7Zm-18.7,0h18.7v18.7h-18.7Zm-18.7,0h18.7v18.7h-18.7Zm-18.7,0h18.7v18.7h-18.7Zm-18.7,0h18.7v18.7h-18.7Zm-18.7,0h18.7v18.7h-18.7Zm-18.7,0h18.7v18.7h-18.7Zm-18.7,0h18.7v18.7h-18.7Zm-18.7,0h18.7v18.7h-18.7Zm-18.7,0h18.7v18.7H1392Zm-18.7,0H1392v18.7h-18.7Zm-18.7,0h18.7v18.7h-18.7Zm-18.7,0h18.7v18.7h-18.7Zm-18.6,0H1336v18.7h-18.7Zm-18.7,0h18.7v18.7h-18.7Zm-18.7,0h18.7v18.7h-18.7Zm-18.7,0h18.7v18.7h-18.7Zm-18.7,0h18.7v18.7h-18.7Zm-18.7,0h18.7v18.7h-18.7Zm-18.7,0h18.7v18.7h-18.7Zm-18.7,0h18.7v18.7h-18.7Zm-18.7,0h18.7v18.7h-18.7Zm-18.7,0h18.7v18.7H1149Zm-18.7,0H1149v18.7h-18.7Zm-18.6,0h18.7v18.7h-18.7Zm-18.7,0h18.7v18.7H1093Zm-18.7,0H1093v18.7h-18.7Zm-18.7,0h18.7v18.7h-18.7Zm-18.7,0h18.7v18.7h-18.7Zm-18.7,0h18.7v18.7h-18.7Zm-18.7,0h18.7v18.7H999.5Zm-18.7,0h18.7v18.7H980.8Zm-18.7,0h18.7v18.7H962.1Zm-18.7,0h18.7v18.7H943.4Zm-18.7,0h18.7v18.7H924.7Zm-18.7,0h18.7v18.7H906Zm-18.7,0H906v18.7H887.3Zm-18.6,0h18.7v18.7H868.7Zm-18.7,0h18.7v18.7H850Zm-18.7,0H850v18.7H831.3Zm-261.7,0h18.7v18.7H569.6Zm-18.7,0h18.7v18.7H550.9Zm-18.7,0h18.7v18.7H532.2Zm-18.7,0h18.7v18.7H513.5Zm-18.7,0h18.7v18.7H494.8Zm-18.7,0h18.7v18.7H476.1Zm-18.7,0h18.7v18.7H457.4Zm-18.6,0h18.7v18.7H438.8Zm-18.7,0h18.7v18.7H420.1Zm-18.7,0h18.7v18.7H401.4Zm-18.7,0h18.7v18.7H382.7Zm-18.7,0h18.7v18.7H364Zm-18.7,0H364v18.7H345.3Zm-18.7,0h18.7v18.7H326.6Zm-18.7,0h18.7v18.7H307.9Zm-18.7,0h18.7v18.7H289.2Zm-18.7,0h18.7v18.7H270.5Zm-18.7,0h18.7v18.7H251.8Zm-18.7,0h18.7v18.7H233.1Zm-18.7,0h18.7v18.7H214.4Zm-18.6,0h18.7v18.7H195.8Zm-18.7,0h18.7v18.7H177.1Zm-18.7,0h18.7v18.7H158.4Zm-130.9,0H46.2v18.7H27.5Zm1719.7-18.7h18.7v18.7h-18.7Zm-18.7,0h18.7v18.7h-18.7Zm-74.8,0h18.7v18.7h-18.7Zm-18.7,0h18.7v18.7H1635Zm-18.7,0H1635v18.7h-18.7Zm-18.7,0h18.7v18.7h-18.7Zm-18.7,0h18.7v18.7h-18.7Zm-18.6,0H1579v18.7h-18.7Zm-18.7,0h18.7v18.7h-18.7Zm-18.7,0h18.7v18.7h-18.7Zm-18.7,0h18.7v18.7h-18.7Zm-18.7,0h18.7v18.7h-18.7Zm-18.7,0h18.7v18.7h-18.7Zm-18.7,0h18.7v18.7h-18.7Zm-18.7,0h18.7v18.7h-18.7Zm-18.7,0h18.7v18.7h-18.7Zm-18.7,0h18.7v18.7H1392Zm-18.7,0H1392v18.7h-18.7Zm-18.7,0h18.7v18.7h-18.7Zm-18.7,0h18.7v18.7h-18.7Zm-18.6,0H1336v18.7h-18.7Zm-18.7,0h18.7v18.7h-18.7Zm-18.7,0h18.7v18.7h-18.7Zm-18.7,0h18.7v18.7h-18.7Zm-18.7,0h18.7v18.7h-18.7Zm-18.7,0h18.7v18.7h-18.7Zm-18.7,0h18.7v18.7h-18.7Zm-18.7,0h18.7v18.7h-18.7Zm-18.7,0h18.7v18.7h-18.7Zm-18.7,0h18.7v18.7H1149Zm-18.7,0H1149v18.7h-18.7Zm-18.6,0h18.7v18.7h-18.7Zm-18.7,0h18.7v18.7H1093Zm-18.7,0H1093v18.7h-18.7Zm-18.7,0h18.7v18.7h-18.7Zm-18.7,0h18.7v18.7h-18.7Zm-18.7,0h18.7v18.7h-18.7Zm-18.7,0h18.7v18.7H999.5Zm-37.4,0h18.7v18.7H962.1Zm-18.7,0h18.7v18.7H943.4Zm-18.7,0h18.7v18.7H924.7Zm-56,0h18.7v18.7H868.7Zm-18.7,0h18.7v18.7H850Zm-299.1,0h18.7v18.7H550.9Zm-18.7,0h18.7v18.7H532.2Zm-18.7,0h18.7v18.7H513.5Zm-18.7,0h18.7v18.7H494.8Zm-18.7,0h18.7v18.7H476.1Zm-74.7,0h18.7v18.7H401.4Zm-18.7,0h18.7v18.7H382.7Zm-18.7,0h18.7v18.7H364Zm-18.7,0H364v18.7H345.3Zm-18.7,0h18.7v18.7H326.6Zm-18.7,0h18.7v18.7H307.9Zm-18.7,0h18.7v18.7H289.2Zm-18.7,0h18.7v18.7H270.5Zm-18.7,0h18.7v18.7H251.8Zm-18.7,0h18.7v18.7H233.1Zm-18.7,0h18.7v18.7H214.4Zm-18.6,0h18.7v18.7H195.8Zm-18.7,0h18.7v18.7H177.1Zm-93.5,0h18.7v18.7H83.6Zm-18.7,0H83.6v18.7H64.9Zm-18.7,0H64.9v18.7H46.2Zm1701-18.6h18.7v18.7h-18.7Zm-18.7,0h18.7v18.7h-18.7Zm-18.7,0h18.7v18.7h-18.7Zm-93.5,0H1635v18.7h-18.7Zm-18.7,0h18.7v18.7h-18.7Zm-18.7,0h18.7v18.7h-18.7Zm-18.6,0H1579v18.7h-18.7Zm-18.7,0h18.7v18.7h-18.7Zm-18.7,0h18.7v18.7h-18.7Zm-18.7,0h18.7v18.7h-18.7Zm-18.7,0h18.7v18.7h-18.7Zm-18.7,0h18.7v18.7h-18.7Zm-18.7,0h18.7v18.7h-18.7Zm-18.7,0h18.7v18.7h-18.7Zm-18.7,0h18.7v18.7h-18.7Zm-18.7,0h18.7v18.7H1392Zm-18.7,0H1392v18.7h-18.7Zm-18.7,0h18.7v18.7h-18.7Zm-18.7,0h18.7v18.7h-18.7Zm-18.6,0H1336v18.7h-18.7Zm-18.7,0h18.7v18.7h-18.7Zm-18.7,0h18.7v18.7h-18.7Zm-18.7,0h18.7v18.7h-18.7Zm-18.7,0h18.7v18.7h-18.7Zm-18.7,0h18.7v18.7h-18.7Zm-18.7,0h18.7v18.7h-18.7Zm-18.7,0h18.7v18.7h-18.7Zm-18.7,0h18.7v18.7h-18.7Zm-18.7,0h18.7v18.7H1149Zm-18.7,0H1149v18.7h-18.7Zm-18.6,0h18.7v18.7h-18.7Zm-18.7,0h18.7v18.7H1093Zm-18.7,0H1093v18.7h-18.7Zm-18.7,0h18.7v18.7h-18.7Zm-18.7,0h18.7v18.7h-18.7Zm-18.7,0h18.7v18.7h-18.7Zm-37.4,0h18.7v18.7H980.8Zm-18.7,0h18.7v18.7H962.1Zm-18.7,0h18.7v18.7H943.4Zm-18.7,0h18.7v18.7H924.7Zm-261.7,0h18.7v18.7H663Zm-112.1,0h18.7v18.7H550.9Zm-37.4,0h18.7v18.7H513.5Zm-18.7,0h18.7v18.7H494.8Zm-93.4,0h18.7v18.7H401.4Zm-18.7,0h18.7v18.7H382.7Zm-18.7,0h18.7v18.7H364Zm-18.7,0H364v18.7H345.3Zm-18.7,0h18.7v18.7H326.6Zm-18.7,0h18.7v18.7H307.9Zm-18.7,0h18.7v18.7H289.2Zm-18.7,0h18.7v18.7H270.5Zm-18.7,0h18.7v18.7H251.8Zm-18.7,0h18.7v18.7H233.1Zm-18.7,0h18.7v18.7H214.4Zm-18.6,0h18.7v18.7H195.8Zm-18.7,0h18.7v18.7H177.1Zm-18.7,0h18.7v18.7H158.4Zm-18.7,0h18.7v18.7H139.7Zm-18.7,0h18.7v18.7H121Zm-18.7,0H121v18.7H102.3Zm-18.7,0h18.7v18.7H83.6Zm-18.7,0H83.6v18.7H64.9Zm-18.7,0H64.9v18.7H46.2Zm1682.3-18.7h18.7v18.7h-18.7Zm-18.7,0h18.7v18.7h-18.7Zm-37.4,0h18.7v18.7h-18.7Zm-18.7,0h18.7v18.7h-18.7Zm-18.7,0h18.7v18.7H1635Zm-18.7,0H1635v18.7h-18.7Zm-18.7,0h18.7v18.7h-18.7Zm-18.7,0h18.7v18.7h-18.7Zm-18.6,0H1579v18.7h-18.7Zm-18.7,0h18.7v18.7h-18.7Zm-18.7,0h18.7v18.7h-18.7Zm-18.7,0h18.7v18.7h-18.7Zm-18.7,0h18.7v18.7h-18.7Zm-18.7,0h18.7v18.7h-18.7Zm-18.7,0h18.7v18.7h-18.7Zm-18.7,0h18.7v18.7h-18.7Zm-18.7,0h18.7v18.7h-18.7Zm-18.7,0h18.7v18.7H1392Zm-18.7,0H1392v18.7h-18.7Zm-18.7,0h18.7v18.7h-18.7Zm-18.7,0h18.7v18.7h-18.7Zm-18.6,0H1336v18.7h-18.7Zm-18.7,0h18.7v18.7h-18.7Zm-18.7,0h18.7v18.7h-18.7Zm-18.7,0h18.7v18.7h-18.7Zm-18.7,0h18.7v18.7h-18.7Zm-18.7,0h18.7v18.7h-18.7Zm-18.7,0h18.7v18.7h-18.7Zm-18.7,0h18.7v18.7h-18.7Zm-18.7,0h18.7v18.7h-18.7Zm-18.7,0h18.7v18.7H1149Zm-18.7,0H1149v18.7h-18.7Zm-18.6,0h18.7v18.7h-18.7Zm-18.7,0h18.7v18.7H1093Zm-18.7,0H1093v18.7h-18.7Zm-18.7,0h18.7v18.7h-18.7Zm-18.7,0h18.7v18.7h-18.7Zm-18.7,0h18.7v18.7h-18.7Zm-18.7,0h18.7v18.7H999.5Zm-18.7,0h18.7v18.7H980.8Zm-18.7,0h18.7v18.7H962.1Zm-18.7,0h18.7v18.7H943.4Zm-18.7,0h18.7v18.7H924.7Zm-261.7,0h18.7v18.7H663Zm-18.6,0h18.7v18.7H644.4Zm-93.5,0h18.7v18.7H550.9Zm-18.7,0h18.7v18.7H532.2Zm-18.7,0h18.7v18.7H513.5Zm-18.7,0h18.7v18.7H494.8Zm-74.7,0h18.7v18.7H420.1Zm-18.7,0h18.7v18.7H401.4Zm-18.7,0h18.7v18.7H382.7Zm-18.7,0h18.7v18.7H364Zm-18.7,0H364v18.7H345.3Zm-18.7,0h18.7v18.7H326.6Zm-18.7,0h18.7v18.7H307.9Zm-18.7,0h18.7v18.7H289.2Zm-18.7,0h18.7v18.7H270.5Zm-18.7,0h18.7v18.7H251.8Zm-18.7,0h18.7v18.7H233.1Zm-18.7,0h18.7v18.7H214.4Zm-18.6,0h18.7v18.7H195.8Zm-18.7,0h18.7v18.7H177.1Zm-18.7,0h18.7v18.7H158.4Zm-18.7,0h18.7v18.7H139.7Zm-18.7,0h18.7v18.7H121Zm-18.7,0H121v18.7H102.3Zm-18.7,0h18.7v18.7H83.6Zm-18.7,0H83.6v18.7H64.9Zm1701-18.7h18.7v18.7h-18.7Zm-18.7,0h18.7v18.7h-18.7Zm-18.7,0h18.7v18.7h-18.7Zm-18.7,0h18.7v18.7h-18.7Zm-18.7,0h18.7v18.7h-18.7Zm-18.7,0h18.7v18.7h-18.7Zm-18.7,0h18.7v18.7h-18.7Zm-18.7,0h18.7v18.7H1635Zm-18.7,0H1635v18.7h-18.7Zm-18.7,0h18.7v18.7h-18.7Zm-18.7,0h18.7v18.7h-18.7Zm-18.6,0H1579v18.7h-18.7Zm-18.7,0h18.7v18.7h-18.7Zm-18.7,0h18.7v18.7h-18.7Zm-18.7,0h18.7v18.7h-18.7Zm-18.7,0h18.7v18.7h-18.7Zm-18.7,0h18.7v18.7h-18.7Zm-18.7,0h18.7v18.7h-18.7Zm-18.7,0h18.7v18.7h-18.7Zm-18.7,0h18.7v18.7h-18.7Zm-18.7,0h18.7v18.7H1392Zm-18.7,0H1392v18.7h-18.7Zm-18.7,0h18.7v18.7h-18.7Zm-18.7,0h18.7v18.7h-18.7Zm-18.6,0H1336v18.7h-18.7Zm-18.7,0h18.7v18.7h-18.7Zm-18.7,0h18.7v18.7h-18.7Zm-18.7,0h18.7v18.7h-18.7Zm-18.7,0h18.7v18.7h-18.7Zm-18.7,0h18.7v18.7h-18.7Zm-18.7,0h18.7v18.7h-18.7Zm-18.7,0h18.7v18.7h-18.7Zm-18.7,0h18.7v18.7h-18.7Zm-18.7,0h18.7v18.7H1149Zm-18.7,0H1149v18.7h-18.7Zm-18.6,0h18.7v18.7h-18.7Zm-18.7,0h18.7v18.7H1093Zm-18.7,0H1093v18.7h-18.7Zm-18.7,0h18.7v18.7h-18.7Zm-18.7,0h18.7v18.7h-18.7Zm-18.7,0h18.7v18.7h-18.7Zm-18.7,0h18.7v18.7H999.5Zm-18.7,0h18.7v18.7H980.8Zm-18.7,0h18.7v18.7H962.1Zm-18.7,0h18.7v18.7H943.4Zm-130.8,0h18.7v18.7H812.6Zm-18.7,0h18.7v18.7H793.9Zm-18.7,0h18.7v18.7H775.2Zm-93.5,0h18.7v18.7H681.7Zm-18.7,0h18.7v18.7H663Zm-18.6,0h18.7v18.7H644.4Zm-18.7,0h18.7v18.7H625.7Zm-37.4,0H607v18.7H588.3Zm-18.7,0h18.7v18.7H569.6Zm-18.7,0h18.7v18.7H550.9Zm-18.7,0h18.7v18.7H532.2Zm-18.7,0h18.7v18.7H513.5Zm-37.4,0h18.7v18.7H476.1Zm-18.7,0h18.7v18.7H457.4Zm-18.6,0h18.7v18.7H438.8Zm-18.7,0h18.7v18.7H420.1Zm-18.7,0h18.7v18.7H401.4Zm-18.7,0h18.7v18.7H382.7Zm-18.7,0h18.7v18.7H364Zm-18.7,0H364v18.7H345.3Zm-18.7,0h18.7v18.7H326.6Zm-18.7,0h18.7v18.7H307.9Zm-18.7,0h18.7v18.7H289.2Zm-18.7,0h18.7v18.7H270.5Zm-18.7,0h18.7v18.7H251.8Zm-18.7,0h18.7v18.7H233.1Zm-18.7,0h18.7v18.7H214.4Zm-18.6,0h18.7v18.7H195.8Zm-18.7,0h18.7v18.7H177.1Zm-18.7,0h18.7v18.7H158.4Zm-18.7,0h18.7v18.7H139.7Zm-18.7,0h18.7v18.7H121Zm-18.7,0H121v18.7H102.3Zm-18.7,0h18.7v18.7H83.6Zm1701-18.7h18.7v18.7h-18.7Zm-18.7,0h18.7v18.7h-18.7Zm-18.7,0h18.7v18.7h-18.7Zm-18.7,0h18.7v18.7h-18.7Zm-18.7,0h18.7v18.7h-18.7Zm-18.7,0h18.7v18.7h-18.7Zm-18.7,0h18.7v18.7h-18.7Zm-18.7,0h18.7v18.7h-18.7Zm-18.7,0h18.7v18.7H1635Zm-18.7,0H1635v18.7h-18.7Zm-18.7,0h18.7v18.7h-18.7Zm-18.7,0h18.7v18.7h-18.7Zm-18.6,0H1579v18.7h-18.7Zm-18.7,0h18.7v18.7h-18.7Zm-18.7,0h18.7v18.7h-18.7Zm-18.7,0h18.7v18.7h-18.7Zm-18.7,0h18.7v18.7h-18.7Zm-18.7,0h18.7v18.7h-18.7Zm-18.7,0h18.7v18.7h-18.7Zm-18.7,0h18.7v18.7h-18.7Zm-18.7,0h18.7v18.7h-18.7Zm-18.7,0h18.7v18.7H1392Zm-18.7,0H1392v18.7h-18.7Zm-18.7,0h18.7v18.7h-18.7Zm-18.7,0h18.7v18.7h-18.7Zm-18.6,0H1336v18.7h-18.7Zm-18.7,0h18.7v18.7h-18.7Zm-18.7,0h18.7v18.7h-18.7Zm-18.7,0h18.7v18.7h-18.7Zm-18.7,0h18.7v18.7h-18.7Zm-18.7,0h18.7v18.7h-18.7Zm-18.7,0h18.7v18.7h-18.7Zm-18.7,0h18.7v18.7h-18.7Zm-18.7,0h18.7v18.7h-18.7Zm-18.7,0h18.7v18.7H1149Zm-18.7,0H1149v18.7h-18.7Zm-18.6,0h18.7v18.7h-18.7Zm-18.7,0h18.7v18.7H1093Zm-18.7,0H1093v18.7h-18.7Zm-18.7,0h18.7v18.7h-18.7Zm-18.7,0h18.7v18.7h-18.7Zm-18.7,0h18.7v18.7h-18.7Zm-18.7,0h18.7v18.7H999.5Zm-18.7,0h18.7v18.7H980.8Zm-18.7,0h18.7v18.7H962.1Zm-18.7,0h18.7v18.7H943.4Zm-186.9,0h18.7v18.7H756.5Zm-18.7,0h18.7v18.7H737.8Zm-18.7,0h18.7v18.7H719.1Zm-18.7,0h18.7v18.7H700.4Zm-18.7,0h18.7v18.7H681.7Zm-18.7,0h18.7v18.7H663Zm-18.6,0h18.7v18.7H644.4Zm-74.8,0h18.7v18.7H569.6Zm-18.7,0h18.7v18.7H550.9Zm-18.7,0h18.7v18.7H532.2Zm-37.4,0h18.7v18.7H494.8Zm-18.7,0h18.7v18.7H476.1Zm-18.7,0h18.7v18.7H457.4Zm-18.6,0h18.7v18.7H438.8Zm-18.7,0h18.7v18.7H420.1Zm-18.7,0h18.7v18.7H401.4Zm-18.7,0h18.7v18.7H382.7Zm-18.7,0h18.7v18.7H364Zm-18.7,0H364v18.7H345.3Zm-18.7,0h18.7v18.7H326.6Zm-18.7,0h18.7v18.7H307.9Zm-18.7,0h18.7v18.7H289.2Zm-18.7,0h18.7v18.7H270.5Zm-18.7,0h18.7v18.7H251.8Zm-18.7,0h18.7v18.7H233.1Zm-18.7,0h18.7v18.7H214.4Zm-18.6,0h18.7v18.7H195.8Zm-18.7,0h18.7v18.7H177.1Zm-18.7,0h18.7v18.7H158.4Zm-18.7,0h18.7v18.7H139.7Zm-18.7,0h18.7v18.7H121Zm1644.9-18.7h18.7v18.7h-18.7Zm-18.7,0h18.7v18.7h-18.7Zm-18.7,0h18.7v18.7h-18.7Zm-18.7,0h18.7v18.7h-18.7Zm-18.7,0h18.7v18.7h-18.7Zm-18.7,0h18.7v18.7h-18.7Zm-18.7,0h18.7v18.7h-18.7Zm-18.7,0h18.7v18.7H1635Zm-18.7,0H1635v18.7h-18.7Zm-18.7,0h18.7v18.7h-18.7Zm-18.7,0h18.7v18.7h-18.7Zm-18.6,0H1579v18.7h-18.7Zm-18.7,0h18.7v18.7h-18.7Zm-18.7,0h18.7v18.7h-18.7Zm-18.7,0h18.7v18.7h-18.7Zm-18.7,0h18.7v18.7h-18.7Zm-18.7,0h18.7v18.7h-18.7Zm-18.7,0h18.7v18.7h-18.7Zm-18.7,0h18.7v18.7h-18.7Zm-18.7,0h18.7v18.7h-18.7Zm-18.7,0h18.7v18.7H1392Zm-18.7,0H1392v18.7h-18.7Zm-18.7,0h18.7v18.7h-18.7Zm-18.7,0h18.7v18.7h-18.7Zm-18.6,0H1336v18.7h-18.7Zm-18.7,0h18.7v18.7h-18.7Zm-18.7,0h18.7v18.7h-18.7Zm-18.7,0h18.7v18.7h-18.7Zm-18.7,0h18.7v18.7h-18.7Zm-18.7,0h18.7v18.7h-18.7Zm-18.7,0h18.7v18.7h-18.7Zm-37.4,0h18.7v18.7h-18.7Zm-18.7,0h18.7v18.7H1149Zm-37.3,0h18.7v18.7h-18.7Zm-74.8,0h18.7v18.7h-18.7Zm-18.7,0h18.7v18.7h-18.7Zm-18.7,0h18.7v18.7H999.5Zm-18.7,0h18.7v18.7H980.8Zm-186.9,0h18.7v18.7H793.9Zm-18.7,0h18.7v18.7H775.2Zm-18.7,0h18.7v18.7H756.5Zm-18.7,0h18.7v18.7H737.8Zm-18.7,0h18.7v18.7H719.1Zm-18.7,0h18.7v18.7H700.4Zm-18.7,0h18.7v18.7H681.7Zm-18.7,0h18.7v18.7H663Zm-18.6,0h18.7v18.7H644.4Zm-93.5,0h18.7v18.7H550.9Zm-18.7,0h18.7v18.7H532.2Zm-18.7,0h18.7v18.7H513.5Zm-18.7,0h18.7v18.7H494.8Zm-18.7,0h18.7v18.7H476.1Zm-18.7,0h18.7v18.7H457.4Zm-18.6,0h18.7v18.7H438.8Zm-18.7,0h18.7v18.7H420.1Zm-18.7,0h18.7v18.7H401.4Zm-18.7,0h18.7v18.7H382.7Zm-18.7,0h18.7v18.7H364Zm-18.7,0H364v18.7H345.3Zm-18.7,0h18.7v18.7H326.6Zm1289.7-18.7H1635v18.7h-18.7Zm-18.7,0h18.7v18.7h-18.7Zm-18.7,0h18.7v18.7h-18.7Zm-18.6,0H1579v18.7h-18.7Zm-18.7,0h18.7v18.7h-18.7Zm-18.7,0h18.7v18.7h-18.7Zm-18.7,0h18.7v18.7h-18.7Zm-18.7,0h18.7v18.7h-18.7Zm-18.7,0h18.7v18.7h-18.7Zm-18.7,0h18.7v18.7h-18.7Zm-18.7,0h18.7v18.7h-18.7Zm-18.7,0h18.7v18.7h-18.7Zm-18.7,0h18.7v18.7H1392Zm-18.7,0H1392v18.7h-18.7Zm-18.7,0h18.7v18.7h-18.7Zm-18.7,0h18.7v18.7h-18.7Zm-18.6,0H1336v18.7h-18.7Zm-18.7,0h18.7v18.7h-18.7Zm-18.7,0h18.7v18.7h-18.7Zm-18.7,0h18.7v18.7h-18.7Zm-18.7,0h18.7v18.7h-18.7Zm-18.7,0h18.7v18.7h-18.7Zm-18.7,0h18.7v18.7h-18.7Zm-74.8,0H1149v18.7h-18.7Zm-336.4,0h18.7v18.7H793.9Zm-18.7,0h18.7v18.7H775.2Zm-18.7,0h18.7v18.7H756.5Zm-18.7,0h18.7v18.7H737.8Zm-18.7,0h18.7v18.7H719.1Zm-18.7,0h18.7v18.7H700.4Zm-18.7,0h18.7v18.7H681.7Zm-18.7,0h18.7v18.7H663Zm-18.6,0h18.7v18.7H644.4Zm-112.2,0h18.7v18.7H532.2Zm-18.7,0h18.7v18.7H513.5Zm-18.7,0h18.7v18.7H494.8Zm-18.7,0h18.7v18.7H476.1Zm-18.7,0h18.7v18.7H457.4Zm-18.6,0h18.7v18.7H438.8Zm-18.7,0h18.7v18.7H420.1Zm-18.7,0h18.7v18.7H401.4Zm-18.7,0h18.7v18.7H382.7Zm-18.7,0h18.7v18.7H364Zm-18.7,0H364v18.7H345.3Zm1028-18.7H1392v18.7h-18.7Zm-18.7,0h18.7v18.7h-18.7Zm-18.7,0h18.7v18.7h-18.7Zm-18.6,0H1336v18.7h-18.7Zm-18.7,0h18.7v18.7h-18.7Zm-18.7,0h18.7v18.7h-18.7Zm-93.5,0h18.7v18.7h-18.7Zm-18.7,0h18.7v18.7h-18.7Zm-18.7,0h18.7v18.7H1149Zm-18.7,0H1149v18.7h-18.7Zm-168.2,0h18.7v18.7H962.1Zm-149.5,0h18.7v18.7H812.6Zm-18.7,0h18.7v18.7H793.9Zm-18.7,0h18.7v18.7H775.2Zm-18.7,0h18.7v18.7H756.5Zm-18.7,0h18.7v18.7H737.8Zm-18.7,0h18.7v18.7H719.1Zm-18.7,0h18.7v18.7H700.4Zm-18.7,0h18.7v18.7H681.7ZM663,135h18.7v18.7H663Zm-18.6,0h18.7v18.7H644.4Zm-18.7,0h18.7v18.7H625.7ZM607,135h18.7v18.7H607Zm-37.4,0h18.7v18.7H569.6Zm-18.7,0h18.7v18.7H550.9Zm-18.7,0h18.7v18.7H532.2Zm-37.4,0h18.7v18.7H494.8Zm-18.7,0h18.7v18.7H476.1Zm841.2-18.7H1336V135h-18.7Zm-18.7,0h18.7V135h-18.7Zm-18.7,0h18.7V135h-18.7Zm-18.7,0h18.7V135h-18.7Zm-261.7,0h18.7V135H999.5Zm-18.7,0h18.7V135H980.8Zm-18.7,0h18.7V135H962.1Zm-18.7,0h18.7V135H943.4Zm-112.1,0H850V135H831.3Zm-18.7,0h18.7V135H812.6Zm-18.7,0h18.7V135H793.9Zm-18.7,0h18.7V135H775.2Zm-18.7,0h18.7V135H756.5Zm-18.7,0h18.7V135H737.8Zm-18.7,0h18.7V135H719.1Zm-18.7,0h18.7V135H700.4Zm-18.7,0h18.7V135H681.7Zm-18.7,0h18.7V135H663Zm-18.6,0h18.7V135H644.4Zm-18.7,0h18.7V135H625.7Zm-18.7,0h18.7V135H607Zm-18.7,0H607V135H588.3Zm-18.7,0h18.7V135H569.6Zm-18.7,0h18.7V135H550.9ZM775.2,97.6h18.7v18.7H775.2Z" transform="translate(-27.5 -97.6)"/></svg>