<?xml version="1.0" encoding="utf-8"?>
<!-- Generator: Adobe Illustrator 24.1.2, SVG Export Plug-In . SVG Version: 6.00 Build 0)  -->
<svg version="1.1" id="Слой_1" xmlns="http://www.w3.org/2000/svg" xmlns:xlink="http://www.w3.org/1999/xlink" x="0px" y="0px"
	 viewBox="0 0 2000 1200" style="enable-background:new 0 0 2000 1200;" xml:space="preserve">
<style type="text/css">
	.st0{fill:#555555;}
</style>
<path class="st0" d="M532.2,1069.5h18.7v18.7h-18.7V1069.5z M513.5,1088.2h18.7v-18.7h-18.7V1088.2z M513.5,1069.5h18.7v-18.7h-18.7
	V1069.5z M494.8,1069.5h18.7v-18.7h-18.7V1069.5z M476.1,1069.5h18.7v-18.7h-18.7V1069.5z M513.5,1050.8h18.7v-18.7h-18.7V1050.8z
	 M494.8,1050.8h18.7v-18.7h-18.7V1050.8z M476.1,1050.8h18.7v-18.7h-18.7V1050.8z M513.5,1032.1h18.7v-18.7h-18.7V1032.1z
	 M494.8,1032.1h18.7v-18.7h-18.7V1032.1z M476.1,1032.1h18.7v-18.7h-18.7V1032.1z M1859.3,1013.4h18.7v-18.7h-18.7V1013.4z
	 M513.5,1013.4h18.7v-18.7h-18.7V1013.4z M494.8,1013.4h18.7v-18.7h-18.7V1013.4z M476.1,1013.4h18.7v-18.7h-18.7V1013.4z
	 M1896.7,994.7h18.7V976h-18.7V994.7z M1878,994.7h18.7V976H1878V994.7z M1859.3,994.7h18.7V976h-18.7V994.7z M513.5,994.7h18.7V976
	h-18.7V994.7z M494.8,994.7h18.7V976h-18.7V994.7z M476.1,994.7h18.7V976h-18.7V994.7z M457.4,994.7h18.7V976h-18.7V994.7z
	 M1896.7,976h18.7v-18.7h-18.7V976z M1878,976h18.7v-18.7H1878V976z M1765.9,976h18.7v-18.7h-18.7V976z M1747.2,976h18.7v-18.7
	h-18.7V976z M532.2,976h18.7v-18.7h-18.7V976z M513.5,976h18.7v-18.7h-18.7V976z M494.8,976h18.7v-18.7h-18.7V976z M476.1,976h18.7
	v-18.7h-18.7V976z M457.4,976h18.7v-18.7h-18.7V976z M1952.8,957.3h18.7v-18.7h-18.7V957.3z M1934.1,957.3h18.7v-18.7h-18.7V957.3z
	 M1765.9,957.3h18.7v-18.7h-18.7V957.3z M532.2,957.3h18.7v-18.7h-18.7V957.3z M513.5,957.3h18.7v-18.7h-18.7V957.3z M494.8,957.3
	h18.7v-18.7h-18.7V957.3z M476.1,957.3h18.7v-18.7h-18.7V957.3z M457.4,957.3h18.7v-18.7h-18.7V957.3z M1934.1,938.6h18.7V920h-18.7
	V938.6z M1784.6,938.6h18.7V920h-18.7V938.6z M1765.9,938.6h18.7V920h-18.7V938.6z M1747.2,938.6h18.7V920h-18.7V938.6z
	 M1728.5,938.6h18.7V920h-18.7V938.6z M1036.9,938.6h18.7V920h-18.7V938.6z M1018.2,938.6h18.7V920h-18.7V938.6z M999.5,938.6h18.7
	V920h-18.7V938.6z M569.6,938.6h18.7V920h-18.7V938.6z M550.9,938.6h18.7V920h-18.7V938.6z M532.2,938.6h18.7V920h-18.7V938.6z
	 M513.5,938.6h18.7V920h-18.7V938.6z M494.8,938.6h18.7V920h-18.7V938.6z M476.1,938.6h18.7V920h-18.7V938.6z M457.4,938.6h18.7V920
	h-18.7V938.6z M1934.1,920h18.7v-18.7h-18.7V920z M1803.2,920h18.7v-18.7h-18.7V920z M1784.6,920h18.7v-18.7h-18.7V920z M1765.9,920
	h18.7v-18.7h-18.7V920z M1747.2,920h18.7v-18.7h-18.7V920z M1728.5,920h18.7v-18.7h-18.7V920z M1709.8,920h18.7v-18.7h-18.7V920z
	 M1635,920h18.7v-18.7H1635V920z M1616.3,920h18.7v-18.7h-18.7V920z M1597.6,920h18.7v-18.7h-18.7V920z M1055.6,920h18.7v-18.7
	h-18.7V920z M1036.9,920h18.7v-18.7h-18.7V920z M1018.2,920h18.7v-18.7h-18.7V920z M999.5,920h18.7v-18.7h-18.7V920z M569.6,920
	h18.7v-18.7h-18.7V920z M550.9,920h18.7v-18.7h-18.7V920z M532.2,920h18.7v-18.7h-18.7V920z M513.5,920h18.7v-18.7h-18.7V920z
	 M494.8,920h18.7v-18.7h-18.7V920z M476.1,920h18.7v-18.7h-18.7V920z M457.4,920h18.7v-18.7h-18.7V920z M1821.9,901.3h18.7v-18.7
	h-18.7V901.3z M1803.2,901.3h18.7v-18.7h-18.7V901.3z M1784.6,901.3h18.7v-18.7h-18.7V901.3z M1765.9,901.3h18.7v-18.7h-18.7V901.3z
	 M1747.2,901.3h18.7v-18.7h-18.7V901.3z M1728.5,901.3h18.7v-18.7h-18.7V901.3z M1709.8,901.3h18.7v-18.7h-18.7V901.3z
	 M1691.1,901.3h18.7v-18.7h-18.7V901.3z M1672.4,901.3h18.7v-18.7h-18.7V901.3z M1653.7,901.3h18.7v-18.7h-18.7V901.3z M1635,901.3
	h18.7v-18.7H1635V901.3z M1616.3,901.3h18.7v-18.7h-18.7V901.3z M1597.6,901.3h18.7v-18.7h-18.7V901.3z M1074.3,901.3h18.7v-18.7
	h-18.7V901.3z M1055.6,901.3h18.7v-18.7h-18.7V901.3z M1036.9,901.3h18.7v-18.7h-18.7V901.3z M1018.2,901.3h18.7v-18.7h-18.7V901.3z
	 M999.5,901.3h18.7v-18.7h-18.7V901.3z M569.6,901.3h18.7v-18.7h-18.7V901.3z M550.9,901.3h18.7v-18.7h-18.7V901.3z M532.2,901.3
	h18.7v-18.7h-18.7V901.3z M513.5,901.3h18.7v-18.7h-18.7V901.3z M494.8,901.3h18.7v-18.7h-18.7V901.3z M476.1,901.3h18.7v-18.7
	h-18.7V901.3z M457.4,901.3h18.7v-18.7h-18.7V901.3z M1821.9,882.6h18.7v-18.7h-18.7V882.6z M1803.2,882.6h18.7v-18.7h-18.7V882.6z
	 M1784.6,882.6h18.7v-18.7h-18.7V882.6z M1765.9,882.6h18.7v-18.7h-18.7V882.6z M1747.2,882.6h18.7v-18.7h-18.7V882.6z
	 M1728.5,882.6h18.7v-18.7h-18.7V882.6z M1709.8,882.6h18.7v-18.7h-18.7V882.6z M1691.1,882.6h18.7v-18.7h-18.7V882.6z
	 M1672.4,882.6h18.7v-18.7h-18.7V882.6z M1653.7,882.6h18.7v-18.7h-18.7V882.6z M1635,882.6h18.7v-18.7H1635V882.6z M1616.3,882.6
	h18.7v-18.7h-18.7V882.6z M1597.6,882.6h18.7v-18.7h-18.7V882.6z M1093,882.6h18.7v-18.7H1093V882.6z M1074.3,882.6h18.7v-18.7
	h-18.7V882.6z M1055.6,882.6h18.7v-18.7h-18.7V882.6z M1036.9,882.6h18.7v-18.7h-18.7V882.6z M1018.2,882.6h18.7v-18.7h-18.7V882.6z
	 M999.5,882.6h18.7v-18.7h-18.7V882.6z M980.8,882.6h18.7v-18.7h-18.7V882.6z M569.6,882.6h18.7v-18.7h-18.7V882.6z M550.9,882.6
	h18.7v-18.7h-18.7V882.6z M532.2,882.6h18.7v-18.7h-18.7V882.6z M513.5,882.6h18.7v-18.7h-18.7V882.6z M494.8,882.6h18.7v-18.7
	h-18.7V882.6z M476.1,882.6h18.7v-18.7h-18.7V882.6z M457.4,882.6h18.7v-18.7h-18.7V882.6z M1840.6,863.9h18.7v-18.7h-18.7V863.9z
	 M1821.9,863.9h18.7v-18.7h-18.7V863.9z M1803.2,863.9h18.7v-18.7h-18.7V863.9z M1784.6,863.9h18.7v-18.7h-18.7V863.9z
	 M1765.9,863.9h18.7v-18.7h-18.7V863.9z M1747.2,863.9h18.7v-18.7h-18.7V863.9z M1728.5,863.9h18.7v-18.7h-18.7V863.9z
	 M1709.8,863.9h18.7v-18.7h-18.7V863.9z M1691.1,863.9h18.7v-18.7h-18.7V863.9z M1672.4,863.9h18.7v-18.7h-18.7V863.9z
	 M1653.7,863.9h18.7v-18.7h-18.7V863.9z M1635,863.9h18.7v-18.7H1635V863.9z M1616.3,863.9h18.7v-18.7h-18.7V863.9z M1597.6,863.9
	h18.7v-18.7h-18.7V863.9z M1167.7,863.9h18.7v-18.7h-18.7V863.9z M1149,863.9h18.7v-18.7H1149V863.9z M1093,863.9h18.7v-18.7H1093
	V863.9z M1074.3,863.9h18.7v-18.7h-18.7V863.9z M1055.6,863.9h18.7v-18.7h-18.7V863.9z M1036.9,863.9h18.7v-18.7h-18.7V863.9z
	 M1018.2,863.9h18.7v-18.7h-18.7V863.9z M999.5,863.9h18.7v-18.7h-18.7V863.9z M980.8,863.9h18.7v-18.7h-18.7V863.9z M607,863.9
	h18.7v-18.7H607V863.9z M588.3,863.9H607v-18.7h-18.7V863.9z M569.6,863.9h18.7v-18.7h-18.7V863.9z M550.9,863.9h18.7v-18.7h-18.7
	V863.9z M532.2,863.9h18.7v-18.7h-18.7V863.9z M513.5,863.9h18.7v-18.7h-18.7V863.9z M494.8,863.9h18.7v-18.7h-18.7V863.9z
	 M476.1,863.9h18.7v-18.7h-18.7V863.9z M457.4,863.9h18.7v-18.7h-18.7V863.9z M1840.6,845.2h18.7v-18.7h-18.7V845.2z M1821.9,845.2
	h18.7v-18.7h-18.7V845.2z M1803.2,845.2h18.7v-18.7h-18.7V845.2z M1784.6,845.2h18.7v-18.7h-18.7V845.2z M1765.9,845.2h18.7v-18.7
	h-18.7V845.2z M1747.2,845.2h18.7v-18.7h-18.7V845.2z M1728.5,845.2h18.7v-18.7h-18.7V845.2z M1709.8,845.2h18.7v-18.7h-18.7V845.2z
	 M1691.1,845.2h18.7v-18.7h-18.7V845.2z M1672.4,845.2h18.7v-18.7h-18.7V845.2z M1653.7,845.2h18.7v-18.7h-18.7V845.2z M1635,845.2
	h18.7v-18.7H1635V845.2z M1616.3,845.2h18.7v-18.7h-18.7V845.2z M1597.6,845.2h18.7v-18.7h-18.7V845.2z M1186.4,845.2h18.7v-18.7
	h-18.7V845.2z M1167.7,845.2h18.7v-18.7h-18.7V845.2z M1149,845.2h18.7v-18.7H1149V845.2z M1093,845.2h18.7v-18.7H1093V845.2z
	 M1074.3,845.2h18.7v-18.7h-18.7V845.2z M1055.6,845.2h18.7v-18.7h-18.7V845.2z M1036.9,845.2h18.7v-18.7h-18.7V845.2z
	 M1018.2,845.2h18.7v-18.7h-18.7V845.2z M999.5,845.2h18.7v-18.7h-18.7V845.2z M980.8,845.2h18.7v-18.7h-18.7V845.2z M625.7,845.2
	h18.7v-18.7h-18.7V845.2z M607,845.2h18.7v-18.7H607V845.2z M588.3,845.2H607v-18.7h-18.7V845.2z M569.6,845.2h18.7v-18.7h-18.7
	V845.2z M550.9,845.2h18.7v-18.7h-18.7V845.2z M532.2,845.2h18.7v-18.7h-18.7V845.2z M513.5,845.2h18.7v-18.7h-18.7V845.2z
	 M494.8,845.2h18.7v-18.7h-18.7V845.2z M476.1,845.2h18.7v-18.7h-18.7V845.2z M457.4,845.2h18.7v-18.7h-18.7V845.2z M1821.9,826.5
	h18.7v-18.7h-18.7V826.5z M1803.2,826.5h18.7v-18.7h-18.7V826.5z M1784.6,826.5h18.7v-18.7h-18.7V826.5z M1765.9,826.5h18.7v-18.7
	h-18.7V826.5z M1747.2,826.5h18.7v-18.7h-18.7V826.5z M1728.5,826.5h18.7v-18.7h-18.7V826.5z M1709.8,826.5h18.7v-18.7h-18.7V826.5z
	 M1691.1,826.5h18.7v-18.7h-18.7V826.5z M1672.4,826.5h18.7v-18.7h-18.7V826.5z M1653.7,826.5h18.7v-18.7h-18.7V826.5z M1635,826.5
	h18.7v-18.7H1635V826.5z M1616.3,826.5h18.7v-18.7h-18.7V826.5z M1186.4,826.5h18.7v-18.7h-18.7V826.5z M1167.7,826.5h18.7v-18.7
	h-18.7V826.5z M1111.7,826.5h18.7v-18.7h-18.7V826.5z M1093,826.5h18.7v-18.7H1093V826.5z M1074.3,826.5h18.7v-18.7h-18.7V826.5z
	 M1055.6,826.5h18.7v-18.7h-18.7V826.5z M1036.9,826.5h18.7v-18.7h-18.7V826.5z M1018.2,826.5h18.7v-18.7h-18.7V826.5z M999.5,826.5
	h18.7v-18.7h-18.7V826.5z M980.8,826.5h18.7v-18.7h-18.7V826.5z M962.1,826.5h18.7v-18.7h-18.7V826.5z M625.7,826.5h18.7v-18.7
	h-18.7V826.5z M607,826.5h18.7v-18.7H607V826.5z M588.3,826.5H607v-18.7h-18.7V826.5z M569.6,826.5h18.7v-18.7h-18.7V826.5z
	 M550.9,826.5h18.7v-18.7h-18.7V826.5z M532.2,826.5h18.7v-18.7h-18.7V826.5z M513.5,826.5h18.7v-18.7h-18.7V826.5z M494.8,826.5
	h18.7v-18.7h-18.7V826.5z M476.1,826.5h18.7v-18.7h-18.7V826.5z M457.4,826.5h18.7v-18.7h-18.7V826.5z M438.8,826.5h18.7v-18.7
	h-18.7V826.5z M1803.2,807.8h18.7v-18.7h-18.7V807.8z M1784.6,807.8h18.7v-18.7h-18.7V807.8z M1765.9,807.8h18.7v-18.7h-18.7V807.8z
	 M1747.2,807.8h18.7v-18.7h-18.7V807.8z M1728.5,807.8h18.7v-18.7h-18.7V807.8z M1709.8,807.8h18.7v-18.7h-18.7V807.8z
	 M1691.1,807.8h18.7v-18.7h-18.7V807.8z M1672.4,807.8h18.7v-18.7h-18.7V807.8z M1653.7,807.8h18.7v-18.7h-18.7V807.8z
	 M1186.4,807.8h18.7v-18.7h-18.7V807.8z M1167.7,807.8h18.7v-18.7h-18.7V807.8z M1130.3,807.8h18.7v-18.7h-18.7V807.8z
	 M1111.7,807.8h18.7v-18.7h-18.7V807.8z M1093,807.8h18.7v-18.7H1093V807.8z M1074.3,807.8h18.7v-18.7h-18.7V807.8z M1055.6,807.8
	h18.7v-18.7h-18.7V807.8z M1036.9,807.8h18.7v-18.7h-18.7V807.8z M1018.2,807.8h18.7v-18.7h-18.7V807.8z M999.5,807.8h18.7v-18.7
	h-18.7V807.8z M980.8,807.8h18.7v-18.7h-18.7V807.8z M962.1,807.8h18.7v-18.7h-18.7V807.8z M625.7,807.8h18.7v-18.7h-18.7V807.8z
	 M607,807.8h18.7v-18.7H607V807.8z M588.3,807.8H607v-18.7h-18.7V807.8z M569.6,807.8h18.7v-18.7h-18.7V807.8z M550.9,807.8h18.7
	v-18.7h-18.7V807.8z M532.2,807.8h18.7v-18.7h-18.7V807.8z M513.5,807.8h18.7v-18.7h-18.7V807.8z M494.8,807.8h18.7v-18.7h-18.7
	V807.8z M476.1,807.8h18.7v-18.7h-18.7V807.8z M457.4,807.8h18.7v-18.7h-18.7V807.8z M438.8,807.8h18.7v-18.7h-18.7V807.8z
	 M420.1,807.8h18.7v-18.7h-18.7V807.8z M401.4,807.8h18.7v-18.7h-18.7V807.8z M1803.2,789.1h18.7v-18.7h-18.7V789.1z M1784.6,789.1
	h18.7v-18.7h-18.7V789.1z M1765.9,789.1h18.7v-18.7h-18.7V789.1z M1747.2,789.1h18.7v-18.7h-18.7V789.1z M1728.5,789.1h18.7v-18.7
	h-18.7V789.1z M1709.8,789.1h18.7v-18.7h-18.7V789.1z M1691.1,789.1h18.7v-18.7h-18.7V789.1z M1672.4,789.1h18.7v-18.7h-18.7V789.1z
	 M1653.7,789.1h18.7v-18.7h-18.7V789.1z M1186.4,789.1h18.7v-18.7h-18.7V789.1z M1130.3,789.1h18.7v-18.7h-18.7V789.1z
	 M1111.7,789.1h18.7v-18.7h-18.7V789.1z M1093,789.1h18.7v-18.7H1093V789.1z M1074.3,789.1h18.7v-18.7h-18.7V789.1z M1055.6,789.1
	h18.7v-18.7h-18.7V789.1z M1036.9,789.1h18.7v-18.7h-18.7V789.1z M1018.2,789.1h18.7v-18.7h-18.7V789.1z M999.5,789.1h18.7v-18.7
	h-18.7V789.1z M980.8,789.1h18.7v-18.7h-18.7V789.1z M962.1,789.1h18.7v-18.7h-18.7V789.1z M625.7,789.1h18.7v-18.7h-18.7V789.1z
	 M607,789.1h18.7v-18.7H607V789.1z M588.3,789.1H607v-18.7h-18.7V789.1z M569.6,789.1h18.7v-18.7h-18.7V789.1z M550.9,789.1h18.7
	v-18.7h-18.7V789.1z M532.2,789.1h18.7v-18.7h-18.7V789.1z M513.5,789.1h18.7v-18.7h-18.7V789.1z M494.8,789.1h18.7v-18.7h-18.7
	V789.1z M476.1,789.1h18.7v-18.7h-18.7V789.1z M457.4,789.1h18.7v-18.7h-18.7V789.1z M438.8,789.1h18.7v-18.7h-18.7V789.1z
	 M420.1,789.1h18.7v-18.7h-18.7V789.1z M401.4,789.1h18.7v-18.7h-18.7V789.1z M1784.6,770.4h18.7v-18.7h-18.7V770.4z M1747.2,770.4
	h18.7v-18.7h-18.7V770.4z M1728.5,770.4h18.7v-18.7h-18.7V770.4z M1709.8,770.4h18.7v-18.7h-18.7V770.4z M1691.1,770.4h18.7v-18.7
	h-18.7V770.4z M1186.4,770.4h18.7v-18.7h-18.7V770.4z M1130.3,770.4h18.7v-18.7h-18.7V770.4z M1111.7,770.4h18.7v-18.7h-18.7V770.4z
	 M1093,770.4h18.7v-18.7H1093V770.4z M1074.3,770.4h18.7v-18.7h-18.7V770.4z M1055.6,770.4h18.7v-18.7h-18.7V770.4z M1036.9,770.4
	h18.7v-18.7h-18.7V770.4z M1018.2,770.4h18.7v-18.7h-18.7V770.4z M999.5,770.4h18.7v-18.7h-18.7V770.4z M980.8,770.4h18.7v-18.7
	h-18.7V770.4z M644.4,770.4H663v-18.7h-18.7V770.4z M625.7,770.4h18.7v-18.7h-18.7V770.4z M607,770.4h18.7v-18.7H607V770.4z
	 M588.3,770.4H607v-18.7h-18.7V770.4z M569.6,770.4h18.7v-18.7h-18.7V770.4z M550.9,770.4h18.7v-18.7h-18.7V770.4z M532.2,770.4
	h18.7v-18.7h-18.7V770.4z M513.5,770.4h18.7v-18.7h-18.7V770.4z M494.8,770.4h18.7v-18.7h-18.7V770.4z M476.1,770.4h18.7v-18.7
	h-18.7V770.4z M457.4,770.4h18.7v-18.7h-18.7V770.4z M438.8,770.4h18.7v-18.7h-18.7V770.4z M420.1,770.4h18.7v-18.7h-18.7V770.4z
	 M401.4,770.4h18.7v-18.7h-18.7V770.4z M382.7,770.4h18.7v-18.7h-18.7V770.4z M1840.6,751.8h18.7v-18.7h-18.7V751.8z M1784.6,751.8
	h18.7v-18.7h-18.7V751.8z M1728.5,751.8h18.7v-18.7h-18.7V751.8z M1672.4,751.8h18.7v-18.7h-18.7V751.8z M1130.3,751.8h18.7v-18.7
	h-18.7V751.8z M1111.7,751.8h18.7v-18.7h-18.7V751.8z M1093,751.8h18.7v-18.7H1093V751.8z M1074.3,751.8h18.7v-18.7h-18.7V751.8z
	 M1055.6,751.8h18.7v-18.7h-18.7V751.8z M1036.9,751.8h18.7v-18.7h-18.7V751.8z M1018.2,751.8h18.7v-18.7h-18.7V751.8z M999.5,751.8
	h18.7v-18.7h-18.7V751.8z M980.8,751.8h18.7v-18.7h-18.7V751.8z M663,751.8h18.7v-18.7H663V751.8z M644.4,751.8H663v-18.7h-18.7
	V751.8z M625.7,751.8h18.7v-18.7h-18.7V751.8z M607,751.8h18.7v-18.7H607V751.8z M588.3,751.8H607v-18.7h-18.7V751.8z M569.6,751.8
	h18.7v-18.7h-18.7V751.8z M550.9,751.8h18.7v-18.7h-18.7V751.8z M532.2,751.8h18.7v-18.7h-18.7V751.8z M513.5,751.8h18.7v-18.7
	h-18.7V751.8z M494.8,751.8h18.7v-18.7h-18.7V751.8z M476.1,751.8h18.7v-18.7h-18.7V751.8z M457.4,751.8h18.7v-18.7h-18.7V751.8z
	 M438.8,751.8h18.7v-18.7h-18.7V751.8z M420.1,751.8h18.7v-18.7h-18.7V751.8z M401.4,751.8h18.7v-18.7h-18.7V751.8z M382.7,751.8
	h18.7v-18.7h-18.7V751.8z M1821.9,733.1h18.7v-18.7h-18.7V733.1z M1803.2,733.1h18.7v-18.7h-18.7V733.1z M1784.6,733.1h18.7v-18.7
	h-18.7V733.1z M1765.9,733.1h18.7v-18.7h-18.7V733.1z M1597.6,733.1h18.7v-18.7h-18.7V733.1z M1578.9,733.1h18.7v-18.7h-18.7V733.1z
	 M1130.3,733.1h18.7v-18.7h-18.7V733.1z M1111.7,733.1h18.7v-18.7h-18.7V733.1z M1093,733.1h18.7v-18.7H1093V733.1z M1074.3,733.1
	h18.7v-18.7h-18.7V733.1z M1055.6,733.1h18.7v-18.7h-18.7V733.1z M1036.9,733.1h18.7v-18.7h-18.7V733.1z M1018.2,733.1h18.7v-18.7
	h-18.7V733.1z M999.5,733.1h18.7v-18.7h-18.7V733.1z M980.8,733.1h18.7v-18.7h-18.7V733.1z M962.1,733.1h18.7v-18.7h-18.7V733.1z
	 M644.4,733.1H663v-18.7h-18.7V733.1z M625.7,733.1h18.7v-18.7h-18.7V733.1z M607,733.1h18.7v-18.7H607V733.1z M588.3,733.1H607
	v-18.7h-18.7V733.1z M569.6,733.1h18.7v-18.7h-18.7V733.1z M550.9,733.1h18.7v-18.7h-18.7V733.1z M532.2,733.1h18.7v-18.7h-18.7
	V733.1z M513.5,733.1h18.7v-18.7h-18.7V733.1z M494.8,733.1h18.7v-18.7h-18.7V733.1z M476.1,733.1h18.7v-18.7h-18.7V733.1z
	 M457.4,733.1h18.7v-18.7h-18.7V733.1z M438.8,733.1h18.7v-18.7h-18.7V733.1z M420.1,733.1h18.7v-18.7h-18.7V733.1z M401.4,733.1
	h18.7v-18.7h-18.7V733.1z M382.7,733.1h18.7v-18.7h-18.7V733.1z M364,733.1h18.7v-18.7H364V733.1z M1840.6,714.4h18.7v-18.7h-18.7
	V714.4z M1821.9,714.4h18.7v-18.7h-18.7V714.4z M1803.2,714.4h18.7v-18.7h-18.7V714.4z M1784.6,714.4h18.7v-18.7h-18.7V714.4z
	 M1765.9,714.4h18.7v-18.7h-18.7V714.4z M1653.7,714.4h18.7v-18.7h-18.7V714.4z M1560.3,714.4h18.7v-18.7h-18.7V714.4z
	 M1130.3,714.4h18.7v-18.7h-18.7V714.4z M1111.7,714.4h18.7v-18.7h-18.7V714.4z M1093,714.4h18.7v-18.7H1093V714.4z M1074.3,714.4
	h18.7v-18.7h-18.7V714.4z M1055.6,714.4h18.7v-18.7h-18.7V714.4z M1036.9,714.4h18.7v-18.7h-18.7V714.4z M1018.2,714.4h18.7v-18.7
	h-18.7V714.4z M999.5,714.4h18.7v-18.7h-18.7V714.4z M980.8,714.4h18.7v-18.7h-18.7V714.4z M962.1,714.4h18.7v-18.7h-18.7V714.4z
	 M943.4,714.4h18.7v-18.7h-18.7V714.4z M644.4,714.4H663v-18.7h-18.7V714.4z M625.7,714.4h18.7v-18.7h-18.7V714.4z M607,714.4h18.7
	v-18.7H607V714.4z M588.3,714.4H607v-18.7h-18.7V714.4z M569.6,714.4h18.7v-18.7h-18.7V714.4z M550.9,714.4h18.7v-18.7h-18.7V714.4z
	 M532.2,714.4h18.7v-18.7h-18.7V714.4z M513.5,714.4h18.7v-18.7h-18.7V714.4z M494.8,714.4h18.7v-18.7h-18.7V714.4z M476.1,714.4
	h18.7v-18.7h-18.7V714.4z M457.4,714.4h18.7v-18.7h-18.7V714.4z M438.8,714.4h18.7v-18.7h-18.7V714.4z M420.1,714.4h18.7v-18.7
	h-18.7V714.4z M401.4,714.4h18.7v-18.7h-18.7V714.4z M382.7,714.4h18.7v-18.7h-18.7V714.4z M364,714.4h18.7v-18.7H364V714.4z
	 M1803.2,695.7h18.7V677h-18.7V695.7z M1784.6,695.7h18.7V677h-18.7V695.7z M1765.9,695.7h18.7V677h-18.7V695.7z M1747.2,695.7h18.7
	V677h-18.7V695.7z M1728.5,695.7h18.7V677h-18.7V695.7z M1653.7,695.7h18.7V677h-18.7V695.7z M1616.3,695.7h18.7V677h-18.7V695.7z
	 M1597.6,695.7h18.7V677h-18.7V695.7z M1560.3,695.7h18.7V677h-18.7V695.7z M1541.6,695.7h18.7V677h-18.7V695.7z M1522.9,695.7h18.7
	V677h-18.7V695.7z M1149,695.7h18.7V677H1149V695.7z M1130.3,695.7h18.7V677h-18.7V695.7z M1111.7,695.7h18.7V677h-18.7V695.7z
	 M1093,695.7h18.7V677H1093V695.7z M1074.3,695.7h18.7V677h-18.7V695.7z M1055.6,695.7h18.7V677h-18.7V695.7z M1036.9,695.7h18.7
	V677h-18.7V695.7z M1018.2,695.7h18.7V677h-18.7V695.7z M999.5,695.7h18.7V677h-18.7V695.7z M980.8,695.7h18.7V677h-18.7V695.7z
	 M962.1,695.7h18.7V677h-18.7V695.7z M943.4,695.7h18.7V677h-18.7V695.7z M588.3,695.7H607V677h-18.7V695.7z M569.6,695.7h18.7V677
	h-18.7V695.7z M550.9,695.7h18.7V677h-18.7V695.7z M532.2,695.7h18.7V677h-18.7V695.7z M513.5,695.7h18.7V677h-18.7V695.7z
	 M494.8,695.7h18.7V677h-18.7V695.7z M476.1,695.7h18.7V677h-18.7V695.7z M457.4,695.7h18.7V677h-18.7V695.7z M438.8,695.7h18.7V677
	h-18.7V695.7z M420.1,695.7h18.7V677h-18.7V695.7z M401.4,695.7h18.7V677h-18.7V695.7z M382.7,695.7h18.7V677h-18.7V695.7z
	 M364,695.7h18.7V677H364V695.7z M1728.5,677h18.7v-18.7h-18.7V677z M1653.7,677h18.7v-18.7h-18.7V677z M1635,677h18.7v-18.7H1635
	V677z M1616.3,677h18.7v-18.7h-18.7V677z M1597.6,677h18.7v-18.7h-18.7V677z M1578.9,677h18.7v-18.7h-18.7V677z M1541.6,677h18.7
	v-18.7h-18.7V677z M1522.9,677h18.7v-18.7h-18.7V677z M1167.7,677h18.7v-18.7h-18.7V677z M1149,677h18.7v-18.7H1149V677z
	 M1130.3,677h18.7v-18.7h-18.7V677z M1111.7,677h18.7v-18.7h-18.7V677z M1093,677h18.7v-18.7H1093V677z M1074.3,677h18.7v-18.7
	h-18.7V677z M1055.6,677h18.7v-18.7h-18.7V677z M1036.9,677h18.7v-18.7h-18.7V677z M1018.2,677h18.7v-18.7h-18.7V677z M999.5,677
	h18.7v-18.7h-18.7V677z M980.8,677h18.7v-18.7h-18.7V677z M962.1,677h18.7v-18.7h-18.7V677z M943.4,677h18.7v-18.7h-18.7V677z
	 M550.9,677h18.7v-18.7h-18.7V677z M532.2,677h18.7v-18.7h-18.7V677z M513.5,677h18.7v-18.7h-18.7V677z M494.8,677h18.7v-18.7h-18.7
	V677z M476.1,677h18.7v-18.7h-18.7V677z M457.4,677h18.7v-18.7h-18.7V677z M438.8,677h18.7v-18.7h-18.7V677z M420.1,677h18.7v-18.7
	h-18.7V677z M401.4,677h18.7v-18.7h-18.7V677z M382.7,677h18.7v-18.7h-18.7V677z M1635,658.3h18.7v-18.7H1635V658.3z M1616.3,658.3
	h18.7v-18.7h-18.7V658.3z M1597.6,658.3h18.7v-18.7h-18.7V658.3z M1578.9,658.3h18.7v-18.7h-18.7V658.3z M1541.6,658.3h18.7v-18.7
	h-18.7V658.3z M1522.9,658.3h18.7v-18.7h-18.7V658.3z M1504.2,658.3h18.7v-18.7h-18.7V658.3z M1186.4,658.3h18.7v-18.7h-18.7V658.3z
	 M1167.7,658.3h18.7v-18.7h-18.7V658.3z M1149,658.3h18.7v-18.7H1149V658.3z M1130.3,658.3h18.7v-18.7h-18.7V658.3z M1111.7,658.3
	h18.7v-18.7h-18.7V658.3z M1093,658.3h18.7v-18.7H1093V658.3z M1074.3,658.3h18.7v-18.7h-18.7V658.3z M1055.6,658.3h18.7v-18.7
	h-18.7V658.3z M1036.9,658.3h18.7v-18.7h-18.7V658.3z M1018.2,658.3h18.7v-18.7h-18.7V658.3z M999.5,658.3h18.7v-18.7h-18.7V658.3z
	 M980.8,658.3h18.7v-18.7h-18.7V658.3z M962.1,658.3h18.7v-18.7h-18.7V658.3z M943.4,658.3h18.7v-18.7h-18.7V658.3z M924.7,658.3
	h18.7v-18.7h-18.7V658.3z M868.7,658.3h18.7v-18.7h-18.7V658.3z M831.3,658.3H850v-18.7h-18.7V658.3z M532.2,658.3h18.7v-18.7h-18.7
	V658.3z M513.5,658.3h18.7v-18.7h-18.7V658.3z M494.8,658.3h18.7v-18.7h-18.7V658.3z M476.1,658.3h18.7v-18.7h-18.7V658.3z
	 M457.4,658.3h18.7v-18.7h-18.7V658.3z M438.8,658.3h18.7v-18.7h-18.7V658.3z M420.1,658.3h18.7v-18.7h-18.7V658.3z M401.4,658.3
	h18.7v-18.7h-18.7V658.3z M382.7,658.3h18.7v-18.7h-18.7V658.3z M1635,639.6h18.7v-18.7H1635V639.6z M1616.3,639.6h18.7v-18.7h-18.7
	V639.6z M1522.9,639.6h18.7v-18.7h-18.7V639.6z M1504.2,639.6h18.7v-18.7h-18.7V639.6z M1186.4,639.6h18.7v-18.7h-18.7V639.6z
	 M1167.7,639.6h18.7v-18.7h-18.7V639.6z M1149,639.6h18.7v-18.7H1149V639.6z M1130.3,639.6h18.7v-18.7h-18.7V639.6z M1111.7,639.6
	h18.7v-18.7h-18.7V639.6z M1093,639.6h18.7v-18.7H1093V639.6z M1074.3,639.6h18.7v-18.7h-18.7V639.6z M1055.6,639.6h18.7v-18.7
	h-18.7V639.6z M1036.9,639.6h18.7v-18.7h-18.7V639.6z M1018.2,639.6h18.7v-18.7h-18.7V639.6z M999.5,639.6h18.7v-18.7h-18.7V639.6z
	 M980.8,639.6h18.7v-18.7h-18.7V639.6z M962.1,639.6h18.7v-18.7h-18.7V639.6z M943.4,639.6h18.7v-18.7h-18.7V639.6z M924.7,639.6
	h18.7v-18.7h-18.7V639.6z M906,639.6h18.7v-18.7H906V639.6z M887.3,639.6H906v-18.7h-18.7V639.6z M868.7,639.6h18.7v-18.7h-18.7
	V639.6z M850,639.6h18.7v-18.7H850V639.6z M831.3,639.6H850v-18.7h-18.7V639.6z M812.6,639.6h18.7v-18.7h-18.7V639.6z M793.9,639.6
	h18.7v-18.7h-18.7V639.6z M513.5,639.6h18.7v-18.7h-18.7V639.6z M494.8,639.6h18.7v-18.7h-18.7V639.6z M476.1,639.6h18.7v-18.7
	h-18.7V639.6z M457.4,639.6h18.7v-18.7h-18.7V639.6z M438.8,639.6h18.7v-18.7h-18.7V639.6z M420.1,639.6h18.7v-18.7h-18.7V639.6z
	 M401.4,639.6h18.7v-18.7h-18.7V639.6z M382.7,639.6h18.7v-18.7h-18.7V639.6z M364,639.6h18.7v-18.7H364V639.6z M345.3,639.6H364
	v-18.7h-18.7V639.6z M1691.1,620.9h18.7v-18.7h-18.7V620.9z M1672.4,620.9h18.7v-18.7h-18.7V620.9z M1635,620.9h18.7v-18.7H1635
	V620.9z M1616.3,620.9h18.7v-18.7h-18.7V620.9z M1522.9,620.9h18.7v-18.7h-18.7V620.9z M1504.2,620.9h18.7v-18.7h-18.7V620.9z
	 M1392,620.9h18.7v-18.7H1392V620.9z M1373.3,620.9h18.7v-18.7h-18.7V620.9z M1186.4,620.9h18.7v-18.7h-18.7V620.9z M1167.7,620.9
	h18.7v-18.7h-18.7V620.9z M1149,620.9h18.7v-18.7H1149V620.9z M1130.3,620.9h18.7v-18.7h-18.7V620.9z M1111.7,620.9h18.7v-18.7
	h-18.7V620.9z M1093,620.9h18.7v-18.7H1093V620.9z M1074.3,620.9h18.7v-18.7h-18.7V620.9z M1055.6,620.9h18.7v-18.7h-18.7V620.9z
	 M1036.9,620.9h18.7v-18.7h-18.7V620.9z M1018.2,620.9h18.7v-18.7h-18.7V620.9z M999.5,620.9h18.7v-18.7h-18.7V620.9z M980.8,620.9
	h18.7v-18.7h-18.7V620.9z M962.1,620.9h18.7v-18.7h-18.7V620.9z M943.4,620.9h18.7v-18.7h-18.7V620.9z M924.7,620.9h18.7v-18.7
	h-18.7V620.9z M906,620.9h18.7v-18.7H906V620.9z M887.3,620.9H906v-18.7h-18.7V620.9z M868.7,620.9h18.7v-18.7h-18.7V620.9z
	 M850,620.9h18.7v-18.7H850V620.9z M831.3,620.9H850v-18.7h-18.7V620.9z M812.6,620.9h18.7v-18.7h-18.7V620.9z M793.9,620.9h18.7
	v-18.7h-18.7V620.9z M476.1,620.9h18.7v-18.7h-18.7V620.9z M457.4,620.9h18.7v-18.7h-18.7V620.9z M438.8,620.9h18.7v-18.7h-18.7
	V620.9z M420.1,620.9h18.7v-18.7h-18.7V620.9z M401.4,620.9h18.7v-18.7h-18.7V620.9z M345.3,620.9H364v-18.7h-18.7V620.9z
	 M326.6,620.9h18.7v-18.7h-18.7V620.9z M1672.4,602.2h18.7v-18.7h-18.7V602.2z M1635,602.2h18.7v-18.7H1635V602.2z M1560.3,602.2
	h18.7v-18.7h-18.7V602.2z M1541.6,602.2h18.7v-18.7h-18.7V602.2z M1504.2,602.2h18.7v-18.7h-18.7V602.2z M1373.3,602.2h18.7v-18.7
	h-18.7V602.2z M1205.1,602.2h18.7v-18.7h-18.7V602.2z M1186.4,602.2h18.7v-18.7h-18.7V602.2z M1167.7,602.2h18.7v-18.7h-18.7V602.2z
	 M1149,602.2h18.7v-18.7H1149V602.2z M1130.3,602.2h18.7v-18.7h-18.7V602.2z M1111.7,602.2h18.7v-18.7h-18.7V602.2z M1093,602.2
	h18.7v-18.7H1093V602.2z M1074.3,602.2h18.7v-18.7h-18.7V602.2z M1055.6,602.2h18.7v-18.7h-18.7V602.2z M1036.9,602.2h18.7v-18.7
	h-18.7V602.2z M1018.2,602.2h18.7v-18.7h-18.7V602.2z M999.5,602.2h18.7v-18.7h-18.7V602.2z M980.8,602.2h18.7v-18.7h-18.7V602.2z
	 M962.1,602.2h18.7v-18.7h-18.7V602.2z M943.4,602.2h18.7v-18.7h-18.7V602.2z M924.7,602.2h18.7v-18.7h-18.7V602.2z M906,602.2h18.7
	v-18.7H906V602.2z M887.3,602.2H906v-18.7h-18.7V602.2z M868.7,602.2h18.7v-18.7h-18.7V602.2z M850,602.2h18.7v-18.7H850V602.2z
	 M831.3,602.2H850v-18.7h-18.7V602.2z M812.6,602.2h18.7v-18.7h-18.7V602.2z M793.9,602.2h18.7v-18.7h-18.7V602.2z M775.2,602.2
	h18.7v-18.7h-18.7V602.2z M420.1,602.2h18.7v-18.7h-18.7V602.2z M345.3,602.2H364v-18.7h-18.7V602.2z M326.6,602.2h18.7v-18.7h-18.7
	V602.2z M307.9,602.2h18.7v-18.7h-18.7V602.2z M1672.4,583.6h18.7v-18.7h-18.7V583.6z M1653.7,583.6h18.7v-18.7h-18.7V583.6z
	 M1578.9,583.6h18.7v-18.7h-18.7V583.6z M1560.3,583.6h18.7v-18.7h-18.7V583.6z M1541.6,583.6h18.7v-18.7h-18.7V583.6z
	 M1522.9,583.6h18.7v-18.7h-18.7V583.6z M1504.2,583.6h18.7v-18.7h-18.7V583.6z M1373.3,583.6h18.7v-18.7h-18.7V583.6z
	 M1354.6,583.6h18.7v-18.7h-18.7V583.6z M1186.4,583.6h18.7v-18.7h-18.7V583.6z M1167.7,583.6h18.7v-18.7h-18.7V583.6z M1149,583.6
	h18.7v-18.7H1149V583.6z M1130.3,583.6h18.7v-18.7h-18.7V583.6z M1111.7,583.6h18.7v-18.7h-18.7V583.6z M1093,583.6h18.7v-18.7H1093
	V583.6z M1074.3,583.6h18.7v-18.7h-18.7V583.6z M1055.6,583.6h18.7v-18.7h-18.7V583.6z M1036.9,583.6h18.7v-18.7h-18.7V583.6z
	 M1018.2,583.6h18.7v-18.7h-18.7V583.6z M999.5,583.6h18.7v-18.7h-18.7V583.6z M980.8,583.6h18.7v-18.7h-18.7V583.6z M962.1,583.6
	h18.7v-18.7h-18.7V583.6z M943.4,583.6h18.7v-18.7h-18.7V583.6z M924.7,583.6h18.7v-18.7h-18.7V583.6z M906,583.6h18.7v-18.7H906
	V583.6z M887.3,583.6H906v-18.7h-18.7V583.6z M868.7,583.6h18.7v-18.7h-18.7V583.6z M850,583.6h18.7v-18.7H850V583.6z M831.3,583.6
	H850v-18.7h-18.7V583.6z M812.6,583.6h18.7v-18.7h-18.7V583.6z M793.9,583.6h18.7v-18.7h-18.7V583.6z M775.2,583.6h18.7v-18.7h-18.7
	V583.6z M345.3,583.6H364v-18.7h-18.7V583.6z M326.6,583.6h18.7v-18.7h-18.7V583.6z M307.9,583.6h18.7v-18.7h-18.7V583.6z
	 M289.2,583.6h18.7v-18.7h-18.7V583.6z M270.5,583.6h18.7v-18.7h-18.7V583.6z M1653.7,564.9h18.7v-18.7h-18.7V564.9z M1560.3,564.9
	h18.7v-18.7h-18.7V564.9z M1541.6,564.9h18.7v-18.7h-18.7V564.9z M1522.9,564.9h18.7v-18.7h-18.7V564.9z M1504.2,564.9h18.7v-18.7
	h-18.7V564.9z M1485.5,564.9h18.7v-18.7h-18.7V564.9z M1392,564.9h18.7v-18.7H1392V564.9z M1373.3,564.9h18.7v-18.7h-18.7V564.9z
	 M1354.6,564.9h18.7v-18.7h-18.7V564.9z M1223.8,564.9h18.7v-18.7h-18.7V564.9z M1205.1,564.9h18.7v-18.7h-18.7V564.9z
	 M1186.4,564.9h18.7v-18.7h-18.7V564.9z M1167.7,564.9h18.7v-18.7h-18.7V564.9z M1149,564.9h18.7v-18.7H1149V564.9z M1130.3,564.9
	h18.7v-18.7h-18.7V564.9z M1111.7,564.9h18.7v-18.7h-18.7V564.9z M1093,564.9h18.7v-18.7H1093V564.9z M1074.3,564.9h18.7v-18.7
	h-18.7V564.9z M1055.6,564.9h18.7v-18.7h-18.7V564.9z M1036.9,564.9h18.7v-18.7h-18.7V564.9z M1018.2,564.9h18.7v-18.7h-18.7V564.9z
	 M999.5,564.9h18.7v-18.7h-18.7V564.9z M980.8,564.9h18.7v-18.7h-18.7V564.9z M962.1,564.9h18.7v-18.7h-18.7V564.9z M943.4,564.9
	h18.7v-18.7h-18.7V564.9z M924.7,564.9h18.7v-18.7h-18.7V564.9z M906,564.9h18.7v-18.7H906V564.9z M887.3,564.9H906v-18.7h-18.7
	V564.9z M868.7,564.9h18.7v-18.7h-18.7V564.9z M850,564.9h18.7v-18.7H850V564.9z M831.3,564.9H850v-18.7h-18.7V564.9z M812.6,564.9
	h18.7v-18.7h-18.7V564.9z M793.9,564.9h18.7v-18.7h-18.7V564.9z M775.2,564.9h18.7v-18.7h-18.7V564.9z M438.8,564.9h18.7v-18.7
	h-18.7V564.9z M420.1,564.9h18.7v-18.7h-18.7V564.9z M307.9,564.9h18.7v-18.7h-18.7V564.9z M289.2,564.9h18.7v-18.7h-18.7V564.9z
	 M270.5,564.9h18.7v-18.7h-18.7V564.9z M251.8,564.9h18.7v-18.7h-18.7V564.9z M233.1,564.9h18.7v-18.7h-18.7V564.9z M1653.7,546.2
	h18.7v-18.7h-18.7V546.2z M1560.3,546.2h18.7v-18.7h-18.7V546.2z M1541.6,546.2h18.7v-18.7h-18.7V546.2z M1522.9,546.2h18.7v-18.7
	h-18.7V546.2z M1504.2,546.2h18.7v-18.7h-18.7V546.2z M1485.5,546.2h18.7v-18.7h-18.7V546.2z M1466.8,546.2h18.7v-18.7h-18.7V546.2z
	 M1410.7,546.2h18.7v-18.7h-18.7V546.2z M1392,546.2h18.7v-18.7H1392V546.2z M1373.3,546.2h18.7v-18.7h-18.7V546.2z M1354.6,546.2
	h18.7v-18.7h-18.7V546.2z M1335.9,546.2h18.7v-18.7h-18.7V546.2z M1242.5,546.2h18.7v-18.7h-18.7V546.2z M1223.8,546.2h18.7v-18.7
	h-18.7V546.2z M1205.1,546.2h18.7v-18.7h-18.7V546.2z M1186.4,546.2h18.7v-18.7h-18.7V546.2z M1167.7,546.2h18.7v-18.7h-18.7V546.2z
	 M1149,546.2h18.7v-18.7H1149V546.2z M1111.7,546.2h18.7v-18.7h-18.7V546.2z M1093,546.2h18.7v-18.7H1093V546.2z M1074.3,546.2h18.7
	v-18.7h-18.7V546.2z M1055.6,546.2h18.7v-18.7h-18.7V546.2z M1036.9,546.2h18.7v-18.7h-18.7V546.2z M1018.2,546.2h18.7v-18.7h-18.7
	V546.2z M999.5,546.2h18.7v-18.7h-18.7V546.2z M980.8,546.2h18.7v-18.7h-18.7V546.2z M962.1,546.2h18.7v-18.7h-18.7V546.2z
	 M943.4,546.2h18.7v-18.7h-18.7V546.2z M924.7,546.2h18.7v-18.7h-18.7V546.2z M906,546.2h18.7v-18.7H906V546.2z M887.3,546.2H906
	v-18.7h-18.7V546.2z M868.7,546.2h18.7v-18.7h-18.7V546.2z M850,546.2h18.7v-18.7H850V546.2z M831.3,546.2H850v-18.7h-18.7V546.2z
	 M812.6,546.2h18.7v-18.7h-18.7V546.2z M793.9,546.2h18.7v-18.7h-18.7V546.2z M775.2,546.2h18.7v-18.7h-18.7V546.2z M401.4,546.2
	h18.7v-18.7h-18.7V546.2z M382.7,546.2h18.7v-18.7h-18.7V546.2z M326.6,546.2h18.7v-18.7h-18.7V546.2z M307.9,546.2h18.7v-18.7
	h-18.7V546.2z M251.8,546.2h18.7v-18.7h-18.7V546.2z M233.1,546.2h18.7v-18.7h-18.7V546.2z M214.4,546.2h18.7v-18.7h-18.7V546.2z
	 M1578.9,527.5h18.7v-18.7h-18.7V527.5z M1560.3,527.5h18.7v-18.7h-18.7V527.5z M1541.6,527.5h18.7v-18.7h-18.7V527.5z
	 M1522.9,527.5h18.7v-18.7h-18.7V527.5z M1504.2,527.5h18.7v-18.7h-18.7V527.5z M1485.5,527.5h18.7v-18.7h-18.7V527.5z
	 M1466.8,527.5h18.7v-18.7h-18.7V527.5z M1429.4,527.5h18.7v-18.7h-18.7V527.5z M1410.7,527.5h18.7v-18.7h-18.7V527.5z M1392,527.5
	h18.7v-18.7H1392V527.5z M1373.3,527.5h18.7v-18.7h-18.7V527.5z M1354.6,527.5h18.7v-18.7h-18.7V527.5z M1335.9,527.5h18.7v-18.7
	h-18.7V527.5z M1317.3,527.5h18.7v-18.7h-18.7V527.5z M1242.5,527.5h18.7v-18.7h-18.7V527.5z M1223.8,527.5h18.7v-18.7h-18.7V527.5z
	 M1205.1,527.5h18.7v-18.7h-18.7V527.5z M1186.4,527.5h18.7v-18.7h-18.7V527.5z M1167.7,527.5h18.7v-18.7h-18.7V527.5z M1149,527.5
	h18.7v-18.7H1149V527.5z M1130.3,527.5h18.7v-18.7h-18.7V527.5z M1111.7,527.5h18.7v-18.7h-18.7V527.5z M1093,527.5h18.7v-18.7H1093
	V527.5z M1074.3,527.5h18.7v-18.7h-18.7V527.5z M1055.6,527.5h18.7v-18.7h-18.7V527.5z M1036.9,527.5h18.7v-18.7h-18.7V527.5z
	 M1018.2,527.5h18.7v-18.7h-18.7V527.5z M999.5,527.5h18.7v-18.7h-18.7V527.5z M980.8,527.5h18.7v-18.7h-18.7V527.5z M962.1,527.5
	h18.7v-18.7h-18.7V527.5z M943.4,527.5h18.7v-18.7h-18.7V527.5z M924.7,527.5h18.7v-18.7h-18.7V527.5z M906,527.5h18.7v-18.7H906
	V527.5z M887.3,527.5H906v-18.7h-18.7V527.5z M868.7,527.5h18.7v-18.7h-18.7V527.5z M850,527.5h18.7v-18.7H850V527.5z M831.3,527.5
	H850v-18.7h-18.7V527.5z M812.6,527.5h18.7v-18.7h-18.7V527.5z M793.9,527.5h18.7v-18.7h-18.7V527.5z M775.2,527.5h18.7v-18.7h-18.7
	V527.5z M364,527.5h18.7v-18.7H364V527.5z M251.8,527.5h18.7v-18.7h-18.7V527.5z M233.1,527.5h18.7v-18.7h-18.7V527.5z M214.4,527.5
	h18.7v-18.7h-18.7V527.5z M195.8,527.5h18.7v-18.7h-18.7V527.5z M1635,508.8h18.7v-18.7H1635V508.8z M1597.6,508.8h18.7v-18.7h-18.7
	V508.8z M1578.9,508.8h18.7v-18.7h-18.7V508.8z M1560.3,508.8h18.7v-18.7h-18.7V508.8z M1541.6,508.8h18.7v-18.7h-18.7V508.8z
	 M1522.9,508.8h18.7v-18.7h-18.7V508.8z M1504.2,508.8h18.7v-18.7h-18.7V508.8z M1485.5,508.8h18.7v-18.7h-18.7V508.8z
	 M1466.8,508.8h18.7v-18.7h-18.7V508.8z M1448.1,508.8h18.7v-18.7h-18.7V508.8z M1429.4,508.8h18.7v-18.7h-18.7V508.8z
	 M1410.7,508.8h18.7v-18.7h-18.7V508.8z M1392,508.8h18.7v-18.7H1392V508.8z M1373.3,508.8h18.7v-18.7h-18.7V508.8z M1354.6,508.8
	h18.7v-18.7h-18.7V508.8z M1335.9,508.8h18.7v-18.7h-18.7V508.8z M1317.3,508.8h18.7v-18.7h-18.7V508.8z M1242.5,508.8h18.7v-18.7
	h-18.7V508.8z M1223.8,508.8h18.7v-18.7h-18.7V508.8z M1205.1,508.8h18.7v-18.7h-18.7V508.8z M1186.4,508.8h18.7v-18.7h-18.7V508.8z
	 M1167.7,508.8h18.7v-18.7h-18.7V508.8z M1149,508.8h18.7v-18.7H1149V508.8z M1130.3,508.8h18.7v-18.7h-18.7V508.8z M1111.7,508.8
	h18.7v-18.7h-18.7V508.8z M1093,508.8h18.7v-18.7H1093V508.8z M1074.3,508.8h18.7v-18.7h-18.7V508.8z M1055.6,508.8h18.7v-18.7
	h-18.7V508.8z M1036.9,508.8h18.7v-18.7h-18.7V508.8z M1018.2,508.8h18.7v-18.7h-18.7V508.8z M999.5,508.8h18.7v-18.7h-18.7V508.8z
	 M980.8,508.8h18.7v-18.7h-18.7V508.8z M962.1,508.8h18.7v-18.7h-18.7V508.8z M943.4,508.8h18.7v-18.7h-18.7V508.8z M924.7,508.8
	h18.7v-18.7h-18.7V508.8z M906,508.8h18.7v-18.7H906V508.8z M887.3,508.8H906v-18.7h-18.7V508.8z M868.7,508.8h18.7v-18.7h-18.7
	V508.8z M850,508.8h18.7v-18.7H850V508.8z M831.3,508.8H850v-18.7h-18.7V508.8z M812.6,508.8h18.7v-18.7h-18.7V508.8z M793.9,508.8
	h18.7v-18.7h-18.7V508.8z M775.2,508.8h18.7v-18.7h-18.7V508.8z M382.7,508.8h18.7v-18.7h-18.7V508.8z M270.5,508.8h18.7v-18.7
	h-18.7V508.8z M251.8,508.8h18.7v-18.7h-18.7V508.8z M233.1,508.8h18.7v-18.7h-18.7V508.8z M214.4,508.8h18.7v-18.7h-18.7V508.8z
	 M195.8,508.8h18.7v-18.7h-18.7V508.8z M177.1,508.8h18.7v-18.7h-18.7V508.8z M1635,490.1h18.7v-18.7H1635V490.1z M1616.3,490.1
	h18.7v-18.7h-18.7V490.1z M1597.6,490.1h18.7v-18.7h-18.7V490.1z M1578.9,490.1h18.7v-18.7h-18.7V490.1z M1560.3,490.1h18.7v-18.7
	h-18.7V490.1z M1541.6,490.1h18.7v-18.7h-18.7V490.1z M1522.9,490.1h18.7v-18.7h-18.7V490.1z M1504.2,490.1h18.7v-18.7h-18.7V490.1z
	 M1485.5,490.1h18.7v-18.7h-18.7V490.1z M1466.8,490.1h18.7v-18.7h-18.7V490.1z M1448.1,490.1h18.7v-18.7h-18.7V490.1z
	 M1429.4,490.1h18.7v-18.7h-18.7V490.1z M1410.7,490.1h18.7v-18.7h-18.7V490.1z M1392,490.1h18.7v-18.7H1392V490.1z M1373.3,490.1
	h18.7v-18.7h-18.7V490.1z M1354.6,490.1h18.7v-18.7h-18.7V490.1z M1335.9,490.1h18.7v-18.7h-18.7V490.1z M1317.3,490.1h18.7v-18.7
	h-18.7V490.1z M1298.6,490.1h18.7v-18.7h-18.7V490.1z M1279.9,490.1h18.7v-18.7h-18.7V490.1z M1261.2,490.1h18.7v-18.7h-18.7V490.1z
	 M1242.5,490.1h18.7v-18.7h-18.7V490.1z M1223.8,490.1h18.7v-18.7h-18.7V490.1z M1186.4,490.1h18.7v-18.7h-18.7V490.1z
	 M1167.7,490.1h18.7v-18.7h-18.7V490.1z M1149,490.1h18.7v-18.7H1149V490.1z M1130.3,490.1h18.7v-18.7h-18.7V490.1z M1111.7,490.1
	h18.7v-18.7h-18.7V490.1z M1093,490.1h18.7v-18.7H1093V490.1z M1074.3,490.1h18.7v-18.7h-18.7V490.1z M1055.6,490.1h18.7v-18.7
	h-18.7V490.1z M1036.9,490.1h18.7v-18.7h-18.7V490.1z M1018.2,490.1h18.7v-18.7h-18.7V490.1z M999.5,490.1h18.7v-18.7h-18.7V490.1z
	 M980.8,490.1h18.7v-18.7h-18.7V490.1z M962.1,490.1h18.7v-18.7h-18.7V490.1z M943.4,490.1h18.7v-18.7h-18.7V490.1z M924.7,490.1
	h18.7v-18.7h-18.7V490.1z M906,490.1h18.7v-18.7H906V490.1z M887.3,490.1H906v-18.7h-18.7V490.1z M868.7,490.1h18.7v-18.7h-18.7
	V490.1z M850,490.1h18.7v-18.7H850V490.1z M831.3,490.1H850v-18.7h-18.7V490.1z M812.6,490.1h18.7v-18.7h-18.7V490.1z M793.9,490.1
	h18.7v-18.7h-18.7V490.1z M382.7,490.1h18.7v-18.7h-18.7V490.1z M307.9,490.1h18.7v-18.7h-18.7V490.1z M289.2,490.1h18.7v-18.7
	h-18.7V490.1z M270.5,490.1h18.7v-18.7h-18.7V490.1z M251.8,490.1h18.7v-18.7h-18.7V490.1z M233.1,490.1h18.7v-18.7h-18.7V490.1z
	 M214.4,490.1h18.7v-18.7h-18.7V490.1z M195.8,490.1h18.7v-18.7h-18.7V490.1z M177.1,490.1h18.7v-18.7h-18.7V490.1z M1616.3,471.4
	h18.7v-18.7h-18.7V471.4z M1597.6,471.4h18.7v-18.7h-18.7V471.4z M1578.9,471.4h18.7v-18.7h-18.7V471.4z M1560.3,471.4h18.7v-18.7
	h-18.7V471.4z M1541.6,471.4h18.7v-18.7h-18.7V471.4z M1522.9,471.4h18.7v-18.7h-18.7V471.4z M1504.2,471.4h18.7v-18.7h-18.7V471.4z
	 M1485.5,471.4h18.7v-18.7h-18.7V471.4z M1466.8,471.4h18.7v-18.7h-18.7V471.4z M1448.1,471.4h18.7v-18.7h-18.7V471.4z
	 M1429.4,471.4h18.7v-18.7h-18.7V471.4z M1410.7,471.4h18.7v-18.7h-18.7V471.4z M1392,471.4h18.7v-18.7H1392V471.4z M1373.3,471.4
	h18.7v-18.7h-18.7V471.4z M1354.6,471.4h18.7v-18.7h-18.7V471.4z M1335.9,471.4h18.7v-18.7h-18.7V471.4z M1317.3,471.4h18.7v-18.7
	h-18.7V471.4z M1298.6,471.4h18.7v-18.7h-18.7V471.4z M1279.9,471.4h18.7v-18.7h-18.7V471.4z M1261.2,471.4h18.7v-18.7h-18.7V471.4z
	 M1242.5,471.4h18.7v-18.7h-18.7V471.4z M1223.8,471.4h18.7v-18.7h-18.7V471.4z M1205.1,471.4h18.7v-18.7h-18.7V471.4z
	 M1186.4,471.4h18.7v-18.7h-18.7V471.4z M1167.7,471.4h18.7v-18.7h-18.7V471.4z M1149,471.4h18.7v-18.7H1149V471.4z M1130.3,471.4
	h18.7v-18.7h-18.7V471.4z M1111.7,471.4h18.7v-18.7h-18.7V471.4z M1093,471.4h18.7v-18.7H1093V471.4z M1074.3,471.4h18.7v-18.7
	h-18.7V471.4z M1055.6,471.4h18.7v-18.7h-18.7V471.4z M1036.9,471.4h18.7v-18.7h-18.7V471.4z M1018.2,471.4h18.7v-18.7h-18.7V471.4z
	 M999.5,471.4h18.7v-18.7h-18.7V471.4z M980.8,471.4h18.7v-18.7h-18.7V471.4z M962.1,471.4h18.7v-18.7h-18.7V471.4z M943.4,471.4
	h18.7v-18.7h-18.7V471.4z M924.7,471.4h18.7v-18.7h-18.7V471.4z M906,471.4h18.7v-18.7H906V471.4z M887.3,471.4H906v-18.7h-18.7
	V471.4z M868.7,471.4h18.7v-18.7h-18.7V471.4z M850,471.4h18.7v-18.7H850V471.4z M831.3,471.4H850v-18.7h-18.7V471.4z M812.6,471.4
	h18.7v-18.7h-18.7V471.4z M382.7,471.4h18.7v-18.7h-18.7V471.4z M364,471.4h18.7v-18.7H364V471.4z M345.3,471.4H364v-18.7h-18.7
	V471.4z M326.6,471.4h18.7v-18.7h-18.7V471.4z M307.9,471.4h18.7v-18.7h-18.7V471.4z M289.2,471.4h18.7v-18.7h-18.7V471.4z
	 M270.5,471.4h18.7v-18.7h-18.7V471.4z M251.8,471.4h18.7v-18.7h-18.7V471.4z M233.1,471.4h18.7v-18.7h-18.7V471.4z M214.4,471.4
	h18.7v-18.7h-18.7V471.4z M195.8,471.4h18.7v-18.7h-18.7V471.4z M177.1,471.4h18.7v-18.7h-18.7V471.4z M158.4,471.4h18.7v-18.7
	h-18.7V471.4z M1635,452.7h18.7V434H1635V452.7z M1616.3,452.7h18.7V434h-18.7V452.7z M1597.6,452.7h18.7V434h-18.7V452.7z
	 M1578.9,452.7h18.7V434h-18.7V452.7z M1560.3,452.7h18.7V434h-18.7V452.7z M1541.6,452.7h18.7V434h-18.7V452.7z M1522.9,452.7h18.7
	V434h-18.7V452.7z M1504.2,452.7h18.7V434h-18.7V452.7z M1485.5,452.7h18.7V434h-18.7V452.7z M1466.8,452.7h18.7V434h-18.7V452.7z
	 M1448.1,452.7h18.7V434h-18.7V452.7z M1429.4,452.7h18.7V434h-18.7V452.7z M1410.7,452.7h18.7V434h-18.7V452.7z M1392,452.7h18.7
	V434H1392V452.7z M1373.3,452.7h18.7V434h-18.7V452.7z M1354.6,452.7h18.7V434h-18.7V452.7z M1335.9,452.7h18.7V434h-18.7V452.7z
	 M1317.3,452.7h18.7V434h-18.7V452.7z M1298.6,452.7h18.7V434h-18.7V452.7z M1279.9,452.7h18.7V434h-18.7V452.7z M1261.2,452.7h18.7
	V434h-18.7V452.7z M1242.5,452.7h18.7V434h-18.7V452.7z M1223.8,452.7h18.7V434h-18.7V452.7z M1205.1,452.7h18.7V434h-18.7V452.7z
	 M1186.4,452.7h18.7V434h-18.7V452.7z M1167.7,452.7h18.7V434h-18.7V452.7z M1149,452.7h18.7V434H1149V452.7z M1130.3,452.7h18.7
	V434h-18.7V452.7z M1111.7,452.7h18.7V434h-18.7V452.7z M1093,452.7h18.7V434H1093V452.7z M1074.3,452.7h18.7V434h-18.7V452.7z
	 M1055.6,452.7h18.7V434h-18.7V452.7z M1036.9,452.7h18.7V434h-18.7V452.7z M1018.2,452.7h18.7V434h-18.7V452.7z M999.5,452.7h18.7
	V434h-18.7V452.7z M980.8,452.7h18.7V434h-18.7V452.7z M962.1,452.7h18.7V434h-18.7V452.7z M943.4,452.7h18.7V434h-18.7V452.7z
	 M924.7,452.7h18.7V434h-18.7V452.7z M906,452.7h18.7V434H906V452.7z M887.3,452.7H906V434h-18.7V452.7z M868.7,452.7h18.7V434
	h-18.7V452.7z M850,452.7h18.7V434H850V452.7z M831.3,452.7H850V434h-18.7V452.7z M382.7,452.7h18.7V434h-18.7V452.7z M364,452.7
	h18.7V434H364V452.7z M345.3,452.7H364V434h-18.7V452.7z M326.6,452.7h18.7V434h-18.7V452.7z M307.9,452.7h18.7V434h-18.7V452.7z
	 M289.2,452.7h18.7V434h-18.7V452.7z M270.5,452.7h18.7V434h-18.7V452.7z M251.8,452.7h18.7V434h-18.7V452.7z M233.1,452.7h18.7V434
	h-18.7V452.7z M214.4,452.7h18.7V434h-18.7V452.7z M195.8,452.7h18.7V434h-18.7V452.7z M177.1,452.7h18.7V434h-18.7V452.7z
	 M158.4,452.7h18.7V434h-18.7V452.7z M1691.1,434h18.7v-18.7h-18.7V434z M1672.4,434h18.7v-18.7h-18.7V434z M1616.3,434h18.7v-18.7
	h-18.7V434z M1597.6,434h18.7v-18.7h-18.7V434z M1578.9,434h18.7v-18.7h-18.7V434z M1560.3,434h18.7v-18.7h-18.7V434z M1541.6,434
	h18.7v-18.7h-18.7V434z M1522.9,434h18.7v-18.7h-18.7V434z M1504.2,434h18.7v-18.7h-18.7V434z M1485.5,434h18.7v-18.7h-18.7V434z
	 M1466.8,434h18.7v-18.7h-18.7V434z M1448.1,434h18.7v-18.7h-18.7V434z M1429.4,434h18.7v-18.7h-18.7V434z M1410.7,434h18.7v-18.7
	h-18.7V434z M1392,434h18.7v-18.7H1392V434z M1373.3,434h18.7v-18.7h-18.7V434z M1354.6,434h18.7v-18.7h-18.7V434z M1335.9,434h18.7
	v-18.7h-18.7V434z M1317.3,434h18.7v-18.7h-18.7V434z M1298.6,434h18.7v-18.7h-18.7V434z M1279.9,434h18.7v-18.7h-18.7V434z
	 M1261.2,434h18.7v-18.7h-18.7V434z M1242.5,434h18.7v-18.7h-18.7V434z M1223.8,434h18.7v-18.7h-18.7V434z M1205.1,434h18.7v-18.7
	h-18.7V434z M1186.4,434h18.7v-18.7h-18.7V434z M1167.7,434h18.7v-18.7h-18.7V434z M1149,434h18.7v-18.7H1149V434z M1130.3,434h18.7
	v-18.7h-18.7V434z M1111.7,434h18.7v-18.7h-18.7V434z M943.4,434h18.7v-18.7h-18.7V434z M924.7,434h18.7v-18.7h-18.7V434z M906,434
	h18.7v-18.7H906V434z M887.3,434H906v-18.7h-18.7V434z M868.7,434h18.7v-18.7h-18.7V434z M850,434h18.7v-18.7H850V434z M420.1,434
	h18.7v-18.7h-18.7V434z M401.4,434h18.7v-18.7h-18.7V434z M382.7,434h18.7v-18.7h-18.7V434z M364,434h18.7v-18.7H364V434z
	 M345.3,434H364v-18.7h-18.7V434z M326.6,434h18.7v-18.7h-18.7V434z M307.9,434h18.7v-18.7h-18.7V434z M289.2,434h18.7v-18.7h-18.7
	V434z M270.5,434h18.7v-18.7h-18.7V434z M251.8,434h18.7v-18.7h-18.7V434z M233.1,434h18.7v-18.7h-18.7V434z M214.4,434h18.7v-18.7
	h-18.7V434z M195.8,434h18.7v-18.7h-18.7V434z M177.1,434h18.7v-18.7h-18.7V434z M158.4,434h18.7v-18.7h-18.7V434z M1728.5,415.4
	h18.7v-18.7h-18.7V415.4z M1709.8,415.4h18.7v-18.7h-18.7V415.4z M1691.1,415.4h18.7v-18.7h-18.7V415.4z M1672.4,415.4h18.7v-18.7
	h-18.7V415.4z M1653.7,415.4h18.7v-18.7h-18.7V415.4z M1597.6,415.4h18.7v-18.7h-18.7V415.4z M1578.9,415.4h18.7v-18.7h-18.7V415.4z
	 M1560.3,415.4h18.7v-18.7h-18.7V415.4z M1541.6,415.4h18.7v-18.7h-18.7V415.4z M1522.9,415.4h18.7v-18.7h-18.7V415.4z
	 M1504.2,415.4h18.7v-18.7h-18.7V415.4z M1485.5,415.4h18.7v-18.7h-18.7V415.4z M1466.8,415.4h18.7v-18.7h-18.7V415.4z
	 M1448.1,415.4h18.7v-18.7h-18.7V415.4z M1429.4,415.4h18.7v-18.7h-18.7V415.4z M1410.7,415.4h18.7v-18.7h-18.7V415.4z M1392,415.4
	h18.7v-18.7H1392V415.4z M1373.3,415.4h18.7v-18.7h-18.7V415.4z M1354.6,415.4h18.7v-18.7h-18.7V415.4z M1335.9,415.4h18.7v-18.7
	h-18.7V415.4z M1317.3,415.4h18.7v-18.7h-18.7V415.4z M1298.6,415.4h18.7v-18.7h-18.7V415.4z M1279.9,415.4h18.7v-18.7h-18.7V415.4z
	 M1261.2,415.4h18.7v-18.7h-18.7V415.4z M1242.5,415.4h18.7v-18.7h-18.7V415.4z M1223.8,415.4h18.7v-18.7h-18.7V415.4z
	 M1205.1,415.4h18.7v-18.7h-18.7V415.4z M1186.4,415.4h18.7v-18.7h-18.7V415.4z M1167.7,415.4h18.7v-18.7h-18.7V415.4z M1149,415.4
	h18.7v-18.7H1149V415.4z M1130.3,415.4h18.7v-18.7h-18.7V415.4z M1111.7,415.4h18.7v-18.7h-18.7V415.4z M1093,415.4h18.7v-18.7H1093
	V415.4z M1074.3,415.4h18.7v-18.7h-18.7V415.4z M1055.6,415.4h18.7v-18.7h-18.7V415.4z M962.1,415.4h18.7v-18.7h-18.7V415.4z
	 M924.7,415.4h18.7v-18.7h-18.7V415.4z M868.7,415.4h18.7v-18.7h-18.7V415.4z M850,415.4h18.7v-18.7H850V415.4z M831.3,415.4H850
	v-18.7h-18.7V415.4z M438.8,415.4h18.7v-18.7h-18.7V415.4z M420.1,415.4h18.7v-18.7h-18.7V415.4z M401.4,415.4h18.7v-18.7h-18.7
	V415.4z M382.7,415.4h18.7v-18.7h-18.7V415.4z M364,415.4h18.7v-18.7H364V415.4z M345.3,415.4H364v-18.7h-18.7V415.4z M326.6,415.4
	h18.7v-18.7h-18.7V415.4z M307.9,415.4h18.7v-18.7h-18.7V415.4z M289.2,415.4h18.7v-18.7h-18.7V415.4z M270.5,415.4h18.7v-18.7
	h-18.7V415.4z M251.8,415.4h18.7v-18.7h-18.7V415.4z M233.1,415.4h18.7v-18.7h-18.7V415.4z M214.4,415.4h18.7v-18.7h-18.7V415.4z
	 M195.8,415.4h18.7v-18.7h-18.7V415.4z M177.1,415.4h18.7v-18.7h-18.7V415.4z M158.4,415.4h18.7v-18.7h-18.7V415.4z M139.7,415.4
	h18.7v-18.7h-18.7V415.4z M1709.8,396.7h18.7V378h-18.7V396.7z M1635,396.7h18.7V378H1635V396.7z M1616.3,396.7h18.7V378h-18.7
	V396.7z M1597.6,396.7h18.7V378h-18.7V396.7z M1578.9,396.7h18.7V378h-18.7V396.7z M1560.3,396.7h18.7V378h-18.7V396.7z
	 M1541.6,396.7h18.7V378h-18.7V396.7z M1522.9,396.7h18.7V378h-18.7V396.7z M1504.2,396.7h18.7V378h-18.7V396.7z M1485.5,396.7h18.7
	V378h-18.7V396.7z M1466.8,396.7h18.7V378h-18.7V396.7z M1448.1,396.7h18.7V378h-18.7V396.7z M1429.4,396.7h18.7V378h-18.7V396.7z
	 M1410.7,396.7h18.7V378h-18.7V396.7z M1392,396.7h18.7V378H1392V396.7z M1373.3,396.7h18.7V378h-18.7V396.7z M1354.6,396.7h18.7
	V378h-18.7V396.7z M1335.9,396.7h18.7V378h-18.7V396.7z M1317.3,396.7h18.7V378h-18.7V396.7z M1298.6,396.7h18.7V378h-18.7V396.7z
	 M1279.9,396.7h18.7V378h-18.7V396.7z M1261.2,396.7h18.7V378h-18.7V396.7z M1242.5,396.7h18.7V378h-18.7V396.7z M1223.8,396.7h18.7
	V378h-18.7V396.7z M1205.1,396.7h18.7V378h-18.7V396.7z M1167.7,396.7h18.7V378h-18.7V396.7z M1149,396.7h18.7V378H1149V396.7z
	 M1130.3,396.7h18.7V378h-18.7V396.7z M1111.7,396.7h18.7V378h-18.7V396.7z M1093,396.7h18.7V378H1093V396.7z M1074.3,396.7h18.7
	V378h-18.7V396.7z M1055.6,396.7h18.7V378h-18.7V396.7z M1036.9,396.7h18.7V378h-18.7V396.7z M1018.2,396.7h18.7V378h-18.7V396.7z
	 M999.5,396.7h18.7V378h-18.7V396.7z M980.8,396.7h18.7V378h-18.7V396.7z M924.7,396.7h18.7V378h-18.7V396.7z M887.3,396.7H906V378
	h-18.7V396.7z M868.7,396.7h18.7V378h-18.7V396.7z M850,396.7h18.7V378H850V396.7z M831.3,396.7H850V378h-18.7V396.7z M457.4,396.7
	h18.7V378h-18.7V396.7z M438.8,396.7h18.7V378h-18.7V396.7z M420.1,396.7h18.7V378h-18.7V396.7z M401.4,396.7h18.7V378h-18.7V396.7z
	 M382.7,396.7h18.7V378h-18.7V396.7z M364,396.7h18.7V378H364V396.7z M345.3,396.7H364V378h-18.7V396.7z M326.6,396.7h18.7V378
	h-18.7V396.7z M307.9,396.7h18.7V378h-18.7V396.7z M289.2,396.7h18.7V378h-18.7V396.7z M270.5,396.7h18.7V378h-18.7V396.7z
	 M251.8,396.7h18.7V378h-18.7V396.7z M233.1,396.7h18.7V378h-18.7V396.7z M214.4,396.7h18.7V378h-18.7V396.7z M195.8,396.7h18.7V378
	h-18.7V396.7z M177.1,396.7h18.7V378h-18.7V396.7z M158.4,396.7h18.7V378h-18.7V396.7z M1709.8,378h18.7v-18.7h-18.7V378z M1635,378
	h18.7v-18.7H1635V378z M1616.3,378h18.7v-18.7h-18.7V378z M1597.6,378h18.7v-18.7h-18.7V378z M1578.9,378h18.7v-18.7h-18.7V378z
	 M1560.3,378h18.7v-18.7h-18.7V378z M1541.6,378h18.7v-18.7h-18.7V378z M1522.9,378h18.7v-18.7h-18.7V378z M1504.2,378h18.7v-18.7
	h-18.7V378z M1485.5,378h18.7v-18.7h-18.7V378z M1466.8,378h18.7v-18.7h-18.7V378z M1448.1,378h18.7v-18.7h-18.7V378z M1429.4,378
	h18.7v-18.7h-18.7V378z M1410.7,378h18.7v-18.7h-18.7V378z M1392,378h18.7v-18.7H1392V378z M1373.3,378h18.7v-18.7h-18.7V378z
	 M1354.6,378h18.7v-18.7h-18.7V378z M1335.9,378h18.7v-18.7h-18.7V378z M1317.3,378h18.7v-18.7h-18.7V378z M1298.6,378h18.7v-18.7
	h-18.7V378z M1279.9,378h18.7v-18.7h-18.7V378z M1261.2,378h18.7v-18.7h-18.7V378z M1242.5,378h18.7v-18.7h-18.7V378z M1223.8,378
	h18.7v-18.7h-18.7V378z M1205.1,378h18.7v-18.7h-18.7V378z M1186.4,378h18.7v-18.7h-18.7V378z M1167.7,378h18.7v-18.7h-18.7V378z
	 M1149,378h18.7v-18.7H1149V378z M1130.3,378h18.7v-18.7h-18.7V378z M1111.7,378h18.7v-18.7h-18.7V378z M1093,378h18.7v-18.7H1093
	V378z M1074.3,378h18.7v-18.7h-18.7V378z M1055.6,378h18.7v-18.7h-18.7V378z M1036.9,378h18.7v-18.7h-18.7V378z M1018.2,378h18.7
	v-18.7h-18.7V378z M999.5,378h18.7v-18.7h-18.7V378z M962.1,378h18.7v-18.7h-18.7V378z M943.4,378h18.7v-18.7h-18.7V378z M924.7,378
	h18.7v-18.7h-18.7V378z M887.3,378H906v-18.7h-18.7V378z M868.7,378h18.7v-18.7h-18.7V378z M850,378h18.7v-18.7H850V378z M831.3,378
	H850v-18.7h-18.7V378z M476.1,378h18.7v-18.7h-18.7V378z M457.4,378h18.7v-18.7h-18.7V378z M438.8,378h18.7v-18.7h-18.7V378z
	 M420.1,378h18.7v-18.7h-18.7V378z M401.4,378h18.7v-18.7h-18.7V378z M382.7,378h18.7v-18.7h-18.7V378z M364,378h18.7v-18.7H364V378
	z M345.3,378H364v-18.7h-18.7V378z M326.6,378h18.7v-18.7h-18.7V378z M307.9,378h18.7v-18.7h-18.7V378z M289.2,378h18.7v-18.7h-18.7
	V378z M270.5,378h18.7v-18.7h-18.7V378z M251.8,378h18.7v-18.7h-18.7V378z M233.1,378h18.7v-18.7h-18.7V378z M214.4,378h18.7v-18.7
	h-18.7V378z M195.8,378h18.7v-18.7h-18.7V378z M177.1,378h18.7v-18.7h-18.7V378z M158.4,378h18.7v-18.7h-18.7V378z M1709.8,359.3
	h18.7v-18.7h-18.7V359.3z M1653.7,359.3h18.7v-18.7h-18.7V359.3z M1635,359.3h18.7v-18.7H1635V359.3z M1616.3,359.3h18.7v-18.7
	h-18.7V359.3z M1597.6,359.3h18.7v-18.7h-18.7V359.3z M1578.9,359.3h18.7v-18.7h-18.7V359.3z M1560.3,359.3h18.7v-18.7h-18.7V359.3z
	 M1541.6,359.3h18.7v-18.7h-18.7V359.3z M1522.9,359.3h18.7v-18.7h-18.7V359.3z M1504.2,359.3h18.7v-18.7h-18.7V359.3z
	 M1485.5,359.3h18.7v-18.7h-18.7V359.3z M1466.8,359.3h18.7v-18.7h-18.7V359.3z M1448.1,359.3h18.7v-18.7h-18.7V359.3z
	 M1429.4,359.3h18.7v-18.7h-18.7V359.3z M1410.7,359.3h18.7v-18.7h-18.7V359.3z M1392,359.3h18.7v-18.7H1392V359.3z M1373.3,359.3
	h18.7v-18.7h-18.7V359.3z M1354.6,359.3h18.7v-18.7h-18.7V359.3z M1335.9,359.3h18.7v-18.7h-18.7V359.3z M1317.3,359.3h18.7v-18.7
	h-18.7V359.3z M1298.6,359.3h18.7v-18.7h-18.7V359.3z M1279.9,359.3h18.7v-18.7h-18.7V359.3z M1261.2,359.3h18.7v-18.7h-18.7V359.3z
	 M1242.5,359.3h18.7v-18.7h-18.7V359.3z M1223.8,359.3h18.7v-18.7h-18.7V359.3z M1205.1,359.3h18.7v-18.7h-18.7V359.3z
	 M1186.4,359.3h18.7v-18.7h-18.7V359.3z M1149,359.3h18.7v-18.7H1149V359.3z M1130.3,359.3h18.7v-18.7h-18.7V359.3z M1111.7,359.3
	h18.7v-18.7h-18.7V359.3z M1093,359.3h18.7v-18.7H1093V359.3z M1074.3,359.3h18.7v-18.7h-18.7V359.3z M1036.9,359.3h18.7v-18.7
	h-18.7V359.3z M1018.2,359.3h18.7v-18.7h-18.7V359.3z M999.5,359.3h18.7v-18.7h-18.7V359.3z M980.8,359.3h18.7v-18.7h-18.7V359.3z
	 M962.1,359.3h18.7v-18.7h-18.7V359.3z M943.4,359.3h18.7v-18.7h-18.7V359.3z M924.7,359.3h18.7v-18.7h-18.7V359.3z M906,359.3h18.7
	v-18.7H906V359.3z M887.3,359.3H906v-18.7h-18.7V359.3z M868.7,359.3h18.7v-18.7h-18.7V359.3z M532.2,359.3h18.7v-18.7h-18.7V359.3z
	 M513.5,359.3h18.7v-18.7h-18.7V359.3z M494.8,359.3h18.7v-18.7h-18.7V359.3z M476.1,359.3h18.7v-18.7h-18.7V359.3z M457.4,359.3
	h18.7v-18.7h-18.7V359.3z M438.8,359.3h18.7v-18.7h-18.7V359.3z M420.1,359.3h18.7v-18.7h-18.7V359.3z M401.4,359.3h18.7v-18.7
	h-18.7V359.3z M382.7,359.3h18.7v-18.7h-18.7V359.3z M364,359.3h18.7v-18.7H364V359.3z M345.3,359.3H364v-18.7h-18.7V359.3z
	 M326.6,359.3h18.7v-18.7h-18.7V359.3z M307.9,359.3h18.7v-18.7h-18.7V359.3z M289.2,359.3h18.7v-18.7h-18.7V359.3z M270.5,359.3
	h18.7v-18.7h-18.7V359.3z M251.8,359.3h18.7v-18.7h-18.7V359.3z M233.1,359.3h18.7v-18.7h-18.7V359.3z M214.4,359.3h18.7v-18.7
	h-18.7V359.3z M195.8,359.3h18.7v-18.7h-18.7V359.3z M177.1,359.3h18.7v-18.7h-18.7V359.3z M1691.1,340.6h18.7v-18.7h-18.7V340.6z
	 M1653.7,340.6h18.7v-18.7h-18.7V340.6z M1635,340.6h18.7v-18.7H1635V340.6z M1616.3,340.6h18.7v-18.7h-18.7V340.6z M1597.6,340.6
	h18.7v-18.7h-18.7V340.6z M1578.9,340.6h18.7v-18.7h-18.7V340.6z M1560.3,340.6h18.7v-18.7h-18.7V340.6z M1541.6,340.6h18.7v-18.7
	h-18.7V340.6z M1522.9,340.6h18.7v-18.7h-18.7V340.6z M1504.2,340.6h18.7v-18.7h-18.7V340.6z M1485.5,340.6h18.7v-18.7h-18.7V340.6z
	 M1466.8,340.6h18.7v-18.7h-18.7V340.6z M1448.1,340.6h18.7v-18.7h-18.7V340.6z M1429.4,340.6h18.7v-18.7h-18.7V340.6z
	 M1410.7,340.6h18.7v-18.7h-18.7V340.6z M1392,340.6h18.7v-18.7H1392V340.6z M1373.3,340.6h18.7v-18.7h-18.7V340.6z M1354.6,340.6
	h18.7v-18.7h-18.7V340.6z M1335.9,340.6h18.7v-18.7h-18.7V340.6z M1317.3,340.6h18.7v-18.7h-18.7V340.6z M1298.6,340.6h18.7v-18.7
	h-18.7V340.6z M1279.9,340.6h18.7v-18.7h-18.7V340.6z M1261.2,340.6h18.7v-18.7h-18.7V340.6z M1242.5,340.6h18.7v-18.7h-18.7V340.6z
	 M1223.8,340.6h18.7v-18.7h-18.7V340.6z M1205.1,340.6h18.7v-18.7h-18.7V340.6z M1186.4,340.6h18.7v-18.7h-18.7V340.6z
	 M1167.7,340.6h18.7v-18.7h-18.7V340.6z M1149,340.6h18.7v-18.7H1149V340.6z M1130.3,340.6h18.7v-18.7h-18.7V340.6z M1111.7,340.6
	h18.7v-18.7h-18.7V340.6z M1093,340.6h18.7v-18.7H1093V340.6z M1074.3,340.6h18.7v-18.7h-18.7V340.6z M1055.6,340.6h18.7v-18.7
	h-18.7V340.6z M1036.9,340.6h18.7v-18.7h-18.7V340.6z M1018.2,340.6h18.7v-18.7h-18.7V340.6z M999.5,340.6h18.7v-18.7h-18.7V340.6z
	 M980.8,340.6h18.7v-18.7h-18.7V340.6z M962.1,340.6h18.7v-18.7h-18.7V340.6z M943.4,340.6h18.7v-18.7h-18.7V340.6z M924.7,340.6
	h18.7v-18.7h-18.7V340.6z M906,340.6h18.7v-18.7H906V340.6z M887.3,340.6H906v-18.7h-18.7V340.6z M868.7,340.6h18.7v-18.7h-18.7
	V340.6z M569.6,340.6h18.7v-18.7h-18.7V340.6z M550.9,340.6h18.7v-18.7h-18.7V340.6z M532.2,340.6h18.7v-18.7h-18.7V340.6z
	 M513.5,340.6h18.7v-18.7h-18.7V340.6z M494.8,340.6h18.7v-18.7h-18.7V340.6z M476.1,340.6h18.7v-18.7h-18.7V340.6z M457.4,340.6
	h18.7v-18.7h-18.7V340.6z M438.8,340.6h18.7v-18.7h-18.7V340.6z M420.1,340.6h18.7v-18.7h-18.7V340.6z M401.4,340.6h18.7v-18.7
	h-18.7V340.6z M382.7,340.6h18.7v-18.7h-18.7V340.6z M364,340.6h18.7v-18.7H364V340.6z M345.3,340.6H364v-18.7h-18.7V340.6z
	 M326.6,340.6h18.7v-18.7h-18.7V340.6z M307.9,340.6h18.7v-18.7h-18.7V340.6z M289.2,340.6h18.7v-18.7h-18.7V340.6z M270.5,340.6
	h18.7v-18.7h-18.7V340.6z M251.8,340.6h18.7v-18.7h-18.7V340.6z M233.1,340.6h18.7v-18.7h-18.7V340.6z M214.4,340.6h18.7v-18.7
	h-18.7V340.6z M195.8,340.6h18.7v-18.7h-18.7V340.6z M177.1,340.6h18.7v-18.7h-18.7V340.6z M1691.1,321.9h18.7v-18.7h-18.7V321.9z
	 M1653.7,321.9h18.7v-18.7h-18.7V321.9z M1635,321.9h18.7v-18.7H1635V321.9z M1616.3,321.9h18.7v-18.7h-18.7V321.9z M1597.6,321.9
	h18.7v-18.7h-18.7V321.9z M1578.9,321.9h18.7v-18.7h-18.7V321.9z M1560.3,321.9h18.7v-18.7h-18.7V321.9z M1541.6,321.9h18.7v-18.7
	h-18.7V321.9z M1522.9,321.9h18.7v-18.7h-18.7V321.9z M1504.2,321.9h18.7v-18.7h-18.7V321.9z M1485.5,321.9h18.7v-18.7h-18.7V321.9z
	 M1466.8,321.9h18.7v-18.7h-18.7V321.9z M1448.1,321.9h18.7v-18.7h-18.7V321.9z M1429.4,321.9h18.7v-18.7h-18.7V321.9z
	 M1410.7,321.9h18.7v-18.7h-18.7V321.9z M1392,321.9h18.7v-18.7H1392V321.9z M1373.3,321.9h18.7v-18.7h-18.7V321.9z M1354.6,321.9
	h18.7v-18.7h-18.7V321.9z M1335.9,321.9h18.7v-18.7h-18.7V321.9z M1317.3,321.9h18.7v-18.7h-18.7V321.9z M1298.6,321.9h18.7v-18.7
	h-18.7V321.9z M1279.9,321.9h18.7v-18.7h-18.7V321.9z M1261.2,321.9h18.7v-18.7h-18.7V321.9z M1242.5,321.9h18.7v-18.7h-18.7V321.9z
	 M1223.8,321.9h18.7v-18.7h-18.7V321.9z M1205.1,321.9h18.7v-18.7h-18.7V321.9z M1186.4,321.9h18.7v-18.7h-18.7V321.9z
	 M1167.7,321.9h18.7v-18.7h-18.7V321.9z M1149,321.9h18.7v-18.7H1149V321.9z M1130.3,321.9h18.7v-18.7h-18.7V321.9z M1111.7,321.9
	h18.7v-18.7h-18.7V321.9z M1093,321.9h18.7v-18.7H1093V321.9z M1074.3,321.9h18.7v-18.7h-18.7V321.9z M1055.6,321.9h18.7v-18.7
	h-18.7V321.9z M1036.9,321.9h18.7v-18.7h-18.7V321.9z M1018.2,321.9h18.7v-18.7h-18.7V321.9z M999.5,321.9h18.7v-18.7h-18.7V321.9z
	 M980.8,321.9h18.7v-18.7h-18.7V321.9z M962.1,321.9h18.7v-18.7h-18.7V321.9z M943.4,321.9h18.7v-18.7h-18.7V321.9z M924.7,321.9
	h18.7v-18.7h-18.7V321.9z M906,321.9h18.7v-18.7H906V321.9z M887.3,321.9H906v-18.7h-18.7V321.9z M868.7,321.9h18.7v-18.7h-18.7
	V321.9z M569.6,321.9h18.7v-18.7h-18.7V321.9z M550.9,321.9h18.7v-18.7h-18.7V321.9z M532.2,321.9h18.7v-18.7h-18.7V321.9z
	 M513.5,321.9h18.7v-18.7h-18.7V321.9z M494.8,321.9h18.7v-18.7h-18.7V321.9z M476.1,321.9h18.7v-18.7h-18.7V321.9z M457.4,321.9
	h18.7v-18.7h-18.7V321.9z M438.8,321.9h18.7v-18.7h-18.7V321.9z M420.1,321.9h18.7v-18.7h-18.7V321.9z M401.4,321.9h18.7v-18.7
	h-18.7V321.9z M382.7,321.9h18.7v-18.7h-18.7V321.9z M364,321.9h18.7v-18.7H364V321.9z M345.3,321.9H364v-18.7h-18.7V321.9z
	 M326.6,321.9h18.7v-18.7h-18.7V321.9z M307.9,321.9h18.7v-18.7h-18.7V321.9z M289.2,321.9h18.7v-18.7h-18.7V321.9z M270.5,321.9
	h18.7v-18.7h-18.7V321.9z M251.8,321.9h18.7v-18.7h-18.7V321.9z M233.1,321.9h18.7v-18.7h-18.7V321.9z M214.4,321.9h18.7v-18.7
	h-18.7V321.9z M195.8,321.9h18.7v-18.7h-18.7V321.9z M177.1,321.9h18.7v-18.7h-18.7V321.9z M1672.4,303.2h18.7v-18.7h-18.7V303.2z
	 M1653.7,303.2h18.7v-18.7h-18.7V303.2z M1635,303.2h18.7v-18.7H1635V303.2z M1616.3,303.2h18.7v-18.7h-18.7V303.2z M1597.6,303.2
	h18.7v-18.7h-18.7V303.2z M1578.9,303.2h18.7v-18.7h-18.7V303.2z M1560.3,303.2h18.7v-18.7h-18.7V303.2z M1541.6,303.2h18.7v-18.7
	h-18.7V303.2z M1522.9,303.2h18.7v-18.7h-18.7V303.2z M1504.2,303.2h18.7v-18.7h-18.7V303.2z M1485.5,303.2h18.7v-18.7h-18.7V303.2z
	 M1466.8,303.2h18.7v-18.7h-18.7V303.2z M1448.1,303.2h18.7v-18.7h-18.7V303.2z M1429.4,303.2h18.7v-18.7h-18.7V303.2z
	 M1410.7,303.2h18.7v-18.7h-18.7V303.2z M1392,303.2h18.7v-18.7H1392V303.2z M1373.3,303.2h18.7v-18.7h-18.7V303.2z M1354.6,303.2
	h18.7v-18.7h-18.7V303.2z M1335.9,303.2h18.7v-18.7h-18.7V303.2z M1317.3,303.2h18.7v-18.7h-18.7V303.2z M1298.6,303.2h18.7v-18.7
	h-18.7V303.2z M1279.9,303.2h18.7v-18.7h-18.7V303.2z M1261.2,303.2h18.7v-18.7h-18.7V303.2z M1242.5,303.2h18.7v-18.7h-18.7V303.2z
	 M1223.8,303.2h18.7v-18.7h-18.7V303.2z M1205.1,303.2h18.7v-18.7h-18.7V303.2z M1186.4,303.2h18.7v-18.7h-18.7V303.2z
	 M1167.7,303.2h18.7v-18.7h-18.7V303.2z M1149,303.2h18.7v-18.7H1149V303.2z M1130.3,303.2h18.7v-18.7h-18.7V303.2z M1111.7,303.2
	h18.7v-18.7h-18.7V303.2z M1093,303.2h18.7v-18.7H1093V303.2z M1074.3,303.2h18.7v-18.7h-18.7V303.2z M1055.6,303.2h18.7v-18.7
	h-18.7V303.2z M1036.9,303.2h18.7v-18.7h-18.7V303.2z M1018.2,303.2h18.7v-18.7h-18.7V303.2z M999.5,303.2h18.7v-18.7h-18.7V303.2z
	 M980.8,303.2h18.7v-18.7h-18.7V303.2z M962.1,303.2h18.7v-18.7h-18.7V303.2z M943.4,303.2h18.7v-18.7h-18.7V303.2z M924.7,303.2
	h18.7v-18.7h-18.7V303.2z M906,303.2h18.7v-18.7H906V303.2z M887.3,303.2H906v-18.7h-18.7V303.2z M868.7,303.2h18.7v-18.7h-18.7
	V303.2z M850,303.2h18.7v-18.7H850V303.2z M831.3,303.2H850v-18.7h-18.7V303.2z M569.6,303.2h18.7v-18.7h-18.7V303.2z M550.9,303.2
	h18.7v-18.7h-18.7V303.2z M532.2,303.2h18.7v-18.7h-18.7V303.2z M513.5,303.2h18.7v-18.7h-18.7V303.2z M494.8,303.2h18.7v-18.7
	h-18.7V303.2z M476.1,303.2h18.7v-18.7h-18.7V303.2z M457.4,303.2h18.7v-18.7h-18.7V303.2z M438.8,303.2h18.7v-18.7h-18.7V303.2z
	 M420.1,303.2h18.7v-18.7h-18.7V303.2z M401.4,303.2h18.7v-18.7h-18.7V303.2z M382.7,303.2h18.7v-18.7h-18.7V303.2z M364,303.2h18.7
	v-18.7H364V303.2z M345.3,303.2H364v-18.7h-18.7V303.2z M326.6,303.2h18.7v-18.7h-18.7V303.2z M307.9,303.2h18.7v-18.7h-18.7V303.2z
	 M289.2,303.2h18.7v-18.7h-18.7V303.2z M270.5,303.2h18.7v-18.7h-18.7V303.2z M251.8,303.2h18.7v-18.7h-18.7V303.2z M233.1,303.2
	h18.7v-18.7h-18.7V303.2z M214.4,303.2h18.7v-18.7h-18.7V303.2z M195.8,303.2h18.7v-18.7h-18.7V303.2z M177.1,303.2h18.7v-18.7
	h-18.7V303.2z M158.4,303.2h18.7v-18.7h-18.7V303.2z M27.5,303.2h18.7v-18.7H27.5V303.2z M1747.2,284.5h18.7v-18.7h-18.7V284.5z
	 M1728.5,284.5h18.7v-18.7h-18.7V284.5z M1653.7,284.5h18.7v-18.7h-18.7V284.5z M1635,284.5h18.7v-18.7H1635V284.5z M1616.3,284.5
	h18.7v-18.7h-18.7V284.5z M1597.6,284.5h18.7v-18.7h-18.7V284.5z M1578.9,284.5h18.7v-18.7h-18.7V284.5z M1560.3,284.5h18.7v-18.7
	h-18.7V284.5z M1541.6,284.5h18.7v-18.7h-18.7V284.5z M1522.9,284.5h18.7v-18.7h-18.7V284.5z M1504.2,284.5h18.7v-18.7h-18.7V284.5z
	 M1485.5,284.5h18.7v-18.7h-18.7V284.5z M1466.8,284.5h18.7v-18.7h-18.7V284.5z M1448.1,284.5h18.7v-18.7h-18.7V284.5z
	 M1429.4,284.5h18.7v-18.7h-18.7V284.5z M1410.7,284.5h18.7v-18.7h-18.7V284.5z M1392,284.5h18.7v-18.7H1392V284.5z M1373.3,284.5
	h18.7v-18.7h-18.7V284.5z M1354.6,284.5h18.7v-18.7h-18.7V284.5z M1335.9,284.5h18.7v-18.7h-18.7V284.5z M1317.3,284.5h18.7v-18.7
	h-18.7V284.5z M1298.6,284.5h18.7v-18.7h-18.7V284.5z M1279.9,284.5h18.7v-18.7h-18.7V284.5z M1261.2,284.5h18.7v-18.7h-18.7V284.5z
	 M1242.5,284.5h18.7v-18.7h-18.7V284.5z M1223.8,284.5h18.7v-18.7h-18.7V284.5z M1205.1,284.5h18.7v-18.7h-18.7V284.5z
	 M1186.4,284.5h18.7v-18.7h-18.7V284.5z M1167.7,284.5h18.7v-18.7h-18.7V284.5z M1149,284.5h18.7v-18.7H1149V284.5z M1130.3,284.5
	h18.7v-18.7h-18.7V284.5z M1111.7,284.5h18.7v-18.7h-18.7V284.5z M1093,284.5h18.7v-18.7H1093V284.5z M1074.3,284.5h18.7v-18.7
	h-18.7V284.5z M1055.6,284.5h18.7v-18.7h-18.7V284.5z M1036.9,284.5h18.7v-18.7h-18.7V284.5z M1018.2,284.5h18.7v-18.7h-18.7V284.5z
	 M999.5,284.5h18.7v-18.7h-18.7V284.5z M962.1,284.5h18.7v-18.7h-18.7V284.5z M943.4,284.5h18.7v-18.7h-18.7V284.5z M924.7,284.5
	h18.7v-18.7h-18.7V284.5z M868.7,284.5h18.7v-18.7h-18.7V284.5z M850,284.5h18.7v-18.7H850V284.5z M550.9,284.5h18.7v-18.7h-18.7
	V284.5z M532.2,284.5h18.7v-18.7h-18.7V284.5z M513.5,284.5h18.7v-18.7h-18.7V284.5z M494.8,284.5h18.7v-18.7h-18.7V284.5z
	 M476.1,284.5h18.7v-18.7h-18.7V284.5z M401.4,284.5h18.7v-18.7h-18.7V284.5z M382.7,284.5h18.7v-18.7h-18.7V284.5z M364,284.5h18.7
	v-18.7H364V284.5z M345.3,284.5H364v-18.7h-18.7V284.5z M326.6,284.5h18.7v-18.7h-18.7V284.5z M307.9,284.5h18.7v-18.7h-18.7V284.5z
	 M289.2,284.5h18.7v-18.7h-18.7V284.5z M270.5,284.5h18.7v-18.7h-18.7V284.5z M251.8,284.5h18.7v-18.7h-18.7V284.5z M233.1,284.5
	h18.7v-18.7h-18.7V284.5z M214.4,284.5h18.7v-18.7h-18.7V284.5z M195.8,284.5h18.7v-18.7h-18.7V284.5z M177.1,284.5h18.7v-18.7
	h-18.7V284.5z M83.6,284.5h18.7v-18.7H83.6V284.5z M64.9,284.5h18.7v-18.7H64.9V284.5z M46.2,284.5h18.7v-18.7H46.2V284.5z
	 M1747.2,265.8h18.7v-18.7h-18.7V265.8z M1728.5,265.8h18.7v-18.7h-18.7V265.8z M1709.8,265.8h18.7v-18.7h-18.7V265.8z
	 M1616.3,265.8h18.7v-18.7h-18.7V265.8z M1597.6,265.8h18.7v-18.7h-18.7V265.8z M1578.9,265.8h18.7v-18.7h-18.7V265.8z
	 M1560.3,265.8h18.7v-18.7h-18.7V265.8z M1541.6,265.8h18.7v-18.7h-18.7V265.8z M1522.9,265.8h18.7v-18.7h-18.7V265.8z
	 M1504.2,265.8h18.7v-18.7h-18.7V265.8z M1485.5,265.8h18.7v-18.7h-18.7V265.8z M1466.8,265.8h18.7v-18.7h-18.7V265.8z
	 M1448.1,265.8h18.7v-18.7h-18.7V265.8z M1429.4,265.8h18.7v-18.7h-18.7V265.8z M1410.7,265.8h18.7v-18.7h-18.7V265.8z M1392,265.8
	h18.7v-18.7H1392V265.8z M1373.3,265.8h18.7v-18.7h-18.7V265.8z M1354.6,265.8h18.7v-18.7h-18.7V265.8z M1335.9,265.8h18.7v-18.7
	h-18.7V265.8z M1317.3,265.8h18.7v-18.7h-18.7V265.8z M1298.6,265.8h18.7v-18.7h-18.7V265.8z M1279.9,265.8h18.7v-18.7h-18.7V265.8z
	 M1261.2,265.8h18.7v-18.7h-18.7V265.8z M1242.5,265.8h18.7v-18.7h-18.7V265.8z M1223.8,265.8h18.7v-18.7h-18.7V265.8z
	 M1205.1,265.8h18.7v-18.7h-18.7V265.8z M1186.4,265.8h18.7v-18.7h-18.7V265.8z M1167.7,265.8h18.7v-18.7h-18.7V265.8z M1149,265.8
	h18.7v-18.7H1149V265.8z M1130.3,265.8h18.7v-18.7h-18.7V265.8z M1111.7,265.8h18.7v-18.7h-18.7V265.8z M1093,265.8h18.7v-18.7H1093
	V265.8z M1074.3,265.8h18.7v-18.7h-18.7V265.8z M1055.6,265.8h18.7v-18.7h-18.7V265.8z M1036.9,265.8h18.7v-18.7h-18.7V265.8z
	 M1018.2,265.8h18.7v-18.7h-18.7V265.8z M980.8,265.8h18.7v-18.7h-18.7V265.8z M962.1,265.8h18.7v-18.7h-18.7V265.8z M943.4,265.8
	h18.7v-18.7h-18.7V265.8z M924.7,265.8h18.7v-18.7h-18.7V265.8z M663,265.8h18.7v-18.7H663V265.8z M550.9,265.8h18.7v-18.7h-18.7
	V265.8z M513.5,265.8h18.7v-18.7h-18.7V265.8z M494.8,265.8h18.7v-18.7h-18.7V265.8z M401.4,265.8h18.7v-18.7h-18.7V265.8z
	 M382.7,265.8h18.7v-18.7h-18.7V265.8z M364,265.8h18.7v-18.7H364V265.8z M345.3,265.8H364v-18.7h-18.7V265.8z M326.6,265.8h18.7
	v-18.7h-18.7V265.8z M307.9,265.8h18.7v-18.7h-18.7V265.8z M289.2,265.8h18.7v-18.7h-18.7V265.8z M270.5,265.8h18.7v-18.7h-18.7
	V265.8z M251.8,265.8h18.7v-18.7h-18.7V265.8z M233.1,265.8h18.7v-18.7h-18.7V265.8z M214.4,265.8h18.7v-18.7h-18.7V265.8z
	 M195.8,265.8h18.7v-18.7h-18.7V265.8z M177.1,265.8h18.7v-18.7h-18.7V265.8z M158.4,265.8h18.7v-18.7h-18.7V265.8z M139.7,265.8
	h18.7v-18.7h-18.7V265.8z M121,265.8h18.7v-18.7H121V265.8z M102.3,265.8H121v-18.7h-18.7V265.8z M83.6,265.8h18.7v-18.7H83.6V265.8
	z M64.9,265.8h18.7v-18.7H64.9V265.8z M46.2,265.8h18.7v-18.7H46.2V265.8z M1728.5,247.2h18.7v-18.7h-18.7V247.2z M1709.8,247.2
	h18.7v-18.7h-18.7V247.2z M1672.4,247.2h18.7v-18.7h-18.7V247.2z M1653.7,247.2h18.7v-18.7h-18.7V247.2z M1635,247.2h18.7v-18.7
	H1635V247.2z M1616.3,247.2h18.7v-18.7h-18.7V247.2z M1597.6,247.2h18.7v-18.7h-18.7V247.2z M1578.9,247.2h18.7v-18.7h-18.7V247.2z
	 M1560.3,247.2h18.7v-18.7h-18.7V247.2z M1541.6,247.2h18.7v-18.7h-18.7V247.2z M1522.9,247.2h18.7v-18.7h-18.7V247.2z
	 M1504.2,247.2h18.7v-18.7h-18.7V247.2z M1485.5,247.2h18.7v-18.7h-18.7V247.2z M1466.8,247.2h18.7v-18.7h-18.7V247.2z
	 M1448.1,247.2h18.7v-18.7h-18.7V247.2z M1429.4,247.2h18.7v-18.7h-18.7V247.2z M1410.7,247.2h18.7v-18.7h-18.7V247.2z M1392,247.2
	h18.7v-18.7H1392V247.2z M1373.3,247.2h18.7v-18.7h-18.7V247.2z M1354.6,247.2h18.7v-18.7h-18.7V247.2z M1335.9,247.2h18.7v-18.7
	h-18.7V247.2z M1317.3,247.2h18.7v-18.7h-18.7V247.2z M1298.6,247.2h18.7v-18.7h-18.7V247.2z M1279.9,247.2h18.7v-18.7h-18.7V247.2z
	 M1261.2,247.2h18.7v-18.7h-18.7V247.2z M1242.5,247.2h18.7v-18.7h-18.7V247.2z M1223.8,247.2h18.7v-18.7h-18.7V247.2z
	 M1205.1,247.2h18.7v-18.7h-18.7V247.2z M1186.4,247.2h18.7v-18.7h-18.7V247.2z M1167.7,247.2h18.7v-18.7h-18.7V247.2z M1149,247.2
	h18.7v-18.7H1149V247.2z M1130.3,247.2h18.7v-18.7h-18.7V247.2z M1111.7,247.2h18.7v-18.7h-18.7V247.2z M1093,247.2h18.7v-18.7H1093
	V247.2z M1074.3,247.2h18.7v-18.7h-18.7V247.2z M1055.6,247.2h18.7v-18.7h-18.7V247.2z M1036.9,247.2h18.7v-18.7h-18.7V247.2z
	 M1018.2,247.2h18.7v-18.7h-18.7V247.2z M999.5,247.2h18.7v-18.7h-18.7V247.2z M980.8,247.2h18.7v-18.7h-18.7V247.2z M962.1,247.2
	h18.7v-18.7h-18.7V247.2z M943.4,247.2h18.7v-18.7h-18.7V247.2z M924.7,247.2h18.7v-18.7h-18.7V247.2z M663,247.2h18.7v-18.7H663
	V247.2z M644.4,247.2H663v-18.7h-18.7V247.2z M550.9,247.2h18.7v-18.7h-18.7V247.2z M532.2,247.2h18.7v-18.7h-18.7V247.2z
	 M513.5,247.2h18.7v-18.7h-18.7V247.2z M494.8,247.2h18.7v-18.7h-18.7V247.2z M420.1,247.2h18.7v-18.7h-18.7V247.2z M401.4,247.2
	h18.7v-18.7h-18.7V247.2z M382.7,247.2h18.7v-18.7h-18.7V247.2z M364,247.2h18.7v-18.7H364V247.2z M345.3,247.2H364v-18.7h-18.7
	V247.2z M326.6,247.2h18.7v-18.7h-18.7V247.2z M307.9,247.2h18.7v-18.7h-18.7V247.2z M289.2,247.2h18.7v-18.7h-18.7V247.2z
	 M270.5,247.2h18.7v-18.7h-18.7V247.2z M251.8,247.2h18.7v-18.7h-18.7V247.2z M233.1,247.2h18.7v-18.7h-18.7V247.2z M214.4,247.2
	h18.7v-18.7h-18.7V247.2z M195.8,247.2h18.7v-18.7h-18.7V247.2z M177.1,247.2h18.7v-18.7h-18.7V247.2z M158.4,247.2h18.7v-18.7
	h-18.7V247.2z M139.7,247.2h18.7v-18.7h-18.7V247.2z M121,247.2h18.7v-18.7H121V247.2z M102.3,247.2H121v-18.7h-18.7V247.2z
	 M83.6,247.2h18.7v-18.7H83.6V247.2z M64.9,247.2h18.7v-18.7H64.9V247.2z M1765.9,228.5h18.7v-18.7h-18.7V228.5z M1747.2,228.5h18.7
	v-18.7h-18.7V228.5z M1728.5,228.5h18.7v-18.7h-18.7V228.5z M1709.8,228.5h18.7v-18.7h-18.7V228.5z M1691.1,228.5h18.7v-18.7h-18.7
	V228.5z M1672.4,228.5h18.7v-18.7h-18.7V228.5z M1653.7,228.5h18.7v-18.7h-18.7V228.5z M1635,228.5h18.7v-18.7H1635V228.5z
	 M1616.3,228.5h18.7v-18.7h-18.7V228.5z M1597.6,228.5h18.7v-18.7h-18.7V228.5z M1578.9,228.5h18.7v-18.7h-18.7V228.5z
	 M1560.3,228.5h18.7v-18.7h-18.7V228.5z M1541.6,228.5h18.7v-18.7h-18.7V228.5z M1522.9,228.5h18.7v-18.7h-18.7V228.5z
	 M1504.2,228.5h18.7v-18.7h-18.7V228.5z M1485.5,228.5h18.7v-18.7h-18.7V228.5z M1466.8,228.5h18.7v-18.7h-18.7V228.5z
	 M1448.1,228.5h18.7v-18.7h-18.7V228.5z M1429.4,228.5h18.7v-18.7h-18.7V228.5z M1410.7,228.5h18.7v-18.7h-18.7V228.5z M1392,228.5
	h18.7v-18.7H1392V228.5z M1373.3,228.5h18.7v-18.7h-18.7V228.5z M1354.6,228.5h18.7v-18.7h-18.7V228.5z M1335.9,228.5h18.7v-18.7
	h-18.7V228.5z M1317.3,228.5h18.7v-18.7h-18.7V228.5z M1298.6,228.5h18.7v-18.7h-18.7V228.5z M1279.9,228.5h18.7v-18.7h-18.7V228.5z
	 M1261.2,228.5h18.7v-18.7h-18.7V228.5z M1242.5,228.5h18.7v-18.7h-18.7V228.5z M1223.8,228.5h18.7v-18.7h-18.7V228.5z
	 M1205.1,228.5h18.7v-18.7h-18.7V228.5z M1186.4,228.5h18.7v-18.7h-18.7V228.5z M1167.7,228.5h18.7v-18.7h-18.7V228.5z M1149,228.5
	h18.7v-18.7H1149V228.5z M1130.3,228.5h18.7v-18.7h-18.7V228.5z M1111.7,228.5h18.7v-18.7h-18.7V228.5z M1093,228.5h18.7v-18.7H1093
	V228.5z M1074.3,228.5h18.7v-18.7h-18.7V228.5z M1055.6,228.5h18.7v-18.7h-18.7V228.5z M1036.9,228.5h18.7v-18.7h-18.7V228.5z
	 M1018.2,228.5h18.7v-18.7h-18.7V228.5z M999.5,228.5h18.7v-18.7h-18.7V228.5z M980.8,228.5h18.7v-18.7h-18.7V228.5z M962.1,228.5
	h18.7v-18.7h-18.7V228.5z M943.4,228.5h18.7v-18.7h-18.7V228.5z M812.6,228.5h18.7v-18.7h-18.7V228.5z M793.9,228.5h18.7v-18.7
	h-18.7V228.5z M775.2,228.5h18.7v-18.7h-18.7V228.5z M681.7,228.5h18.7v-18.7h-18.7V228.5z M663,228.5h18.7v-18.7H663V228.5z
	 M644.4,228.5H663v-18.7h-18.7V228.5z M625.7,228.5h18.7v-18.7h-18.7V228.5z M588.3,228.5H607v-18.7h-18.7V228.5z M569.6,228.5h18.7
	v-18.7h-18.7V228.5z M550.9,228.5h18.7v-18.7h-18.7V228.5z M532.2,228.5h18.7v-18.7h-18.7V228.5z M513.5,228.5h18.7v-18.7h-18.7
	V228.5z M476.1,228.5h18.7v-18.7h-18.7V228.5z M457.4,228.5h18.7v-18.7h-18.7V228.5z M438.8,228.5h18.7v-18.7h-18.7V228.5z
	 M420.1,228.5h18.7v-18.7h-18.7V228.5z M401.4,228.5h18.7v-18.7h-18.7V228.5z M382.7,228.5h18.7v-18.7h-18.7V228.5z M364,228.5h18.7
	v-18.7H364V228.5z M345.3,228.5H364v-18.7h-18.7V228.5z M326.6,228.5h18.7v-18.7h-18.7V228.5z M307.9,228.5h18.7v-18.7h-18.7V228.5z
	 M289.2,228.5h18.7v-18.7h-18.7V228.5z M270.5,228.5h18.7v-18.7h-18.7V228.5z M251.8,228.5h18.7v-18.7h-18.7V228.5z M233.1,228.5
	h18.7v-18.7h-18.7V228.5z M214.4,228.5h18.7v-18.7h-18.7V228.5z M195.8,228.5h18.7v-18.7h-18.7V228.5z M177.1,228.5h18.7v-18.7
	h-18.7V228.5z M158.4,228.5h18.7v-18.7h-18.7V228.5z M139.7,228.5h18.7v-18.7h-18.7V228.5z M121,228.5h18.7v-18.7H121V228.5z
	 M102.3,228.5H121v-18.7h-18.7V228.5z M83.6,228.5h18.7v-18.7H83.6V228.5z M1784.6,209.8h18.7v-18.7h-18.7V209.8z M1765.9,209.8
	h18.7v-18.7h-18.7V209.8z M1747.2,209.8h18.7v-18.7h-18.7V209.8z M1728.5,209.8h18.7v-18.7h-18.7V209.8z M1709.8,209.8h18.7v-18.7
	h-18.7V209.8z M1691.1,209.8h18.7v-18.7h-18.7V209.8z M1672.4,209.8h18.7v-18.7h-18.7V209.8z M1653.7,209.8h18.7v-18.7h-18.7V209.8z
	 M1635,209.8h18.7v-18.7H1635V209.8z M1616.3,209.8h18.7v-18.7h-18.7V209.8z M1597.6,209.8h18.7v-18.7h-18.7V209.8z M1578.9,209.8
	h18.7v-18.7h-18.7V209.8z M1560.3,209.8h18.7v-18.7h-18.7V209.8z M1541.6,209.8h18.7v-18.7h-18.7V209.8z M1522.9,209.8h18.7v-18.7
	h-18.7V209.8z M1504.2,209.8h18.7v-18.7h-18.7V209.8z M1485.5,209.8h18.7v-18.7h-18.7V209.8z M1466.8,209.8h18.7v-18.7h-18.7V209.8z
	 M1448.1,209.8h18.7v-18.7h-18.7V209.8z M1429.4,209.8h18.7v-18.7h-18.7V209.8z M1410.7,209.8h18.7v-18.7h-18.7V209.8z M1392,209.8
	h18.7v-18.7H1392V209.8z M1373.3,209.8h18.7v-18.7h-18.7V209.8z M1354.6,209.8h18.7v-18.7h-18.7V209.8z M1335.9,209.8h18.7v-18.7
	h-18.7V209.8z M1317.3,209.8h18.7v-18.7h-18.7V209.8z M1298.6,209.8h18.7v-18.7h-18.7V209.8z M1279.9,209.8h18.7v-18.7h-18.7V209.8z
	 M1261.2,209.8h18.7v-18.7h-18.7V209.8z M1242.5,209.8h18.7v-18.7h-18.7V209.8z M1223.8,209.8h18.7v-18.7h-18.7V209.8z
	 M1205.1,209.8h18.7v-18.7h-18.7V209.8z M1186.4,209.8h18.7v-18.7h-18.7V209.8z M1167.7,209.8h18.7v-18.7h-18.7V209.8z M1149,209.8
	h18.7v-18.7H1149V209.8z M1130.3,209.8h18.7v-18.7h-18.7V209.8z M1111.7,209.8h18.7v-18.7h-18.7V209.8z M1093,209.8h18.7v-18.7H1093
	V209.8z M1074.3,209.8h18.7v-18.7h-18.7V209.8z M1055.6,209.8h18.7v-18.7h-18.7V209.8z M1036.9,209.8h18.7v-18.7h-18.7V209.8z
	 M1018.2,209.8h18.7v-18.7h-18.7V209.8z M999.5,209.8h18.7v-18.7h-18.7V209.8z M980.8,209.8h18.7v-18.7h-18.7V209.8z M962.1,209.8
	h18.7v-18.7h-18.7V209.8z M943.4,209.8h18.7v-18.7h-18.7V209.8z M756.5,209.8h18.7v-18.7h-18.7V209.8z M737.8,209.8h18.7v-18.7
	h-18.7V209.8z M719.1,209.8h18.7v-18.7h-18.7V209.8z M700.4,209.8h18.7v-18.7h-18.7V209.8z M681.7,209.8h18.7v-18.7h-18.7V209.8z
	 M663,209.8h18.7v-18.7H663V209.8z M644.4,209.8H663v-18.7h-18.7V209.8z M569.6,209.8h18.7v-18.7h-18.7V209.8z M550.9,209.8h18.7
	v-18.7h-18.7V209.8z M532.2,209.8h18.7v-18.7h-18.7V209.8z M494.8,209.8h18.7v-18.7h-18.7V209.8z M476.1,209.8h18.7v-18.7h-18.7
	V209.8z M457.4,209.8h18.7v-18.7h-18.7V209.8z M438.8,209.8h18.7v-18.7h-18.7V209.8z M420.1,209.8h18.7v-18.7h-18.7V209.8z
	 M401.4,209.8h18.7v-18.7h-18.7V209.8z M382.7,209.8h18.7v-18.7h-18.7V209.8z M364,209.8h18.7v-18.7H364V209.8z M345.3,209.8H364
	v-18.7h-18.7V209.8z M326.6,209.8h18.7v-18.7h-18.7V209.8z M307.9,209.8h18.7v-18.7h-18.7V209.8z M289.2,209.8h18.7v-18.7h-18.7
	V209.8z M270.5,209.8h18.7v-18.7h-18.7V209.8z M251.8,209.8h18.7v-18.7h-18.7V209.8z M233.1,209.8h18.7v-18.7h-18.7V209.8z
	 M214.4,209.8h18.7v-18.7h-18.7V209.8z M195.8,209.8h18.7v-18.7h-18.7V209.8z M177.1,209.8h18.7v-18.7h-18.7V209.8z M158.4,209.8
	h18.7v-18.7h-18.7V209.8z M139.7,209.8h18.7v-18.7h-18.7V209.8z M121,209.8h18.7v-18.7H121V209.8z M1765.9,191.1h18.7v-18.7h-18.7
	V191.1z M1747.2,191.1h18.7v-18.7h-18.7V191.1z M1728.5,191.1h18.7v-18.7h-18.7V191.1z M1709.8,191.1h18.7v-18.7h-18.7V191.1z
	 M1691.1,191.1h18.7v-18.7h-18.7V191.1z M1672.4,191.1h18.7v-18.7h-18.7V191.1z M1653.7,191.1h18.7v-18.7h-18.7V191.1z M1635,191.1
	h18.7v-18.7H1635V191.1z M1616.3,191.1h18.7v-18.7h-18.7V191.1z M1597.6,191.1h18.7v-18.7h-18.7V191.1z M1578.9,191.1h18.7v-18.7
	h-18.7V191.1z M1560.3,191.1h18.7v-18.7h-18.7V191.1z M1541.6,191.1h18.7v-18.7h-18.7V191.1z M1522.9,191.1h18.7v-18.7h-18.7V191.1z
	 M1504.2,191.1h18.7v-18.7h-18.7V191.1z M1485.5,191.1h18.7v-18.7h-18.7V191.1z M1466.8,191.1h18.7v-18.7h-18.7V191.1z
	 M1448.1,191.1h18.7v-18.7h-18.7V191.1z M1429.4,191.1h18.7v-18.7h-18.7V191.1z M1410.7,191.1h18.7v-18.7h-18.7V191.1z M1392,191.1
	h18.7v-18.7H1392V191.1z M1373.3,191.1h18.7v-18.7h-18.7V191.1z M1354.6,191.1h18.7v-18.7h-18.7V191.1z M1335.9,191.1h18.7v-18.7
	h-18.7V191.1z M1317.3,191.1h18.7v-18.7h-18.7V191.1z M1298.6,191.1h18.7v-18.7h-18.7V191.1z M1279.9,191.1h18.7v-18.7h-18.7V191.1z
	 M1261.2,191.1h18.7v-18.7h-18.7V191.1z M1242.5,191.1h18.7v-18.7h-18.7V191.1z M1223.8,191.1h18.7v-18.7h-18.7V191.1z
	 M1205.1,191.1h18.7v-18.7h-18.7V191.1z M1167.7,191.1h18.7v-18.7h-18.7V191.1z M1149,191.1h18.7v-18.7H1149V191.1z M1111.7,191.1
	h18.7v-18.7h-18.7V191.1z M1036.9,191.1h18.7v-18.7h-18.7V191.1z M1018.2,191.1h18.7v-18.7h-18.7V191.1z M999.5,191.1h18.7v-18.7
	h-18.7V191.1z M980.8,191.1h18.7v-18.7h-18.7V191.1z M793.9,191.1h18.7v-18.7h-18.7V191.1z M775.2,191.1h18.7v-18.7h-18.7V191.1z
	 M756.5,191.1h18.7v-18.7h-18.7V191.1z M737.8,191.1h18.7v-18.7h-18.7V191.1z M719.1,191.1h18.7v-18.7h-18.7V191.1z M700.4,191.1
	h18.7v-18.7h-18.7V191.1z M681.7,191.1h18.7v-18.7h-18.7V191.1z M663,191.1h18.7v-18.7H663V191.1z M644.4,191.1H663v-18.7h-18.7
	V191.1z M550.9,191.1h18.7v-18.7h-18.7V191.1z M532.2,191.1h18.7v-18.7h-18.7V191.1z M513.5,191.1h18.7v-18.7h-18.7V191.1z
	 M494.8,191.1h18.7v-18.7h-18.7V191.1z M476.1,191.1h18.7v-18.7h-18.7V191.1z M457.4,191.1h18.7v-18.7h-18.7V191.1z M438.8,191.1
	h18.7v-18.7h-18.7V191.1z M420.1,191.1h18.7v-18.7h-18.7V191.1z M401.4,191.1h18.7v-18.7h-18.7V191.1z M382.7,191.1h18.7v-18.7
	h-18.7V191.1z M364,191.1h18.7v-18.7H364V191.1z M345.3,191.1H364v-18.7h-18.7V191.1z M326.6,191.1h18.7v-18.7h-18.7V191.1z
	 M1616.3,172.4h18.7v-18.7h-18.7V172.4z M1597.6,172.4h18.7v-18.7h-18.7V172.4z M1578.9,172.4h18.7v-18.7h-18.7V172.4z
	 M1560.3,172.4h18.7v-18.7h-18.7V172.4z M1541.6,172.4h18.7v-18.7h-18.7V172.4z M1522.9,172.4h18.7v-18.7h-18.7V172.4z
	 M1504.2,172.4h18.7v-18.7h-18.7V172.4z M1485.5,172.4h18.7v-18.7h-18.7V172.4z M1466.8,172.4h18.7v-18.7h-18.7V172.4z
	 M1448.1,172.4h18.7v-18.7h-18.7V172.4z M1429.4,172.4h18.7v-18.7h-18.7V172.4z M1410.7,172.4h18.7v-18.7h-18.7V172.4z M1392,172.4
	h18.7v-18.7H1392V172.4z M1373.3,172.4h18.7v-18.7h-18.7V172.4z M1354.6,172.4h18.7v-18.7h-18.7V172.4z M1335.9,172.4h18.7v-18.7
	h-18.7V172.4z M1317.3,172.4h18.7v-18.7h-18.7V172.4z M1298.6,172.4h18.7v-18.7h-18.7V172.4z M1279.9,172.4h18.7v-18.7h-18.7V172.4z
	 M1261.2,172.4h18.7v-18.7h-18.7V172.4z M1242.5,172.4h18.7v-18.7h-18.7V172.4z M1223.8,172.4h18.7v-18.7h-18.7V172.4z
	 M1205.1,172.4h18.7v-18.7h-18.7V172.4z M1130.3,172.4h18.7v-18.7h-18.7V172.4z M793.9,172.4h18.7v-18.7h-18.7V172.4z M775.2,172.4
	h18.7v-18.7h-18.7V172.4z M756.5,172.4h18.7v-18.7h-18.7V172.4z M737.8,172.4h18.7v-18.7h-18.7V172.4z M719.1,172.4h18.7v-18.7
	h-18.7V172.4z M700.4,172.4h18.7v-18.7h-18.7V172.4z M681.7,172.4h18.7v-18.7h-18.7V172.4z M663,172.4h18.7v-18.7H663V172.4z
	 M644.4,172.4H663v-18.7h-18.7V172.4z M532.2,172.4h18.7v-18.7h-18.7V172.4z M513.5,172.4h18.7v-18.7h-18.7V172.4z M494.8,172.4
	h18.7v-18.7h-18.7V172.4z M476.1,172.4h18.7v-18.7h-18.7V172.4z M457.4,172.4h18.7v-18.7h-18.7V172.4z M438.8,172.4h18.7v-18.7
	h-18.7V172.4z M420.1,172.4h18.7v-18.7h-18.7V172.4z M401.4,172.4h18.7v-18.7h-18.7V172.4z M382.7,172.4h18.7v-18.7h-18.7V172.4z
	 M364,172.4h18.7v-18.7H364V172.4z M345.3,172.4H364v-18.7h-18.7V172.4z M1373.3,153.7h18.7V135h-18.7V153.7z M1354.6,153.7h18.7
	V135h-18.7V153.7z M1335.9,153.7h18.7V135h-18.7V153.7z M1317.3,153.7h18.7V135h-18.7V153.7z M1298.6,153.7h18.7V135h-18.7V153.7z
	 M1279.9,153.7h18.7V135h-18.7V153.7z M1186.4,153.7h18.7V135h-18.7V153.7z M1167.7,153.7h18.7V135h-18.7V153.7z M1149,153.7h18.7
	V135H1149V153.7z M1130.3,153.7h18.7V135h-18.7V153.7z M962.1,153.7h18.7V135h-18.7V153.7z M812.6,153.7h18.7V135h-18.7V153.7z
	 M793.9,153.7h18.7V135h-18.7V153.7z M775.2,153.7h18.7V135h-18.7V153.7z M756.5,153.7h18.7V135h-18.7V153.7z M737.8,153.7h18.7V135
	h-18.7V153.7z M719.1,153.7h18.7V135h-18.7V153.7z M700.4,153.7h18.7V135h-18.7V153.7z M681.7,153.7h18.7V135h-18.7V153.7z
	 M663,153.7h18.7V135H663V153.7z M644.4,153.7H663V135h-18.7V153.7z M625.7,153.7h18.7V135h-18.7V153.7z M607,153.7h18.7V135H607
	V153.7z M569.6,153.7h18.7V135h-18.7V153.7z M550.9,153.7h18.7V135h-18.7V153.7z M532.2,153.7h18.7V135h-18.7V153.7z M494.8,153.7
	h18.7V135h-18.7V153.7z M476.1,153.7h18.7V135h-18.7V153.7z M1317.3,135h18.7v-18.7h-18.7V135z M1298.6,135h18.7v-18.7h-18.7V135z
	 M1279.9,135h18.7v-18.7h-18.7V135z M1261.2,135h18.7v-18.7h-18.7V135z M999.5,135h18.7v-18.7h-18.7V135z M980.8,135h18.7v-18.7
	h-18.7V135z M962.1,135h18.7v-18.7h-18.7V135z M943.4,135h18.7v-18.7h-18.7V135z M831.3,135H850v-18.7h-18.7V135z M812.6,135h18.7
	v-18.7h-18.7V135z M793.9,135h18.7v-18.7h-18.7V135z M775.2,135h18.7v-18.7h-18.7V135z M756.5,135h18.7v-18.7h-18.7V135z M737.8,135
	h18.7v-18.7h-18.7V135z M719.1,135h18.7v-18.7h-18.7V135z M700.4,135h18.7v-18.7h-18.7V135z M681.7,135h18.7v-18.7h-18.7V135z
	 M663,135h18.7v-18.7H663V135z M644.4,135H663v-18.7h-18.7V135z M625.7,135h18.7v-18.7h-18.7V135z M607,135h18.7v-18.7H607V135z
	 M588.3,135H607v-18.7h-18.7V135z M569.6,135h18.7v-18.7h-18.7V135z M550.9,135h18.7v-18.7h-18.7V135z M775.2,116.3h18.7V97.6h-18.7
	V116.3z"/>
</svg>
