<svg id="Слой_1" data-name="Слой 1" xmlns="http://www.w3.org/2000/svg" viewBox="0 0 1943.93 990.51"><defs><style>.cls-1{fill:#555;}</style></defs><path class="cls-1" d="M532.21,1069.47H550.9v18.69H532.21Zm-18.69,18.69h18.69v-18.69H513.52Zm0-18.69h18.69v-18.69H513.52Zm-18.7,0h18.7v-18.69h-18.7Zm-18.69,0h18.69v-18.69H476.13Zm37.39-18.69h18.69v-18.69H513.52Zm-18.7,0h18.7v-18.69h-18.7Zm-18.69,0h18.69v-18.69H476.13Zm37.39-18.69h18.69V1013.4H513.52Zm-18.7,0h18.7V1013.4h-18.7Zm-18.69,0h18.69V1013.4H476.13Zm1383.19-18.69H1878V994.71h-18.69Zm-1345.8,0h18.69V994.71H513.52Zm-18.7,0h18.7V994.71h-18.7Zm-18.69,0h18.69V994.71H476.13ZM1896.7,994.71h18.69V976H1896.7Zm-18.69,0h18.69V976H1878Zm-18.69,0H1878V976h-18.69Zm-1345.8,0h18.69V976H513.52Zm-18.7,0h18.7V976h-18.7Zm-18.69,0h18.69V976H476.13Zm-18.69,0h18.69V976H457.44ZM1896.7,976h18.69V957.33H1896.7ZM1878,976h18.69V957.33H1878Zm-112.15,0h18.69V957.33h-18.69Zm-18.69,0h18.69V957.33h-18.69Zm-1215,0H550.9V957.33H532.21Zm-18.69,0h18.69V957.33H513.52Zm-18.7,0h18.7V957.33h-18.7Zm-18.69,0h18.69V957.33H476.13Zm-18.69,0h18.69V957.33H457.44Zm1495.33-18.69h18.7V938.64h-18.7Zm-18.69,0h18.69V938.64h-18.69Zm-168.22,0h18.69V938.64h-18.69Zm-1233.65,0H550.9V938.64H532.21Zm-18.69,0h18.69V938.64H513.52Zm-18.7,0h18.7V938.64h-18.7Zm-18.69,0h18.69V938.64H476.13Zm-18.69,0h18.69V938.64H457.44Zm1476.64-18.69h18.69V920h-18.69Zm-149.53,0h18.69V920h-18.69Zm-18.69,0h18.69V920h-18.69Zm-18.69,0h18.69V920h-18.69Zm-18.7,0h18.7V920h-18.7Zm-691.59,0h18.7V920h-18.7Zm-18.69,0h18.69V920h-18.69Zm-18.69,0h18.69V920H999.5Zm-429.91,0h18.69V920H569.59Zm-18.69,0h18.69V920H550.9Zm-18.69,0H550.9V920H532.21Zm-18.69,0h18.69V920H513.52Zm-18.7,0h18.7V920h-18.7Zm-18.69,0h18.69V920H476.13Zm-18.69,0h18.69V920H457.44ZM1934.08,920h18.69V901.27h-18.69Zm-130.84,0h18.69V901.27h-18.69Zm-18.69,0h18.69V901.27h-18.69Zm-18.69,0h18.69V901.27h-18.69Zm-18.69,0h18.69V901.27h-18.69Zm-18.7,0h18.7V901.27h-18.7Zm-18.69,0h18.69V901.27h-18.69ZM1635,920h18.69V901.27H1635Zm-18.7,0H1635V901.27h-18.7Zm-18.69,0h18.69V901.27h-18.69Zm-542.05,0h18.69V901.27h-18.69Zm-18.7,0h18.7V901.27h-18.7Zm-18.69,0h18.69V901.27h-18.69Zm-18.69,0h18.69V901.27H999.5Zm-429.91,0h18.69V901.27H569.59Zm-18.69,0h18.69V901.27H550.9Zm-18.69,0H550.9V901.27H532.21Zm-18.69,0h18.69V901.27H513.52Zm-18.7,0h18.7V901.27h-18.7Zm-18.69,0h18.69V901.27H476.13Zm-18.69,0h18.69V901.27H457.44Zm1364.49-18.69h18.69V882.58h-18.69Zm-18.69,0h18.69V882.58h-18.69Zm-18.69,0h18.69V882.58h-18.69Zm-18.69,0h18.69V882.58h-18.69Zm-18.69,0h18.69V882.58h-18.69Zm-18.7,0h18.7V882.58h-18.7Zm-18.69,0h18.69V882.58h-18.69Zm-18.69,0h18.69V882.58h-18.69Zm-18.69,0h18.69V882.58H1672.4Zm-18.69,0h18.69V882.58h-18.69Zm-18.69,0h18.69V882.58H1635Zm-18.7,0H1635V882.58h-18.7Zm-18.69,0h18.69V882.58h-18.69Zm-523.36,0H1093V882.58h-18.69Zm-18.69,0h18.69V882.58h-18.69Zm-18.7,0h18.7V882.58h-18.7Zm-18.69,0h18.69V882.58h-18.69Zm-18.69,0h18.69V882.58H999.5Zm-429.91,0h18.69V882.58H569.59Zm-18.69,0h18.69V882.58H550.9Zm-18.69,0H550.9V882.58H532.21Zm-18.69,0h18.69V882.58H513.52Zm-18.7,0h18.7V882.58h-18.7Zm-18.69,0h18.69V882.58H476.13Zm-18.69,0h18.69V882.58H457.44Zm1364.49-18.69h18.69V863.89h-18.69Zm-18.69,0h18.69V863.89h-18.69Zm-18.69,0h18.69V863.89h-18.69Zm-18.69,0h18.69V863.89h-18.69Zm-18.69,0h18.69V863.89h-18.69Zm-18.7,0h18.7V863.89h-18.7Zm-18.69,0h18.69V863.89h-18.69Zm-18.69,0h18.69V863.89h-18.69Zm-18.69,0h18.69V863.89H1672.4Zm-18.69,0h18.69V863.89h-18.69Zm-18.69,0h18.69V863.89H1635Zm-18.7,0H1635V863.89h-18.7Zm-18.69,0h18.69V863.89h-18.69Zm-504.67,0h18.69V863.89H1093Zm-18.69,0H1093V863.89h-18.69Zm-18.69,0h18.69V863.89h-18.69Zm-18.7,0h18.7V863.89h-18.7Zm-18.69,0h18.69V863.89h-18.69Zm-18.69,0h18.69V863.89H999.5Zm-18.69,0H999.5V863.89H980.81Zm-411.22,0h18.69V863.89H569.59Zm-18.69,0h18.69V863.89H550.9Zm-18.69,0H550.9V863.89H532.21Zm-18.69,0h18.69V863.89H513.52Zm-18.7,0h18.7V863.89h-18.7Zm-18.69,0h18.69V863.89H476.13Zm-18.69,0h18.69V863.89H457.44Zm1383.18-18.69h18.7V845.2h-18.7Zm-18.69,0h18.69V845.2h-18.69Zm-18.69,0h18.69V845.2h-18.69Zm-18.69,0h18.69V845.2h-18.69Zm-18.69,0h18.69V845.2h-18.69Zm-18.69,0h18.69V845.2h-18.69Zm-18.7,0h18.7V845.2h-18.7Zm-18.69,0h18.69V845.2h-18.69Zm-18.69,0h18.69V845.2h-18.69Zm-18.69,0h18.69V845.2H1672.4Zm-18.69,0h18.69V845.2h-18.69Zm-18.69,0h18.69V845.2H1635Zm-18.7,0H1635V845.2h-18.7Zm-18.69,0h18.69V845.2h-18.69Zm-429.9,0h18.69V845.2h-18.69Zm-18.7,0h18.7V845.2H1149Zm-56.07,0h18.69V845.2H1093Zm-18.69,0H1093V845.2h-18.69Zm-18.69,0h18.69V845.2h-18.69Zm-18.7,0h18.7V845.2h-18.7Zm-18.69,0h18.69V845.2h-18.69Zm-18.69,0h18.69V845.2H999.5Zm-18.69,0H999.5V845.2H980.81Zm-373.83,0h18.69V845.2H607Zm-18.7,0H607V845.2h-18.7Zm-18.69,0h18.69V845.2H569.59Zm-18.69,0h18.69V845.2H550.9Zm-18.69,0H550.9V845.2H532.21Zm-18.69,0h18.69V845.2H513.52Zm-18.7,0h18.7V845.2h-18.7Zm-18.69,0h18.69V845.2H476.13Zm-18.69,0h18.69V845.2H457.44ZM1840.62,845.2h18.7V826.51h-18.7Zm-18.69,0h18.69V826.51h-18.69Zm-18.69,0h18.69V826.51h-18.69Zm-18.69,0h18.69V826.51h-18.69Zm-18.69,0h18.69V826.51h-18.69Zm-18.69,0h18.69V826.51h-18.69Zm-18.7,0h18.7V826.51h-18.7Zm-18.69,0h18.69V826.51h-18.69Zm-18.69,0h18.69V826.51h-18.69Zm-18.69,0h18.69V826.51H1672.4Zm-18.69,0h18.69V826.51h-18.69Zm-18.69,0h18.69V826.51H1635Zm-18.7,0H1635V826.51h-18.7Zm-18.69,0h18.69V826.51h-18.69Zm-411.21,0h18.69V826.51h-18.69Zm-18.69,0h18.69V826.51h-18.69Zm-18.7,0h18.7V826.51H1149Zm-56.07,0h18.69V826.51H1093Zm-18.69,0H1093V826.51h-18.69Zm-18.69,0h18.69V826.51h-18.69Zm-18.7,0h18.7V826.51h-18.7Zm-18.69,0h18.69V826.51h-18.69Zm-18.69,0h18.69V826.51H999.5Zm-18.69,0H999.5V826.51H980.81Zm-355.14,0h18.69V826.51H625.67Zm-18.69,0h18.69V826.51H607Zm-18.7,0H607V826.51h-18.7Zm-18.69,0h18.69V826.51H569.59Zm-18.69,0h18.69V826.51H550.9Zm-18.69,0H550.9V826.51H532.21Zm-18.69,0h18.69V826.51H513.52Zm-18.7,0h18.7V826.51h-18.7Zm-18.69,0h18.69V826.51H476.13Zm-18.69,0h18.69V826.51H457.44Zm1364.49-18.69h18.69V807.82h-18.69Zm-18.69,0h18.69V807.82h-18.69Zm-18.69,0h18.69V807.82h-18.69Zm-18.69,0h18.69V807.82h-18.69Zm-18.69,0h18.69V807.82h-18.69Zm-18.7,0h18.7V807.82h-18.7Zm-18.69,0h18.69V807.82h-18.69Zm-18.69,0h18.69V807.82h-18.69Zm-18.69,0h18.69V807.82H1672.4Zm-18.69,0h18.69V807.82h-18.69Zm-18.69,0h18.69V807.82H1635Zm-18.7,0H1635V807.82h-18.7Zm-429.9,0h18.69V807.82h-18.69Zm-18.69,0h18.69V807.82h-18.69Zm-56.08,0h18.69V807.82h-18.69Zm-18.69,0h18.69V807.82H1093Zm-18.69,0H1093V807.82h-18.69Zm-18.69,0h18.69V807.82h-18.69Zm-18.7,0h18.7V807.82h-18.7Zm-18.69,0h18.69V807.82h-18.69Zm-18.69,0h18.69V807.82H999.5Zm-18.69,0H999.5V807.82H980.81Zm-18.69,0h18.69V807.82H962.12Zm-336.45,0h18.69V807.82H625.67Zm-18.69,0h18.69V807.82H607Zm-18.7,0H607V807.82h-18.7Zm-18.69,0h18.69V807.82H569.59Zm-18.69,0h18.69V807.82H550.9Zm-18.69,0H550.9V807.82H532.21Zm-18.69,0h18.69V807.82H513.52Zm-18.7,0h18.7V807.82h-18.7Zm-18.69,0h18.69V807.82H476.13Zm-18.69,0h18.69V807.82H457.44Zm-18.69,0h18.69V807.82H438.75Zm1364.49-18.69h18.69V789.13h-18.69Zm-18.69,0h18.69V789.13h-18.69Zm-18.69,0h18.69V789.13h-18.69Zm-18.69,0h18.69V789.13h-18.69Zm-18.7,0h18.7V789.13h-18.7Zm-18.69,0h18.69V789.13h-18.69Zm-18.69,0h18.69V789.13h-18.69Zm-18.69,0h18.69V789.13H1672.4Zm-18.69,0h18.69V789.13h-18.69Zm-467.29,0h18.69V789.13h-18.69Zm-18.69,0h18.69V789.13h-18.69Zm-37.39,0H1149V789.13h-18.69Zm-18.69,0h18.69V789.13h-18.69Zm-18.69,0h18.69V789.13H1093Zm-18.69,0H1093V789.13h-18.69Zm-18.69,0h18.69V789.13h-18.69Zm-18.7,0h18.7V789.13h-18.7Zm-18.69,0h18.69V789.13h-18.69Zm-18.69,0h18.69V789.13H999.5Zm-18.69,0H999.5V789.13H980.81Zm-18.69,0h18.69V789.13H962.12Zm-336.45,0h18.69V789.13H625.67Zm-18.69,0h18.69V789.13H607Zm-18.7,0H607V789.13h-18.7Zm-18.69,0h18.69V789.13H569.59Zm-18.69,0h18.69V789.13H550.9Zm-18.69,0H550.9V789.13H532.21Zm-18.69,0h18.69V789.13H513.52Zm-18.7,0h18.7V789.13h-18.7Zm-18.69,0h18.69V789.13H476.13Zm-18.69,0h18.69V789.13H457.44Zm-18.69,0h18.69V789.13H438.75Zm-18.69,0h18.69V789.13H420.06Zm-18.69,0h18.69V789.13H401.37Zm1401.87-18.69h18.69V770.44h-18.69Zm-18.69,0h18.69V770.44h-18.69Zm-18.69,0h18.69V770.44h-18.69Zm-18.69,0h18.69V770.44h-18.69Zm-18.7,0h18.7V770.44h-18.7Zm-18.69,0h18.69V770.44h-18.69Zm-18.69,0h18.69V770.44h-18.69Zm-18.69,0h18.69V770.44H1672.4Zm-18.69,0h18.69V770.44h-18.69Zm-467.29,0h18.69V770.44h-18.69Zm-56.08,0H1149V770.44h-18.69Zm-18.69,0h18.69V770.44h-18.69Zm-18.69,0h18.69V770.44H1093Zm-18.69,0H1093V770.44h-18.69Zm-18.69,0h18.69V770.44h-18.69Zm-18.7,0h18.7V770.44h-18.7Zm-18.69,0h18.69V770.44h-18.69Zm-18.69,0h18.69V770.44H999.5Zm-18.69,0H999.5V770.44H980.81Zm-18.69,0h18.69V770.44H962.12Zm-336.45,0h18.69V770.44H625.67Zm-18.69,0h18.69V770.44H607Zm-18.7,0H607V770.44h-18.7Zm-18.69,0h18.69V770.44H569.59Zm-18.69,0h18.69V770.44H550.9Zm-18.69,0H550.9V770.44H532.21Zm-18.69,0h18.69V770.44H513.52Zm-18.7,0h18.7V770.44h-18.7Zm-18.69,0h18.69V770.44H476.13Zm-18.69,0h18.69V770.44H457.44Zm-18.69,0h18.69V770.44H438.75Zm-18.69,0h18.69V770.44H420.06Zm-18.69,0h18.69V770.44H401.37Zm1383.18-18.69h18.69V751.76h-18.69Zm-37.38,0h18.69V751.76h-18.69Zm-18.7,0h18.7V751.76h-18.7Zm-18.69,0h18.69V751.76h-18.69Zm-18.69,0h18.69V751.76h-18.69Zm-504.67,0h18.69V751.76h-18.69Zm-56.08,0H1149V751.76h-18.69Zm-18.69,0h18.69V751.76h-18.69Zm-18.69,0h18.69V751.76H1093Zm-18.69,0H1093V751.76h-18.69Zm-18.69,0h18.69V751.76h-18.69Zm-18.7,0h18.7V751.76h-18.7Zm-18.69,0h18.69V751.76h-18.69Zm-18.69,0h18.69V751.76H999.5Zm-18.69,0H999.5V751.76H980.81Zm-336.45,0h18.69V751.76H644.36Zm-18.69,0h18.69V751.76H625.67Zm-18.69,0h18.69V751.76H607Zm-18.7,0H607V751.76h-18.7Zm-18.69,0h18.69V751.76H569.59Zm-18.69,0h18.69V751.76H550.9Zm-18.69,0H550.9V751.76H532.21Zm-18.69,0h18.69V751.76H513.52Zm-18.7,0h18.7V751.76h-18.7Zm-18.69,0h18.69V751.76H476.13Zm-18.69,0h18.69V751.76H457.44Zm-18.69,0h18.69V751.76H438.75Zm-18.69,0h18.69V751.76H420.06Zm-18.69,0h18.69V751.76H401.37Zm-18.69,0h18.69V751.76H382.68Zm1457.94-18.68h18.7V733.07h-18.7Zm-56.07,0h18.69V733.07h-18.69Zm-56.08,0h18.7V733.07h-18.7Zm-56.07,0h18.69V733.07H1672.4Zm-542.06,0H1149V733.07h-18.69Zm-18.69,0h18.69V733.07h-18.69Zm-18.69,0h18.69V733.07H1093Zm-18.69,0H1093V733.07h-18.69Zm-18.69,0h18.69V733.07h-18.69Zm-18.7,0h18.7V733.07h-18.7Zm-18.69,0h18.69V733.07h-18.69Zm-18.69,0h18.69V733.07H999.5Zm-18.69,0H999.5V733.07H980.81Zm-317.76,0h18.69V733.07H663.05Zm-18.69,0h18.69V733.07H644.36Zm-18.69,0h18.69V733.07H625.67Zm-18.69,0h18.69V733.07H607Zm-18.7,0H607V733.07h-18.7Zm-18.69,0h18.69V733.07H569.59Zm-18.69,0h18.69V733.07H550.9Zm-18.69,0H550.9V733.07H532.21Zm-18.69,0h18.69V733.07H513.52Zm-18.7,0h18.7V733.07h-18.7Zm-18.69,0h18.69V733.07H476.13Zm-18.69,0h18.69V733.07H457.44Zm-18.69,0h18.69V733.07H438.75Zm-18.69,0h18.69V733.07H420.06Zm-18.69,0h18.69V733.07H401.37Zm-18.69,0h18.69V733.07H382.68Zm1439.25-18.69h18.69V714.38h-18.69Zm-18.69,0h18.69V714.38h-18.69Zm-18.69,0h18.69V714.38h-18.69Zm-18.69,0h18.69V714.38h-18.69Zm-168.23,0h18.69V714.38h-18.69Zm-18.69,0h18.69V714.38h-18.69Zm-448.6,0H1149V714.38h-18.69Zm-18.69,0h18.69V714.38h-18.69Zm-18.69,0h18.69V714.38H1093Zm-18.69,0H1093V714.38h-18.69Zm-18.69,0h18.69V714.38h-18.69Zm-18.7,0h18.7V714.38h-18.7Zm-18.69,0h18.69V714.38h-18.69Zm-18.69,0h18.69V714.38H999.5Zm-18.69,0H999.5V714.38H980.81Zm-18.69,0h18.69V714.38H962.12Zm-317.76,0h18.69V714.38H644.36Zm-18.69,0h18.69V714.38H625.67Zm-18.69,0h18.69V714.38H607Zm-18.7,0H607V714.38h-18.7Zm-18.69,0h18.69V714.38H569.59Zm-18.69,0h18.69V714.38H550.9Zm-18.69,0H550.9V714.38H532.21Zm-18.69,0h18.69V714.38H513.52Zm-18.7,0h18.7V714.38h-18.7Zm-18.69,0h18.69V714.38H476.13Zm-18.69,0h18.69V714.38H457.44Zm-18.69,0h18.69V714.38H438.75Zm-18.69,0h18.69V714.38H420.06Zm-18.69,0h18.69V714.38H401.37Zm-18.69,0h18.69V714.38H382.68Zm-18.7,0h18.7V714.38H364Zm1476.64-18.69h18.7V695.69h-18.7Zm-18.69,0h18.69V695.69h-18.69Zm-18.69,0h18.69V695.69h-18.69Zm-18.69,0h18.69V695.69h-18.69Zm-18.69,0h18.69V695.69h-18.69Zm-112.15,0h18.69V695.69h-18.69Zm-93.46,0h18.69V695.69h-18.69Zm-429.91,0H1149V695.69h-18.69Zm-18.69,0h18.69V695.69h-18.69Zm-18.69,0h18.69V695.69H1093Zm-18.69,0H1093V695.69h-18.69Zm-18.69,0h18.69V695.69h-18.69Zm-18.7,0h18.7V695.69h-18.7Zm-18.69,0h18.69V695.69h-18.69Zm-18.69,0h18.69V695.69H999.5Zm-18.69,0H999.5V695.69H980.81Zm-18.69,0h18.69V695.69H962.12Zm-18.69,0h18.69V695.69H943.43Zm-299.07,0h18.69V695.69H644.36Zm-18.69,0h18.69V695.69H625.67Zm-18.69,0h18.69V695.69H607Zm-18.7,0H607V695.69h-18.7Zm-18.69,0h18.69V695.69H569.59Zm-18.69,0h18.69V695.69H550.9Zm-18.69,0H550.9V695.69H532.21Zm-18.69,0h18.69V695.69H513.52Zm-18.7,0h18.7V695.69h-18.7Zm-18.69,0h18.69V695.69H476.13Zm-18.69,0h18.69V695.69H457.44Zm-18.69,0h18.69V695.69H438.75Zm-18.69,0h18.69V695.69H420.06Zm-18.69,0h18.69V695.69H401.37Zm-18.69,0h18.69V695.69H382.68Zm-18.7,0h18.7V695.69H364Zm1439.26-18.69h18.69V677h-18.69Zm-18.69,0h18.69V677h-18.69Zm-18.69,0h18.69V677h-18.69Zm-18.69,0h18.69V677h-18.69Zm-18.7,0h18.7V677h-18.7Zm-74.76,0h18.69V677h-18.69Zm-37.39,0H1635V677h-18.7Zm-18.69,0h18.69V677h-18.69Zm-37.38,0h18.69V677h-18.69Zm-18.69,0h18.69V677h-18.69Zm-18.69,0h18.69V677h-18.69Zm-373.84,0h18.7V677H1149Zm-18.69,0H1149V677h-18.69Zm-18.69,0h18.69V677h-18.69Zm-18.69,0h18.69V677H1093Zm-18.69,0H1093V677h-18.69Zm-18.69,0h18.69V677h-18.69Zm-18.7,0h18.7V677h-18.7Zm-18.69,0h18.69V677h-18.69Zm-18.69,0h18.69V677H999.5Zm-18.69,0H999.5V677H980.81Zm-18.69,0h18.69V677H962.12Zm-18.69,0h18.69V677H943.43Zm-355.15,0H607V677h-18.7Zm-18.69,0h18.69V677H569.59Zm-18.69,0h18.69V677H550.9Zm-18.69,0H550.9V677H532.21Zm-18.69,0h18.69V677H513.52Zm-18.7,0h18.7V677h-18.7Zm-18.69,0h18.69V677H476.13Zm-18.69,0h18.69V677H457.44Zm-18.69,0h18.69V677H438.75Zm-18.69,0h18.69V677H420.06Zm-18.69,0h18.69V677H401.37Zm-18.69,0h18.69V677H382.68Zm-18.7,0h18.7V677H364ZM1728.47,677h18.7V658.31h-18.7Zm-74.76,0h18.69V658.31h-18.69ZM1635,677h18.69V658.31H1635Zm-18.7,0H1635V658.31h-18.7Zm-18.69,0h18.69V658.31h-18.69Zm-18.69,0h18.69V658.31h-18.69Zm-37.38,0h18.69V658.31h-18.69Zm-18.69,0h18.69V658.31h-18.69Zm-355.14,0h18.69V658.31h-18.69Zm-18.7,0h18.7V658.31H1149Zm-18.69,0H1149V658.31h-18.69Zm-18.69,0h18.69V658.31h-18.69ZM1093,677h18.69V658.31H1093Zm-18.69,0H1093V658.31h-18.69Zm-18.69,0h18.69V658.31h-18.69Zm-18.7,0h18.7V658.31h-18.7Zm-18.69,0h18.69V658.31h-18.69Zm-18.69,0h18.69V658.31H999.5Zm-18.69,0H999.5V658.31H980.81Zm-18.69,0h18.69V658.31H962.12Zm-18.69,0h18.69V658.31H943.43ZM550.9,677h18.69V658.31H550.9Zm-18.69,0H550.9V658.31H532.21Zm-18.69,0h18.69V658.31H513.52Zm-18.7,0h18.7V658.31h-18.7Zm-18.69,0h18.69V658.31H476.13Zm-18.69,0h18.69V658.31H457.44Zm-18.69,0h18.69V658.31H438.75Zm-18.69,0h18.69V658.31H420.06Zm-18.69,0h18.69V658.31H401.37Zm-18.69,0h18.69V658.31H382.68ZM1635,658.31h18.69V639.62H1635Zm-18.7,0H1635V639.62h-18.7Zm-18.69,0h18.69V639.62h-18.69Zm-18.69,0h18.69V639.62h-18.69Zm-37.38,0h18.69V639.62h-18.69Zm-18.69,0h18.69V639.62h-18.69Zm-18.7,0h18.7V639.62h-18.7Zm-317.75,0h18.69V639.62h-18.69Zm-18.69,0h18.69V639.62h-18.69Zm-18.7,0h18.7V639.62H1149Zm-18.69,0H1149V639.62h-18.69Zm-18.69,0h18.69V639.62h-18.69Zm-18.69,0h18.69V639.62H1093Zm-18.69,0H1093V639.62h-18.69Zm-18.69,0h18.69V639.62h-18.69Zm-18.7,0h18.7V639.62h-18.7Zm-18.69,0h18.69V639.62h-18.69Zm-18.69,0h18.69V639.62H999.5Zm-18.69,0H999.5V639.62H980.81Zm-18.69,0h18.69V639.62H962.12Zm-18.69,0h18.69V639.62H943.43Zm-18.7,0h18.7V639.62h-18.7Zm-56.07,0h18.69V639.62H868.66Zm-37.38,0H850V639.62H831.28Zm-299.07,0H550.9V639.62H532.21Zm-18.69,0h18.69V639.62H513.52Zm-18.7,0h18.7V639.62h-18.7Zm-18.69,0h18.69V639.62H476.13Zm-18.69,0h18.69V639.62H457.44Zm-18.69,0h18.69V639.62H438.75Zm-18.69,0h18.69V639.62H420.06Zm-18.69,0h18.69V639.62H401.37Zm-18.69,0h18.69V639.62H382.68ZM1635,639.62h18.69V620.93H1635Zm-18.7,0H1635V620.93h-18.7Zm-93.45,0h18.69V620.93h-18.69Zm-18.7,0h18.7V620.93h-18.7Zm-317.75,0h18.69V620.93h-18.69Zm-18.69,0h18.69V620.93h-18.69Zm-18.7,0h18.7V620.93H1149Zm-18.69,0H1149V620.93h-18.69Zm-18.69,0h18.69V620.93h-18.69Zm-18.69,0h18.69V620.93H1093Zm-18.69,0H1093V620.93h-18.69Zm-18.69,0h18.69V620.93h-18.69Zm-18.7,0h18.7V620.93h-18.7Zm-18.69,0h18.69V620.93h-18.69Zm-18.69,0h18.69V620.93H999.5Zm-18.69,0H999.5V620.93H980.81Zm-18.69,0h18.69V620.93H962.12Zm-18.69,0h18.69V620.93H943.43Zm-18.7,0h18.7V620.93h-18.7Zm-18.69,0h18.69V620.93H906Zm-18.69,0H906V620.93H887.35Zm-18.69,0h18.69V620.93H868.66Zm-18.69,0h18.69V620.93H850Zm-18.69,0H850V620.93H831.28Zm-18.7,0h18.7V620.93h-18.7Zm-18.69,0h18.69V620.93H793.89Zm-280.37,0h18.69V620.93H513.52Zm-18.7,0h18.7V620.93h-18.7Zm-18.69,0h18.69V620.93H476.13Zm-18.69,0h18.69V620.93H457.44Zm-18.69,0h18.69V620.93H438.75Zm-18.69,0h18.69V620.93H420.06Zm-18.69,0h18.69V620.93H401.37Zm-18.69,0h18.69V620.93H382.68Zm-18.7,0h18.7V620.93H364Zm-18.69,0H364V620.93H345.29Zm1345.8-18.69h18.69V602.24h-18.69Zm-18.69,0h18.69V602.24H1672.4Zm-37.38,0h18.69V602.24H1635Zm-18.7,0H1635V602.24h-18.7Zm-93.45,0h18.69V602.24h-18.69Zm-18.7,0h18.7V602.24h-18.7Zm-112.15,0h18.7V602.24H1392Zm-18.69,0H1392V602.24h-18.69Zm-186.91,0h18.69V602.24h-18.69Zm-18.69,0h18.69V602.24h-18.69Zm-18.7,0h18.7V602.24H1149Zm-18.69,0H1149V602.24h-18.69Zm-18.69,0h18.69V602.24h-18.69Zm-18.69,0h18.69V602.24H1093Zm-18.69,0H1093V602.24h-18.69Zm-18.69,0h18.69V602.24h-18.69Zm-18.7,0h18.7V602.24h-18.7Zm-18.69,0h18.69V602.24h-18.69Zm-18.69,0h18.69V602.24H999.5Zm-18.69,0H999.5V602.24H980.81Zm-18.69,0h18.69V602.24H962.12Zm-18.69,0h18.69V602.24H943.43Zm-18.7,0h18.7V602.24h-18.7Zm-18.69,0h18.69V602.24H906Zm-18.69,0H906V602.24H887.35Zm-18.69,0h18.69V602.24H868.66Zm-18.69,0h18.69V602.24H850Zm-18.69,0H850V602.24H831.28Zm-18.7,0h18.7V602.24h-18.7Zm-18.69,0h18.69V602.24H793.89Zm-317.76,0h18.69V602.24H476.13Zm-18.69,0h18.69V602.24H457.44Zm-18.69,0h18.69V602.24H438.75Zm-18.69,0h18.69V602.24H420.06Zm-18.69,0h18.69V602.24H401.37Zm-56.08,0H364V602.24H345.29Zm-18.69,0h18.69V602.24H326.6Zm1345.8-18.69h18.69V583.56H1672.4Zm-37.38,0h18.69V583.56H1635Zm-74.77,0h18.69V583.56h-18.69Zm-18.69,0h18.69V583.56h-18.69Zm-37.39,0h18.7V583.56h-18.7Zm-130.84,0H1392V583.56h-18.69Zm-168.22,0h18.69V583.56h-18.69Zm-18.69,0h18.69V583.56h-18.69Zm-18.69,0h18.69V583.56h-18.69Zm-18.7,0h18.7V583.56H1149Zm-18.69,0H1149V583.56h-18.69Zm-18.69,0h18.69V583.56h-18.69Zm-18.69,0h18.69V583.56H1093Zm-18.69,0H1093V583.56h-18.69Zm-18.69,0h18.69V583.56h-18.69Zm-18.7,0h18.7V583.56h-18.7Zm-18.69,0h18.69V583.56h-18.69Zm-18.69,0h18.69V583.56H999.5Zm-18.69,0H999.5V583.56H980.81Zm-18.69,0h18.69V583.56H962.12Zm-18.69,0h18.69V583.56H943.43Zm-18.7,0h18.7V583.56h-18.7Zm-18.69,0h18.69V583.56H906Zm-18.69,0H906V583.56H887.35Zm-18.69,0h18.69V583.56H868.66Zm-18.69,0h18.69V583.56H850Zm-18.69,0H850V583.56H831.28Zm-18.7,0h18.7V583.56h-18.7Zm-18.69,0h18.69V583.56H793.89Zm-18.69,0h18.69V583.56H775.2Zm-355.14,0h18.69V583.56H420.06Zm-74.77,0H364V583.56H345.29Zm-18.69,0h18.69V583.56H326.6Zm-18.69,0H326.6V583.56H307.91ZM1672.4,583.56h18.69V564.87H1672.4Zm-18.69,0h18.69V564.87h-18.69Zm-74.77,0h18.69V564.87h-18.69Zm-18.69,0h18.69V564.87h-18.69Zm-18.69,0h18.69V564.87h-18.69Zm-18.69,0h18.69V564.87h-18.69Zm-18.7,0h18.7V564.87h-18.7Zm-130.84,0H1392V564.87h-18.69Zm-18.69,0h18.69V564.87h-18.69Zm-168.22,0h18.69V564.87h-18.69Zm-18.69,0h18.69V564.87h-18.69Zm-18.7,0h18.7V564.87H1149Zm-18.69,0H1149V564.87h-18.69Zm-18.69,0h18.69V564.87h-18.69Zm-18.69,0h18.69V564.87H1093Zm-18.69,0H1093V564.87h-18.69Zm-18.69,0h18.69V564.87h-18.69Zm-18.7,0h18.7V564.87h-18.7Zm-18.69,0h18.69V564.87h-18.69Zm-18.69,0h18.69V564.87H999.5Zm-18.69,0H999.5V564.87H980.81Zm-18.69,0h18.69V564.87H962.12Zm-18.69,0h18.69V564.87H943.43Zm-18.7,0h18.7V564.87h-18.7Zm-18.69,0h18.69V564.87H906Zm-18.69,0H906V564.87H887.35Zm-18.69,0h18.69V564.87H868.66Zm-18.69,0h18.69V564.87H850Zm-18.69,0H850V564.87H831.28Zm-18.7,0h18.7V564.87h-18.7Zm-18.69,0h18.69V564.87H793.89Zm-18.69,0h18.69V564.87H775.2Zm-429.91,0H364V564.87H345.29Zm-18.69,0h18.69V564.87H326.6Zm-18.69,0H326.6V564.87H307.91Zm-18.69,0h18.69V564.87H289.22Zm-18.7,0h18.7V564.87h-18.7Zm1383.19-18.69h18.69V546.18h-18.69Zm-93.46,0h18.69V546.18h-18.69Zm-18.69,0h18.69V546.18h-18.69Zm-18.69,0h18.69V546.18h-18.69Zm-18.7,0h18.7V546.18h-18.7Zm-18.69,0h18.69V546.18h-18.69Zm-93.46,0h18.7V546.18H1392Zm-18.69,0H1392V546.18h-18.69Zm-18.69,0h18.69V546.18h-18.69Zm-130.84,0h18.69V546.18H1223.8Zm-18.69,0h18.69V546.18h-18.69Zm-18.69,0h18.69V546.18h-18.69Zm-18.69,0h18.69V546.18h-18.69Zm-18.7,0h18.7V546.18H1149Zm-18.69,0H1149V546.18h-18.69Zm-18.69,0h18.69V546.18h-18.69Zm-18.69,0h18.69V546.18H1093Zm-18.69,0H1093V546.18h-18.69Zm-18.69,0h18.69V546.18h-18.69Zm-18.7,0h18.7V546.18h-18.7Zm-18.69,0h18.69V546.18h-18.69Zm-18.69,0h18.69V546.18H999.5Zm-18.69,0H999.5V546.18H980.81Zm-18.69,0h18.69V546.18H962.12Zm-18.69,0h18.69V546.18H943.43Zm-18.7,0h18.7V546.18h-18.7Zm-18.69,0h18.69V546.18H906Zm-18.69,0H906V546.18H887.35Zm-18.69,0h18.69V546.18H868.66Zm-18.69,0h18.69V546.18H850Zm-18.69,0H850V546.18H831.28Zm-18.7,0h18.7V546.18h-18.7Zm-18.69,0h18.69V546.18H793.89Zm-18.69,0h18.69V546.18H775.2Zm-336.45,0h18.69V546.18H438.75Zm-18.69,0h18.69V546.18H420.06Zm-112.15,0H326.6V546.18H307.91Zm-18.69,0h18.69V546.18H289.22Zm-18.7,0h18.7V546.18h-18.7Zm-18.69,0h18.69V546.18H251.83Zm-18.69,0h18.69V546.18H233.14Zm1420.57-18.69h18.69V527.49h-18.69Zm-93.46,0h18.69V527.49h-18.69Zm-18.69,0h18.69V527.49h-18.69Zm-18.69,0h18.69V527.49h-18.69Zm-18.7,0h18.7V527.49h-18.7Zm-18.69,0h18.69V527.49h-18.69Zm-18.69,0h18.69V527.49h-18.69Zm-56.07,0h18.69V527.49h-18.69Zm-18.7,0h18.7V527.49H1392Zm-18.69,0H1392V527.49h-18.69Zm-18.69,0h18.69V527.49h-18.69Zm-18.69,0h18.69V527.49H1336Zm-93.46,0h18.69V527.49h-18.69Zm-18.69,0h18.69V527.49H1223.8Zm-18.69,0h18.69V527.49h-18.69Zm-18.69,0h18.69V527.49h-18.69Zm-18.69,0h18.69V527.49h-18.69Zm-18.7,0h18.7V527.49H1149Zm-37.38,0h18.69V527.49h-18.69Zm-18.69,0h18.69V527.49H1093Zm-18.69,0H1093V527.49h-18.69Zm-18.69,0h18.69V527.49h-18.69Zm-18.7,0h18.7V527.49h-18.7Zm-18.69,0h18.69V527.49h-18.69Zm-18.69,0h18.69V527.49H999.5Zm-18.69,0H999.5V527.49H980.81Zm-18.69,0h18.69V527.49H962.12Zm-18.69,0h18.69V527.49H943.43Zm-18.7,0h18.7V527.49h-18.7Zm-18.69,0h18.69V527.49H906Zm-18.69,0H906V527.49H887.35Zm-18.69,0h18.69V527.49H868.66Zm-18.69,0h18.69V527.49H850Zm-18.69,0H850V527.49H831.28Zm-18.7,0h18.7V527.49h-18.7Zm-18.69,0h18.69V527.49H793.89Zm-18.69,0h18.69V527.49H775.2Zm-373.83,0h18.69V527.49H401.37Zm-18.69,0h18.69V527.49H382.68Zm-56.08,0h18.69V527.49H326.6Zm-18.69,0H326.6V527.49H307.91Zm-56.08,0h18.69V527.49H251.83Zm-18.69,0h18.69V527.49H233.14Zm-18.69,0h18.69V527.49H214.45Zm1364.49-18.69h18.69V508.8h-18.69Zm-18.69,0h18.69V508.8h-18.69Zm-18.69,0h18.69V508.8h-18.69Zm-18.69,0h18.69V508.8h-18.69Zm-18.7,0h18.7V508.8h-18.7Zm-18.69,0h18.69V508.8h-18.69Zm-18.69,0h18.69V508.8h-18.69Zm-37.38,0h18.69V508.8h-18.69Zm-18.69,0h18.69V508.8h-18.69Zm-18.7,0h18.7V508.8H1392Zm-18.69,0H1392V508.8h-18.69Zm-18.69,0h18.69V508.8h-18.69Zm-18.69,0h18.69V508.8H1336Zm-18.69,0H1336V508.8h-18.69Zm-74.77,0h18.69V508.8h-18.69Zm-18.69,0h18.69V508.8H1223.8Zm-18.69,0h18.69V508.8h-18.69Zm-18.69,0h18.69V508.8h-18.69Zm-18.69,0h18.69V508.8h-18.69Zm-18.7,0h18.7V508.8H1149Zm-18.69,0H1149V508.8h-18.69Zm-18.69,0h18.69V508.8h-18.69Zm-18.69,0h18.69V508.8H1093Zm-18.69,0H1093V508.8h-18.69Zm-18.69,0h18.69V508.8h-18.69Zm-18.7,0h18.7V508.8h-18.7Zm-18.69,0h18.69V508.8h-18.69Zm-18.69,0h18.69V508.8H999.5Zm-18.69,0H999.5V508.8H980.81Zm-18.69,0h18.69V508.8H962.12Zm-18.69,0h18.69V508.8H943.43Zm-18.7,0h18.7V508.8h-18.7Zm-18.69,0h18.69V508.8H906Zm-18.69,0H906V508.8H887.35Zm-18.69,0h18.69V508.8H868.66Zm-18.69,0h18.69V508.8H850Zm-18.69,0H850V508.8H831.28Zm-18.7,0h18.7V508.8h-18.7Zm-18.69,0h18.69V508.8H793.89Zm-18.69,0h18.69V508.8H775.2Zm-411.22,0h18.7V508.8H364Zm-112.15,0h18.69V508.8H251.83Zm-18.69,0h18.69V508.8H233.14Zm-18.69,0h18.69V508.8H214.45Zm-18.69,0h18.69V508.8H195.76ZM1635,508.8h18.69V490.11H1635Zm-37.39,0h18.69V490.11h-18.69Zm-18.69,0h18.69V490.11h-18.69Zm-18.69,0h18.69V490.11h-18.69Zm-18.69,0h18.69V490.11h-18.69Zm-18.69,0h18.69V490.11h-18.69Zm-18.7,0h18.7V490.11h-18.7Zm-18.69,0h18.69V490.11h-18.69Zm-18.69,0h18.69V490.11h-18.69Zm-18.69,0h18.69V490.11H1448.1Zm-18.69,0h18.69V490.11h-18.69Zm-18.69,0h18.69V490.11h-18.69Zm-18.7,0h18.7V490.11H1392Zm-18.69,0H1392V490.11h-18.69Zm-18.69,0h18.69V490.11h-18.69Zm-18.69,0h18.69V490.11H1336Zm-18.69,0H1336V490.11h-18.69Zm-74.77,0h18.69V490.11h-18.69Zm-18.69,0h18.69V490.11H1223.8Zm-18.69,0h18.69V490.11h-18.69Zm-18.69,0h18.69V490.11h-18.69Zm-18.69,0h18.69V490.11h-18.69Zm-18.7,0h18.7V490.11H1149Zm-18.69,0H1149V490.11h-18.69Zm-18.69,0h18.69V490.11h-18.69Zm-18.69,0h18.69V490.11H1093Zm-18.69,0H1093V490.11h-18.69Zm-18.69,0h18.69V490.11h-18.69Zm-18.7,0h18.7V490.11h-18.7Zm-18.69,0h18.69V490.11h-18.69Zm-18.69,0h18.69V490.11H999.5Zm-18.69,0H999.5V490.11H980.81Zm-18.69,0h18.69V490.11H962.12Zm-18.69,0h18.69V490.11H943.43Zm-18.7,0h18.7V490.11h-18.7Zm-18.69,0h18.69V490.11H906Zm-18.69,0H906V490.11H887.35Zm-18.69,0h18.69V490.11H868.66Zm-18.69,0h18.69V490.11H850Zm-18.69,0H850V490.11H831.28Zm-18.7,0h18.7V490.11h-18.7Zm-18.69,0h18.69V490.11H793.89Zm-18.69,0h18.69V490.11H775.2Zm-392.52,0h18.69V490.11H382.68Zm-112.16,0h18.7V490.11h-18.7Zm-18.69,0h18.69V490.11H251.83Zm-18.69,0h18.69V490.11H233.14Zm-18.69,0h18.69V490.11H214.45Zm-18.69,0h18.69V490.11H195.76Zm-18.69,0h18.69V490.11H177.07Zm1458-18.69h18.69V471.42H1635Zm-18.7,0H1635V471.42h-18.7Zm-18.69,0h18.69V471.42h-18.69Zm-18.69,0h18.69V471.42h-18.69Zm-18.69,0h18.69V471.42h-18.69Zm-18.69,0h18.69V471.42h-18.69Zm-18.69,0h18.69V471.42h-18.69Zm-18.7,0h18.7V471.42h-18.7Zm-18.69,0h18.69V471.42h-18.69Zm-18.69,0h18.69V471.42h-18.69Zm-18.69,0h18.69V471.42H1448.1Zm-18.69,0h18.69V471.42h-18.69Zm-18.69,0h18.69V471.42h-18.69Zm-18.7,0h18.7V471.42H1392Zm-18.69,0H1392V471.42h-18.69Zm-18.69,0h18.69V471.42h-18.69Zm-18.69,0h18.69V471.42H1336Zm-18.69,0H1336V471.42h-18.69Zm-18.69,0h18.69V471.42h-18.69Zm-18.69,0h18.69V471.42h-18.69Zm-18.7,0h18.7V471.42h-18.7Zm-18.69,0h18.69V471.42h-18.69Zm-18.69,0h18.69V471.42H1223.8Zm-37.38,0h18.69V471.42h-18.69Zm-18.69,0h18.69V471.42h-18.69Zm-18.7,0h18.7V471.42H1149Zm-18.69,0H1149V471.42h-18.69Zm-18.69,0h18.69V471.42h-18.69Zm-18.69,0h18.69V471.42H1093Zm-18.69,0H1093V471.42h-18.69Zm-18.69,0h18.69V471.42h-18.69Zm-18.7,0h18.7V471.42h-18.7Zm-18.69,0h18.69V471.42h-18.69Zm-18.69,0h18.69V471.42H999.5Zm-18.69,0H999.5V471.42H980.81Zm-18.69,0h18.69V471.42H962.12Zm-18.69,0h18.69V471.42H943.43Zm-18.7,0h18.7V471.42h-18.7Zm-18.69,0h18.69V471.42H906Zm-18.69,0H906V471.42H887.35Zm-18.69,0h18.69V471.42H868.66Zm-18.69,0h18.69V471.42H850Zm-18.69,0H850V471.42H831.28Zm-18.7,0h18.7V471.42h-18.7Zm-18.69,0h18.69V471.42H793.89Zm-411.21,0h18.69V471.42H382.68Zm-74.77,0H326.6V471.42H307.91Zm-18.69,0h18.69V471.42H289.22Zm-18.7,0h18.7V471.42h-18.7Zm-18.69,0h18.69V471.42H251.83Zm-18.69,0h18.69V471.42H233.14Zm-18.69,0h18.69V471.42H214.45Zm-18.69,0h18.69V471.42H195.76Zm-18.69,0h18.69V471.42H177.07Zm1439.25-18.69H1635V452.73h-18.7Zm-18.69,0h18.69V452.73h-18.69Zm-18.69,0h18.69V452.73h-18.69Zm-18.69,0h18.69V452.73h-18.69Zm-18.69,0h18.69V452.73h-18.69Zm-18.69,0h18.69V452.73h-18.69Zm-18.7,0h18.7V452.73h-18.7Zm-18.69,0h18.69V452.73h-18.69Zm-18.69,0h18.69V452.73h-18.69Zm-18.69,0h18.69V452.73H1448.1Zm-18.69,0h18.69V452.73h-18.69Zm-18.69,0h18.69V452.73h-18.69Zm-18.7,0h18.7V452.73H1392Zm-18.69,0H1392V452.73h-18.69Zm-18.69,0h18.69V452.73h-18.69Zm-18.69,0h18.69V452.73H1336Zm-18.69,0H1336V452.73h-18.69Zm-18.69,0h18.69V452.73h-18.69Zm-18.69,0h18.69V452.73h-18.69Zm-18.7,0h18.7V452.73h-18.7Zm-18.69,0h18.69V452.73h-18.69Zm-18.69,0h18.69V452.73H1223.8Zm-18.69,0h18.69V452.73h-18.69Zm-18.69,0h18.69V452.73h-18.69Zm-18.69,0h18.69V452.73h-18.69Zm-18.7,0h18.7V452.73H1149Zm-18.69,0H1149V452.73h-18.69Zm-18.69,0h18.69V452.73h-18.69Zm-18.69,0h18.69V452.73H1093Zm-18.69,0H1093V452.73h-18.69Zm-18.69,0h18.69V452.73h-18.69Zm-18.7,0h18.7V452.73h-18.7Zm-18.69,0h18.69V452.73h-18.69Zm-18.69,0h18.69V452.73H999.5Zm-18.69,0H999.5V452.73H980.81Zm-18.69,0h18.69V452.73H962.12Zm-18.69,0h18.69V452.73H943.43Zm-18.7,0h18.7V452.73h-18.7Zm-18.69,0h18.69V452.73H906Zm-18.69,0H906V452.73H887.35Zm-18.69,0h18.69V452.73H868.66Zm-18.69,0h18.69V452.73H850Zm-18.69,0H850V452.73H831.28Zm-18.7,0h18.7V452.73h-18.7Zm-429.9,0h18.69V452.73H382.68Zm-18.7,0h18.7V452.73H364Zm-18.69,0H364V452.73H345.29Zm-18.69,0h18.69V452.73H326.6Zm-18.69,0H326.6V452.73H307.91Zm-18.69,0h18.69V452.73H289.22Zm-18.7,0h18.7V452.73h-18.7Zm-18.69,0h18.69V452.73H251.83Zm-18.69,0h18.69V452.73H233.14Zm-18.69,0h18.69V452.73H214.45Zm-18.69,0h18.69V452.73H195.76Zm-18.69,0h18.69V452.73H177.07Zm-18.69,0h18.69V452.73H158.38ZM1635,452.73h18.69V434H1635Zm-18.7,0H1635V434h-18.7Zm-18.69,0h18.69V434h-18.69Zm-18.69,0h18.69V434h-18.69Zm-18.69,0h18.69V434h-18.69Zm-18.69,0h18.69V434h-18.69Zm-18.69,0h18.69V434h-18.69Zm-18.7,0h18.7V434h-18.7Zm-18.69,0h18.69V434h-18.69Zm-18.69,0h18.69V434h-18.69Zm-18.69,0h18.69V434H1448.1Zm-18.69,0h18.69V434h-18.69Zm-18.69,0h18.69V434h-18.69Zm-18.7,0h18.7V434H1392Zm-18.69,0H1392V434h-18.69Zm-18.69,0h18.69V434h-18.69Zm-18.69,0h18.69V434H1336Zm-18.69,0H1336V434h-18.69Zm-18.69,0h18.69V434h-18.69Zm-18.69,0h18.69V434h-18.69Zm-18.7,0h18.7V434h-18.7Zm-18.69,0h18.69V434h-18.69Zm-18.69,0h18.69V434H1223.8Zm-18.69,0h18.69V434h-18.69Zm-18.69,0h18.69V434h-18.69Zm-18.69,0h18.69V434h-18.69Zm-18.7,0h18.7V434H1149Zm-18.69,0H1149V434h-18.69Zm-18.69,0h18.69V434h-18.69Zm-18.69,0h18.69V434H1093Zm-18.69,0H1093V434h-18.69Zm-18.69,0h18.69V434h-18.69Zm-18.7,0h18.7V434h-18.7Zm-18.69,0h18.69V434h-18.69Zm-18.69,0h18.69V434H999.5Zm-18.69,0H999.5V434H980.81Zm-18.69,0h18.69V434H962.12Zm-18.69,0h18.69V434H943.43Zm-18.7,0h18.7V434h-18.7Zm-18.69,0h18.69V434H906Zm-18.69,0H906V434H887.35Zm-18.69,0h18.69V434H868.66Zm-18.69,0h18.69V434H850Zm-18.69,0H850V434H831.28Zm-448.6,0h18.69V434H382.68Zm-18.7,0h18.7V434H364Zm-18.69,0H364V434H345.29Zm-18.69,0h18.69V434H326.6Zm-18.69,0H326.6V434H307.91Zm-18.69,0h18.69V434H289.22Zm-18.7,0h18.7V434h-18.7Zm-18.69,0h18.69V434H251.83Zm-18.69,0h18.69V434H233.14Zm-18.69,0h18.69V434H214.45Zm-18.69,0h18.69V434H195.76Zm-18.69,0h18.69V434H177.07Zm-18.69,0h18.69V434H158.38ZM1691.09,434h18.69V415.36h-18.69Zm-18.69,0h18.69V415.36H1672.4Zm-56.08,0H1635V415.36h-18.7Zm-18.69,0h18.69V415.36h-18.69Zm-18.69,0h18.69V415.36h-18.69Zm-18.69,0h18.69V415.36h-18.69Zm-18.69,0h18.69V415.36h-18.69Zm-18.69,0h18.69V415.36h-18.69Zm-18.7,0h18.7V415.36h-18.7Zm-18.69,0h18.69V415.36h-18.69Zm-18.69,0h18.69V415.36h-18.69Zm-18.69,0h18.69V415.36H1448.1Zm-18.69,0h18.69V415.36h-18.69Zm-18.69,0h18.69V415.36h-18.69Zm-18.7,0h18.7V415.36H1392Zm-18.69,0H1392V415.36h-18.69Zm-18.69,0h18.69V415.36h-18.69ZM1336,434h18.69V415.36H1336Zm-18.69,0H1336V415.36h-18.69Zm-18.69,0h18.69V415.36h-18.69Zm-18.69,0h18.69V415.36h-18.69Zm-18.7,0h18.7V415.36h-18.7Zm-18.69,0h18.69V415.36h-18.69Zm-18.69,0h18.69V415.36H1223.8Zm-18.69,0h18.69V415.36h-18.69Zm-18.69,0h18.69V415.36h-18.69Zm-18.69,0h18.69V415.36h-18.69Zm-18.7,0h18.7V415.36H1149Zm-18.69,0H1149V415.36h-18.69Zm-18.69,0h18.69V415.36h-18.69Zm-168.22,0h18.69V415.36H943.43Zm-18.7,0h18.7V415.36h-18.7ZM906,434h18.69V415.36H906Zm-18.69,0H906V415.36H887.35Zm-18.69,0h18.69V415.36H868.66ZM850,434h18.69V415.36H850Zm-429.91,0h18.69V415.36H420.06Zm-18.69,0h18.69V415.36H401.37Zm-18.69,0h18.69V415.36H382.68ZM364,434h18.7V415.36H364Zm-18.69,0H364V415.36H345.29Zm-18.69,0h18.69V415.36H326.6Zm-18.69,0H326.6V415.36H307.91Zm-18.69,0h18.69V415.36H289.22Zm-18.7,0h18.7V415.36h-18.7Zm-18.69,0h18.69V415.36H251.83Zm-18.69,0h18.69V415.36H233.14Zm-18.69,0h18.69V415.36H214.45Zm-18.69,0h18.69V415.36H195.76Zm-18.69,0h18.69V415.36H177.07Zm-18.69,0h18.69V415.36H158.38Zm1570.09-18.68h18.7V396.67h-18.7Zm-18.69,0h18.69V396.67h-18.69Zm-18.69,0h18.69V396.67h-18.69Zm-18.69,0h18.69V396.67H1672.4Zm-18.69,0h18.69V396.67h-18.69Zm-56.08,0h18.69V396.67h-18.69Zm-18.69,0h18.69V396.67h-18.69Zm-18.69,0h18.69V396.67h-18.69Zm-18.69,0h18.69V396.67h-18.69Zm-18.69,0h18.69V396.67h-18.69Zm-18.7,0h18.7V396.67h-18.7Zm-18.69,0h18.69V396.67h-18.69Zm-18.69,0h18.69V396.67h-18.69Zm-18.69,0h18.69V396.67H1448.1Zm-18.69,0h18.69V396.67h-18.69Zm-18.69,0h18.69V396.67h-18.69Zm-18.7,0h18.7V396.67H1392Zm-18.69,0H1392V396.67h-18.69Zm-18.69,0h18.69V396.67h-18.69Zm-18.69,0h18.69V396.67H1336Zm-18.69,0H1336V396.67h-18.69Zm-18.69,0h18.69V396.67h-18.69Zm-18.69,0h18.69V396.67h-18.69Zm-18.7,0h18.7V396.67h-18.7Zm-18.69,0h18.69V396.67h-18.69Zm-18.69,0h18.69V396.67H1223.8Zm-18.69,0h18.69V396.67h-18.69Zm-18.69,0h18.69V396.67h-18.69Zm-18.69,0h18.69V396.67h-18.69Zm-18.7,0h18.7V396.67H1149Zm-18.69,0H1149V396.67h-18.69Zm-18.69,0h18.69V396.67h-18.69Zm-18.69,0h18.69V396.67H1093Zm-18.69,0H1093V396.67h-18.69Zm-18.69,0h18.69V396.67h-18.69Zm-93.46,0h18.69V396.67H962.12Zm-37.39,0h18.7V396.67h-18.7Zm-56.07,0h18.69V396.67H868.66Zm-18.69,0h18.69V396.67H850Zm-18.69,0H850V396.67H831.28Zm-392.53,0h18.69V396.67H438.75Zm-18.69,0h18.69V396.67H420.06Zm-18.69,0h18.69V396.67H401.37Zm-18.69,0h18.69V396.67H382.68Zm-18.7,0h18.7V396.67H364Zm-18.69,0H364V396.67H345.29Zm-18.69,0h18.69V396.67H326.6Zm-18.69,0H326.6V396.67H307.91Zm-18.69,0h18.69V396.67H289.22Zm-18.7,0h18.7V396.67h-18.7Zm-18.69,0h18.69V396.67H251.83Zm-18.69,0h18.69V396.67H233.14Zm-18.69,0h18.69V396.67H214.45Zm-18.69,0h18.69V396.67H195.76Zm-18.69,0h18.69V396.67H177.07Zm-18.69,0h18.69V396.67H158.38Zm-18.7,0h18.7V396.67h-18.7Zm1570.1-18.69h18.69V378h-18.69Zm-74.76,0h18.69V378H1635Zm-18.7,0H1635V378h-18.7Zm-18.69,0h18.69V378h-18.69Zm-18.69,0h18.69V378h-18.69Zm-18.69,0h18.69V378h-18.69Zm-18.69,0h18.69V378h-18.69Zm-18.69,0h18.69V378h-18.69Zm-18.7,0h18.7V378h-18.7Zm-18.69,0h18.69V378h-18.69Zm-18.69,0h18.69V378h-18.69Zm-18.69,0h18.69V378H1448.1Zm-18.69,0h18.69V378h-18.69Zm-18.69,0h18.69V378h-18.69Zm-18.7,0h18.7V378H1392Zm-18.69,0H1392V378h-18.69Zm-18.69,0h18.69V378h-18.69Zm-18.69,0h18.69V378H1336Zm-18.69,0H1336V378h-18.69Zm-18.69,0h18.69V378h-18.69Zm-18.69,0h18.69V378h-18.69Zm-18.7,0h18.7V378h-18.7Zm-18.69,0h18.69V378h-18.69Zm-18.69,0h18.69V378H1223.8Zm-18.69,0h18.69V378h-18.69Zm-37.38,0h18.69V378h-18.69Zm-18.7,0h18.7V378H1149Zm-18.69,0H1149V378h-18.69Zm-18.69,0h18.69V378h-18.69Zm-18.69,0h18.69V378H1093Zm-18.69,0H1093V378h-18.69Zm-18.69,0h18.69V378h-18.69Zm-18.7,0h18.7V378h-18.7Zm-18.69,0h18.69V378h-18.69Zm-18.69,0h18.69V378H999.5Zm-18.69,0H999.5V378H980.81Zm-56.08,0h18.7V378h-18.7Zm-37.38,0H906V378H887.35Zm-18.69,0h18.69V378H868.66Zm-18.69,0h18.69V378H850Zm-18.69,0H850V378H831.28Zm-373.84,0h18.69V378H457.44Zm-18.69,0h18.69V378H438.75Zm-18.69,0h18.69V378H420.06Zm-18.69,0h18.69V378H401.37Zm-18.69,0h18.69V378H382.68Zm-18.7,0h18.7V378H364Zm-18.69,0H364V378H345.29Zm-18.69,0h18.69V378H326.6Zm-18.69,0H326.6V378H307.91Zm-18.69,0h18.69V378H289.22Zm-18.7,0h18.7V378h-18.7Zm-18.69,0h18.69V378H251.83Zm-18.69,0h18.69V378H233.14Zm-18.69,0h18.69V378H214.45Zm-18.69,0h18.69V378H195.76Zm-18.69,0h18.69V378H177.07Zm-18.69,0h18.69V378H158.38ZM1709.78,378h18.69V359.29h-18.69ZM1635,378h18.69V359.29H1635Zm-18.7,0H1635V359.29h-18.7Zm-18.69,0h18.69V359.29h-18.69Zm-18.69,0h18.69V359.29h-18.69Zm-18.69,0h18.69V359.29h-18.69Zm-18.69,0h18.69V359.29h-18.69Zm-18.69,0h18.69V359.29h-18.69Zm-18.7,0h18.7V359.29h-18.7Zm-18.69,0h18.69V359.29h-18.69Zm-18.69,0h18.69V359.29h-18.69Zm-18.69,0h18.69V359.29H1448.1Zm-18.69,0h18.69V359.29h-18.69Zm-18.69,0h18.69V359.29h-18.69Zm-18.7,0h18.7V359.29H1392Zm-18.69,0H1392V359.29h-18.69Zm-18.69,0h18.69V359.29h-18.69ZM1336,378h18.69V359.29H1336Zm-18.69,0H1336V359.29h-18.69Zm-18.69,0h18.69V359.29h-18.69Zm-18.69,0h18.69V359.29h-18.69Zm-18.7,0h18.7V359.29h-18.7Zm-18.69,0h18.69V359.29h-18.69Zm-18.69,0h18.69V359.29H1223.8Zm-18.69,0h18.69V359.29h-18.69Zm-18.69,0h18.69V359.29h-18.69Zm-18.69,0h18.69V359.29h-18.69Zm-18.7,0h18.7V359.29H1149Zm-18.69,0H1149V359.29h-18.69Zm-18.69,0h18.69V359.29h-18.69ZM1093,378h18.69V359.29H1093Zm-18.69,0H1093V359.29h-18.69Zm-18.69,0h18.69V359.29h-18.69Zm-18.7,0h18.7V359.29h-18.7Zm-18.69,0h18.69V359.29h-18.69Zm-18.69,0h18.69V359.29H999.5Zm-37.38,0h18.69V359.29H962.12Zm-18.69,0h18.69V359.29H943.43Zm-18.7,0h18.7V359.29h-18.7Zm-37.38,0H906V359.29H887.35Zm-18.69,0h18.69V359.29H868.66ZM850,378h18.69V359.29H850Zm-18.69,0H850V359.29H831.28Zm-355.15,0h18.69V359.29H476.13Zm-18.69,0h18.69V359.29H457.44Zm-18.69,0h18.69V359.29H438.75Zm-18.69,0h18.69V359.29H420.06Zm-18.69,0h18.69V359.29H401.37Zm-18.69,0h18.69V359.29H382.68ZM364,378h18.7V359.29H364Zm-18.69,0H364V359.29H345.29Zm-18.69,0h18.69V359.29H326.6Zm-18.69,0H326.6V359.29H307.91Zm-18.69,0h18.69V359.29H289.22Zm-18.7,0h18.7V359.29h-18.7Zm-18.69,0h18.69V359.29H251.83Zm-18.69,0h18.69V359.29H233.14Zm-18.69,0h18.69V359.29H214.45Zm-18.69,0h18.69V359.29H195.76Zm-18.69,0h18.69V359.29H177.07Zm-18.69,0h18.69V359.29H158.38Zm1551.4-18.69h18.69V340.6h-18.69Zm-56.07,0h18.69V340.6h-18.69Zm-18.69,0h18.69V340.6H1635Zm-18.7,0H1635V340.6h-18.7Zm-18.69,0h18.69V340.6h-18.69Zm-18.69,0h18.69V340.6h-18.69Zm-18.69,0h18.69V340.6h-18.69Zm-18.69,0h18.69V340.6h-18.69Zm-18.69,0h18.69V340.6h-18.69Zm-18.7,0h18.7V340.6h-18.7Zm-18.69,0h18.69V340.6h-18.69Zm-18.69,0h18.69V340.6h-18.69Zm-18.69,0h18.69V340.6H1448.1Zm-18.69,0h18.69V340.6h-18.69Zm-18.69,0h18.69V340.6h-18.69Zm-18.7,0h18.7V340.6H1392Zm-18.69,0H1392V340.6h-18.69Zm-18.69,0h18.69V340.6h-18.69Zm-18.69,0h18.69V340.6H1336Zm-18.69,0H1336V340.6h-18.69Zm-18.69,0h18.69V340.6h-18.69Zm-18.69,0h18.69V340.6h-18.69Zm-18.7,0h18.7V340.6h-18.7Zm-18.69,0h18.69V340.6h-18.69Zm-18.69,0h18.69V340.6H1223.8Zm-18.69,0h18.69V340.6h-18.69Zm-18.69,0h18.69V340.6h-18.69Zm-37.39,0h18.7V340.6H1149Zm-18.69,0H1149V340.6h-18.69Zm-18.69,0h18.69V340.6h-18.69Zm-18.69,0h18.69V340.6H1093Zm-18.69,0H1093V340.6h-18.69Zm-37.39,0h18.7V340.6h-18.7Zm-18.69,0h18.69V340.6h-18.69Zm-18.69,0h18.69V340.6H999.5Zm-18.69,0H999.5V340.6H980.81Zm-18.69,0h18.69V340.6H962.12Zm-18.69,0h18.69V340.6H943.43Zm-18.7,0h18.7V340.6h-18.7Zm-18.69,0h18.69V340.6H906Zm-18.69,0H906V340.6H887.35Zm-18.69,0h18.69V340.6H868.66Zm-336.45,0H550.9V340.6H532.21Zm-18.69,0h18.69V340.6H513.52Zm-18.7,0h18.7V340.6h-18.7Zm-18.69,0h18.69V340.6H476.13Zm-18.69,0h18.69V340.6H457.44Zm-18.69,0h18.69V340.6H438.75Zm-18.69,0h18.69V340.6H420.06Zm-18.69,0h18.69V340.6H401.37Zm-18.69,0h18.69V340.6H382.68Zm-18.7,0h18.7V340.6H364Zm-18.69,0H364V340.6H345.29Zm-18.69,0h18.69V340.6H326.6Zm-18.69,0H326.6V340.6H307.91Zm-18.69,0h18.69V340.6H289.22Zm-18.7,0h18.7V340.6h-18.7Zm-18.69,0h18.69V340.6H251.83Zm-18.69,0h18.69V340.6H233.14Zm-18.69,0h18.69V340.6H214.45Zm-18.69,0h18.69V340.6H195.76Zm-18.69,0h18.69V340.6H177.07Zm1514-18.69h18.69V321.91h-18.69Zm-37.38,0h18.69V321.91h-18.69Zm-18.69,0h18.69V321.91H1635Zm-18.7,0H1635V321.91h-18.7Zm-18.69,0h18.69V321.91h-18.69Zm-18.69,0h18.69V321.91h-18.69Zm-18.69,0h18.69V321.91h-18.69Zm-18.69,0h18.69V321.91h-18.69Zm-18.69,0h18.69V321.91h-18.69Zm-18.7,0h18.7V321.91h-18.7Zm-18.69,0h18.69V321.91h-18.69Zm-18.69,0h18.69V321.91h-18.69Zm-18.69,0h18.69V321.91H1448.1Zm-18.69,0h18.69V321.91h-18.69Zm-18.69,0h18.69V321.91h-18.69Zm-18.7,0h18.7V321.91H1392Zm-18.69,0H1392V321.91h-18.69Zm-18.69,0h18.69V321.91h-18.69Zm-18.69,0h18.69V321.91H1336Zm-18.69,0H1336V321.91h-18.69Zm-18.69,0h18.69V321.91h-18.69Zm-18.69,0h18.69V321.91h-18.69Zm-18.7,0h18.7V321.91h-18.7Zm-18.69,0h18.69V321.91h-18.69Zm-18.69,0h18.69V321.91H1223.8Zm-18.69,0h18.69V321.91h-18.69Zm-18.69,0h18.69V321.91h-18.69Zm-18.69,0h18.69V321.91h-18.69Zm-18.7,0h18.7V321.91H1149Zm-18.69,0H1149V321.91h-18.69Zm-18.69,0h18.69V321.91h-18.69Zm-18.69,0h18.69V321.91H1093Zm-18.69,0H1093V321.91h-18.69Zm-18.69,0h18.69V321.91h-18.69Zm-18.7,0h18.7V321.91h-18.7Zm-18.69,0h18.69V321.91h-18.69Zm-18.69,0h18.69V321.91H999.5Zm-18.69,0H999.5V321.91H980.81Zm-18.69,0h18.69V321.91H962.12Zm-18.69,0h18.69V321.91H943.43Zm-18.7,0h18.7V321.91h-18.7Zm-18.69,0h18.69V321.91H906Zm-18.69,0H906V321.91H887.35Zm-18.69,0h18.69V321.91H868.66Zm-299.07,0h18.69V321.91H569.59Zm-18.69,0h18.69V321.91H550.9Zm-18.69,0H550.9V321.91H532.21Zm-18.69,0h18.69V321.91H513.52Zm-18.7,0h18.7V321.91h-18.7Zm-18.69,0h18.69V321.91H476.13Zm-18.69,0h18.69V321.91H457.44Zm-18.69,0h18.69V321.91H438.75Zm-18.69,0h18.69V321.91H420.06Zm-18.69,0h18.69V321.91H401.37Zm-18.69,0h18.69V321.91H382.68Zm-18.7,0h18.7V321.91H364Zm-18.69,0H364V321.91H345.29Zm-18.69,0h18.69V321.91H326.6Zm-18.69,0H326.6V321.91H307.91Zm-18.69,0h18.69V321.91H289.22Zm-18.7,0h18.7V321.91h-18.7Zm-18.69,0h18.69V321.91H251.83Zm-18.69,0h18.69V321.91H233.14Zm-18.69,0h18.69V321.91H214.45Zm-18.69,0h18.69V321.91H195.76Zm-18.69,0h18.69V321.91H177.07Zm1514-18.69h18.69V303.22h-18.69Zm-37.38,0h18.69V303.22h-18.69Zm-18.69,0h18.69V303.22H1635Zm-18.7,0H1635V303.22h-18.7Zm-18.69,0h18.69V303.22h-18.69Zm-18.69,0h18.69V303.22h-18.69Zm-18.69,0h18.69V303.22h-18.69Zm-18.69,0h18.69V303.22h-18.69Zm-18.69,0h18.69V303.22h-18.69Zm-18.7,0h18.7V303.22h-18.7Zm-18.69,0h18.69V303.22h-18.69Zm-18.69,0h18.69V303.22h-18.69Zm-18.69,0h18.69V303.22H1448.1Zm-18.69,0h18.69V303.22h-18.69Zm-18.69,0h18.69V303.22h-18.69Zm-18.7,0h18.7V303.22H1392Zm-18.69,0H1392V303.22h-18.69Zm-18.69,0h18.69V303.22h-18.69Zm-18.69,0h18.69V303.22H1336Zm-18.69,0H1336V303.22h-18.69Zm-18.69,0h18.69V303.22h-18.69Zm-18.69,0h18.69V303.22h-18.69Zm-18.7,0h18.7V303.22h-18.7Zm-18.69,0h18.69V303.22h-18.69Zm-18.69,0h18.69V303.22H1223.8Zm-18.69,0h18.69V303.22h-18.69Zm-18.69,0h18.69V303.22h-18.69Zm-18.69,0h18.69V303.22h-18.69Zm-18.7,0h18.7V303.22H1149Zm-18.69,0H1149V303.22h-18.69Zm-18.69,0h18.69V303.22h-18.69Zm-18.69,0h18.69V303.22H1093Zm-18.69,0H1093V303.22h-18.69Zm-18.69,0h18.69V303.22h-18.69Zm-18.7,0h18.7V303.22h-18.7Zm-18.69,0h18.69V303.22h-18.69Zm-18.69,0h18.69V303.22H999.5Zm-18.69,0H999.5V303.22H980.81Zm-18.69,0h18.69V303.22H962.12Zm-18.69,0h18.69V303.22H943.43Zm-18.7,0h18.7V303.22h-18.7Zm-18.69,0h18.69V303.22H906Zm-18.69,0H906V303.22H887.35Zm-18.69,0h18.69V303.22H868.66Zm-299.07,0h18.69V303.22H569.59Zm-18.69,0h18.69V303.22H550.9Zm-18.69,0H550.9V303.22H532.21Zm-18.69,0h18.69V303.22H513.52Zm-18.7,0h18.7V303.22h-18.7Zm-18.69,0h18.69V303.22H476.13Zm-18.69,0h18.69V303.22H457.44Zm-18.69,0h18.69V303.22H438.75Zm-18.69,0h18.69V303.22H420.06Zm-18.69,0h18.69V303.22H401.37Zm-18.69,0h18.69V303.22H382.68Zm-18.7,0h18.7V303.22H364Zm-18.69,0H364V303.22H345.29Zm-18.69,0h18.69V303.22H326.6Zm-18.69,0H326.6V303.22H307.91Zm-18.69,0h18.69V303.22H289.22Zm-18.7,0h18.7V303.22h-18.7Zm-18.69,0h18.69V303.22H251.83Zm-18.69,0h18.69V303.22H233.14Zm-18.69,0h18.69V303.22H214.45Zm-18.69,0h18.69V303.22H195.76Zm-18.69,0h18.69V303.22H177.07ZM1672.4,303.22h18.69V284.53H1672.4Zm-18.69,0h18.69V284.53h-18.69Zm-18.69,0h18.69V284.53H1635Zm-18.7,0H1635V284.53h-18.7Zm-18.69,0h18.69V284.53h-18.69Zm-18.69,0h18.69V284.53h-18.69Zm-18.69,0h18.69V284.53h-18.69Zm-18.69,0h18.69V284.53h-18.69Zm-18.69,0h18.69V284.53h-18.69Zm-18.7,0h18.7V284.53h-18.7Zm-18.69,0h18.69V284.53h-18.69Zm-18.69,0h18.69V284.53h-18.69Zm-18.69,0h18.69V284.53H1448.1Zm-18.69,0h18.69V284.53h-18.69Zm-18.69,0h18.69V284.53h-18.69Zm-18.7,0h18.7V284.53H1392Zm-18.69,0H1392V284.53h-18.69Zm-18.69,0h18.69V284.53h-18.69Zm-18.69,0h18.69V284.53H1336Zm-18.69,0H1336V284.53h-18.69Zm-18.69,0h18.69V284.53h-18.69Zm-18.69,0h18.69V284.53h-18.69Zm-18.7,0h18.7V284.53h-18.7Zm-18.69,0h18.69V284.53h-18.69Zm-18.69,0h18.69V284.53H1223.8Zm-18.69,0h18.69V284.53h-18.69Zm-18.69,0h18.69V284.53h-18.69Zm-18.69,0h18.69V284.53h-18.69Zm-18.7,0h18.7V284.53H1149Zm-18.69,0H1149V284.53h-18.69Zm-18.69,0h18.69V284.53h-18.69Zm-18.69,0h18.69V284.53H1093Zm-18.69,0H1093V284.53h-18.69Zm-18.69,0h18.69V284.53h-18.69Zm-18.7,0h18.7V284.53h-18.7Zm-18.69,0h18.69V284.53h-18.69Zm-18.69,0h18.69V284.53H999.5Zm-18.69,0H999.5V284.53H980.81Zm-18.69,0h18.69V284.53H962.12Zm-18.69,0h18.69V284.53H943.43Zm-18.7,0h18.7V284.53h-18.7Zm-18.69,0h18.69V284.53H906Zm-18.69,0H906V284.53H887.35Zm-18.69,0h18.69V284.53H868.66Zm-18.69,0h18.69V284.53H850Zm-18.69,0H850V284.53H831.28Zm-261.69,0h18.69V284.53H569.59Zm-18.69,0h18.69V284.53H550.9Zm-18.69,0H550.9V284.53H532.21Zm-18.69,0h18.69V284.53H513.52Zm-18.7,0h18.7V284.53h-18.7Zm-18.69,0h18.69V284.53H476.13Zm-18.69,0h18.69V284.53H457.44Zm-18.69,0h18.69V284.53H438.75Zm-18.69,0h18.69V284.53H420.06Zm-18.69,0h18.69V284.53H401.37Zm-18.69,0h18.69V284.53H382.68Zm-18.7,0h18.7V284.53H364Zm-18.69,0H364V284.53H345.29Zm-18.69,0h18.69V284.53H326.6Zm-18.69,0H326.6V284.53H307.91Zm-18.69,0h18.69V284.53H289.22Zm-18.7,0h18.7V284.53h-18.7Zm-18.69,0h18.69V284.53H251.83Zm-18.69,0h18.69V284.53H233.14Zm-18.69,0h18.69V284.53H214.45Zm-18.69,0h18.69V284.53H195.76Zm-18.69,0h18.69V284.53H177.07Zm-18.69,0h18.69V284.53H158.38Zm-130.85,0h18.7V284.53H27.53Zm1719.64-18.69h18.69V265.84h-18.69Zm-18.7,0h18.7V265.84h-18.7Zm-74.76,0h18.69V265.84h-18.69Zm-18.69,0h18.69V265.84H1635Zm-18.7,0H1635V265.84h-18.7Zm-18.69,0h18.69V265.84h-18.69Zm-18.69,0h18.69V265.84h-18.69Zm-18.69,0h18.69V265.84h-18.69Zm-18.69,0h18.69V265.84h-18.69Zm-18.69,0h18.69V265.84h-18.69Zm-18.7,0h18.7V265.84h-18.7Zm-18.69,0h18.69V265.84h-18.69Zm-18.69,0h18.69V265.84h-18.69Zm-18.69,0h18.69V265.84H1448.1Zm-18.69,0h18.69V265.84h-18.69Zm-18.69,0h18.69V265.84h-18.69Zm-18.7,0h18.7V265.84H1392Zm-18.69,0H1392V265.84h-18.69Zm-18.69,0h18.69V265.84h-18.69Zm-18.69,0h18.69V265.84H1336Zm-18.69,0H1336V265.84h-18.69Zm-18.69,0h18.69V265.84h-18.69Zm-18.69,0h18.69V265.84h-18.69Zm-18.7,0h18.7V265.84h-18.7Zm-18.69,0h18.69V265.84h-18.69Zm-18.69,0h18.69V265.84H1223.8Zm-18.69,0h18.69V265.84h-18.69Zm-18.69,0h18.69V265.84h-18.69Zm-18.69,0h18.69V265.84h-18.69Zm-18.7,0h18.7V265.84H1149Zm-18.69,0H1149V265.84h-18.69Zm-18.69,0h18.69V265.84h-18.69Zm-18.69,0h18.69V265.84H1093Zm-18.69,0H1093V265.84h-18.69Zm-18.69,0h18.69V265.84h-18.69Zm-18.7,0h18.7V265.84h-18.7Zm-18.69,0h18.69V265.84h-18.69Zm-18.69,0h18.69V265.84H999.5Zm-37.38,0h18.69V265.84H962.12Zm-18.69,0h18.69V265.84H943.43Zm-18.7,0h18.7V265.84h-18.7Zm-56.07,0h18.69V265.84H868.66Zm-18.69,0h18.69V265.84H850Zm-299.07,0h18.69V265.84H550.9Zm-18.69,0H550.9V265.84H532.21Zm-18.69,0h18.69V265.84H513.52Zm-18.7,0h18.7V265.84h-18.7Zm-18.69,0h18.69V265.84H476.13Zm-74.76,0h18.69V265.84H401.37Zm-18.69,0h18.69V265.84H382.68Zm-18.7,0h18.7V265.84H364Zm-18.69,0H364V265.84H345.29Zm-18.69,0h18.69V265.84H326.6Zm-18.69,0H326.6V265.84H307.91Zm-18.69,0h18.69V265.84H289.22Zm-18.7,0h18.7V265.84h-18.7Zm-18.69,0h18.69V265.84H251.83Zm-18.69,0h18.69V265.84H233.14Zm-18.69,0h18.69V265.84H214.45Zm-18.69,0h18.69V265.84H195.76Zm-18.69,0h18.69V265.84H177.07Zm-93.46,0H102.3V265.84H83.61Zm-18.69,0H83.61V265.84H64.92Zm-18.69,0H64.92V265.84H46.23Zm1700.94-18.69h18.69V247.16h-18.69Zm-18.7,0h18.7V247.16h-18.7Zm-18.69,0h18.69V247.16h-18.69Zm-93.46,0H1635V247.16h-18.7Zm-18.69,0h18.69V247.16h-18.69Zm-18.69,0h18.69V247.16h-18.69Zm-18.69,0h18.69V247.16h-18.69Zm-18.69,0h18.69V247.16h-18.69Zm-18.69,0h18.69V247.16h-18.69Zm-18.7,0h18.7V247.16h-18.7Zm-18.69,0h18.69V247.16h-18.69Zm-18.69,0h18.69V247.16h-18.69Zm-18.69,0h18.69V247.16H1448.1Zm-18.69,0h18.69V247.16h-18.69Zm-18.69,0h18.69V247.16h-18.69Zm-18.7,0h18.7V247.16H1392Zm-18.69,0H1392V247.16h-18.69Zm-18.69,0h18.69V247.16h-18.69Zm-18.69,0h18.69V247.16H1336Zm-18.69,0H1336V247.16h-18.69Zm-18.69,0h18.69V247.16h-18.69Zm-18.69,0h18.69V247.16h-18.69Zm-18.7,0h18.7V247.16h-18.7Zm-18.69,0h18.69V247.16h-18.69Zm-18.69,0h18.69V247.16H1223.8Zm-18.69,0h18.69V247.16h-18.69Zm-18.69,0h18.69V247.16h-18.69Zm-18.69,0h18.69V247.16h-18.69Zm-18.7,0h18.7V247.16H1149Zm-18.69,0H1149V247.16h-18.69Zm-18.69,0h18.69V247.16h-18.69Zm-18.69,0h18.69V247.16H1093Zm-18.69,0H1093V247.16h-18.69Zm-18.69,0h18.69V247.16h-18.69Zm-18.7,0h18.7V247.16h-18.7Zm-18.69,0h18.69V247.16h-18.69Zm-37.38,0H999.5V247.16H980.81Zm-18.69,0h18.69V247.16H962.12Zm-18.69,0h18.69V247.16H943.43Zm-18.7,0h18.7V247.16h-18.7Zm-261.68,0h18.69V247.16H663.05Zm-112.15,0h18.69V247.16H550.9Zm-37.38,0h18.69V247.16H513.52Zm-18.7,0h18.7V247.16h-18.7Zm-93.45,0h18.69V247.16H401.37Zm-18.69,0h18.69V247.16H382.68Zm-18.7,0h18.7V247.16H364Zm-18.69,0H364V247.16H345.29Zm-18.69,0h18.69V247.16H326.6Zm-18.69,0H326.6V247.16H307.91Zm-18.69,0h18.69V247.16H289.22Zm-18.7,0h18.7V247.16h-18.7Zm-18.69,0h18.69V247.16H251.83Zm-18.69,0h18.69V247.16H233.14Zm-18.69,0h18.69V247.16H214.45Zm-18.69,0h18.69V247.16H195.76Zm-18.69,0h18.69V247.16H177.07Zm-18.69,0h18.69V247.16H158.38Zm-18.7,0h18.7V247.16h-18.7Zm-18.69,0h18.69V247.16H121Zm-18.69,0H121V247.16H102.3Zm-18.69,0H102.3V247.16H83.61Zm-18.69,0H83.61V247.16H64.92Zm-18.69,0H64.92V247.16H46.23Zm1682.24-18.68h18.7V228.47h-18.7Zm-18.69,0h18.69V228.47h-18.69Zm-37.38,0h18.69V228.47H1672.4Zm-18.69,0h18.69V228.47h-18.69Zm-18.69,0h18.69V228.47H1635Zm-18.7,0H1635V228.47h-18.7Zm-18.69,0h18.69V228.47h-18.69Zm-18.69,0h18.69V228.47h-18.69Zm-18.69,0h18.69V228.47h-18.69Zm-18.69,0h18.69V228.47h-18.69Zm-18.69,0h18.69V228.47h-18.69Zm-18.7,0h18.7V228.47h-18.7Zm-18.69,0h18.69V228.47h-18.69Zm-18.69,0h18.69V228.47h-18.69Zm-18.69,0h18.69V228.47H1448.1Zm-18.69,0h18.69V228.47h-18.69Zm-18.69,0h18.69V228.47h-18.69Zm-18.7,0h18.7V228.47H1392Zm-18.69,0H1392V228.47h-18.69Zm-18.69,0h18.69V228.47h-18.69Zm-18.69,0h18.69V228.47H1336Zm-18.69,0H1336V228.47h-18.69Zm-18.69,0h18.69V228.47h-18.69Zm-18.69,0h18.69V228.47h-18.69Zm-18.7,0h18.7V228.47h-18.7Zm-18.69,0h18.69V228.47h-18.69Zm-18.69,0h18.69V228.47H1223.8Zm-18.69,0h18.69V228.47h-18.69Zm-18.69,0h18.69V228.47h-18.69Zm-18.69,0h18.69V228.47h-18.69Zm-18.7,0h18.7V228.47H1149Zm-18.69,0H1149V228.47h-18.69Zm-18.69,0h18.69V228.47h-18.69Zm-18.69,0h18.69V228.47H1093Zm-18.69,0H1093V228.47h-18.69Zm-18.69,0h18.69V228.47h-18.69Zm-18.7,0h18.7V228.47h-18.7Zm-18.69,0h18.69V228.47h-18.69Zm-18.69,0h18.69V228.47H999.5Zm-18.69,0H999.5V228.47H980.81Zm-18.69,0h18.69V228.47H962.12Zm-18.69,0h18.69V228.47H943.43Zm-18.7,0h18.7V228.47h-18.7Zm-261.68,0h18.69V228.47H663.05Zm-18.69,0h18.69V228.47H644.36Zm-93.46,0h18.69V228.47H550.9Zm-18.69,0H550.9V228.47H532.21Zm-18.69,0h18.69V228.47H513.52Zm-18.7,0h18.7V228.47h-18.7Zm-74.76,0h18.69V228.47H420.06Zm-18.69,0h18.69V228.47H401.37Zm-18.69,0h18.69V228.47H382.68Zm-18.7,0h18.7V228.47H364Zm-18.69,0H364V228.47H345.29Zm-18.69,0h18.69V228.47H326.6Zm-18.69,0H326.6V228.47H307.91Zm-18.69,0h18.69V228.47H289.22Zm-18.7,0h18.7V228.47h-18.7Zm-18.69,0h18.69V228.47H251.83Zm-18.69,0h18.69V228.47H233.14Zm-18.69,0h18.69V228.47H214.45Zm-18.69,0h18.69V228.47H195.76Zm-18.69,0h18.69V228.47H177.07Zm-18.69,0h18.69V228.47H158.38Zm-18.7,0h18.7V228.47h-18.7Zm-18.69,0h18.69V228.47H121Zm-18.69,0H121V228.47H102.3Zm-18.69,0H102.3V228.47H83.61Zm-18.69,0H83.61V228.47H64.92Zm1700.94-18.69h18.69V209.78h-18.69Zm-18.69,0h18.69V209.78h-18.69Zm-18.7,0h18.7V209.78h-18.7Zm-18.69,0h18.69V209.78h-18.69Zm-18.69,0h18.69V209.78h-18.69Zm-18.69,0h18.69V209.78H1672.4Zm-18.69,0h18.69V209.78h-18.69Zm-18.69,0h18.69V209.78H1635Zm-18.7,0H1635V209.78h-18.7Zm-18.69,0h18.69V209.78h-18.69Zm-18.69,0h18.69V209.78h-18.69Zm-18.69,0h18.69V209.78h-18.69Zm-18.69,0h18.69V209.78h-18.69Zm-18.69,0h18.69V209.78h-18.69Zm-18.7,0h18.7V209.78h-18.7Zm-18.69,0h18.69V209.78h-18.69Zm-18.69,0h18.69V209.78h-18.69Zm-18.69,0h18.69V209.78H1448.1Zm-18.69,0h18.69V209.78h-18.69Zm-18.69,0h18.69V209.78h-18.69Zm-18.7,0h18.7V209.78H1392Zm-18.69,0H1392V209.78h-18.69Zm-18.69,0h18.69V209.78h-18.69Zm-18.69,0h18.69V209.78H1336Zm-18.69,0H1336V209.78h-18.69Zm-18.69,0h18.69V209.78h-18.69Zm-18.69,0h18.69V209.78h-18.69Zm-18.7,0h18.7V209.78h-18.7Zm-18.69,0h18.69V209.78h-18.69Zm-18.69,0h18.69V209.78H1223.8Zm-18.69,0h18.69V209.78h-18.69Zm-18.69,0h18.69V209.78h-18.69Zm-18.69,0h18.69V209.78h-18.69Zm-18.7,0h18.7V209.78H1149Zm-18.69,0H1149V209.78h-18.69Zm-18.69,0h18.69V209.78h-18.69Zm-18.69,0h18.69V209.78H1093Zm-18.69,0H1093V209.78h-18.69Zm-18.69,0h18.69V209.78h-18.69Zm-18.7,0h18.7V209.78h-18.7Zm-18.69,0h18.69V209.78h-18.69Zm-18.69,0h18.69V209.78H999.5Zm-18.69,0H999.5V209.78H980.81Zm-18.69,0h18.69V209.78H962.12Zm-18.69,0h18.69V209.78H943.43Zm-130.85,0h18.7V209.78h-18.7Zm-18.69,0h18.69V209.78H793.89Zm-18.69,0h18.69V209.78H775.2Zm-93.46,0h18.69V209.78H681.74Zm-18.69,0h18.69V209.78H663.05Zm-18.69,0h18.69V209.78H644.36Zm-18.69,0h18.69V209.78H625.67Zm-37.39,0H607V209.78h-18.7Zm-18.69,0h18.69V209.78H569.59Zm-18.69,0h18.69V209.78H550.9Zm-18.69,0H550.9V209.78H532.21Zm-18.69,0h18.69V209.78H513.52Zm-37.39,0h18.69V209.78H476.13Zm-18.69,0h18.69V209.78H457.44Zm-18.69,0h18.69V209.78H438.75Zm-18.69,0h18.69V209.78H420.06Zm-18.69,0h18.69V209.78H401.37Zm-18.69,0h18.69V209.78H382.68Zm-18.7,0h18.7V209.78H364Zm-18.69,0H364V209.78H345.29Zm-18.69,0h18.69V209.78H326.6Zm-18.69,0H326.6V209.78H307.91Zm-18.69,0h18.69V209.78H289.22Zm-18.7,0h18.7V209.78h-18.7Zm-18.69,0h18.69V209.78H251.83Zm-18.69,0h18.69V209.78H233.14Zm-18.69,0h18.69V209.78H214.45Zm-18.69,0h18.69V209.78H195.76Zm-18.69,0h18.69V209.78H177.07Zm-18.69,0h18.69V209.78H158.38Zm-18.7,0h18.7V209.78h-18.7Zm-18.69,0h18.69V209.78H121Zm-18.69,0H121V209.78H102.3Zm-18.69,0H102.3V209.78H83.61Zm1700.94-18.69h18.69V191.09h-18.69Zm-18.69,0h18.69V191.09h-18.69Zm-18.69,0h18.69V191.09h-18.69Zm-18.7,0h18.7V191.09h-18.7Zm-18.69,0h18.69V191.09h-18.69Zm-18.69,0h18.69V191.09h-18.69Zm-18.69,0h18.69V191.09H1672.4Zm-18.69,0h18.69V191.09h-18.69Zm-18.69,0h18.69V191.09H1635Zm-18.7,0H1635V191.09h-18.7Zm-18.69,0h18.69V191.09h-18.69Zm-18.69,0h18.69V191.09h-18.69Zm-18.69,0h18.69V191.09h-18.69Zm-18.69,0h18.69V191.09h-18.69Zm-18.69,0h18.69V191.09h-18.69Zm-18.7,0h18.7V191.09h-18.7Zm-18.69,0h18.69V191.09h-18.69Zm-18.69,0h18.69V191.09h-18.69Zm-18.69,0h18.69V191.09H1448.1Zm-18.69,0h18.69V191.09h-18.69Zm-18.69,0h18.69V191.09h-18.69Zm-18.7,0h18.7V191.09H1392Zm-18.69,0H1392V191.09h-18.69Zm-18.69,0h18.69V191.09h-18.69Zm-18.69,0h18.69V191.09H1336Zm-18.69,0H1336V191.09h-18.69Zm-18.69,0h18.69V191.09h-18.69Zm-18.69,0h18.69V191.09h-18.69Zm-18.7,0h18.7V191.09h-18.7Zm-18.69,0h18.69V191.09h-18.69Zm-18.69,0h18.69V191.09H1223.8Zm-18.69,0h18.69V191.09h-18.69Zm-18.69,0h18.69V191.09h-18.69Zm-18.69,0h18.69V191.09h-18.69Zm-18.7,0h18.7V191.09H1149Zm-18.69,0H1149V191.09h-18.69Zm-18.69,0h18.69V191.09h-18.69Zm-18.69,0h18.69V191.09H1093Zm-18.69,0H1093V191.09h-18.69Zm-18.69,0h18.69V191.09h-18.69Zm-18.7,0h18.7V191.09h-18.7Zm-18.69,0h18.69V191.09h-18.69Zm-18.69,0h18.69V191.09H999.5Zm-18.69,0H999.5V191.09H980.81Zm-18.69,0h18.69V191.09H962.12Zm-18.69,0h18.69V191.09H943.43Zm-186.92,0H775.2V191.09H756.51Zm-18.69,0h18.69V191.09H737.82Zm-18.69,0h18.69V191.09H719.13Zm-18.7,0h18.7V191.09h-18.7Zm-18.69,0h18.69V191.09H681.74Zm-18.69,0h18.69V191.09H663.05Zm-18.69,0h18.69V191.09H644.36Zm-74.77,0h18.69V191.09H569.59Zm-18.69,0h18.69V191.09H550.9Zm-18.69,0H550.9V191.09H532.21Zm-37.39,0h18.7V191.09h-18.7Zm-18.69,0h18.69V191.09H476.13Zm-18.69,0h18.69V191.09H457.44Zm-18.69,0h18.69V191.09H438.75Zm-18.69,0h18.69V191.09H420.06Zm-18.69,0h18.69V191.09H401.37Zm-18.69,0h18.69V191.09H382.68Zm-18.7,0h18.7V191.09H364Zm-18.69,0H364V191.09H345.29Zm-18.69,0h18.69V191.09H326.6Zm-18.69,0H326.6V191.09H307.91Zm-18.69,0h18.69V191.09H289.22Zm-18.7,0h18.7V191.09h-18.7Zm-18.69,0h18.69V191.09H251.83Zm-18.69,0h18.69V191.09H233.14Zm-18.69,0h18.69V191.09H214.45Zm-18.69,0h18.69V191.09H195.76Zm-18.69,0h18.69V191.09H177.07Zm-18.69,0h18.69V191.09H158.38Zm-18.7,0h18.7V191.09h-18.7Zm-18.69,0h18.69V191.09H121Zm1644.87-18.69h18.69V172.4h-18.69Zm-18.69,0h18.69V172.4h-18.69Zm-18.7,0h18.7V172.4h-18.7Zm-18.69,0h18.69V172.4h-18.69Zm-18.69,0h18.69V172.4h-18.69Zm-18.69,0h18.69V172.4H1672.4Zm-18.69,0h18.69V172.4h-18.69Zm-18.69,0h18.69V172.4H1635Zm-18.7,0H1635V172.4h-18.7Zm-18.69,0h18.69V172.4h-18.69Zm-18.69,0h18.69V172.4h-18.69Zm-18.69,0h18.69V172.4h-18.69Zm-18.69,0h18.69V172.4h-18.69Zm-18.69,0h18.69V172.4h-18.69Zm-18.7,0h18.7V172.4h-18.7Zm-18.69,0h18.69V172.4h-18.69Zm-18.69,0h18.69V172.4h-18.69Zm-18.69,0h18.69V172.4H1448.1Zm-18.69,0h18.69V172.4h-18.69Zm-18.69,0h18.69V172.4h-18.69Zm-18.7,0h18.7V172.4H1392Zm-18.69,0H1392V172.4h-18.69Zm-18.69,0h18.69V172.4h-18.69Zm-18.69,0h18.69V172.4H1336Zm-18.69,0H1336V172.4h-18.69Zm-18.69,0h18.69V172.4h-18.69Zm-18.69,0h18.69V172.4h-18.69Zm-18.7,0h18.7V172.4h-18.7Zm-18.69,0h18.69V172.4h-18.69Zm-18.69,0h18.69V172.4H1223.8Zm-18.69,0h18.69V172.4h-18.69Zm-37.38,0h18.69V172.4h-18.69Zm-18.7,0h18.7V172.4H1149Zm-37.38,0h18.69V172.4h-18.69Zm-74.77,0h18.7V172.4h-18.7Zm-18.69,0h18.69V172.4h-18.69Zm-18.69,0h18.69V172.4H999.5Zm-18.69,0H999.5V172.4H980.81Zm-186.92,0h18.69V172.4H793.89Zm-18.69,0h18.69V172.4H775.2Zm-18.69,0H775.2V172.4H756.51Zm-18.69,0h18.69V172.4H737.82Zm-18.69,0h18.69V172.4H719.13Zm-18.7,0h18.7V172.4h-18.7Zm-18.69,0h18.69V172.4H681.74Zm-18.69,0h18.69V172.4H663.05Zm-18.69,0h18.69V172.4H644.36Zm-93.46,0h18.69V172.4H550.9Zm-18.69,0H550.9V172.4H532.21Zm-18.69,0h18.69V172.4H513.52Zm-18.7,0h18.7V172.4h-18.7Zm-18.69,0h18.69V172.4H476.13Zm-18.69,0h18.69V172.4H457.44Zm-18.69,0h18.69V172.4H438.75Zm-18.69,0h18.69V172.4H420.06Zm-18.69,0h18.69V172.4H401.37Zm-18.69,0h18.69V172.4H382.68Zm-18.7,0h18.7V172.4H364Zm-18.69,0H364V172.4H345.29Zm-18.69,0h18.69V172.4H326.6ZM1616.32,172.4H1635V153.71h-18.7Zm-18.69,0h18.69V153.71h-18.69Zm-18.69,0h18.69V153.71h-18.69Zm-18.69,0h18.69V153.71h-18.69Zm-18.69,0h18.69V153.71h-18.69Zm-18.69,0h18.69V153.71h-18.69Zm-18.7,0h18.7V153.71h-18.7Zm-18.69,0h18.69V153.71h-18.69Zm-18.69,0h18.69V153.71h-18.69Zm-18.69,0h18.69V153.71H1448.1Zm-18.69,0h18.69V153.71h-18.69Zm-18.69,0h18.69V153.71h-18.69Zm-18.7,0h18.7V153.71H1392Zm-18.69,0H1392V153.71h-18.69Zm-18.69,0h18.69V153.71h-18.69Zm-18.69,0h18.69V153.71H1336Zm-18.69,0H1336V153.71h-18.69Zm-18.69,0h18.69V153.71h-18.69Zm-18.69,0h18.69V153.71h-18.69Zm-18.7,0h18.7V153.71h-18.7Zm-18.69,0h18.69V153.71h-18.69Zm-18.69,0h18.69V153.71H1223.8Zm-18.69,0h18.69V153.71h-18.69Zm-74.77,0H1149V153.71h-18.69Zm-336.45,0h18.69V153.71H793.89Zm-18.69,0h18.69V153.71H775.2Zm-18.69,0H775.2V153.71H756.51Zm-18.69,0h18.69V153.71H737.82Zm-18.69,0h18.69V153.71H719.13Zm-18.7,0h18.7V153.71h-18.7Zm-18.69,0h18.69V153.71H681.74Zm-18.69,0h18.69V153.71H663.05Zm-18.69,0h18.69V153.71H644.36Zm-112.15,0H550.9V153.71H532.21Zm-18.69,0h18.69V153.71H513.52Zm-18.7,0h18.7V153.71h-18.7Zm-18.69,0h18.69V153.71H476.13Zm-18.69,0h18.69V153.71H457.44Zm-18.69,0h18.69V153.71H438.75Zm-18.69,0h18.69V153.71H420.06Zm-18.69,0h18.69V153.71H401.37Zm-18.69,0h18.69V153.71H382.68Zm-18.7,0h18.7V153.71H364Zm-18.69,0H364V153.71H345.29Zm1028-18.69H1392V135h-18.69Zm-18.69,0h18.69V135h-18.69Zm-18.69,0h18.69V135H1336Zm-18.69,0H1336V135h-18.69Zm-18.69,0h18.69V135h-18.69Zm-18.69,0h18.69V135h-18.69Zm-93.46,0h18.69V135h-18.69Zm-18.69,0h18.69V135h-18.69Zm-18.7,0h18.7V135H1149Zm-18.69,0H1149V135h-18.69Zm-168.22,0h18.69V135H962.12Zm-149.54,0h18.7V135h-18.7Zm-18.69,0h18.69V135H793.89Zm-18.69,0h18.69V135H775.2Zm-18.69,0H775.2V135H756.51Zm-18.69,0h18.69V135H737.82Zm-18.69,0h18.69V135H719.13Zm-18.7,0h18.7V135h-18.7Zm-18.69,0h18.69V135H681.74Zm-18.69,0h18.69V135H663.05Zm-18.69,0h18.69V135H644.36Zm-18.69,0h18.69V135H625.67Zm-18.69,0h18.69V135H607Zm-37.39,0h18.69V135H569.59Zm-18.69,0h18.69V135H550.9Zm-18.69,0H550.9V135H532.21Zm-37.39,0h18.7V135h-18.7Zm-18.69,0h18.69V135H476.13ZM1317.26,135H1336V116.33h-18.69Zm-18.69,0h18.69V116.33h-18.69Zm-18.69,0h18.69V116.33h-18.69Zm-18.7,0h18.7V116.33h-18.7ZM999.5,135h18.69V116.33H999.5Zm-18.69,0H999.5V116.33H980.81Zm-18.69,0h18.69V116.33H962.12Zm-18.69,0h18.69V116.33H943.43Zm-112.15,0H850V116.33H831.28Zm-18.7,0h18.7V116.33h-18.7Zm-18.69,0h18.69V116.33H793.89Zm-18.69,0h18.69V116.33H775.2Zm-18.69,0H775.2V116.33H756.51Zm-18.69,0h18.69V116.33H737.82Zm-18.69,0h18.69V116.33H719.13Zm-18.7,0h18.7V116.33h-18.7Zm-18.69,0h18.69V116.33H681.74Zm-18.69,0h18.69V116.33H663.05Zm-18.69,0h18.69V116.33H644.36Zm-18.69,0h18.69V116.33H625.67ZM607,135h18.69V116.33H607Zm-18.7,0H607V116.33h-18.7Zm-18.69,0h18.69V116.33H569.59Zm-18.69,0h18.69V116.33H550.9Zm224.3-18.69h18.69V97.64H775.2Z" transform="translate(-27.53 -97.64)"/></svg>