<svg id="Слой_1" data-name="Слой 1" xmlns="http://www.w3.org/2000/svg" viewBox="0 0 1964 1010.6"><defs><style>.cls-1{fill:#555;}</style></defs><path class="cls-1" d="M503.5,1098.2v-18.7H466.1v-74.8H447.4V836.5H428.8V817.8H391.4V780.5H372.7V743.1H354V667h18.7V649.6H335.3V630.9H316.6V612.3H297.9V593.6H260.5V574.9H223.1V556.2H204.4V537.5H185.8V518.8H167.1V481.4H148.4v-56H129.7V386.7h18.7V349.3h18.7V313.2H148.4V275.9H112.3v18.6H56.2v18.7H17.5V274.5H36.2V237.2H54.9V218.5H73.6V199.8H111V181.1H316.6V162.4h18.7V143.7H466.1V125h74.8V106.3H765.2V87.6h38.7v18.7H860V145H841.3v18.7H822.6v36.1h18.7v38.7H765.2V219.8H710.4v18.7H691.7v37.4H653V257.2H634.4V238.5H579.6v36h18.7v76.1H560.9v18.7H504.8V388H486.1v18.7H467.5v18.7H448.8v18.7H411.4v73.4h18.7v18.7h37.4v38.7H448.8v17.3h56v18.7h37.4v18.7h18.7v18.7h18.7V667H617v18.7h56.1v37.4h18.6v38.7H673.1v18.7H654.4v74.7H635.7v18.7H598.3v74.8H560.9V986H542.2v73.5h18.7v38.7ZM391.4,610.9V592.2h18.7v-36H374v54.7Zm-18.7-56V537.5H355.3v17.4Zm-74.8-18.7V518.8H280.5v17.4ZM354,517.5V498.8h18.7V481.4H336.6v18.7H299.2v17.4H354Zm112.1-243V255.8h18.7V238.5h-36v18.7H430.1v17.3Zm168.3-74.7V163.7H579.6v17.4h18.7v18.7h36.1Zm1214.9,823.6V966H1868V947.3h56.1v-56h38.7v37.3h18.7v38.7h-56.1v37.4H1888v18.7ZM1737.2,986V948.7h-18.7V930h-18.7V911.3h-36.1V930h-76.1V816.5h18.7V797.8h37.4V760.4h18.7v-36h-18.7V705.7h-17.4v37.4h-57.4V724.4h-18.6V705.7h-37.4V668.3h-18.7V574.9h-18.7V556.2h-18.7V537.5h-17.4v18.7h-18.7v18.7H1402v17.3h18.7v38.7h-57.4V593.6h-18.7V556.2h-18.7V537.5h-18.6V500.1h-36.1v56.1h-18.7v18.7h-18.7v37.4h-18.7v56h-18.7V687h-18.7v18.7H1159v73.4h17.4V741.8h38.7V855.2h-18.7v18.7H1139V836.5h-17.3v56.1H1103v18.7h-18.7V930h-18.7v18.7H989.5V892.6H970.8V836.5H952.1V760.4h18.7V743.1H952.1V724.4H933.4V668.3H914.7V649.6H897.4v18.7H821.3V649.6H783.9V612.3H765.2V480.1h18.7V461.4h18.7V442.7h18.7V349.3h37.4V313.2H821.3V274.5H840V255.8h57.4v18.7h17.3v-56h18.7V181.1h37.4V163.7H952.1V145H933.4V106.3h94.8V145H990.8v17.4h74.8v18.7h36.1V162.4h18.6V125h94.8v18.7h36.1V106.3H1346V125h56v18.7h243v18.7h149.6v18.7h18.7v38.7h-18.7v18.7h-18.7v56h-56.1v36.1h18.7v56.1h18.7v38.7h-37.4v18.7h-56.1v73.4h18.7v37.4h18.7v37.3h18.7v38.7h-56.1v17.4h18.7v74.8h18.7v18.7h17.4V723.1h37.4V705.7h-37.4V648.3h38.7V667h74.7v18.7h37.4v76.1h-37.4v36h18.7v18.7h18.7v57.4h-18.7v37.4h-18.7V930h-18.6v18.7h-18.7V986Zm93.4-225.6V743.1h-17.3v17.3ZM1606.3,629.6v-36H1589v18.7h-37.4v17.3h54.7Zm18.7-37.4V573.6h18.7V518.8h-36.1v18.7H1589v17.4h18.6v37.3ZM1045.6,424V406.7H990.8V424h54.8Zm654.2-37.3V350.6h-17.4v18.7h-18.7v17.4h36.1Zm18.7-93.5V275.9h-17.4v17.3Zm-18.7-18.7V257.2h-17.4v17.3Z" transform="translate(-17.5 -87.6)"/><path class="cls-1" d="M487.4,964.7V796.5H468.8V777.8H431.4V740.5H412.7V650.9h18.7V632.2h33.4v18.7h37.4v18.7h18.7v18.7h18.7V707H577v18.7h56.1v14.8H614.4v74.7H595.7v18.7H558.3v74.8H520.9V946H502.2v18.7Zm1271.1-56V890h-18.7V871.3H1627.6V856.5h18.7V837.8h37.4V800.4h18.7V781.8h56.1V763.1h14.8v37.3h18.6v37.4h18.7v33.5h-18.7V890h-18.6v18.7Zm-729-18.7V852.6h-18.7V703.1H992.1V684.4H973.4V628.3H954.7V609.6H823.9V572.3H805.2V520.1h18.7V501.4h18.7V482.7h18.7V389.3h37.4V314.5h56v-56h18.7V221.1h37.4V202.4h14.8v18.7h116.1V202.4h18.6V165h14.8v18.7h116.1V146.3H1306V165h56v18.7h243v18.7h130.9v14.8h-93.5V329.3h-18.7V478.8h-56.1v18.7H1549v74.8h-14.8V534.9h-18.7V516.2h-18.7V497.5h-97.4v18.7h-33.5V497.5h-18.6V460.1H1231.2v56.1h-18.7v18.7h-18.7v37.4h-18.7v56h-18.7V647h-18.7v18.7H1119V796.5h-37.3v56.1H1063v18.7h-18.7V890ZM950.8,464h134.8V366.7H950.8Zm-725,33.5V478.8H207.1V441.4H188.4V389.3h18.7V273.2H188.4V235.9H151V221.1H356.6V202.4h18.7V183.7H506.1V165h33.5V310.6H520.9v18.7H464.8V348H446.1v18.7H427.5v18.7H408.8v18.7H371.4v37.3H296.6v18.7H259.2v18.7H240.5v18.7Zm164.3-183h116V295.8h18.7V198.5h-116v18.7H390.1ZM674.4,179.8V146.3H782.6v33.5Z" transform="translate(-17.5 -87.6)"/></svg>