<svg id="Слой_585" data-name="Слой 585" xmlns="http://www.w3.org/2000/svg" viewBox="0 0 1934.16 930.96"><defs><style>.cls-1{fill:#fff;}</style></defs><path class="cls-1" d="M1983.12,312.68v742.84H49v-931h669.9c-1.15.8-2.31,1.58-3.43,2.41a9.66,9.66,0,1,0,11-.25c-1.19-.79-2.47-1.44-3.7-2.16h30.72a38.88,38.88,0,0,0-3.58,2.29A9.71,9.71,0,0,0,746.08,137a10.06,10.06,0,0,0,19.22,1.28,10,10,0,0,0-3.43-11.52c-1.15-.84-2.43-1.48-3.65-2.22H788c-1.17.8-2.41,1.52-3.5,2.41a9.64,9.64,0,0,0-3.7,9.35,9.81,9.81,0,0,0,8.58,8.43,10,10,0,0,0,10.53-5.88,10.1,10.1,0,0,0-3.18-12.06c-1-.77-2-1.5-3-2.25H1983.12V306.92c-.78-1-1.51-2-2.36-2.9-3.19-3.44-8.39-4.86-13.19-.68-3.24,2.82-3.57,10.26.11,13.35a9.21,9.21,0,0,0,13.5-1.35C1981.84,314.47,1982.47,313.57,1983.12,312.68ZM1372.33,554.73a10,10,0,1,0,10.34-9.66A9.92,9.92,0,0,0,1372.33,554.73ZM1243,355a9.87,9.87,0,0,0,10.11-9.89,10,10,0,1,0-19.94-.23A9.77,9.77,0,0,0,1243,355ZM129.4,355a9.85,9.85,0,0,0,10.11-9.88,10,10,0,1,0-19.93-.24A9.78,9.78,0,0,0,129.4,355ZM1243.15,425a9.89,9.89,0,0,0,9.93-10.07,10,10,0,1,0-20,.13A9.82,9.82,0,0,0,1243.15,425ZM1546.28,590a9.85,9.85,0,0,0,9.8,10.18,10,10,0,1,0,.37-19.94A9.75,9.75,0,0,0,1546.28,590Zm-129.43-9.75a9.75,9.75,0,0,0-9.77,10.15,9.88,9.88,0,0,0,10.21,9.78,10,10,0,1,0-.44-19.93ZM1382.48,355a9.9,9.9,0,0,0,9.79-10.21,10.08,10.08,0,0,0-10.21-9.89,10,10,0,0,0-9.73,10.31A9.76,9.76,0,0,0,1382.48,355ZM1243.2,565.14a9.85,9.85,0,0,0,9.86-10.13,10,10,0,1,0-19.93.25A9.79,9.79,0,0,0,1243.2,565.14Zm139-140.1a9.88,9.88,0,0,0,10.11-9.89,10.07,10.07,0,0,0-9.89-10.2,10,10,0,0,0-10.06,10A9.79,9.79,0,0,0,1382.16,425Zm303.31,445.45a9.9,9.9,0,0,0,10.11,9.9,10,10,0,1,0-.25-20A9.82,9.82,0,0,0,1685.47,870.49Zm-556.77.08a9.9,9.9,0,0,0,10.19,9.82,10,10,0,1,0-.41-20A9.82,9.82,0,0,0,1128.7,870.57ZM989.5,590.11a10,10,0,1,0,10-9.89A9.75,9.75,0,0,0,989.5,590.11ZM547.24,425.05a9.87,9.87,0,0,0,9.85-10.15,10,10,0,1,0-19.92.27A9.78,9.78,0,0,0,547.24,425.05Zm730.41,155.18a9.74,9.74,0,0,0-9.76,10.16,10,10,0,1,0,9.76-10.16ZM571.92,870.18a9.9,9.9,0,0,0,9.8,10.21,10,10,0,1,0,.38-20A9.86,9.86,0,0,0,571.92,870.18Zm556.77-210a9.88,9.88,0,0,0,10,10,10,10,0,1,0,0-20A9.81,9.81,0,0,0,1128.69,660.21Zm-139.19.15a9.88,9.88,0,0,0,10.13,9.86,10,10,0,1,0-.29-20A9.8,9.8,0,0,0,989.5,660.36ZM582,1000.47a10,10,0,0,0-.11,20,10,10,0,1,0,.11-20ZM800.62,204.7c.24-5.12-4.28-9.94-10.12-9.87a10,10,0,1,0,.37,20.07C795.27,215,801,211.06,800.62,204.7ZM1128.7,590.36a10,10,0,1,0,9.78-10.13A9.74,9.74,0,0,0,1128.7,590.36Zm194-105.24a10,10,0,0,0-10-10.11,10.05,10.05,0,1,0-.07,20.1A9.89,9.89,0,0,0,1322.66,485.12Zm49.67-.45a10,10,0,1,0,19.93.83,10.06,10.06,0,0,0-9.57-10.49A10,10,0,0,0,1372.33,484.67ZM1312.5,355a9.85,9.85,0,0,0,10.16-9.83,10.06,10.06,0,0,0-9.83-10.26,10.2,10.2,0,0,0-10.22,9.93A10,10,0,0,0,1312.5,355Zm149.35,130.18a10,10,0,0,0-9.92-10.15,10.05,10.05,0,1,0-.14,20.1A9.89,9.89,0,0,0,1461.85,485.16Zm139.2-.25a10,10,0,0,0-10.17-9.9,10,10,0,1,0,.35,20.09A9.88,9.88,0,0,0,1601.05,484.91Zm-139.2-139.75a10.05,10.05,0,0,0-9.82-10.27,10.18,10.18,0,0,0-10.22,9.92,10,10,0,0,0,9.88,10.17A9.84,9.84,0,0,0,1461.85,345.16ZM293.54,520.09a10,10,0,1,0,20,.06,9.92,9.92,0,0,0-10-10A9.76,9.76,0,0,0,293.54,520.09Zm54.76,0a9.79,9.79,0,0,0-10-10,9.9,9.9,0,0,0-10.06,9.95,10.19,10.19,0,0,0,10,10.1A10,10,0,0,0,348.3,520.14Zm84.43-.14a10,10,0,1,0,20,.25,9.93,9.93,0,0,0-9.93-10.09A9.77,9.77,0,0,0,432.73,520ZM1601.06,344.88a10.06,10.06,0,0,0-10.11-10,10.19,10.19,0,0,0-10,10.2,10,10,0,0,0,10.16,9.89A9.87,9.87,0,0,0,1601.06,344.88ZM477.53,510.16a9.91,9.91,0,0,0-10.08,9.94,10.2,10.2,0,0,0,10,10.11,10,10,0,0,0,10-10.06A9.8,9.8,0,0,0,477.53,510.16Zm661.08,0a9.76,9.76,0,0,0-9.91,10,10,10,0,1,0,20-.14A9.91,9.91,0,0,0,1138.61,510.16Zm34.78,0a9.91,9.91,0,0,0-10,10.05,10.2,10.2,0,0,0,10.14,10,10,10,0,0,0,9.9-10.17A9.78,9.78,0,0,0,1173.39,510.16Zm566.86-165.38a10.08,10.08,0,0,0-10.21-9.89,10.19,10.19,0,0,0-9.84,10.3,10,10,0,0,0,20-.41ZM1267.89,520.29a10,10,0,1,0,20-.33,9.9,9.9,0,0,0-10.21-9.79A9.76,9.76,0,0,0,1267.89,520.29ZM651.65,214.86c5.67-.07,9.74-4.41,9.81-10.14a10,10,0,0,0-10.13-9.89,10.17,10.17,0,0,0-9.9,10.22A10,10,0,0,0,651.65,214.86Zm661.08,295.3a9.9,9.9,0,0,0-10.12,9.9,10.21,10.21,0,0,0,10,10.16,10,10,0,0,0,10.05-10A9.79,9.79,0,0,0,1312.73,510.16Zm104.47,0a9.78,9.78,0,0,0-10.12,9.83,10,10,0,1,0,20,.27A9.93,9.93,0,0,0,1417.2,510.16Zm462.23-165.28a10,10,0,0,0-10.1-10,10.18,10.18,0,0,0-9.94,10.2,10,10,0,0,0,10.16,9.89A9.84,9.84,0,0,0,1879.43,344.88ZM1461.85,519.94a9.79,9.79,0,0,0-10.18-9.78,9.91,9.91,0,0,0-9.87,10.15,10.2,10.2,0,0,0,10.25,9.89A10,10,0,0,0,1461.85,519.94Zm84.43.11a10,10,0,0,0,9.92,10.15,10.15,10.15,0,0,0,10.11-10,9.93,9.93,0,0,0-10-10A9.76,9.76,0,0,0,1546.28,520.05Zm54.76.1a9.79,9.79,0,0,0-10-10A9.9,9.9,0,0,0,1581,520.1a10.18,10.18,0,0,0,10,10.09A10,10,0,0,0,1601,520.15ZM348.3,555a10,10,0,1,0-9.84,10.16A9.87,9.87,0,0,0,348.3,555Zm139.2.08a10,10,0,1,0-9.93,10.08A9.88,9.88,0,0,0,487.5,555.07Zm686.05,10.08a9.89,9.89,0,0,0,9.92-10.09,10,10,0,1,0-9.92,10.09Zm-825.25-185a9.79,9.79,0,0,0-9.82-10.14,9.93,9.93,0,0,0-10.22,9.81,10.18,10.18,0,0,0,9.89,10.26A10.06,10.06,0,0,0,348.3,380.19ZM1322.66,555a10,10,0,0,0-10.14-9.92,10,10,0,1,0,.3,20.08A9.88,9.88,0,0,0,1322.66,555Zm139.19.15a10,10,0,1,0-10,10A9.88,9.88,0,0,0,1461.85,555.14Zm139.2.22a10,10,0,1,0-10.21,9.79A9.89,9.89,0,0,0,1601.05,555.36Zm-566.53,24.87a9.88,9.88,0,0,0-10.29,9.7,10,10,0,0,0,9.81,10.23,10,10,0,1,0,.48-19.93Zm138.79,0a9.87,9.87,0,0,0-9.89,10.1,10,10,0,0,0,10.21,9.83,10,10,0,1,0-.32-19.93ZM1034.07,370.05a10,10,0,0,0-9.85,10.19,10.18,10.18,0,0,0,10.28,9.87,10.05,10.05,0,0,0,9.78-10.3A9.82,9.82,0,0,0,1034.07,370.05ZM1322.66,590.4a9.76,9.76,0,0,0-9.76-10.17,9.89,9.89,0,0,0-10.29,9.71,10,10,0,0,0,9.83,10.22A9.85,9.85,0,0,0,1322.66,590.4ZM1452,580.23a9.87,9.87,0,0,0-10.23,9.76,10,10,0,0,0,9.87,10.17,10,10,0,1,0,.36-19.93ZM383,275.17a9.89,9.89,0,0,0-9.69-10.31A10.18,10.18,0,0,0,363,274.7a10,10,0,0,0,9.83,10.23A9.75,9.75,0,0,0,383,275.17ZM1173.48,370a10,10,0,0,0-10.06,10,10.19,10.19,0,0,0,10,10.1,10.05,10.05,0,0,0,10-10.09A9.8,9.8,0,0,0,1173.48,370Zm427.57,220.07a9.79,9.79,0,0,0-10-9.89,9.89,9.89,0,0,0-10,10,10,10,0,0,0,10.11,9.94A9.84,9.84,0,0,0,1601.05,590.11Zm-705.9,45.07a9.84,9.84,0,0,0,9.93-10,10,10,0,1,0-9.93,10Zm104.58,0a10,10,0,0,0,9.8-10.23,10.11,10.11,0,0,0-10.28-9.82,10,10,0,0,0-9.74,10.29A9.87,9.87,0,0,0,999.73,635.18ZM1312.49,370a10,10,0,0,0-9.88,10.16,10.18,10.18,0,0,0,10.23,9.91,10,10,0,0,0,9.82-10.26A9.82,9.82,0,0,0,1312.49,370ZM755.94,284.92a9.83,9.83,0,0,0,9.94-10,10.07,10.07,0,0,0-10-10.05,10.23,10.23,0,0,0-10,10.15A10,10,0,0,0,755.94,284.92Zm44.68-10.07c.26-5.2-4.21-10-10-10a10.17,10.17,0,0,0-10,10.16,10,10,0,0,0,10.15,9.9A9.73,9.73,0,0,0,800.62,274.85Zm233.51,360.33a9.86,9.86,0,0,0,10.14-9.84,10,10,0,1,0-10.14,9.84Zm104.52,0a10,10,0,0,0,10.08-10,10.11,10.11,0,0,0-10-10.09,10,10,0,0,0-10,10A9.85,9.85,0,0,0,1138.65,635.18Zm104.66,0a9.82,9.82,0,0,0,9.74-10.23,10,10,0,1,0-19.92.47A9.79,9.79,0,0,0,1243.31,635.18ZM1451.74,370a10,10,0,0,0-9.94,10.11,10.18,10.18,0,0,0,10.19,10,10,10,0,0,0,9.86-10.21A9.82,9.82,0,0,0,1451.74,370Zm10.11-95.26a10.05,10.05,0,0,0-10.14-9.94,10.21,10.21,0,0,0-9.9,10.25,10,10,0,0,0,10.2,9.83A9.84,9.84,0,0,0,1461.85,274.78Zm34.73.15c.29-5.3-4.21-10-9.93-10.07a10.17,10.17,0,0,0-10.06,10.08,10,10,0,0,0,10.07,10A9.72,9.72,0,0,0,1496.58,274.93ZM1382.45,635.18a9.83,9.83,0,0,0,9.8-10.18,10,10,0,1,0-19.92.37A9.77,9.77,0,0,0,1382.45,635.18ZM894.92,650.29A9.86,9.86,0,0,0,885,660.38a10,10,0,0,0,10.22,9.83,9.86,9.86,0,0,0,9.83-10.15A9.76,9.76,0,0,0,894.92,650.29Zm706.13-375.57a10.07,10.07,0,0,0-10.21-9.88,10.21,10.21,0,0,0-9.84,10.31,10,10,0,0,0,10.26,9.77A9.87,9.87,0,0,0,1601.05,274.72Zm34.73.18a9.87,9.87,0,0,0-10-10,10.18,10.18,0,0,0-10,10.11,10,10,0,0,0,10.1,9.95A9.72,9.72,0,0,0,1635.78,274.9Zm-601.4,375.38a9.9,9.9,0,0,0-10.16,9.84,10,10,0,0,0,10,10.1,9.88,9.88,0,0,0,10.1-9.9A9.77,9.77,0,0,0,1034.38,650.28ZM1591,370a10,10,0,0,0-10,10.08,10.17,10.17,0,0,0,10.15,10,10,10,0,0,0,9.9-10.18A9.82,9.82,0,0,0,1591,370Zm149.29-95a10.07,10.07,0,0,0-9.85-10.24,10.21,10.21,0,0,0-10.21,9.94,10,10,0,0,0,9.91,10.14A9.87,9.87,0,0,0,1740.25,275.08Zm25,9.84a9.84,9.84,0,0,0,9.77-10.19,10,10,0,0,0-10.17-9.87,10.16,10.16,0,0,0-9.86,10.28A10,10,0,0,0,1765.24,284.92ZM1173.65,650.31a9.88,9.88,0,0,0-10.22,9.72,10,10,0,0,0,9.86,10.15,9.94,9.94,0,1,0,.36-19.87ZM547.37,705.24a10,10,0,1,0-10.2-9.74A9.77,9.77,0,0,0,547.37,705.24Zm34.35,0a10,10,0,1,0-9.8-10.19A9.86,9.86,0,0,0,581.72,705.24Zm348,0c5.2.29,10.1-4.3,10.17-9.83a10,10,0,1,0-20.06-.35A10,10,0,0,0,929.71,705.24Zm70,0a10,10,0,1,0-10.21-9.77A9.85,9.85,0,0,0,999.72,705.24ZM199.19,300a10,10,0,0,0-10.13,9.91,10.17,10.17,0,0,0,10,10.16,10.05,10.05,0,0,0,10.07-10A9.83,9.83,0,0,0,199.19,300ZM1079,695.13a9.85,9.85,0,0,0-10-9.94,10,10,0,1,0,.2,20.08C1073.67,705.34,1079.31,701.39,1079,695.13ZM348.3,414.82A10,10,0,0,0,338.1,405a10.16,10.16,0,0,0-9.84,10.3A10,10,0,0,0,338.53,425,9.86,9.86,0,0,0,348.3,414.82Zm790.23,290.42a10,10,0,1,0-9.83-10.15A9.85,9.85,0,0,0,1138.53,705.24ZM338.15,300a10,10,0,0,0-9.89,10.15,10.15,10.15,0,0,0,10.22,9.91,10,10,0,0,0,9.82-10.24A9.81,9.81,0,0,0,338.15,300ZM1218.2,695c.25-5.23-4.53-10-10.14-9.84a10,10,0,1,0,.4,20.08C1212.83,705.31,1218.54,701.44,1218.2,695ZM571.92,730.36A9.89,9.89,0,0,0,582,740.28a10,10,0,1,0-.18-20A9.82,9.82,0,0,0,571.92,730.36ZM487.5,414.82A10.05,10.05,0,0,0,477.29,405a10.17,10.17,0,0,0-9.84,10.3A10,10,0,0,0,477.73,425,9.87,9.87,0,0,0,487.5,414.82Zm0-104.29A9.88,9.88,0,0,0,478.07,300a10,10,0,0,0-10.61,9.41A10.15,10.15,0,0,0,477,320,10,10,0,0,0,487.5,310.53ZM1128.7,730.2a9.88,9.88,0,0,0,9.91,10.08,10,10,0,1,0,.15-20C1132.56,720.26,1128.43,725.59,1128.7,730.2Zm-502-315.29a10,10,0,0,0-10.12-10,10.16,10.16,0,0,0-9.92,10.21,10,10,0,0,0,10.18,9.89A9.87,9.87,0,0,0,626.69,414.91ZM582.08,775.3a10,10,0,1,0-10.15-9.84A9.87,9.87,0,0,0,582.08,775.3Zm79.35-10.18a9.82,9.82,0,0,0-10.1-9.87,10,10,0,1,0,.33,20A9.8,9.8,0,0,0,661.43,765.12Zm49.69-.18a9.89,9.89,0,0,0,9.63,10.36,10,10,0,1,0-9.63-10.36Zm472.34-349.72a10,10,0,0,0-9.79-10.27,10.16,10.16,0,0,0-10.25,9.89,10,10,0,0,0,9.87,10.21A9.87,9.87,0,0,0,1183.46,415.22ZM1079,765a9.83,9.83,0,0,0-10.18-9.79,10,10,0,1,0,.49,20A9.81,9.81,0,0,0,1079,765Zm59.71,10.26a10,10,0,1,0-10-10A9.87,9.87,0,0,0,1138.72,775.3Zm183.94-360.14A10,10,0,0,0,1312.8,405a10.16,10.16,0,0,0-10.19,9.95,10,10,0,0,0,9.93,10.15A9.89,9.89,0,0,0,1322.66,415.16ZM571.92,800.06a9.88,9.88,0,0,0,9.73,10.27,10,10,0,0,0,10.3-9.76,10,10,0,0,0-20-.51Zm139.2.13A9.86,9.86,0,0,0,721,810.33a10,10,0,1,0,.26-20A9.82,9.82,0,0,0,711.12,800.19ZM1461.85,415a10,10,0,0,0-10-10.09,10.18,10.18,0,0,0-10,10.1,10,10,0,0,0,10.06,10A9.87,9.87,0,0,0,1461.85,415ZM1312.71,300a10,10,0,0,0-10.1,9.94,10.17,10.17,0,0,0,10,10.13,10,10,0,0,0,10-10.05A9.81,9.81,0,0,0,1312.71,300ZM1138.85,790.34a10,10,0,0,0-.34,20,10,10,0,1,0,.34-20Zm-557,55a10.05,10.05,0,1,0-9.88-10.14A9.92,9.92,0,0,0,581.8,845.36Zm880.05-535.61a9.79,9.79,0,0,0-10.21-9.75,10,10,0,0,0-9.84,10.2,10.16,10.16,0,0,0,10.29,9.85A10,10,0,0,0,1461.85,309.75ZM711.12,835.55a9.91,9.91,0,0,0,10.2,9.81,10,10,0,1,0-10.2-9.81ZM1591.29,425a9.88,9.88,0,0,0,9.76-10.24,10.05,10.05,0,0,0-10.23-9.85,10.16,10.16,0,0,0-9.82,10.31A10,10,0,0,0,1591.29,425Zm-453,420.32a10,10,0,1,0-9.58-10.43A9.93,9.93,0,0,0,1138.28,845.36ZM1601.05,310a9.82,9.82,0,0,0-9.94-10,10,10,0,0,0-10.11,9.93,10.16,10.16,0,0,0,10,10.14A10,10,0,0,0,1601.05,310Zm94.26,535.34a10,10,0,1,0-9.84-10.18A9.9,9.9,0,0,0,1695.31,845.36ZM571.93,905.62a9.91,9.91,0,0,0,10.21,9.8,10,10,0,1,0-10.21-9.8Zm1123.33-10.29a10,10,0,1,0,10.24,9.86A10.09,10.09,0,0,0,1695.26,895.33ZM1730.35,300a10,10,0,0,0-10.16,9.87,10.18,10.18,0,0,0,10,10.19,10.05,10.05,0,0,0,10.11-10A9.81,9.81,0,0,0,1730.35,300ZM571.92,940.51A9.92,9.92,0,0,0,582,950.45a10,10,0,1,0-.18-20A9.85,9.85,0,0,0,571.92,940.51ZM293.54,450a10,10,0,0,0,9.94,10.14,10.15,10.15,0,0,0,10.09-10,9.94,9.94,0,0,0-10-10A9.77,9.77,0,0,0,293.54,450Zm44.6-9.92a9.92,9.92,0,0,0-9.88,10.15,10.19,10.19,0,0,0,10.23,9.91,10,10,0,0,0,9.81-10.26A9.79,9.79,0,0,0,338.14,440.1ZM1879.43,310a9.8,9.8,0,0,0-10-10,10,10,0,0,0-10.09,9.95,10.16,10.16,0,0,0,10,10.12A10,10,0,0,0,1879.43,310ZM432.73,450.22a10.05,10.05,0,0,0,10.14,9.95,10.16,10.16,0,0,0,9.89-10.24,9.91,9.91,0,0,0-10.19-9.82A9.77,9.77,0,0,0,432.73,450.22Zm54.77.06a9.79,9.79,0,0,0-9.79-10.17,9.91,9.91,0,0,0-10.26,9.76,10.19,10.19,0,0,0,9.85,10.29A10,10,0,0,0,487.5,450.28Zm502-.44a10,10,0,0,0,9.76,10.31,10.13,10.13,0,0,0,10.27-9.84,9.92,9.92,0,0,0-9.81-10.21A9.79,9.79,0,0,0,989.5,449.84Zm54.78.21a9.8,9.8,0,0,0-10-9.95,9.93,9.93,0,0,0-10,10,10.22,10.22,0,0,0,10.08,10.08A10.06,10.06,0,0,0,1044.28,450.05Zm84.42-.11a10,10,0,0,0,9.85,10.22,10.15,10.15,0,0,0,10.18-10,9.93,9.93,0,0,0-9.91-10.11A9.77,9.77,0,0,0,1128.7,449.94ZM209.11,345.62a10.07,10.07,0,0,0-9.35-10.7,10.18,10.18,0,0,0-10.68,9.43,10,10,0,0,0,9.4,10.62A9.9,9.9,0,0,0,209.11,345.62Zm964.33,94.48a9.92,9.92,0,0,0-10,10,10.21,10.21,0,0,0,10.1,10.06,10,10,0,0,0,9.94-10.13A9.78,9.78,0,0,0,1173.44,440.1Zm94.45,10.13a10,10,0,1,0,20-.32,9.91,9.91,0,0,0-10.21-9.8A9.77,9.77,0,0,0,1267.89,450.23Zm44.7-10.13a9.92,9.92,0,0,0-10,10,10.21,10.21,0,0,0,10.14,10,10,10,0,0,0,9.91-10.17A9.79,9.79,0,0,0,1312.59,440.1ZM348.3,345a10.06,10.06,0,0,0-10-10.07,10.2,10.2,0,0,0-10,10.14,10,10,0,0,0,10.09,10A9.85,9.85,0,0,0,348.3,345ZM1407.08,449.83a10,10,0,1,0,10.23-9.73A9.87,9.87,0,0,0,1407.08,449.83Zm45-9.72a9.9,9.9,0,0,0-10.25,9.76,10.19,10.19,0,0,0,9.85,10.29,10,10,0,0,0,10.19-9.88A9.78,9.78,0,0,0,1452.06,440.11Zm-34.87,195.07a10,10,0,0,0,9.93-10.11,10.11,10.11,0,0,0-10.17-9.94,10,10,0,0,0-9.86,10.17A9.84,9.84,0,0,0,1417.19,635.18Zm129.09-185.33a10,10,0,1,0,10.21-9.75A9.85,9.85,0,0,0,1546.28,449.85Zm45-9.74a9.9,9.9,0,0,0-10.29,9.73,10.2,10.2,0,0,0,9.83,10.32,10,10,0,0,0,10.22-9.86A9.78,9.78,0,0,0,1591.29,440.11Zm94.18,9.83a10,10,0,0,0,9.86,10.22,10.15,10.15,0,0,0,10.17-10,9.91,9.91,0,0,0-9.91-10.11A9.79,9.79,0,0,0,1685.47,449.94ZM1044.28,345.17a10.06,10.06,0,0,0-9.81-10.27,10.17,10.17,0,0,0-10.24,9.9,10,10,0,0,0,9.86,10.18A9.87,9.87,0,0,0,1044.28,345.17ZM338.33,495.11a9.88,9.88,0,0,0,10-10,10,10,0,0,0-10-10.06,10.05,10.05,0,1,0,0,20.1Zm149.17-9.89A10,10,0,0,0,477.64,475a10.05,10.05,0,1,0-.26,20.1A9.9,9.9,0,0,0,487.5,485.22ZM1173.69,355a9.85,9.85,0,0,0,9.77-10.21,10.05,10.05,0,0,0-10.2-9.88,10.19,10.19,0,0,0-9.84,10.31A10,10,0,0,0,1173.69,355Zm208.66-70.05a9.88,9.88,0,0,0,9.92-10.08,10,10,0,1,0-20,.16A9.81,9.81,0,0,0,1382.35,284.93ZM1775,310.13a9.7,9.7,0,0,0-9.77-10.13,10,10,0,1,0-.33,20A9.75,9.75,0,0,0,1775,310.13Zm-139.2,595.1c.22-5.81-5-10-10.09-9.91a10.06,10.06,0,1,0,.32,20.12C1630.72,915.45,1636.11,911.37,1635.78,905.23Zm188.88-595.47a10,10,0,0,0,9.78,10.29,10.13,10.13,0,0,0,10.25-9.86,9.91,9.91,0,0,0-9.83-10.19A9.81,9.81,0,0,0,1824.66,309.76ZM626.69,170c0-5.69-4.22-9.85-9.92-10a10,10,0,1,0,9.92,10Zm34.74-.16a9.61,9.61,0,0,0-10-9.85,10,10,0,0,0-10,10,10.1,10.1,0,0,0,10.15,10A9.83,9.83,0,0,0,661.43,169.79ZM1267.89,380a10.06,10.06,0,0,0,10,10.1,10.16,10.16,0,0,0,10-10.09,9.93,9.93,0,0,0-10-10A9.82,9.82,0,0,0,1267.89,380Zm79.45-10a9.89,9.89,0,0,0-9.92,10.1c.25,6.18,4.76,10,10.17,9.89a10,10,0,1,0-.25-20ZM765.88,169.84c0-5.68-4.31-9.78-10-9.94a10,10,0,1,0,10,9.94Zm24.68-9.9A10,10,0,0,0,780.61,170a10.11,10.11,0,0,0,10.2,9.92,10,10,0,0,0,9.84-10.18C800.43,164,796.36,159.9,790.56,159.94ZM1775,905.53c.26-6.55-5.41-10.19-9.8-10.21a10.06,10.06,0,1,0-.3,20.11A9.84,9.84,0,0,0,1775,905.53ZM1407.08,380.05a10.06,10.06,0,0,0,10,10.07,10.2,10.2,0,0,0,10-10.12,10,10,0,0,0-10.07-10A9.8,9.8,0,0,0,1407.08,380.05Zm89.5.13a9.76,9.76,0,0,0-9.76-10.15,10,10,0,1,0-.33,20.05A9.73,9.73,0,0,0,1496.58,380.18ZM626.69,204.78a10,10,0,0,0-10.09-10,10.15,10.15,0,0,0-10,10.17,10,10,0,0,0,10.16,9.87A9.82,9.82,0,0,0,626.69,204.78Zm0,735.66a9.84,9.84,0,0,0-10-10,10,10,0,1,0,10,10ZM268.52,355a9.82,9.82,0,0,0,10.16-9.81,10,10,0,1,0-19.9-.39A9.77,9.77,0,0,0,268.52,355ZM765.88,205A10,10,0,0,0,756,194.82a10.15,10.15,0,0,0-10.18,9.94,9.93,9.93,0,0,0,9.92,10.1A9.81,9.81,0,0,0,765.88,205Zm59.79,9.85a9.8,9.8,0,0,0,9.81-10.15,10,10,0,1,0-19.93.36A9.72,9.72,0,0,0,825.67,214.86Zm720.61,165.4a10,10,0,0,0,10.22,9.85,10.18,10.18,0,0,0,9.82-10.32,10,10,0,0,0-10.29-9.74A9.8,9.8,0,0,0,1546.28,380.26Zm79.47-10.21a10,10,0,1,0,10.1,9.87A10,10,0,0,0,1625.75,370.05ZM417.88,344.86a10,10,0,1,0-19.91.26,10,10,0,1,0,19.91-.26ZM1740.25,940.47a9.86,9.86,0,0,0-9.94-10.05,10,10,0,1,0,9.94,10.05Zm-54.78-560.28a10.07,10.07,0,0,0,10.15,9.93,10.18,10.18,0,0,0,9.88-10.26,9.92,9.92,0,0,0-10.21-9.81A9.79,9.79,0,0,0,1685.47,380.19ZM571.93,975.32a9.93,9.93,0,0,0,9.86,10.16,10.05,10.05,0,0,0,.23-20.1A10,10,0,0,0,571.93,975.32ZM711.12,239.41A10,10,0,0,0,720.58,250a10.17,10.17,0,0,0,10.56-9.55A9.92,9.92,0,0,0,721.62,230,9.8,9.8,0,0,0,711.12,239.41Zm54.76.66A9.83,9.83,0,0,0,756.05,230a10,10,0,0,0-10.22,9.83A10.15,10.15,0,0,0,755.74,250,10,10,0,0,0,765.88,240.07Zm25-10.1a9.84,9.84,0,0,0-10.24,9.77,10,10,0,1,0,20.05.37C800.77,234.29,795.91,229.76,790.88,230ZM268.82,425a9.81,9.81,0,0,0,9.86-10.1,10,10,0,1,0-19.9.19A9.77,9.77,0,0,0,268.82,425ZM1451.84,230a10,10,0,0,0-10,10A10.16,10.16,0,0,0,1451.89,250a10,10,0,0,0,10-10.1A9.78,9.78,0,0,0,1451.84,230Zm34.74,0a9.84,9.84,0,0,0-10,10,10,10,0,1,0,20.05-.15C1496.65,234.81,1492.38,229.71,1486.58,230ZM1113.85,344.84a10,10,0,1,0-19.91.3,10,10,0,1,0,19.91-.3ZM626.69,800.27a9.81,9.81,0,0,0-10-9.93,10,10,0,1,0,10,9.93ZM939.81,625.19c.28-5.68-4.72-10.07-9.93-10.07a10.15,10.15,0,0,0-10.07,10.06,10,10,0,0,0,10.07,10A9.72,9.72,0,0,0,939.81,625.19Zm-521.94-210a10,10,0,1,0-19.9-.3,10,10,0,1,0,19.9.3Zm129.4-130.25a9.85,9.85,0,0,0,9.82-10.16,10,10,0,1,0-19.94.33A9.82,9.82,0,0,0,547.27,284.93ZM1079,625.19c.27-5.71-4.76-10.07-9.94-10.07A10.15,10.15,0,0,0,1059,625.18a10,10,0,0,0,10.06,10A9.73,9.73,0,0,0,1079,625.19Zm139.19.22c.35-6-4.74-10.18-9.71-10.28a10,10,0,1,0-.45,20.07C1213.17,635.41,1218.39,631.09,1218.2,625.41Zm278.38-.11c.33-5.84-4.76-10.13-9.81-10.18a10.16,10.16,0,0,0-10.18,10,10,10,0,0,0,10,10.11A9.72,9.72,0,0,0,1496.58,625.3Zm34.84-280.2a10,10,0,1,0-19.9-.23,10,10,0,1,0,19.9.23Zm372.7-45.1a10,10,0,1,0,10.09,9.85A9.82,9.82,0,0,0,1904.12,300ZM1103.83,425a9.8,9.8,0,0,0,10-10,10,10,0,1,0-19.9-.11A9.78,9.78,0,0,0,1103.83,425ZM626.69,730.22a9.81,9.81,0,0,0-10-9.9,10,10,0,1,0,.09,19.95A9.88,9.88,0,0,0,626.69,730.22Zm1043.93-385.4a10,10,0,1,0-19.91.33,10,10,0,1,0,19.91-.33ZM1044.27,730.05a9.71,9.71,0,0,0-10.2-9.7,9.87,9.87,0,0,0-9.85,10.13,10,10,0,0,0,10.27,9.79A9.89,9.89,0,0,0,1044.27,730.05Zm129.24-9.7c-6-.25-10.12,5-10.1,9.89a10.05,10.05,0,0,0,10,10,9.9,9.9,0,0,0,10-10A9.7,9.7,0,0,0,1173.51,720.35Zm636.3-375.25a10,10,0,1,0-19.91-.23,10,10,0,1,0,19.91.23ZM547.2,775.3a10,10,0,1,0-10-9.92A9.79,9.79,0,0,0,547.2,775.3ZM94.75,300a9.89,9.89,0,0,0-10.08,9.94,10,10,0,1,0,20,.06A9.84,9.84,0,0,0,94.75,300ZM1173.54,790.34a10,10,0,1,0,9.92,10A9.8,9.8,0,0,0,1173.54,790.34ZM164.25,300a9.8,9.8,0,0,0-9.91,10.05,10,10,0,0,0,10.07,10,10.15,10.15,0,0,0,10-10.16A9.91,9.91,0,0,0,164.25,300Zm79.59,9.75A9.68,9.68,0,0,0,233.69,300a10,10,0,1,0,.45,20A9.76,9.76,0,0,0,243.84,309.75ZM661.43,835.11c.19-5.57-4.9-10-10.16-9.84a10.06,10.06,0,1,0,.45,20.11A9.89,9.89,0,0,0,661.43,835.11ZM293.54,309.79a10,10,0,0,0,9.8,10.26,10.15,10.15,0,0,0,10.23-9.89A9.94,9.94,0,0,0,303.7,300,9.8,9.8,0,0,0,293.54,309.79ZM373.25,300a10,10,0,1,0,9.84,10.11C383,304.37,379,300.07,373.25,300ZM1521.6,425a9.83,9.83,0,0,0,9.83-10.14,10,10,0,1,0-19.91.27A9.77,9.77,0,0,0,1521.6,425Zm-1079-125a9.8,9.8,0,0,0-9.82,10.14,10,10,0,0,0,10.15,9.92,10.15,10.15,0,0,0,9.88-10.25A9.92,9.92,0,0,0,442.55,300ZM243.84,380c.33-5.14-4.17-10.05-10-10a10,10,0,1,0,.05,20.05C240.58,389.9,244.19,384.54,243.84,380ZM1079,835.49c.27-6.42-5.3-10.2-9.79-10.23a10.2,10.2,0,0,0-10.22,9.92,10.08,10.08,0,0,0,9.91,10.19A9.84,9.84,0,0,0,1079,835.49ZM711.11,310.17a10.05,10.05,0,0,0,10.19,9.89,10.19,10.19,0,0,0,9.86-10.29A9.94,9.94,0,0,0,720.9,300,9.81,9.81,0,0,0,711.11,310.17ZM293.54,379.85a10,10,0,0,0,9.81,10.26,10.19,10.19,0,0,0,10.23-9.91A10,10,0,0,0,303.69,370,9.81,9.81,0,0,0,293.54,379.85Zm79.44-9.8a9.91,9.91,0,0,0-9.92,10.11c.26,6.19,4.78,10,10.18,9.88a10,10,0,0,0-.26-20Zm696.28-70a10,10,0,0,0-10.25,9.78,10.22,10.22,0,0,0,9.88,10.27,10,10,0,0,0,10.13-9.9A9.7,9.7,0,0,0,1069.26,300Zm149,535.37c.22-6.3-5.31-10.14-9.9-10.12a10.2,10.2,0,0,0-10.11,10,10.06,10.06,0,0,0,10,10.07A9.82,9.82,0,0,0,1218.21,835.38Zm-89.5-525.64a10,10,0,0,0,9.74,10.3,10.14,10.14,0,0,0,10.27-9.83,9.92,9.92,0,0,0-9.81-10.2A9.8,9.8,0,0,0,1128.71,309.74Zm532.2,115.31a9.86,9.86,0,0,0,9.71-10.27,10,10,0,1,0-19.9.51A9.78,9.78,0,0,0,1660.91,425.05ZM661.44,905.56c.27-6.57-5.39-10.21-9.77-10.24a10.06,10.06,0,1,0-.35,20.11A9.83,9.83,0,0,0,661.44,905.56ZM989.5,380a10.06,10.06,0,0,0,10,10.08,10.17,10.17,0,0,0,10-10.11,9.93,9.93,0,0,0-10-10A9.8,9.8,0,0,0,989.5,380ZM1277.93,300a9.81,9.81,0,0,0-10,9.93,10,10,0,0,0,9.94,10.14,10.17,10.17,0,0,0,10.09-10A9.93,9.93,0,0,0,1277.93,300ZM1079,905.47c.23-6.5-5.42-10.16-9.86-10.15a10.06,10.06,0,1,0-.17,20.11A9.84,9.84,0,0,0,1079,905.47ZM1407.08,310a10,10,0,0,0,10,10.09,10.18,10.18,0,0,0,10-10.08,10,10,0,0,0-10-10A9.82,9.82,0,0,0,1407.08,310Zm79.36-10a10,10,0,1,0,.43,20,9.92,9.92,0,0,0,9.75-10.28A9.82,9.82,0,0,0,1486.44,300ZM1128.7,380.13a10.06,10.06,0,0,0,10.09,10,10.17,10.17,0,0,0,9.93-10.2,9.91,9.91,0,0,0-10.14-9.87A9.78,9.78,0,0,0,1128.7,380.13ZM1546.28,310a10,10,0,0,0,10,10.05,10.18,10.18,0,0,0,10-10.12,10,10,0,0,0-10.09-9.94A9.8,9.8,0,0,0,1546.28,310ZM1626,300a10,10,0,0,0-10.17,9.88,10.22,10.22,0,0,0,10,10.18,10.1,10.1,0,0,0,10.06-10A9.82,9.82,0,0,0,1626,300Zm-407.74,80.27a9.71,9.71,0,0,0-9.69-10.22,10,10,0,0,0-10.32,9.72,10.1,10.1,0,0,0,9.82,10.31A9.76,9.76,0,0,0,1218.21,380.27ZM1695.4,300a9.79,9.79,0,0,0-9.93,10,10,10,0,0,0,10,10,10.17,10.17,0,0,0,10-10.14A9.92,9.92,0,0,0,1695.4,300ZM432.73,169.74a10,10,0,0,0,9.84,10.2A10.13,10.13,0,0,0,452.76,170a10,10,0,0,0-9.91-10.11A9.89,9.89,0,0,0,432.73,169.74ZM1765,355a9.85,9.85,0,0,0,10-10,10,10,0,0,0-9.92-10.12,10.15,10.15,0,0,0-10.11,10A10,10,0,0,0,1765,355ZM1079,485.31a9.88,9.88,0,0,0-9.72-10.29,10,10,0,1,0-.43,20.09C1074.59,495.27,1079.22,490.48,1079,485.31ZM1904.46,355a10,10,0,0,0,9.77-10.23,10,10,0,1,0-9.77,10.23ZM711.11,169.9a10,10,0,0,0,10,10,10,10,0,1,0-.06-20.08C715.78,159.86,710.86,164.48,711.11,169.9Zm392.67,325.2a9.83,9.83,0,0,0,10.06-9.92,10,10,0,1,0-19.9-.19A9.82,9.82,0,0,0,1103.78,495.1Zm104.61,0a9.77,9.77,0,0,0,9.82-10.14,9.94,9.94,0,0,0-10.07-9.95,10.2,10.2,0,0,0-9.94,10.2A10.05,10.05,0,0,0,1208.39,495.1Zm-35,210.14a10,10,0,0,0,.11-20,10,10,0,1,0-.11,20Zm69.63-210.16a9.83,9.83,0,0,0,10-10,9.94,9.94,0,1,0-19.88,0A9.79,9.79,0,0,0,1243.05,495.08Zm313.26,70.07a10,10,0,0,0,10-10.06,10.13,10.13,0,0,0-10.09-10,10,10,0,0,0,.09,20.08Zm0-70a10,10,0,0,0,10-10.11,10.17,10.17,0,0,0-10.14-10,10.05,10.05,0,0,0,.17,20.1Zm-278.59,0a10,10,0,0,0,10.16-9.9A10.14,10.14,0,0,0,1278,475a10,10,0,0,0-10.1,10A9.88,9.88,0,0,0,1277.76,495.1ZM626.69,765.41a9.93,9.93,0,0,0-9.86-10.15,10,10,0,1,0-.26,20A9.91,9.91,0,0,0,626.69,765.41ZM293.54,484.69a9.89,9.89,0,0,0,9.58,10.41,10,10,0,0,0,10.45-9.62A10.16,10.16,0,0,0,303.92,475,10,10,0,0,0,293.54,484.69Zm358-254.7a9.8,9.8,0,0,0-10.07,9.88,10,10,0,1,0,20,.1C661.3,234.24,657.26,230,651.55,230ZM1034.24,775.3a10,10,0,0,0,.09-20,10,10,0,1,0-.09,20Zm313-280.2a10,10,0,0,0,10.2-9.81,10,10,0,1,0-10.2,9.81Zm-939.38,70a9.82,9.82,0,0,0,10-10A10,10,0,1,0,398,555.1,9.81,9.81,0,0,0,407.88,565.14Zm1332.37,200.1a10,10,0,0,0-10-10,10,10,0,1,0,.1,20A9.92,9.92,0,0,0,1740.25,765.24Zm-1357.2-350A9.92,9.92,0,0,0,373.32,405,10.18,10.18,0,0,0,363,414.82a10.06,10.06,0,0,0,9.86,10.23A9.78,9.78,0,0,0,383.05,415.25ZM383,555A9.9,9.9,0,0,0,373,545.07a10.05,10.05,0,1,0,.32,20.1A9.87,9.87,0,0,0,383,555Zm59.84,10.17A10,10,0,0,0,452.76,555a10.12,10.12,0,0,0-10.21-9.9,10,10,0,0,0-9.82,10.23A9.89,9.89,0,0,0,442.88,565.15Zm974.16-70a10,10,0,0,0,10.08-10,10.14,10.14,0,0,0-10-10.1,10,10,0,0,0-10,10A9.88,9.88,0,0,0,1417,495.1ZM626.69,835.35a10,10,0,0,0-10-10.08,10.15,10.15,0,0,0-10.08,10.05,10,10,0,0,0,10,10A9.93,9.93,0,0,0,626.69,835.35Zm591.52-420.48c.15-5.66-4.8-10-10.11-9.91a10.06,10.06,0,1,0,.34,20.11A9.88,9.88,0,0,0,1218.21,414.87Zm-696,140.68a9.89,9.89,0,0,0-9.5-10.46,10,10,0,1,0-.83,20A9.74,9.74,0,0,0,522.21,555.55Zm835.18-140.64c.25-5.34-4.46-10-10.05-10a10.06,10.06,0,1,0,.25,20.11C1352.25,425.13,1357.71,421.08,1357.39,414.91ZM1044.28,835.22a10,10,0,0,0-10.11-10,10.15,10.15,0,0,0-9.94,10.18,10,10,0,0,0,10.17,9.91A9.94,9.94,0,0,0,1044.28,835.22Zm452.3-420.07c.34-5.61-4.44-10.1-9.81-10.19a10.06,10.06,0,1,0-.23,20.11C1491.79,425.22,1496.85,420.72,1496.58,415.15Zm-532.07,150a9.81,9.81,0,0,0,10.14-9.82,10,10,0,1,0-19.9-.37A9.79,9.79,0,0,0,964.51,565.14Zm253.7-220.25a9.88,9.88,0,0,0-10-10,10.17,10.17,0,0,0-10,10.18,10,10,0,0,0,10.17,9.9A9.76,9.76,0,0,0,1218.21,344.89ZM1635.78,415c.28-5.42-4.44-10-10-10a10.06,10.06,0,1,0,.1,20.11C1630.71,425.16,1636.07,421,1635.78,415Zm104.47,420.49a10,10,0,0,0-9.85-10.21,10.16,10.16,0,0,0-10.21,9.92,10.05,10.05,0,0,0,9.91,10.17A10,10,0,0,0,1740.25,835.48ZM512.34,440.11A10,10,0,0,0,502.23,450a10.1,10.1,0,0,0,10,10.1,9.91,9.91,0,0,0,10-10C522.11,444.36,518.06,440.12,512.34,440.11ZM626.69,870.42a9.83,9.83,0,0,0-9.94-10,10,10,0,1,0,9.94,10Zm869.89-420.14a9.66,9.66,0,0,0-9.71-10.17,10,10,0,0,0-10.28,9.75,10.09,10.09,0,0,0,9.86,10.26A9.72,9.72,0,0,0,1496.58,450.28ZM1277.71,565.15a10,10,0,0,0,10.21-9.85,10.13,10.13,0,0,0-9.88-10.23,10,10,0,0,0-.33,20.08Zm218.88-80.09c.31-5.07-4.06-10-10-10a10,10,0,1,0,0,20.08A9.75,9.75,0,0,0,1496.59,485.06Zm-139.2,69.85c.25-4.88-4.16-9.95-10.16-9.84a10.05,10.05,0,1,0,.46,20.1A9.87,9.87,0,0,0,1357.39,554.91Zm243.66,315.24a9.85,9.85,0,0,0-10.21-9.78,10,10,0,1,0,10.21,9.78ZM383,450.21a9.66,9.66,0,0,0-9.8-10.1,10,10,0,0,0-10.2,9.83A10.11,10.11,0,0,0,373,460.13,9.76,9.76,0,0,0,383,450.21Zm825.41-10.1a10,10,0,0,0-10.25,9.78,10.09,10.09,0,0,0,9.89,10.23,9.9,9.9,0,0,0,10.15-9.87C1218.18,444.49,1214.14,440.18,1208.45,440.11Zm452,55a9.82,9.82,0,0,0,10.18-9.79,9.95,9.95,0,1,0-19.89-.45A9.81,9.81,0,0,0,1660.43,495.1Zm79.82,375a9.85,9.85,0,0,0-10.21-9.78,10,10,0,1,0,10.21,9.78Zm-740.91-305a10,10,0,0,0,10.19-9.86,10.12,10.12,0,0,0-9.89-10.22,10,10,0,0,0-.3,20.08ZM626.69,905.29a10,10,0,0,0-10.08-10,10.05,10.05,0,1,0,.19,20.1A9.93,9.93,0,0,0,626.69,905.29ZM1357.39,450a9.65,9.65,0,0,0-10.05-9.84,9.88,9.88,0,0,0-9.92,10.08c.2,5.35,3.88,9.93,10.17,9.9A9.62,9.62,0,0,0,1357.39,450Zm243.66,455.51a10,10,0,0,0-9.92-10.14,10.06,10.06,0,0,0-.15,20.11A10,10,0,0,0,1601.05,905.46ZM407.89,495.1a9.83,9.83,0,0,0,10-10,10,10,0,1,0-19.91-.05A9.81,9.81,0,0,0,407.89,495.1Zm671.12-45a9.66,9.66,0,0,0-9.92-10,10,10,0,0,0-10.08,9.95,10.11,10.11,0,0,0,10.06,10.07A9.77,9.77,0,0,0,1079,450.08ZM104.65,344.79c.26-4.7-3.78-9.89-10.13-9.87a10,10,0,1,0,.4,20.09A9.86,9.86,0,0,0,104.65,344.79ZM373.26,495.1a9.88,9.88,0,0,0,9.81-10.17A10,10,0,0,0,373,475,10.2,10.2,0,0,0,363,485.24,10.06,10.06,0,0,0,373.26,495.1ZM233.65,355a10,10,0,0,0,.53-20.07,10.15,10.15,0,0,0-10.33,9.8A10,10,0,0,0,233.65,355Zm1506.6,550.58a10,10,0,0,0-9.82-10.25,10.05,10.05,0,0,0-.36,20.1A10,10,0,0,0,1740.25,905.57ZM383.05,344.81a9.88,9.88,0,0,0-10.12-9.9A10.17,10.17,0,0,0,363,345.16,10,10,0,0,0,373.28,355,9.77,9.77,0,0,0,383.05,344.81ZM442.58,495.1a10,10,0,0,0,10.18-9.87,10.16,10.16,0,0,0-9.9-10.23,10,10,0,0,0-10.13,9.94A9.89,9.89,0,0,0,442.58,495.1ZM1407.08,555a9.9,9.9,0,0,0,9.9,10.11,10,10,0,0,0,10.14-9.92,10.13,10.13,0,0,0-10-10.16A10,10,0,0,0,1407.08,555Zm-188.88.15c.31-5.36-4.32-10.08-9.88-10.12a10,10,0,1,0-.1,20.07A9.74,9.74,0,0,0,1218.2,555.19Zm407.6-115.08a10,10,0,0,0-10,10,10,10,0,1,0,20.07-.1C1635.85,445.28,1632,439.93,1625.8,440.11Zm10,45.06c.34-5.2-4.06-10.05-9.86-10.15a10,10,0,1,0-.15,20.09C1631.25,495.21,1636.05,490.59,1635.78,485.17Zm-114.39,9.93a9.82,9.82,0,0,0,10-10,10,10,0,1,0-19.9-.13A9.81,9.81,0,0,0,1521.39,495.1ZM939.81,555.26c.34-5.45-4.33-10.11-9.81-10.19a10,10,0,1,0-.25,20.07A9.74,9.74,0,0,0,939.81,555.26ZM1357.39,345a9.81,9.81,0,0,0-9.93-10.06,10,10,0,1,0,0,20.09C1352.83,355.1,1357.71,350.44,1357.39,345Zm139.19,210.21c.32-5.33-4.28-10.08-9.88-10.12a10,10,0,1,0-.09,20.07A9.73,9.73,0,0,0,1496.58,555.19Zm0-210.11a9.81,9.81,0,0,0-9.83-10.16,10,10,0,1,0-.19,20.08C1492.2,355.14,1496.89,350.26,1496.58,345.08Zm-531.7,150a9.84,9.84,0,0,0,9.77-10.21,10,10,0,1,0-19.9.39A9.8,9.8,0,0,0,964.88,495.1Zm670.9-149.9a9.83,9.83,0,0,0-9.72-10.28,10,10,0,1,0-.42,20.08C1631.56,355.18,1636.06,350.09,1635.78,345.2ZM1511.53,554.73a10,10,0,1,0,10.33-9.66A9.91,9.91,0,0,0,1511.53,554.73Zm-94.4-269.85a10,10,0,0,0,9.95-10.13,10.17,10.17,0,0,0-9.83-9.87,10.05,10.05,0,0,0-10.12,10A9.79,9.79,0,0,0,1417.13,284.88ZM1556.05,355a10,10,0,0,0,10.27-9.78,10.2,10.2,0,0,0-9.85-10.31,10.07,10.07,0,0,0-10.19,9.89A9.83,9.83,0,0,0,1556.05,355Zm139.34,0a10,10,0,0,0,10.11-9.93,10,10,0,1,0-20-.13A9.83,9.83,0,0,0,1695.39,355Zm139.13,0a10,10,0,0,0,10.17-9.87,10.16,10.16,0,0,0-9.91-10.22,10.06,10.06,0,0,0-10.11,10A9.82,9.82,0,0,0,1834.52,355ZM1486.76,510.16a10,10,0,0,0-10.17,9.85,10.1,10.1,0,0,0,10,10.16,9.89,9.89,0,0,0,10.08-9.94C1496.5,514.48,1492.46,510.2,1486.76,510.16Zm-546.95,9.92a9.72,9.72,0,0,0-10-9.94,9.93,9.93,0,0,0-10,10,10,10,0,0,0,10.09,10C936.54,530,940.16,524.64,939.81,520.08ZM696.26,205.2a10,10,0,1,0-19.9-.63,10,10,0,1,0,19.9.63Zm24.94,9.66a10,10,0,0,0,9.95-10.08,10,10,0,1,0-20,.2A9.78,9.78,0,0,0,721.2,214.86ZM1183.38,765.2a9.87,9.87,0,0,0-10.11-9.85,9.93,9.93,0,0,0,.18,19.86A9.83,9.83,0,0,0,1183.38,765.2Zm163.94-255a9.85,9.85,0,0,0-9.9,10.1,10,10,0,0,0,10.18,9.91,9.9,9.9,0,0,0,9.83-10.19A9.8,9.8,0,0,0,1347.32,510.16ZM1103.79,705.24a10,10,0,1,0-9.85-10.09A9.84,9.84,0,0,0,1103.79,705.24Zm546.92,200.23a10,10,0,1,0,9.86-10.14A9.82,9.82,0,0,0,1650.71,905.47ZM1044.28,695.32a10,10,0,0,0-9.91-10.13,10,10,0,1,0-.18,20A9.91,9.91,0,0,0,1044.28,695.32Zm69.56,210.19a10,10,0,1,0-10.09,9.91A9.9,9.9,0,0,0,1113.84,905.51ZM407.72,635.17a9.77,9.77,0,0,0,10.15-9.79A10,10,0,1,0,398,625,9.76,9.76,0,0,0,407.72,635.17Zm104.48-125a9.85,9.85,0,0,0-10,10.06,10,10,0,0,0,10.15,9.95A9.9,9.9,0,0,0,522.27,520C522.06,514.31,517.92,510.1,512.2,510.16ZM442.82,284.92a10,10,0,0,0,9.94-10.09,10,10,0,1,0-20,.21A9.82,9.82,0,0,0,442.82,284.92ZM1695.61,425a10,10,0,0,0,9.83-10.24,10.11,10.11,0,0,0-9.9-9.76,10,10,0,0,0-10,10.07A9.85,9.85,0,0,0,1695.61,425ZM696.21,275a9.9,9.9,0,1,0-19.8-.33,9.9,9.9,0,1,0,19.8.33Zm25.07,9.94a10,10,0,0,0,9.87-10.17,10,10,0,1,0-20,.37A9.82,9.82,0,0,0,721.28,284.92ZM964.66,705.24a10,10,0,1,0-9.92-10A9.84,9.84,0,0,0,964.66,705.24Zm591.78-70.12a9.92,9.92,0,0,0,9.81-10.23,10.06,10.06,0,0,0-9.93-9.7,9.93,9.93,0,0,0-10,10A9.82,9.82,0,0,0,1556.44,635.12ZM303.32,425a10,10,0,0,0,10.25-9.8A10.16,10.16,0,0,0,303.73,405a10,10,0,0,0-10.19,9.88A9.86,9.86,0,0,0,303.32,425ZM1531.42,274.8a10,10,0,1,0-19.92.26,10,10,0,1,0,19.92-.26Zm25,10.12a10,10,0,0,0,9.85-10.2,10.17,10.17,0,0,0-10.26-9.87,10.07,10.07,0,0,0-9.78,10.29A9.83,9.83,0,0,0,1556.47,284.92Zm104,0a9.8,9.8,0,0,0,10.14-9.82,10,10,0,1,0-19.9-.36A9.76,9.76,0,0,0,1660.47,284.93Zm34.9,0a10,10,0,0,0,10.13-9.9,10,10,0,1,0-20-.18A9.82,9.82,0,0,0,1695.37,284.92Zm-486.9,225.24a10,10,0,0,0-10.27,9.76,10.1,10.1,0,0,0,9.87,10.25,9.88,9.88,0,0,0,10.17-9.85C1218.17,514.57,1214.14,510.24,1208.47,510.16ZM442.75,425.05a10,10,0,0,0,10-10A10.14,10.14,0,0,0,442.69,405a10,10,0,0,0-10,10.11A9.87,9.87,0,0,0,442.75,425.05Zm139.37,0A10,10,0,0,0,592,414.83,10.14,10.14,0,0,0,581.7,405a10,10,0,0,0-9.77,10.29A9.86,9.86,0,0,0,582.12,425.05Zm44.52,270.23a9.92,9.92,0,0,0-10-10,10,10,0,0,0-.09,20A9.85,9.85,0,0,0,626.64,695.28Zm895-60.1a9.8,9.8,0,0,0,9.82-10.15,10,10,0,1,0-19.91.3A9.77,9.77,0,0,0,1521.61,635.18ZM1138.8,425.05a10,10,0,0,0,9.93-10.13,10.15,10.15,0,0,0-10.16-10,10,10,0,0,0-9.87,10.2A9.87,9.87,0,0,0,1138.8,425.05Zm138.88,210.08a9.9,9.9,0,0,0,10.19-9.86,10.06,10.06,0,0,0-10-10.1,10,10,0,0,0-9.9,9.69A9.82,9.82,0,0,0,1277.68,635.13Zm.21-210.08a10,10,0,0,0,10-10A10.14,10.14,0,0,0,1277.87,405a10,10,0,0,0-10,10.09A9.88,9.88,0,0,0,1277.89,425.05ZM1103.67,635.17a9.76,9.76,0,0,0,10.17-9.77,10,10,0,1,0-19.9-.43A9.76,9.76,0,0,0,1103.67,635.17Zm313.48-210.12a10,10,0,0,0,10-10.09A10.18,10.18,0,0,0,1417,405a10,10,0,0,0-9.91,10.16A9.87,9.87,0,0,0,1417.15,425.05Zm139.14,0a10,10,0,0,0,10-10A10.17,10.17,0,0,0,1556.25,405a10,10,0,0,0-10,10.1A9.87,9.87,0,0,0,1556.29,425.05ZM373,510.16a9.85,9.85,0,0,0-10,10,10,10,0,0,0,10.12,10,9.91,9.91,0,0,0,9.9-10.13C382.9,514.33,378.75,510.11,373,510.16Zm591.54,125a9.8,9.8,0,0,0,10.08-9.88,10,10,0,1,0-19.91-.23A9.78,9.78,0,0,0,964.57,635.18Zm686.14,200a10,10,0,1,0,19.91.3,10,10,0,1,0-19.91-.3Zm-536.86.1a10,10,0,1,0-19.91.11,10,10,0,1,0,19.91-.11Zm-218.92-130a10,10,0,0,0,.31-20,10,10,0,1,0-.31,20ZM696.26,835.53a10,10,0,1,0-19.9-.39,10,10,0,1,0,19.9.39ZM164.2,355a10,10,0,0,0,10.17-9.87,10,10,0,1,0-20-.25A9.83,9.83,0,0,0,164.2,355Zm139.42,0a10,10,0,0,0,9.95-10.1,10.17,10.17,0,0,0-10.14-10,10.06,10.06,0,0,0-9.89,10.19A9.83,9.83,0,0,0,303.62,355Zm138.86,0a10,10,0,0,0,10.28-9.76A10.17,10.17,0,0,0,443,334.89a10.07,10.07,0,0,0-10.22,9.86A9.83,9.83,0,0,0,442.48,355Zm278.75,0a10,10,0,0,0,9.93-10.13,10.19,10.19,0,0,0-10.18-10,10.06,10.06,0,0,0-9.86,10.22A9.84,9.84,0,0,0,721.23,355Zm417.26,0a10,10,0,0,0,10.23-9.81,10,10,0,1,0-20-.37A9.83,9.83,0,0,0,1138.49,355ZM1278,355a10,10,0,0,0,9.88-10.17,10,10,0,1,0-20,.33A9.84,9.84,0,0,0,1278,355Zm139,0a10,10,0,0,0,10.09-10,10.2,10.2,0,0,0-10-10.12,10.07,10.07,0,0,0-10,10.07A9.83,9.83,0,0,0,1417,355ZM537.16,169.9a10,10,0,1,0,19.93-.06,10,10,0,0,0-19.93.06ZM1591.28,720.43c-6-.36-10.17,4.74-10.21,9.73a9.89,9.89,0,0,0,10,10,9.77,9.77,0,0,0,9.91-9.54A9.67,9.67,0,0,0,1591.28,720.43ZM815.55,169.64a9.94,9.94,0,0,0,9.71,10.3,10,10,0,0,0,10.22-9.83,10,10,0,0,0-19.93-.47ZM1775,940.78a9.76,9.76,0,0,0-9.57-10.35,10,10,0,1,0-.73,20A9.83,9.83,0,0,0,1775,940.78ZM1068.86,580.22a10,10,0,0,0-9.86,10.16,10.09,10.09,0,0,0,10.29,9.78,10,10,0,0,0-.43-19.94ZM696.23,905.34a9.92,9.92,0,1,0-19.84.1,9.92,9.92,0,1,0,19.84-.1ZM522.19,275c.33-5.23-4.1-10.06-10-10.09a10,10,0,0,0-.11,20C517.92,285.08,522.53,280.06,522.19,275Zm696,315.07a9.71,9.71,0,0,0-10-9.86,10,10,0,1,0,.2,20A9.72,9.72,0,0,0,1218.2,590.06Zm139.19.29a9.66,9.66,0,0,0-9.75-10.13,10,10,0,0,0-10.25,9.76,10.07,10.07,0,0,0,9.89,10.18A9.68,9.68,0,0,0,1357.39,590.35Zm139.19-.23a9.71,9.71,0,0,0-10-9.92,10,10,0,1,0,.1,20A9.69,9.69,0,0,0,1496.58,590.12ZM686.3,775.3a10,10,0,1,0-9.94-10A9.87,9.87,0,0,0,686.3,775.3ZM522.22,590.05a9.7,9.7,0,0,0-10-9.85,10,10,0,1,0,.24,19.95A9.69,9.69,0,0,0,522.22,590.05ZM383,590A9.72,9.72,0,0,0,373,580.2a10,10,0,1,0,.24,20A9.73,9.73,0,0,0,383,590ZM1103.93,775.3a10,10,0,1,0-10-10A9.88,9.88,0,0,0,1103.93,775.3ZM939.81,590.35a9.66,9.66,0,0,0-9.75-10.13A10,10,0,0,0,919.81,590a10.07,10.07,0,0,0,9.89,10.17A9.68,9.68,0,0,0,939.81,590.35ZM512.41,214.81c4.46.28,9.94-3.83,9.83-10.16a10,10,0,1,0-9.83,10.16Zm-407.82,60a9.8,9.8,0,0,0-10.11-9.88,10.09,10.09,0,0,0-9.76,9.89,9.94,9.94,0,0,0,10,10.05A9.71,9.71,0,0,0,104.59,274.81ZM1079,870.46a9.72,9.72,0,0,0-9.83-10.08,10,10,0,1,0-.2,20A9.83,9.83,0,0,0,1079,870.46Zm696-.26a9.73,9.73,0,0,0-10.1-9.82,10,10,0,1,0,.32,20A9.83,9.83,0,0,0,1775,870.2Zm-139.2.07a9.72,9.72,0,0,0-10-9.89,10,10,0,1,0,.2,20A9.81,9.81,0,0,0,1635.78,870.27Zm-417.57-.13a9.74,9.74,0,0,0-10.16-9.76,10,10,0,1,0,.44,20A9.83,9.83,0,0,0,1218.21,870.14Zm-556.78.25a9.68,9.68,0,0,0-9.91-10,10,10,0,1,0,0,20A9.83,9.83,0,0,0,661.43,870.39ZM94.66,370.12A9.94,9.94,0,1,0,95,390c5.39-.06,9.39-4.49,9.59-9.93A9.77,9.77,0,0,0,94.66,370.12Zm984.35,290a9.7,9.7,0,0,0-10-9.86,10,10,0,1,0,.19,20A9.72,9.72,0,0,0,1079,660.12Zm139.19.2a9.69,9.69,0,0,0-9.83-10.06,10,10,0,1,0-.2,20A9.69,9.69,0,0,0,1218.2,660.32ZM1079,800.36a9.69,9.69,0,0,0-9.89-10,10,10,0,1,0-.09,20A9.83,9.83,0,0,0,1079,800.36ZM939.81,660c-.07-5.73-4.34-9.77-10.11-9.78a10,10,0,1,0,.36,20A9.71,9.71,0,0,0,939.81,660ZM661.43,800.66a9.72,9.72,0,0,0-9.59-10.31,10,10,0,1,0,9.59,10.31Zm34.83-630.58a10,10,0,0,0-19.9-.42,10,10,0,1,0,19.9.42Zm661,105a9.76,9.76,0,0,0-9.76-10.18,10,10,0,0,0-.4,19.91C1353.4,285.09,1357.62,279.68,1357.3,275.13ZM119.58,310a9.83,9.83,0,0,0,10,10,9.93,9.93,0,0,0,9.95-10.1,10,10,0,1,0-19.93.08Zm462.23-9.9A9.73,9.73,0,0,0,572,310.19a9.9,9.9,0,0,0,9.75,9.74A10,10,0,0,0,591.84,310,9.81,9.81,0,0,0,581.81,300.11Zm636.33,9.95a9.71,9.71,0,0,0-9.89-10,9.88,9.88,0,0,0-10,10.06,10,10,0,0,0,9.76,9.87A9.9,9.9,0,0,0,1218.14,310.06Zm15-.28a10,10,0,1,0,19.94.39,9.82,9.82,0,0,0-9.8-10.17A9.72,9.72,0,0,0,1233.13,309.78Zm139.19.33a9.83,9.83,0,0,0,10.09,9.92,10,10,0,0,0,9.85-10.2,10,10,0,1,0-19.94.28ZM537.16,380.22a9.84,9.84,0,0,0,10.15,9.86,10,10,0,0,0,9.79-10.25,10,10,0,1,0-19.94.39Zm835.16-.38a10,10,0,1,0,19.94.37,10,10,0,1,0-19.94-.37Zm556.78-69.68a9.83,9.83,0,0,0,10.13,9.87,9.94,9.94,0,0,0,9.8-10.25,10,10,0,1,0-19.93.38ZM557,485.13a9.87,9.87,0,1,0-19.73-.32,9.87,9.87,0,1,0,19.73.32Zm104.45,245c0-5.74-4.27-9.76-10-9.84a10,10,0,1,0,.23,20A9.83,9.83,0,0,0,661.43,730.15Zm417.58.31a9.68,9.68,0,0,0-9.74-10.14,10,10,0,1,0-.39,20A9.83,9.83,0,0,0,1079,730.46Zm154.12-350.24a9.83,9.83,0,0,0,10.14,9.86,10,10,0,0,0,9.8-10.26,10,10,0,1,0-19.94.4Zm139.19,280a10,10,0,1,0,10-9.9A9.64,9.64,0,0,0,1372.32,660.18Zm-25-25.13a9.72,9.72,0,0,0,10-9.45,9.88,9.88,0,0,0-9.65-10.34,10,10,0,0,0-10.08,10A9.88,9.88,0,0,0,1347.29,635.05Zm164.23-395.33a10,10,0,1,0,19.9.41,10,10,0,1,0-19.9-.41ZM1233.13,450.21a9.79,9.79,0,0,0,10.08,9.92,9.93,9.93,0,0,0,9.85-10.2,10,10,0,0,0-19.93.28ZM755.73,300.13A9.88,9.88,0,0,0,746,309.9a10,10,0,0,0,10.1,10,9.89,9.89,0,0,0,9.7-9.86A9.71,9.71,0,0,0,755.73,300.13ZM209,380.17a9.74,9.74,0,0,0-9.87-10,9.87,9.87,0,0,0-10,10,10.07,10.07,0,0,0,9.68,9.86A10,10,0,0,0,209,380.17ZM537.16,450a10,10,0,1,0,19.93.14,10,10,0,0,0-19.93-.14Zm845,130.22a9.66,9.66,0,0,0-9.83,10.06,10,10,0,1,0,9.83-10.06ZM1173.34,300.1a9.9,9.9,0,0,0-9.82,10.13,10.07,10.07,0,0,0,9.86,9.71,9.94,9.94,0,0,0,10-10A9.72,9.72,0,0,0,1173.34,300.1Zm199,150.17a9.8,9.8,0,0,0,10.15,9.85,9.92,9.92,0,0,0,9.79-10.25,9.82,9.82,0,0,0-10.19-9.76A9.71,9.71,0,0,0,1372.32,450.27Zm-696-210.15a10,10,0,1,0,19.91-.39,10,10,0,1,0-19.91.39Zm696,279.82a10,10,0,1,0,10.11-9.78A9.68,9.68,0,0,0,1372.33,519.94ZM547.14,720.35a9.63,9.63,0,0,0-10,9.89,10,10,0,1,0,19.93.06A9.71,9.71,0,0,0,547.14,720.35ZM268.5,300a9.78,9.78,0,0,0-9.74,10.19,10,10,0,1,0,19.92-.43A9.76,9.76,0,0,0,268.5,300Zm1262.92,9.78a10,10,0,1,0-19.92.38,10,10,0,1,0,19.92-.38ZM408,300a9.77,9.77,0,0,0-10,9.94,10,10,0,1,0,19.92.07A9.75,9.75,0,0,0,408,300Zm288.31,10a10,10,0,1,0-19.92-.1,10,10,0,1,0,19.92.1Zm382.63,105.26a9.79,9.79,0,0,0-9.81-10.19,9.92,9.92,0,1,0,0,19.84A9.68,9.68,0,0,0,1078.89,415.28Zm581.9-45.23a10,10,0,1,0,9.83,10.11A9.78,9.78,0,0,0,1660.79,370.05Zm-139.52,0a9.78,9.78,0,0,0-9.77,10.16,10,10,0,1,0,19.92-.37A9.76,9.76,0,0,0,1521.27,370.05Zm-427.33-60.63a10,10,0,1,0,10.49-9.4A9.73,9.73,0,0,0,1093.94,309.42ZM1799.73,300a9.78,9.78,0,0,0-9.84,10.08,10,10,0,1,0,19.92-.22A9.75,9.75,0,0,0,1799.73,300ZM537.16,800.26a10,10,0,1,0,10-9.9A9.7,9.7,0,0,0,537.16,800.26ZM278.68,380a10,10,0,1,0-10,10A9.76,9.76,0,0,0,278.68,380Zm139.19,0a10,10,0,1,0-10,10A9.77,9.77,0,0,0,417.87,380Zm1242.54-80a9.79,9.79,0,0,0-9.72,10.21,10,10,0,1,0,19.92-.48A9.73,9.73,0,0,0,1660.41,300ZM303.32,214.68a9.79,9.79,0,0,0,10.05-9.47,9.83,9.83,0,1,0-19.65-.4A9.66,9.66,0,0,0,303.32,214.68ZM582,354.81a9.8,9.8,0,0,0,9.73-9.72,9.84,9.84,0,1,0-19.66.27A9.72,9.72,0,0,0,582,354.81Zm939.46,295.47a9.63,9.63,0,0,0-10,9.9,10,10,0,1,0,19.9.08A9.7,9.7,0,0,0,1521.49,650.28ZM954.74,660.35a10,10,0,1,0,19.91-.27,10,10,0,0,0-19.91.27ZM398,520.22a10,10,0,1,0,9.84-10.06A9.68,9.68,0,0,0,398,520.22Zm1113.55,70.09a10,10,0,1,0,9.79-10.09A9.64,9.64,0,0,0,1511.52,590.31ZM686.07,354.88a9.92,9.92,0,1,0-9.61-10.36C676.36,350.3,680.42,354.78,686.07,354.88ZM398,590.05A10,10,0,1,0,408,580.22,9.66,9.66,0,0,0,398,590.05Zm705.75,60.23a9.65,9.65,0,0,0-9.79,10.09,10,10,0,1,0,19.91-.3A9.7,9.7,0,0,0,1103.72,650.28Zm407.8-130.36a10,10,0,1,0,10.14-9.76A9.69,9.69,0,0,0,1511.52,519.92ZM1093.94,450.3a10,10,0,1,0,9.71-10.19A9.68,9.68,0,0,0,1093.94,450.3Zm576.67-.4a10,10,0,1,0-9.78,10.19A9.74,9.74,0,0,0,1670.61,449.9ZM1104.12,580.22a9.65,9.65,0,0,0-10.18,9.7,10,10,0,1,0,10.18-9.7ZM954.74,590a10,10,0,1,0,19.91.33,10,10,0,0,0-19.91-.33ZM417.87,450.16a10,10,0,1,0-10,9.93A9.73,9.73,0,0,0,417.87,450.16Zm1113.55,0a10,10,0,1,0-10.05,9.93A9.75,9.75,0,0,0,1531.42,450.16ZM1093.94,730.1a10,10,0,1,0,19.9.33,10,10,0,0,0-19.9-.33Zm437.29-524.9a9.63,9.63,0,0,0-9.69-10.21,9.8,9.8,0,0,0-9.89,9.58c0,5.56,3.84,9.91,9.25,10.15A9.6,9.6,0,0,0,1531.23,205.2Zm-854.87,595a10,10,0,1,0,10.07-9.82A9.69,9.69,0,0,0,676.36,800.18ZM1809.65,274.81A9.66,9.66,0,0,0,1800,265a9.91,9.91,0,0,0-.23,19.81A9.65,9.65,0,0,0,1809.65,274.81ZM895.25,599.93a9.77,9.77,0,1,0-.33-19.54,9.77,9.77,0,1,0,.33,19.54Zm198.69,200.33a10,10,0,1,0,19.9.11,10,10,0,1,0-19.9-.11ZM989.7,485a9.81,9.81,0,1,0,19.62-.05,10,10,0,0,0-9.86-9.73A9.85,9.85,0,0,0,989.7,485ZM696.26,870.35a10,10,0,1,0-10,10A9.89,9.89,0,0,0,696.26,870.35Zm397.68-.1a10,10,0,1,0,10-9.87A9.84,9.84,0,0,0,1093.94,870.25Zm-59.87-570.07a9.84,9.84,0,0,0-9.67,9.88,9.86,9.86,0,1,0,19.71-.43A9.69,9.69,0,0,0,1034.07,300.18Zm616.64,570a10,10,0,1,0,10.17-9.75A9.85,9.85,0,0,0,1650.71,870.13Zm35-385.2a9.81,9.81,0,1,0,19.61.08,10,10,0,0,0-9.79-9.8A9.87,9.87,0,0,0,1685.67,484.93Zm54.39-104.79a9.66,9.66,0,0,0-9.57-9.88,9.8,9.8,0,0,0-10.11,9.88,9.92,9.92,0,0,0,9.87,9.7A9.78,9.78,0,0,0,1740.06,380.14ZM721.12,860.6a9.76,9.76,0,0,0-.28,19.51,9.76,9.76,0,1,0,.28-19.51ZM1844.43,415.39a9.78,9.78,0,1,0-10,9.43A9.82,9.82,0,0,0,1844.43,415.39ZM487.33,660.15a9.85,9.85,0,1,0-9.64,9.81A9.62,9.62,0,0,0,487.33,660.15Zm616.39-375.38a9.86,9.86,0,0,0,.31-19.71,9.72,9.72,0,0,0-9.94,9.48C1094.08,280.28,1098.11,284.69,1103.72,284.77ZM825.45,230.16a9.79,9.79,0,1,0,9.74,9.59A9.44,9.44,0,0,0,825.45,230.16ZM1914,975.68a9.72,9.72,0,1,0-9.82,9.58C1909.62,985.31,1914.12,980.72,1914,975.68ZM1113.52,379.83c.2-5.74-5-9.74-9.82-9.57a9.6,9.6,0,0,0-9.51,9.93,9.49,9.49,0,0,0,9.86,9.56A9.39,9.39,0,0,0,1113.52,379.83ZM955,449.91a9.47,9.47,0,0,0,9.53,9.88,9.74,9.74,0,1,0-9.53-9.88Zm784.89,35.23c0-5.32-4.55-10-9.83-9.68a9.5,9.5,0,0,0-9.44,9.6c-.21,5.09,4.23,9.52,9.36,9.68A9.73,9.73,0,0,0,1739.89,485.14Zm-1297,165.48c-5.37-.35-9.88,4.33-9.87,9.53a9.5,9.5,0,0,0,9.75,9.62,9.58,9.58,0,0,0,.12-19.15ZM303.65,249.5a9.62,9.62,0,0,0,0-19.23,9.62,9.62,0,1,0,0,19.23ZM581.9,214.56a9.52,9.52,0,0,0,9.59-9.79,9.4,9.4,0,0,0-9.36-9.5,9.65,9.65,0,1,0-.23,19.29Zm-60,480.61a9.54,9.54,0,1,0-9.72,9.71A9.5,9.5,0,0,0,521.86,695.17ZM591.44,450a9.33,9.33,0,0,0-9.7-9.57,9.58,9.58,0,0,0,0,19.15A9.24,9.24,0,0,0,591.44,450ZM521.87,170c.37-5.14-4.33-9.82-9.53-9.75a9.47,9.47,0,0,0-9.55,9.71,9.16,9.16,0,0,0,9.27,9.42A9.29,9.29,0,0,0,521.87,170Zm721.35,410.7a9.43,9.43,0,0,0-9.64,9.18,9.67,9.67,0,0,0,9.1,9.74,9.48,9.48,0,0,0,9.83-9.43C1252.29,584.82,1248.51,580.75,1243.22,580.69Zm-905,0a9.21,9.21,0,0,0-9.28,9.45,9.31,9.31,0,0,0,9.29,9.44,9.45,9.45,0,1,0,0-18.89Zm870.2,158.82c4.41.41,9.43-3.9,9.26-9.49a9.35,9.35,0,0,0-18.7.23C1199,735.5,1203.56,740,1208.41,739.52ZM329.05,275.09a9.21,9.21,0,0,0,9.41,9.34,9.53,9.53,0,0,0,9.3-9.59c-.18-5-3.74-9.28-9.54-9.2A8.94,8.94,0,0,0,329.05,275.09ZM451.89,380.24c.07-5.5-3.79-9.59-9.08-9.65a9.38,9.38,0,0,0-.48,18.75C447.68,389.51,452.23,385.16,451.89,380.24ZM1113.08,520a9.17,9.17,0,0,0-9.06-9.23,9.31,9.31,0,1,0-.3,18.61C1109.1,529.42,1113.49,524.71,1113.08,520ZM651.27,949.63c4,.41,9.38-3.07,9.54-9.22a9.38,9.38,0,0,0-9-9.25,9.24,9.24,0,0,0-.49,18.47ZM277.79,450.21c.1-4.86-4.19-9.41-9-9.33a9.31,9.31,0,0,0-9.18,8.75c-.42,4.77,4,9.37,8.88,9.47A9,9,0,0,0,277.79,450.21ZM1043.1,800.38a8.86,8.86,0,1,0-17.71-.39c-.1,5.34,3.54,9.25,8.66,9.43A8.77,8.77,0,0,0,1043.1,800.38ZM486.41,205c.06-5.39-3.49-8.92-8.77-9.18a9,9,0,0,0-9.14,8.92c.11,5.44,3.44,9,8.86,9.05S486.36,210.52,486.41,205Zm661.2,700.16c-.07-5.25-3.83-8.65-9.26-8.74a8.52,8.52,0,0,0-8.54,8.91c.08,5.56,3.41,8.86,8.92,8.95C1144.06,914.4,1148.08,909.72,1147.61,905.18ZM788,124.56c-1.17.8-2.41,1.52-3.5,2.41a9.64,9.64,0,0,0-3.7,9.35,9.81,9.81,0,0,0,8.58,8.43,10,10,0,0,0,10.53-5.88,10.1,10.1,0,0,0-3.18-12.06c-1-.77-2-1.5-3-2.25Zm-34.56,0a38.88,38.88,0,0,0-3.58,2.29A9.71,9.71,0,0,0,746.08,137a10.06,10.06,0,0,0,19.22,1.28,10,10,0,0,0-3.43-11.52c-1.15-.84-2.43-1.48-3.65-2.22Zm-34.56,0c-1.15.8-2.31,1.58-3.43,2.41a9.66,9.66,0,1,0,11-.25c-1.19-.79-2.47-1.44-3.7-2.16ZM1983.12,306.92c-.78-1-1.51-2-2.36-2.9-3.19-3.44-8.39-4.86-13.19-.68-3.24,2.82-3.57,10.26.11,13.35a9.21,9.21,0,0,0,13.5-1.35c.66-.87,1.29-1.77,1.94-2.66ZM1381.87,565.17a10.06,10.06,0,1,0-9.54-10.44A9.94,9.94,0,0,0,1381.87,565.17ZM1253.07,345.1a10,10,0,1,0-19.94-.23A9.77,9.77,0,0,0,1243,355,9.87,9.87,0,0,0,1253.07,345.1Zm-1113.56,0a10,10,0,1,0-19.93-.24,10,10,0,1,0,19.93.24ZM1253.08,415a10,10,0,1,0-20,.13,10,10,0,1,0,20-.13Zm303,185.19a10,10,0,1,0,.37-19.94,9.75,9.75,0,0,0-10.17,9.76A9.85,9.85,0,0,0,1556.08,600.16Zm-149-9.78a9.88,9.88,0,0,0,10.21,9.78,10,10,0,1,0-.44-19.93A9.75,9.75,0,0,0,1407.08,590.38Zm-14.81-245.6a10.08,10.08,0,0,0-10.21-9.89,10,10,0,0,0-9.73,10.31,9.76,9.76,0,0,0,10.15,9.79A9.9,9.9,0,0,0,1392.27,344.78ZM1253.06,555a10,10,0,1,0-19.93.25,10,10,0,1,0,19.93-.25Zm139.21-139.86a10.07,10.07,0,0,0-9.89-10.2,10,10,0,0,0-10.06,10,9.79,9.79,0,0,0,9.84,10.12A9.88,9.88,0,0,0,1392.27,415.15Zm303.31,465.24a10,10,0,1,0-.25-20,10,10,0,0,0,.25,20Zm-556.69,0a10,10,0,1,0-.41-20,10,10,0,0,0,.41,20ZM999.44,600.16a10,10,0,1,0,.1-19.94,9.75,9.75,0,0,0-10,9.89A9.87,9.87,0,0,0,999.44,600.16ZM557.09,414.9a10,10,0,1,0-19.92.27,10,10,0,1,0,19.92-.27Zm710.8,175.49a10,10,0,1,0,9.76-10.16A9.74,9.74,0,0,0,1267.89,590.39Zm-686.17,290a10,10,0,1,0,.38-20,10,10,0,0,0-.38,20Zm557-210.17a10,10,0,1,0,0-20,10,10,0,1,0,0,20Zm-139.05,0a10,10,0,1,0-.29-20,10,10,0,1,0,.29,20ZM571.92,1010.41a9.91,9.91,0,0,0,9.93,10.08,10,10,0,1,0,.11-20A9.83,9.83,0,0,0,571.92,1010.41ZM790.5,194.83a10,10,0,1,0,.37,20.07c4.4.07,10.09-3.84,9.75-10.2C800.86,199.58,796.34,194.76,790.5,194.83Zm348.38,405.33a10,10,0,1,0-.4-19.93,9.74,9.74,0,0,0-9.78,10.13A9.86,9.86,0,0,0,1138.88,600.16ZM1312.7,475a10.05,10.05,0,1,0-.07,20.1,9.89,9.89,0,0,0,10-10A10,10,0,0,0,1312.7,475Zm69.15,20.09a9.9,9.9,0,0,0,10.41-9.6,10.06,10.06,0,0,0-9.57-10.49,10,10,0,0,0-10.36,9.66A9.84,9.84,0,0,0,1381.85,495.1Zm-59.19-150a10.06,10.06,0,0,0-9.83-10.26,10.2,10.2,0,0,0-10.22,9.93A10,10,0,0,0,1312.5,355,9.85,9.85,0,0,0,1322.66,345.15ZM1451.93,475a10.05,10.05,0,1,0-.14,20.1,9.89,9.89,0,0,0,10.06-9.95A10,10,0,0,0,1451.93,475Zm139,0a10,10,0,1,0,.35,20.09,9.88,9.88,0,0,0,9.82-10.19A10,10,0,0,0,1590.88,475ZM1452,334.89a10.18,10.18,0,0,0-10.22,9.92,10,10,0,0,0,9.88,10.17,9.84,9.84,0,0,0,10.16-9.82A10.05,10.05,0,0,0,1452,334.89ZM303.49,530.21a10.16,10.16,0,0,0,10.08-10.06,9.92,9.92,0,0,0-10-10,9.76,9.76,0,0,0-10,9.93A10.06,10.06,0,0,0,303.49,530.21Zm34.83-20.05a9.9,9.9,0,0,0-10.06,9.95,10.19,10.19,0,0,0,10,10.1,10,10,0,0,0,10-10.07A9.79,9.79,0,0,0,338.32,510.16Zm104.28,20a10.14,10.14,0,0,0,10.16-10,9.93,9.93,0,0,0-9.93-10.09,9.77,9.77,0,0,0-10.1,9.84A10.05,10.05,0,0,0,442.6,530.2ZM1591,334.89a10.19,10.19,0,0,0-10,10.2,10,10,0,0,0,10.16,9.89,9.87,9.87,0,0,0,9.9-10.1A10.06,10.06,0,0,0,1591,334.89ZM467.45,520.1a10.2,10.2,0,0,0,10,10.11,10,10,0,0,0,10-10.06,9.8,9.8,0,0,0-10-10A9.91,9.91,0,0,0,467.45,520.1Zm661.25.09a10,10,0,1,0,20-.14,9.91,9.91,0,0,0-10.11-9.89A9.76,9.76,0,0,0,1128.7,520.19Zm34.72,0a10.2,10.2,0,0,0,10.14,10,10,10,0,0,0,9.9-10.17,9.78,9.78,0,0,0-10.07-9.88A9.91,9.91,0,0,0,1163.42,520.21ZM1730,334.89a10.19,10.19,0,0,0-9.84,10.3,10,10,0,0,0,20-.41A10.08,10.08,0,0,0,1730,334.89Zm-452,195.32a10.16,10.16,0,0,0,9.87-10.25,9.9,9.9,0,0,0-10.21-9.79,9.76,9.76,0,0,0-9.82,10.12A10.08,10.08,0,0,0,1278.05,530.21ZM661.46,204.72a10,10,0,0,0-10.13-9.89,10.17,10.17,0,0,0-9.9,10.22,10,10,0,0,0,10.22,9.81C657.32,214.79,661.39,210.45,661.46,204.72Zm641.15,315.34a10.21,10.21,0,0,0,10,10.16,10,10,0,0,0,10.05-10,9.79,9.79,0,0,0-9.93-10A9.9,9.9,0,0,0,1302.61,520.06Zm104.47-.07a10,10,0,1,0,20,.27,9.93,9.93,0,0,0-9.92-10.1A9.78,9.78,0,0,0,1407.08,520Zm462.25-185.1a10.18,10.18,0,0,0-9.94,10.2,10,10,0,0,0,10.16,9.89,9.84,9.84,0,0,0,9.88-10.1A10,10,0,0,0,1869.33,334.89ZM1451.67,510.16a9.91,9.91,0,0,0-9.87,10.15,10.2,10.2,0,0,0,10.25,9.89,10,10,0,0,0,9.8-10.26A9.79,9.79,0,0,0,1451.67,510.16Zm104.53,20a10.15,10.15,0,0,0,10.11-10,9.93,9.93,0,0,0-10-10,9.76,9.76,0,0,0-10,9.89A10,10,0,0,0,1556.2,530.2Zm34.88-20A9.9,9.9,0,0,0,1581,520.1a10.18,10.18,0,0,0,10,10.09,10,10,0,0,0,10-10A9.79,9.79,0,0,0,1591.08,510.18ZM338.16,545.07a10,10,0,1,0,.3,20.08A9.87,9.87,0,0,0,348.3,555,10,10,0,0,0,338.16,545.07Zm139.28,0a10,10,0,1,0,.13,20.08,9.88,9.88,0,0,0,9.93-10.08A10,10,0,0,0,477.44,545.07Zm706,10a10,10,0,1,0-9.92,10.09A9.89,9.89,0,0,0,1183.47,555.06Zm-845-185a9.93,9.93,0,0,0-10.22,9.81,10.18,10.18,0,0,0,9.89,10.26,10.06,10.06,0,0,0,10.15-9.93A9.79,9.79,0,0,0,338.48,370.05Zm974,175a10,10,0,1,0,.3,20.08,9.88,9.88,0,0,0,9.84-10.16A10,10,0,0,0,1312.52,545.07Zm139.34,0a10,10,0,1,0,0,20.08,9.88,9.88,0,0,0,10-10A10,10,0,0,0,1451.86,545.07Zm139.41,0a10,10,0,1,0-.43,20.08,9.89,9.89,0,0,0,10.21-9.79A10,10,0,0,0,1591.27,545.07Zm-567,44.86a10,10,0,0,0,9.81,10.23,10,10,0,1,0-9.81-10.23Zm139.19.4a10,10,0,0,0,10.21,9.83,10,10,0,1,0-10.21-9.83Zm-139.2-210.09a10.18,10.18,0,0,0,10.28,9.87,10.05,10.05,0,0,0,9.78-10.3,9.82,9.82,0,0,0-10.21-9.76A10,10,0,0,0,1024.22,380.24Zm288.68,200a9.89,9.89,0,0,0-10.29,9.71,10,10,0,0,0,9.83,10.22,10,10,0,1,0,.46-19.93ZM1441.81,590a10,10,0,0,0,9.87,10.17,10,10,0,1,0-9.87-10.17ZM373.35,264.86A10.18,10.18,0,0,0,363,274.7a10,10,0,0,0,9.83,10.23A9.75,9.75,0,0,0,383,275.17,9.89,9.89,0,0,0,373.35,264.86ZM1163.42,380a10.19,10.19,0,0,0,10,10.1,10.05,10.05,0,0,0,10-10.09,9.8,9.8,0,0,0-10-10A10,10,0,0,0,1163.42,380ZM1591,580.22a9.89,9.89,0,0,0-10,10,10,10,0,0,0,10.11,9.94,10,10,0,1,0-.11-19.94ZM905.08,625.13a10,10,0,1,0-9.93,10A9.84,9.84,0,0,0,905.08,625.13Zm104.45-.18a10.11,10.11,0,0,0-10.28-9.82,10,10,0,0,0-9.74,10.29,10,10,0,0,0,20-.47ZM1302.61,380.2a10.18,10.18,0,0,0,10.23,9.91,10,10,0,0,0,9.82-10.26,9.82,9.82,0,0,0-10.17-9.81A10,10,0,0,0,1302.61,380.2ZM765.88,274.88a10.07,10.07,0,0,0-10-10.05,10.23,10.23,0,0,0-10,10.15,10,10,0,0,0,10.1,9.94A9.83,9.83,0,0,0,765.88,274.88Zm24.73-10a10.17,10.17,0,0,0-10,10.16,10,10,0,0,0,10.15,9.9,9.73,9.73,0,0,0,9.85-10.07C800.88,269.65,796.41,264.87,790.61,264.86Zm253.66,360.48a10,10,0,1,0-10.14,9.84A9.86,9.86,0,0,0,1044.27,625.34Zm104.46-.12a10.11,10.11,0,0,0-10-10.09,10,10,0,0,0-10,10,9.85,9.85,0,0,0,10,10A10,10,0,0,0,1148.73,625.22Zm104.32-.27a10,10,0,1,0-19.92.47,10,10,0,1,0,19.92-.47Zm188.75-244.8a10.18,10.18,0,0,0,10.19,10,10,10,0,0,0,9.86-10.21,9.82,9.82,0,0,0-10.11-9.86A10,10,0,0,0,1441.8,380.15Zm9.91-115.31a10.21,10.21,0,0,0-9.9,10.25,10,10,0,0,0,10.2,9.83,9.84,9.84,0,0,0,9.84-10.14A10.05,10.05,0,0,0,1451.71,264.84Zm34.94,0a10.17,10.17,0,0,0-10.06,10.08,10,10,0,0,0,10.07,10,9.72,9.72,0,0,0,9.92-10C1496.87,269.63,1492.37,264.92,1486.65,264.86ZM1392.25,625a10,10,0,1,0-19.92.37,10,10,0,1,0,19.92-.37ZM885,660.38a10,10,0,0,0,10.22,9.83,9.86,9.86,0,0,0,9.83-10.15,9.76,9.76,0,0,0-10.16-9.77A9.86,9.86,0,0,0,885,660.38Zm705.81-395.54a10.21,10.21,0,0,0-9.84,10.31,10,10,0,0,0,10.26,9.77,9.87,9.87,0,0,0,9.79-10.2A10.07,10.07,0,0,0,1590.84,264.84Zm35,0a10.18,10.18,0,0,0-10,10.11,10,10,0,0,0,10.1,9.95,9.72,9.72,0,0,0,9.9-10A9.87,9.87,0,0,0,1625.81,264.86ZM1024.22,660.12a10,10,0,0,0,10,10.1,9.88,9.88,0,0,0,10.1-9.9,9.77,9.77,0,0,0-9.9-10A9.9,9.9,0,0,0,1024.22,660.12Zm556.78-280a10.17,10.17,0,0,0,10.15,10,10,10,0,0,0,9.9-10.18A9.82,9.82,0,0,0,1591,370,10,10,0,0,0,1581,380.12Zm149.4-115.28a10.21,10.21,0,0,0-10.21,9.94,10,10,0,0,0,9.91,10.14,9.87,9.87,0,0,0,10.15-9.84A10.07,10.07,0,0,0,1730.4,264.84Zm44.61,9.89a10,10,0,0,0-10.17-9.87,10.16,10.16,0,0,0-9.86,10.28,10,10,0,0,0,10.26,9.78A9.84,9.84,0,0,0,1775,274.73ZM1163.43,660a10,10,0,0,0,9.86,10.15,9.94,9.94,0,1,0-9.86-10.15ZM557.09,695a10,10,0,1,0-19.92.53,9.77,9.77,0,0,0,10.2,9.74A9.89,9.89,0,0,0,557.09,695Zm34.86.45a10,10,0,1,0-20-.37,9.86,9.86,0,0,0,9.8,10.19A10,10,0,0,0,592,695.42Zm347.93,0a10,10,0,1,0-20.06-.35,10,10,0,0,0,9.89,10.18C934.91,705.53,939.81,700.94,939.88,695.41Zm69.65-.41a10,10,0,1,0-20,.47,9.85,9.85,0,0,0,10.21,9.77A10,10,0,0,0,1009.53,695ZM189.06,309.9a10.17,10.17,0,0,0,10,10.16,10.05,10.05,0,0,0,10.07-10A9.83,9.83,0,0,0,199.19,300,10,10,0,0,0,189.06,309.9ZM1069,685.19a10,10,0,1,0,.2,20.08c4.5.07,10.14-3.88,9.84-10.14A9.85,9.85,0,0,0,1069,685.19ZM338.1,405a10.16,10.16,0,0,0-9.84,10.3A10,10,0,0,0,338.53,425a9.86,9.86,0,0,0,9.77-10.22A10,10,0,0,0,338.1,405Zm810.63,290.43a10.07,10.07,0,0,0-9.9-10.19,10,10,0,0,0-10.13,9.9,9.85,9.85,0,0,0,9.83,10.15A10,10,0,0,0,1148.73,695.38ZM328.26,310.14a10.15,10.15,0,0,0,10.22,9.91,10,10,0,0,0,9.82-10.24A9.81,9.81,0,0,0,338.15,300,10,10,0,0,0,328.26,310.14Zm879.8,375.05a10,10,0,1,0,.4,20.08c4.37,0,10.08-3.83,9.74-10.24C1218.45,689.8,1213.67,685.06,1208.06,685.19ZM582,740.28a10,10,0,1,0-.18-20,10,10,0,1,0,.18,20ZM477.29,405a10.17,10.17,0,0,0-9.84,10.3A10,10,0,0,0,477.73,425a9.87,9.87,0,0,0,9.77-10.22A10.05,10.05,0,0,0,477.29,405ZM478.07,300a10,10,0,0,0-10.61,9.41A10.15,10.15,0,0,0,477,320a10,10,0,0,0,10.55-9.5A9.88,9.88,0,0,0,478.07,300Zm660.54,440.28a10,10,0,1,0,.15-20c-6.2,0-10.33,5.3-10.06,9.91A9.88,9.88,0,0,0,1138.61,740.28ZM616.57,405a10.16,10.16,0,0,0-9.92,10.21,10,10,0,0,0,10.18,9.89,9.87,9.87,0,0,0,9.86-10.14A10,10,0,0,0,616.57,405ZM592,765.11a10,10,0,1,0-20,.35,9.87,9.87,0,0,0,10.15,9.84A10,10,0,0,0,592,765.11Zm59.38-9.86a10,10,0,1,0,.33,20,10,10,0,0,0-.33-20Zm69.42,20a10,10,0,1,0-9.63-10.36A9.89,9.89,0,0,0,720.75,775.3ZM1173.67,405a10.16,10.16,0,0,0-10.25,9.89,10,10,0,0,0,9.87,10.21,9.87,9.87,0,0,0,10.17-9.83A10,10,0,0,0,1173.67,405Zm-104.84,350.3a10,10,0,1,0,.49,20,10,10,0,0,0-.49-20Zm79.9,10a10,10,0,1,0-20,.07,9.87,9.87,0,0,0,10,10A10,10,0,0,0,1148.73,765.25ZM1312.8,405a10.16,10.16,0,0,0-10.19,9.95,10,10,0,0,0,9.93,10.15,9.89,9.89,0,0,0,10.12-9.89A10,10,0,0,0,1312.8,405ZM581.65,810.33a10,10,0,0,0,10.3-9.76,10,10,0,1,0-10.3,9.76Zm139.32,0a10,10,0,1,0,.26-20,10,10,0,0,0-.26,20Zm730.89-405.39a10.18,10.18,0,0,0-10,10.1,10,10,0,0,0,10.06,10,9.87,9.87,0,0,0,10-10A10,10,0,0,0,1451.86,404.94Zm-149.25-95a10.17,10.17,0,0,0,10,10.13,10,10,0,0,0,10-10.05,9.81,9.81,0,0,0-10-10A10,10,0,0,0,1302.61,309.93ZM1128.7,800.15a9.87,9.87,0,0,0,9.81,10.18,10,10,0,1,0,.34-20A9.83,9.83,0,0,0,1128.7,800.15ZM592,835.45a10,10,0,1,0-20-.23,9.92,9.92,0,0,0,9.88,10.14A10,10,0,0,0,592,835.45ZM1451.64,300a10,10,0,0,0-9.84,10.2,10.16,10.16,0,0,0,10.29,9.85,10,10,0,0,0,9.76-10.3A9.79,9.79,0,0,0,1451.64,300ZM721.32,845.36a10,10,0,1,0-10.2-9.81A9.91,9.91,0,0,0,721.32,845.36ZM1601.05,414.8a10.05,10.05,0,0,0-10.23-9.85,10.16,10.16,0,0,0-9.82,10.31,10,10,0,0,0,10.29,9.78A9.88,9.88,0,0,0,1601.05,414.8ZM1148.72,835.74a10,10,0,1,0-20-.81,9.93,9.93,0,0,0,9.58,10.43A10,10,0,0,0,1148.72,835.74ZM1591.11,300a10,10,0,0,0-10.11,9.93,10.16,10.16,0,0,0,10,10.14,10,10,0,0,0,10-10A9.82,9.82,0,0,0,1591.11,300ZM1705.5,835.48a10,10,0,1,0-20-.3,9.9,9.9,0,0,0,9.84,10.18A10,10,0,0,0,1705.5,835.48ZM582.14,915.42a10,10,0,1,0-10.21-9.8A9.91,9.91,0,0,0,582.14,915.42Zm1103.33-9.84a9.91,9.91,0,0,0,10.18,9.84,10,10,0,1,0-10.18-9.84Zm34.72-595.71a10.18,10.18,0,0,0,10,10.19,10.05,10.05,0,0,0,10.11-10,9.81,9.81,0,0,0-9.9-10.08A10,10,0,0,0,1720.19,309.87ZM582,950.45a10,10,0,1,0-.18-20,10,10,0,0,0,.18,20ZM303.48,460.16a10.15,10.15,0,0,0,10.09-10,9.94,9.94,0,0,0-10-10,9.77,9.77,0,0,0-10,9.92A10,10,0,0,0,303.48,460.16Zm24.78-9.91a10.19,10.19,0,0,0,10.23,9.91,10,10,0,0,0,9.81-10.26,9.79,9.79,0,0,0-10.16-9.8A9.92,9.92,0,0,0,328.26,450.25ZM1869.48,300a10,10,0,0,0-10.09,9.95,10.16,10.16,0,0,0,10,10.12,10,10,0,0,0,10-10.05A9.8,9.8,0,0,0,1869.48,300ZM442.87,460.17a10.16,10.16,0,0,0,9.89-10.24,9.91,9.91,0,0,0-10.19-9.82,9.77,9.77,0,0,0-9.84,10.11A10.05,10.05,0,0,0,442.87,460.17Zm34.84-20.06a9.91,9.91,0,0,0-10.26,9.76,10.19,10.19,0,0,0,9.85,10.29,10,10,0,0,0,10.2-9.88A9.79,9.79,0,0,0,477.71,440.11Zm521.55,20a10.13,10.13,0,0,0,10.27-9.84,9.92,9.92,0,0,0-9.81-10.21,9.79,9.79,0,0,0-10.22,9.74A10,10,0,0,0,999.26,460.15Zm35-20a9.93,9.93,0,0,0-10,10,10.22,10.22,0,0,0,10.08,10.08,10.06,10.06,0,0,0,10-10.12A9.8,9.8,0,0,0,1034.26,440.1Zm104.29,20.06a10.15,10.15,0,0,0,10.18-10,9.93,9.93,0,0,0-9.91-10.11,9.77,9.77,0,0,0-10.12,9.84A10,10,0,0,0,1138.55,460.16ZM199.76,334.92a10.18,10.18,0,0,0-10.68,9.43,10,10,0,0,0,9.4,10.62,9.9,9.9,0,0,0,10.63-9.35A10.07,10.07,0,0,0,199.76,334.92Zm963.66,115.19a10.21,10.21,0,0,0,10.1,10.06,10,10,0,0,0,9.94-10.13,9.78,9.78,0,0,0-10-9.94A9.92,9.92,0,0,0,1163.42,450.11ZM1278,460.17a10.16,10.16,0,0,0,9.88-10.26,9.91,9.91,0,0,0-10.21-9.8,9.77,9.77,0,0,0-9.82,10.12A10.06,10.06,0,0,0,1278,460.17Zm24.57-10a10.21,10.21,0,0,0,10.14,10,10,10,0,0,0,9.91-10.17,9.79,9.79,0,0,0-10.07-9.9A9.92,9.92,0,0,0,1302.61,450.15ZM338.28,334.88a10.2,10.2,0,0,0-10,10.14,10,10,0,0,0,10.09,10,9.85,9.85,0,0,0,9.95-10A10.06,10.06,0,0,0,338.28,334.88ZM1416.83,460.11a10,10,0,1,0,.48-20,10,10,0,0,0-.48,20Zm25-10.24a10.19,10.19,0,0,0,9.85,10.29,10,10,0,0,0,10.19-9.88,9.78,9.78,0,0,0-9.79-10.17A9.9,9.9,0,0,0,1441.81,449.87Zm-14.69,175.2a10.11,10.11,0,0,0-10.17-9.94,10,10,0,0,0-9.86,10.17,9.84,9.84,0,0,0,10.1,9.88A10,10,0,0,0,1427.12,625.07Zm128.93-165a10,10,0,1,0,.44-20,10,10,0,0,0-.44,20Zm25-10.27a10.2,10.2,0,0,0,9.83,10.32,10,10,0,0,0,10.22-9.86,9.78,9.78,0,0,0-9.76-10.19A9.9,9.9,0,0,0,1581,449.84Zm114.33,10.32a10.15,10.15,0,0,0,10.17-10,9.91,9.91,0,0,0-9.91-10.11,9.79,9.79,0,0,0-10.12,9.84A10,10,0,0,0,1695.33,460.16ZM1034.47,334.9a10.17,10.17,0,0,0-10.24,9.9,10,10,0,0,0,9.86,10.18,9.87,9.87,0,0,0,10.19-9.81A10.06,10.06,0,0,0,1034.47,334.9ZM348.3,485.07a10,10,0,0,0-10-10.06,10.05,10.05,0,1,0,0,20.1A9.88,9.88,0,0,0,348.3,485.07ZM477.64,475a10.05,10.05,0,1,0-.26,20.1,9.9,9.9,0,0,0,10.12-9.89A10,10,0,0,0,477.64,475Zm705.82-130.24a10.05,10.05,0,0,0-10.2-9.88,10.19,10.19,0,0,0-9.84,10.31,10,10,0,0,0,10.27,9.78A9.85,9.85,0,0,0,1183.46,344.77Zm208.81-69.92a10,10,0,1,0-20,.16,10,10,0,1,0,20-.16ZM1765.21,300a10,10,0,1,0-.33,20,10,10,0,0,0,.33-20ZM1625.69,895.32a10.06,10.06,0,1,0,.32,20.12c4.71,0,10.1-4.07,9.77-10.21C1636,899.42,1630.75,895.21,1625.69,895.32Zm208.75-575.27a10.13,10.13,0,0,0,10.25-9.86,9.91,9.91,0,0,0-9.83-10.19,9.81,9.81,0,0,0-10.2,9.76A10,10,0,0,0,1834.44,320.05ZM616.77,159.9a10,10,0,1,0,9.92,10C626.72,164.26,622.47,160.1,616.77,159.9Zm34.64,0a10,10,0,0,0-10,10,10.1,10.1,0,0,0,10.15,10,9.83,9.83,0,0,0,9.86-10.13A9.61,9.61,0,0,0,651.41,159.94Zm626.47,230.18a10.16,10.16,0,0,0,10-10.09,9.93,9.93,0,0,0-10-10,9.82,9.82,0,0,0-10,10A10.06,10.06,0,0,0,1277.88,390.12Zm59.54-10c.25,6.18,4.76,10,10.17,9.89a10,10,0,1,0-10.17-9.89ZM755.86,159.9a10,10,0,1,0,10,9.94C765.86,164.16,761.57,160.06,755.86,159.9ZM780.61,170a10.11,10.11,0,0,0,10.2,9.92,10,10,0,0,0,9.84-10.18c-.22-5.74-4.29-9.84-10.09-9.8A10,10,0,0,0,780.61,170Zm984.58,725.32a10.06,10.06,0,1,0-.3,20.11,9.84,9.84,0,0,0,10.1-9.9C1775.25,899,1769.58,895.34,1765.19,895.32ZM1417.1,390.12a10.2,10.2,0,0,0,10-10.12,10,10,0,0,0-10.07-10,9.8,9.8,0,0,0-10,10A10.06,10.06,0,0,0,1417.1,390.12ZM1486.82,370a10,10,0,1,0-.33,20.05,10,10,0,0,0,.33-20.05ZM616.6,194.82a10.15,10.15,0,0,0-10,10.17,10,10,0,0,0,10.16,9.87,9.82,9.82,0,0,0,9.89-10.08A10,10,0,0,0,616.6,194.82Zm.12,735.6a10,10,0,1,0,10,10A9.84,9.84,0,0,0,616.72,930.42Zm-338-585.24a10,10,0,1,0-19.9-.39,10,10,0,1,0,19.9.39ZM756,194.82a10.15,10.15,0,0,0-10.18,9.94,9.93,9.93,0,0,0,9.92,10.1A9.81,9.81,0,0,0,765.88,205,10,10,0,0,0,756,194.82Zm79.46,9.89a10,10,0,1,0-19.93.36,10,10,0,1,0,19.93-.36Zm721,185.4a10.18,10.18,0,0,0,9.82-10.32,10,10,0,0,0-10.29-9.74,9.8,9.8,0,0,0-9.75,10.21A10,10,0,0,0,1556.5,390.11Zm59.28-10a10,10,0,1,0,20.07-.21,10,10,0,0,0-20.07.21Zm-1208-45.22A9.91,9.91,0,0,0,398,345.12a10,10,0,1,0,19.91-.26A9.93,9.93,0,0,0,407.78,334.91ZM1730.31,930.42a10,10,0,1,0,9.94,10.05A9.86,9.86,0,0,0,1730.31,930.42Zm-34.69-540.3a10.18,10.18,0,0,0,9.88-10.26,9.92,9.92,0,0,0-10.21-9.81,9.79,9.79,0,0,0-9.82,10.14A10.07,10.07,0,0,0,1695.62,390.12ZM581.79,985.48a10.05,10.05,0,0,0,.23-20.1,10.05,10.05,0,0,0-.23,20.1ZM720.58,250a10.17,10.17,0,0,0,10.56-9.55A9.92,9.92,0,0,0,721.62,230a9.8,9.8,0,0,0-10.5,9.43A10,10,0,0,0,720.58,250Zm35.47-20a10,10,0,0,0-10.22,9.83A10.15,10.15,0,0,0,755.74,250a10,10,0,0,0,10.14-9.92A9.83,9.83,0,0,0,756.05,230Zm24.59,9.79a10,10,0,1,0,20.05.37c.08-5.82-4.78-10.35-9.81-10.14A9.84,9.84,0,0,0,780.64,239.74Zm-502,175.2a10,10,0,1,0-19.9.19,10,10,0,1,0,19.9-.19ZM1441.8,240A10.16,10.16,0,0,0,1451.89,250a10,10,0,0,0,10-10.1,9.78,9.78,0,0,0-10-9.94A10,10,0,0,0,1441.8,240Zm34.81.05a10,10,0,1,0,20.05-.15c0-5-4.28-10.14-10.08-9.88A9.84,9.84,0,0,0,1476.61,240Zm-372.88,94.91a9.9,9.9,0,0,0-9.79,10.23,10,10,0,1,0,19.91-.3A9.93,9.93,0,0,0,1103.73,334.91ZM616.66,790.34a10,10,0,1,0,10,9.93A9.81,9.81,0,0,0,616.66,790.34ZM929.88,615.12a10.15,10.15,0,0,0-10.07,10.06,10,10,0,0,0,10.07,10,9.72,9.72,0,0,0,9.93-10C940.09,619.51,935.09,615.12,929.88,615.12ZM408.06,405A10,10,0,0,0,398,414.88a10,10,0,1,0,19.9.3A10,10,0,0,0,408.06,405Zm149-130.18a10,10,0,1,0-19.94.33,10,10,0,1,0,19.94-.33Zm512,340.35A10.15,10.15,0,0,0,1059,625.18a10,10,0,0,0,10.06,10,9.73,9.73,0,0,0,9.94-10C1079.28,619.48,1074.25,615.12,1069.07,615.12Zm139.42,0a10,10,0,1,0-.45,20.07c5.13.21,10.35-4.11,10.16-9.79C1218.55,619.44,1213.46,615.23,1208.49,615.13Zm278.28,0a10.16,10.16,0,0,0-10.18,10,10,10,0,0,0,10,10.11,9.72,9.72,0,0,0,10-9.88C1496.91,619.46,1491.82,615.17,1486.77,615.12Zm34.81-280.23a10,10,0,0,0-10.06,10,10,10,0,1,0,19.9.23A10,10,0,0,0,1521.58,334.89Zm372.59-24.8a10.09,10.09,0,0,0,10.18,9.94,9.93,9.93,0,0,0,9.86-10.18,9.82,9.82,0,0,0-10.09-9.85A10,10,0,0,0,1894.17,310.09Zm-780.33,105a10,10,0,1,0-19.9-.11,10,10,0,1,0,19.9.11ZM616.65,720.32a10,10,0,1,0,.09,19.95,10,10,0,1,0-.09-19.95ZM1660.49,334.91a9.91,9.91,0,0,0-9.78,10.24,10,10,0,1,0,19.91-.33A9.93,9.93,0,0,0,1660.49,334.91ZM1034.07,720.35a9.87,9.87,0,0,0-9.85,10.13,10,10,0,0,0,10.27,9.79,9.89,9.89,0,0,0,9.78-10.22A9.71,9.71,0,0,0,1034.07,720.35Zm129.34,9.89a10.05,10.05,0,0,0,10,10,9.9,9.9,0,0,0,10-10,9.7,9.7,0,0,0-10-9.95C1167.46,720.1,1163.39,725.39,1163.41,730.24ZM1800,334.89a10,10,0,0,0-10.06,10,10,10,0,1,0,19.91.23A10,10,0,0,0,1800,334.89ZM557.09,765.19a10,10,0,1,0-19.92.19,9.79,9.79,0,0,0,10,9.92A9.9,9.9,0,0,0,557.09,765.19ZM84.67,309.94a10,10,0,1,0,20,.06,10,10,0,0,0-20-.06ZM1163.42,800.26a10,10,0,0,0,10,10.08,9.92,9.92,0,0,0,10-10,9.8,9.8,0,0,0-9.92-10A10,10,0,0,0,1163.42,800.26ZM154.34,310.05a10,10,0,0,0,10.07,10,10.15,10.15,0,0,0,10-10.16,9.91,9.91,0,0,0-10.12-9.9A9.8,9.8,0,0,0,154.34,310.05ZM233.69,300a10,10,0,1,0,.45,20,10,10,0,0,0-.45-20ZM651.27,825.27a10.06,10.06,0,1,0,.45,20.11,9.89,9.89,0,0,0,9.71-10.27C661.62,829.54,656.53,825.12,651.27,825.27ZM303.34,320.05a10.15,10.15,0,0,0,10.23-9.89A9.94,9.94,0,0,0,303.7,300a9.8,9.8,0,0,0-10.16,9.79A10,10,0,0,0,303.34,320.05ZM363,309.83A10.1,10.1,0,0,0,373,320a9.92,9.92,0,0,0,10.12-9.92c-.1-5.74-4.14-10-9.84-10.11A10,10,0,0,0,363,309.83ZM1531.43,414.9a10,10,0,1,0-19.91.27,10,10,0,1,0,19.91-.27ZM432.73,310.14a10,10,0,0,0,10.15,9.92,10.15,10.15,0,0,0,9.88-10.25A9.92,9.92,0,0,0,442.55,300,9.8,9.8,0,0,0,432.73,310.14ZM233.89,370a10,10,0,1,0,.05,20.05c6.64-.18,10.25-5.54,9.9-10.08C244.17,374.86,239.67,370,233.89,370Zm835.34,455.23a10.2,10.2,0,0,0-10.22,9.92,10.08,10.08,0,0,0,9.91,10.19,9.84,9.84,0,0,0,10.1-9.88C1079.29,829.07,1073.72,825.29,1069.23,825.26ZM721.3,320.06a10.19,10.19,0,0,0,9.86-10.29A9.94,9.94,0,0,0,720.9,300a9.81,9.81,0,0,0-9.79,10.17A10.05,10.05,0,0,0,721.3,320.06ZM303.35,390.11a10.19,10.19,0,0,0,10.23-9.91A10,10,0,0,0,303.69,370a9.81,9.81,0,0,0-10.15,9.81A10,10,0,0,0,303.35,390.11Zm59.71-9.95c.26,6.19,4.78,10,10.18,9.88a10,10,0,0,0-.26-20A9.91,9.91,0,0,0,363.06,380.16Zm696-70.37a10.22,10.22,0,0,0,9.88,10.27,10,10,0,0,0,10.13-9.9,9.7,9.7,0,0,0-9.76-10.15A10,10,0,0,0,1059,309.79Zm149.3,515.47a10.2,10.2,0,0,0-10.11,10,10.06,10.06,0,0,0,10,10.07,9.82,9.82,0,0,0,10-10C1218.43,829.08,1212.9,825.24,1208.31,825.26ZM1138.45,320a10.14,10.14,0,0,0,10.27-9.83,9.92,9.92,0,0,0-9.81-10.2,9.8,9.8,0,0,0-10.2,9.73A10,10,0,0,0,1138.45,320Zm532.17,94.74a10,10,0,1,0-19.9.51,10,10,0,1,0,19.9-.51ZM651.67,895.32a10.06,10.06,0,1,0-.35,20.11,9.83,9.83,0,0,0,10.12-9.87C661.71,899,656.05,895.35,651.67,895.32ZM999.5,390.12a10.17,10.17,0,0,0,10-10.11,9.93,9.93,0,0,0-10-10,9.8,9.8,0,0,0-10,10A10.06,10.06,0,0,0,999.5,390.12Zm268.39-80.2a10,10,0,0,0,9.94,10.14,10.17,10.17,0,0,0,10.09-10,9.93,9.93,0,0,0-10-10A9.81,9.81,0,0,0,1267.89,309.92Zm-198.73,585.4a10.06,10.06,0,1,0-.17,20.11,9.84,9.84,0,0,0,10-10C1079.25,899,1073.6,895.31,1069.16,895.32Zm347.91-575.26a10.18,10.18,0,0,0,10-10.08,10,10,0,0,0-10-10,9.82,9.82,0,0,0-10,10A10,10,0,0,0,1417.07,320.06Zm59.51-9.87a10.12,10.12,0,0,0,10.29,9.84,9.92,9.92,0,0,0,9.75-10.28,9.82,9.82,0,0,0-10.18-9.75A10,10,0,0,0,1476.58,310.19Zm-337.79,79.93a10.17,10.17,0,0,0,9.93-10.2,9.91,9.91,0,0,0-10.14-9.87,9.78,9.78,0,0,0-9.88,10.08A10.06,10.06,0,0,0,1138.79,390.12Zm417.51-70.06a10.18,10.18,0,0,0,10-10.12,10,10,0,0,0-10.09-9.94,9.8,9.8,0,0,0-10,10A10,10,0,0,0,1556.3,320.06Zm59.48-10.18a10.22,10.22,0,0,0,10,10.18,10.1,10.1,0,0,0,10.06-10A9.82,9.82,0,0,0,1626,300,10,10,0,0,0,1615.78,309.88Zm-407.26,60.17a10,10,0,0,0-10.32,9.72,10.1,10.1,0,0,0,9.82,10.31,10,10,0,0,0,.5-20Zm477-60a10,10,0,0,0,10,10,10.17,10.17,0,0,0,10-10.14,9.92,9.92,0,0,0-10.1-9.92A9.79,9.79,0,0,0,1685.47,310ZM442.57,179.94A10.13,10.13,0,0,0,452.76,170a10,10,0,0,0-9.91-10.11,9.89,9.89,0,0,0-10.12,9.84A10,10,0,0,0,442.57,179.94ZM1775,345a10,10,0,0,0-9.92-10.12,10.15,10.15,0,0,0-10.11,10A10,10,0,0,0,1765,355,9.85,9.85,0,0,0,1775,345ZM1069.29,475a10,10,0,1,0-.43,20.09c5.73.16,10.36-4.63,10.15-9.8A9.88,9.88,0,0,0,1069.29,475Zm844.94-130.26a10,10,0,1,0-9.77,10.23A10,10,0,0,0,1914.23,344.76ZM721.13,179.94a10,10,0,1,0-.06-20.08c-5.29,0-10.21,4.62-10,10A10,10,0,0,0,721.13,179.94Zm392.71,305.24a10,10,0,1,0-19.9-.19,10,10,0,1,0,19.9.19Zm104.37-.22a9.94,9.94,0,0,0-10.07-9.95,10.2,10.2,0,0,0-9.94,10.2,10.05,10.05,0,0,0,10.19,9.89A9.77,9.77,0,0,0,1218.21,485Zm-34.74,210.33a10,10,0,0,0-9.94-10.1,10,10,0,1,0-.11,20A9.89,9.89,0,0,0,1183.47,695.29ZM1253,485.11a9.94,9.94,0,1,0-19.88,0,9.94,9.94,0,1,0,19.88,0Zm313.28,70a10.13,10.13,0,0,0-10.09-10,10,10,0,1,0,10.09,10Zm0-70.09a10.17,10.17,0,0,0-10.14-10,10.05,10.05,0,1,0,10.14,10Zm-278.4.2A10.14,10.14,0,0,0,1278,475a10,10,0,0,0-10.1,10,9.88,9.88,0,0,0,9.87,10.13A10,10,0,0,0,1287.92,485.2ZM616.83,755.26a10,10,0,1,0-.26,20,10,10,0,0,0,.26-20ZM303.12,495.1a10,10,0,0,0,10.45-9.62A10.16,10.16,0,0,0,303.92,475a10,10,0,0,0-10.38,9.67A9.89,9.89,0,0,0,303.12,495.1ZM641.48,239.87a10,10,0,1,0,20,.1c-.14-5.73-4.18-9.95-9.89-10A9.8,9.8,0,0,0,641.48,239.87Zm402.8,525.46a10,10,0,0,0-10-10.08,10,10,0,1,0-.09,20A9.92,9.92,0,0,0,1044.28,765.33Zm313.18-280a10,10,0,1,0-10.2,9.81A10,10,0,0,0,1357.46,485.29ZM417.88,555.17A10,10,0,1,0,398,555.1a10,10,0,1,0,19.91.07ZM1730.2,755.25a10,10,0,1,0,.1,20,10,10,0,0,0-.1-20ZM373.32,405A10.18,10.18,0,0,0,363,414.82a10.06,10.06,0,0,0,9.86,10.23,9.78,9.78,0,0,0,10.15-9.8A9.92,9.92,0,0,0,373.32,405ZM373,545.07a10.05,10.05,0,1,0,.32,20.1,10.05,10.05,0,0,0-.32-20.1Zm79.81,9.9a10.12,10.12,0,0,0-10.21-9.9,10,10,0,0,0-9.82,10.23,9.89,9.89,0,0,0,10.15,9.85A10,10,0,0,0,452.76,555Zm974.36-69.86a10.14,10.14,0,0,0-10-10.1,10,10,0,0,0-10,10,9.88,9.88,0,0,0,10,10.05A10,10,0,0,0,1427.12,485.11ZM616.72,825.27a10.15,10.15,0,0,0-10.08,10.05,10,10,0,0,0,10,10,10,10,0,0,0,0-20.09ZM1208.1,405a10.06,10.06,0,1,0,.34,20.11,9.88,9.88,0,0,0,9.77-10.2C1218.36,409.21,1213.41,404.89,1208.1,405ZM512.71,545.09a10,10,0,1,0-.83,20,9.74,9.74,0,0,0,10.33-9.57A9.89,9.89,0,0,0,512.71,545.09ZM1347.34,405a10.06,10.06,0,1,0,.25,20.11c4.66.06,10.12-4,9.8-10.16C1357.64,409.57,1352.93,404.92,1347.34,405ZM1034.17,825.27a10.15,10.15,0,0,0-9.94,10.18,10,10,0,0,0,10.17,9.91,10,10,0,0,0-.23-20.09ZM1486.77,405a10.06,10.06,0,1,0-.23,20.11c5.25.15,10.31-4.35,10-9.92C1496.92,409.54,1492.14,405.05,1486.77,405ZM974.65,555.32a10,10,0,1,0-19.9-.37,10,10,0,1,0,19.9.37Zm233.52-220.41a10.17,10.17,0,0,0-10,10.18,10,10,0,0,0,10.17,9.9,9.76,9.76,0,0,0,9.84-10.1A9.88,9.88,0,0,0,1208.17,334.91Zm417.63,70a10.06,10.06,0,1,0,.1,20.11c4.81.09,10.17-4.07,9.88-10.08C1636.06,409.57,1631.34,405,1625.8,405Zm104.6,420.31a10.16,10.16,0,0,0-10.21,9.92,10.05,10.05,0,0,0,9.91,10.17,10,10,0,0,0,.3-20.09ZM502.23,450a10.1,10.1,0,0,0,10,10.1,9.91,9.91,0,0,0,10-10c-.16-5.75-4.21-10-9.93-10A10,10,0,0,0,502.23,450ZM616.75,860.37a10,10,0,1,0,9.94,10A9.83,9.83,0,0,0,616.75,860.37Zm870.12-420.26a10,10,0,0,0-10.28,9.75,10.09,10.09,0,0,0,9.86,10.26,10,10,0,0,0,.42-20ZM1287.92,555.3a10.13,10.13,0,0,0-9.88-10.23,10,10,0,1,0,9.88,10.23ZM1486.63,475a10,10,0,1,0,0,20.08,9.75,9.75,0,0,0,9.91-10C1496.9,480,1492.53,475.06,1486.63,475Zm-139.4,70.05a10.05,10.05,0,1,0,.46,20.1,9.87,9.87,0,0,0,9.7-10.26C1357.64,550,1353.23,545,1347.23,545.07Zm243.61,315.3a10,10,0,1,0,10.21,9.78A9.85,9.85,0,0,0,1590.84,860.37ZM373.24,440.11a10,10,0,0,0-10.2,9.83A10.11,10.11,0,0,0,373,460.13,9.76,9.76,0,0,0,383,450.21,9.66,9.66,0,0,0,373.24,440.11Zm825,9.78a10.09,10.09,0,0,0,9.89,10.23,9.9,9.9,0,0,0,10.15-9.87c-.06-5.76-4.1-10.07-9.79-10.14A10,10,0,0,0,1198.2,449.89Zm472.41,35.42a9.95,9.95,0,1,0-19.89-.45,9.95,9.95,0,1,0,19.89.45ZM1730,860.37a10,10,0,1,0,10.21,9.78A9.85,9.85,0,0,0,1730,860.37ZM1009.53,555.29a10.12,10.12,0,0,0-9.89-10.22,10,10,0,1,0,9.89,10.22Zm-392.92,340a10.05,10.05,0,1,0,.19,20.1,10.05,10.05,0,0,0-.19-20.1Zm730.73-455.21a9.88,9.88,0,0,0-9.92,10.08c.2,5.35,3.88,9.93,10.17,9.9a10,10,0,0,0-.25-20Zm243.79,455.21a10.06,10.06,0,0,0-.15,20.11,10.06,10.06,0,0,0,.15-20.11ZM417.88,485.11a10,10,0,1,0-19.91-.05,10,10,0,1,0,19.91.05Zm651.21-45a10,10,0,0,0-10.08,9.95,10.11,10.11,0,0,0,10.06,10.07,9.77,9.77,0,0,0,9.94-10.05A9.66,9.66,0,0,0,1069.09,440.11ZM94.52,334.92a10,10,0,1,0,.4,20.09,9.86,9.86,0,0,0,9.73-10.22C104.91,340.09,100.87,334.9,94.52,334.92Zm288.55,150A10,10,0,0,0,373,475,10.2,10.2,0,0,0,363,485.24a10.06,10.06,0,0,0,10.22,9.86A9.88,9.88,0,0,0,383.07,484.93ZM243.87,345.25a9.94,9.94,0,0,0-9.69-10.33,10.15,10.15,0,0,0-10.33,9.8,10,10,0,0,0,9.8,10.27A9.85,9.85,0,0,0,243.87,345.25ZM1730.43,895.32a10.05,10.05,0,0,0-.36,20.1,10.05,10.05,0,0,0,.36-20.1ZM372.93,334.91A10.17,10.17,0,0,0,363,345.16,10,10,0,0,0,373.28,355a9.77,9.77,0,0,0,9.77-10.18A9.88,9.88,0,0,0,372.93,334.91Zm79.83,150.32a10.16,10.16,0,0,0-9.9-10.23,10,10,0,0,0-10.13,9.94,9.89,9.89,0,0,0,9.85,10.16A10,10,0,0,0,452.76,485.23ZM1417,565.15a10,10,0,0,0,10.14-9.92,10.13,10.13,0,0,0-10-10.16,10,10,0,0,0-.18,20.08Zm-208.66-20.08a10,10,0,1,0-.1,20.07,9.74,9.74,0,0,0,10-9.95C1218.51,549.83,1213.88,545.11,1208.32,545.07Zm407.46-95a10,10,0,1,0,20.07-.1c0-4.74-3.89-10.09-10-9.91A10,10,0,0,0,1615.78,450.12Zm10.14,24.9a10,10,0,1,0-.15,20.09c5.48.1,10.28-4.52,10-9.94C1636.12,480,1631.72,475.12,1625.92,475Zm-94.5,10.13a10,10,0,1,0-19.9-.13,10,10,0,1,0,19.9.13ZM930,545.07a10,10,0,1,0-.25,20.07,9.74,9.74,0,0,0,10.06-9.88C940.15,549.81,935.48,545.15,930,545.07Zm417.46-210.15a10,10,0,1,0,0,20.09c5.37.09,10.25-4.57,9.93-10A9.81,9.81,0,0,0,1347.46,334.92ZM1486.7,545.07a10,10,0,1,0-.09,20.07,9.73,9.73,0,0,0,10-9.95C1496.9,549.86,1492.3,545.11,1486.7,545.07Zm0-210.15a10,10,0,1,0-.19,20.08c5.64.14,10.33-4.74,10-9.92A9.81,9.81,0,0,0,1486.75,334.92Zm-512.1,150a10,10,0,1,0-19.9.39,10,10,0,1,0,19.9-.39Zm651.41-150a10,10,0,1,0-.42,20.08c5.92.18,10.42-4.91,10.14-9.8A9.83,9.83,0,0,0,1626.06,334.92Zm-105,230.25a10.06,10.06,0,1,0-9.53-10.44A9.92,9.92,0,0,0,1521.06,565.17Zm-94-290.42a10.17,10.17,0,0,0-9.83-9.87,10.05,10.05,0,0,0-10.12,10,9.79,9.79,0,0,0,10,10A10,10,0,0,0,1427.08,274.75Zm139.24,70.45a10.2,10.2,0,0,0-9.85-10.31,10.07,10.07,0,0,0-10.19,9.89,9.83,9.83,0,0,0,9.77,10.2A10,10,0,0,0,1566.32,345.2Zm139.18-.15a10,10,0,1,0-20-.13,9.83,9.83,0,0,0,9.92,10.06A10,10,0,0,0,1705.5,345.05Zm139.19.06a10.16,10.16,0,0,0-9.91-10.22,10.06,10.06,0,0,0-10.11,10,9.82,9.82,0,0,0,9.85,10.12A10,10,0,0,0,1844.69,345.11ZM1476.59,520a10.1,10.1,0,0,0,10,10.16,9.89,9.89,0,0,0,10.08-9.94c-.13-5.75-4.17-10-9.87-10.07A10,10,0,0,0,1476.59,520Zm-546.75-9.87a9.93,9.93,0,0,0-10,10,10,10,0,0,0,10.09,10c6.62-.18,10.24-5.53,9.89-10.09A9.72,9.72,0,0,0,929.84,510.14ZM686.62,194.82a10,10,0,0,0-10.26,9.75,10,10,0,1,0,19.9.63A9.94,9.94,0,0,0,686.62,194.82Zm44.53,10a10,10,0,1,0-20,.2,9.78,9.78,0,0,0,10.08,9.88A10,10,0,0,0,731.15,204.78Zm442.12,550.57a9.93,9.93,0,0,0,.18,19.86,9.93,9.93,0,1,0-.18-19.86Zm164.15-235.09a10,10,0,0,0,10.18,9.91,9.9,9.9,0,0,0,9.83-10.19,10,10,0,0,0-20,.28ZM1113.84,695.32a10,10,0,1,0-19.9-.17,10,10,0,1,0,19.9.17Zm546.9,220.11a10.05,10.05,0,1,0-10-10A9.9,9.9,0,0,0,1660.74,915.43ZM1034.37,685.19a10,10,0,1,0-.18,20,10,10,0,0,0,.18-20ZM1104,895.33a10,10,0,1,0,9.83,10.18A9.88,9.88,0,0,0,1104,895.33Zm-686.14-270A10,10,0,1,0,398,625a10,10,0,1,0,19.9.39Zm84.38-105.16a10,10,0,0,0,10.15,9.95A9.9,9.9,0,0,0,522.27,520c-.21-5.71-4.35-9.92-10.07-9.86A9.85,9.85,0,0,0,502.25,520.22ZM452.76,274.83a10,10,0,1,0-20,.21,9.82,9.82,0,0,0,10.09,9.88A10,10,0,0,0,452.76,274.83ZM1705.44,414.76a10.11,10.11,0,0,0-9.9-9.76,10,10,0,0,0-10,10.07,9.85,9.85,0,0,0,10.09,9.93A10,10,0,0,0,1705.44,414.76ZM686.23,264.9a9.89,9.89,0,0,0-9.82,9.75,9.9,9.9,0,1,0,19.8.33A9.86,9.86,0,0,0,686.23,264.9Zm44.92,9.85a10,10,0,1,0-20,.37,9.82,9.82,0,0,0,10.16,9.8A10,10,0,0,0,731.15,274.75Zm243.5,420.51a10,10,0,1,0-19.91,0,10,10,0,1,0,19.91,0Zm591.6-70.37a10.06,10.06,0,0,0-9.93-9.7,9.93,9.93,0,0,0-10,10,9.82,9.82,0,0,0,10.11,9.88A9.92,9.92,0,0,0,1566.25,624.89ZM313.57,415.24A10.16,10.16,0,0,0,303.73,405a10,10,0,0,0-10.19,9.88A9.86,9.86,0,0,0,303.32,425,10,10,0,0,0,313.57,415.24ZM1521.34,264.86a10,10,0,0,0-9.84,10.2,10,10,0,1,0,19.92-.26A9.94,9.94,0,0,0,1521.34,264.86Zm45,9.86a10.17,10.17,0,0,0-10.26-9.87,10.07,10.07,0,0,0-9.78,10.29,9.83,9.83,0,0,0,10.19,9.78A10,10,0,0,0,1566.32,274.72Zm104.29.39a10,10,0,1,0-19.9-.36,10,10,0,1,0,19.9.36Zm34.89-.09a10,10,0,1,0-20-.18,9.82,9.82,0,0,0,9.9,10.08A10,10,0,0,0,1705.5,275Zm-507.3,244.9a10.1,10.1,0,0,0,9.87,10.25,9.88,9.88,0,0,0,10.17-9.85c-.07-5.75-4.1-10.08-9.77-10.16A10,10,0,0,0,1198.2,519.92ZM452.76,415A10.14,10.14,0,0,0,442.69,405a10,10,0,0,0-10,10.11,9.87,9.87,0,0,0,10,10A10,10,0,0,0,452.76,415ZM592,414.83A10.14,10.14,0,0,0,581.7,405a10,10,0,0,0-9.77,10.29,9.86,9.86,0,0,0,10.19,9.81A10,10,0,0,0,592,414.83Zm24.67,270.41a10,10,0,0,0-.09,20,10,10,0,1,0,.09-20ZM1531.43,625a10,10,0,1,0-19.91.3,10,10,0,1,0,19.91-.3Zm-382.7-210.11a10.15,10.15,0,0,0-10.16-10,10,10,0,0,0-9.87,10.2,9.87,9.87,0,0,0,10.1,9.9A10,10,0,0,0,1148.73,414.92Zm139.14,210.35a10.06,10.06,0,0,0-10-10.1,10,10,0,0,0-9.9,9.69,10,10,0,1,0,19.93.41Zm.05-210.25A10.14,10.14,0,0,0,1277.87,405a10,10,0,0,0-10,10.09,9.88,9.88,0,0,0,10,10A10,10,0,0,0,1287.92,415ZM1113.84,625.4a10,10,0,1,0-19.9-.43,10,10,0,1,0,19.9.43ZM1427.13,415A10.18,10.18,0,0,0,1417,405a10,10,0,0,0-9.91,10.16,9.87,9.87,0,0,0,10.06,9.94A10,10,0,0,0,1427.13,415Zm139.19.05A10.17,10.17,0,0,0,1556.25,405a10,10,0,0,0-10,10.1,9.87,9.87,0,0,0,10,10A10,10,0,0,0,1566.32,415ZM363.06,520.2a10,10,0,0,0,10.12,10,9.91,9.91,0,0,0,9.9-10.13c-.18-5.71-4.33-9.93-10.05-9.88A9.85,9.85,0,0,0,363.06,520.2ZM974.65,625.3a10,10,0,1,0-19.91-.23,10,10,0,1,0,19.91.23ZM1660.5,845.36a10,10,0,1,0-9.79-10.18A9.88,9.88,0,0,0,1660.5,845.36Zm-556.67-20.09a10,10,0,0,0-9.89,10.12,10,10,0,1,0,19.91-.11A9.93,9.93,0,0,0,1103.83,825.27ZM905.08,695.39a10,10,0,0,0-9.84-10.2,10,10,0,1,0-.31,20A9.9,9.9,0,0,0,905.08,695.39ZM686.5,825.27a9.93,9.93,0,0,0-10.14,9.87,10,10,0,1,0,19.9.39A9.92,9.92,0,0,0,686.5,825.27ZM174.37,345.11a10,10,0,1,0-20-.25A9.83,9.83,0,0,0,164.2,355,10,10,0,0,0,174.37,345.11Zm139.2-.22a10.17,10.17,0,0,0-10.14-10,10.06,10.06,0,0,0-9.89,10.19A9.83,9.83,0,0,0,303.62,355,10,10,0,0,0,313.57,344.89Zm139.19.33A10.17,10.17,0,0,0,443,334.89a10.07,10.07,0,0,0-10.22,9.86A9.83,9.83,0,0,0,442.48,355,10,10,0,0,0,452.76,345.22Zm278.4-.36a10.19,10.19,0,0,0-10.18-10,10.06,10.06,0,0,0-9.86,10.22A9.84,9.84,0,0,0,721.23,355,10,10,0,0,0,731.16,344.86Zm417.56.31a10,10,0,1,0-20-.37,9.83,9.83,0,0,0,9.79,10.18A10,10,0,0,0,1148.72,345.17Zm139.2-.35a10,10,0,1,0-20,.33A9.84,9.84,0,0,0,1278,355,10,10,0,0,0,1287.92,344.82Zm139.21.19a10.2,10.2,0,0,0-10-10.12,10.07,10.07,0,0,0-10,10.07,9.83,9.83,0,0,0,10,10A10,10,0,0,0,1427.13,345Zm-880-165.07a10,10,0,0,0,10-10.1,10,10,0,0,0-19.93.06A9.94,9.94,0,0,0,547.14,179.94ZM1581.07,730.16a9.89,9.89,0,0,0,10,10,9.77,9.77,0,0,0,9.91-9.54,9.67,9.67,0,0,0-9.69-10.18C1585.33,720.07,1581.11,725.17,1581.07,730.16ZM825.26,179.94a10,10,0,0,0,10.22-9.83,10,10,0,0,0-19.93-.47A9.94,9.94,0,0,0,825.26,179.94Zm940.15,750.49a10,10,0,1,0-.73,20,10,10,0,0,0,.73-20ZM1059,590.38a10.09,10.09,0,0,0,10.29,9.78,10,10,0,0,0-.43-19.94A10,10,0,0,0,1059,590.38Zm-372.75,305a10,10,0,1,0,10,10A9.86,9.86,0,0,0,686.25,895.35Zm-174-630.45a10,10,0,0,0-.11,20c5.8.17,10.41-4.85,10.07-9.92C522.52,269.76,518.09,264.93,512.23,264.9Zm695.94,315.3a10,10,0,1,0,.2,20,10,10,0,0,0-.2-20Zm139.47,0a10,10,0,0,0-10.25,9.76,10.07,10.07,0,0,0,9.89,10.18,10,10,0,0,0,.36-19.94Zm139,0a10,10,0,1,0,.1,20,10,10,0,0,0-.1-20ZM696.27,765.29a10,10,0,1,0-10,10A9.87,9.87,0,0,0,696.27,765.29ZM512.18,580.2a10,10,0,1,0,.24,19.95,10,10,0,0,0-.24-19.95ZM373,580.2a10,10,0,1,0,.24,20,10,10,0,0,0-.24-20Zm740.86,185a10,10,0,1,0-9.92,10.07A9.86,9.86,0,0,0,1113.85,765.23Zm-183.79-185A10,10,0,0,0,919.81,590a10.07,10.07,0,0,0,9.89,10.17,10,10,0,0,0,.36-19.94ZM522.24,204.65a10,10,0,1,0-9.83,10.16C516.87,215.09,522.35,211,522.24,204.65ZM94.48,264.93a10.09,10.09,0,0,0-9.76,9.89,9.94,9.94,0,0,0,10,10.05,10,10,0,1,0-.24-19.94Zm974.7,595.45a10,10,0,1,0-.2,20,9.83,9.83,0,0,0,10-9.93A9.72,9.72,0,0,0,1069.18,860.38Zm695.7,0a10,10,0,1,0,.32,20A9.83,9.83,0,0,0,1775,870.2,9.73,9.73,0,0,0,1764.88,860.38Zm-139.13,0a10,10,0,1,0,.2,20,9.81,9.81,0,0,0,9.83-10.12A9.72,9.72,0,0,0,1625.75,860.38Zm-417.7,0a10,10,0,1,0,.44,20,10,10,0,0,0-.44-20Zm-556.53,0a10,10,0,1,0,0,20,9.83,9.83,0,0,0,10-10A9.68,9.68,0,0,0,651.52,860.38ZM84.75,380.21A9.85,9.85,0,0,0,95,390c5.39-.06,9.39-4.49,9.59-9.93a9.94,9.94,0,1,0-19.87.14ZM1069,650.26a10,10,0,1,0,.19,20,10,10,0,0,0-.19-20Zm139.39,0a10,10,0,1,0-.2,20,10,10,0,0,0,.2-20ZM1069.12,790.35a10,10,0,1,0-.09,20,9.83,9.83,0,0,0,10-10A9.69,9.69,0,0,0,1069.12,790.35ZM929.7,650.26a10,10,0,1,0,.36,20A9.71,9.71,0,0,0,939.81,660C939.74,654.31,935.47,650.27,929.7,650.26ZM651.84,790.35a10,10,0,1,0,9.59,10.31A9.72,9.72,0,0,0,651.84,790.35Zm34.67-630.41a9.65,9.65,0,0,0-10.15,9.72,10,10,0,1,0,19.9.42A9.7,9.7,0,0,0,686.51,159.94Zm661,105a10,10,0,0,0-.4,19.91c6.26.23,10.48-5.18,10.16-9.73A9.76,9.76,0,0,0,1347.54,265ZM129.56,320a9.93,9.93,0,0,0,9.95-10.1,10,10,0,1,0-9.95,10.1ZM572,310.19a9.9,9.9,0,0,0,9.75,9.74A10,10,0,0,0,591.84,310a9.91,9.91,0,1,0-19.82.2Zm636.23-10.14a9.88,9.88,0,0,0-10,10.06,10,10,0,0,0,9.76,9.87,9.9,9.9,0,0,0,10.08-9.92A9.71,9.71,0,0,0,1208.25,300.05ZM1242.88,320a10,10,0,1,0-9.75-10.22A9.81,9.81,0,0,0,1242.88,320Zm139.53,0a10,10,0,0,0,9.85-10.2,10,10,0,1,0-9.85,10.2Zm-835.1,70.05a10,10,0,0,0,9.79-10.25,10,10,0,1,0-9.79,10.25Zm834.77,0a10,10,0,1,0-9.76-10.2A9.78,9.78,0,0,0,1382.08,390Zm557.15-70a9.94,9.94,0,0,0,9.8-10.25,10,10,0,1,0-9.8,10.25ZM547,475.08a9.86,9.86,0,0,0-9.78,9.73,9.87,9.87,0,1,0,19.73.32A9.9,9.9,0,0,0,547,475.08ZM651.38,720.31a10,10,0,1,0,.23,20,9.83,9.83,0,0,0,9.82-10.13C661.38,724.41,657.16,720.39,651.38,720.31Zm417.89,0a10,10,0,1,0-.39,20,9.83,9.83,0,0,0,10.13-9.82A9.68,9.68,0,0,0,1069.27,720.32Zm174-330.24a10,10,0,0,0,9.8-10.26,10,10,0,1,0-9.8,10.26Zm139,280.14a9.86,9.86,0,0,0,10-10,9.75,9.75,0,0,0-10-10,9.64,9.64,0,0,0-10,9.9A9.83,9.83,0,0,0,1382.23,670.22Zm-25-44.62a9.88,9.88,0,0,0-9.65-10.34,10,10,0,0,0-10.08,10,9.88,9.88,0,0,0,9.74,9.8A9.72,9.72,0,0,0,1357.28,625.6Zm164-375.6a10,10,0,0,0,10.17-9.87,10,10,0,1,0-19.9-.41A10,10,0,0,0,1521.25,250Zm-278,210.13a9.93,9.93,0,0,0,9.85-10.2,10,10,0,1,0-9.85,10.2ZM746,309.9a10,10,0,0,0,10.1,10,9.89,9.89,0,0,0,9.7-9.86,9.71,9.71,0,0,0-10-9.91A9.88,9.88,0,0,0,746,309.9ZM199.15,370.16a9.87,9.87,0,0,0-10,10,10.07,10.07,0,0,0,9.68,9.86A10,10,0,0,0,209,380.17,9.74,9.74,0,0,0,199.15,370.16Zm347.9,89.93A10,10,0,1,0,537.16,450,9.75,9.75,0,0,0,547.05,460.09Zm825.27,130.19a10,10,0,1,0,9.83-10.06A9.66,9.66,0,0,0,1372.32,590.28Zm-208.8-280a10.07,10.07,0,0,0,9.86,9.71,9.94,9.94,0,0,0,10-10,9.72,9.72,0,0,0-10-9.85A9.9,9.9,0,0,0,1163.52,310.23Zm219,149.89a9.92,9.92,0,0,0,9.79-10.25,9.82,9.82,0,0,0-10.19-9.76,10,10,0,0,0,.4,20ZM686.5,250a9.91,9.91,0,0,0,9.76-10.24,10,10,0,1,0-19.91.39A9.84,9.84,0,0,0,686.5,250Zm695.59,280.19a10,10,0,0,0,.35-20,9.68,9.68,0,0,0-10.11,9.78A9.87,9.87,0,0,0,1382.09,530.16ZM537.16,730.24a10,10,0,1,0,19.93.06,10,10,0,0,0-19.93-.06Zm-278.4-420a10,10,0,1,0,19.92-.43,10,10,0,1,0-19.92.43ZM1521.27,300a9.78,9.78,0,0,0-9.77,10.16,10,10,0,1,0,19.92-.38A9.73,9.73,0,0,0,1521.27,300ZM398,309.94a10,10,0,1,0,19.92.07,10,10,0,1,0-19.92-.07ZM686.35,300a9.76,9.76,0,0,0-10,9.92,10,10,0,1,0,19.92.1A9.74,9.74,0,0,0,686.35,300Zm382.73,105.09a9.92,9.92,0,1,0,0,19.84,9.68,9.68,0,0,0,9.81-9.65A9.79,9.79,0,0,0,1069.08,405.09Zm581.61-25.21a10,10,0,1,0,10.1-9.83A9.78,9.78,0,0,0,1650.69,379.88Zm-139.19.33a10,10,0,1,0,19.92-.37,10,10,0,1,0-19.92.37ZM1103.33,320a9.9,9.9,0,0,0,10.51-9.48,10,10,0,1,0-10.51,9.48Zm686.56-9.93a10,10,0,1,0,19.92-.22,10,10,0,1,0-19.92.22ZM547.05,810.34a9.93,9.93,0,0,0,10-10,10,10,0,1,0-10,10ZM268.73,370.05a10,10,0,1,0,9.95,10A9.78,9.78,0,0,0,268.73,370.05Zm139.18,0a10,10,0,1,0,10,10A9.78,9.78,0,0,0,407.91,370.05Zm1242.78-59.84a10,10,0,1,0,19.92-.48,10,10,0,1,0-19.92.48Zm-1337.32-105a9.83,9.83,0,1,0-19.65-.4,9.66,9.66,0,0,0,9.6,9.87A9.79,9.79,0,0,0,313.37,205.21ZM591.76,345.09a9.84,9.84,0,1,0-19.66.27,9.83,9.83,0,0,0,19.66-.27Zm919.76,315.09a10,10,0,1,0,19.9.08,10,10,0,0,0-19.9-.08Zm-546.7,10a9.84,9.84,0,0,0,9.83-10.14,10,10,0,0,0-19.91.27A9.84,9.84,0,0,0,964.82,670.22ZM408,530.17A9.87,9.87,0,0,0,417.87,520,10,10,0,1,0,408,530.17Zm1113.59,70a10,10,0,0,0-.3-19.94,9.64,9.64,0,0,0-9.79,10.09A9.81,9.81,0,0,0,1521.61,600.16ZM696.12,345.45a9.84,9.84,0,1,0-19.66-.93c-.1,5.78,4,10.26,9.61,10.36A9.69,9.69,0,0,0,696.12,345.45ZM407.8,600.16a9.82,9.82,0,0,0,10.08-9.88,10,10,0,1,0-10.08,9.88Zm686.13,60.21a10,10,0,1,0,19.91-.3,10,10,0,0,0-19.91.3Zm427.33-130.21a10,10,0,0,0,.4-20,9.69,9.69,0,0,0-10.14,9.76A9.87,9.87,0,0,0,1521.26,530.16Zm-417.15-70.07a10,10,0,1,0-10.17-9.79A9.72,9.72,0,0,0,1104.11,460.09Zm556.37-20a10,10,0,1,0,10.13,9.79A9.76,9.76,0,0,0,1660.48,440.11ZM1093.94,589.92a10,10,0,1,0,10.18-9.7A9.65,9.65,0,0,0,1093.94,589.92ZM964.53,600.16a10,10,0,0,0,.31-19.94,9.66,9.66,0,0,0-10.1,9.78A9.82,9.82,0,0,0,964.53,600.16ZM408,440.11a10,10,0,1,0,9.87,10.05A9.77,9.77,0,0,0,408,440.11Zm1113.55,0a10,10,0,1,0,9.87,10.05A9.76,9.76,0,0,0,1521.55,440.11ZM1103.71,740.28a9.89,9.89,0,0,0,10.13-9.85,10,10,0,0,0-19.9-.33A9.83,9.83,0,0,0,1103.71,740.28ZM1521.54,195a9.8,9.8,0,0,0-9.89,9.58c0,5.56,3.84,9.91,9.25,10.15a9.87,9.87,0,1,0,.64-19.73ZM686.16,810.34a9.89,9.89,0,0,0,10.1-9.89,10,10,0,1,0-10.1,9.89ZM1800,265a9.91,9.91,0,0,0-.23,19.81A9.91,9.91,0,0,0,1800,265Zm-895,325.24a9.65,9.65,0,0,0-10-9.85,9.77,9.77,0,1,0,.33,19.54A9.6,9.6,0,0,0,904.94,590.24Zm198.88,220.1a9.89,9.89,0,0,0,10-10,10,10,0,1,0-19.9-.11A9.84,9.84,0,0,0,1103.82,810.34ZM999.27,494.9a9.82,9.82,0,0,0,10.05-10,10,10,0,0,0-9.86-9.73,9.85,9.85,0,0,0-.19,19.69Zm-313,365.48a10,10,0,0,0,0,20,9.89,9.89,0,0,0,10-10A9.78,9.78,0,0,0,686.29,860.38Zm417.48,20a9.89,9.89,0,0,0,10.07-9.92,10,10,0,1,0-10.07,9.92ZM1024.4,310.06a9.86,9.86,0,1,0,19.71-.43,9.69,9.69,0,0,0-10-9.45A9.84,9.84,0,0,0,1024.4,310.06Zm636,570.33a9.91,9.91,0,0,0,10.2-9.79,10,10,0,1,0-10.2,9.79Zm34.75-385.5a9.82,9.82,0,0,0,10.11-9.88,10,10,0,0,0-9.79-9.8,9.87,9.87,0,0,0-9.82,9.72A9.76,9.76,0,0,0,1695.17,494.89Zm35.32-124.63a9.8,9.8,0,0,0-10.11,9.88,9.92,9.92,0,0,0,9.87,9.7,9.78,9.78,0,0,0,9.81-9.7A9.66,9.66,0,0,0,1730.49,370.26Zm-1019.2,500a9.6,9.6,0,0,0,9.55,9.89,9.76,9.76,0,1,0,.28-19.51A9.64,9.64,0,0,0,711.29,870.22Zm1123.82-465a9.8,9.8,0,1,0,9.32,10.16A9.76,9.76,0,0,0,1835.11,405.23ZM477.56,650.44a9.76,9.76,0,1,0,.13,19.52,9.62,9.62,0,0,0,9.64-9.81A9.72,9.72,0,0,0,477.56,650.44Zm636.06-375.11a9.61,9.61,0,0,0-9.59-10.27,9.72,9.72,0,0,0-9.94,9.48c0,5.74,4,10.15,9.63,10.23A9.62,9.62,0,0,0,1113.62,275.33ZM815.74,239.84a9.73,9.73,0,1,0,19.45-.09,9.44,9.44,0,0,0-9.74-9.59A9.59,9.59,0,0,0,815.74,239.84ZM1904.61,965.61a9.83,9.83,0,1,0-.48,19.65c5.49,0,10-4.54,9.82-9.58A9.68,9.68,0,0,0,1904.61,965.61ZM1103.7,370.26a9.6,9.6,0,0,0-9.51,9.93,9.49,9.49,0,0,0,9.86,9.56,9.39,9.39,0,0,0,9.47-9.92C1113.72,374.09,1108.55,370.09,1103.7,370.26ZM964.53,459.79a9.74,9.74,0,1,0-9.53-9.88A9.47,9.47,0,0,0,964.53,459.79Zm765.53,15.67a9.5,9.5,0,0,0-9.44,9.6c-.21,5.09,4.23,9.52,9.36,9.68a9.73,9.73,0,0,0,9.91-9.6C1739.93,479.82,1735.34,475.17,1730.06,475.46ZM433,660.15a9.5,9.5,0,0,0,9.75,9.62,9.58,9.58,0,0,0,.12-19.15C437.51,650.27,433,655,433,660.15ZM313.12,239.64a9.43,9.43,0,0,0-9.52-9.37,9.62,9.62,0,1,0,0,19.23A9.37,9.37,0,0,0,313.12,239.64Zm278.37-34.87a9.4,9.4,0,0,0-9.36-9.5,9.65,9.65,0,1,0-.23,19.29A9.52,9.52,0,0,0,591.49,204.77ZM512,685.6a9.64,9.64,0,1,0,9.85,9.57A9.51,9.51,0,0,0,512,685.6Zm69.73-245.13a9.58,9.58,0,0,0,0,19.15,9.58,9.58,0,1,0,0-19.15Zm-69.4-280.23a9.47,9.47,0,0,0-9.55,9.71,9.16,9.16,0,0,0,9.27,9.42,9.29,9.29,0,0,0,9.81-9.38C522.24,164.85,517.54,160.17,512.34,160.24Zm721.24,429.63a9.67,9.67,0,0,0,9.1,9.74,9.48,9.48,0,0,0,9.83-9.43c-.22-5.36-4-9.43-9.29-9.49A9.43,9.43,0,0,0,1233.58,589.87Zm-904.65.28a9.31,9.31,0,0,0,9.29,9.44,9.45,9.45,0,1,0,0-18.89A9.21,9.21,0,0,0,328.93,590.15ZM1217.67,730a9.35,9.35,0,0,0-18.7.23c0,5.24,4.59,9.72,9.44,9.26C1212.82,739.93,1217.84,735.62,1217.67,730ZM338.46,284.43a9.53,9.53,0,0,0,9.3-9.59c-.18-5-3.74-9.28-9.54-9.2a8.94,8.94,0,0,0-9.17,9.45A9.21,9.21,0,0,0,338.46,284.43Zm104.35,86.16a9.38,9.38,0,0,0-.48,18.75c5.35.17,9.9-4.18,9.56-9.1C452,374.74,448.1,370.65,442.81,370.59ZM1104,510.77a9.31,9.31,0,1,0-.3,18.61c5.38,0,9.77-4.67,9.36-9.38A9.17,9.17,0,0,0,1104,510.77ZM660.81,940.41a9.38,9.38,0,0,0-9-9.25,9.24,9.24,0,0,0-.49,18.47C655.26,950,660.65,946.56,660.81,940.41ZM268.75,440.88a9.31,9.31,0,0,0-9.18,8.75c-.42,4.77,4,9.37,8.88,9.47a9,9,0,0,0,9.34-8.89C277.89,445.35,273.6,440.8,268.75,440.88ZM1034.2,791.13a8.88,8.88,0,0,0-8.81,8.86c-.1,5.34,3.54,9.25,8.66,9.43a8.77,8.77,0,0,0,9-9A8.89,8.89,0,0,0,1034.2,791.13ZM477.64,195.84a9,9,0,0,0-9.14,8.92c.11,5.44,3.44,9,8.86,9.05s9-3.29,9.05-8.79S482.92,196.1,477.64,195.84Zm660.71,700.6a8.52,8.52,0,0,0-8.54,8.91c.08,5.56,3.41,8.86,8.92,8.95,5.33.1,9.35-4.58,8.88-9.12C1147.54,899.93,1143.78,896.53,1138.35,896.44Z" transform="translate(-48.96 -124.56)"/></svg>