<svg id="Слой_1" data-name="Слой 1" xmlns="http://www.w3.org/2000/svg" viewBox="0 0 1910.32 968.88"><defs><style>.cls-1{fill:none;stroke:#221200;stroke-miterlimit:10;stroke-width:9px;}</style></defs><path class="cls-1" d="M818.06,134.71H800.13m531.05,13.13h-3.1m30.85,0H1339.6m-305.67,0H979.59m-118.18,0H587.27M1220,161h-18.46m211.08,0H1344m-339.83,0h-9m-435.31,0H621.4M846,161H642.11M1422.2,174.1H1303.59m-116.19,0h-18.52m-654.56,0h-19.9m106.87,0H590.61m-41.37,0H532.4m-57.67,0h-54m223.56,0h200M1654,187.23H1295.69m-113.77,0h-21.77m87.46,0h-15.93m-657.67,0h-7.22m-143.74,0H390.29m427.15,0H685.18m1103.07,13.13H1270.88m-66.92,0h-2.91m-135.74,0H1029m226.06,0h-17.18m-636.9,0H524.45m-155.15,0h90.92m20.23,0h31.32m169.32,0H829.93m1004.36,13.13h-560.2m-130.14,0h-8.53m130.85,0H1156m-38.52,0H999.64m-482.44,0H478m-111.67,0H327.43m-69.16,0H199.08m258.31,0H396m135.37,0h84.36m188.53,0h-113m1112.6,13.13H1120.64m-27.4,0H989.76m-418.63,0H560.74m63.21,0H583.79m-44.52,0h-386m610.24,0H678.3m347.94,13.13H977.09m62.09,0h760.63m-1071,0H674.44m-155.44,0H135.88m463.28,0H568.78m285.39,0H817.29m896.22,13.13h-682m-18.35,0H954.05m805.93,0h-12m-1143.73,0h-32.5m-94.47,0H136.58m372.65,0h-5.47m212.84,0H676.36M1769.44,266h-24.76m-724.11,0H953.12m700.8,0h-585m-500.76,0H532.31m-74.46,0H99.93m606.82,0h-13m1086.37,13.13h-32.51m-736.17,0H985.22m663.25,0H1049.64m-612,0H189m-17.48,0H88m438.39,0H598.3m1185.47,13.13H1762m-853,0h-16.7m762.7,0H1034.17m-29,0H990.35m-14.11,0H965.72m-509,0H214.14m-90.64,0H107.93m490,0H521.13M1702.38,305.4h-6.63m88.13,0h-9m-883.79,0H874.91m94.18,0h722.38m-771.67,0H903.57m-430,0H218.19m-125.52,0H78.29m528,0H508.38m1207,13.13h-8.21m-819.54,0H867.66m830,0H946.31m-16.55,0H898.31m-420.84,0H221.64m394.48,0H493m1211.44,13.12H929.14m-706.6,0H613.18m1091.24,13.13H899m-282.8,0H213.85M1737,357.91h-5.74m-533.42,0h-60.41m85.79,0H1701.3m-578.08,0H909.64m-288.19,0H219.69M1756.84,371H1733.7m-741.12,0h-81m205.25,0h-4.2m583.61,0H1209.8m-19.42,0h-50m-52.92,0h-84.24m-425.88,0h-360m782.85,13.13H983.06m216.77,0h-41.27m519.17,0H1223m-141,0h-62.92m-79,0h-70m-323.74,0H210.94M1756.8,397.3h-12.11m-726.62,0h-16.24m80.8,0h-50.18m588.64,0H1228.67m-18.53,0H1088.4M930,397.3H867.69m769.31,0h35m-1163.88,0H200.93m1557.4,13.13h-15.21m-724.52,0h-5.17m-39.75,0h-2.91m238.09,0H1075.63m551.46,0H1235.73m-178.69,0h-17.35m-119.9,0H865.07m821.09,0h-15.43m-1184.38,0H193.87m1567.54,13.13h-32.86m-719.08,0h-9.94m640,0H1081.78m-25.84,0h-8.68m-134.23,0H865.72m829.88,0h-17.91M474,423.56H187.86m1552.29,13.13h-33.08m-723.79,0H915.73m731.68,0H1132.47m-670.06,0H191M1718.5,449.82h-6.39m-729.15,0H875m781.43,0H1131.29m-673,0H191M1069,463h-28.09m616.44,0h-530m-115.78,0H862.4m-422.76,0H195m1019,13.13h-356m806.18,0H1226.54m-804.39,0H205m1013.13,13.13H849.8m810.39,0H1237.71m-1022.47,0h-6.6m213,0H403.27m-36,0H224.64m1004,13.13H1143m-13.63,0H833.42m822.73,0H1275m400,0h-5.26m-1448.16,0h-8.27m208.35,0H407.52m-86.61,0H232.19m1441.49,13.13h-6.55m-24.31,0H1340.28m-201.85,0H825.3m325.82,0H1273m-1046.57,0h-9.78m204.14,0H410.4m-96.6,0H242M1289.08,528.6H1161.15m-19.36,0H818.1m793.87,0H1492m-14.4,0H1352.52m-1120.92,0h-8.74m86.51,0H244.64m1039.43,13.13H1166.21m-16.07,0H811.59m647.13,0h-85.91m239,0h-9m-19.47,0h-81.11m-1195.55,0H256.77m167.6,0H393.73m883.1,13.13h-97.5m-23.76,0H815.15m630.85,0h-71.25m313.22,0H1675.2m-87.47,0h-77.26m-1138.89,0H350.07m-41.14,0H258.78m188.35,0H430.9M1261.46,568h-76.91m-21.28,0H816.14m618.91,0h-53.7m305.14,0h-12m-74,0H1513.9M366,568H346.15m-33.64,0H263.58m189.36,0H484m757.57,13.13h-53m-17.49,0H813.49m611.75,0h-40.18m303.16,0h-7m-73.42,0h-71.31m-1174.63,0H282.05m931.72,13.13h-20.83m-6.84,0H811m615.18,0H1392.5m218.22,0h-49.66m-9.46,0h-11.89m-1146.87,0H331m859,13.13H813.58m611.52,0h-25.9m200.46,0h-24m-24,0h-9.32m-1151.8,0H349.3m891.17,13.13H824.34m583.14,0h25m122.11,0H1543m177.25,0h-17.61m-1313.09,0H370.71m82,0h26.93m755.18,13.13H834.28m726.7,0h-9m-114.38,0h-11.87m292,0h-9m-42.41,0h-6.79M395,633.63H374.41m62.34,0h91.09M1229,646.76H843.78m732.82,0h-18.52m-21.53,0h-9m148,0h-24.81m-1242.42,0H390.1m151.06,0H421.45M1221,659.89H954m-39.9,0H859.75m718.47,0h-16m-10.9,0h-13.43m129.82,0H1637m-1057.82,0H424M1210.92,673H981m603.3,0H1577m-6.93,0H1547.3m167,0h-1.82m26.32,0h-5.84m-57.49,0h-60.52M590.65,673H425.92m774.33,13.13H979.81m688.2,0H1615.2m-34.15,0h-24.13m218.31,0h-17.3m-1160.31,0H419.86m769.36,13.13h-212m720.45,0h-18.9m-88.44,0h-27.67m99.9,0h-40.18m149.11,0h50.09m-1226.29,0H409.83m769.32,13.13H980.78m722.13,0h-23m-83.58,0H1572.9m274.9,0h-66.74M630,712.41H404.14m768.15,13.13H990.58m867.84,0h-57.9m-1124.67,0H407.45m762,13.13H999.57m601.55,0h44.27m151.79,0H1863m-1174,0H402m769.16,13.13H1003.65m870.33,0h-17.14m-1159.17,0H405.94m769.5,13.13h-170m822.65,0h-6.54m-1125.41,0H416.83m761.55,13.13H1007.69m776.39,0h-40.91m85.89,0h-11.73m-1128.26,0H424.16m813,13.13h-14.59m-43.69,0H1003.17m779.88,0h-70.63m128,0h-24.48m-1135.32,0H431.47M1236,804.32h-26.52m-33.06,0H998.69m695.77,0h146.6m-1166.2,0H438.06m795.41,13.12h-34.55m-35.48,0H996.19m846.88,0H1687.76m-1012.92,0H448m782,13.13h-29.74m-51.41,0H999.91m855.51,0H1661.25m-987,0H468.48m756.26,13.13H1196.9m-54.72,0H1005.86m856,0H1637.31m-966,0H482.66m737.22,13.13h-26.32m-50.35,0H1012.86m857.08,0H1629.85m-962.76,0H483.52M1214.67,870h-18m-55.32,0H1014m858.4,0h-241m-985.23,0H484.31m644.51,13.13H1016.76m852.39,0H1627m-1000.43,0H485.12M1124,896.22H1021.84m842.69,0H1629.78m-1006.7,0H486m628.52,13.13H1029m827,0H1629.35m-1008.74,0H486.78m616.39,13.13H1035.6m644.64,0H1627m115.93,0h100.15m-1233.79,0H487.62m603.1,13.13h-50.63m598,0h-11.42m206.13,0H1761m-1153.18,0H489.56m1489.79,13.13h-11.48m-146,0h-59.94m-1160.31,0H491m1485.4,13.13h-18.19m-1372.5,0H490.92M1943.76,975H1936M586,975H488.88m1444.3,13.13H1919m-129.64,0h-14.55m-1213.66,0H494.72m1415.44,13.13h-20m-1340.14,0H497.41m1396.76,13.13h-10.26m-1326.95,0H509m43.68,13.13h-41m42.59,13.13H507.29m52.28,13.12H515m39.37,13.13h-33M555.62,1080h-22m48,13.13h-27M73.53,314.6v-5.23m12.93-28v28.13m12.91-41.16v36.38m12.93-5.93V264.36m12.91-19.5v49m12.91-7.49V243m12.93-13.35v50.25M164,283.71V225.45m12.92,51V220.56M189.8,457.65V417.43m0-134.44V217.55m12.92,260.7V395m0-109v-71.5m12.91-2V317.54m0,28.07V519m12.93,22.4V213.93m12.91,316.32V215M254.38,216V566.71m12.93,7V219.07M280.22,584V220.73M293.14,592V222.45m12.92,372.19V221M319,593.39v-17m0-71.74v-287m12.91,382.2V573.23m0-75.31V214.12M344.82,608.9v-40m0-74.89V214.68M357.73,614V552.62m0-52.76V215.63m12.93,418.75V592.19m0-103.89V202m12.91,443.71V592.79m0-104.23V193.44m12.91,352.69v-5.72m0,114.8V639.32m0-148.27V188.92M409.41,548.3v-7.23m0,218.13V699.31m0-55.19v-6.84m0-116.86V187.68m12.91,364.13v-7.4m0,237V640.66m0-164.25V175.82m12.92,386.56V551.3m0,253.9V632.76m0-457.63v291.8m12.92,94v-2.14m0,262.21V624.7m0-444.46v92.28m0,23.14V460m12.92,116V562.47m0,54.13V829.35m0-648.82v85.75m0,161.52V304.34M474,574.55V563.71M474,837V620.61m0-440.95v77m0,52V423.09m12.93-12.65V333m0-82.85V192.41m0,439.44V980.5m12.91-573.35V313.22m0-58.48V176.21m0,833.18V634.24m12.91-244V301.36m0-48.16V215m0,846.56V626.43m12.93-242.52V278.64m0-25.39V197.44m0,878.79V636.7m12.91-248V263.59m0-35.94v-54m0,914.77V649.18M551.5,383.35V263m0-102.44v-4.75m0,93.22v-5m0-27.66V180.25m0,847.39v-20.37m0-7.17V655.44m0,439.25v-52.18m12.92-663V265.81m0-100.16V151.34m0,99.12v-7m0-12.86V179.88m0,804.84V661.21m0,437.88v-12.92m12.92-743.63V285.67m0-131.08v21.24m0,85.29V193.63m0,468.92v320m0,116.37v-6.34m12.91-732.29V276.78m0-128.89V178m0,17.73v64.2m0,696V680.39m12.93-319.84V307.91m0-161.18v25.36m0,64.25V206.27m0,738.65V706.71m12.91-341.16V349.33m0-183.1V145.41m0,95.57V224m0,695.57V707.66M629,158.41V143m0,736.91V717.08m12.93-575.17v35.34m0,696.25V722.58m12.91-581.39v35.86m0,692.13V724.86m12.93-583.08V175.9m0,673.61V725.83m12.91-584.52V266.88m0,521.29v-50M693.6,149V270.23m0,496.25V750m12.91-484.6V146M719.44,250.3V144.53m12.91,93.11V145.83m12.93,88.73V142.45m12.91,88.31V144.89m12.91,76.94v-81M784,220.65V140.22M796.94,218V137.81M809.86,605V541.24m0-404.69v75.79m0,22.08v-.21m12.92,390.44V517.34m0-377.61v66.68m0,42.16V234.42M835.7,645.14v-147m0-312.62V146.68m0,101.1V231.7m12.91,12v-13m0-74.5V145.53m0,508.78V490.47M861.54,150v-6.54m0,521.83V462.43m12.91-317.55v-1.74m0,289.17v-48m0-57.26v-20.2m0,358.46V449.56m12.91,211.2V443.54m0-133.48v-4.42m0,129.47v-50m12.93,279.57V444m0-88.24v-8.77m0-13.8V284.33m0,149V385.24M913.2,660.73V439.15m0-106.67V303.64m0,118.88V341.4m12.92,313.52V434.61m0-111.65v-4.25m0,81.85V334.39M939,652V431.85m0-45.93V324.64M952,663.22v-232m0-152.89V254.76m0,131.62V313.65m12.91,352V429.85m0-49.56V289.64m0-9.16V248.29m0,159.16V402m12.93-17.68v-77.1m0-33.4V239.44m0,191.74V715m0-557.67v-7.25M990.71,397V306.92m0-7.65v-74.7m0,507.29V458.66m0-300.22v-7.8m12.91,278V306.76m0-12.32V210.65m0,252.1V848.44m0-687.51v-9.82m12.93,255.65V303.67m0-56.65V205.81m0,66.66v-4.84m0,623V470.25m0-319.82v-2.2m12.91,254.87V300.27m0-39.7V201.92m0,717.79V475.42m0-323.78v-3.7m12.93,800.4V460m0-259.3V423m12.91,521.87V461.15m0-39.22V198m12.92,745.27v-477m0-64.57V205.44m12.92,734.78V468.94m0-261.24V429m12.92,503.79V470.06m0-259.9v150m0,73.11V397M1107,916.09V467.38m0-253.1V372.1m0,61.54V393.06m12.93,506.72V469.87m0-242.53V370.88m0,61.56V392.05m12.91,101.47V396.79m0,479.38V514.3m0-142.89V215m12.91,300.2V397.21m0,435.24V540.26m0-161.22V221.66m12.93,315.11V214.67m0,606.15V566.41m0-373.12v-6.54m12.91,622v-43m0-568.95V169.23m0,553.86V586.2m0-34.57V216m12.92,364.85V213.59m0,489.56V599.49m0-423v-9.92m0,31.7v-5.3m12.92,685.21V813.31m0-644.73v-4.45m0,523.7V617.48m0-414V358.65m0,242.73V388m12.92,485.14V804.35m0-637.17v-5.49m0,510.19V616.26m0-19.54v-176m0-65.57V205.69m0,172.65V367m12.91,474.08v-56.4m0-195.08V502.53m0-113.19V208.82m0,270V425.66m0,227.75V611.5m12.93,15v-15m0-427.73V492.59m0,91.42V516.79M1249.07,574V516.27m0-18.72V200.06M1262,212.63V497.34m0,68.67V507.4m0-309.6v-7.11m12.93,316V212.6m0,342.67v-35m0-314v-13M1287.82,510V192.28M1300.75,512V175.22m0-30.5V139m12.91,369.71V168.21m0-18.18V141m12.92,368.74V166.14m0-14.87v-6m12.92,375.09V164.07m0-8.62v-8.86m12.92,392.07V160.31m0-7.11v-4.76m12.91,8.84V354.41h0V533.11m12.93,38.51v-409m12.91,438.46V161.43m12.91,461.93V179.74m0-6.65V162.46M1417,622V176.92m12.91,2.84V645.54m12.92-88.77V180.51m12.92,362.61V181.6m12.92,351.92V177.4m12.91,349.21V179.11m12.93,1.57V539.9m12.91,18.93V193.47M1520.34,573V188.28m12.93,472.4V649.3m0-63.78V187m12.91,492.49V661.34m0-27.37V185.43m12.93,516.89V670.45m0-72.31v-419m0,484.19V637.39m12.91,79.8V679.51m0-69.56V179.76m0,495V647.55m12.92,79.72V700.45m0-165.17V181.41m0,438.59V558.39m12.92,182.85V729.61m0-176.38v-8.07m0-13V188.66m0,420.08V572.13m12.92,171.07v-8.59m0-204.7V189.12m0,498.46V676.36m12.91,261.82V880.29m0-171.11V670m0-276.46V192.08m0,329.51V414.29m0,331V733m12.92,203.2V844m0-134.27V658.91m0-258.48V188.66m0,225.7V519.14m0,227.52V735.71m12.92,195.4V834.5m0-436.07V294.56m0,214.84V447.1m0-174.28V190.06m0,523.43V645.37m12.91,285V831.55m0-420.69V300.22m0-38.34v-66.4m0,495.84v-55m12.93,288.84V827m0-246.85V551.6m0-289.75V197.29m0,234V406.37m0-28.28V299m0,414.55V699.94m12.91,218.58v-108m0-510V375.1m0,55.55V421m0-161.6V196.09m0,480.29V711.9m12.92,203.54V802.11m0-173v-6.3m0-361V197.5m0,247.66v-3.29m0-100.95v-30.1m0,372.73v-6.46M1714.12,914V786.83m0-452.7v-8.47m0,101.39v30.41m0-212.39V199.41m0,435.35V619.32m12.92,296V789.45M1727,249V194.05m0,239.85v-8.39m0-62.52v-2.05M1740,933.57V779.16M1740,195v80.71M1740,433V388.19m0-9.16V363.54m12.93,562.81V770.76m0-397.1v-6.82m0,63.75V400.71m0-110.68v-93.5m0,496.29v-3m12.91,270.74V768.74m0-465.19V269.08m0-15V198.89m0,488.14v25.52m12.91,282.2V770.48m0-457.7V286.62m0-34.47V202m0,513.56V704.15m12.93,258.32V805m0-557.37V205.27m0,516.44V695.89m12.91,260.41v-149m0-570.2v-5.92m0-11.75v-8.62m0,531.87V697.45M1817.47,951V766.63m0-545.53V210.21m0,541.69V701.66m12.91,233.71V787.22m0-47.12V708m12.92,211.87v-97.1m0-78.74V714.42m12.92,192.46V843.19m0-88V738.53m12.92,20.89v-6.31m12.91,264.4v-11.26m12.92,6V998.47m12.92,3.46v-7.79M1920.8,996V985.59m12.93.84v-10.8m25.83-2.93v-15m12.92,6V948.57" transform="translate(-69.03 -130.21)"/></svg>