<svg id="Слой_1" data-name="Слой 1" xmlns="http://www.w3.org/2000/svg" viewBox="0 0 1815.6 922.8"><defs><style>.cls-1{fill:#313131;}</style></defs><path class="cls-1" d="M525.7,1046.3a15,15,0,1,1-15,15A15,15,0,0,1,525.7,1046.3Zm1324.2-40.8a15,15,0,1,0,15-15A15,15,0,0,0,1849.9,1005.5Zm-1339.2,0a15,15,0,1,0,15-15A15,15,0,0,0,510.7,1005.5Zm0-55.8a15,15,0,1,0,15-15A15,15,0,0,0,510.7,949.7Zm-55.8,0a15,15,0,1,0,15-15A15,15,0,0,0,454.9,949.7Zm1339.2-55.8a15,15,0,1,0,15-15A15,15,0,0,0,1794.1,893.9Zm-55.8,0a15,15,0,1,0,15-15A15,15,0,0,0,1738.3,893.9Zm-55.8,0a15,15,0,1,0,15-15A15,15,0,0,0,1682.5,893.9Zm-55.8,0a15,15,0,1,0,15-15A15,15,0,0,0,1626.7,893.9Zm-558,0a15,15,0,1,0,15-15A15,15,0,0,0,1068.7,893.9Zm-55.8,0a15,15,0,1,0,15-15A15,15,0,0,0,1012.9,893.9Zm-446.4,0a15,15,0,1,0,15-15A15,15,0,0,0,566.5,893.9Zm-55.8,0a15,15,0,1,0,15-15A15,15,0,0,0,510.7,893.9Zm-55.8,0a15,15,0,1,0,15-15A15,15,0,0,0,454.9,893.9Zm1339.2-55.8a15,15,0,1,0,15-15A15,15,0,0,0,1794.1,838.1Zm-55.8,0a15,15,0,1,0,15-15A15,15,0,0,0,1738.3,838.1Zm-55.8,0a15,15,0,1,0,15-15A15,15,0,0,0,1682.5,838.1Zm-55.8,0a15,15,0,1,0,15-15A15,15,0,0,0,1626.7,838.1Zm-446.4,0a15,15,0,1,0,15-15A15,15,0,0,0,1180.3,838.1Zm-111.6,0a15,15,0,1,0,15-15A15,15,0,0,0,1068.7,838.1Zm-55.8,0a15,15,0,1,0,15-15A15,15,0,0,0,1012.9,838.1Zm-390.6,0a15,15,0,1,0,15-15A15,15,0,0,0,622.3,838.1Zm-55.8,0a15,15,0,1,0,15-15A15,15,0,0,0,566.5,838.1Zm-55.8,0a15,15,0,1,0,15-15A15,15,0,0,0,510.7,838.1Zm-55.8,0a15,15,0,1,0,15-15A15,15,0,0,0,454.9,838.1Zm1339.2-55.8a15,15,0,1,0,15-15A15,15,0,0,0,1794.1,782.3Zm-55.8,0a15,15,0,1,0,15-15A15,15,0,0,0,1738.3,782.3Zm-55.8,0a15,15,0,1,0,15-15A15,15,0,0,0,1682.5,782.3Zm-502.2,0a15,15,0,1,0,15-15A15,15,0,0,0,1180.3,782.3Zm-55.8,0a15,15,0,1,0,15-15A15,15,0,0,0,1124.5,782.3Zm-55.8,0a15,15,0,1,0,15-15A15,15,0,0,0,1068.7,782.3Zm-55.8,0a15,15,0,1,0,15-15A15,15,0,0,0,1012.9,782.3Zm-55.8,0a15,15,0,1,0,15-15A15,15,0,0,0,957.1,782.3Zm-334.8,0a15,15,0,1,0,15-15A15,15,0,0,0,622.3,782.3Zm-55.8,0a15,15,0,1,0,15-15A15,15,0,0,0,566.5,782.3Zm-55.8,0a15,15,0,1,0,15-15A15,15,0,0,0,510.7,782.3Zm-55.8,0a15,15,0,1,0,15-15A15,15,0,0,0,454.9,782.3Zm-55.8,0a15,15,0,1,0,15-15A15,15,0,0,0,399.1,782.3Zm1395-55.8a15,15,0,1,0,15-15A15,15,0,0,0,1794.1,726.5Zm-223.2,0a15,15,0,1,0,15-15A15,15,0,0,0,1570.9,726.5Zm-446.4,0a15,15,0,1,0,15-15A15,15,0,0,0,1124.5,726.5Zm-55.8,0a15,15,0,1,0,15-15A15,15,0,0,0,1068.7,726.5Zm-55.8,0a15,15,0,1,0,15-15A15,15,0,0,0,1012.9,726.5Zm-55.8,0a15,15,0,1,0,15-15A15,15,0,0,0,957.1,726.5Zm-334.8,0a15,15,0,1,0,15-15A15,15,0,0,0,622.3,726.5Zm-55.8,0a15,15,0,1,0,15-15A15,15,0,0,0,566.5,726.5Zm-55.8,0a15,15,0,1,0,15-15A15,15,0,0,0,510.7,726.5Zm-55.8,0a15,15,0,1,0,15-15A15,15,0,0,0,454.9,726.5Zm-55.8,0a15,15,0,1,0,15-15A15,15,0,0,0,399.1,726.5Zm1227.6-55.8a15,15,0,1,0,15-15A15,15,0,0,0,1626.7,670.7Zm-55.8,0a15,15,0,1,0,15-15A15,15,0,0,0,1570.9,670.7Zm-55.8,0a15,15,0,1,0,15-15A15,15,0,0,0,1515.1,670.7Zm-390.6,0a15,15,0,1,0,15-15A15,15,0,0,0,1124.5,670.7Zm-55.8,0a15,15,0,1,0,15-15A15,15,0,0,0,1068.7,670.7Zm-55.8,0a15,15,0,1,0,15-15A15,15,0,0,0,1012.9,670.7Zm-55.8,0a15,15,0,1,0,15-15A15,15,0,0,0,957.1,670.7Zm-446.4,0a15,15,0,1,0,15-15A15,15,0,0,0,510.7,670.7Zm-55.8,0a15,15,0,1,0,15-15A15,15,0,0,0,454.9,670.7Zm-55.8,0a15,15,0,1,0,15-15A15,15,0,0,0,399.1,670.7Zm1283.4-55.8a15,15,0,1,0,15-15A15,15,0,0,0,1682.5,614.9Zm-55.8,0a15,15,0,1,0,15-15A15,15,0,0,0,1626.7,614.9Zm-111.6,0a15,15,0,1,0,15-15A15,15,0,0,0,1515.1,614.9Zm-334.8,0a15,15,0,1,0,15-15A15,15,0,0,0,1180.3,614.9Zm-55.8,0a15,15,0,1,0,15-15A15,15,0,0,0,1124.5,614.9Zm-55.8,0a15,15,0,1,0,15-15A15,15,0,0,0,1068.7,614.9Zm-55.8,0a15,15,0,1,0,15-15A15,15,0,0,0,1012.9,614.9Zm-55.8,0a15,15,0,1,0,15-15A15,15,0,0,0,957.1,614.9Zm-55.8,0a15,15,0,1,0,15-15A15,15,0,0,0,901.3,614.9Zm-55.8,0a15,15,0,1,0,15-15A15,15,0,0,0,845.5,614.9Zm-55.8,0a15,15,0,1,0,15-15A15,15,0,0,0,789.7,614.9Zm-334.8,0a15,15,0,1,0,15-15A15,15,0,0,0,454.9,614.9Zm-55.8,0a15,15,0,1,0,15-15A15,15,0,0,0,399.1,614.9Zm-55.8,0a15,15,0,1,0,15-15A15,15,0,0,0,343.3,614.9Zm1171.8-55.8a15,15,0,1,0,15-15A15,15,0,0,0,1515.1,559.1Zm-167.4,0a15,15,0,1,0,15-15A15,15,0,0,0,1347.7,559.1Zm-167.4,0a15,15,0,1,0,15-15A15,15,0,0,0,1180.3,559.1Zm-55.8,0a15,15,0,1,0,15-15A15,15,0,0,0,1124.5,559.1Zm-55.8,0a15,15,0,1,0,15-15A15,15,0,0,0,1068.7,559.1Zm-55.8,0a15,15,0,1,0,15-15A15,15,0,0,0,1012.9,559.1Zm-55.8,0a15,15,0,1,0,15-15A15,15,0,0,0,957.1,559.1Zm-55.8,0a15,15,0,1,0,15-15A15,15,0,0,0,901.3,559.1Zm-55.8,0a15,15,0,1,0,15-15A15,15,0,0,0,845.5,559.1Zm-55.8,0a15,15,0,1,0,15-15A15,15,0,0,0,789.7,559.1Zm-502.2,0a15,15,0,1,0,15-15A15,15,0,0,0,287.5,559.1Zm-55.8,0a15,15,0,1,0,15-15A15,15,0,0,0,231.7,559.1Zm1395-55.8a15,15,0,1,0,15-15A15,15,0,0,0,1626.7,503.3Zm-55.8,0a15,15,0,1,0,15-15A15,15,0,0,0,1570.9,503.3Zm-55.8,0a15,15,0,1,0,15-15A15,15,0,0,0,1515.1,503.3Zm-55.8,0a15,15,0,1,0,15-15A15,15,0,0,0,1459.3,503.3Zm-55.8,0a15,15,0,1,0,15-15A15,15,0,0,0,1403.5,503.3Zm-55.8,0a15,15,0,1,0,15-15A15,15,0,0,0,1347.7,503.3Zm-111.6,0a15,15,0,1,0,15-15A15,15,0,0,0,1236.1,503.3Zm-55.8,0a15,15,0,1,0,15-15A15,15,0,0,0,1180.3,503.3Zm-55.8,0a15,15,0,1,0,15-15A15,15,0,0,0,1124.5,503.3Zm-55.8,0a15,15,0,1,0,15-15A15,15,0,0,0,1068.7,503.3Zm-55.8,0a15,15,0,1,0,15-15A15,15,0,0,0,1012.9,503.3Zm-55.8,0a15,15,0,1,0,15-15A15,15,0,0,0,957.1,503.3Zm-55.8,0a15,15,0,1,0,15-15A15,15,0,0,0,901.3,503.3Zm-55.8,0a15,15,0,1,0,15-15A15,15,0,0,0,845.5,503.3Zm-55.8,0a15,15,0,1,0,15-15A15,15,0,0,0,789.7,503.3Zm-558,0a15,15,0,1,0,15-15A15,15,0,0,0,231.7,503.3Zm-55.8,0a15,15,0,1,0,15-15A15,15,0,0,0,175.9,503.3Zm1450.8-55.8a15,15,0,1,0,15-15A15,15,0,0,0,1626.7,447.5Zm-55.8,0a15,15,0,1,0,15-15A15,15,0,0,0,1570.9,447.5Zm-55.8,0a15,15,0,1,0,15-15A15,15,0,0,0,1515.1,447.5Zm-55.8,0a15,15,0,1,0,15-15A15,15,0,0,0,1459.3,447.5Zm-55.8,0a15,15,0,1,0,15-15A15,15,0,0,0,1403.5,447.5Zm-55.8,0a15,15,0,1,0,15-15A15,15,0,0,0,1347.7,447.5Zm-55.8,0a15,15,0,1,0,15-15A15,15,0,0,0,1291.9,447.5Zm-55.8,0a15,15,0,1,0,15-15A15,15,0,0,0,1236.1,447.5Zm-55.8,0a15,15,0,1,0,15-15A15,15,0,0,0,1180.3,447.5Zm-55.8,0a15,15,0,1,0,15-15A15,15,0,0,0,1124.5,447.5Zm-55.8,0a15,15,0,1,0,15-15A15,15,0,0,0,1068.7,447.5Zm-55.8,0a15,15,0,1,0,15-15A15,15,0,0,0,1012.9,447.5Zm-55.8,0a15,15,0,1,0,15-15A15,15,0,0,0,957.1,447.5Zm-55.8,0a15,15,0,1,0,15-15A15,15,0,0,0,901.3,447.5Zm-55.8,0a15,15,0,1,0,15-15A15,15,0,0,0,845.5,447.5Zm-502.2,0a15,15,0,1,0,15-15A15,15,0,0,0,343.3,447.5Zm-55.8,0a15,15,0,1,0,15-15A15,15,0,0,0,287.5,447.5Zm-55.8,0a15,15,0,1,0,15-15A15,15,0,0,0,231.7,447.5Zm-55.8,0a15,15,0,1,0,15-15A15,15,0,0,0,175.9,447.5Zm1450.8-55.8a15,15,0,1,0,15-15A15,15,0,0,0,1626.7,391.7Zm-55.8,0a15,15,0,1,0,15-15A15,15,0,0,0,1570.9,391.7Zm-55.8,0a15,15,0,1,0,15-15A15,15,0,0,0,1515.1,391.7Zm-55.8,0a15,15,0,1,0,15-15A15,15,0,0,0,1459.3,391.7Zm-55.8,0a15,15,0,1,0,15-15A15,15,0,0,0,1403.5,391.7Zm-55.8,0a15,15,0,1,0,15-15A15,15,0,0,0,1347.7,391.7Zm-55.8,0a15,15,0,1,0,15-15A15,15,0,0,0,1291.9,391.7Zm-55.8,0a15,15,0,1,0,15-15A15,15,0,0,0,1236.1,391.7Zm-111.6,0a15,15,0,1,0,15-15A15,15,0,0,0,1124.5,391.7Zm-55.8,0a15,15,0,1,0,15-15A15,15,0,0,0,1068.7,391.7Zm-55.8,0a15,15,0,1,0,15-15A15,15,0,0,0,1012.9,391.7Zm-167.4,0a15,15,0,1,0,15-15A15,15,0,0,0,845.5,391.7Zm-390.6,0a15,15,0,1,0,15-15A15,15,0,0,0,454.9,391.7Zm-55.8,0a15,15,0,1,0,15-15A15,15,0,0,0,399.1,391.7Zm-55.8,0a15,15,0,1,0,15-15A15,15,0,0,0,343.3,391.7Zm-55.8,0a15,15,0,1,0,15-15A15,15,0,0,0,287.5,391.7Zm-55.8,0a15,15,0,1,0,15-15A15,15,0,0,0,231.7,391.7Zm-55.8,0a15,15,0,1,0,15-15A15,15,0,0,0,175.9,391.7Zm1506.6-55.8a15,15,0,1,0,15-15A15,15,0,0,0,1682.5,335.9Zm-55.8,0a15,15,0,1,0,15-15A15,15,0,0,0,1626.7,335.9Zm-55.8,0a15,15,0,1,0,15-15A15,15,0,0,0,1570.9,335.9Zm-55.8,0a15,15,0,1,0,15-15A15,15,0,0,0,1515.1,335.9Zm-55.8,0a15,15,0,1,0,15-15A15,15,0,0,0,1459.3,335.9Zm-55.8,0a15,15,0,1,0,15-15A15,15,0,0,0,1403.5,335.9Zm-55.8,0a15,15,0,1,0,15-15A15,15,0,0,0,1347.7,335.9Zm-55.8,0a15,15,0,1,0,15-15A15,15,0,0,0,1291.9,335.9Zm-55.8,0a15,15,0,1,0,15-15A15,15,0,0,0,1236.1,335.9Zm-55.8,0a15,15,0,1,0,15-15A15,15,0,0,0,1180.3,335.9Zm-55.8,0a15,15,0,1,0,15-15A15,15,0,0,0,1124.5,335.9Zm-55.8,0a15,15,0,1,0,15-15A15,15,0,0,0,1068.7,335.9Zm-55.8,0a15,15,0,1,0,15-15A15,15,0,0,0,1012.9,335.9Zm-55.8,0a15,15,0,1,0,15-15A15,15,0,0,0,957.1,335.9Zm-55.8,0a15,15,0,1,0,15-15A15,15,0,0,0,901.3,335.9Zm-334.8,0a15,15,0,1,0,15-15A15,15,0,0,0,566.5,335.9Zm-55.8,0a15,15,0,1,0,15-15A15,15,0,0,0,510.7,335.9Zm-55.8,0a15,15,0,1,0,15-15A15,15,0,0,0,454.9,335.9Zm-55.8,0a15,15,0,1,0,15-15A15,15,0,0,0,399.1,335.9Zm-55.8,0a15,15,0,1,0,15-15A15,15,0,0,0,343.3,335.9Zm-55.8,0a15,15,0,1,0,15-15A15,15,0,0,0,287.5,335.9Zm-55.8,0a15,15,0,1,0,15-15A15,15,0,0,0,231.7,335.9Zm-55.8,0a15,15,0,1,0,15-15A15,15,0,0,0,175.9,335.9Zm1562.4-55.8a15,15,0,1,0,15-15A15,15,0,0,0,1738.3,280.1Zm-111.6,0a15,15,0,1,0,15-15A15,15,0,0,0,1626.7,280.1Zm-55.8,0a15,15,0,1,0,15-15A15,15,0,0,0,1570.9,280.1Zm-55.8,0a15,15,0,1,0,15-15A15,15,0,0,0,1515.1,280.1Zm-55.8,0a15,15,0,1,0,15-15A15,15,0,0,0,1459.3,280.1Zm-55.8,0a15,15,0,1,0,15-15A15,15,0,0,0,1403.5,280.1Zm-55.8,0a15,15,0,1,0,15-15A15,15,0,0,0,1347.7,280.1Zm-55.8,0a15,15,0,1,0,15-15A15,15,0,0,0,1291.9,280.1Zm-55.8,0a15,15,0,1,0,15-15A15,15,0,0,0,1236.1,280.1Zm-55.8,0a15,15,0,1,0,15-15A15,15,0,0,0,1180.3,280.1Zm-55.8,0a15,15,0,1,0,15-15A15,15,0,0,0,1124.5,280.1Zm-55.8,0a15,15,0,1,0,15-15A15,15,0,0,0,1068.7,280.1Zm-55.8,0a15,15,0,1,0,15-15A15,15,0,0,0,1012.9,280.1Zm-55.8,0a15,15,0,1,0,15-15A15,15,0,0,0,957.1,280.1Zm-111.6,0a15,15,0,1,0,15-15A15,15,0,0,0,845.5,280.1Zm-334.8,0a15,15,0,1,0,15-15A15,15,0,0,0,510.7,280.1Zm-111.6,0a15,15,0,1,0,15-15A15,15,0,0,0,399.1,280.1Zm-55.8,0a15,15,0,1,0,15-15A15,15,0,0,0,343.3,280.1Zm-55.8,0a15,15,0,1,0,15-15A15,15,0,0,0,287.5,280.1Zm-55.8,0a15,15,0,1,0,15-15A15,15,0,0,0,231.7,280.1Zm-55.8,0a15,15,0,1,0,15-15A15,15,0,0,0,175.9,280.1Zm-111.6,0a15,15,0,1,0,15-15A15,15,0,0,0,64.3,280.1Zm1674-55.8a15,15,0,1,0,15-15A15,15,0,0,0,1738.3,224.3Zm-55.8,0a15,15,0,1,0,15-15A15,15,0,0,0,1682.5,224.3Zm-55.8,0a15,15,0,1,0,15-15A15,15,0,0,0,1626.7,224.3Zm-55.8,0a15,15,0,1,0,15-15A15,15,0,0,0,1570.9,224.3Zm-55.8,0a15,15,0,1,0,15-15A15,15,0,0,0,1515.1,224.3Zm-55.8,0a15,15,0,1,0,15-15A15,15,0,0,0,1459.3,224.3Zm-55.8,0a15,15,0,1,0,15-15A15,15,0,0,0,1403.5,224.3Zm-55.8,0a15,15,0,1,0,15-15A15,15,0,0,0,1347.7,224.3Zm-55.8,0a15,15,0,1,0,15-15A15,15,0,0,0,1291.9,224.3Zm-55.8,0a15,15,0,1,0,15-15A15,15,0,0,0,1236.1,224.3Zm-55.8,0a15,15,0,1,0,15-15A15,15,0,0,0,1180.3,224.3Zm-55.8,0a15,15,0,1,0,15-15A15,15,0,0,0,1124.5,224.3Zm-55.8,0a15,15,0,1,0,15-15A15,15,0,0,0,1068.7,224.3Zm-55.8,0a15,15,0,1,0,15-15A15,15,0,0,0,1012.9,224.3Zm-55.8,0a15,15,0,1,0,15-15A15,15,0,0,0,957.1,224.3Zm-167.4,0a15,15,0,1,0,15-15A15,15,0,0,0,789.7,224.3Zm-111.6,0a15,15,0,1,0,15-15A15,15,0,0,0,678.1,224.3Zm-55.8,0a15,15,0,1,0,15-15A15,15,0,0,0,622.3,224.3Zm-55.8,0a15,15,0,1,0,15-15A15,15,0,0,0,566.5,224.3Zm-55.8,0a15,15,0,1,0,15-15A15,15,0,0,0,510.7,224.3Zm-55.8,0a15,15,0,1,0,15-15A15,15,0,0,0,454.9,224.3Zm-55.8,0a15,15,0,1,0,15-15A15,15,0,0,0,399.1,224.3Zm-55.8,0a15,15,0,1,0,15-15A15,15,0,0,0,343.3,224.3Zm-55.8,0a15,15,0,1,0,15-15A15,15,0,0,0,287.5,224.3Zm-55.8,0a15,15,0,1,0,15-15A15,15,0,0,0,231.7,224.3Zm-55.8,0a15,15,0,1,0,15-15A15,15,0,0,0,175.9,224.3Zm-55.8,0a15,15,0,1,0,15-15A15,15,0,0,0,120.1,224.3Zm1450.8-55.8a15,15,0,1,0,15-15A15,15,0,0,0,1570.9,168.5Zm-55.8,0a15,15,0,1,0,15-15A15,15,0,0,0,1515.1,168.5Zm-55.8,0a15,15,0,1,0,15-15A15,15,0,0,0,1459.3,168.5Zm-55.8,0a15,15,0,1,0,15-15A15,15,0,0,0,1403.5,168.5Zm-55.8,0a15,15,0,1,0,15-15A15,15,0,0,0,1347.7,168.5Zm-55.8,0a15,15,0,1,0,15-15A15,15,0,0,0,1291.9,168.5Zm-55.8,0a15,15,0,1,0,15-15A15,15,0,0,0,1236.1,168.5Zm-111.6,0a15,15,0,1,0,15-15A15,15,0,0,0,1124.5,168.5Zm-334.8,0a15,15,0,1,0,15-15A15,15,0,0,0,789.7,168.5Zm-55.8,0a15,15,0,1,0,15-15A15,15,0,0,0,733.9,168.5Zm-55.8,0a15,15,0,1,0,15-15A15,15,0,0,0,678.1,168.5Zm-167.4,0a15,15,0,1,0,15-15A15,15,0,0,0,510.7,168.5Zm-55.8,0a15,15,0,1,0,15-15A15,15,0,0,0,454.9,168.5Zm-55.8,0a15,15,0,1,0,15-15A15,15,0,0,0,399.1,168.5Zm-55.8,0a15,15,0,1,0,15-15A15,15,0,0,0,343.3,168.5Z" transform="translate(-64.3 -153.5)"/></svg>