<svg id="Слой_1" data-name="Слой 1" xmlns="http://www.w3.org/2000/svg" viewBox="0 0 1901.06 958.45"><defs><style>.cls-1{fill:none;}</style></defs><path class="cls-1" d="M800.89,124.14H783m528,13.13h3.1m27.75,0h-19.33m-360,0h54.34m-172.52,0H570.1m614.29,13.13h18.46m192.62,0h-68.69M987,150.4h-9m-435.31,0h61.55m20.71,0h203.9m457.58,13.13H1405m-234.8,0h-18.52m-654.56,0h-19.9m106.87,0H573.44m-58.21,0h16.84m-128.48,0h54m169.59,0h200m451.34,13.13h358.27m-472,0H1143m87.46,0h-15.93m-657.67,0h-7.22m-143.74,0H373.12m427.15,0H668m1103.07,13.13H1253.71m-66.92,0h-2.91m-135.74,0h-36.28m226.06,0h-17.18m-636.9,0H507.28m-155.15,0h90.92m20.23,0H494.6m169.32,0H812.76m1004.36,13.13h-560.2m-130.14,0h-8.53m130.85,0H1138.81m-38.52,0H982.47m-521.66,0H500m-150.89,0H310.26m-128.35,0H241.1m137.72,0h61.4m158.33,0H514.19m272.89,0h-113m1112.6,13.13H1103.47m-27.4,0H972.59m-418.63,0H543.57m63.21,0H566.62m-430.57,0H522.1m224.19,0H661.13m347.94,13.13H959.92m822.72,0H1022m-310.39,0H657.27m-155.44,0H118.71m463.28,0H551.61m285.39,0H800.12m896.22,13.13h-682m-18.35,0H936.88m805.93,0h-12m-1176.23,0h32.5m-127,0H119.41m372.65,0h-5.47m212.84,0H659.19m1093.08,13.13h-24.76m-724.11,0H936m700.8,0h-585m-500.76,0H515.14m-432.38,0H440.68m248.9,0h-13m1053.86,13.13H1763m-794.9,0h26.22m637,0H1032.47m-612,0H171.81m-17.48,0H70.86m438.39,0h71.88M1766.6,281.7h-21.77m-853,0h-16.7m762.7,0H1017m-29,0H973.18m-14.11,0H948.55m-509,0H197m-90.64,0H90.76m490,0H504m1174.62,13.13h6.63m81.5,0h-9m-883.79,0H857.74m94.18,0H1674.3m-771.67,0H886.4m-430,0H201m-125.52,0H61.12m528,0H491.21m1207,13.13H1690m-819.54,0H850.49m830,0H929.14m-16.55,0H881.14M460.3,308H204.47M599,308H475.81m1211.44,13.12H912m-706.6,0H596m1091.24,13.13H881.79m-282.8,0H196.68m1523.11,13.13h-5.74m-533.42,0h-60.41m85.79,0h478.12m-578.08,0H892.47m-288.19,0H202.52m1537.15,13.13h-23.14m-741.12,0h-81m205.25,0h-4.2m583.61,0H1192.63m-19.42,0h-50m-52.92,0H986.06m-425.88,0h-360M983.05,373.6H965.89m175.5,0h41.27m477.9,0H1205.85m-141,0H1002m-79,0H853m-323.74,0H193.77m1545.86,13.13h-12.11m-726.62,0H984.66m80.8,0h-50.18m588.64,0H1211.5m-18.53,0H1071.23m-158.44,0H850.52m769.31,0h35m-1471.09,0H491m1250.19,13.13H1726m-724.52,0h-5.17m-39.75,0H953.6m238.09,0H1058.46m551.46,0H1218.56m-178.69,0h-17.35m-119.9,0H847.9m821.09,0h-15.43m-1184.38,0H176.7M1744.24,413h-32.86m-729,0h9.94m630.09,0H1064.61m-25.84,0h-8.68m-134.23,0H848.55m829.88,0h-17.91M456.79,413H170.69M1723,426.12H1689.9m-723.79,0H898.56m731.68,0H1115.3m-941.46,0h271.4m1256.09,13.13h-6.39m-729.15,0h-108m256.32,0h525.11m-1198.12,0H173.84m849.91,13.13h28.09m588.35,0h-530m-115.78,0H845.23m-422.76,0H177.81m1019,13.13h-356m806.18,0H1209.37m-804.39,0H187.85M1201,478.64H832.63m810.39,0H1220.54m-1022.47,0h-6.6m213,0H386.1m-36,0H207.47m1004,13.13h-85.62m-13.63,0H816.25m822.73,0H1257.8m400,0h-5.26m-1448.16,0h-8.27m208.35,0H390.35m-86.61,0H215M1656.51,504.9H1650m-326.85,0h302.54m-504.39,0H808.13m325.82,0h121.84m-1046.57,0h-9.78m204.14,0H393.23m-96.6,0H224.78M1271.91,518H1144m-19.36,0H800.93m793.87,0h-120m-14.4,0H1335.35M214.43,518h-8.74m86.51,0H227.47M1266.9,531.16H1149m-354.62,0H1133m308.58,0h-85.91m229.94,0h9m-28.5,0H1485m-1195.55,0H239.6m167.6,0H376.56m883.1,13.13h-97.5m-23.76,0H798m630.85,0h-71.25m313.22,0H1658m-87.47,0H1493.3m-1138.89,0H332.9m-41.14,0H241.61m172.12,0H430m814.33,13.12h-76.91m-21.28,0H799m618.91,0h-53.7m305.14,0h-12m-160.59,0h86.58M329,557.41h19.89m-53.53,0H246.41m220.42,0H435.77m788.63,13.13h-53m-17.49,0H796.32m611.75,0h-40.18m303.16,0h-7m-144.73,0h71.31m-1245.94,0H264.88m931.72,13.13h-20.83m-6.84,0H793.78m615.18,0h-33.63m218.22,0h-49.66m-9.46,0h-11.89m-1208.7,0h61.83m797.21,13.13H796.41m611.52,0H1382m200.46,0h-24m-24,0h-9.32m-1151.8,0H332.13m891.17,13.13H807.17m583.14,0h25m122.11,0h-11.64m177.25,0h-17.61m-1313.09,0H353.54m82,0h26.93m755.18,13.13H817.11m717.71,0h9m-123.37,0h-11.87m283,0h9m-51.4,0h-6.79m-1264.51,0H357.24m62.34,0h91.09m701.19,13.13H826.61m714.3,0h18.52m-40,0h-9m148,0h-24.81m-1242.42,0H372.93m151.06,0H404.28m799.5,13.13H936.84m-94.26,0h54.36m664.11,0h-16m-10.9,0h-13.43m129.82,0h-30.76M562,649.32H406.85m786.9,13.13H963.81m603.3,0h-7.33m-6.93,0h-22.72m167,0h-1.82m26.32,0h-5.84m-57.49,0h-60.52m-1189,0H573.48m389.16,13.13h220.44m415,0h52.81m-87,0h-24.13m218.31,0h-17.3m-1160.31,0H402.69m769.36,13.13H960m701.55,0h18.9m-107.34,0h-27.67m99.9,0h-40.18m149.11,0h50.09m-1226.29,0H392.66M1162,701.84H963.61m722.13,0h-23m-107.06,0h23.48m251.42,0h-66.74M387,701.84H612.83M1155.12,715H973.41m867.84,0h-57.9M658.68,715H390.28m762,13.13H982.4m601.55,0h44.27m151.79,0h65.77m-1174,0H384.83M1154,741.23H986.48m870.33,0h-17.14m-1159.17,0H388.77m769.5,13.13h-170m822.65,0h-6.54M679,754.36H399.66m761.55,13.13H990.52m735.48,0h40.91m45,0h-11.73m-1128.26,0H407m813,13.13h-14.59m-43.69,0H986m709.25,0h70.63m32.88,0h24.48m-1159.8,0H414.3m804.53,13.13h-26.52m-33.06,0H981.52m695.77,0h146.6m-1166.2,0H420.89m795.41,13.12h-34.55m-35.48,0H979m846.88,0H1670.59m-1012.92,0H430.84m782,13.13h-29.74m-51.41,0H982.74m661.34,0h194.17M657,820H451.31m756.26,13.13h-27.84m-54.72,0H988.69m631.45,0h224.59m-1190.62,0H465.49m737.22,13.13h-26.32m-50.35,0H995.69m857.08,0H1612.68m-962.76,0H466.35m731.15,13.13h-18m-55.32,0H996.87m858.4,0h-241m-985.23,0h-162m644.51,13.13H999.59m852.39,0H1609.82m-1000.43,0H468m638.89,13.13H1004.67m842.69,0H1612.61m-1006.7,0H468.78m628.52,13.13h-85.46m827,0H1612.18m-1142.57,0H603.44M1086,911.91h-67.57m644.64,0h-53.21m115.93,0h100.15m-1233.79,0H470.45M1073.55,925h-50.63m598,0h-11.42m206.13,0H1743.8M590.62,925H472.39m1489.79,13.13H1950.7m-146,0h-59.94m-1160.31,0H473.87m1485.4,13.13h-18.19m-1372.5,0H473.75m1452.84,13.13h-7.79m-1349.94,0H471.71M1916,977.56h-14.15m-129.64,0h-14.55M544,977.56H477.55M1893,990.69h-20m-1340.14,0H480.24m1386.5,13.13H1877m-1337.21,0h-48M535.47,1017h-41M537,1030.08H490.12m52.28,13.12H497.84m39.37,13.13h-33m34.21,13.13H516.4m48.05,13.13h-27" transform="translate(-61.12 -124.14)"/></svg>