<svg id="Слой_1" data-name="Слой 1" xmlns="http://www.w3.org/2000/svg" viewBox="0 0 1657.35 840.08"><defs><style>.cls-1{fill:none;}</style></defs><path class="cls-1" d="M129.24,359.33v-4.57m11.28-24.41V354.9M151.79,319v31.75m11.28-5.18V315.48m11.27-17v42.8m11.27-6.54V296.79m11.28-11.65V329m11.27,3.37V281.52M219.44,326V277.25m11.27,206.93V449.07m0-117.33V274.62M242,502.16V429.48m0-95.17v-62.4m11.27-1.73v91.71m0,24.5V537.68m11.28,19.55V271.46m11.27,276.08V272.38m11.27.92V579.36m11.28,6.09V276m11.27,318.49v-317m11.28,324V278.9m11.27,324.84V277.64m11.28,325V587.8m0-62.61V274.74m11.27,333.57V585.05m0-65.73V271.63M366,616.18V581.3m0-65.36V272.12m11.27,348.51V567.06m0-46V273m11.28,365.47V601.6m0-90.67V261m11.27,387.26V602.12m0-91V253.58M411.1,561.4v-5m0,100.19V642.73m0-129.4V249.64m11.28,313.65V557m0,190.38V695.09m0-48.17v-6m0-102V248.55m11.27,317.81V559.9m0,206.84V643.9m0-143.35V238.2m11.28,337.38v-9.67m0,221.6V637m0-399.41V492.28m11.27,82v-1.87m0,228.85V630m0-387.91V322.6m0,20.2V486.23m11.28,101.2V575.66m0,47.24V808.59m0-566.28v74.84m0,141V350.37M478.75,586.2v-9.46m0,238.49V626.4m0-384.85V308.8m0,45.34V454M490,443V375.38m0-72.31V252.68m0,383.53v304.3M501.3,440.1v-82m0-51V238.54m0,727.18V638.3m11.27-213V347.77m0-42V272.41m0,738.85V631.48m11.28-211.66V327.94m0-22.16V257.07m0,767V640.45M535.12,424V314.81m0-31.37V236.29m0,798.39V651.34m11.28-232v-105m0-89.41v-4.14m0,81.36v-4.35m0-24.14V242.07m0,739.58V963.87m0-6.26V656.8m0,383.37V994.63M557.67,416V316.74m0-87.41V216.84m0,86.51v-6.09m0-11.22V241.75m0,702.44V661.84m0,382.17v-11.28m11.28-649V334.08m0-114.41v18.54m0,74.44v-58.9M569,663V942.33m0,101.57v-5.54m11.27-639.12V326.32m0-112.49V240.1m0,15.47v56m0,607.46V678.58M591.5,399.43V353.49m0-140.68V235m0,56.07V264.78m0,644.67V701.55m11.27-297.76V389.64m0-159.81V211.66m0,83.41V280.22m0,607.07V702.38M614,223V209.53m0,643.16V710.6m11.28-502v30.84m0,607.67V715.4M636.59,208v31.3m0,604.07v-126m11.28-508.9v29.78m0,587.91V718.24m11.27-510.16v109.6m0,455V729m11.28-514.26V320.6m0,433.12v-14.4m11.27-422.94V212.15M693,303.21V210.89m11.27,81.27V212m11.28,77.44V209.08m11.27,77.07V211.21m11.27,67.15v-70.7m11.28,69.67v-70.2M760.61,275V205m11.28,407.74V557.13m0-353.2v66.15m0,19.27v-.19m11.27,340.77V536.27m0-329.57v58.2m0,36.8V289.35m11.28,358.46V519.55m0-272.85V212.77m0,88.24V287m11.27,10.5V286.11m0-65v-9.32m0,444.05v-143M817,215.66V210m0,455.44v-177M828.26,211.2v-1.52m0,252.38V420.14m0-50V352.54m0,312.85V477.12m11.27,184.33V471.86m0-116.5v-3.85m0,113V420.89m11.28,244V472.22m0-77v-7.66m0-12v-42.6m0,130.06V421m11.27,240.44V468m0-93.1V349.76m0,103.76v-70.8m11.28,273.63V464.07m0-97.45v-3.71m0,71.44V376.6m11.27,277.18V461.66m0-40.09V368.09m11.28,295.5V461.15m0-133.44V307.1m0,114.87V358.5m11.27,307.19V459.91m0-43.25V337.54m0-8v-28.1m0,138.91v-4.72m11.28-15.43V352.92m0-29.15v-30m0,167.34V708.81m0-486.72v-6.33m11.27,215.48V352.62m0-6.67v-65.2m0,442.75V485.06m0-262v-6.8M941,458.86V352.48m0-10.75V268.6m0,220V825.25m0-600v-8.57m11.28,223.12v-90m0-49.45v-36m0,58.18v-4.23m0,543.7V495.17m0-279.13v-1.92m11.27,222.45V346.82m0-34.65V261m0,626.47V499.69m0-282.59v-3.23m11.28,698.57V486.25m0-226.31v194M986.1,909.37V487.23m0-34.23V257.56M997.38,908V491.72m0-56.36V264.05m11.27,641.3V494m0-228V459.15m11.28,439.7V495m0-226.84V399.09m0,63.81V431.28m11.27,453V492.67m0-220.9V409.51m0,53.71V427.8m11.28,442.26V494.84m0-211.67V408.45m0,53.72V426.92m11.27,88.56V431.06m0,418.39V533.62m0-124.71V272.35m11.27,262V431.43m0,379.86v-255m0-140.71V278.21m11.28,275V272.11m0,529v-222m0-325.65v-5.71m11.27,542.9V753.1m0-496.57V232.45m0,483.4V596.37m0-30.17v-293m11.28,318.43V271.17m0,427.27V608m0-369.23v-8.65m0,27.66v-4.62m11.27,598V794.59m0-562.71V228m0,457.07v-61.4m0-361.37V397.77m0,211.85V423.39m11.28,423.42v-60m0-556.11v-4.79m0,445.28V622.61m0-17.06V452m0-57.23V264.27m0,150.69V405m11.27,413.77V769.58m0-170.26v-76m0-98.79V267m0,235.66v-46.4m0,198.77V618.45m11.28,13V618.44m0-373.32V514.67m0,79.79V535.79m11.27,50V535.34m0-16.34V259.36m11.27,11V518.82m0,59.93V527.6m0-270.21v-6.21M1177.77,527V270.3m0,299.08V538.84m0-274V253.43M1189,529.87V252.57m11.28,279V237.68m0-26.62v-5m11.27,322.67V231.56m0-15.87v-7.92m11.28,321.83V229.75m0-13v-5.2M1234.14,539V228m0-7.53v-7.73m11.28,342.19V224.67m0-6.21v-4.15m11.27,7.71v172h0V550M1268,583.65v-357m11.27,382.67V225.64m11.27,403.16V241.62m0-5.8v-9.28m11.28,401.05V239.16m11.27,2.48V648.16m11.28-77.47V242.3m11.27,316.47V243.25m11.28,307.14V239.58m11.27,304.78V241.07m11.28,1.37V556m11.27,16.52V253.61M1392,584.81V249.08m11.28,412.3v-9.94m0-55.66V248m11.27,429.83V662m0-23.89V246.59m11.28,451.13V669.9m0-63.11V241.07m0,422.59V641.05m11.27,69.65V677.81m0-60.71V241.64m0,432v-23.7m11.28,69.57v-23.4m0-144.16V243.08m0,382.79V572.1m11.27,159.59V721.54m0-153.94v-7.05m0-11.34V249.41m0,366.63V584.09m11.28,149.31v-7.5m0-178.66V249.81m0,435v-9.79m11.27,228.51V853.05m0-149.34V669.54m0-241.29V252.39m0,287.59V446.33m0,288.86V724.5m11.27,177.35V821.34m0-117.19V659.83m0-225.59V249.41m0,197v91.45m0,198.58v-9.56m11.28,170.54V813.08m0-380.59V341.84m0,187.5V475m0-152.11V250.63m0,456.84V648M1516,896.76V810.51m0-367.17V346.78m0-33.47V255.36m0,432.76v-48m11.28,252.1V806.49m0-215.44V566.17m0-252.88V256.94m0,204.19V439.42m0-24.68v-69m0,361.81V695.64m11.27,190.77V792.18m0-445.13v65.08m0,48.48V452.2m0-141V255.89m0,419.19v31m11.28,177.64V784.81m0-151v-5.5m0-315.09V257.12m0,216.16V470.4m0-88.1V356m0,325.31V675.7m11.27,206.77v-111m0-395.11V369m0,88.49V484m0-185.37V258.79m0,380V625.28m11.28,258.33V773.76m0-471.69v-48m0,209.34v-7.32m0-54.57v-1.79m11.27,499.78V764.78m0-509.8v70.44m0,137.27V423.55m0-8V402m11.28,491.21V757.45m0-346.58v-5.95m0,55.64V434.48m0-96.6v-81.6m0,433.15v-2.59m11.27,236.3V755.69m0-406V319.6m0-13.14V258.34m0,426v22.28m11.27,246.29V757.21m0-399.47V334.91m0-30.09V261.06m0,448.22v-10m11.28,225.45V787.32m0-486.46V263.91m0,450.73V692.11M1640,919.39v-130m0-497.65v-5.17m0-10.26v-7.52m0,464.2V693.47m11.28,221.26V753.85m0-476.13v-9.5m0,472.77V697.14m11.27,204V771.82m0-41.13V702.64m11.28,184.92V802.81m0-68.72V708.28m11.27,168V820.67m0-76.76V729.32m11.28,18.23v-5.5m11.27,230.76V963m11.27,5.24v-12m11.28,3v-6.8m11.27,1.6V945m11.28.73v-9.42m22.55-2.56V920.63m11.27,5.28V912.64" transform="translate(-129.24 -203.93)"/></svg>