<?xml version="1.0" encoding="utf-8"?>
<!-- Generator: Adobe Illustrator 24.1.2, SVG Export Plug-In . SVG Version: 6.00 Build 0)  -->
<svg version="1.1" id="Слой_1" xmlns="http://www.w3.org/2000/svg" xmlns:xlink="http://www.w3.org/1999/xlink" x="0px" y="0px"
	 viewBox="0 0 2000 1200" style="enable-background:new 0 0 2000 1200;" xml:space="preserve">
<style type="text/css">
	.st0{fill:#FFFFFF;}
</style>
<path class="st0" d="M-307,1580c0-653.3,0-1306.7,0-1960c871,0,1742,0,2613,0c0,653.3,0,1306.7,0,1960C1435,1580,564,1580-307,1580z
	 M279.1,151.8c-6.6,7.7-13.9,4.5-21.6,1.2c-2,1.9-4.1,4-6.2,6.1c0.3,0.6,0.7,1.2,1,1.8c4.1-0.7,8.3-1.7,12.5-2.2
	c3.2-0.4,6.7-1.1,9.6-0.2c6.1,1.8,8.9-1.2,12.2-6.4c-3.3,0-5.6,0-7.8,0c3.1-1.1,6.3-2,9.2-3.4c8.7-4.3,17.4-3.7,26.2-0.8
	c2.5,0.8,5.1,1.6,7.7,1.8c3.9,0.2,8.6-4.8,6.8-7.6c-4.5-7.2,1.2-10.2,4.6-14.3c1.7-2.1,3.7-4,5.6-5.9c-0.4-0.5-0.9-1.1-1.3-1.6
	c-2.6,1-5.1,2.1-7.7,3.1c-2.7,1-5.5,1.8-8.2,2.9c-9.8,4-19.4,8.6-29.3,0.1c-1.5-1.3-4.4-0.9-6.7-1.5c-1.7-0.4-3.4-1.1-6.2-2.1
	c3.4-2.8,5.7-4.8,8.3-7c-8.6-2.3-32.2-1.4-37.7,1.3c-1.2,0.6-2.4,1.4-3.1,2.4c-4.6,6.7-11.6,9.7-18.9,12.2c-1.3,0.4-2.3,1.6-4.8,3.4
	c9.1,2.1,15.9,0.5,22.7-2.3c5.5-2.3,11.2-4.2,16.8-6.1c0.6-0.2,1.7,0.7,3,1.4c-1,2.4-2,4.6-2.7,6.3c4.9,9.2,15.1,2.4,21.1,8.3
	c-7.8,8.7-18.2,1.3-27.3,4.1C263.7,154.4,271.1,154.6,279.1,151.8z M573.4,68.8c6.7-4.5,14.3-4.7,21.9-5.1c2.6-0.1,6.1,1.4,7.6-3.4
	c-14-0.4-27.6-1.3-41.1-0.9c-13.3,0.4-27.1-0.1-39.5,3.7c-13,4-26.7,0.2-40.2,7c14.5,0,27.9,0,43.3,0c-12.4,6.2-23.3,7.6-33.8,5.7
	c-3.3,2.5-5.6,5-8.4,6.1c-3.2,1.2-6.8,1.1-10.6,1.6c0.8,3.5,1.4,5.8,1.9,7.8c-5.3,3.1-12-3-16.2,4.2c1.2,0.9,2.3,2.4,3.1,2.2
	c11.5-2.1,22.6,0.2,33.7,2.8c0.4,0.1,1-0.7,1.5-1.1c-0.5-1.7-1-3.4-1.7-5.6c2.7-0.6,5.1-0.8,7.1-1.7c6.5-3.1,14.4-5.2,18.9-10.2
	c2.9-3.2,5.3-4.8,8.8-5.2c4.6-0.5,9.3-0.8,13.9-0.6c6.5,0.3,12.3-0.9,18-4.5c3.3-2.1,7.9-2,11.9-3c3.4,0.7,6.8,1.4,9.7,2
	c0.4,5.4-2.1,8.1-6.7,9c-4.6,0.8-9.2,2.3-13.8,2.2c-6.8-0.1-12.9,1.3-18.5,5.4c3.5,1.4,8.1-0.6,10.7,4.3c-3.5,0.4-6.4,0.7-9.8,1
	c1.3,2.9,2.3,5.2,3.4,7.6c9.6-1.1,18.8-2,28-3.2c10.3-1.3,17.6,1.8,19.9,11.4c1.1,4.4,2.5,11-2.3,15.7c-1.6,1.6-2.6,3.8-3.8,5.7
	c0.6,0.5,1.1,1,1.7,1.6c2.6-1.5,5.3-3.1,8.4-4.9c3.8,1.6,8,3.2,13.8,5.6c-8.4,8.2-19.1,2.7-26.9,8.3c6.1,4.6,11.9-5.1,17,1
	c2.4,6.8-7.6,9-5.1,14.9c-4.9,3.3-9.8-2.4-15.4,1.4c3.9,1.6,6.6,2.7,11.2,4.6c-6.1,1.7-10.1,2.9-15.4,4.4c3.1,2.3,4.6,3.3,6.1,4.4
	c-1,1.8-1.8,3.3-2.6,4.8c2.8,1,5.1,1.8,8.4,2.9c-3.1,2.4-5.1,4-7.2,5.7c1.5,6.3,2.9,12.4,4.3,18.7c9.4,1.8,19.3,1.5,26.1,9
	c5.3-6.8,10-13.2,15.2-19.1c4.1-4.7,10.4-8.1,13-13.4c5.4-11.1,16.1-12.3,25.4-13.8c7.8-1.2,14.7-2.8,20.9-7.3
	c4.5-3.3,8.7-7,12.6-10.3c11.8,3.5,22.2-0.1,32.6-3.5c3.5-1.1,7.7-1.6,10.3-7.2c-6.4,0-11.7,0-18.1,0c3.1-6.7,8.8-6.1,12.9-8.2
	c5.3-2.8,9.7-4.2,13.6,1.9c0.7,1.2,2.8,1.9,4.4,2.1c1.8,0.1,4.4-0.1,5.2-1.3c0.8-1.1,0.4-3.7-0.3-5.3c-1-2.3-2.8-4.4-4.2-6.4
	c-4.3-0.7-9.6,2.2-12.6-3.6c2.7-4.5,6.2-4.9,11.1-3.9c4,0.8,8.6,0.6,12.4-0.7c3.4-1.1,6.2-4.2,9.3-6.5c-0.6-1.2-1.3-2.8-2.1-4.3
	c1.8-0.9,3-1.5,4.6-2.2c-2.5-1.8-4.3-3.1-6.1-4.3c2.5-7.5,8.8-2.2,13.3-4.5c-3.5-2.2-6.4-4-9.6-6.1c9.5-15.2,26.7-15.8,40.1-23
	c-3-0.8-5.7-1.3-8.2-0.8c-10.3,2-20.5,4.3-30.8,6.4c-1.5,0.3-3.9,0.6-4.7-0.2c-5.1-5.1-11.8-3.6-17.9-4.2c0-1.8,0-3.2,0-4.2
	c-4.5-1.6-8.8-4.5-12.9-4.3c-8.9,0.4-17.8,2.1-26.5,4.1c-3.2,0.7-5.9,1.3-9.4,0.9c-8-0.9-16.6-2.7-23.3,4.9c-1,1.1-4.5,1-6.3,0.2
	c-6.2-2.8-12.1-6-18,0.5c-0.5,0.6-1.9,0.6-2.8,0.5c-5.2-0.6-10.3-1.6-15.5-1.9c-3.2-0.2-6.5,0.4-9.7,0.8c-3.8,0.4-7.7,0.9-11.5,1.4
	c-1.9,0.2-4,0-5.8,0.7c-10.7,3.8-11,3.8-25.7,0.8c-1.2-0.3-2.6,0.1-3.9,0.3C581.8,67.4,577.5,68.2,573.4,68.8z M945.2,255.4
	c-10.4-1.2-7.7-10.5-12.5-14.3c3.5-6.9,3.5-6.9,0.8-12.1c-9.8,4.1-11,7.2-6.5,16.5c4.2,8.9,1.3,13.9-8.5,14.6c-2,0.1-4,0-6,0.4
	c-1.2,0.2-3.2,1.3-3.2,1.8c0.4,5.7-4.6,5.5-7.7,7.3c-5.6,3.3-9,9.7-16,10.9c-0.9,0.2-1.4,2.1-2.3,3.1c-5.9,6.8-11.8,13.6-22.3,8.8
	c-0.7,7.6-1.2,8.2-7.3,8c-3.5-0.1-7.2-1.9-9.5,2.6c0.6,1,1,2.5,1.6,2.6c10.9,1.5,15.1,9.2,17.4,18.6c0.2,0.9,0.6,1.9,0.9,2.8
	c-2,3.6-3.1,7.3-3.6,11c-0.6,4.5-2,7.9-7.3,7.6c-10.9-0.6-21.7-1-32.6-2c-6.1-0.6-9.2,1.5-10,7.7c-0.9,7.2-0.8,14.8-3,21.6
	c-2.8,8.7,1.6,16.3,0.3,25.1c8.5-1.1,16.1-4.2,20.7,3.8c3.3-0.8,5.9-1.9,8.5-1.8c7.7,0.2,14.2-0.9,20.5-6.8
	c4.7-4.3,7.9-8.5,9.1-14.5c1.1-5.7,9.3-17.7,14.6-19.7c4.5-1.8,6.8-4.3,7.6-9.3c1.2-6.8,3.9-8.5,10.5-6.8c7.7,2,14.1,0.6,20.7-3.8
	c10.6-7.1,15.1-5.6,23.5,4.3c4.2,5,8.9,10.7,14.6,12.9c11.4,4.4,18,12.8,25.1,24.7c-0.5-6.1-0.8-10.2-1.2-14.6
	c3.3,0.2,5.5,0.4,8.2,0.6c-6.6-4.7-12.1-9.7-18.5-13c-8.6-4.4-13-12.1-18-19.5c-2.3-3.4-2.5-7.1,0.7-10c3.2-2.9,6.2-1.1,8.9,1.2
	c2.5,2.1,5.3,4.1,7.2,6.7c4.8,6.3,11,10.5,18.4,13.1c7.8,2.7,15.5,5.3,13.2,16.3c-0.2,1.2,0.3,2.8,1,3.8c3.7,5,7.3,10,11.5,14.6
	c1.9,2,3,3.3,3.2,6.5c0.3,5.7,2.7,6.7,10,5.6c-1.7-2.8-3.2-5.4-5.1-8.6c4.6,0.5,8.5,0.9,14.5,1.6c-6.2-6.4-13.7-9.3-13-17.8
	c2-0.6,4.5-0.6,5.9-1.8c4.7-4.5,9.8-5.7,16.2-4.3c5.1,1.2,10.4-0.1,15.6-3.3c-1.4-3.1-2.9-5.7-3.7-8.4c-0.6-2.1-1.3-4.9-0.5-6.6
	c3.7-8,7.4-16.1,12.1-23.6c2.4-3.9,6.8-6.6,9.5-9.1c3.5,2.6,5.6,5.2,8,5.6c6.6,1,13.2,1.1,19.4-2.5c6.9-4,14.5-6,22.9-6.8
	c-3.3,6.3-6.2,11.9-9.3,17.7c1.8,1.3,3.1,2.2,4.5,3.1c8,5.3,16.1,10.4,23.9,16c5.6,4.1,5.3,8.9-0.6,12.7c-1.9,1.2-4.2,2.3-6.4,2.6
	c-9.3,1.3-18.8,1.8-27.3-3.1c-8-4.5-15.9-4.1-24.1-1.5c-12.5,3.9-24.3,10.1-37.4,12.4c-1.3,0.2-2.4,1.9-3.4,2.9
	c2.6,5.2,5.9,9.7,7,14.6c1.8,8.6,8.8,10.9,14.9,14.5c5.7,3.4,8-3.4,12.2-4.1c14.7,7.9,16.1,7.9,24.4,0.2c10.3,2.7,12.3,4.7,11.4,15
	c-0.7,7.9-2.7,15.7-4.7,23.4c-3.1,11.6-8.2,14-19,8.8c-4.4-2.1-8.6-2.4-12.4-0.2c-6.3,3.8-12.3,4-19,1.3c-2.7-1.1-6-0.4-8.8-1.3
	c-9-2.6-18.7-2.5-26.4-9.4c-5.1-4.6-14.3-1.6-16.9,4.6c-1,2.4-0.9,5.2-1.3,7.8c-0.9,5.3-3.9,7.8-8.9,6.7c-2.2-0.5-4.4-1.6-6.2-3
	c-7.6-5.6-18.5-4.8-24.8-12.9c-0.5-0.6-1.9-0.5-2.8-0.9c-10-4.3-21.8-4.7-30-14c4.3-5.2,5.5-10.6,2.6-17.8
	c-3.1-7.6-2.7-8.5-10.2-7.3c-8.8,1.4-17.7,3.1-26.6,3.3c-15,0.3-29,4.4-42.3,10.7c-11.5,5.4-22.8,6.1-33.4,1.6
	c-7,7.1-14.4,13.4-20.2,20.9c-4.3,5.6-7.3,12.5-9.3,19.3c-2.6,8.9-5.6,17-15.2,20.2c-5.7,1.9-9.5,5.4-12.6,10.6
	c-4.2,7-9.6,13-12.8,20.9c-4.1,10-10.4,19.1-15.3,27.9c4.8,11.4,9.5,21.6,6.1,33.2c-1.8,6.1-3.5,12.1-5,18.3
	c-0.6,2.5-1.1,5.1-0.9,7.6c0.2,3.5,0.9,7.1,1.6,10.6c0.4,1.9,0.5,4.1,1.6,5.5c5,6.1,10.3,11.9,15.4,17.9c3.4,4,9.1,8.2,9.2,12.4
	c0.2,9.4,6.6,12.2,12.4,16.3c4.3,3.1,8.6,6.3,12.3,10c10.1,10.2,13.6,11.8,26.2,5.7c10.7-5.2,20.3-4.7,30.1,1.3
	c1.1,0.6,2.3,0.9,3.5,1.4c4.2-2.8,7.8-5.8,11.9-7.9c4.4-2.3,9.3-3.6,13.8-5.6c14.1-6.3,20.6-4.4,28.8,9.3c2,3.4,4.2,4.6,8.1,4
	c3.9-0.7,8-1.1,11.9-0.9c6,0.3,13.5,7.7,12.9,13c-0.7,6.9-1.6,13.8-3.4,20.5c-2.9,10.7-2,20.5,4.8,29.4c2.6,3.4,5.8,6.5,8.3,10
	c5.7,8,12,15.2,14,25.8c1.5,7.7,6.4,14.7,4,23.2c-0.1,0.5,0.5,1.2,0.8,1.8c3.7,9,2.9,18.1-1.9,26c-5.3,8.6-6.6,18.1-8.5,27.4
	c-1.7,8.1-1,15.7,5.3,22.3c2.3,2.4,3.3,6.4,3.8,9.9c0.5,3.8,1,7.2,4.4,9.5c4.6,3.1,6.3,7.7,5.7,13c-1.7,16.9,8.1,31,11.4,46.6
	c0.3,1.5,2.1,2.5,2.9,4c4.9,8.6,9.7,17.2,14.4,25.9c0.3,0.6,0.3,1.3,0.4,1.9c1.7,7.2,3.5,14.4,4.9,20.5c13.5-2.2,26.2-4.1,38.8-6.5
	c10.9-2.1,21.6-5.6,27.3-16.3c3.5-6.7,8.2-11.9,13.9-16.8c3.2-2.7,5.7-6.4,7.9-10c3.8-6.1,7.1-12.6,10.9-19.6
	c-3.6-7.4-3.1-9,5.2-13.2c2.1-1.1,4.6-1.5,6.3-2.9c1.8-1.6,4.2-4,4.2-6c0-8.9-0.9-17.8-1.3-26.7c-0.1-2.5-0.8-6.2,0.5-7.3
	c4.7-3.9,8.1-8.2,10-14.2c0.6-1.9,3.1-4,5.1-4.5c8.2-2,13-8.7,19.2-13.4c4.4-3.3,7.6-7.6,7.6-12.2c0-12.9-0.6-25.9-2.3-38.7
	c-1.3-9.4-5.2-18.5-7.2-27.8c-1.9-9.1-0.9-17.9,6.3-24.9c1.3-1.3,2.6-3.4,2.6-5.2c-0.1-6.8,4.2-10.8,8.4-15.2
	c7.1-7.5,14.2-15,20.8-22.9c6.4-7.6,12.4-15.6,18.2-23.7c4.4-6.2,8.7-12.6,12.3-19.2c3.9-7,7-14.3,10.4-21.6
	c3.5-7.3,5.5-14.8,2.9-23.2c-5.9,0.7-12.1,0.1-16.8,2.4c-8,4-16.5,4.8-25,6.2c-9.4,1.6-18-5.8-17.8-15.2c0.1-4.7-1-8.4-4.6-11.5
	c-4.5-3.9-8.3-8.7-13.3-11.7c-7.5-4.6-10.5-12.1-12.4-19.4c-1.5-5.6-3.8-9.6-8-13.1c-4-3.2-7.7-6.8-7.2-12.4
	c0.5-6.2-2-10.5-6.1-15.1c-3.9-4.3-9.5-8.8-6.5-16.4c0.5-1.4-0.6-4.3-1.9-5.3c-6.7-5.2-9.9-12.2-12-20.1c-0.8-3-3.5-5.6-5.6-8.1
	c-3.4-4.2-6-8.4-4.2-14.3c8.5,1.9,5.7,12.2,12.8,15.2c2.2-1.1,4.7-2.3,7.5-3.7c1.5,1.9,2.9,3.3,3.9,5c7.9,13.3,13.6,28,26,38.3
	c1.2,1,2.5,3,2.3,4.2c-1.9,11.4,6.1,17.1,13.5,22.4c5.1,3.7,8.3,7.3,7.6,13.9c-0.2,1.8,0.6,4.3,1.9,5.4c4.4,4.1,5.9,9.1,6.8,15
	c0.9,5.9,3.1,11.5,5.1,17.2c3.1,8.7,6.9,10.4,15.2,6.1c9.3-4.9,20.4-6.7,27.8-15.1c0.8-0.9,2.3-1.7,3.5-1.8
	c8.7-0.8,16.1-3.6,20.2-12.1c0.1-0.3,0.5-0.5,0.8-0.6c8.8-1.7,14.7-7.9,21.3-13.2c5.9-4.7,12.7-8.1,12.6-17c0-1.1,0.7-2.9,1.6-3.3
	c7.1-3.2,6.6-10.7,10.5-16.5c-5.2-4.1-9.3-9.4-14.6-11.2c-7.9-2.6-12.5-6.7-13.5-15.7c-2.1,1.6-3.6,2.3-4.6,3.5
	c-4.8,5.2-9.9,9-17.6,10.1c-8.9,1.2-9.8,1.5-12-7.6c-0.3-1.2-0.9-2.4-1.4-3.6c-2.1,0.7-3.8,1.4-5.5,2c-2.7-4.7-4.2-10.1-7.7-13.1
	c-7.5-6.4-11.4-14.5-15-23.7c2.2-2.9,4.6-5.9,6.9-8.9c3.9,1.8,7.5,2.9,10.5,4.9c2,1.3,4.3,3.8,4.5,5.9c0.6,6.1,4.6,8.5,9.5,10.4
	c5.9,2.3,12,4.1,17.7,6.8c4.5,2.1,8.3,3.7,12.7-0.4c2.9-2.7,6.5-1.3,7.3,1.8c1.6,6.9,7.1,8.6,12.3,10.1c8.5,2.5,17.4,4,26.1,5.8
	c0.9,0.2,2.3,0.1,2.8-0.5c5.1-5.1,11.9-3.4,17.9-4.5c7-1.3,12.5,0.6,17.7,6.2c7.3,8,15.3,16.1,28,13.7c0.8-0.1,1.8,0.7,4.4,1.7
	c-4,1.4-5.8,1.6-6.9,2.5c-2.1,1.8-5.8,5.2-5.4,5.8c1.8,2.9,4.4,5.7,7.3,7.4c3.3,1.9,5.5-1,7.1-3.7c1.5-2.4,2.9-4.9,4.1-7.1
	c4.1,0.4,5.2,2.2,5.4,5.4c0.6,8.9,1.3,17.8,2.3,26.7c0.2,2.2,1.8,4.2,2.7,6.3c2.6,6,5.1,12.1,7.7,18.2c2.1,4.8,3.6,10.2,6.7,14.2
	c4.2,5.4,7.6,10.8,9.1,17.5c0.5,2.2,1.2,4.6,2.5,6.4c2.5,3.5,5.9,6.4,8.2,10c2.3,3.8,3.8,8.1,5.8,12.6c3.1-3.5,6-6.3,8.3-9.5
	c2.1-2.9,5.4-6.4,5.2-9.3c-1-11.9,4.6-23.7,0.1-35.7c-1.3-3.6-0.6-8.5,4-10.2c7.5-2.8,10.6-9.8,15.5-15c2-2.2,3.7-4.7,5.9-6.7
	c8.4-7.6,16.8-15,19.4-26.5c5.3-0.9,10.1-1.5,14.8-2.4c6.7-1.2,4.9-8.5,9.1-13.7c2.7,5.7,5.8,9.8,11.6,10.4c0.7,0.1,1.5,1.4,1.7,2.3
	c1.8,8.4,8.2,12.5,15.4,16.1c-0.2,5.5,0,10.7,5.8,13.7c1.2,0.6,1.4,3.5,1.7,5.4c0.6,4.2,1,8.4,1.4,12.4c4.1,0.8,7.3,1.3,10.9,2
	c1.6-3.8,3-7.2,5-12c2.1,3,3.8,4.6,4.6,6.6c2.5,6.3,4.9,12.7,6.7,19.2c2.9,10.5,5.6,21.1,7.9,31.8c0.7,3.2,0.7,6.8-0.2,9.9
	c-1.6,5.8,0.6,9.1,5,12.7c6.1,5.1,12,11.2,12,19.8c0,14.3,10.3,21.5,19.2,29.7c2.3,2.1,5.6,3,9.2,4.8c-0.3-2.2,0-3.3-0.5-3.9
	c-5.9-8.1-8.4-17.1-8.7-27.1c-0.1-3.1-2.8-6.8-5.4-8.9c-4.1-3.3-10-4.5-13.4-8.2c-3.3-3.6-4.5-9.3-6.4-14.1
	c-1.8-4.6-4.9-9.6-4.3-13.9c1-7.3,1.6-14.2-0.5-21.4c-1.3-4.5,2.3-7.4,6.4-5.7c2,0.8,3.4,2.9,5.1,4.4c2.1,1.9,4,4.6,6.5,5.6
	c4.3,1.7,7.5,3.4,8.2,8.6c0.2,1.8,3,4.6,4.7,4.6c7.9,0.1,10.6,6.3,15.1,14c1.6-5.7,2.6-9.1,3.7-13.1c1.4-0.1,3.4-0.1,5.3-0.4
	c5.6-0.9,15.8-8.9,15-12.8c-1.9-9-3.5-18.6-7.8-26.5c-4-7.3-11.4-12.7-17.4-18.9c-4.4-4.6-9.1-9.7-7.9-16.2
	c1.4-7.2,5.5-13.9,12.1-17.4c4-2.1,9.3-1.9,13.7-2.6c1.4,3.5,2.3,5.8,4.2,10.3c1.1-7.5,4.8-9.6,9.7-10.7c2.8-0.6,5.9-1.9,8-3.9
	c1.9-1.8,2.5-4.9,4-8c4.1,3.5,8.1,4.2,12.9,1.6c11.9-6.7,25-12.2,23.7-29.4c0-0.6,0.2-1.4,0.6-1.8c6.8-7.5,5.4-17.4,8.6-26.6
	c-4.3-1-8.2-1.9-13.1-3.1c2.7-3.2,4.5-5.3,6.7-8c-4.9-3-9.2-5.7-14.9-9.2c4.7,0,7.7,0,12.9,0c-8.3-8.5-15-15.7-22-22.4
	c-4.2-4.1-4.8-5.4-1.2-9.9c2.4-3.1,5-5.9,7.4-8.8c-6.7-8-10.1,1.1-16.1,2c-1.6-2.1-4.7-4.3-5.2-7.1c-1-4.9-3.8-6.4-8-7.6
	c-2.6-0.7-6.3-0.5-6.7-5.5c1.7-0.9,3.6-2.3,5.6-2.7c4.5-1.1,7.8-2.8,9.4-7.7c0.6-1.9,3.8-4.3,5.5-4.1c1.9,0.2,3.9,2.9,5.2,5
	c1.3,2,1.9,4.6,2.7,6.8c5.5-1.3,9.9-3,14.5-3.3c7.8-0.6,10.5,1.5,12.3,9.4c1.1,4.6,3.5,6,7.8,5.5c4.7-0.6,7.4,1.6,8.9,6.1
	c2.2,6.7,4.8,13.3,7.7,21c4.1-1.2,8.3-2.1,12.1-3.7c4-1.6,4.4-4.3,1.6-7.9c-2.3-2.8-5.5-5-7.3-8.1c-3.1-5.4-7.4-9.2-12.7-12.4
	c-8.1-4.8-8.1-6-3.5-14.2c2.1-3.7,4.7-7.6,5-11.6c1-10.9,3.5-13.4,13.8-11.3c5.7,1.2,8.5,0.3,9.9-5.2c3-11.6,5.5-23.3,7.4-35.1
	c0.5-3.3-1.3-7.1-2.6-10.4c-3-7.6-9.6-13.4-10.3-22.3c-0.2-2.6-3.7-5.7-6.4-7.3c-5.9-3.5-12.2-6.3-18.3-9.3
	c-2.3,2.8-3.7,4.5-5.6,6.8c-4.6-2.8-8.7-6.3-13.5-8.1c-4.5-1.7-9.8-1.5-14.2-2c1.8-6.1,3.3-11.3,5-16.5c0.5-1.5,1.3-3.1,2.3-4.3
	c2.7-3.2,4.4-6.5,3.7-10.9c-0.8-4.6,2.6-6.7,6.2-7.6c2.8-0.7,5.9-0.2,8.9-0.3c5.6-0.1,12.1,1.7,16.8-0.5c9.8-4.7,18.7-1.6,28.1,0.1
	c3.4,0.6,7,0.6,10.3,0.9c0-6.8,0-12.5,0-17.7c10.6-7.8,18.4,2.3,28.3,3.2c1.2-4.5,2.4-8.8,3.7-13.6c2.4,0.2,4.9,0.4,6.3,0.5
	c2.1,5.5,5.3,9.9,5.3,14.4c0,7.2-1.4,14.5-3.5,21.4c-3.1,9.9-3.1,11.2,4.3,18c6.4,5.8,12.6,11.8,18.8,17.8c4.3,4.1,8.5,8.4,13,12.5
	c1.5,1.4,3.5,2.2,6.7,4.3c-2.8-10.5-5.7-19.3,2.1-26.8c-9.3-7-9.6-7.8-6.9-16.2c-5.6-2.9-11.3-5.9-17.1-9c-0.9-0.5-2-1-2.3-1.8
	c-1.8-4.3-3.3-8.8-5.3-14.2c12.9-1,24.5-8.7,36.9-2.9c3.9-4.6,7.5-8.1,10.3-12.2c4.5-6.7,10.2-9.1,17.9-6.2c0.4,0.1,1-0.5,2.8-1.4
	c-7.4-2.6-14.3-4.2-20.2-7.3c-6.1-3.2-14.6-0.2-20.8-8.5c6.6,0.5,11.2,0.8,16.4,1.1c-2.1-3.5-3.6-6-5.9-9.9
	c9.4,1.8,17.1,3.1,24.7,4.6c7.9,1.6,15.8,3.5,24,5.3c0.2-3.9,0.4-7.5,0.6-11.1c-5.6-3.4-11-2.9-16.6-1c-2.1,0.7-5.3,2.2-6.5,1.3
	c-5.6-4.1-14.5-0.3-18.6-7.8c-0.3-0.6-1.8-0.7-2.8-0.9c-24.3-6-48.4-12-73.7-12.6c-6.3-0.2-10.9,0.3-12.7,7
	c-3.4-0.4-6.1-0.5-8.6-1.1c-12.4-3.1-24.8-4.4-37.6-2.7c-8,1-15.8-0.2-23.2-4.2c-12.4-6.7-25.3-7.8-38.4-1.8c-2,0.9-5.3,1.8-6.4,0.8
	c-6.3-5.6-13.8-3.8-21-4.1c-6.5-0.3-12.7-0.8-14.1-9.1c-12.8-0.7-25.1-1.6-37.4-1.9c-2.9-0.1-7.3,1.2-8.6,3.3
	c-3.7,6-8.4,6.5-14.6,5.5c-4.6-0.7-9.3-0.7-14-0.3c-2.4,0.2-4.9,1.4-6.9,2.8c-10.2,7.5-18,6.1-23.4-5.3c-1.7-3.6-3.9-4.9-7.5-5.3
	c-7.6-0.8-15.2-1.6-22.8-2.8c-5.2-0.8-10-1.3-11.6,3.5c-14,3-26.5-3.2-39.5-0.6c-1.8,0.4-4.2-0.2-5.8-1.1c-8.1-5-15.8-2.9-23.8,0.5
	c-4.1,1.7-8.5,3.2-13.7,0.9c4.4-9.5,14.3-11,22.2-17.6c-3.6-1.5-6.2-3.4-8.7-3.4c-10.3-0.2-20.6-0.4-30.8,0.5
	c-9.7,0.9-10,1.3-14.9-8.9c-4.2,1.3-10.4,1.4-12.8,4.4c-3.2,4.2-6.3,5.3-10.7,5.6c-6,0.3-12.4-0.7-17.8,1.2
	c-7.9,2.9-16,3.5-24.1,4.7c-4.9,0.7-8.8,2.8-9,8.8c-0.1,3.6-3,4.9-6.3,5c-2.5,0.1-5.1,0.3-8.7,0.6c2.1,2.2,3.8,3.4,4.6,5
	c1,1.9,2.2,4.7,1.4,6.1c-0.8,1.5-3.9,2.5-5.9,2.3c-4.6-0.5-9-1.9-13.7-3c-0.6,2.3-1.1,4.6-1.9,7.6c-6.2-2.6-11.6-4.9-18.1-7.7
	c4.1,11.7,11.7,16,21.8,17.1c2.9,0.3,5.9,1,8.6,2.2c3.2,1.4,6.1,4.3,3.8,7.8c-1.2,1.8-5.1,2.7-7.6,2.4c-3.7-0.5-7.3-2.4-11.6-3.9
	c-1.1,4-1.6,7.3-2.8,10.2c-1.5,3.7-4.5,6.2-8.6,5.1c-4.6-1.2-3.6-5.1-2.4-8.2c1.9-5,0.1-8.2-4.2-10.9c-7.6-4.7-12.7-11.5-15.9-19.9
	c-3.7-9.9-5.5-10.5-17-7.5c0,4.4,0,9,0,14c5.3,5,16.8,6.6,12.2,18.5c-9-2.1-17.3-4.5-25.8-6c-8.2-1.4-15.8-6.1-25.9-4.7
	c3.5,3.4,6,5.9,9.6,9.5c-5.6,0.7-9.2,1.1-12.8,1.5c-4.9,0.5-10.1,0.2-14.7,1.7c-7.5,2.5-14.2,3.6-18.5-4.2c-3.7,2.2-6.9,5.6-9.7,5.3
	c-6.1-0.5-7.8,3.2-9.2,8.4c-4.7-1.4-8.6-2.5-12.6-3.7c0.7-3,1.2-5,1.7-7.1c-7.7,0.6-8.1,1.2-6,8.2c1.7,5.6-0.5,8.9-5,6.5
	c-7.6-4-10.7,1.5-15.2,4.8c1.3,2.6,2.3,4.7,3.5,7.2c-6.5,2.1-11.2-1-16.2-2.6c-0.8-0.3-1.8,0.2-3,0.4c1.9,2,3.5,3.7,5.1,5.4
	c-0.3,0.7-0.6,1.3-1,2c-5.2-1.4-11.2-1.6-15.4-4.4c-3.5-2.4-4.8-7.9-7.3-12.3c-3.8-1.6-8.1-3.4-12.5-5.3c1.8-1.6,3-1.8,4.2-1.6
	c8.5,1.6,17,3.2,25.5,4.8c8.8,1.7,14.9-0.6,18.8-7.7c-3.7-1.5-7.3-3.1-10.9-4.3c-6.3-2.1-12.5-4.2-18.9-5.7
	c-7.9-1.9-16.2-4.8-24-4.1c-7.1,0.6-11.4-1.8-15.9-5.8c-1.9-1.7-3.8-3.6-4.8-4.5c-5.6,1.9-10.9,5.7-14.4,4.4
	c-5.9-2.2-10.3,0.3-15.2,1.2c-3.8,0.7-7.3,2.7-11,3.8c-6.8,2.1-14.5,1.6-19.5,8.3c-0.7,1-3.4,0.5-3.9,0.6c-2.2,3.3-3.3,6.1-5.4,7.9
	c-5.5,4.8-11.6,8.9-12.9,16.9c-0.3,1.5-2.5,3-4.2,4c-8,5.2-15.9,10.7-24.3,15.4c-11.4,6.4-11.5,6.1-9.3,19.3
	c0.3,1.6-0.2,3.3-0.1,4.9c0.7,9,6,12.4,14.2,8.1c5.4-2.8,10.2-7,15.3-10.6c10.6,8,7.1,24.1,17.4,33.3c2.2-1.6,3.9-3.9,5.8-4.1
	c11.7-0.9,12.6-8.6,11.7-17.7c-0.1-1.3,0.2-2.6,0.3-3.7c4.2-3.2,10.7-3.4,11.6-10c-1-0.8-1.7-1.5-2.5-2c-9.7-6.3-10.2-15.3-1.3-22.5
	c2.6-2.1,5-4.8,8-5.9c4.3-1.5,6-4.3,7.8-8.1c3.7-8,12.6-9.3,21.5-2.8c-4.2,4.5-7.9,9.7-12.7,13.3c-5,3.8-7.6,6.6-5.5,13.8
	c3.6,12.4,7.1,15.3,19.7,11.6c4.5-1.3,8.9-2.9,13.5-3.4c5.7-0.7,11.4,0.1,16.6,4.3c-6.9,4.3-12.7,6.1-19.7,4.4
	c-5-1.2-9.5,1.3-14.4,4.6c3.5,5.1,10,9.8,2.8,16c-4.7-0.8-8.1-6.5-13.1-2.3c-5.7,4.8-1.2,10.5-1.6,16.2c-3.9,2.2-7.8,5-12.1,6.4
	c-2,0.7-4.8-1.6-7.3-2c-1.5-0.2-3.3,0.4-4.8,1c-4.7,1.5-9.4,3.4-14.2,4.7c-2.4,0.6-5.9,1.4-7.4,0.2
	C954.1,250.4,949.2,253,945.2,255.4z M46.8,297.4c-0.5,0.7-1.1,1.4-1.6,2c0.9,1.4,1.8,2.7,2.7,4.1c6.6,9.9,6.2,22.8-0.9,32.2
	c-1.8,2.4-2.9,5.2-4.4,7.7c-2.7,4.6-4.7,9.9-8.3,13.6c-11.2,11.4-14.3,26.7-21.9,41.3c2.9,1.8,5.4,3.4,8.9,5.5
	c-7.4,8.9-1.5,17.1-0.8,25.5c0.4,5.3,2.9,8.4,7.6,10.7c2.4,1.1,5.2,3.5,5.9,5.8c2.4,8.1,3.9,16.6,5.9,24.8c0.5,1.9,1.6,3.6,2.6,5.3
	c4.7,8.1,4.7,8.2-1.9,15c0.2,0.6,0.3,1.5,0.7,1.7c7.1,4,13.5,8.3,12.3,18c0,0.3,0.2,0.6,0.5,0.9c4.4,5.3,8.8,10.6,14.2,17.2
	c-0.3-3.1-0.1-4.7-0.6-6c-2.5-5.8-5.4-11.5-7.8-17.3c-5.1-11.9-10-23.9-15-35.9c-0.6-1.5-1.3-3.1-1.5-4.7c-0.6-5,3.6-11,8-11.1
	c5.9-0.2,5.5,4.7,6,8.5c0.7,6.1,1.9,11.8,7,16c1.2,1,2.3,2.7,2.5,4.2c1.2,7.9,5.9,12.9,12.6,16.4c0.5,0.2,0.5,1.2,1,2.1
	c-1.1,2.4-2.4,5-3.1,6.5c7.5,9.2,14.5,17.6,21.4,26.1c3.4,4.2,3.4,8.4-0.6,12.5c-1.8,1.8-3.1,4.1-5.4,7.2c4.4,2.5,7.9,4.9,11.8,6.5
	c7.2,3,13.3,7.2,18.7,12.9c12.3,12.7,27.5,16.6,44.6,13.4c4.8-0.9,9.7-1.6,13,2.6c4.5,5.8,9.9,5.9,16.1,4.2c0.3-0.1,0.8,0.5,1.4,0.9
	c-2.3,1.6-4.6,3.2-7.7,5.4c8.4,3.6,15.4,7.7,23,9.8c8.4,2.2,12.3,8.9,16.9,14.7c1.9,2.4,0.7,7.3,0.9,10.9c8.3,7,16.8,13.8,24.7,21.2
	c3.4,3.2,6.5,3.5,9.7,1c2.5-2,4.4-4.9,6.2-7.6c1.9-2.8,3.4-6.4,7.5-5c4,1.3,8.5,2.8,9.3,8c1.5,9,2.5,18,4.3,27
	c1.6,8-0.7,14.7-6.1,20.1c-4.8,4.8-5.4,13.2-13.2,15.3c-0.5,0.1-0.5,1.8-0.8,2.8c-1.2,3.4-1.8,7.3-3.9,10.1
	c-3.3,4.4-2.5,8.4-1.1,12.7c2.4,0.3,4.2,0.5,6.8,0.8c-2,4.4-2.7,9.6-5.7,11.7c-4.9,3.4-3.8,6.9-3.1,11.3c0.8,4.4-0.3,9.1,4.9,12.2
	c3.6,2.1,7,5.4,9.1,8.9c5.1,8.9,9.3,18.3,13.9,27.4c0.9,1.8,2.3,3.2,3.3,5c3.7,6.6,7.9,13.1,10.8,20c1.6,3.8,3.8,6.6,6.5,9.6
	c4.9,5.6,11.8,7.2,17.6,10.9c5.9,3.7,11.2,8.3,17.3,11.5c7.9,4.2,11.3,9.7,11.6,19c0.5,15.9,0.1,31.8,2.8,47.7
	c1.4,8.2-0.3,17,2.7,25.3c0.4,1.1-0.5,2.6-0.4,3.9c0.7,9.9,1.4,19.8,2.2,29.6c0.5,6.2,1.9,12.4,1.7,18.6c-0.2,6.6-2.4,13-2.6,19.6
	c-0.1,3.7,1.5,7.6,2.9,11.1c1.1,2.7,3.8,4.9,4.4,7.6c1.7,7.2,2.7,14.6,4,22.4c2.4-2.7,4.1-4.7,7.1-8.2c2.4,8.6,4.3,15.1,5.9,21.7
	c1.7,6.6,3,13.3,4.4,19.2c-3,4-9.7-4-9.8,3.8c5.2,4.3,10,8.1,14.4,12.3c0.8,0.8,0.3,3.8-0.6,5.2c-0.9,1.3-3,1.9-5.8,3.4
	c3.3,1.7,5.5,2.7,8.4,4.2c-1.1,6.1,2,10.2,7.5,13.2c3.1,1.7,6.9,4,8.1,6.9c3.2,7.7,9.9,9.8,16.6,12.4c1.8,0.7,4.2,0.9,5.4,2.2
	c9.7,9.8,21.4,6.7,33.7,6.9c-3.4-8.6-10.3-7.9-15.7-10.4c-5.4-2.5-10.3-5.9-18.5-5.4c3.2-3.4,5-5.4,6.8-7.2c-1-1.4-1.5-2.2-2.1-3
	c-3.6-5.4-5.4-9.7-0.8-16.8c7.8-12,6.7-12.7-4.3-21.9c-0.5-0.4-1.1-0.8-1.5-1.3c-5.1-4.9-5.3-8.6,0.3-13.2c3.3-2.7,4.6-5,3.4-9.2
	c-0.5-1.8,0.9-4.4,1.9-6.3c1.2-2.2,3-4.1,5.4-7.1c-5.5-0.4-8.9-1.5-10.8-6.2c-1.4-3.3-8.2-3.7-5.1-10.5c5.6,1.7,11,3.3,18.4,5.6
	c-1.6-7.8-2.7-13.7-4.2-20.8c5.5,0.3,10.9,0.6,16.4,0.8c8.5,0.3,18.4-9.4,17.7-17.9c-0.2-1.9-1.9-3.9-3.3-5.5
	c-3-3.3-6.3-6.4-10.9-11.1c0.7,0.1-1.2,0.2-2.5-0.5c-2.1-1.1-4.3-2.6-5.7-4.5c-0.5-0.6,0.9-3.9,1.7-4.1c2.7-0.4,5.8-0.5,8.3,0.5
	c2.3,0.9,3.8,3.7,6,5.2c5.9,4.1,14,6.1,18.7,2c4.7-4.1,11.6-9.2,9.8-18.1c-1.3-6.6,0.3-13.1,3.2-19c9.9-0.4,9.9-0.4,12-10.5
	c0.3-1.6,0.5-3.5,1.4-4.7c3.2-4.1,3.1-8.1,1.6-13c-1-3.4-0.8-8.7,1.3-11.3c4.8-5.8,8.4-14,18.2-13.5c1.7,0.1,4.3-1.3,5-2.7
	c3.2-6.6,8.9-7,15.1-7.2c8.2-0.2,8.2-0.4,11-8.5c0.8-2.2,1.6-4.4,2.7-6.4c2.6-4.8,4-9.6,2.7-15.3c-0.6-2.6,0.3-6.3,1.9-8.4
	c4-5,3.1-10.1,3.1-15.9c-0.1-12-5.7-25.8,8.1-34.8c0.9-0.6,0.7-2.5,1.3-3.7c1.2-2.3,2.3-4.9,4.1-6.8c6.6-6.6,9.9-14.9,12.9-23.4
	c2.9-8.4-3.1-22.9-11.4-25.5c-7.3-2.3-11.7-5.9-11.7-13.3c-8.2-5.5-17.1-3.8-25.5-5c-7.6-1.1-14.7-3.3-21.6,2.3
	c-6.4-10.1-10.3-22.2-24.2-22.3c-3.6,3.5-2.9,10.5-10.4,9c0-3.5,0-6.8,0-10c-6.9-2.8-11.7-1.8-15.7,4.6c-2.8,4.5-7.6,6.9-15.8,5.3
	c4.3-2.5,6.9-3.7,9.1-5.4c2-1.6,3.7-3.5,5.2-5.6c2.2-3.2,3.5-7,6.1-9.8c2.7-3,3.2-5.4,1.1-8.8c-4.4-7.3-9.9-14.2-12.7-22.1
	c-3.9-10.8-11.8-11.2-20.7-11.1c-2.7,0-5.3,0.4-8,0.5c-6,0.2-10.3-2.2-12-8.4c-0.4-1.5-1.3-2.9-1.8-4.1c-6.6-2.3-14.3,0.1-18.4-7.2
	c-0.6-1.1-3.7-0.7-5.6-1c-2.5-0.4-4.9-0.8-8.5-1.4c2.4-3.4,4-5.6,5.3-7.5c-2.4-2.3-4.7-4.1-6.6-6.3c-5.8-7.1-8.1-7.1-14.5,0.1
	c-5.9,6.7-9.1,6.6-15.5-0.7c-5.2-0.4-10.3,5.2-15.9,0.6c0.9-2.6,1.7-4.9,2.2-6.3c-5-2.6-9.2-4.7-13.3-6.9c-0.9,1.5-1.7,4.4-3.7,5.8
	c-3.9,3-5.6,6.1-3.9,11.1c1,3,0.1,5.9-3.4,7.2c-4.2-1.4-6-4.6-5.3-8.5c1.1-6.5,3-12.9,4.8-20.2c-2.3,1.4-4.5,2.6-6.5,4
	c-5.8,4.3-10,10.9-18.5,10.8c-1.1,0-3.1,2.1-3.2,3.3c-0.9,9.6-8.9,13.9-14.4,20.5c-3-5.4-1-13-10.8-13.7c-7.3-0.5-11.5,3.4-16.1,6.2
	c-5.2-3-9.8-5.5-14.2-8.3c-1.5-1-3.1-3-3.2-4.6c-0.5-5.8-0.8-11.7-0.3-17.5c0.8-8.1,2.4-16.1,3.8-25.2c-2.8-0.8-6.3-2.6-9.7-2.6
	c-7.3-0.1-14.5,0.7-21.8,1.4c-3.5,0.3-7.1,2-10.5-1.5c1.8-4,3.5-7.9,5.3-11.8c0.8-1.8,2.9-4,2.4-5.1c-2.7-6.1,1.8-9.3,4.5-13.3
	c3-4.4,5.3-9.1,4.2-15.1c-4.5-0.3-8.8-0.8-13-0.8c-7.7,0-9.8,2-10.8,10c-0.2,1.3,0,2.7-0.2,4c-1.4,7.5-6.9,11.7-14.3,10
	c-4.1-0.9-7-0.5-10,2.2c-2.5,2.3-5.4,4.1-9,2.1c-4-2.3-7.9-4.7-12-7.1c-1.8-9.9-3.3-20.3-5.7-30.3c-2-8.2-0.2-15,4.7-21.5
	c1.7-2.3,3.9-5.6,3.4-7.9c-2.9-12.7,5.2-18.3,14.1-23.6c5.7-3.4,11.8-6.2,17.6-9.3c4.6-2.5,9-2,13.1,1.2c1.6,1.2,2.7,3,4.3,4.1
	c3.6,2.6,10.8,0.6,12.8-3.2c0.3-3.1,0.6-5.9,1.1-11.5c12.1,7.3,25-3,36.3,5.9c0.7,0.5,2.6-0.8,3.7-0.5c2.4,0.7,5.8,1.3,6.6,3
	c1.7,3.7,3.8,8.5,2.7,12c-3.4,11.5,4.2,18.3,9.1,27.8c1.4-2.5,2.7-3.6,2.6-4.7c-0.4-14.3,4.3-28.4,0.8-42.8c-0.9-3.6-1.2-7.6,2.4-10
	c9.6-6.6,18.5-14.8,29.1-18.9c11.6-4.5,13.1-14,16.5-22.9c1.8-4.8,1-10.5,1.9-15.7c0.4-2.5,2.2-4.8,4.1-8.8
	c2.1,4.9,3.3,7.8,4.5,10.7c0.6,0,1.3,0,1.9,0c0.8-3.9,1.5-7.8,2.3-11.9c1.9,0.9,3.7,1.7,5.4,2.5c4.6-5.2,8.1-11.5,13.5-14.6
	c5.7-3.3,13.2-3.6,19.2-5c0.9-4.8,0.4-9.9,2.7-12.1c4.8-4.8,10.8-8.6,16.9-11.7c5.8-3,12.4-4.6,18.6-6.9c4.5-1.7,9-3.4,13.8-0.7
	c-2.2,5.9-10.7,4.9-11.2,11c10.6-3.7,20.8-7.2,31.1-10.7c2.2-0.8,4.6-1,6.7-2.1c3.3-1.7,5.4-4.2,3.6-9.2c-5.1,7.1-12.1,8-19.2,8.2
	c-6.2,0.2-8.5-2-9-8.1c-0.3-3.9-0.1-7.8-0.1-12.2c1.9-1.9,4.3-4.2,6.7-6.6c-0.3-0.6-0.7-1.2-1-1.8c-3.7,1-7.6,1.5-11,3.2
	c-7.2,3.5-14,7.6-21.1,11.4c-2.6,1.4-5.3,3.3-8.3-1.6c2.6-2.1,5-4.6,7.9-6.4c8.2-5.1,16.5-9.9,24.9-14.6c1.9-1.1,4.3-1.5,6.6-1.7
	c11.6-0.8,23.2-1.2,34.8-2c2.3-0.2,4.6-0.9,6.6-1.9c8.9-4.5,17.6-9.1,26.8-13.9c0-3.2,0-6.6,0-9.9c-8.2-3.3-15.8,5.7-24.7-1.3
	c6.4-2.8,11.6-5,17.8-7.6c-3-2.2-5-3.7-7.2-5.2c-8-5.6-9-6.5-5.9-15.5c2.6-7.5-1-13.4-1.5-21c-6.6,4.8-12,9.2-17.9,12.7
	c-5.9,3.5-11,2.9-14.7-0.9c-4.1-4.1-4-8.6-1.8-13.8c3-7-2.4-14.8-9.7-12.9c-9.8,2.6-21-1.6-30.3,8c-0.5,1.7-1.5,5.3-2.8,8.7
	c-1.2,3.1-2,6.9-4.2,8.8c-3.6,3.1-4.4,6-3.5,10.4c1,5-1.6,8.3-6.3,9.9c-2.2,0.7-4.4,1.4-7.6,2.4c-0.6,12.6-10.7,12.7-20.7,13.2
	c2.2,9.3,0.5,17-5.7,23.6c-5.6,5.9-11.1,5.3-15-1.9c-3-5.5-1.7-11,0.5-16.4c1.4-3.5,2.9-7.1,4.8-11.8c-4.2-0.6-7.1-1.6-9.9-1.4
	c-7.5,0.7-12.2-1.8-13.5-9.6c-0.8-4.5-4.1-5.8-8.2-5.2c-2.3,0.4-4.5,1.3-6.7,1.8c-3.3,0.7-7.5,4.4-9.8,0.2c-1.1-2.1,1.5-6.3,2.5-9.8
	c-0.4-0.1-1.3-0.5-2.1-0.7c-7-1.6-8-4-3.6-9c1.5-1.7,3.3-3.4,5.3-4.6c8.9-5.1,18-10.1,27-15.1c2.6-1.4,6.3-2.1,7.8-4.2
	c6.6-9.6,16.4-13.1,26.9-15.7c0.8-0.2,1.4-1.1,2.6-2c-2.5-1.3-4.7-2.5-6.9-3.7c0.5-0.9,1.1-1.7,1.6-2.6c2.5-0.2,5-0.7,7.4-0.5
	c5.5,0.3,11.3,2.3,15-4.4c0.5-0.9,3-0.9,4.6-1c3.7-0.2,7.6,0.6,10.9-0.4c7.5-2.4,16.2-3.2,20.3-11.8c1-2.1,3.3-3.6,4.9-5.4
	c-2.3-3.5-9.3-1.5-8.6-8.5c12.9-0.7,25.9,7.6,37.5-0.4c4.6,3.1,8.5,5.8,12.5,8.5c0.1,0.2,0.4,0.5,0.4,0.8c-0.2,1.6-0.6,3.2-0.8,4.7
	c0.5,0.7,0.8,1.3,1.3,1.7c6.8,4.5,6.8,6,0.2,9.9c-3.7,2.2-8,4-10.7,7.1c-4.5,5.4-9.6,6-15.9,5.1c-2.4-0.4-5.7-1.2-8,3
	c2.8,0.2,4.8,0.8,6.6,0.4c7.9-1.7,13.2,0.5,16.9,8.3c2.8,6,14.8,8.1,23.8,4.9c-4.1-2.9-7.6-5.4-11.1-7.9c0.4-0.9,0.7-1.7,1.1-2.6
	c2.6,0.4,5.4,0.5,7.8,1.4c1.7,0.7,3,2.6,4.6,3.8c2.7,2.1,5.6,4.3,8.9,1.4c3.8-3.5,0.5-6.1-1.7-8.3c-3.2-3-4.5-6.2-4.1-10.6
	c0.2-3.1-0.2-6.1,3.4-7.4c3.2-1.1,5.4,0.1,7.9,2.5c7.5,7.4,17.4,6.9,25-1.3c-2.9-2.2-6-4.2-8.4-6.7c-2.7-2.8-5.5-5.9-7.1-9.4
	c-2.3-4.8-3.6-10.1-5-14.6c-5.5-0.5-9.4-0.9-13.2-1.2c-1.4-7.9-8.6-14.9-16-15.5c-2.7-0.2-5.9,0.5-8.3,1.9
	c-7.8,4.4-8.9,4.1-11.5-5.7c-1.8,1.1-3.4,2.4-5.2,3c-5.7,1.9-11.4,9.3-17.6,0.5c-0.4-0.5-2-0.5-2.9-0.3c-6.1,1.2-12.4,2-18.3,4.1
	c-4.7,1.7-9.2,4.5-6.1,11.3c0.6,1.3-1,3.5-1.6,5.4c1.2,0.6,2,1.3,2.9,1.5c4.3,0.9,7.8,3,7.7,7.8c-0.1,5.2-3.8,7.4-8.4,8.5
	c-3.9,0.9-7.7,2.1-11.7,2.6c-1.7,0.2-4.3-0.2-5.1-1.3c-0.9-1.3-0.9-4-0.1-5.5c1.2-2.4,3.4-4.4,5.3-6.8c-3.6-1.5-6.7-2.8-10.5-4.4
	c1.2-4.6,2.2-8.9,3.6-14.6c-7.8,4-14.4,7.3-21.1,10.7c4.7,7,5,7.5,2.9,10.5c-3.4,4.7-7.8,7.9-14.4,7c-0.3-3-0.6-5.4-0.8-7.6
	c-7.6-2.7-9,2.7-10.7,7.1c-3.4,0.5-6.6,0.3-9.1,1.6c-9.8,4.8-19.1,3.7-28.9-0.4c-6.3-2.6-13.7-4.8-20.2-0.5
	c-6.1,4.1-11.6,8.6-19.8,5.1c-1.7-0.8-4.5,0.9-6.8,1.3c-3.3,0.5-6.6,1.3-9.8,1.3c-6.3,0-6.7-0.7-7.1-7.9c-2.2-0.9-5.2-1.2-6-2.7
	c-2.4-4.3-5.8-4.9-10.1-4.2c-1.6,0.3-3.6,0.4-4.9-0.3c-5.4-3.4-10.5-3-15.9,0.1c-4.2,2.4-7.6,1.2-9.8-3.3c-0.7-1.4-1.8-2.5-2.9-4
	c-3.6,1-6.8,1.8-10,2.6c-13.7,3.8-27.3,7.7-41,11.5c-0.9,0.3-2.3,0.7-2.9,0.2c-8-5.1-16.9-3.2-25.6-3.4c-1.6,0-3.2-1-4.8-1.3
	c-12.7-2.2-24.9-7.7-38.2-4.7c-1.8,0.4-4-0.2-5.9-0.9c-13.6-5-26.8-3.1-40.1,1.4c-3.4,1.2-7.1,1.3-10.7,2.1
	c-4.2,0.9-8.3,1.8-12.4,3.1c-5.4,1.7-10.5,4-15.9,5.8c-3.5,1.1-7.3,1.4-10.6,2.8c-2.1,0.9-4.8,3.3-4.9,5.1c-0.1,1.8,2.6,4,4.5,5.6
	c1.5,1.3,3.5,1.9,6.5,3.4c-6.1,1.8-10.5,3.4-15,4.4c-2.5,0.5-5.2,0.6-7.7,0c-9-2.1-16.9,0.8-24.4,5.1c-1.3,0.7-1.6,3.1-2.9,5.9
	c8.6-0.7,16-1.3,23.4-1.9c0.3,0.7,0.6,1.4,0.9,2.2c-2.5,1.9-4.7,4.2-7.4,5.6c-3.6,1.7-7.5,2.7-11.3,4c-10.4,3.4-20.8,6.7-31,10.4
	c-3.8,1.4-7.7,3.5-3.8,8.4c-2.7,1.7-5,3-7.2,4.4c0.4,0.8,0.7,1.5,1.1,2.3c4.2-1.5,8.4-3,12.6-4.5c0.2,0.4,0.4,0.7,0.6,1.1
	c-3.5,3.8-7.1,7.6-10.4,11.1c9.3,4.7,18.5-0.9,30.1-1.6c-16.5,15.5-37.3,17.3-53.3,28.2c9.3-2.5,18.3-5.6,27.1-9
	c6.2-2.4,12.2-5.1,18.4-7.6c6.1-2.5,12.3-4.9,18.4-7.4c1.5-0.6,3.6-1.2,4.1-2.3c2.1-5.3,7.4-5,11.4-7c5-2.5,10.2-4.6,14.8-7.7
	c6.6-4.5,13.8-7,21.7-7.8c-4.9,5.4-13.6,6.3-17.2,16c5-1.8,7.9-3.6,11-3.9c4.1-0.4,6.7-1.5,9.4-5.1c3.9-5.2,9.6-5.2,13.5-0.1
	c3.7,4.9,8.1,5.3,13.1,4.6c3.9-0.5,7.8-1.5,11.8-2.1c0.9-0.1,1.8,0.4,3,0.8c0.2,2.3,0.4,4.5,0.6,6.3c3,1.5,5.6,2.7,7.5,3.6
	c-0.2,4.9-0.4,8.9-0.6,13.4c3.8-1.8,6.3-3,8.7-4.2c0.6,0.5,1.1,1,1.7,1.5c-3.8,7.2-7.7,14.4-11.5,21.6c5.8,1.2,6.4-8.5,13.2-4.8
	c-2.1,5.8-4.2,11.3-6.2,16.7c2,0.7,4,1.5,6.1,2.3c-1.7,5.1-3.2,9.4-4.7,13.8c1.7,2,3.3,4.1,5.2,6c2.1,2.1,4.6,3.8,6.7,6
	c6.5,6.6,4.5,17.3-3.2,20.4c-1.2-5.2-1.3-11.1-3.9-15.6C55.9,303.7,50.8,300.9,46.8,297.4z M1881,796.7c-6.8-0.8-12.1-0.9-17.1-2.3
	c-3.8-1.1-6.8-2.1-10.1,0.9c-1.1,1.1-3,1.9-4.5,1.9c-6.4-0.1-10,3.8-14.1,8c-4.4,4.5-5.5,9.2-3.3,15.4c-5.2,0-9.6,0-14.4,0
	c0,0-0.5-0.4-0.8-0.9c-5.5-9.7-8.8-10.1-15.6-1.7c-6.2,7.8-12.4,15.6-18.8,23.6c-1.8-1.3-4.2-3-7-5.1c-2,10.3-5.6,19.5-14,23.9
	c-8.9,4.7-19.3,7.2-29.3,9.3c-4.1,0.8-7.5,1.9-10.6,4.5c-5.9,4.7-11.7,9.4-18.1,14.5c-0.1,0.8,0.1,2.6-0.6,4c-3,6.7-3.9,13.1-0.2,20
	c0.8,1.5,0.1,5.5-1.1,6.2c-3.9,2.2-3.6,5.5-3.3,8.6c1.1,10.7,2.2,21.3,2.4,32.1c0.1,6-0.4,11.1-3.1,16c-1.6,2.8-4,5.1-6,7.6
	c6.3,9,9.6,9.7,18.1,5.4c8.1-4.1,15.4-10,25.7-8.8c7.6,0.9,16.2,2.5,21.3-6.3c14.7-8.7,31.2-11.1,47.7-13.1c2.9-0.3,6,0.5,8.9,1.1
	c5.4,1.2,10.8,2.5,17.2,4.1c1.3,6.3,2.6,13.1,4,19.9c7.6-5.7,14.2-10.8,22.5-17.1c-0.4,4.2,0.1,7-1,8.4c-4.6,5.5-2.5,10.6-0.4,16.1
	c1.4,3.6,2.2,7.1,0.1,11.4c-2.6,5.3-0.5,8.5,5.2,10.6c8.1,3,16.3,6.3,23.1-2.6c0.1-0.2,0.6-0.1,1.6-0.2c1.6,2.2,3.4,4.7,5.3,7.4
	c8.4-4.8,15.9-10.2,25.5-11.5c5.8-0.8,9.3-5.9,12.6-10.7c5.2-7.4,10.6-14.8,16.6-21.6c5.9-6.7,12.8-12.5,19-19
	c2.5-2.6,5-5.5,6.4-8.8c3.1-7.4,5.8-14.9,8-22.6c3.5-11.7,5.9-23.4-4.7-33.3c-1.5-1.4-1.7-4.3-2.7-6.3c-0.8-1.7-1.9-3.4-2.9-5
	c-2-3.3-5-6.4-5.9-10c-1.9-7.4-5.9-12.4-12.7-15.5c-4.8-2.2-6.4-6.1-5.9-11.4c0.6-5.9,0.4-12,0.4-18c0-5.5-1.8-10-7.7-11.3
	c-5.5-1.2-6.5-5-6.5-9.7c0-4,0.2-8-0.2-12c-0.2-1.9-1.6-3.7-2.8-6.1c-1.4,1.6-2.5,2.3-2.6,3.1c-0.9,6.2-1.6,12.4-5.5,17.7
	c-0.5,0.7-0.7,2-0.4,2.9c2.7,9-2,16-6,23.4c-5.4,9.8-9.6,10.8-18.5,3.6c-5.9-4.8-11.4-10-17.1-15c-3.1-2.7-4.1-5.3-1.9-9.6
	C1877.9,808.3,1879.1,802.7,1881,796.7z M1911.7,759.7c0.8,1.1,1.5,2.2,2.3,3.2c6.5,8.7,19.2,12.3,20.1,5.2c-1.9-1-4.2-2.2-6.4-3.4
	c3-2.7,4.6-3.1,6-3.9c1.7-1,3.2-2.3,4.8-3.4c5.9-3.6,10.5-2.3,15,3.6c3.5,4.7,6.5,10.7,11.3,13.3c5.9,3.2,13.4,3.5,22.3,5.5
	c-9.1-10.8-17-20.3-24.7-29.5c1.5-3.4,2.7-5.9,3.5-7.6c-4.2-2.8-10.1-4.6-10.6-7.4c-1.3-7.4-6.7-8.3-11.7-10.5
	c-3.9-1.7-7.8-3.7-11.7-5.3c-6.1-2.6-12.2-5.3-18.4-7.4c-5.9-2-12.1-3.3-19.3-5.2c-2.7,2.5-6,5.7-9.5,8.7c-6.3,5.4-7.7,5.2-12.9-0.5
	c-5.2,0.9-9.8,1.6-15.2,2.5c2.1,3.1,3.8,5.8,4.8,7.2c4.1,0.3,7-0.2,9.3,0.7c6.8,2.7,13.3,6.1,20,8.9c8.6,3.5,10.3,11.5,13.7,17.5
	c-2.6,4.6-9.5,2.5-8,10C1901.1,761.2,1905.8,760.5,1911.7,759.7z M1685.6,681.6c-7.1,8.5-3.8,16,1.5,22.2c3.4,3.9,4.6,7.7,5.3,12.4
	c0.3,1.9,0.9,3.7,1.6,6.3c4.8-2,9.1-2.1,13,1.1c8.6-4,15.9-0.7,22.4,4.3c1.2-0.7,2-0.8,2.2-1.3c4.6-10,5.6-21.5,12.6-30.5
	c0.2-0.2,0.2-0.6,0.2-1c0.2-5.2,2.7-8.6,8.2-9.4c-2.7-4.6-5.1-8.5-7.5-12.5c-4.1-6.8-3.9-7.6,1.2-13.7c2.3-2.8,4.1-6.2,5.3-8.1
	c-5-5.8-9-10.3-13.2-15c-5.8,2.7-9.6,7.5-11.1,14.7c-0.6,2.8-3.1,6.4-5.5,7.3c-9.5,3.3-12.5,14.7-22.4,17.1
	c-0.4,0.1-0.6,1.1-0.9,1.7C1694,685.5,1694,685.5,1685.6,681.6z M1241.9,834c-1.3-6.6-2.3-12.7-3.9-18.8c-0.5-1.8-2.5-4.3-4.1-4.5
	c-1.7-0.2-4.2,1.5-5.5,3c-1.7,2-3.4,4.6-3.6,7c-0.8,9.1-7.1,12.9-14.1,16.4c-14.2,7.1-14,7-12.9,23.3c0.7,10.2,0.7,18.9-5.5,27.2
	c-1.8,2.4-3.6,7.2-2.4,9c2.8,4.3,2.4,8.8,3.4,13.2c0.9,3.6,3.2,6.9,5.2,10.9c3.5-2.2,6-4.9,8.4-4.9c7.3,0,8.3-5,10-10.1
	c3.1-9.5,6.3-18.9,9.9-28.2c4.3-11.2,9.1-22.1,8.1-34.6c-0.2-2.2,0.5-4.5,0.7-6.8C1238,835.4,1240,834.7,1241.9,834z M1579.5,654
	c1.7,1.9,2.9,4.3,4.9,5.4c6.7,3.7,11.5,8.8,13.9,16.2c0.5,1.4,1.9,2.5,2.8,3.8c2.5,3.4,4.5,7.2,7.4,10.3c7.1,7.6,12,16.2,14.8,26.1
	c0.2,0.9,1.6,1.4,1.9,2.2c4.9,11.3,17.8,14.5,24.7,23.9c2.8,3.8,8,1.6,8.4-3.4c0.4-5.3,0.1-10.7-0.5-15.9c-0.2-2.1-1.9-4.2-3.5-5.8
	c-4.6-4.7-9.4-9.2-13.8-13.4c-0.8-4.6,2.9-9.4-2.4-12.4c-11.5-6.5-21.4-15.1-32.2-22.5c-5.2-3.5-9.3-7.3-10.4-13.6
	c-5-0.7-9.6-1.4-14.1-2.1C1581.3,652.8,1581,653.1,1579.5,654z M880,267.6c-4.3-5.5-10-8.5-13-15c-2.5-5.5-9.2-9.1-14.2-13.6
	c2.4-2.7,4.9-5.5,7.7-8.7c-9.9-1.9-11.1-2.4-14.3-5.8c-3.1,1.6-6.1,3.2-9.4,4.9c2.3,8.4,1,19.2,13.8,20.9c1.6,4.9,1.6,4.9-4.6,15.7
	c0,2.9,0,5.4,0,8.1c2.9,0.9,5.5,1.6,8.2,2.5c-1.2,2.1-1.9,3.5-2.8,5c7.7-0.7,15.2-1.4,21.4-2C875.6,274.9,877.8,271.3,880,267.6z
	 M1852.7,392.3c-2.2-8.2-5.3-15.6-5.9-23.3c-0.9-12.4-2.4-15.5-16.9-21.1c1.8,4.1,2.9,6.9,4.3,9.7c4.1,8.4,2.3,17.6-4.1,23.7
	c-3.7,3.5-6.9,7.6-11,12.2c-2.3,0.1-6,0.9-9.5,0.3c-8.4-1.5-11.9,3.2-14.7,11.4c9.4-3.2,17.7-7.9,27.2-6.5c1.4,2.8,2.7,5.5,4.1,8.2
	c0.7-0.1,1.4-0.1,2.1-0.2c0.6-3.5,1.3-7,2-11.5c3.1,1.5,5.6,2.8,8.1,4C1842.8,397.1,1847.3,394.9,1852.7,392.3z M1220,85.4
	c-0.1-0.7-0.1-1.3-0.2-2c-1.4-0.2-2.9-0.7-4.3-0.5c-13.8,2.3-27.6,4.3-41.2,7.3c-4.1,0.9-9.9,3.9-11,7.3
	c-2.1,6.5-5.4,11.2-10.4,15.3c-1,0.8-1.2,2.7-2.3,5.3c4.9-0.7,8.7-1.3,12.8-1.9c4.8,10.2,13.4,6.9,22.9,7.1
	c-5.4-6.2-16.8-4.9-13.9-16.3c8.7-2.7,10.2-14.9,20.4-16.7C1201.8,88.7,1210.9,87,1220,85.4z M2062.4,1034.4
	c-8.1,6.3-15.2,12.3-22.8,17.6c-4.8,3.4-10.1,7-15.7,8.1c-8.8,1.9-15.7,6.8-23,11.1c-2.8,1.7-4.6,4.9-7,7.6
	c9.7,5.9,9.3,5.3,17.1-0.2c10.9-7.7,19.9-18.9,34.3-20.9c0.9-0.1,1.8-0.8,2.6-1.3c5.7-4.5,11.3-9,16.9-13.4c0.7-0.6,1.5-1.2,2.3-1.9
	C2065.6,1039,2064.2,1037.1,2062.4,1034.4z M746.4,166.6c1.7,1.4,3.7,2.2,3.9,3.4c1.9,9.3,4.5,12.6,12.5,12.6c12,0,23.1-4,34.4-9.2
	c-2.7-4-4.9-7.1-7.2-10.6c-10.9,2.1-21.6,4.1-32.8,6.3c-1.7-1.5-3.8-3.5-6.2-5.8C749.4,164.4,748.1,165.4,746.4,166.6z M482.8,310.1
	c0.6,0.8,1.2,1.6,1.8,2.4c4.8,0.4,9.9,2.1,14.3,0.9c6.9-1.9,11.4,1.1,16.2,4.6c1.1,0.8,2.5,1.2,4.3,1.9c-0.7-6.4-1.3-11.8-1.9-17.8
	c-4.7-1.8-10.1-3.9-16.7-6.4c3-3.9,5.5-7,8-10.2c-5.9,2.3-11.6,4.5-12.8,11.9c-0.4,2.3-2.6,4.5-4.5,6.2
	C488.8,306,485.7,307.9,482.8,310.1z M1658.2,751.1c3.6,3.4,6.5,6.2,9.4,8.9c3.1-1.3,5.8-2.4,8.5-3.5c4,3.2,8,5.2,12.3,6
	c6.8,1.3,13.8,2.1,20.7,2.8c3.6,0.4,7.2,0.1,10.8,0.1c0.1-0.7,0.1-1.4,0.2-2.1c-3.1-1.1-6.3-2.2-9.4-3.3c0.2-2,0.4-3.5,0.6-4.8
	c-3.3-0.8-6.5-1.8-9.7-2.4c-2.2-0.4-5.1-1.1-6.6-0.1c-6.6,4.4-12.4,2.4-18.5-1.1C1670.9,748.5,1665.1,745.9,1658.2,751.1z
	 M1770,706.4c-2.1-1.5-4.3-3.1-7.1-5.1c-2.6,6.9-5,12.9-6.9,19c-0.5,1.5,0.4,4.2,1.6,5.3c3.7,3.1,3.3,6.8,2.7,10.9
	c-0.2,1.5,0.5,3.1,0.9,4.6c2-6.6,2.2-13.2,3.1-19.6c0.2-1.8,2.5-3.2,3.9-4.8c1.5,1.4,4.3,2.7,4.4,4.1c0.4,8.4,8.1,10.4,13.4,14.9
	c-3.5-8.3-7-16.7-10.5-25.3c1.8-2.2,3.8-4.8,5.9-7.3c-0.3-0.5-0.6-0.9-0.9-1.4C1777,703.2,1773.7,704.8,1770,706.4z M805.9,274.2
	c10,3.2,16.3-1.5,23-3.3c1.1-0.3,1.9-2.6,2.2-4.1c1.2-5,2.1-10.1,3.2-15.7c-3.3-0.7-6.7-1.5-10.1-2.3c-1.9,2.3-3.3,4.8-5.4,6.1
	c-2.3,1.5-5.3,1.8-8.2,2.7C811.6,263.6,813.3,269.3,805.9,274.2z M2099.5,1002c-0.7,0.8-2.2,2.2-3.4,4c-2.1,3.3-3.2,8-6.2,9.9
	c-7.3,4.7-7.5,11.8-8.5,19.2c6.4-4.2,12.3-8.9,18.1-13.5c1.2-1,2.8-2.4,4.1-2.3c7.3,0.7,8.4-5.7,11.7-8.7
	C2110.3,1008,2105.8,1005.5,2099.5,1002z M1755.4,539.7c-4,5.7,0.9,9,2.5,12.8c-6.6,7.3-6.4,9.6-0.9,16.8c2.4,3.2,4.3,7.4,4.9,11.4
	c0.5,3.8,1.2,6.6,5.1,9.2c-0.3-6.3,0.6-12.1-1.1-17c-1.8-5-1.3-9-0.5-14.1C1767.4,545.6,1769.8,544.5,1755.4,539.7z M1839.9,335.4
	c2.8-2.4,6-5.1,10.2-8.6c-2.3-1.6-4.2-3.4-6.5-4.4c-2.3-1-5.1-1.1-7.6-1.9c-5.5-1.8-10.9-3.8-18.2-6.5c2.6,5.3,4.4,9,6.3,12.8
	c-1.1,2.5-2.1,5-3.1,7.4C1827.2,334.6,1832.9,334.9,1839.9,335.4z M256.6,531.6c2.8-0.6,5.6-1.4,8.5-1.9c1.9-0.3,4.6-0.8,5.6,0.1
	c4.6,4.2,9.9,4.9,15.8,4.6c1.6-0.1,3.7,0.3,4.7,1.3c4.7,4.7,9.2,9.6,13,13.8c5.7,0,10.7,0,15.6,0c-3.3-2.5-6.2-4.8-9.2-6.9
	c-5.7-3.9-11-8.9-17.3-11.1c-8.6-3-18-4.1-27.2-5.6C262.2,525.4,258.3,526.5,256.6,531.6z M944.8,79.4c14.3-5.6,13.9-4.9,13.9,6
	c10,3.4,10.8-7.8,16.9-10.6c2.4,0.2,4.9,0.4,7.4,0.6c-6.6-3.1-13.5-5.6-20.3-5.4c-5.8,0.2-11.5,2.4-17.4-0.4
	c-1.5-0.7-3.9,0.7-6.7,1.3C941,74.3,942.7,76.6,944.8,79.4z M352,552.6c-6.3,0-12.5,0-19.3,0c0.7,3.3,1.3,6.2,1.9,9.5
	c-3.8,0-6.9,0-11.8,0c7.9,2.2,14,3.9,20.1,5.7c4.9-2.3,10-4.7,15.3-7.2C356.2,557.9,354.2,555.3,352,552.6z M441.3,77.1
	c10.3,11.1,14.7,11,33.6-0.5C459.1,69.1,454.2,69.1,441.3,77.1z M347.4,99.5c-4.1,2.3-7.4,4.6-11,5.9c-2.5,0.9-6,1.5-8.3,0.6
	c-8-3.3-15.1,0.4-22.6,2c6,4.2,11.6,7.2,19.5,4.7c6.7-2.2,14.2-1.9,21.3-2.8c1.5-0.2,3-0.6,5.2-1C350.1,105.6,349,103.1,347.4,99.5z
	 M1782.3,624.5c0.6,1.1,0.7,1.6,0.9,1.7c2.7,0.8,5.5,1.6,8.3,2.4c2.3,13.4,2.3,13.4,10,14.3c-0.6-2.5-1.2-4.9-1.8-7.2
	c8-5.6,8.1-7.2,0.6-18.7C1796.8,625.5,1788.2,621.1,1782.3,624.5z M1871.3,1057.4c12.7-3.2,18.6-8.8,19.9-18.9
	c-6.1,0.3-12.2,0.6-18.8,0.9C1873.3,1045.5,1867.6,1051.1,1871.3,1057.4z M1464.9,619.2c-5.5,7.5-4.7,16.9,1.3,28.4
	c6.9-1.8,9.1-3,8.1-6.2C1472.1,634,1471,626.1,1464.9,619.2z M425.5,98.2c-0.9,3.9-1.5,7-2.4,11c13-3.3,26.4,5,38.1-4
	c-5.3-0.4-10.5,0.1-15.7,0.4c-4.1,0.3-7.9,0-10-4.6C433.4,96.7,429.3,97.8,425.5,98.2z M356.2,133c0.7,0.6,1.3,1.1,2,1.7
	c4.9-1.9,9.8-3.7,14.6-5.7c1.1-0.5,2.8-2.1,2.7-2.3c-2.7-5.1,5-5.4,4.6-10.5c-4.9,0.3-9.4,0.6-13.4,0.8
	C362.9,122.9,359.6,127.9,356.2,133z M1350,68.5c0.4-0.7,0.9-1.5,1.3-2.2c-2.8-1.7-5.4-3.9-8.4-5.1c-3.2-1.3-7-1.2-10.2-2.5
	c-8.6-3.3-15.7-3.4-22.4,0.5c5.1,5.7,10.8-1.4,15.9,1c1.7,2,3.3,5.4,5.5,5.9C1337.7,67.5,1343.9,67.8,1350,68.5z M412.4,188.4
	c-4-3.7-6.8-6.4-9.6-9c-2.7-2.5-5.4-3.3-8.7-0.4c-3.8,3.4-8,6.3-11.9,9.4c4.2,3.5,4.6,4,6.6,2.4c5.7-4.7,11.5-3.6,17.7-1.8
	C407.8,189.4,409.5,188.8,412.4,188.4z M1867.8,697.1c-6.8,3.4-14.8-3.2-19.9,6.6c8.8-0.9,11.9,11.3,21.4,7.1
	C1868.8,706.4,1868.4,702.6,1867.8,697.1z M1801.7,281.1c1.7-7.5-3.1-11.1-6.2-15c-3.3-4.1-7.7-7.3-11.7-10.8
	c-3.7-3.2-5-9.2-12.4-10.2C1781.8,257.5,1791.3,268.8,1801.7,281.1z M1798.1,685.8c-8.5,0.3-17.4,0.6-28,0.9
	C1784.1,694,1791.9,693.3,1798.1,685.8z M1800,428.8c0.5-0.3,0.9-0.6,1.4-0.9c0-3.9,1.2-8.4-0.3-11.4c-1.7-3.4-6-5.6-9.2-8.4
	c-1.7,1.5-2.8,2.5-4.3,3.8c3.3,2.7,6.6,4.5,8.6,7.3C1798.1,421.9,1798.8,425.5,1800,428.8z M1748.7,506c0.9-7.8,1.6-14.7,2.4-21.6
	c-4.1,0.6-3.9,0.7-6.5,7.2C1742.1,497.6,1744.4,501.6,1748.7,506z M1360.3,73.6c7.9-1.5,14.7-2.8,24-4.5c-7.8-2-13.3-3.5-19.2-5
	C1363.4,67.4,1362,70.1,1360.3,73.6z M1106.2,325.8c-5-5.1-9.4-8.1-15.9-3.6c2.4,2.9,4.4,5.4,6.6,8
	C1099.9,328.8,1102.5,327.5,1106.2,325.8z M377.1,100c2.1,3,3.7,5.3,5.6,7.9c4.2-2.9,11.2,0.8,12.8-7.7c-3.1,0.3-5.6,0.7-8.1,0.7
	C384.5,100.9,381.6,100.4,377.1,100z M1678.3,528.8c-3.6,0.5-6.4,0.2-8.3,1.4c-1.9,1.2-3.1,3.8-3.8,6c-0.3,0.8,1.8,3.6,2.3,3.4
	c2.2-0.6,4.8-1.4,6.2-3C1676.3,534.9,1676.8,532.1,1678.3,528.8z M312.5,101.4c-12.2-4.2-21.7-3.2-28.1,1.8
	C292.9,102.6,301.7,102.1,312.5,101.4z M931.4,376.2c4.2-4.3,2.6-8.9,1.7-13.6C924.7,364.3,924.3,367.1,931.4,376.2z M1003.5,67.2
	c-5.2-0.3-10.4-0.6-15.7-0.9C992.9,71,998.1,70.9,1003.5,67.2z M959.3,388.5c5.3,2.1,9.1,3.6,13.5,5.4c0.4-2.5,0.7-4.4,1.1-6.8
	C969,387.6,964.9,388,959.3,388.5z M450.4,159.6c0.1,0.9,0.1,1.7,0.2,2.6c3.8-0.7,7.5-1.5,11.3-2.2
	C457.4,155,453.8,156.7,450.4,159.6z M1817.1,407.6c-4.2-4.5-6.9-1-9.3,0.8c-0.5,0.4,0.7,2.9,1.2,5
	C1812.1,411.2,1814.3,409.6,1817.1,407.6z M1823.8,679.1c-0.7,0.2-1.4,0.3-2.2,0.5c0.2,3.5,0.4,6.9,0.7,11.9
	C1829,686.3,1823.8,682.7,1823.8,679.1z M1793.1,604.1c0.8,0,1.6,0,2.4-0.1c0-3.3,0-6.5,0-9.8c-0.5,0-1,0.1-1.5,0.1
	C1793.7,597.6,1793.4,600.8,1793.1,604.1z M1996,737.1c-0.3-0.7-0.7-1.5-1-2.2c-2.9,1.3-5.7,2.7-8.6,4c0.3,0.6,0.5,1.2,0.8,1.8
	C1990.1,739.4,1993.1,738.2,1996,737.1z M406.9,119.5c-0.1-0.9-0.1-1.8-0.2-2.6c-2.8-0.6-5.7-1.9-8.8,3.7
	C401.8,120.1,404.3,119.8,406.9,119.5z M929.1,347.4c-0.9,2.1-1.8,3.3-1.6,4.2c0.2,0.9,1.6,1.6,2.4,2.4c0.6-1,1.7-2,1.7-2.9
	C931.7,350.1,930.5,349.2,929.1,347.4z M1148.1,137.7c0-1.1,0-2.1,0-3.2c-2.2,0.1-4.5,0.2-6.7,0.3c0,0.8,0,1.5,0,2.3
	C1143.7,137.3,1145.9,137.5,1148.1,137.7z M1797.5,773.6c-5.4,0.4-6.9,1.9-5.5,7.2C1794.1,778.2,1795.3,776.5,1797.5,773.6z
	 M390.9,86.9c3.8,0.4,6,0.7,9.3,1.1C397.3,84.7,395.2,83.5,390.9,86.9z M2099.2,987.2c-0.8,0-1.6-0.1-2.4-0.1
	c0.1,1.7,0.2,3.5,0.3,5.2c0.6,0,1.1,0,1.7,0C2098.9,990.6,2099,988.9,2099.2,987.2z M477.2,106.6c-0.1-0.9-0.1-1.9-0.2-2.8
	c-1.9,0.1-3.8,0.2-5.6,0.3c0,0.7,0,1.4,0,2.1C473.3,106.3,475.2,106.4,477.2,106.6z M945.2,255.4c4-2.4,8.9-5,14.7-0.6
	c1.6,1.2,5,0.4,7.4-0.2c4.8-1.3,9.5-3.2,14.2-4.7c1.6-0.5,3.3-1.2,4.8-1c2.5,0.4,5.3,2.7,7.3,2c4.3-1.4,8.2-4.2,12.1-6.4
	c0.4-5.7-4.1-11.5,1.6-16.2c5-4.2,8.5,1.5,13.1,2.3c7.2-6.2,0.6-10.9-2.8-16c4.9-3.2,9.4-5.8,14.4-4.6c7,1.7,12.9-0.1,19.7-4.4
	c-5.2-4.2-10.9-5-16.6-4.3c-4.6,0.5-9,2.1-13.5,3.4c-12.6,3.7-16.1,0.9-19.7-11.6c-2.1-7.2,0.5-10,5.5-13.8
	c4.8-3.7,8.5-8.8,12.7-13.3c-8.9-6.5-17.8-5.3-21.5,2.8c-1.8,3.8-3.6,6.6-7.8,8.1c-3,1.1-5.4,3.8-8,5.9c-8.9,7.2-8.4,16.2,1.3,22.5
	c0.8,0.5,1.5,1.2,2.5,2c-0.9,6.6-7.4,6.8-11.6,10c-0.1,1.1-0.4,2.4-0.3,3.7c0.9,9.1,0,16.7-11.7,17.7c-1.9,0.2-3.7,2.5-5.8,4.1
	c-10.3-9.1-6.9-25.3-17.4-33.3c-5.1,3.6-9.8,7.8-15.3,10.6c-8.2,4.2-13.6,0.9-14.2-8.1c-0.1-1.6,0.4-3.3,0.1-4.9
	c-2.2-13.2-2.1-12.9,9.3-19.3c8.3-4.7,16.2-10.2,24.3-15.4c1.6-1.1,3.9-2.5,4.2-4c1.4-8.1,7.5-12.1,12.9-16.9c2-1.8,3.2-4.6,5.4-7.9
	c0.5-0.1,3.2,0.4,3.9-0.6c5-6.7,12.8-6.2,19.5-8.3c3.7-1.2,7.3-3.1,11-3.8c4.9-0.9,9.4-3.4,15.2-1.2c3.5,1.3,8.8-2.5,14.4-4.4
	c1,1,2.9,2.8,4.8,4.5c4.5,4,8.9,6.4,15.9,5.8c7.8-0.7,16.1,2.3,24,4.1c6.4,1.5,12.7,3.7,18.9,5.7c3.7,1.2,7.2,2.8,10.9,4.3
	c-3.9,7.1-9.9,9.3-18.8,7.7c-8.5-1.6-17-3.2-25.5-4.8c-1.2-0.2-2.4,0-4.2,1.6c4.3,1.8,8.7,3.7,12.5,5.3c2.5,4.4,3.8,9.9,7.3,12.3
	c4.2,2.9,10.2,3.1,15.4,4.4c0.3-0.7,0.6-1.3,1-2c-1.6-1.7-3.3-3.4-5.1-5.4c1.2-0.2,2.2-0.6,3-0.4c5,1.6,9.7,4.7,16.2,2.6
	c-1.2-2.5-2.2-4.6-3.5-7.2c4.5-3.3,7.7-8.7,15.2-4.8c4.5,2.3,6.7-0.9,5-6.5c-2.1-7-1.7-7.6,6-8.2c-0.5,2.2-0.9,4.1-1.7,7.1
	c4,1.2,7.9,2.3,12.6,3.7c1.5-5.2,3.1-8.9,9.2-8.4c2.9,0.2,6-3.2,9.7-5.3c4.3,7.8,10.9,6.6,18.5,4.2c4.6-1.5,9.8-1.2,14.7-1.7
	c3.6-0.4,7.2-0.9,12.8-1.5c-3.6-3.6-6.2-6.1-9.6-9.5c10-1.4,17.7,3.3,25.9,4.7c8.5,1.5,16.8,3.9,25.8,6c4.6-11.8-6.9-13.4-12.2-18.5
	c0-5,0-9.5,0-14c11.6-3,13.3-2.4,17,7.5c3.2,8.5,8.3,15.2,15.9,19.9c4.2,2.6,6.1,5.8,4.2,10.9c-1.2,3.1-2.2,7,2.4,8.2
	c4.1,1.1,7.2-1.3,8.6-5.1c1.2-3,1.7-6.3,2.8-10.2c4.3,1.5,7.8,3.4,11.6,3.9c2.5,0.3,6.5-0.6,7.6-2.4c2.3-3.5-0.7-6.3-3.8-7.8
	c-2.7-1.2-5.7-1.9-8.6-2.2c-10.1-1.1-17.7-5.4-21.8-17.1c6.5,2.8,12,5.1,18.1,7.7c0.7-3,1.3-5.3,1.9-7.6c4.7,1.1,9.1,2.5,13.7,3
	c1.9,0.2,5-0.8,5.9-2.3c0.8-1.4-0.4-4.2-1.4-6.1c-0.8-1.6-2.5-2.8-4.6-5c3.7-0.2,6.2-0.4,8.7-0.6c3.3-0.2,6.2-1.4,6.3-5
	c0.2-6.1,4.1-8.1,9-8.8c8.1-1.2,16.1-1.9,24.1-4.7c5.4-2,11.8-0.9,17.8-1.2c4.4-0.2,7.6-1.4,10.7-5.6c2.3-3.1,8.6-3.1,12.8-4.4
	c4.9,10.2,5.2,9.8,14.9,8.9c10.2-0.9,20.5-0.7,30.8-0.5c2.6,0,5.1,1.9,8.7,3.4c-7.9,6.7-17.9,8.1-22.2,17.6
	c5.2,2.4,9.6,0.8,13.7-0.9c8-3.4,15.7-5.5,23.8-0.5c1.6,1,4,1.5,5.8,1.1c13-2.5,25.6,3.6,39.5,0.6c1.6-4.8,6.4-4.3,11.6-3.5
	c7.6,1.1,15.2,2,22.8,2.8c3.6,0.4,5.8,1.7,7.5,5.3c5.5,11.4,13.2,12.8,23.4,5.3c1.9-1.4,4.5-2.6,6.9-2.8c4.6-0.3,9.4-0.4,14,0.3
	c6.1,1,10.8,0.4,14.6-5.5c1.3-2.1,5.7-3.4,8.6-3.3c12.3,0.3,24.6,1.2,37.4,1.9c1.4,8.4,7.7,8.8,14.1,9.1c7.2,0.3,14.7-1.5,21,4.1
	c1.1,1,4.5,0.1,6.4-0.8c13.2-6,26.1-4.9,38.4,1.8c7.4,4,15.2,5.2,23.2,4.2c12.8-1.7,25.2-0.4,37.6,2.7c2.5,0.6,5.2,0.7,8.6,1.1
	c1.8-6.7,6.4-7.2,12.7-7c25.2,0.6,49.4,6.6,73.7,12.6c1,0.2,2.4,0.3,2.8,0.9c4.1,7.5,13,3.7,18.6,7.8c1.2,0.9,4.3-0.6,6.5-1.3
	c5.5-1.8,10.9-2.4,16.6,1c-0.2,3.6-0.4,7.2-0.6,11.1c-8.2-1.8-16.1-3.7-24-5.3c-7.6-1.6-15.3-2.9-24.7-4.6c2.3,3.8,3.8,6.4,5.9,9.9
	c-5.3-0.4-9.9-0.7-16.4-1.1c6.2,8.3,14.7,5.3,20.8,8.5c6,3.2,12.8,4.7,20.2,7.3c-1.8,0.9-2.4,1.5-2.8,1.4
	c-7.7-2.9-13.3-0.4-17.9,6.2c-2.8,4.1-6.4,7.6-10.3,12.2c-12.4-5.8-24,1.9-36.9,2.9c2,5.5,3.6,9.9,5.3,14.2c0.3,0.8,1.4,1.3,2.3,1.8
	c5.7,3.1,11.5,6.1,17.1,9c-2.7,8.4-2.4,9.2,6.9,16.2c-7.9,7.5-4.9,16.4-2.1,26.8c-3.2-2-5.2-2.9-6.7-4.3c-4.4-4.1-8.6-8.3-13-12.5
	c-6.2-6-12.4-12-18.8-17.8c-7.4-6.7-7.4-8-4.3-18c2.1-6.9,3.5-14.3,3.5-21.4c0-4.4-3.2-8.9-5.3-14.4c-1.5-0.1-3.9-0.3-6.3-0.5
	c-1.3,4.8-2.4,9.1-3.7,13.6c-9.9-0.8-17.7-11-28.3-3.2c0,5.1,0,10.9,0,17.7c-3.3-0.3-6.8-0.3-10.3-0.9c-9.3-1.7-18.2-4.7-28.1-0.1
	c-4.6,2.2-11.1,0.4-16.8,0.5c-3,0-6.1-0.4-8.9,0.3c-3.7,0.9-7,3-6.2,7.6c0.8,4.5-1,7.7-3.7,10.9c-1,1.2-1.8,2.8-2.3,4.3
	c-1.7,5.2-3.2,10.5-5,16.5c4.4,0.6,9.6,0.4,14.2,2c4.8,1.7,8.9,5.2,13.5,8.1c1.9-2.3,3.3-4,5.6-6.8c6.1,3,12.5,5.8,18.3,9.3
	c2.7,1.6,6.2,4.7,6.4,7.3c0.7,8.9,7.3,14.7,10.3,22.3c1.3,3.3,3.1,7.2,2.6,10.4c-1.9,11.8-4.4,23.5-7.4,35.1
	c-1.4,5.5-4.2,6.4-9.9,5.2c-10.3-2.1-12.8,0.4-13.8,11.3c-0.4,4-2.9,8-5,11.6c-4.6,8.2-4.6,9.4,3.5,14.2c5.3,3.1,9.6,6.9,12.7,12.4
	c1.8,3.1,5,5.3,7.3,8.1c2.8,3.6,2.4,6.3-1.6,7.9c-3.9,1.6-8,2.5-12.1,3.7c-2.9-7.8-5.4-14.3-7.7-21c-1.5-4.4-4.2-6.7-8.9-6.1
	c-4.3,0.5-6.7-0.9-7.8-5.5c-1.8-7.9-4.5-10-12.3-9.4c-4.5,0.3-9,2-14.5,3.3c-0.8-2.2-1.4-4.7-2.7-6.8c-1.3-2-3.3-4.7-5.2-5
	c-1.7-0.2-4.9,2.2-5.5,4.1c-1.6,4.9-5,6.7-9.4,7.7c-2.1,0.5-3.9,1.9-5.6,2.7c0.4,5,4.1,4.8,6.7,5.5c4.2,1.1,7,2.6,8,7.6
	c0.5,2.7,3.6,5,5.2,7.1c6-0.9,9.5-10,16.1-2c-2.4,2.8-5,5.7-7.4,8.8c-3.6,4.6-3.1,5.8,1.2,9.9c7,6.8,13.7,13.9,22,22.4
	c-5.2,0-8.2,0-12.9,0c5.7,3.5,10,6.2,14.9,9.2c-2.3,2.7-4.1,4.8-6.7,8c4.9,1.1,8.8,2,13.1,3.1c-3.2,9.2-1.9,19.1-8.6,26.6
	c-0.4,0.4-0.7,1.2-0.6,1.8c1.3,17.2-11.8,22.7-23.7,29.4c-4.8,2.6-8.7,1.9-12.9-1.6c-1.5,3.1-2.1,6.2-4,8c-2.1,2-5.1,3.3-8,3.9
	c-4.9,1.1-8.5,3.1-9.7,10.7c-1.8-4.5-2.8-6.8-4.2-10.3c-4.4,0.8-9.7,0.5-13.7,2.6c-6.6,3.6-10.8,10.3-12.1,17.4
	c-1.2,6.5,3.5,11.6,7.9,16.2c6,6.2,13.4,11.6,17.4,18.9c4.4,7.9,5.9,17.5,7.8,26.5c0.8,3.9-9.3,12-15,12.8c-1.9,0.3-3.9,0.3-5.3,0.4
	c-1.1,3.9-2.1,7.4-3.7,13.1c-4.5-7.7-7.1-13.8-15.1-14c-1.7,0-4.4-2.8-4.7-4.6c-0.7-5.2-3.9-6.9-8.2-8.6c-2.5-1-4.4-3.6-6.5-5.6
	c-1.7-1.5-3.1-3.6-5.1-4.4c-4.1-1.7-7.7,1.2-6.4,5.7c2.1,7.3,1.5,14.1,0.5,21.4c-0.6,4.4,2.6,9.4,4.3,13.9
	c1.9,4.9,3.1,10.5,6.4,14.1c3.4,3.7,9.3,5,13.4,8.2c2.6,2.1,5.3,5.8,5.4,8.9c0.3,10,2.7,19,8.7,27.1c0.5,0.6,0.3,1.8,0.5,3.9
	c-3.7-1.9-7-2.8-9.2-4.8c-9-8.2-19.2-15.4-19.2-29.7c0-8.6-5.9-14.8-12-19.8c-4.4-3.6-6.6-6.9-5-12.7c0.9-3.1,0.9-6.7,0.2-9.9
	c-2.4-10.7-5-21.3-7.9-31.8c-1.8-6.5-4.3-12.9-6.7-19.2c-0.8-2-2.4-3.6-4.6-6.6c-2,4.7-3.4,8.2-5,12c-3.6-0.7-6.8-1.3-10.9-2
	c-0.4-4-0.8-8.2-1.4-12.4c-0.3-1.9-0.5-4.8-1.7-5.4c-5.7-3-5.9-8.2-5.8-13.7c-7.2-3.6-13.7-7.7-15.4-16.1c-0.2-0.9-1.1-2.2-1.7-2.3
	c-5.8-0.5-8.9-4.7-11.6-10.4c-4.2,5.2-2.4,12.5-9.1,13.7c-4.7,0.9-9.5,1.5-14.8,2.4c-2.6,11.4-11,18.9-19.4,26.5
	c-2.2,2-3.8,4.5-5.9,6.7c-5,5.2-8,12.3-15.5,15c-4.6,1.7-5.3,6.6-4,10.2c4.5,12-1.1,23.8-0.1,35.7c0.2,3-3.1,6.4-5.2,9.3
	c-2.3,3.2-5.2,6-8.3,9.5c-2-4.5-3.4-8.8-5.8-12.6c-2.3-3.6-5.7-6.5-8.2-10c-1.3-1.8-2-4.2-2.5-6.4c-1.5-6.7-4.9-12.1-9.1-17.5
	c-3.1-4-4.6-9.4-6.7-14.2c-2.6-6-5.1-12.1-7.7-18.2c-0.9-2.1-2.5-4.1-2.7-6.3c-1-8.9-1.7-17.8-2.3-26.7c-0.2-3.2-1.4-5-5.4-5.4
	c-1.3,2.2-2.7,4.7-4.1,7.1c-1.6,2.7-3.7,5.6-7.1,3.7c-3-1.7-5.6-4.4-7.3-7.4c-0.4-0.7,3.3-4,5.4-5.8c1.1-0.9,2.9-1.1,6.9-2.5
	c-2.6-1.1-3.6-1.9-4.4-1.7c-12.7,2.4-20.7-5.7-28-13.7c-5.2-5.6-10.7-7.5-17.7-6.2c-6,1.1-12.8-0.6-17.9,4.5
	c-0.6,0.6-1.9,0.7-2.8,0.5c-8.7-1.8-17.5-3.4-26.1-5.8c-5.2-1.5-10.7-3.2-12.3-10.1c-0.7-3.1-4.4-4.5-7.3-1.8
	c-4.3,4.1-8.2,2.5-12.7,0.4c-5.7-2.7-11.8-4.5-17.7-6.8c-4.8-1.9-8.8-4.2-9.5-10.4c-0.2-2.1-2.5-4.6-4.5-5.9c-3-2-6.6-3.1-10.5-4.9
	c-2.3,3-4.7,6-6.9,8.9c3.5,9.2,7.5,17.3,15,23.7c3.5,3,5.1,8.4,7.7,13.1c1.7-0.6,3.4-1.2,5.5-2c0.5,1.2,1.1,2.3,1.4,3.6
	c2.1,9.1,3.1,8.8,12,7.6c7.7-1.1,12.8-4.8,17.6-10.1c1.1-1.2,2.5-1.9,4.6-3.5c1,9,5.6,13.1,13.5,15.7c5.3,1.7,9.4,7,14.6,11.2
	c-3.9,5.8-3.4,13.3-10.5,16.5c-0.9,0.4-1.6,2.2-1.6,3.3c0.1,9-6.7,12.4-12.6,17c-6.6,5.3-12.6,11.4-21.3,13.2
	c-0.3,0.1-0.7,0.3-0.8,0.6c-4.1,8.5-11.5,11.3-20.2,12.1c-1.2,0.1-2.7,0.8-3.5,1.8c-7.4,8.5-18.4,10.3-27.8,15.1
	c-8.3,4.3-12.1,2.7-15.2-6.1c-2-5.6-4.3-11.3-5.1-17.2c-0.9-5.9-2.4-10.8-6.8-15c-1.3-1.2-2-3.7-1.9-5.4c0.7-6.5-2.5-10.2-7.6-13.9
	c-7.4-5.4-15.4-11-13.5-22.4c0.2-1.3-1.1-3.3-2.3-4.2c-12.4-10.2-18.1-25-26-38.3c-1-1.7-2.4-3.1-3.9-5c-2.8,1.4-5.3,2.7-7.5,3.7
	c-7.1-3-4.3-13.3-12.8-15.2c-1.8,5.9,0.8,10.1,4.2,14.3c2.1,2.5,4.8,5.1,5.6,8.1c2.1,8,5.3,14.9,12,20.1c1.3,1,2.4,3.9,1.9,5.3
	c-3,7.6,2.6,12.1,6.5,16.4c4,4.6,6.6,8.9,6.1,15.1c-0.5,5.7,3.2,9.2,7.2,12.4c4.2,3.4,6.5,7.4,8,13.1c1.9,7.3,4.9,14.8,12.4,19.4
	c5,3.1,8.9,7.8,13.3,11.7c3.5,3.1,4.7,6.8,4.6,11.5c-0.1,9.4,8.4,16.7,17.8,15.2c8.4-1.4,16.9-2.2,25-6.2c4.7-2.3,10.9-1.7,16.8-2.4
	c2.6,8.4,0.6,15.9-2.9,23.2c-3.4,7.2-6.5,14.6-10.4,21.6c-3.7,6.6-7.9,13-12.3,19.2c-5.8,8.1-11.8,16.1-18.2,23.7
	c-6.6,7.9-13.7,15.4-20.8,22.9c-4.2,4.4-8.5,8.4-8.4,15.2c0,1.7-1.3,3.9-2.6,5.2c-7.3,7.1-8.2,15.8-6.3,24.9
	c1.9,9.4,5.9,18.4,7.2,27.8c1.7,12.8,2.3,25.8,2.3,38.7c0,4.7-3.2,8.9-7.6,12.2c-6.3,4.7-11,11.3-19.2,13.4c-2,0.5-4.5,2.6-5.1,4.5
	c-1.8,5.9-5.3,10.3-10,14.2c-1.3,1.1-0.7,4.8-0.5,7.3c0.4,8.9,1.3,17.8,1.3,26.7c0,2-2.3,4.5-4.2,6c-1.7,1.4-4.2,1.9-6.3,2.9
	c-8.3,4.2-8.8,5.8-5.2,13.2c-3.9,7-7.2,13.4-10.9,19.6c-2.2,3.6-4.8,7.3-7.9,10c-5.6,4.8-10.3,10.1-13.9,16.8
	c-5.7,10.7-16.3,14.2-27.3,16.3c-12.6,2.4-25.2,4.3-38.8,6.5c-1.5-6.1-3.2-13.3-4.9-20.5c-0.2-0.6-0.1-1.4-0.4-1.9
	c-4.8-8.7-9.6-17.3-14.4-25.9c-0.8-1.4-2.6-2.5-2.9-4c-3.3-15.7-13.1-29.7-11.4-46.6c0.5-5.3-1.1-9.9-5.7-13
	c-3.4-2.3-3.9-5.7-4.4-9.5c-0.4-3.4-1.5-7.5-3.8-9.9c-6.3-6.6-7-14.2-5.3-22.3c1.9-9.4,3.3-18.8,8.5-27.4c4.8-7.9,5.6-17,1.9-26
	c-0.3-0.6-0.9-1.3-0.8-1.8c2.4-8.5-2.5-15.5-4-23.2c-2-10.5-8.3-17.8-14-25.8c-2.5-3.5-5.7-6.5-8.3-10c-6.7-8.9-7.6-18.7-4.8-29.4
	c1.8-6.6,2.7-13.6,3.4-20.5c0.5-5.3-7-12.7-12.9-13c-3.9-0.2-8,0.2-11.9,0.9c-3.9,0.7-6-0.6-8.1-4c-8.2-13.6-14.7-15.5-28.8-9.3
	c-4.6,2-9.4,3.4-13.8,5.6c-4.1,2.1-7.8,5.1-11.9,7.9c-1.2-0.5-2.5-0.7-3.5-1.4c-9.8-6-19.4-6.5-30.1-1.3c-12.6,6.1-16,4.5-26.2-5.7
	c-3.7-3.7-8-6.9-12.3-10c-5.8-4.2-12.2-7-12.4-16.3c-0.1-4.2-5.8-8.4-9.2-12.4c-5.1-6-10.4-11.8-15.4-17.9c-1.1-1.4-1.3-3.6-1.6-5.5
	c-0.7-3.5-1.4-7-1.6-10.6c-0.1-2.5,0.3-5.1,0.9-7.6c1.5-6.1,3.2-12.2,5-18.3c3.4-11.6-1.3-21.8-6.1-33.2c5-8.8,11.3-17.9,15.3-27.9
	c3.2-7.9,8.6-13.9,12.8-20.9c3.1-5.1,6.9-8.6,12.6-10.6c9.6-3.2,12.6-11.3,15.2-20.2c2-6.8,5-13.7,9.3-19.3
	c5.8-7.5,13.2-13.8,20.2-20.9c10.6,4.4,21.9,3.8,33.4-1.6c13.3-6.3,27.2-10.4,42.3-10.7c8.9-0.2,17.8-1.8,26.6-3.3
	c7.4-1.2,7.1-0.4,10.2,7.3c2.9,7.2,1.6,12.6-2.6,17.8c8.3,9.3,20,9.7,30,14c0.9,0.4,2.3,0.3,2.8,0.9c6.3,8.1,17.2,7.3,24.8,12.9
	c1.8,1.4,4,2.5,6.2,3c5,1.1,8-1.4,8.9-6.7c0.4-2.6,0.3-5.4,1.3-7.8c2.6-6.3,11.7-9.2,16.9-4.6c7.7,6.9,17.4,6.8,26.4,9.4
	c2.8,0.8,6.2,0.2,8.8,1.3c6.7,2.7,12.7,2.4,19-1.3c3.8-2.3,7.9-1.9,12.4,0.2c10.9,5.2,15.9,2.8,19-8.8c2.1-7.7,4-15.5,4.7-23.4
	c0.9-10.3-1.1-12.3-11.4-15c-8.3,7.7-9.7,7.7-24.4-0.2c-4.2,0.6-6.5,7.4-12.2,4.1c-6.2-3.6-13.1-6-14.9-14.5
	c-1.1-4.9-4.4-9.4-7-14.6c1-0.9,2.1-2.6,3.4-2.9c13.1-2.3,24.9-8.5,37.4-12.4c8.2-2.6,16.1-3,24.1,1.5c8.5,4.8,18,4.4,27.3,3.1
	c2.2-0.3,4.5-1.4,6.4-2.6c5.8-3.8,6.2-8.6,0.6-12.7c-7.8-5.6-15.9-10.7-23.9-16c-1.4-0.9-2.7-1.9-4.5-3.1c3.1-5.8,6-11.4,9.3-17.7
	c-8.4,0.8-16,2.9-22.9,6.8c-6.2,3.6-12.8,3.5-19.4,2.5c-2.4-0.3-4.4-3-8-5.6c-2.6,2.4-7,5.2-9.5,9.1c-4.7,7.5-8.4,15.5-12.1,23.6
	c-0.8,1.8-0.1,4.5,0.5,6.6c0.8,2.8,2.3,5.3,3.7,8.4c-5.2,3.2-10.5,4.4-15.6,3.3c-6.5-1.5-11.5-0.3-16.2,4.3
	c-1.3,1.3-3.9,1.3-5.9,1.8c-0.7,8.4,6.8,11.4,13,17.8c-6-0.7-9.9-1.1-14.5-1.6c1.9,3.2,3.4,5.8,5.1,8.6c-7.3,1.1-9.7,0.1-10-5.6
	c-0.1-3.2-1.3-4.5-3.2-6.5c-4.2-4.5-7.8-9.6-11.5-14.6c-0.7-1-1.2-2.6-1-3.8c2.3-10.9-5.4-13.6-13.2-16.3
	c-7.4-2.6-13.6-6.8-18.4-13.1c-2-2.6-4.7-4.6-7.2-6.7c-2.7-2.3-5.8-4.1-8.9-1.2c-3.2,2.9-3,6.6-0.7,10c4.9,7.4,9.4,15.1,18,19.5
	c6.4,3.3,11.9,8.3,18.5,13c-2.7-0.2-4.8-0.4-8.2-0.6c0.4,4.4,0.7,8.4,1.2,14.6c-7.1-11.9-13.7-20.3-25.1-24.7
	c-5.7-2.2-10.4-8-14.6-12.9c-8.4-9.9-13-11.4-23.5-4.3c-6.6,4.4-13,5.8-20.7,3.8c-6.7-1.7-9.4,0-10.5,6.8c-0.9,5-3.1,7.5-7.6,9.3
	c-5.3,2.1-13.5,14-14.6,19.7c-1.1,6-4.4,10.1-9.1,14.5c-6.3,5.8-12.8,6.9-20.5,6.8c-2.6-0.1-5.2,1.1-8.5,1.8
	c-4.6-8-12.2-4.9-20.7-3.8c1.3-8.8-3.2-16.4-0.3-25.1c2.2-6.8,2.2-14.4,3-21.6c0.7-6.2,3.9-8.3,10-7.7c10.8,1,21.7,1.5,32.6,2
	c5.2,0.3,6.7-3.1,7.3-7.6c0.5-3.8,1.5-7.4,3.6-11c-0.3-0.9-0.6-1.8-0.9-2.8c-2.3-9.5-6.5-17.2-17.4-18.6c-0.6-0.1-1-1.5-1.6-2.6
	c2.3-4.4,6.1-2.7,9.5-2.6c6.2,0.2,6.7-0.4,7.3-8c10.4,4.8,16.4-2,22.3-8.8c0.9-1,1.4-3,2.3-3.1c7.1-1.2,10.5-7.6,16-10.9
	c3.1-1.8,8.1-1.6,7.7-7.3c0-0.6,2-1.6,3.2-1.8c1.9-0.4,4-0.2,6-0.4c9.8-0.7,12.7-5.8,8.5-14.6c-4.5-9.3-3.2-12.4,6.5-16.5
	c2.7,5.1,2.7,5.1-0.8,12.1C937.4,244.9,934.8,254.2,945.2,255.4z M1181.8,328.5c9.1,11.3,18.2,22.6,27.5,34.2
	c-0.1,0.4-0.3,1.4-0.5,2.4c-4.1,16.5-4.1,16.5,10.6,24.4c0.6,0.3,1.2,0.7,1.7,1c8.6,5.2,16.9,2.3,25.9,0.5
	c-5.3-11-9.9-20.6-14.7-30.5c2.1-1.9,7.6,3.8,9.4-2.9c-2.2-2-5.6-3.8-6.7-6.4c-1.8-4.2-5.8-2.4-7.8-3.9
	c-6.3-5.1-11.8-11.3-17.8-17.3c2.8-3,4.8-6.6,7.8-8c4.7-2.1,7.6,1.5,9.2,7.5c3.1-3.5,5-5.7,7.1-8c-3.4-2.9-6.9-4.5-8-7.2
	c-2.1-5.4-6.1-6.4-10.9-7C1202.6,305.6,1187.4,314.9,1181.8,328.5z M1551.2,230.9c1,16.5-6.2,26.9-17.1,36c2.9,0.3,5.6,0.3,7.3-1
	c4.2-3.2,7.9-6.9,11.7-10.6C1562.2,246.7,1562.1,242.2,1551.2,230.9z M1361.3,320c4.5-9.8,4.4-9.5,15.4-9c5.9,0.3,11.9-0.4,17.7-1
	c1.9-0.2,3.6-1.9,5.5-3c-1-1.2-1.4-2.1-1.8-2.1c-10.5,0.3-21.1,0.3-31.5,1.2C1359.6,306.8,1357.6,312.7,1361.3,320z M1048.6,199.5
	c6.9,2.5,11.6,4.4,16.5,5.7c0.9,0.2,2.4-1.6,4.6-3.3c-4.2-3.7-7.8-6.9-11.6-10.2C1055.4,194,1053.1,195.8,1048.6,199.5z
	 M1275.6,312.1c-4.2-2.7-13.3-0.7-15.7,2.4c-2.7,3.4-2,9,2.6,14.6C1261.9,319.3,1265.5,313.3,1275.6,312.1z M1080.1,183.9
	c-4,2.5-4.6,5.1-2.1,7.8c3,3.3,6.5,5.9,12.6,3.9C1086.8,191.5,1083.7,188,1080.1,183.9z M46.8,297.4c4,3.5,9.1,6.3,11.6,10.6
	c2.6,4.4,2.7,10.4,3.9,15.6c7.7-3.1,9.7-13.8,3.2-20.4c-2.1-2.1-4.6-3.9-6.7-6c-1.9-1.9-3.5-4-5.2-6c1.5-4.4,2.9-8.7,4.7-13.8
	c-2-0.8-4.1-1.5-6.1-2.3c2-5.4,4-10.9,6.2-16.7c-6.8-3.7-7.4,6.1-13.2,4.8c3.8-7.2,7.7-14.4,11.5-21.6c-0.6-0.5-1.1-1-1.7-1.5
	c-2.4,1.2-4.9,2.3-8.7,4.2c0.2-4.5,0.4-8.5,0.6-13.4c-1.9-0.9-4.5-2.2-7.5-3.6c-0.2-1.8-0.3-4-0.6-6.3c-1.2-0.3-2.1-0.9-3-0.8
	c-3.9,0.6-7.8,1.6-11.8,2.1c-5.1,0.7-9.4,0.3-13.1-4.6c-3.8-5.1-9.6-5.1-13.5,0.1c-2.7,3.6-5.3,4.7-9.4,5.1c-3.1,0.3-6,2.1-11,3.9
	c3.6-9.7,12.3-10.6,17.2-16c-7.9,0.9-15,3.3-21.7,7.8c-4.6,3.1-9.8,5.2-14.8,7.7c-4,2-9.2,1.8-11.4,7c-0.5,1.1-2.6,1.7-4.1,2.3
	c-6.1,2.5-12.2,4.9-18.4,7.4c-6.1,2.5-12.2,5.2-18.4,7.6c-8.9,3.4-17.9,6.6-27.1,9c16-10.9,36.8-12.8,53.3-28.2
	c-11.6,0.7-20.8,6.3-30.1,1.6c3.3-3.5,6.8-7.3,10.4-11.1c-0.2-0.4-0.4-0.7-0.6-1.1c-4.2,1.5-8.4,3-12.6,4.5
	c-0.4-0.8-0.7-1.5-1.1-2.3c2.2-1.4,4.5-2.7,7.2-4.4c-3.9-4.9,0-7.1,3.8-8.4c10.3-3.7,20.7-6.9,31-10.4c3.8-1.3,7.7-2.2,11.3-4
	c2.7-1.3,5-3.7,7.4-5.6c-0.3-0.7-0.6-1.4-0.9-2.2c-7.4,0.6-14.8,1.2-23.4,1.9c1.3-2.8,1.6-5.2,2.9-5.9c7.5-4.3,15.4-7.2,24.4-5.1
	c2.4,0.6,5.2,0.5,7.7,0c4.5-1,8.9-2.5,15-4.4c-3-1.5-5-2.1-6.5-3.4c-1.8-1.6-4.5-3.7-4.5-5.6c0.1-1.8,2.8-4.2,4.9-5.1
	c3.3-1.5,7.1-1.7,10.6-2.8c5.4-1.8,10.5-4,15.9-5.8c4-1.3,8.2-2.2,12.4-3.1c3.5-0.8,7.3-0.9,10.7-2.1c13.3-4.6,26.5-6.4,40.1-1.4
	c1.8,0.7,4.1,1.3,5.9,0.9c13.3-3,25.6,2.6,38.2,4.7c1.6,0.3,3.2,1.2,4.8,1.3c8.7,0.2,17.6-1.8,25.6,3.4c0.7,0.4,2,0,2.9-0.2
	c13.7-3.8,27.3-7.6,41-11.5c3.2-0.9,6.4-1.7,10-2.6c1.1,1.5,2.2,2.7,2.9,4c2.2,4.5,5.6,5.7,9.8,3.3c5.4-3.1,10.5-3.5,15.9-0.1
	c1.2,0.8,3.3,0.6,4.9,0.3c4.3-0.7,7.7-0.1,10.1,4.2c0.8,1.5,3.8,1.8,6,2.7c0.4,7.3,0.8,8,7.1,7.9c3.3,0,6.6-0.8,9.8-1.3
	c2.3-0.4,5-2,6.8-1.3c8.1,3.6,13.6-1,19.8-5.1c6.5-4.4,13.9-2.2,20.2,0.5c9.8,4.1,19.1,5.2,28.9,0.4c2.5-1.2,5.7-1,9.1-1.6
	c1.7-4.4,3.2-9.8,10.7-7.1c0.2,2.2,0.5,4.7,0.8,7.6c6.6,0.9,10.9-2.3,14.4-7c2.1-2.9,1.8-3.5-2.9-10.5c6.7-3.4,13.2-6.7,21.1-10.7
	c-1.4,5.6-2.5,9.9-3.6,14.6c3.9,1.6,6.9,2.9,10.5,4.4c-1.9,2.3-4,4.3-5.3,6.8c-0.8,1.5-0.8,4.2,0.1,5.5c0.8,1.1,3.4,1.6,5.1,1.3
	c3.9-0.6,7.8-1.7,11.7-2.6c4.6-1.1,8.3-3.3,8.4-8.5c0.1-4.8-3.4-6.8-7.7-7.8c-0.9-0.2-1.7-0.9-2.9-1.5c0.6-1.9,2.2-4.1,1.6-5.4
	c-3.1-6.7,1.4-9.6,6.1-11.3c5.8-2.1,12.1-2.9,18.3-4.1c0.9-0.2,2.5-0.2,2.9,0.3c6.1,8.8,11.8,1.4,17.6-0.5c1.8-0.6,3.4-1.9,5.2-3
	c2.6,9.8,3.7,10.2,11.5,5.7c2.4-1.3,5.5-2.1,8.3-1.9c7.4,0.5,14.6,7.6,16,15.5c3.8,0.3,7.7,0.7,13.2,1.2c1.5,4.5,2.8,9.8,5,14.6
	c1.7,3.5,4.4,6.6,7.1,9.4c2.5,2.6,5.6,4.5,8.4,6.7c-7.7,8.2-17.5,8.7-25,1.3c-2.4-2.4-4.7-3.7-7.9-2.5c-3.6,1.3-3.2,4.3-3.4,7.4
	c-0.3,4.4,1,7.6,4.1,10.6c2.3,2.2,5.5,4.8,1.7,8.3c-3.3,3-6.2,0.7-8.9-1.4c-1.6-1.2-2.8-3.2-4.6-3.8c-2.4-0.9-5.2-1-7.8-1.4
	c-0.4,0.9-0.7,1.7-1.1,2.6c3.5,2.5,7,5,11.1,7.9c-9,3.3-21,1.1-23.8-4.9c-3.7-7.8-9-10-16.9-8.3c-1.8,0.4-3.8-0.2-6.6-0.4
	c2.3-4.2,5.6-3.4,8-3c6.3,0.9,11.4,0.3,15.9-5.1c2.6-3.2,7-4.9,10.7-7.1c6.6-3.9,6.6-5.4-0.2-9.9c-0.5-0.3-0.8-1-1.3-1.7
	c0.3-1.5,0.6-3.1,0.8-4.7c0-0.3-0.3-0.6-0.4-0.8c-4-2.7-8-5.4-12.5-8.5c-11.6,8-24.6-0.3-37.5,0.4c-0.7,7,6.3,5,8.6,8.5
	c-1.6,1.7-3.9,3.2-4.9,5.4c-4.1,8.7-12.7,9.5-20.3,11.8c-3.4,1.1-7.3,0.2-10.9,0.4c-1.6,0.1-4.1,0.1-4.6,1c-3.6,6.7-9.4,4.7-15,4.4
	c-2.5-0.1-4.9,0.3-7.4,0.5c-0.5,0.9-1.1,1.7-1.6,2.6c2.2,1.2,4.4,2.4,6.9,3.7c-1.2,0.9-1.8,1.8-2.6,2c-10.5,2.5-20.3,6.1-26.9,15.7
	c-1.5,2.2-5.2,2.8-7.8,4.2c-9,5-18,9.9-27,15.1c-2,1.1-3.7,2.9-5.3,4.6c-4.4,5-3.4,7.4,3.6,9c0.9,0.2,1.7,0.5,2.1,0.7
	c-1,3.5-3.7,7.7-2.5,9.8c2.3,4.2,6.4,0.5,9.8-0.2c2.3-0.5,4.4-1.5,6.7-1.8c4.1-0.7,7.4,0.6,8.2,5.2c1.3,7.9,6.1,10.3,13.5,9.6
	c2.8-0.2,5.6,0.7,9.9,1.4c-1.9,4.7-3.3,8.3-4.8,11.8c-2.2,5.4-3.5,10.8-0.5,16.4c3.8,7.2,9.4,7.7,15,1.9c6.2-6.6,8-14.3,5.7-23.6
	c10.1-0.5,20.1-0.6,20.7-13.2c3.2-1,5.4-1.7,7.6-2.4c4.8-1.6,7.4-4.9,6.3-9.9c-0.9-4.4-0.1-7.4,3.5-10.4c2.3-1.9,3.1-5.7,4.2-8.8
	c1.3-3.4,2.2-6.9,2.8-8.7c9.3-9.6,20.5-5.5,30.3-8c7.3-1.9,12.7,5.8,9.7,12.9c-2.2,5.1-2.3,9.7,1.8,13.8c3.7,3.7,8.8,4.4,14.7,0.9
	c5.9-3.5,11.3-7.9,17.9-12.7c0.5,7.6,4,13.5,1.5,21c-3.1,9-2,10,5.9,15.5c2.1,1.5,4.2,3,7.2,5.2c-6.1,2.6-11.3,4.9-17.8,7.6
	c8.9,7,16.5-2,24.7,1.3c0,3.2,0,6.7,0,9.9c-9.1,4.8-17.9,9.4-26.8,13.9c-2,1-4.4,1.8-6.6,1.9c-11.6,0.8-23.2,1.3-34.8,2
	c-2.2,0.1-4.7,0.6-6.6,1.7c-8.4,4.7-16.7,9.6-24.9,14.6c-2.9,1.8-5.3,4.3-7.9,6.4c3,4.9,5.7,3,8.3,1.6c7-3.8,13.9-7.9,21.1-11.4
	c3.4-1.6,7.3-2.2,11-3.2c0.3,0.6,0.7,1.2,1,1.8c-2.4,2.4-4.8,4.7-6.7,6.6c0,4.4-0.2,8.3,0.1,12.2c0.5,6.1,2.8,8.3,9,8.1
	c7-0.2,14-1.1,19.2-8.2c1.8,5-0.3,7.6-3.6,9.2c-2,1-4.5,1.3-6.7,2.1c-10.2,3.5-20.5,7-31.1,10.7c0.5-6,9-5.1,11.2-11
	c-4.8-2.7-9.3-1-13.8,0.7c-6.2,2.3-12.8,3.9-18.6,6.9c-6.1,3.1-12.1,7-16.9,11.7c-2.3,2.2-1.7,7.3-2.7,12.1
	c-6.1,1.4-13.5,1.7-19.2,5c-5.4,3.1-9,9.4-13.5,14.6c-1.7-0.8-3.5-1.6-5.4-2.5c-0.8,4.1-1.5,8-2.3,11.9c-0.6,0-1.3,0-1.9,0
	c-1.2-2.9-2.4-5.8-4.5-10.7c-1.9,4-3.7,6.3-4.1,8.8c-0.9,5.2,0,11-1.9,15.7c-3.4,8.8-4.9,18.4-16.5,22.9
	c-10.6,4.1-19.5,12.3-29.1,18.9c-3.6,2.5-3.3,6.4-2.4,10c3.6,14.3-1.2,28.5-0.8,42.8c0,1.1-1.2,2.2-2.6,4.7
	c-4.9-9.4-12.5-16.2-9.1-27.8c1-3.5-1-8.3-2.7-12c-0.8-1.7-4.2-2.3-6.6-3c-1.1-0.3-3,1-3.7,0.5c-11.3-8.9-24.3,1.5-36.3-5.9
	c-0.5,5.5-0.8,8.4-1.1,11.5c-2,3.8-9.2,5.8-12.8,3.2c-1.6-1.2-2.8-2.9-4.3-4.1c-4.1-3.2-8.4-3.6-13.1-1.2
	c-5.9,3.1-11.9,5.9-17.6,9.3c-8.8,5.2-17,10.9-14.1,23.6c0.5,2.3-1.7,5.6-3.4,7.9c-5,6.5-6.7,13.3-4.7,21.5
	c2.4,10.1,3.9,20.4,5.7,30.3c4.1,2.5,8,4.9,12,7.1c3.6,2,6.5,0.2,9-2.1c3-2.7,5.9-3.1,10-2.2c7.5,1.7,12.9-2.5,14.3-10
	c0.2-1.3,0.1-2.7,0.2-4c1-8,3.1-10,10.8-10c4.3,0,8.5,0.5,13,0.8c1.1,6-1.2,10.7-4.2,15.1c-2.7,4-7.3,7.2-4.5,13.3
	c0.5,1.1-1.6,3.4-2.4,5.1c-1.8,3.9-3.5,7.8-5.3,11.8c3.5,3.5,7,1.8,10.5,1.5c7.2-0.7,14.5-1.4,21.8-1.4c3.4,0,6.8,1.8,9.7,2.6
	c-1.4,9.1-3,17.1-3.8,25.2c-0.5,5.8-0.2,11.7,0.3,17.5c0.1,1.6,1.7,3.6,3.2,4.6c4.4,2.9,9,5.4,14.2,8.3c4.6-2.8,8.8-6.7,16.1-6.2
	c9.7,0.7,7.8,8.3,10.8,13.7c5.4-6.7,13.5-10.9,14.4-20.5c0.1-1.2,2.1-3.3,3.2-3.3c8.4,0.1,12.7-6.6,18.5-10.8c2-1.5,4.2-2.6,6.5-4
	c-1.8,7.3-3.6,13.7-4.8,20.2c-0.7,3.9,1.1,7.1,5.3,8.5c3.5-1.3,4.4-4.2,3.4-7.2c-1.7-5,0-8.1,3.9-11.1c1.9-1.5,2.8-4.3,3.7-5.8
	c4.2,2.1,8.4,4.3,13.3,6.9c-0.5,1.4-1.3,3.6-2.2,6.3c5.6,4.6,10.7-0.9,15.9-0.6c6.4,7.3,9.6,7.4,15.5,0.7c6.4-7.2,8.7-7.2,14.5-0.1
	c1.9,2.2,4.2,4.1,6.6,6.3c-1.3,1.9-2.9,4.1-5.3,7.5c3.6,0.6,6.1,1,8.5,1.4c1.9,0.3,5.1,0,5.6,1c4.1,7.4,11.8,5,18.4,7.2
	c0.5,1.1,1.4,2.5,1.8,4.1c1.7,6.1,5.9,8.5,12,8.4c2.7-0.1,5.3-0.5,8-0.5c8.9-0.1,16.9,0.3,20.7,11.1c2.8,7.9,8.3,14.8,12.7,22.1
	c2.1,3.4,1.6,5.8-1.1,8.8c-2.5,2.8-3.9,6.6-6.1,9.8c-1.4,2.1-3.2,4.1-5.2,5.6c-2.2,1.7-4.8,2.9-9.1,5.4c8.2,1.6,13-0.8,15.8-5.3
	c4-6.5,8.8-7.4,15.7-4.6c0,3.2,0,6.5,0,10c7.6,1.5,6.8-5.5,10.4-9c13.9,0.1,17.8,12.2,24.2,22.3c6.9-5.6,14-3.4,21.6-2.3
	c8.4,1.2,17.3-0.5,25.5,5c0,7.4,4.5,11,11.7,13.3c8.4,2.6,14.3,17.1,11.4,25.5c-3,8.5-6.2,16.9-12.9,23.4c-1.8,1.8-2.9,4.4-4.1,6.8
	c-0.6,1.2-0.5,3.1-1.3,3.7c-13.8,9-8.1,22.8-8.1,34.8c0,5.8,0.9,10.9-3.1,15.9c-1.6,2.1-2.5,5.8-1.9,8.4c1.3,5.7,0,10.5-2.7,15.3
	c-1.1,2-1.9,4.2-2.7,6.4c-2.9,8.1-2.9,8.2-11,8.5c-6.2,0.2-11.9,0.6-15.1,7.2c-0.7,1.4-3.3,2.8-5,2.7c-9.8-0.5-13.5,7.7-18.2,13.5
	c-2.1,2.5-2.3,7.8-1.3,11.3c1.5,5,1.6,8.9-1.6,13c-0.9,1.2-1.1,3.1-1.4,4.7c-2,10.1-2,10.1-12,10.5c-2.8,5.9-4.5,12.4-3.2,19
	c1.8,8.9-5.1,14.1-9.8,18.1c-4.7,4.1-12.8,2.1-18.7-2c-2.2-1.5-3.6-4.3-6-5.2c-2.4-1-5.5-0.9-8.3-0.5c-0.8,0.1-2.1,3.5-1.7,4.1
	c1.5,1.8,3.6,3.3,5.7,4.5c1.4,0.7,3.2,0.6,2.5,0.5c4.7,4.7,7.9,7.8,10.9,11.1c1.4,1.6,3.2,3.6,3.3,5.5c0.7,8.4-9.2,18.1-17.7,17.9
	c-5.5-0.2-11-0.5-16.4-0.8c1.4,7.1,2.6,13,4.2,20.8c-7.4-2.3-12.9-3.9-18.4-5.6c-3.1,6.7,3.8,7.2,5.1,10.5c1.9,4.7,5.4,5.8,10.8,6.2
	c-2.4,3.1-4.2,4.9-5.4,7.1c-1.1,1.9-2.5,4.5-1.9,6.3c1.2,4.3-0.1,6.5-3.4,9.2c-5.6,4.6-5.4,8.4-0.3,13.2c0.5,0.5,1,0.8,1.5,1.3
	c11.1,9.2,12.1,9.9,4.3,21.9c-4.6,7.1-2.8,11.4,0.8,16.8c0.6,0.8,1.1,1.6,2.1,3c-1.8,1.9-3.6,3.8-6.8,7.2c8.2-0.5,13.1,2.8,18.5,5.4
	c5.4,2.5,12.3,1.9,15.7,10.4c-12.3-0.2-24,2.8-33.7-6.9c-1.3-1.3-3.6-1.5-5.4-2.2c-6.7-2.6-13.3-4.6-16.6-12.4c-1.2-3-5-5.2-8.1-6.9
	c-5.5-3.1-8.7-7.2-7.5-13.2c-2.9-1.5-5.1-2.5-8.4-4.2c2.8-1.6,4.9-2.1,5.8-3.4c0.9-1.4,1.4-4.4,0.6-5.2c-4.4-4.2-9.2-8-14.4-12.3
	c0.1-7.8,6.8,0.1,9.8-3.8c-1.3-5.9-2.7-12.6-4.4-19.2c-1.6-6.6-3.6-13.1-5.9-21.7c-3,3.5-4.8,5.5-7.1,8.2c-1.3-7.7-2.3-15.1-4-22.4
	c-0.6-2.7-3.4-4.9-4.4-7.6c-1.4-3.6-3-7.5-2.9-11.1c0.3-6.6,2.4-13,2.6-19.6c0.2-6.2-1.1-12.4-1.7-18.6c-0.8-9.9-1.6-19.8-2.2-29.6
	c-0.1-1.3,0.8-2.8,0.4-3.9c-3-8.3-1.3-17.1-2.7-25.3c-2.7-15.9-2.3-31.8-2.8-47.7c-0.3-9.3-3.7-14.8-11.6-19
	c-6.1-3.3-11.4-7.9-17.3-11.5c-5.8-3.6-12.7-5.2-17.6-10.9c-2.6-3-4.9-5.8-6.5-9.6c-2.9-7-7.1-13.4-10.8-20c-1-1.7-2.4-3.2-3.3-5
	c-4.6-9.1-8.8-18.5-13.9-27.4c-2-3.6-5.5-6.8-9.1-8.9c-5.2-3.1-4.1-7.8-4.9-12.2c-0.8-4.3-1.9-7.8,3.1-11.3c3-2.1,3.7-7.3,5.7-11.7
	c-2.6-0.3-4.4-0.5-6.8-0.8c-1.3-4.3-2.2-8.3,1.1-12.7c2.1-2.8,2.6-6.7,3.9-10.1c0.3-0.9,0.3-2.6,0.8-2.8c7.9-2.1,8.4-10.5,13.2-15.3
	c5.5-5.4,7.7-12.1,6.1-20.1c-1.8-8.9-2.8-18-4.3-27c-0.8-5.2-5.3-6.6-9.3-8c-4.1-1.4-5.6,2.2-7.5,5c-1.8,2.7-3.7,5.6-6.2,7.6
	c-3.1,2.5-6.2,2.2-9.7-1c-7.9-7.4-16.4-14.1-24.7-21.2c-0.2-3.6,1-8.5-0.9-10.9c-4.6-5.8-8.5-12.5-16.9-14.7c-7.6-2-14.7-6.1-23-9.8
	c3.1-2.2,5.4-3.7,7.7-5.4c-0.6-0.4-1.1-1-1.4-0.9c-6.2,1.7-11.6,1.6-16.1-4.2c-3.2-4.2-8.2-3.5-13-2.6c-17.1,3.1-32.3-0.7-44.6-13.4
	c-5.4-5.7-11.5-9.9-18.7-12.9c-3.8-1.6-7.3-4-11.8-6.5c2.3-3.1,3.6-5.4,5.4-7.2c4.1-4.1,4-8.2,0.6-12.5
	c-6.8-8.5-13.9-16.9-21.4-26.1c0.7-1.5,2-4.1,3.1-6.5c-0.4-1-0.5-1.9-1-2.1c-6.8-3.5-11.4-8.6-12.6-16.4c-0.2-1.5-1.3-3.2-2.5-4.2
	c-5-4.2-6.3-9.9-7-16c-0.4-3.8-0.1-8.7-6-8.5c-4.4,0.1-8.6,6.1-8,11.1c0.2,1.6,0.8,3.2,1.5,4.7c5,12,9.9,23.9,15,35.9
	c2.5,5.8,5.3,11.5,7.8,17.3c0.6,1.3,0.3,2.9,0.6,6c-5.5-6.6-9.8-11.9-14.2-17.2c-0.2-0.3-0.5-0.6-0.5-0.9c1.2-9.6-5.2-14-12.3-18
	c-0.4-0.2-0.5-1.2-0.7-1.7c6.6-6.8,6.6-6.9,1.9-15c-1-1.7-2.2-3.4-2.6-5.3c-2-8.3-3.5-16.7-5.9-24.8c-0.7-2.4-3.5-4.7-5.9-5.8
	c-4.8-2.2-7.2-5.4-7.6-10.7c-0.6-8.4-6.6-16.6,0.8-25.5c-3.5-2.2-6-3.8-8.9-5.5c7.6-14.6,10.7-29.9,21.9-41.3
	c3.6-3.7,5.6-9,8.3-13.6c1.5-2.6,2.6-5.4,4.4-7.7c7-9.4,7.5-22.3,0.9-32.2c-0.9-1.4-1.8-2.7-2.7-4.1
	C45.7,298.8,46.3,298.1,46.8,297.4z M310.2,328.9c3.1-8.3-2.3-12.9-6.4-18c-2.5-3-5.4-3.5-8.9-2c-9,3.9-18.1,7.7-27.1,11.8
	c-2,0.9-3.5,2.6-5.5,4.1c6,3.3,6,3.2,12.3,1.6c3.8-0.9,7.9-2.3,11.6-1.8c6.2,0.9,12.2,3.1,18.3,4.8c-2.8,1.7-5.9,2.5-9,2.7
	c-5.8,0.4-10.7,3.2-13.1,8c-3.7,7.3-6.2,15.1-8.9,22.8c-0.7,1.9,0.1,4.4,0.2,6.8c5.5,0.4,7.8-2.6,9.5-6.5c2-4.6,3.9-9.2,5.6-13.9
	c2.5-6.9,8.6-9.8,14.5-12.7c1.6-0.8,5-0.1,6.1,1.2c0.9,1.1,0.3,4.3-0.6,6.1c-1.3,2.5-3.5,4.4-5.7,7.1c6,1.2,10.9,2.2,15.8,3.3
	c0.9-10.8,0.9-10.7,11.5-10.8c4.1,0,4.7-3.1,4.6-6.3c-0.1-3.2-2.2-7.4-5-5.6C322.6,336.4,317.5,331.4,310.2,328.9z M357.5,344.6
	c-6.3,1.3-10.6,2.8-15,3c-5.3,0.3-9.5,1.1-12.2,6.6c-1,2.2-4.7,3.4-7.5,4.3c-4.4,1.5-8.9,2.4-13.4,3.5c-2.9,0.7-5.9,1.2-6.4,6.2
	c5-0.8,9.8-1.6,14.5-2.3c6.3-1,12-2.9,16.6-8c2.1-2.3,6.3-3.6,9.7-3.8C349.6,353.8,353.3,351.4,357.5,344.6z M248.6,296.9
	c9.4-7.5,6-18.9,9.4-28.8c-2.2-0.1-3.5-0.4-4.6-0.2c-1.9,0.4-3.7,1.1-6.3,1.9c-0.4,4.2-1.3,8.3-1.1,12.5
	C246.2,286.9,247.6,291.4,248.6,296.9z M240.5,199.9c-5-4.7-8.6-1.3-12.5-0.3c-3.8,1-8,1.7-11.3,3.7c-2.8,1.7-4.4,5.2-6.7,8.1
	C220.2,207.5,230.3,203.7,240.5,199.9z M196.2,172c-4.2,0.4-7.4,0.7-9.8,0.9c-0.8,4.1-1.5,7.6-2.3,11.3c6.3,1.8,10.1-3.5,15.3-4.9
	C197.8,177.3,191.8,178.5,196.2,172z M216.7,177c-7-9-7-9-13-6c1.5,0.8,3.1,2,4.9,2.6c2.6,0.8,2,2.2,1.1,3.8
	C212,177.3,214.4,177.1,216.7,177z M201.3,212.3c-1,0.9-0.8,0.8-0.6,0.6c-4.3-0.7-8.5-1.4-14-2.3
	C191.1,216.3,195.4,216.4,201.3,212.3z M202.3,205.1c0.5,0.6,1,1.2,1.5,1.8c1.2-1.3,2.5-2.6,3.7-3.9c-0.4-0.4-0.9-0.9-1.3-1.3
	C204.9,202.8,203.6,204,202.3,205.1z M1864,794.4c-3.8-1.1-6.8-2.1-10.1,0.9c-1.1,1.1-3,1.9-4.5,1.9c-6.4-0.1-10,3.8-14.1,8
	c-4.4,4.5-5.5,9.2-3.3,15.4c-5.2,0-9.6,0-14.4,0c0,0-0.5-0.4-0.8-0.9c-5.5-9.7-8.8-10.1-15.6-1.7c-6.2,7.8-12.4,15.6-18.8,23.6
	c-1.8-1.3-4.2-3-7-5.1c-2,10.3-5.6,19.5-14,23.9c-8.9,4.7-19.3,7.2-29.3,9.3c-4.1,0.8-7.5,1.9-10.6,4.5c-5.9,4.7-11.7,9.4-18.1,14.5
	c-0.1,0.8,0.1,2.6-0.6,4c-3,6.7-3.9,13.1-0.2,20c0.8,1.5,0.1,5.5-1.1,6.2c-3.9,2.2-3.6,5.5-3.3,8.6c1.1,10.7,2.2,21.3,2.4,32.1
	c0.1,6-0.4,11.1-3.1,16c-1.6,2.8-4,5.1-6,7.6c6.3,9,9.6,9.7,18.1,5.4c8.1-4.1,15.4-10,25.7-8.8c7.6,0.9,16.2,2.5,21.3-6.3
	c14.7-8.7,31.2-11.1,47.7-13.1c2.9-0.3,6,0.5,8.9,1.1c5.4,1.2,10.8,2.5,17.2,4.1c1.3,6.3,2.6,13.1,4,19.9
	c7.6-5.7,14.2-10.8,22.5-17.1c-0.4,4.2,0.1,7-1,8.4c-4.6,5.5-2.5,10.6-0.4,16.1c1.4,3.6,2.2,7.1,0.1,11.4c-2.6,5.3-0.5,8.5,5.2,10.6
	c8.1,3,16.3,6.3,23.1-2.6c0.1-0.2,0.6-0.1,1.6-0.2c1.6,2.2,3.4,4.7,5.3,7.4c8.4-4.8,15.9-10.2,25.5-11.5c5.8-0.8,9.3-5.9,12.6-10.7
	c5.2-7.4,10.6-14.8,16.6-21.6c5.9-6.7,12.8-12.5,19-19c2.5-2.6,5-5.5,6.4-8.8c3.1-7.4,5.8-14.9,8-22.6c3.5-11.7,5.9-23.4-4.7-33.3
	c-1.5-1.4-1.7-4.3-2.7-6.3c-0.8-1.7-1.9-3.4-2.9-5c-2-3.3-5-6.4-5.9-10c-1.9-7.4-5.9-12.4-12.7-15.5c-4.8-2.2-6.4-6.1-5.9-11.4
	c0.6-5.9,0.4-12,0.4-18c0-5.5-1.8-10-7.7-11.3c-5.5-1.2-6.5-5-6.5-9.7c0-4,0.2-8-0.2-12c-0.2-1.9-1.6-3.7-2.8-6.1
	c-1.4,1.6-2.5,2.3-2.6,3.1c-0.9,6.2-1.6,12.4-5.5,17.7c-0.5,0.7-0.7,2-0.4,2.9c2.7,9-2,16-6,23.4c-5.4,9.8-9.6,10.8-18.5,3.6
	c-5.9-4.8-11.4-10-17.1-15c-3.1-2.7-4.1-5.3-1.9-9.6c2.5-4.8,3.6-10.4,5.6-16.4C1874.2,795.9,1868.9,795.8,1864,794.4z M573.6,68.7
	c3.4,0.7,6.8,1.4,9.7,2c0.4,5.4-2.1,8.1-6.7,9c-4.6,0.8-9.2,2.3-13.8,2.2c-6.8-0.1-12.9,1.3-18.5,5.4c3.5,1.4,8.1-0.6,10.7,4.3
	c-3.5,0.4-6.4,0.7-9.8,1c1.3,2.9,2.3,5.2,3.4,7.6c9.6-1.1,18.8-2,28-3.2c10.3-1.3,17.6,1.8,19.9,11.4c1.1,4.4,2.5,11-2.3,15.7
	c-1.6,1.6-2.6,3.8-3.8,5.7c0.6,0.5,1.1,1,1.7,1.6c2.6-1.5,5.3-3.1,8.4-4.9c3.8,1.6,8,3.2,13.8,5.6c-8.4,8.2-19.1,2.7-26.9,8.3
	c6.1,4.6,11.9-5.1,17,1c2.4,6.8-7.6,9-5.1,14.9c-4.9,3.3-9.8-2.4-15.4,1.4c3.9,1.6,6.6,2.7,11.2,4.6c-6.1,1.7-10.1,2.9-15.4,4.4
	c3.1,2.3,4.6,3.3,6.1,4.4c-1,1.8-1.8,3.3-2.6,4.8c2.8,1,5.1,1.8,8.4,2.9c-3.1,2.4-5.1,4-7.2,5.7c1.5,6.3,2.9,12.4,4.3,18.7
	c9.4,1.8,19.3,1.5,26.1,9c5.3-6.8,10-13.2,15.2-19.1c4.1-4.7,10.4-8.1,13-13.4c5.4-11.1,16.1-12.3,25.4-13.8
	c7.8-1.2,14.7-2.8,20.9-7.3c4.5-3.3,8.7-7,12.6-10.3c11.8,3.5,22.2-0.1,32.6-3.5c3.5-1.1,7.7-1.6,10.3-7.2c-6.4,0-11.7,0-18.1,0
	c3.1-6.7,8.8-6.1,12.9-8.2c5.3-2.8,9.7-4.2,13.6,1.9c0.7,1.2,2.8,1.9,4.4,2.1c1.8,0.1,4.4-0.1,5.2-1.3c0.8-1.1,0.4-3.7-0.3-5.3
	c-1-2.3-2.8-4.4-4.2-6.4c-4.3-0.7-9.6,2.2-12.6-3.6c2.7-4.5,6.2-4.9,11.1-3.9c4,0.8,8.6,0.6,12.4-0.7c3.4-1.1,6.2-4.2,9.3-6.5
	c-0.6-1.2-1.3-2.8-2.1-4.3c1.8-0.9,3-1.5,4.6-2.2c-2.5-1.8-4.3-3.1-6.1-4.3c2.5-7.5,8.8-2.2,13.3-4.5c-3.5-2.2-6.4-4-9.6-6.1
	c9.5-15.2,26.7-15.8,40.1-23c-3-0.8-5.7-1.3-8.2-0.8c-10.3,2-20.5,4.3-30.8,6.4c-1.5,0.3-3.9,0.6-4.7-0.2
	c-5.1-5.1-11.8-3.6-17.9-4.2c0-1.8,0-3.2,0-4.2c-4.5-1.6-8.8-4.5-12.9-4.3c-8.9,0.4-17.8,2.1-26.5,4.1c-3.2,0.7-5.9,1.3-9.4,0.9
	c-8-0.9-16.6-2.7-23.3,4.9c-1,1.1-4.5,1-6.3,0.2c-6.2-2.8-12.1-6-18,0.5c-0.5,0.6-1.9,0.6-2.8,0.5c-5.2-0.6-10.3-1.6-15.5-1.9
	c-3.2-0.2-6.5,0.4-9.7,0.8c-3.8,0.4-7.7,0.9-11.5,1.4c-1.9,0.2-4,0-5.8,0.7c-10.7,3.8-11,3.8-25.7,0.8c-1.2-0.3-2.6,0.1-3.9,0.3
	c-4.3,0.7-8.5,1.4-12.8,2.1L573.6,68.7z M1913.9,762.9c6.5,8.7,19.2,12.3,20.1,5.2c-1.9-1-4.2-2.2-6.4-3.4c3-2.7,4.6-3.1,6-3.9
	c1.7-1,3.2-2.3,4.8-3.4c5.9-3.6,10.5-2.3,15,3.6c3.5,4.7,6.5,10.7,11.3,13.3c5.9,3.2,13.4,3.5,22.3,5.5c-9.1-10.8-17-20.3-24.7-29.5
	c1.5-3.4,2.7-5.9,3.5-7.6c-4.2-2.8-10.1-4.6-10.6-7.4c-1.3-7.4-6.7-8.3-11.7-10.5c-3.9-1.7-7.8-3.7-11.7-5.3
	c-6.1-2.6-12.2-5.3-18.4-7.4c-5.9-2-12.1-3.3-19.3-5.2c-2.7,2.5-6,5.7-9.5,8.7c-6.3,5.4-7.7,5.2-12.9-0.5c-5.2,0.9-9.8,1.6-15.2,2.5
	c2.1,3.1,3.8,5.8,4.8,7.2c4.1,0.3,7-0.2,9.3,0.7c6.8,2.7,13.3,6.1,20,8.9c8.6,3.5,10.3,11.5,13.7,17.5c-2.6,4.6-9.5,2.5-8,10
	c4.8-0.7,9.6-1.4,15.5-2.3C1912.5,760.8,1913.2,761.8,1913.9,762.9z M1687.1,703.8c3.4,3.9,4.6,7.7,5.3,12.4
	c0.3,1.9,0.9,3.7,1.6,6.3c4.8-2,9.1-2.1,13,1.1c8.6-4,15.9-0.7,22.4,4.3c1.2-0.7,2-0.8,2.2-1.3c4.6-10,5.6-21.5,12.6-30.5
	c0.2-0.2,0.2-0.6,0.2-1c0.2-5.2,2.7-8.6,8.2-9.4c-2.7-4.6-5.1-8.5-7.5-12.5c-4.1-6.8-3.9-7.6,1.2-13.7c2.3-2.8,4.1-6.2,5.3-8.1
	c-5-5.8-9-10.3-13.2-15c-5.8,2.7-9.6,7.5-11.1,14.7c-0.6,2.8-3.1,6.4-5.5,7.3c-9.5,3.3-12.5,14.7-22.4,17.1
	c-0.4,0.1-0.6,1.1-0.9,1.7c-4.4,8.4-4.4,8.4-12.8,4.4C1678.5,690.1,1681.8,697.6,1687.1,703.8z M1238,815.2
	c-0.5-1.8-2.5-4.3-4.1-4.5c-1.7-0.2-4.2,1.5-5.5,3c-1.7,2-3.4,4.6-3.6,7c-0.8,9.1-7.1,12.9-14.1,16.4c-14.2,7.1-14,7-12.9,23.3
	c0.7,10.2,0.7,18.9-5.5,27.2c-1.8,2.4-3.6,7.2-2.4,9c2.8,4.3,2.4,8.8,3.4,13.2c0.9,3.6,3.2,6.9,5.2,10.9c3.5-2.2,6-4.9,8.4-4.9
	c7.3,0,8.3-5,10-10.1c3.1-9.5,6.3-18.9,9.9-28.2c4.3-11.2,9.1-22.1,8.1-34.6c-0.2-2.2,0.5-4.5,0.7-6.8c2.4-0.9,4.5-1.6,6.3-2.3
	C1240.6,827.4,1239.6,821.3,1238,815.2z M278.7,152.1c3.1-1.1,6.3-2,9.2-3.4c8.7-4.3,17.4-3.7,26.2-0.8c2.5,0.8,5.1,1.6,7.7,1.8
	c3.9,0.2,8.6-4.8,6.8-7.6c-4.5-7.2,1.2-10.2,4.6-14.3c1.7-2.1,3.7-4,5.6-5.9c-0.4-0.5-0.9-1.1-1.3-1.6c-2.6,1-5.1,2.1-7.7,3.1
	c-2.7,1-5.5,1.8-8.2,2.9c-9.8,4-19.4,8.6-29.3,0.1c-1.5-1.3-4.4-0.9-6.7-1.5c-1.7-0.4-3.4-1.1-6.2-2.1c3.4-2.8,5.7-4.8,8.3-7
	c-8.6-2.3-32.2-1.4-37.7,1.3c-1.2,0.6-2.4,1.4-3.1,2.4c-4.6,6.7-11.6,9.7-18.9,12.2c-1.3,0.4-2.3,1.6-4.8,3.4
	c9.1,2.1,15.9,0.5,22.7-2.3c5.5-2.3,11.2-4.2,16.8-6.1c0.6-0.2,1.7,0.7,3,1.4c-1,2.4-2,4.6-2.7,6.3c4.9,9.2,15.1,2.4,21.1,8.3
	c-7.8,8.7-18.2,1.3-27.3,4.1c6.8,7.8,14.2,8,22.2,5.2L278.7,152.1z M573.3,68.9c6.7-4.5,14.3-4.8,21.9-5.1c2.6-0.1,6.1,1.4,7.6-3.4
	c-14-0.4-27.6-1.3-41.1-0.9c-13.3,0.4-27.1-0.1-39.5,3.7c-13,4-26.7,0.2-40.2,7c14.5,0,27.9,0,43.3,0c-12.4,6.2-23.3,7.6-33.8,5.7
	c-3.3,2.5-5.6,5-8.4,6.1c-3.2,1.2-6.8,1.1-10.6,1.6c0.8,3.5,1.4,5.8,1.9,7.8c-5.3,3.1-12-3-16.2,4.2c1.2,0.9,2.3,2.4,3.1,2.2
	c11.5-2.1,22.6,0.2,33.7,2.8c0.4,0.1,1-0.7,1.5-1.1c-0.5-1.7-1-3.4-1.7-5.6c2.7-0.6,5.1-0.8,7.1-1.7c6.5-3.1,14.4-5.2,18.9-10.2
	c2.9-3.2,5.3-4.8,8.8-5.2c4.6-0.5,9.3-0.8,13.9-0.6c6.5,0.3,12.3-0.9,18-4.5c3.3-2.1,7.9-2,11.9-3C573.6,68.7,573.3,68.9,573.3,68.9
	z M1584.4,659.4c6.7,3.7,11.5,8.8,13.9,16.2c0.5,1.4,1.9,2.5,2.8,3.8c2.5,3.4,4.5,7.2,7.4,10.3c7.1,7.6,12,16.2,14.8,26.1
	c0.2,0.9,1.6,1.4,1.9,2.2c4.9,11.3,17.8,14.5,24.7,23.9c2.8,3.8,8,1.6,8.4-3.4c0.4-5.3,0.1-10.7-0.5-15.9c-0.2-2.1-1.9-4.2-3.5-5.8
	c-4.6-4.7-9.4-9.2-13.8-13.4c-0.8-4.6,2.9-9.4-2.4-12.4c-11.5-6.5-21.4-15.1-32.2-22.5c-5.2-3.5-9.3-7.3-10.4-13.6
	c-5-0.7-9.6-1.4-14.1-2.1c-0.3,0-0.6,0.3-2,1.2C1581.2,656,1582.5,658.3,1584.4,659.4z M867,252.6c-2.5-5.5-9.2-9.1-14.2-13.6
	c2.4-2.7,4.9-5.5,7.7-8.7c-9.9-1.9-11.1-2.4-14.3-5.8c-3.1,1.6-6.1,3.2-9.4,4.9c2.3,8.4,1,19.2,13.8,20.9c1.6,4.9,1.6,4.9-4.6,15.7
	c0,2.9,0,5.4,0,8.1c2.9,0.9,5.5,1.6,8.2,2.5c-1.2,2.1-1.9,3.5-2.8,5c7.7-0.7,15.2-1.4,21.4-2c2.8-4.7,5-8.3,7.2-12
	C875.7,262.1,870,259.1,867,252.6z M1846.7,369c-0.9-12.4-2.4-15.5-16.9-21.1c1.8,4.1,2.9,6.9,4.3,9.7c4.1,8.4,2.3,17.6-4.1,23.7
	c-3.7,3.5-6.9,7.6-11,12.2c-2.3,0.1-6,0.9-9.5,0.3c-8.4-1.5-11.9,3.2-14.7,11.4c9.4-3.2,17.7-7.9,27.2-6.5c1.4,2.8,2.7,5.5,4.1,8.2
	c0.7-0.1,1.4-0.1,2.1-0.2c0.6-3.5,1.3-7,2-11.5c3.1,1.5,5.6,2.8,8.1,4c4.4-2.2,9-4.4,14.3-6.9C1850.5,384.1,1847.3,376.7,1846.7,369
	z M1219.8,83.4c-1.4-0.2-2.9-0.7-4.3-0.5c-13.8,2.3-27.6,4.3-41.2,7.3c-4.1,0.9-9.9,3.9-11,7.3c-2.1,6.5-5.4,11.2-10.4,15.3
	c-1,0.8-1.2,2.7-2.3,5.3c4.9-0.7,8.7-1.3,12.8-1.9c4.8,10.2,13.4,6.9,22.9,7.1c-5.4-6.2-16.8-4.9-13.9-16.3
	c8.7-2.7,10.2-14.9,20.4-16.7c9.1-1.6,18.2-3.3,27.3-4.9C1219.9,84.7,1219.9,84.1,1219.8,83.4z M2039.6,1052
	c-4.8,3.4-10.1,7-15.7,8.1c-8.8,1.9-15.7,6.8-23,11.1c-2.8,1.7-4.6,4.9-7,7.6c9.7,5.9,9.3,5.3,17.1-0.2
	c10.9-7.7,19.9-18.9,34.3-20.9c0.9-0.1,1.8-0.8,2.6-1.3c5.7-4.5,11.3-9,16.9-13.4c0.7-0.6,1.5-1.2,2.3-1.9c-1.5-2.2-2.8-4-4.7-6.7
	C2054.3,1040.7,2047.2,1046.7,2039.6,1052z M750.3,169.9c1.9,9.3,4.5,12.6,12.5,12.6c12,0,23.1-4,34.4-9.2c-2.7-4-4.9-7.1-7.2-10.6
	c-10.9,2.1-21.6,4.1-32.8,6.3c-1.7-1.5-3.8-3.5-6.2-5.8c-1.6,1.1-2.9,2.1-4.5,3.3C748.1,168,750.1,168.8,750.3,169.9z M484.6,312.4
	c4.8,0.4,9.9,2.1,14.3,0.9c6.9-1.9,11.4,1.1,16.2,4.6c1.1,0.8,2.5,1.2,4.3,1.9c-0.7-6.4-1.3-11.8-1.9-17.8
	c-4.7-1.8-10.1-3.9-16.7-6.4c3-3.9,5.5-7,8-10.2c-5.9,2.3-11.6,4.5-12.8,11.9c-0.4,2.3-2.6,4.5-4.5,6.2c-2.6,2.4-5.7,4.3-8.7,6.5
	C483.4,310.8,484,311.6,484.6,312.4z M1667.7,760.1c3.1-1.3,5.8-2.4,8.5-3.5c4,3.2,8,5.2,12.3,6c6.8,1.3,13.8,2.1,20.7,2.8
	c3.6,0.4,7.2,0.1,10.8,0.1c0.1-0.7,0.1-1.4,0.2-2.1c-3.1-1.1-6.3-2.2-9.4-3.3c0.2-2,0.4-3.5,0.6-4.8c-3.3-0.8-6.5-1.8-9.7-2.4
	c-2.2-0.4-5.1-1.1-6.6-0.1c-6.6,4.4-12.4,2.4-18.5-1.1c-5.6-3.2-11.4-5.8-18.2-0.5C1661.8,754.5,1664.8,757.3,1667.7,760.1z
	 M1762.9,701.3c-2.6,6.9-5,12.9-6.9,19c-0.5,1.5,0.4,4.2,1.6,5.3c3.7,3.1,3.3,6.8,2.7,10.9c-0.2,1.5,0.5,3.1,0.9,4.6
	c2-6.6,2.2-13.2,3.1-19.6c0.2-1.8,2.5-3.2,3.9-4.8c1.5,1.4,4.3,2.7,4.4,4.1c0.4,8.4,8.1,10.4,13.4,14.9c-3.5-8.3-7-16.7-10.5-25.3
	c1.8-2.2,3.8-4.8,5.9-7.3c-0.3-0.5-0.6-0.9-0.9-1.4c-3.4,1.5-6.7,3-10.4,4.7C1767.9,704.9,1765.7,703.3,1762.9,701.3z M828.9,270.9
	c1.1-0.3,1.9-2.6,2.2-4.1c1.2-5,2.1-10.1,3.2-15.7c-3.3-0.7-6.7-1.5-10.1-2.3c-1.9,2.3-3.3,4.8-5.4,6.1c-2.3,1.5-5.3,1.8-8.2,2.7
	c0.9,6,2.6,11.7-4.8,16.6C815.9,277.5,822.2,272.7,828.9,270.9z M2096.1,1006c-2.1,3.3-3.2,8-6.2,9.9c-7.3,4.7-7.5,11.8-8.5,19.2
	c6.4-4.2,12.3-8.9,18.1-13.5c1.2-1,2.8-2.4,4.1-2.3c7.3,0.7,8.4-5.7,11.7-8.7c-5-2.7-9.5-5.2-15.8-8.6
	C2098.8,1002.8,2097.2,1004.3,2096.1,1006z M1758,552.5c-6.6,7.3-6.4,9.6-0.9,16.8c2.4,3.2,4.3,7.4,4.9,11.4
	c0.5,3.8,1.2,6.6,5.1,9.2c-0.3-6.3,0.6-12.1-1.1-17c-1.8-5-1.3-9-0.5-14.1c2.1-13.2,4.5-14.4-9.9-19.1
	C1751.4,545.4,1756.3,548.6,1758,552.5z M1850,326.8c-2.3-1.6-4.2-3.4-6.5-4.4c-2.3-1-5.1-1.1-7.6-1.9c-5.5-1.8-10.9-3.8-18.2-6.5
	c2.6,5.3,4.4,9,6.3,12.8c-1.1,2.5-2.1,5-3.1,7.4c6.4,0.4,12.1,0.8,19,1.2C1842.7,333,1845.8,330.3,1850,326.8z M265.1,529.7
	c1.9-0.3,4.6-0.8,5.6,0.1c4.6,4.2,9.9,4.9,15.8,4.6c1.6-0.1,3.7,0.3,4.7,1.3c4.7,4.7,9.2,9.6,13,13.8c5.7,0,10.7,0,15.6,0
	c-3.3-2.5-6.2-4.8-9.2-6.9c-5.7-3.9-11-8.9-17.3-11.1c-8.6-3-18-4.1-27.2-5.6c-3.9-0.6-7.8,0.5-9.5,5.5
	C259.4,530.9,262.2,530.1,265.1,529.7z M958.7,85.4c10,3.4,10.8-7.8,16.9-10.6c2.4,0.2,4.9,0.4,7.4,0.6c-6.6-3.1-13.5-5.6-20.3-5.4
	c-5.8,0.2-11.5,2.4-17.4-0.4c-1.5-0.7-3.9,0.7-6.7,1.3c2.4,3.3,4.2,5.6,6.2,8.4C959.1,73.8,958.7,74.5,958.7,85.4z M332.7,552.6
	c0.7,3.3,1.3,6.2,1.9,9.5c-3.8,0-6.9,0-11.8,0c7.9,2.2,14,3.9,20.1,5.7c4.9-2.3,10-4.7,15.3-7.2c-2-2.6-4.1-5.1-6.2-7.9
	C345.7,552.6,339.5,552.6,332.7,552.6z M474.9,76.6c-15.7-7.5-20.7-7.4-33.6,0.5C451.6,88.2,456.1,88.1,474.9,76.6z M336.4,105.4
	c-2.5,0.9-6,1.5-8.3,0.6c-8-3.3-15.1,0.4-22.6,2c6,4.2,11.6,7.2,19.5,4.7c6.7-2.2,14.2-1.9,21.3-2.8c1.5-0.2,3-0.6,5.2-1
	c-1.4-3.2-2.5-5.7-4.1-9.3C343.3,101.7,340,104,336.4,105.4z M1783.2,626.2c2.7,0.8,5.5,1.6,8.3,2.3c2.3,13.4,2.3,13.4,10,14.3
	c-0.6-2.5-1.2-4.9-1.8-7.2c8-5.6,8.1-7.2,0.6-18.7c-3.5,8.5-12.1,4-18,7.5C1782.9,625.7,1783,626.1,1783.2,626.2z M1891.2,1038.5
	c-6.1,0.3-12.2,0.6-18.8,0.9c1,6.1-4.8,11.7-1.1,18C1884,1054.2,1889.9,1048.6,1891.2,1038.5z M1466.3,647.6c6.9-1.8,9.1-3,8.1-6.2
	c-2.2-7.3-3.4-15.3-9.4-22.2C1459.4,626.7,1460.2,636.1,1466.3,647.6z M423,109.3c13-3.3,26.4,5,38.1-4c-5.3-0.4-10.5,0.1-15.7,0.4
	c-4.1,0.3-7.9,0-10-4.6c-2-4.3-6-3.2-9.9-2.8C424.6,102.1,423.9,105.2,423,109.3z M358.2,134.7c4.9-1.9,9.8-3.7,14.6-5.7
	c1.1-0.5,2.8-2.1,2.7-2.3c-2.7-5.1,5-5.4,4.6-10.5c-4.9,0.3-9.4,0.6-13.4,0.8c-3.9,5.8-7.2,10.9-10.6,15.9
	C356.9,133.6,357.6,134.1,358.2,134.7z M1351.3,66.3c-2.8-1.7-5.4-3.9-8.4-5.1c-3.2-1.3-7-1.2-10.2-2.5c-8.6-3.3-15.7-3.4-22.4,0.5
	c5.1,5.7,10.8-1.4,15.9,1c1.7,2,3.3,5.4,5.5,5.9c5.9,1.5,12.2,1.7,18.3,2.4C1350.5,67.7,1350.9,67,1351.3,66.3z M402.7,179.4
	c-2.7-2.5-5.4-3.3-8.7-0.4c-3.8,3.4-8,6.3-11.9,9.4c4.2,3.5,4.6,4,6.6,2.4c5.7-4.7,11.5-3.6,17.7-1.8c1.4,0.4,3-0.3,5.9-0.6
	C408.4,184.7,405.6,182,402.7,179.4z M1847.9,703.7c8.8-0.9,11.9,11.3,21.4,7.1c-0.5-4.4-0.9-8.2-1.5-13.7
	C1861,700.5,1853,693.9,1847.9,703.7z M1795.5,266.2c-3.3-4.1-7.7-7.3-11.7-10.8c-3.7-3.2-5-9.2-12.4-10.2
	c10.4,12.4,19.9,23.6,30.3,36C1803.4,273.6,1798.7,270,1795.5,266.2z M279.1,151.8c-6.6,7.7-13.9,4.5-21.7,1.2c-2,1.9-4.1,4-6.2,6.1
	c0.3,0.6,0.7,1.2,1,1.8c4.1-0.7,8.3-1.7,12.5-2.2c3.2-0.4,6.7-1.1,9.6-0.2c6.1,1.8,8.9-1.2,12.2-6.4c-3.3,0-5.6,0-7.8,0
	C278.7,152.1,279.1,151.8,279.1,151.8z M1770.1,686.7c14,7.4,21.8,6.7,28-0.9C1789.5,686.1,1780.7,686.4,1770.1,686.7z
	 M1801.5,427.9c0-3.9,1.2-8.4-0.3-11.4c-1.7-3.4-6-5.6-9.2-8.4c-1.7,1.5-2.8,2.5-4.3,3.8c3.3,2.7,6.6,4.5,8.6,7.3
	c2,2.7,2.6,6.4,3.9,9.6C1800.5,428.5,1801,428.2,1801.5,427.9z M1751.1,484.5c-4.1,0.6-3.9,0.7-6.5,7.2c-2.4,5.9-0.2,9.9,4.2,14.4
	C1749.6,498.2,1750.4,491.4,1751.1,484.5z M1384.2,69.2c-7.8-2-13.3-3.5-19.2-5c-1.6,3.2-3,6-4.8,9.5
	C1368.2,72.2,1375,70.9,1384.2,69.2z M1090.3,322.2c2.4,2.9,4.4,5.4,6.6,8c3-1.4,5.7-2.7,9.4-4.4
	C1101.2,320.6,1096.8,317.7,1090.3,322.2z M382.7,108c4.2-2.9,11.2,0.8,12.8-7.7c-3.1,0.3-5.6,0.7-8.1,0.7c-2.9,0-5.8-0.5-10.3-0.9
	C379.3,103.1,380.9,105.3,382.7,108z M1670,530.2c-1.9,1.2-3.1,3.8-3.8,6c-0.3,0.8,1.8,3.6,2.3,3.4c2.2-0.6,4.8-1.4,6.2-3
	c1.6-1.7,2.2-4.5,3.6-7.8C1674.8,529.3,1671.9,528.9,1670,530.2z M284.4,103.2c8.5-0.5,17.3-1.1,28.1-1.8
	C300.4,97.2,290.8,98.3,284.4,103.2z M933,362.6c-8.4,1.7-8.7,4.5-1.7,13.6C935.6,371.9,934,367.3,933,362.6z M987.8,66.3
	c5.1,4.7,10.3,4.6,15.7,0.9C998.2,66.9,993,66.6,987.8,66.3z M972.8,393.9c0.4-2.5,0.7-4.4,1.1-6.8c-4.9,0.5-9,0.9-14.6,1.4
	C964.7,390.6,968.4,392.1,972.8,393.9z M450.6,162.2c3.8-0.7,7.5-1.5,11.3-2.2c-4.5-5-8-3.3-11.4-0.4
	C450.5,160.5,450.5,161.3,450.6,162.2z M1807.8,408.5c-0.5,0.4,0.7,2.9,1.2,5c3.1-2.2,5.3-3.8,8.1-5.8
	C1812.9,403.1,1810.2,406.6,1807.8,408.5z M1821.6,679.6c0.2,3.5,0.4,6.9,0.7,11.9c6.6-5.1,1.4-8.7,1.4-12.4
	C1823.1,679.3,1822.3,679.4,1821.6,679.6z M1795.5,604c0-3.3,0-6.5,0-9.8c-0.5,0-1,0.1-1.5,0.1c-0.3,3.3-0.6,6.5-0.9,9.8
	C1793.9,604.1,1794.7,604.1,1795.5,604z M1995,734.8c-2.9,1.3-5.7,2.7-8.6,4c0.3,0.6,0.5,1.2,0.8,1.8c2.9-1.2,5.9-2.3,8.8-3.5
	C1995.7,736.3,1995.4,735.6,1995,734.8z M406.7,116.8c-2.8-0.6-5.7-1.9-8.8,3.7c3.9-0.5,6.4-0.8,9-1.1
	C406.8,118.6,406.8,117.7,406.7,116.8z M927.5,351.5c0.2,0.9,1.6,1.6,2.4,2.4c0.6-1,1.7-2,1.7-2.9c0-0.9-1.2-1.8-2.6-3.6
	C928.3,349.5,927.3,350.7,927.5,351.5z M1148.2,134.6c-2.2,0.1-4.5,0.2-6.7,0.3c0,0.8,0,1.5,0,2.3c2.2,0.2,4.5,0.4,6.7,0.6
	C1148.2,136.7,1148.2,135.6,1148.2,134.6z M1792,780.9c2.1-2.7,3.3-4.4,5.5-7.2C1792.1,774.1,1790.6,775.6,1792,780.9z M400.2,88
	c-2.9-3.3-5-4.5-9.3-1.1C394.7,87.4,396.9,87.6,400.2,88z M2096.7,987.1c0.1,1.7,0.2,3.5,0.3,5.2c0.6,0,1.1,0,1.7,0
	c0.1-1.7,0.3-3.4,0.4-5.1C2098.3,987.2,2097.5,987.1,2096.7,987.1z M477,103.8c-1.9,0.1-3.8,0.2-5.6,0.3c0,0.7,0,1.4,0,2.1
	c2,0.2,3.9,0.3,5.9,0.5C477.1,105.6,477.1,104.7,477,103.8z M1209.2,362.7c-0.1,0.4-0.3,1.4-0.5,2.4c-4.1,16.5-4.1,16.5,10.6,24.4
	c0.6,0.3,1.2,0.7,1.7,1c8.6,5.2,16.9,2.3,25.9,0.5c-5.3-11-9.9-20.6-14.7-30.5c2.1-1.9,7.6,3.8,9.4-2.9c-2.2-2-5.6-3.8-6.7-6.4
	c-1.8-4.2-5.8-2.4-7.8-3.9c-6.3-5.1-11.8-11.3-17.8-17.3c2.8-3,4.8-6.6,7.8-8c4.7-2.1,7.6,1.5,9.2,7.5c3.1-3.5,5-5.7,7.1-8
	c-3.4-2.9-6.9-4.5-8-7.2c-2.1-5.4-6.1-6.4-10.9-7c-12-1.6-27.2,7.7-32.8,21.3C1190.9,339.8,1199.9,351.1,1209.2,362.7z
	 M1534.1,266.9c2.9,0.3,5.6,0.3,7.3-1c4.2-3.2,7.9-6.9,11.7-10.6c9.1-8.7,9-13.2-1.9-24.5C1552.2,247.4,1544.9,257.8,1534.1,266.9z
	 M1376.7,311c5.9,0.3,11.9-0.4,17.7-1c1.9-0.2,3.6-1.9,5.5-3c-1-1.2-1.4-2.1-1.8-2.1c-10.5,0.3-21.1,0.3-31.5,1.2
	c-7,0.6-9,6.5-5.3,13.9C1365.7,310.2,1365.7,310.5,1376.7,311z M1065.1,205.3c0.9,0.2,2.4-1.6,4.6-3.3c-4.2-3.7-7.8-6.9-11.6-10.2
	c-2.7,2.2-4.9,4-9.5,7.7C1055.5,202,1060.2,203.9,1065.1,205.3z M1259.9,314.5c-2.7,3.4-2,9,2.6,14.6c-0.6-9.8,3.1-15.8,13.1-17
	C1271.4,309.4,1262.3,311.4,1259.9,314.5z M1077.9,191.7c3,3.3,6.5,5.9,12.6,3.9c-3.8-4.2-6.9-7.7-10.5-11.8
	C1076.1,186.4,1075.5,189,1077.9,191.7z M303.8,310.9c-2.5-3-5.4-3.5-8.9-2c-9,3.9-18.1,7.7-27.1,11.8c-2,0.9-3.5,2.6-5.5,4.1
	c6,3.3,6,3.2,12.3,1.6c3.8-0.9,7.9-2.3,11.6-1.8c6.2,0.9,12.2,3.1,18.3,4.8c-2.8,1.7-5.9,2.5-9,2.7c-5.8,0.4-10.7,3.2-13.1,8
	c-3.7,7.3-6.2,15.1-8.9,22.8c-0.7,1.9,0.1,4.4,0.2,6.8c5.5,0.4,7.8-2.6,9.5-6.5c2-4.6,3.9-9.2,5.6-13.9c2.5-6.9,8.6-9.8,14.5-12.7
	c1.6-0.8,5-0.1,6.1,1.2c0.9,1.1,0.3,4.3-0.6,6.1c-1.3,2.5-3.5,4.4-5.7,7.1c6,1.2,10.9,2.2,15.8,3.3c0.9-10.8,0.9-10.7,11.5-10.8
	c4.1,0,4.7-3.1,4.6-6.3c-0.1-3.2-2.2-7.4-5-5.6c-7.4,4.8-12.5-0.2-19.8-2.8C313.3,320.6,308,316,303.8,310.9z M342.6,347.7
	c-5.3,0.3-9.5,1.1-12.2,6.6c-1,2.2-4.7,3.4-7.5,4.3c-4.4,1.5-8.9,2.4-13.4,3.5c-2.9,0.7-5.9,1.2-6.4,6.2c5-0.8,9.8-1.6,14.5-2.3
	c6.3-1,12-2.9,16.6-8c2.1-2.3,6.3-3.6,9.7-3.8c5.6-0.4,9.3-2.7,13.5-9.5C351.3,346,347,347.4,342.6,347.7z M258,268.1
	c-2.2-0.1-3.5-0.4-4.6-0.2c-1.9,0.4-3.7,1.1-6.3,1.9c-0.4,4.2-1.3,8.3-1.1,12.5c0.3,4.6,1.6,9.1,2.6,14.6
	C258,289.4,254.7,278,258,268.1z M228,199.6c-3.8,1-8,1.7-11.3,3.7c-2.8,1.7-4.4,5.2-6.7,8.1c10.3-3.9,20.4-7.7,30.5-11.5
	C235.5,195.2,231.8,198.6,228,199.6z M186.4,172.9c-0.8,4.1-1.5,7.6-2.3,11.3c6.3,1.8,10.1-3.5,15.3-4.9c-1.7-1.9-7.6-0.8-3.3-7.3
	C192,172.4,188.8,172.7,186.4,172.9z M203.7,171c1.5,0.8,3.1,2,4.9,2.6c2.6,0.8,2,2.2,1.1,3.8c2.3-0.1,4.7-0.3,7-0.4
	C209.7,168,209.7,168,203.7,171z M200.6,212.9c-4.3-0.7-8.5-1.4-14-2.3c4.5,5.8,8.7,5.8,14.6,1.7C200.3,213.2,200.5,213,200.6,212.9
	z M203.8,206.9c1.2-1.3,2.5-2.6,3.7-3.9c-0.4-0.4-0.9-0.9-1.3-1.3c-1.3,1.2-2.6,2.3-3.9,3.5C202.8,205.7,203.3,206.3,203.8,206.9z"
	/>
</svg>
