<svg xmlns="http://www.w3.org/2000/svg" viewBox="0 0 1598.54 824.95"><defs><style>.cls-1{fill:#fff;}</style></defs><g id="Слой_2" data-name="Слой 2"><g id="Слой_1-2" data-name="Слой 1"><path class="cls-1" d="M684.1,160.57l5.72-6.61c-2.75-3.34-5.27-6.66-8.06-9.73-3.37-3.71-4-8.18-.64-11.33,4.7-4.38,10.43-7.66,15.9-11.14.8-.52,3.7.55,3.69.72-.46,5.72,6.91,9.3,4.16,15.74-.65,1.51.06,4.13,1,5.7,2.69,4.39,6,8.38,8.73,12.77,2.09,3.42,3.57,7.22,5.91,12.05,2.34-2.17,5.6-5,8.65-8.07,2.8-2.81,5.38-5.84,8-8.79,1.46-1.62,3.23-3.09,4.25-5,5.77-10.57,5.71-10.61,17.35-12.83-2.18-.76-4.32-1.65-6.54-2.25-5.12-1.38-10.71-1.78-15.34-4.1a13.34,13.34,0,0,1-3.3-21.85c4.21-4,9.93-6.45,14.82-9.83,3.18-2.19,6.93-4.25,8.94-7.34,7.91-12.16,18.08-20.36,32.62-23.59,10.88-2.42,21.29-8.07,32.8-5.46q22.49,5.1,44.65,11.58c3,.89,5.13,4.83,7.66,7.37-2.68,2.45-5.16,5.16-8.1,7.25-1.84,1.31-4.34,1.68-7.13,2.67,3,3.89,6.46,3.86,9.86,2.5A44.77,44.77,0,0,0,877,86.83c6.83-4.39,13.38-9.27,20.51-13.08a26.14,26.14,0,0,1,12.14-2.57c9.78.08,18.92-2.08,28.23-4.92,7.47-2.27,15.65-2.39,23.55-3,4.88-.36,8.61-.21,9.56-7a11,11,0,0,1,17.62-7c7.38,5.7,13.41,5.27,21,.19,7.3-4.9,15.52-8.63,23.72-11.91,6.26-2.5,13.11-3.54,19.72-5.11,2.34-.56,5.1-.16,7.07-1.26,18.61-10.4,38.06-2.45,57.11-2.83a16,16,0,0,1,4.12.79c8.8,2.23,10.37,5.45,6.71,13.72.22.3.46.87.67.86,17.11-.91,34.12,4.64,51.41.2,8.41-2.16,16.68.79,23.91,5.77,2.64,1.82,5.15,3.84,7.82,5.61,3.08,2,6.16,2.53,9.42,0a13.11,13.11,0,0,1,5.36-2.49c7.4-1.44,14.85-3.58,22.3-3.68a266.28,266.28,0,0,1,33.49,2c10.47,1.17,20.78,3.74,31.25,5a155.81,155.81,0,0,1,29.06,6.53c11.11,3.55,23.41,5,35.32.4a24.23,24.23,0,0,1,11.08-1.28c20.51,2.45,40.83,5.62,60.61,12.15,7.83,2.58,16.75,1.69,24.85,3.69a42.33,42.33,0,0,1,16.17,8c2.26,1.84,3,7.45,2,10.66-.53,1.8-6,3.28-9,3-4.25-.45-8.25-2.89-12.46-4.13a79,79,0,0,0-9-1.65c-.21.53-.41,1.06-.61,1.59,1.92,1.55,3.91,3,5.75,4.65,4.54,4,4.23,7.57-.31,11.41-8.46,7.16-17.25,12.92-29.18,11.36-2.54-.33-5.32,1.13-9.83,2.21,3.39,2.87,5.32,5,7.71,6.42,7.42,4.33,10.21,10.69,10,19.1-.09,3.65,1.06,7.41,2.09,11,1.38,4.8.65,8.87-3.58,11.66s-7.2,0-10-2.66c-9.11-8.73-18.17-17.5-27.29-26.22-6-5.74-6.39-10.12-1.3-16.8.83-1.08,1.64-2.18,3-4-8.27.4-10.91-11-20.27-7.62a15.08,15.08,0,0,0,.38,3.38c2.56,7.22,1.1,9.33-6.77,9.49q-18.92.41-37.84.73c-8.06.14-15.68,9.34-13.68,17.2.35,1.37,3.56,2.71,5.52,2.84,7.79.49,15.61.49,23.42.67,4.75.11,8.12,2.36,11.18,6,5.92,7,12.57,13.47,18.4,20.58a31.62,31.62,0,0,1,5.79,11.32c.46,1.64-1.8,5.23-3.61,6s-4.94-.62-6.68-2.05c-2.85-2.34-5-5.49-7.37-8.14-1,8.14-1.69,15.88-3.12,23.48a63.44,63.44,0,0,1-4.47,13c-1.81,4.2-5.4,5.26-9.88,5.19a7.55,7.55,0,0,0-5.68,3.18c-2,3.59-3,7.72-5,13a8.32,8.32,0,0,1,2.63,1.64c4.3,4.71,9.11,9.13,12.51,14.44,6.23,9.71,2.38,16.46-9.2,17.42-6.69.55-10.64-2.69-10.17-9.36.33-4.67-1.47-7.35-4.88-10.09-3.19-2.56-5.55-6.11-8.46-9a8.45,8.45,0,0,0-4-2.34c-5.37-1.13-10.8-2-16.22-2.82a2.61,2.61,0,0,0-2.25,1.14,2.65,2.65,0,0,0,.88,2.43,29.47,29.47,0,0,0,5,2c2.82,1,5.89,1.55,8.46,3,6.21,3.49,6.43,9.12.2,12.38-5.6,2.93-4.46,5.26-.87,8.82a161.21,161.21,0,0,1,12.52,13.74c7.77,9.72,7.64,20.6,4,31.88-1,3.22-1.71,6.56-2.27,8.73,3.78,2.08,8.55,3.12,9.67,5.74,1.33,3.09.34,7.9-1.21,11.26-1,2.25-4.76,3.26-7.29,4.83-1.5-2.5-3.34-4.88-4.38-7.56-.57-1.48.21-3.49.48-6.27-13.77,15.49-32.4,19-50.24,24.39-3.56,1.07-8.65,3.06-9.51,5.75-1.49,4.67.6,9.88,5.5,12.81,13.8,8.26,11.74,22.14,11.84,34.87,0,5.64-14.5,18.37-20.17,19.28-4.66.75-8-1-10.64-5a33.93,33.93,0,0,0-7.31-8.45c-1.93-1.49-5-1.49-7.59-2.15-.69,3.43-3.13,8-1.76,10.07,4.65,7,5.94,16.06,14.35,21,3.47,2,4.73,7.93,6.88,12.13,2.4,4.7,4.8,9.42,6.94,14.25.82,1.84,1.71,4.26,1.14,5.93-.46,1.36-3,2.28-4.72,2.86-1.37.45-3,.09-4.54.09l-.87,1.45c1.9,1.69,3.58,3.78,5.74,5,9,5,11.3,9.53,9.58,19.56-1.32,7.67-.23,9.41,7.22,10.8,4.93.91,9.89,1.62,14.86,2.24a87,87,0,0,1,25.9,6.91c6.57,3,14.66,3.13,22.14,3.62s15.2-.4,22.78-.11c3.26.13,7.86,1.26,6.9,5.59-.51,2.27-4.64,5.05-7.32,5.28-12.77,1.06-25.61,1.33-38.42,1.85a8.47,8.47,0,0,1-3-.24c-19.17-6.38-40-6.22-58.54-15.06a24.11,24.11,0,0,1-5-3.14c-14.91-12.41-23.06-29.62-32.77-45.79-4.36-7.27-10.71-13.32-15.65-20.28-1.57-2.21-2.58-5.88-1.91-8.35,1-3.71,4.81-4,8-2.46,5.68,2.7,11.19,5.75,17.52,9-.7-2.1-.87-4.19-1.94-5.59-10.85-14.18-11.06-31.28-13.42-47.82a95,95,0,0,0-2-9.38c-1.27-5.09-2.7-8.69-9.68-5.82-5.9,2.42-11.3-1.91-11.53-8.49-.37-10.76-6-19.05-12.43-26.7-1.78-2.11-6.45-3-9.47-2.49-3.31.55-6.68,2.88-9.26,5.26-9.43,8.68-18.5,17.76-27.8,26.59-4.67,4.43-6.54,9.62-6.66,16.09-.13,7.16-1.49,14.3-2.24,21.45a27.56,27.56,0,0,0,.17,4.05l.16-.16a52.15,52.15,0,0,0-5.44,5.15c-7.54,9.46-13.74,9.17-18.51-1.78-8.06-18.51-15.67-37.22-23.05-56-2.12-5.39-4.88-9.41-10.31-11.69-6.85-2.89-11-8.6-13.86-15.12-4.39-10-11-14.38-21.86-14-13.68.51-27.13-.48-39.78-6.71-.41.6-.81,1.2-1.21,1.81,3.36,2.92,6.5,6.16,10.13,8.71,10.55,7.39,12.52,14,5.18,24.67a80.14,80.14,0,0,1-16.24,17.26,206.25,206.25,0,0,1-27,17.85c-8.84,4.92-18.4,8.53-27.63,12.73-2.3,1.05-4.58,2.16-7.17,3.37,2.12,4.65,5.61,4.32,8.9,3.73,7.1-1.29,14.17-2.75,21.22-4.29,9.54-2.09,12.14-.28,11,9.22a62,62,0,0,1-4.59,15.86c-2.44,5.91-5.06,11.94-8.79,17.07a167.76,167.76,0,0,1-17.86,20.81c-12.79,12.57-24.42,25.91-32.17,42.25-.74,1.57-1.59,3.59-1.2,5.09,2.15,8.38,4.12,16.87,7.17,24.93,5.7,15-.78,36.87-13.52,46.32-6,4.47-11.12,10.31-16.24,15.89-1.14,1.25-1,4.06-.79,6.08.36,3.77,1.4,7.47,1.76,11.23.59,6.2-1.77,10.9-7.57,13.72-4.41,2.14-7.52,4.92-6.64,10.74.34,2.26-1,5.13-2.3,7.24-9.2,14.73-20.08,28-34.8,37.6a25.29,25.29,0,0,1-9.94,4c-8.71,1.22-17.52,2-26.31,2.42-7.66.34-12.67-4.42-12.6-12.13.09-10.78-4.41-19.73-9.73-28.59-1.92-3.19-3.82-6.69-4.5-10.29a205.19,205.19,0,0,0-17.16-53c-.93-1.89-1.71-4.43-1.23-6.33,2.17-8.7,4.19-17.52,7.49-25.81a35.55,35.55,0,0,0,1.7-22.42c-3.27-14.91-11.43-26.69-19.41-38.83-4.21-6.42-6.43-12.43-2.43-20.06,2-3.91,2.35-8.9,2.7-13.47.44-5.67-3.11-8.82-8.59-7.54-6.78,1.58-11.45-1.09-14.76-6.48-3.66-6-8.52-7.6-14.82-5.09-5.55,2.22-10.92,4.93-16.54,6.94a36.87,36.87,0,0,1-10.33,1.94c-4.9.26-9.91-.68-14.73-.05-13.15,1.72-24.4-1.58-32.67-12.11C629,434.8,619.59,422.53,611,409.78c-4.82-7.12-6.4-15.3-2-23.88,5.16-10.14,2-20.79,1.12-31.31-.28-3.57,0-7.67,1.54-10.8,6.83-14.1,14.36-27.65,28.07-36.76,3.65-2.42,6.42-7.19,8-11.47a36.58,36.58,0,0,1,15-18.84c3.7-2.43,6-7.26,8.28-11.36.42-.75-1.87-3.67-3.48-4.73-1.93-1.27-4.64-1.3-6.69-2.44s-5-3-4.92-4.39a312.65,312.65,0,0,1,3.89-34.73c.45-2.42,5.54-5,8.85-5.66,5.44-1,11.27.07,16.75-.84,3.64-.6,8.48-2.32,9.94-5.06,1.26-2.34-1-7.09-2.67-10.31-1.19-2.36-4-3.84-5.81-6-1.16-1.4-2.7-3.57-2.32-4.88s2.71-2.76,4.45-3.29c5.87-1.8,11.86-3.22,17.81-4.79-.1-.69-.2-1.39-.29-2.08-5.06.53-10.12,1-15.17,1.62-2,.22-4.53,1.47-5.74.65-1.86-1.26-4.2-5.43-3.89-5.71,3.92-3.61,1.84-8.27,2.62-12.34ZM1180,203.11c-10.87-2.09-20.26-4-29.7-5.7-32.94-5.84-65.91-11.51-98.82-17.47-4.41-.79-6.11.46-7.06,4.66q-11.1,49.54-22.57,99c-1,4.32-.13,6.25,4.13,7.25q28.07,6.6,56.06,13.51c4.06,1,6.67-.24,9.41-3.26q40.74-45,81.71-89.84C1175.22,209,1177.15,206.46,1180,203.11Zm73.09,260.51c6.44-4.89,7.59-9.64,2.81-12.36-7.3-4.14-9.83-11.11-13.93-17.42s-4.72-12.47-2.65-19.4c1.66-5.62,4.41-7.57,10.19-6.24,7,1.59,12.17,5.71,16,11.76,1.12,1.74,3.49,3.88,5.22,3.83,6.12-.19,9.82-6.78,7.3-12.36q-14.83-32.85-29.77-65.65-26.41-58.32-52.83-116.62c-3.06-6.73-6.42-13.33-9.64-20l-1.51.33q-25.26,87.15-50.54,174.32c8-6.49,14.64-14,22-20.7,6.56-5.91,11.2-13.77,20.23-17.32,8.76-3.44,14.32-3.54,20.19,3.95,6.45,8.23,12.12,17.08,13.26,27.87.5,4.77,2.15,5.92,6.61,3.73,5.74-2.82,9.15-1.85,11.51,4.18s3.59,12.65,5.09,19.05c3.08,13.07,1.4,27.2,9.84,39.11C1246.72,449.62,1249.42,456.6,1253.05,463.62ZM923.66,265.36c.84.66,1.12,1,1.47,1.12q43.8,10.51,87.62,21c4.76,1.15,5.29-1.86,6-5.22,2.73-12.93,5.49-25.85,8.39-38.75q6.81-30.17,13.83-60.3c.72-3.06.44-4.91-3.21-5.54-21.71-3.71-43.41-7.47-65.07-11.46-3.9-.72-5.32.88-6.7,4Q948.86,209,931.51,247.63C928.86,253.58,926.23,259.56,923.66,265.36Zm-1.86,5.9c-1.59.56-2.45.65-3,1.1-24.5,19.37-49,38.72-73.36,58.29-1.68,1.36-2.76,4.37-2.84,6.66-.32,10.2-.17,20.42-.19,30.64V382.1H976.11Zm231.11-141.52c.93,2.29,1.45,3.76,2.1,5.16,8.67,18.94,17.58,37.77,25.92,56.86,2.47,5.63,6.43,8.49,11.85,9.48,22.64,4.15,45.35,7.92,68,12.08,5,.91,6.89-.54,7.44-5.49,3.47-31.26,7.13-62.49,10.67-93.74a69.87,69.87,0,0,0,0-7ZM1381.44,123l-.59-2.44c1.32-3.73,1.57-9.26,4.18-10.8,5.18-3.05,11.26-1.42,16.33,2.25a3.51,3.51,0,0,0,1,.7c2.16.62,4.34,1.65,6.52,1.68,4.72.06,7.82,2.82,6.85,7.48a16.89,16.89,0,0,1-4,7.83c-4.1,4.31-3.21,7.2.94,10.93,8.47,7.63,16.48,15.78,24.71,23.68a37.38,37.38,0,0,0,3.46,2.62l1.39-.85c-.69-2.3-2.11-4.66-2-6.91.94-13-4.19-22.17-15.28-29.19-4.54-2.87-2.79-8.73,2.52-10.84,3.84-1.52,8.17-3.21,12.09-2.84,10.43,1,17.33-4.27,24.11-11.45-1.77-1.34-3.39-2.46-4.89-3.73a38.7,38.7,0,0,1-4.38-4.1c-3.83-4.41-2.74-7.73,2.95-8.94,7.81-1.67,15.07.33,22.18,3.43,2.35,1,4.88,1.63,8.15,2.69-2.23-6.58-6.55-9.63-13-10.5-9.3-1.25-18.57-2.71-27.89-3.89-4.09-.51-8.39-1.36-12.36-.67-38.3,6.62-76.54,13.52-114.8,20.37-10.57,1.9-21.13,3.91-32.23,6l59,116.76c5.32-1.43,9.68-2.5,14-3.81,1.37-.42,3.21-1.15,3.7-2.25,5.7-12.77,9.66-25.41.58-38.72-5.06-7.43-3.8-9.33,4.86-11.43-4-8.66-6-10-14.85-10.18-6.58-.11-13.16-.1-19.73-.23-7.06-.14-10.77-2.78-11-7.68-.79-16.7,8.12-25.54,24.64-25C1359.53,123.28,1370.49,123,1381.44,123ZM802.79,69.08a5.32,5.32,0,0,0,.6,1.57q28,34.53,56,69.06c2.42,3,4.72,2.69,7.85,1.47,19.41-7.55,38.89-14.9,58.32-22.39,22.24-8.57,44.48-17.11,66.6-26a15.12,15.12,0,0,0,7.27-6.39c4.21-8.18,7.71-16.73,11.39-25.17a27.56,27.56,0,0,0,1.15-4.55c-.3-.43-.59-.86-.89-1.28-8.87,7.85-16.9,5.83-25.16-.43-4.41-3.34-8.67-1-9,4.82-.27,5.32-3.34,7.6-7.67,8.58-3.27.74-6.77.34-10.13.79-6.85.94-13.68,2-20.5,3.21-10.19,1.72-20.38,3.44-30.53,5.39-3.86.74-8,1.43-11.3,3.36-7.38,4.31-14.22,9.53-21.44,14.11s-15.06,4-20.47-1.43c-1.63-1.63-3.14-4.71-2.71-6.67s3.19-3.75,5.32-4.82c2.69-1.36,5.79-1.92,9.22-3C856.81,69.2,812.32,62.5,802.79,69.08Zm306.08-16.35a20.49,20.49,0,0,0-3.43.39c-34,13.08-68,26.13-102,39.4a10,10,0,0,0-4.78,4.93c-8.93,19.7-17.6,39.52-26.47,59.25-1.94,4.31-1,5.85,3.8,6.62,18.19,2.91,36.32,6.15,54.45,9.47,10.55,1.93,10.52,2.09,15.83-6.81,1.13-1.9,2.32-3.75,3.39-5.67q26.22-47.29,52.4-94.61C1104.26,61.76,1106.25,57.74,1108.87,52.73ZM774.33,527.06l-1.1,1c.33,1.08.74,2.14,1,3.24,2.14,10.08,6.18,19.94,2.07,30.56a244.3,244.3,0,0,0-8.06,24.3,15.67,15.67,0,0,0,.79,9.6c6.61,15.48,12.78,31,15.26,47.85.68,4.58,2.79,9.17,5.15,13.23,5.61,9.62,10.45,19.37,10.46,30.85,0,5,3.08,6.56,7.53,6.27,7.38-.5,14.77-1,22.15-1.62,5.31-.44,7.9-2.71,7.85-8.81-.24-30.83-.08-61.67.15-92.51A12.72,12.72,0,0,0,833,580.54c-14.72-13.28-29.27-26.74-43.89-40.11C784.19,536,779.25,531.52,774.33,527.06Zm61.57,51.11,1.69-.85V390.13c-1.7,2.07-2.54,2.91-3.17,3.88q-35.1,54.54-70.22,109.05c-2.21,3.43-2.15,6.3.45,9.2,2,2.24,4.05,4.44,6.25,6.47q24.93,23,50,45.93C825.82,569.22,830.88,573.67,835.9,578.17Zm-76.36-74.46,75.09-116.84a21.27,21.27,0,0,0-3.23-.82q-55.64-.24-111.26-.5c-4.68,0-5.26,2.36-4.77,6.15,1.67,13.11,3.36,26.21,4.78,39.35.7,6.44.71,12.9,8.32,15.7,1.31.48,2.26,2.23,3.12,3.56,2.63,4.11,5.93,5.86,11.1,5.14,8.48-1.17,14.93,4.78,14.49,13.39-.26,5.15-.74,10.73-2.93,15.23C750.21,492.37,754.15,497.63,759.54,503.71ZM1117.1,51.21c1.2,3.39,1.71,5.28,2.52,7,9.46,20.55,19.23,40.95,28.29,61.67,2.53,5.79,5.62,6.41,11.09,5.4,35-6.5,70.11-12.7,105.16-19.07,3.49-.64,6.89-1.74,11.87-3-9.81-6.56-18-12.29-26.42-17.64-16.86-10.69-33.84-21.21-50.81-31.73a26.34,26.34,0,0,0-22.47-3,31.65,31.65,0,0,1-10.06,1.29c-7.19-.26-14.36-1.39-21.55-1.51C1135.85,50.45,1127,51,1117.1,51.21ZM980.53,382.89c7.75-5.39,15.09-9.65,21.36-15.12,4.56-4,8.13-9.31,11.36-14.52,2.54-4.1,2.12-9.12-2.37-11.68-6.78-3.87-11.93-9.08-16.69-15.14-2.46-3.13-4.91-5.65-2-9.29a7.22,7.22,0,0,1,10.32-1.4c11.69,8.63,25.12,8.76,38.56,8.23,7.12-.28,13.48.49,19.24,5,1.11.86,4,1.28,4.66.58,6.34-6.51,12.37-13.3,19.42-21L925.5,270.43C944.28,308.79,962.18,345.38,980.53,382.89Zm-75.28,99a41.27,41.27,0,0,0-4.23,2.51c-18.68,15.12-37.41,30.2-55.91,45.55a10.72,10.72,0,0,0-3.23,7.16c-.39,13.82-.56,27.66-.22,41.47a13.89,13.89,0,0,0,4,8.73c11.59,11.07,23.55,21.75,35.41,32.53,1.5,1.37,3.17,2.56,4.77,3.83l1.46-.85c-.54-2.62-.9-5.29-1.67-7.84-1.37-4.55-1.25-8.75,2.38-12.23,6.19-5.94,12.16-12.15,18.75-17.61,9.85-8.15,13.93-27.41,9.07-39.37-3.46-8.52-5.06-17.8-7.38-26.77-.29-1.11.2-2.4.08-3.59C907.52,504.53,906.42,493.67,905.25,481.87ZM1113.69,54.12c-1.51,1.71-2.47,2.46-3,3.44-8.15,14.7-16.34,29.39-24.26,44.22a8,8,0,0,0,0,6c2.75,6.65,5.95,13.11,8.95,19.66q13,28.38,26,56.77a9.61,9.61,0,0,0,8,6.1c15.39,2.55,30.71,5.58,46.07,8.36,1.09.2,2.26-.13,4.66-.3ZM843,326.52a9.11,9.11,0,0,0,2-.6q35.4-27.85,70.82-55.68c3.15-2.47,3.29-4.64,1.57-8.14-15.64-31.79-31.07-63.67-46.61-95.5-2.14-4.38-4.56-8.62-6.92-13.06-.91.73-1.36.91-1.46,1.2-8.25,24.67-16.54,49.33-24.59,74.07-.65,2,0,4.62.69,6.78,1.25,4.18,3.27,8.16,4.31,12.38,1.33,5.45,5.14,8.79,9.9,9.2a154.9,154.9,0,0,0,26.2-.14c8.84-.75,14,4.11,11.91,12.83a107.92,107.92,0,0,1-4.93,14.8c-3.15,7.89-8.32,10.42-16.73,8.84A20.41,20.41,0,0,0,862,293c-6.15,1.06-12.23,2.56-19.08,4.06Zm-16.91-85.79c2.62,2.12,5,3.62,6.79,5.66,1.3,1.52,2.88,4.18,2.35,5.55-.69,1.78-3.35,2.81-5.19,4.11-2,1.41-4.34,2.48-6,4.21-3.34,3.53-6.77,3.89-9.68.17a100.92,100.92,0,0,1-8-12.59c-1.71-3-3-6.23-4.46-9.3-6,5.55-11.77,10.35-16.93,15.7-5.45,5.64-8.33,6.41-14.74,1.9-1.46-1-3.23-3.26-3-4.63.3-1.73,2.23-3.6,3.93-4.57,2.65-1.5,5.7-2.29,9.47-3.72a46.08,46.08,0,0,0-4.11-4.71c-8.09-6.86-16.17-13.73-24.49-20.31-1.35-1.07-4-1.26-5.83-.86-5.58,1.21-11.08,2.86-16.58,4.45-1.26.37-3.19.91-3.48,1.81-2.38,7.41-9,10.39-14.47,14.71a9.15,9.15,0,0,0-3.2,4.68,24.14,24.14,0,0,1-21,18.42l-5.26.53a7.94,7.94,0,0,0,6,1.25c7.18-1.69,14.22-4.19,21.48-5.36,14.21-2.27,28.52-4,42.81-5.69,6.47-.78,9.08,2.09,8.72,8.66-.15,2.79.1,5.6,0,8.4-.1,4.61,2.31,6.53,6.62,7.76a144,144,0,0,1,16.69,6.45c4.51,1.92,8.91,4.14,13.31,6.31,3.08,1.51,4.88,1,6.63-2.33,3.94-7.52,10.92-9.93,18.8-6.91,2.61,1,4.94,2.7,7.55,3.69,7.63,2.87,15.31,7.32,23.63,4.62,5.74-1.86,10.88-3,16.9-1.54,2.15.54,6.31-1.28,7.36-3.21,2.63-4.86,4.29-10.32,5.82-15.68,1-3.45-.79-5.06-4.62-4.9-8.76.34-17.53.56-26.29.31-2.81-.08-5.75-1.48-8.34-2.83-6.44-3.35-8.91-9.1-9.93-16.11C834.52,238.21,832.14,237.29,826.05,240.73ZM770.64,283c.36,4.2.33,6.36.74,8.43,5.64,28.26,11.44,56.5,16.91,84.79.87,4.51,2.74,6,7.14,5.9,12-.18,24-.19,36.05.14,5.15.14,7.08-1.42,7-6.79-.13-21.63-.87-43.34.6-64.88.87-12.72-3-19.31-14.91-23.05-8.27-2.59-10.7-2.41-15.4,4.78-1.55,2.38-5.18,5.64-7,5.17-6.44-1.65-12.58-4.56-18.67-7.35C779.31,288.33,775.78,285.92,770.64,283Zm94.6-135.52,55.18,112.65,1.78-.38,42.23-94.64Zm322.89,57.27,62.47,137.44c3-14.24,5.25-28,6.89-41.9,3-25.65,5.64-51.36,8.65-77,.5-4.28-1-5.55-4.92-6.21-12.62-2.14-25.16-4.8-37.78-7C1212.24,208.14,1201,206.63,1188.13,204.7ZM842.53,420.85V527.19c20.68-16.85,40.25-32.73,59.69-48.77a6.13,6.13,0,0,0,1.77-4.68c-1.69-15.14-3.51-30.26-5.66-45.33-.24-1.66-2.75-4.16-4.36-4.28C877.21,422.82,860.41,421.93,842.53,420.85ZM1221.94,62.44c1.93,1.47,3.12,2.48,4.42,3.34,16.36,10.87,32.81,21.6,49,32.65a16.84,16.84,0,0,0,13.48,3q68.3-12.48,136.64-24.7a20.85,20.85,0,0,0,3.49-1.26,197.31,197.31,0,0,0-31.9-6.43,89,89,0,0,0-17.2,0c-6.28.48-12.51,2.48-18.74,2.37-10.14-.18-20.31-.88-29.62-6.13-3-1.67-7-1.79-10.51-2.19-14.27-1.61-28.58-1.75-42.64-6.29-8.47-2.74-18.29-2.1-27.45-1.68-7.68.35-15.3,2.44-22.88,4.05C1226.1,59.59,1224.38,61.1,1221.94,62.44ZM1117,424.5a17.54,17.54,0,0,0,1.53-2.42q13.9-47.24,27.82-94.47c1.27-4.28-1.48-4.7-4.29-5.39-10.89-2.65-22.08-4.46-32.6-8.16-14.72-5.17-26.48-3.91-34.92,10.62-1.87,3.22-6.43,5.47-7,8.68-.52,2.87,2.71,6.43,4.28,9.69a6.62,6.62,0,0,1,.47,1.1c1.44,5.26,5,8.44,9.89,10.49,5.89,2.44,9.47,7.05,11.77,12.95,6,15.44,12.23,30.83,18.4,46.22C1113.63,417.06,1115.13,420.24,1117,424.5ZM672.45,379.56l.57,1.66h111.9a9.85,9.85,0,0,0,.29-2.61c-3-14.71-6-29.4-8.89-44.11-.72-3.64-3-4.15-6.16-4.12-16,.19-32,.09-48.06.56-2.77.09-6,1.88-8.11,3.88-5.62,5.4-10.75,11.31-16,17.05Q685.19,365.7,672.45,379.56ZM767.84,327l.36-1.55c-1.06-.87-2.06-1.81-3.18-2.59q-20.43-14.3-40.9-28.54c-10.18-7.1-20.39-14.19-30.54-21.34-8.42-5.95-16.42-4.3-22,4.1-1.68,2.52-4.9,4-7.09,6.22-3.27,3.37-8,6.57-9,10.64-2.62,9.92-8.91,16.19-16.62,22-3.81,2.85-7,6.58-11.61,11.1Zm493.95-35.62c23.51,4.78,46.24,9.38,69,14.05,3.93.81,5.87-1.22,4.79-4.45a57.59,57.59,0,0,0-7.06-14.95c-3.31-4.68-8-8.35-12-12.56-5.38-5.65-4.8-10.88,1.53-15.45a17,17,0,0,0,2.41-2.87c-5.27-1.83-10.13-3.09-14.59-5.18-4.3-2-5.58-6-3-10.08,2.34-3.72,5.32-7,10.88-5,4,1.41,8.43,1.56,12.47,2.89a38.93,38.93,0,0,1,10.78,5.14c3.1,2.28,5.1,6,8.07,8.52,4,3.43,7,6.95,6.25,12.76-.18,1.26,1.4,3.91,2.25,3.94a13.55,13.55,0,0,0,6.68-1.67c.54-.29.35-3.53-.52-4.58a194.78,194.78,0,0,0-13.95-15.46c-3.62-3.51-6-6.56-1.8-11.1.56-.61.57-1.73,1.07-3.41l-74.77-13.08C1267.32,243.42,1264.6,267,1261.79,291.33ZM972.14,388.82l-.68-2.14c-1.75-.12-3.5-.34-5.24-.34q-30.65-.12-61.28-.18c-7.2,0-7.3.18-6.55,7.58.12,1.2.31,2.39.45,3.58q5.88,50.4,11.8,100.78c.33,2.8,1,5.56,1.31,7.25,11.37-12.86,22.8-25.61,33.94-38.6,1.49-1.72,2.09-4.7,2.1-7.1.06-8.81-.51-17.62-.44-26.43.05-7.08.88-13.85-9.51-14.53-2.22-.15-5.56-4.85-5.75-7.64-.15-2.36,3-5.75,5.58-7.29,3.52-2.11,8-2.63,11.78-4.33C957.22,396.07,964.65,392.37,972.14,388.82Zm373-161.11c-20.49-40.5-40.2-79.48-59.91-118.46-1.78,1.45-2.08,2.2-2.17,3-3.85,32.64-7.62,65.28-11.58,97.91-.49,4.09,1.36,5.29,4.79,5.9,13.61,2.4,27.19,5,40.81,7.35C1325.82,224.9,1334.65,226.11,1345.11,227.71ZM1262,295.18a47,47,0,0,0-1.17,4.67c-1.61,11.5-3.59,23-4.58,34.52-.61,7.2-1.45,15.15.86,21.69,4.78,13.54,11.55,26.39,17.59,39.48,2.61,5.68,5.42,11.28,8.13,16.91,2.24-1.67,3.48-3.13,3.31-4.39-1.43-10.4.16-21.78-11.64-28.38-6.37-3.56-7.62-11.32-6.23-17.59.82-3.69,5.82-7.65,9.82-9.2,9.1-3.52,18.76-5.62,28.19-8.32,17-4.87,27.17-17.63,27.26-34.91ZM711.62,331.85A23.12,23.12,0,0,0,708,331q-39.39.14-78.79.39c-1.32,0-3.37.24-3.84,1.07-3.8,6.82-10.16,12.5-9.11,21.54a226.92,226.92,0,0,1,1.4,22.72c0,4.09,2.13,4.58,5.29,4.58,13.23,0,26.46.24,39.69,0a9.65,9.65,0,0,0,6-2.91c5.74-5.87,11.14-12.07,16.71-18.11C693.78,351.11,702.32,341.91,711.62,331.85ZM871,143.69a28.16,28.16,0,0,0,3.46,1.51c29.14,5.24,58.3,10.4,87.42,15.76,4.09.75,5.25-1.55,6.54-4.44,6.26-14.08,12.61-28.11,18.85-42.2,2.38-5.38,4.54-10.85,6.81-16.27l-1.22-1.45C952.79,112.08,912.71,127.57,871,143.69Zm308.2,68.57-1.64-.72-86.17,94.83c18,4.28,33.95,7.87,49.77,12,5.43,1.4,7.78.1,9.33-5.34,8.73-30.59,17.8-61.07,26.7-91.61C1178.08,218.4,1178.56,215.3,1179.22,212.26ZM705.06,386.63a21,21,0,0,0-3.58-1c-27-.23-54.05-.49-81.07-.5-1.76,0-3.95,1.59-5.18,3.07-5.08,6.05-2.76,12.44.84,17.77,7.93,11.76,16.56,23,24.95,34.47a25.5,25.5,0,0,0,3.09,2.88ZM858.21,144.71c-1.71-2.46-2.73-4.13-4-5.64-6.41-7.94-13.11-15.67-19.23-23.83-3.13-4.17-5.39-4.55-9.63-1.3-17.62,13.52-35,27.45-53.52,39.68-11.06,7.31-10,17.31-11.43,28.91Zm-65.79,90c-4.4-2.63-8.35-4.32-11.47-7a108.48,108.48,0,0,1-14.26-14.25c-1.52-1.89-.67-5.7-.91-8.63,3.14-.22,7-1.7,9.28-.42a241.57,241.57,0,0,1,23.12,15c5.34,3.83,8.26,9.27,10.08,15.82,2,7.07,4.22,14.44,10.33,19.88l6.34-6c-7.52-8.18-7.5-13.55,1-15.77,6.85-1.8,8.72-5.77,10.05-11.43a35.17,35.17,0,0,1,3-8.48c2.2-4.13,1.3-6.29-3-8.35C818.69,196.8,801.6,188,784.3,179.69c-1.85-.89-4.7-.6-6.79.06a89.85,89.85,0,0,0-13.92,5.53c-2,1-4.18,3.24-4.59,5.26-1.18,5.87-1.37,11.92-2.21,17.87-.61,4.29,1.08,7.21,4.33,9.81,8.53,6.84,16.91,13.87,25.59,21Zm330.73-196.1-.57-2.27a39.87,39.87,0,0,0-5-1.22c-11.09-1.32-22.18-2.66-33.29-3.73a24.92,24.92,0,0,0-8.28.74c-8.48,2.09-16.89,4.46-25.33,6.75-4,1.11-8.29,1.81-12.07,3.51-19,8.49-19.78,9.45-28.22,28.6-2.36,5.37-4.65,10.78-7.41,17.19a39.28,39.28,0,0,0,4.1-1c31.72-12.23,63.51-24.28,95.09-36.88C1109.55,47.39,1116.18,42.59,1123.15,38.64Zm-77.78,136.77,74.13,13.1c-12.61-27.16-24.48-52.73-37.09-79.91Zm-334.69,211-64,59.51c6.48,6,13.31,8.13,21.69,7.08,12.95-1.61,26.79,1.27,38.36-7.57,1-.77,2.69-.64,4-1,7.12-1.79,7.58-2.73,6.58-9.92-1.84-13.27-3.44-26.58-5.18-39.88C711.86,392.35,711.35,390.09,710.68,386.38ZM886.76,630l-43.47-39.78-1.58.85v94.54a12.8,12.8,0,0,0,2.22-.93c12.23-8,20-20,27.94-31.71A6.61,6.61,0,0,0,873,648.4c-1.56-7.07,2.69-10.8,7.65-14.24ZM754.66,258.24c-20,3.87-40.33,1.72-59.77,11.3l77.48,53.88,1.45-1.23c-2.32-12.14-4.49-24.31-7.13-36.38-.35-1.6-2.82-3.24-4.65-3.91-4.61-1.7-6.62-4.83-6.75-9.56C755.17,268,754.91,263.6,754.66,258.24Zm73.67-151c-9.73-12-19-23.46-28.47-34.82a5.85,5.85,0,0,0-4.57-1.9C783.22,72.84,772.2,77,765.4,88.37c-1.63,2.71-2.44,4.79.37,7.29,10.9,9.72,21.62,19.63,32.58,29.27,1.14,1,4.08,1.57,5.13.83C811.77,119.89,819.81,113.67,828.33,107.24ZM841.94,204l18.78-56.34-72.8,28.2c0,.54.05,1.08.08,1.62Zm26.78,182.1V386c-7.21,0-14.43-.23-21.61.17-1.65.09-4.48,2.23-4.55,3.56-.46,7.78-.43,15.61-.13,23.4.06,1.3,2.16,3.53,3.46,3.64,15.75,1.3,31.52,2.28,47.29,3.37,3.18.22,4.35-1.22,4-4.31-.89-7.75-2.06-15.49-2.42-23.27-.27-5.74-3-6.87-8-6.58C880.74,386.37,874.72,386.11,868.72,386.11ZM702.27,205c18.14-7.06,34.67-13.44,51.12-20a5.38,5.38,0,0,0,2.83-3.49c1.72-11.66,3.32-23.34,4.56-35,.13-1.23-2-3.39-3.52-4-4.6-1.74-7.17.61-9.37,4.76-2,3.75-5.12,6.92-7.86,10.24-1.49,1.82-3.5,3.26-4.81,5.18-7.23,10.63-18.57,15.74-29,22.09-1.51.91-3.63,2.37-3.76,3.73C702,193.42,702.27,198.39,702.27,205ZM764,153.26l1.57.92,32.57-24.33c-9.55-8.72-18.62-16.56-27.15-24.95-6-5.88-11.55-10.35-19.5-3.3-.84.75-2.32.73-3.3,1.37-3.31,2.17-6.93,4.08-9.69,6.83-4.75,4.73-4.07,9.58,2,12.66a27.33,27.33,0,0,0,11.86,3c9.07,0,14,4.69,13.13,13.63C765,143.81,764.51,148.53,764,153.26Zm-8.58,36.33a11.38,11.38,0,0,0-2.82,0q-23.52,9-47,18.19c-1.19.46-2.93,1.7-2.95,2.62-.23,8.59-.14,17.19-.14,26.34,11.76-7.5,11.44-7.74,18.42-17,1.93-2.54,6.29-3.49,9.72-4.58,7-2.21,14.07-4,21.08-6.05a2.62,2.62,0,0,0,1.27-1.87C753.89,201.49,754.64,195.65,755.44,189.59ZM681.13,236.3c-4.39,0-8.79.15-13.17,0-3.49-.16-6.53,1-6.35,4.55.2,4,.56,9.6,3.13,11.64,8,6.34,17.46,4,26.48,1.77,1.65-.41,4-1.43,4.45-2.7a45.77,45.77,0,0,0,2.42-12.78c0-.75-4.75-2-7.4-2.34C687.55,236,684.32,236.3,681.13,236.3ZM951.55,459.4c9-4.69,23.23-34.27,21.62-43.76-6.38,1.19-12.84,2.14-19.12,3.78-1.3.34-2.72,3.18-2.77,4.91-.21,6.37.17,12.76.25,19.15C951.6,448.55,951.55,453.63,951.55,459.4Zm-253-242c-9.25.68-17.26,1.25-25.28,1.85-1.78.14-4.55-.26-5.16.69a37.53,37.53,0,0,0-4.15,9.74c-.17.59,2.17,2.74,3.39,2.77q13.78.36,27.59,0c1.23,0,3.34-1.84,3.44-3A118.66,118.66,0,0,0,698.52,217.4ZM1260,463c-5.73,6-11.62,10.54-15.3,16.46s4.54,9.58,5.4,15.11c.17,1.08,2.49,1.84,3.83,2.72.12.08.38,0,.58-.1l11.07-2.84c-10.81-12.7-11-15.22-1.59-22Zm67.22,72.24c-13.13-10.12-29.27-7.71-43.93-11.45l-.54,2.53ZM694.08,149.56l2.29-1.09c-.74-5.93,1.77-12.35-3.86-18.83-2.5,2.8-6.87,6-6.35,7.43C687.82,141.59,691.3,145.44,694.08,149.56Zm580.51,372.9c-.72-5.29-1.56-10.34-2-15.43-.16-1.72,1.35-3.93.7-5.19-.94-1.81-3.06-4-4.85-4.16-3.06-.28-3.81,2.16-2.82,5,1.85,5.27,3.47,10.64,5.57,15.81C1271.86,520.23,1273.74,521.51,1274.59,522.46Zm-474.2-289c-4.78-12.69-18.07-15.08-27.06-22.66C778.25,223.35,792.78,224.24,800.39,233.5ZM698.94,163.14c2.51,2.89,4.56,6.7,5.9,6.46a10.52,10.52,0,0,0,6.69-5.13c1.13-2.31-5.11-8.61-7.29-7.59C702.35,157.77,701.23,160.31,698.94,163.14ZM1120.75,428.3c8.41-5,12.46-18.5,8.76-29.5Zm104.65,27.42,15.32,21.5c1.69-1.56,3-2.82,4.85-4.48C1237.82,468.27,1235.94,458.14,1225.4,455.72Zm37.19,55.88,2.08-1.63a94.52,94.52,0,0,0-5.68-9.52c-.33-.44-3.12.95-6.09,1.93ZM696.53,158.89c-6.18,1.58-5.94,5.06-4.58,8.74.38,1,1.79,2.46,2.56,2.36a3.64,3.64,0,0,0,2.5-2.53A64.24,64.24,0,0,0,696.53,158.89ZM118.29,317.47c1.16,4.28,2.23,8.58,3.51,12.82.64,2.1,2.36,4.07,2.36,6.1,0,2.31-.78,5.69-2.37,6.61s-5.58.13-6.78-1.33a45.32,45.32,0,0,1-7.27-12.32c-4.25-11.2-9.36-22.23-8.82-34.7.45-10.55-7.68-16.31-13.63-23.12-2.7-3.09-3.84-5.39-3.08-9.88,1-5.78-1.07-12-.43-17.9.51-4.68,2.69-9.34,4.86-13.64,3-5.87,6.62-11.38,9.93-17.07.7-1.2.8-3,1.78-3.76,9.8-7.74,9-19.58,11.18-30a163.44,163.44,0,0,0,3.57-31.47c.18-16.1-10.77-26.88-26.62-25.75-13.32,1-26.54,3.79-39.69,6.36-2.81.55-5.44,3.24-7.64,5.46a20.64,20.64,0,0,1-20.39,5.92C13.64,138.63,8,137.74,8.7,129.72c.2-2.33-3.35-5.14-5.47-7.47-4.62-5.08-4.37-9.08,1.3-12.89a103.39,103.39,0,0,1,11.29-6.88c4.61-2.31,8.9-3.92,10.48-10.15.68-2.69,6.53-4.33,10.26-5.9,4.21-1.78,8.89-2.51,13-4.53,2.52-1.25,5.32-3.67,6.2-6.19,2.17-6.24,6.93-7.46,12.41-8.78,15.16-3.65,30.19-7.83,45.33-11.55a23,23,0,0,1,9.37-.35c17.11,3.19,34,8,51.25,9.62,12.73,1.2,25.83-2,38.79-2.55,15.06-.69,27.7-6.6,39.66-15.39,4-3,9.92-4.37,15.06-4.68,10.87-.66,21.44,1.63,31.72,5.52C311.36,52.12,316.8,59,317,71.93c6.66-1.8,10.89-6.55,15.52-10.81a202,202,0,0,1,15.36-13.31c4.08-3.06,9-3.7,13.42-.31,4.18,3.21,4.66,7.42,3.22,12.42-1.8,6.27,1.94,9.54,8.59,8-1.89-12.76,2.75-19.54,16.07-22.5a81.05,81.05,0,0,1,36.95.18,26.07,26.07,0,0,1,6.17,2.31c7.51,4,15,8.15,22.4,12.3,5.38,3,5.85,5.28,2.68,13.52,2.2,1.17,4.53,2.24,6.69,3.59,5.85,3.66,5.94,8.89-.28,11.93-5.11,2.5-10.78,3.84-16.82,5.89-.07.76-.23,2.32-.37,3.88-.75,8-6.95,13.61-14.75,12.19-8.75-1.59-18-2.37-24.75-9.59-1.41-1.5-4.46-1.32-6.55-2.35a81.43,81.43,0,0,1-7.1-4.36c1.61-2.27,3.09-4.65,4.89-6.75.83-1,2.28-1.43,3.85-2.36-1.93-4.16-5.23-4.94-8.94-4.63a14.86,14.86,0,0,0-13.06,13.37c-.37,4.38-3.23,6.58-7.08,6.9-5.56.46-11.38,1.17-16.71,0a34.14,34.14,0,0,0-22.72,2.86c-8.14,3.89-16.28,7.78-24.36,11.76-5.08,2.51-7.69,6.63-6.12,12.26a8.64,8.64,0,0,0,4.39,4.94c9.17,4,18.66,7.19,27.74,11.33,2.66,1.22,4.34,4.58,6.92,7.48,6.8-4.8,14.62-10,22-15.79,1.51-1.19,2.25-4.78,1.71-6.84-1.11-4.21.22-6.78,3.23-9.44a35.82,35.82,0,0,0,6.6-7.67,22.15,22.15,0,0,1,30.64-6.65c8.58,5.66,8.92,6.17,11.13,17.63,3.35-2.28,6.3-4.38,9.35-6.34,7.25-4.68,10.13-3.62,12.18,4.8a97.88,97.88,0,0,1,2.39,14.13c.44,4.77,2.26,8.23,6.37,10.88,8,5.14,9.49,7.8,6.6,16.41s1,15.24,3.5,22.52c1.32,3.81,4.8,7.62.78,11.6s-8,1.35-12.17-.27c-3.88-1.52-8.21-1.87-12.12-3.32-3.15-1.17-6-3.21-8.94-4.87,1.7-2.71,3.31-5.49,5.15-8.11.87-1.23,2.19-2.16,4.67-4.52l-31.53,3.33c-.36,5.63-.66,10.31-1,16.06a75.52,75.52,0,0,0,8.3-1.48c4-1.16,7.37-.54,8.93,3.58s-.14,7.51-4.26,9.27c-7.51,3.22-15,6.69-22.71,9.2-3,1-6.76-.38-10.16-.72-2.49-.25-5.22-1.34-7.41-.67a37.71,37.71,0,0,0-9.49,5.09c-1.3.88-3,2.86-2.77,4.06.9,5.59-2.42,8-6.74,9-13,3-21.31,12.27-29.67,21.44a14.17,14.17,0,0,0-3.22,8,10.61,10.61,0,0,1-6.14,9.49c-6.18,3.32-12.16,7-18.32,10.38-12,6.53-16,14.25-13.39,29.59.92,5.31,1.47,10.28-2.06,14.91s-9.12,4.73-11.41-.73a70.79,70.79,0,0,1-4.29-16.59c-.61-4.06-.9-7.09-6.23-6.33-1.54.21-3.43-.93-4.93-1.83-5.63-3.34-10.31-3.15-14.34,1.69s-9.11,6.05-15.07,5.06a55.13,55.13,0,0,0-9-.94,24.9,24.9,0,0,0-24.15,17c-1.23,3.39-2.22,6.93-3.93,10.08-5.94,11-1.23,20.06,4.69,29a6.88,6.88,0,0,0,3.15,2.6c5.23,1.89,16.68-4.47,18.94-9.77a12,12,0,0,1,5.16-5.32,15.66,15.66,0,0,1,8.07-2c3.95.28,7.81,1.68,11.71,2.61-.86,3.47-1.62,7-2.64,10.39-.5,1.71-1.55,3.25-2.2,4.92-1.86,4.8-3.65,9.62-5.79,15.29a50.24,50.24,0,0,1,6.65-.5c4,.27,8.09.25,11.83,1.39,6.83,2.06,9,7.81,7.26,14.64a65.34,65.34,0,0,0-2.39,17.64c.2,6.69,3.29,8.24,9.89,8a64.19,64.19,0,0,1,14.85,1.15c4.34.88,6.8-.63,10-3.34a91.69,91.69,0,0,1,18.26-12c2.35-1.16,6.32.92,10,1.61,6.25-6,5.87-5.47,13.59.21,6.67,4.92,14.49,7.18,22.92,3.72,4.84-2,8.89-1.65,12.87,2.74s9.31,7.88,13.95,11.85c1.95,1.67,4.45,3.27,5.4,5.47,3.11,7.15,9.31,8.7,15.92,10.16A97.65,97.65,0,0,1,416.78,449c5.71,2.23,9.27,6.42,10.94,12.62,1.57,5.79,6.16,10.52,5.69,17.27-.09,1.29,4.43,4.13,6.84,4.14,9.25,0,16.6,3.57,23.09,9.9,1.54,1.5,4.25,1.93,6.51,2.53,6.17,1.67,12.47,2.93,18.56,4.85a15,15,0,0,1,7,4.42c3.06,3.81,6.52,5.67,11.38,6.72,9.28,2,14.56,20.65,8.75,28.54-5.45,7.42-10.93,14.84-15.76,22.65a18,18,0,0,0-2.64,10.6c2,17.31-4.69,32.71-10.44,48.18-1.19,3.22-6.56,5.19-10.32,7.09-6.91,3.49-14.23,6.18-21,9.89-1.9,1-3.94,4.84-3.45,6.72,3.15,12-4.16,20.22-9.55,29.23-2.76,4.6-6,9.1-7.74,14.09-2.6,7.3-6,12.65-14.75,12.25-1,0-2.09.8-3.12,1.22,4.9,15.32,4,18.07-11.23,23.75-7.9,2.94-10.16,9-11.73,15.72-1.29,5.48-1.17,11.29-2.31,16.82-.52,2.52-2.56,4.72-4.11,7.41-.07-.19-.05.3.2.52,10,8.55,10.08,8.59,4.61,20.94-2.89,6.54-.79,12.12,3.82,16.33s10.17,6.87,15.15,10.47a74.36,74.36,0,0,1,6.65,6.06c-2.74,1.67-5.35,4.5-8.24,4.82-12.41,1.37-23.67-3-34.45-8.56-12-6.25-20.11-16.29-26.84-27.69a18.33,18.33,0,0,1-1.81-15.56c2.85-9.32-.84-16.75-5.35-25.11-5.41-10-7.43-21.86-10.92-32.92,5.34-9.3,2.27-19.19,1.77-28.82-.27-5.31-2.59-10.5-2.9-15.81-.82-14.16-1.07-28.35-1.5-42.53-.07-2.2.05-4.41.18-6.61.73-12-3-22.35-14.11-27.68-18.46-8.83-28.14-24.68-36.86-41.89-5.4-10.65-11.87-20.75-17.81-31.13-3.33-5.82-2.15-11.25,1.95-16.13,1.9-2.26,2.39-3.82.74-6.79-1.35-2.43-2-6.69-.77-8.88,4.5-7.9,9.94-15.26,15-22.83,1.09-1.62,3.18-3.31,3.08-4.84a183.25,183.25,0,0,0-2.57-21.29c-.71-3.74-3.67-4.6-6.9-2.28-7.13,5.12-14,2.1-19.41-2.14-7.42-5.86-14.53-12.3-17.8-22.13-1.13-3.42-6-5.93-9.55-8.16-6.87-4.28-14-8.14-21.14-12-2.17-1.17-4.83-2.78-7-2.42-15,2.5-26.83-4.72-38.47-12.25a98.8,98.8,0,0,1-15-12c-2-2-3.86-5.75-3.45-8.34,1.63-10.18-2.35-18.37-7.53-26.44-3.19-5-6.11-10.1-9.16-15.16Zm158.48,4.83,2.76-.37c0-2.71.37-5.47-.06-8.11-1.5-9.15-1.79-18.38,3.94-26,3.45-4.58,3.9-8.26,1.71-13.05a24,24,0,0,1-1.84-6.33c-.62-4.13-2.83-5.44-6.95-5.6q-52.86-2.07-105.69-4.59c-5.41-.26-7,1.48-6.86,6.71.45,15,.25,30.06.78,45.07.6,17.26-2.62,13.17,14.68,17.93,5.14,1.41,7-.41,9-4.76,2.34-5.15,4.69-11.14,8.88-14.44,8.65-6.83,18.79-10.44,30.38-7.3,2.55.69,6.59.37,8.34-1.23,7.83-7.17,15.62-11.38,25.44-3.75a2.76,2.76,0,0,0,1.14.33c10.93,2.27,11.09,2.73,11.69,14C274.29,314.7,275.83,318.49,276.77,322.3ZM396,188.62c-11.15-2.75-22-5.45-32.84-8.11-19-4.66-38-9.43-57.15-13.79a8.13,8.13,0,0,0-6.81,2.46c-4.6,6-8.53,12.58-12.71,18.93-4.89,7.45-9.79,14.89-15.07,22.92,2.72.95,4.55,1.61,6.41,2.23,14.62,4.85,29.36,9.4,43.84,14.65,9.3,3.37,18.08,7.15,27.84,1.14,3.21-2,6.86-2.32,6.86-7.5,0-2,2.58-4.53,4.62-5.84a135.27,135.27,0,0,1,14.71-8.07c5.14-2.49,10.11-3.07,13.16,4.13l16.58-8.28C395.38,199.67,394.44,198.18,396,188.62ZM313,141.9c-2.74-.82-4.55-1.51-6.41-1.89-5.57-1.15-9.18-4.42-9.58-10.07s-3.53-7-8.63-7.51c-15.54-1.42-31-3.4-46.56-5-9.23-.94-18.49-1.52-29.4-2.39,19.34,31.77,37.76,62,56.57,92.9ZM158.25,173.56A22.63,22.63,0,0,0,159,170c-.32-18.83-.73-37.66-1-56.49-.05-3.95-2.4-4.5-5.44-4.76-10.18-.89-20.34-1.92-30.51-2.77q-42.49-3.54-85-6.91a9.63,9.63,0,0,0-5.1.9c-3.81,2.07-7.38,4.55-11.09,6.82-4.7,2.87-9.44,5.7-14.3,8.62,3.56,5,7.42,8.79,9.23,13.41,1.49,3.83,3.83,5.69,6.87,5,4.45-1,8.67-3.21,12.8-5.27,4.57-2.27,8.65-6.1,13.42-7.22a284.09,284.09,0,0,1,33.69-5.7c11.19-1.24,21.27,1.26,29,10.74,6.85,8.4,8.41,17.83,8.31,28.11,0,2.39,1.08,6.36,2.67,7C134.13,165.79,145.92,169.46,158.25,173.56Zm3.63-104.94c0,12.36-.09,23.7.17,35,0,1,2.38,2.52,3.78,2.67,23.51,2.5,47,4.75,70.56,7.23,3.82.41,5.91-1.2,7.78-4.18,6.28-10,12.72-19.93,19.07-29.9,6.19-9.72,12.34-19.46,19.19-30.25-10.78-.34-20.05-3.11-29.06,4.13-9.71,7.8-20.74,14.09-33.78,14.24C200.53,67.81,181.75,76.28,161.88,68.62ZM104.6,284.52c-.14,0,.32.14.64,0,17.11-8.75,34.27-17.43,51.24-26.46,1.78-1,3.3-4,3.42-6.14.38-7-.13-14,.07-21,.11-3.79-1.32-5.83-4.8-7.22-12.84-5.11-25.55-10.53-38.37-15.67-7.2-2.89-10.86-1.12-14.07,6-1.88,4.17-3.22,9-6.24,12.18-9.62,10.07-8.87,22-7.6,34.26a2.36,2.36,0,0,0,0,.6c1.27,3.23,2,6.85,3.94,9.59C96.3,275.45,100.49,279.73,104.6,284.52ZM390,183.31l-.5-2.32c1.94-2.15,3.55-4.84,5.91-6.26,1.87-1.13,4.68-.93,7.07-.9,4.78.07,6.66-2.2,7.09-6.86.92-10,2.88-19.88,3.21-29.85.22-6.54-1.57-13.16-2.66-19.71-.17-1-1.36-1.94-2.23-2.75-9.45-8.89-20.91-7.71-28.09,2.9-3.37,5-9.17,8.74-7.08,16.38.45,1.63-1.57,4.72-3.29,6.06-8.94,6.93-18,13.76-27.33,20.11-4.19,2.85-7.76,1-7.88-4-.12-5.26-2.92-6.85-7.12-8-2.51-.66-4.86-1.91-7.37-2.54-1.41-.35-3.8-.59-4.37.17-3.86,5.1-7.35,10.48-11.47,16.53ZM162.43,175l100.33,33.25,1-1.76-54.39-89.36ZM296.59,574c8,5.48,14.33,10.21,21,14.39,11.89,7.41,16.79,18.31,16.75,31.87,0,2.8-.33,5.6-.35,8.4,0,7.29,0,14.58,0,19.57l63.39-59.81c-7.44-2.73-13.2-4.81-18.92-6.95-19.68-7.38-39.31-14.85-59.05-22.05-2.09-.76-5.49-.83-7.05.38C307.19,563.79,302.56,568.52,296.59,574ZM163.65,252.52l96.44-39.58-.12-1.73-96.32-31.9ZM33.6,93.66c1.36,1.07,1.64,1.48,2,1.51q59,4.89,117.93,9.76c3.67.31,4.49-1.37,4.43-4.55-.2-9.21-.37-18.42-.3-27.63,0-4.08-1.76-5.54-5.64-6.08-8.5-1.2-16.91-3.18-25.43-4.19a47.16,47.16,0,0,0-15.19.33c-14,3-28,6.71-41.87,10.35-2.53.66-5.95,1.75-7,3.69C57.45,86.62,49,90.52,38.83,92.2,37.35,92.45,35.91,93,33.6,93.66Zm368,444.81c.39-2.14.68-3.08.73-4q1.74-38.08,3.39-76.19c.12-3,1.36-7.11-3.53-7.5-4.44-.35-9.23-4.42-13.15,2.28-6.87,11.73-14.64,22.94-22,34.4-7.86,12.27-15.66,24.58-24,37.66Zm6.19,0c2.83.42,4,.71,5.12.75q43.8,1.62,87.62,3.18c5.26.19,10.86-5,11.26-10.27.51-6.65-4-13.85-9.08-15.09-2.81-.68-6.67-1.39-7.91-3.4-5.49-8.95-14.72-9.89-23.39-11.55-5.91-1.12-11.21-2.41-15.29-7.19-2.71-3.17-5.55-3.12-8.49.3-4.57,5.31-9.47,10.33-14.22,15.48Zm94.88,7.77-96.49-3.79c-.79,14-1.52,26.63-2.25,39.49a70.21,70.21,0,0,0,7.09,0c23.07-2.72,46.12-5.79,69.23-8.08,6.9-.68,11.35-2,11.53-10,0-2.09,2.23-4.15,3.51-6.18C497.42,554.32,499.59,551,502.69,546.21Zm-98.62,40a15.3,15.3,0,0,0,1.4,2.71c13.77,13.72,27.61,27.37,41.31,41.15,3,3.05,5.57,2.41,9,.66,6-3,12.43-5.17,18.52-8,2.75-1.29,6.64-2.93,7.39-5.25,3.66-11.36,6.61-23,9.45-34.58,1.26-5.17-1.55-6.56-6.48-5.93-18.08,2.32-36.2,4.42-54.31,6.52C421.88,584.4,413.37,585.2,404.07,586.17Zm-67-64.85,1.79-.44c.78-32.54,1.55-65.07,2.33-97.76-1.19.17-1.68.09-1.94.3q-26.33,20.94-52.63,41.92c-3.24,2.57-1.89,4.57.43,6.83,7.76,7.54,15.4,15.19,23.12,22.78Q323.59,508.15,337.06,521.32ZM398,667c0-4.81-.32-9.64.08-14.41.44-5.25-1.39-6.92-6.5-5.74-17.95,4.15-35.94,8.12-53.86,12.35-1.36.31-3.55,2.48-3.34,3.21,2.66,9.24.59,20.38,11.07,26.57,4.43,2.61,8.12,6.5,12.16,9.78,14.14,11.48,9.56,9.74,23,.6C392.33,691.33,400.89,682.48,398,667ZM266.33,81.27h8.14c29.85,0,59.77-1.12,89.53.5,13.27.73,23.52-8.81,36.34-6.8.3,0,.73-.32,1-.6q11.06-10.83,22.09-21.69c-.29-.59-.57-1.18-.86-1.78-12.9-1.92-25.78-3-38.21,3.07-4.51,2.21-7.07,5.13-5.26,11,1.91,6.23-1.22,9.81-7.41,10.1-9.12.42-15.47-7-13.85-15.88.38-2.1-.33-4.4-.53-6.61-2.38.34-5.35-.11-7,1.16-5,3.85-9.36,8.66-14.38,12.56a132.29,132.29,0,0,1-17.7,12c-2,1.11-6.54.39-8.11-1.23-1.42-1.47-.38-5.32-.4-8.12,0-2,.8-4.59-.11-6.06-4.84-7.79-13.24-9.84-21.32-12.16a3.63,3.63,0,0,0-3,1.41C279.23,61.28,273.3,70.51,266.33,81.27Zm107,4.2a12.37,12.37,0,0,0-2.75-.62q-51.35-.06-102.7.05a6.9,6.9,0,0,0-5,2.33C257.5,95,252.54,103,247.57,111c-.53.85-.34,2.15-.51,3.49,11.5,1.35,22.59,2.78,33.71,3.94,8.58.89,17.66,3.13,23.42-6.48a4.51,4.51,0,0,1,2-1.29c9.78-4.59,19.52-9.27,29.37-13.71,6.34-2.85,12.89-3.85,19.86-1.86,3,.85,6.35.58,9.54.54C374.16,95.49,374.16,95.44,373.29,85.47ZM159.93,260.59c-18.36,9.52-35.43,18.31-52.41,27.28a5.11,5.11,0,0,0-2.36,3.69c0,9.24,1,18.32,5.51,27.06.52-.85.76-1.35,1.1-1.78,2-2.46,3.91-6.89,5.88-6.9,3.15,0,6.77,2.42,9.33,4.76,2.41,2.21,3.76,5.62,5.51,8.54,6.07,10.2,6.06,10.21,16.82,6,2.24-.88,4.39-2,6.68-2.72,4.14-1.3,5.33-4,5.22-8.21-.41-15.43-.53-30.87-.79-46.3C160.36,268.63,160.14,265.3,159.93,260.59ZM330.79,535.26c1.62-1.48,4.41-3.22,5.85-5.75.63-1.1-1.08-4.25-2.51-5.68-16.7-16.7-33.61-33.18-50.3-49.88-3.42-3.42-5.45-3.07-7.71,1-1.73,3.11-4.09,5.87-5.95,8.91-2.14,3.48-5.71,7-2.42,11.35,3.56,4.7,2.09,8-1.08,12.24-1.83,2.43-3.26,7-2.18,9.44,3,6.57,7.43,12.15,16.19,11.58,3.51-.23,7.12.89,10.69,1.38ZM266.24,214.41l-94,38.53.3,1.88L280.17,259Zm76.44,301.84c.88-.06,1.17,0,1.23-.1q21.39-32.92,42.64-65.93a5.65,5.65,0,0,0-.07-4.82c-6.08-11.13-17.64-16.6-26.37-25-.58-.56-2.29-.31-3.32,0-3.69,1.25-7.31,2.7-11.7,4.35C344.29,454.9,343.49,485.54,342.68,516.25Zm91.64,158.4c2-3.11,4.57-7.32,7.41-11.34,3.85-5.48,6.3-11,3.6-17.89-.7-1.8.54-4.27.38-6.39s-.23-5.09-1.58-6.48c-9.57-9.93-19.45-19.56-29.27-29.25-3.16-3.12-6.43-6.13-10-9.48a11.37,11.37,0,0,0-1,2.51c-.58,15.18-1.16,30.37-1.59,45.56a6.37,6.37,0,0,0,1.37,4.41C413.5,655.6,423.53,664.73,434.32,674.65ZM290.66,279.83c8.63-4.86,16.47-9.15,24.15-13.73,1.1-.66,1.36-2.69,2.05-4.08,2.23-4.53,3.85-9.55,6.9-13.46s7.6-6.86,11.48-10.23c-.3-.78-.6-1.55-.91-2.33L270.2,214.65C277.3,237.3,283.86,258.17,290.66,279.83ZM396.46,693.4l-1.64-.77c-7.41,5.76-14.94,11.39-22.13,17.42-1.38,1.15-2,3.9-2,5.91q.38,43.29,1.14,86.57c0,1.94,1,4.61,2.45,5.65,8.58,6.14,18.35,9.2,29.62,10.49-4.45-3.81-8.44-6.81-11.92-10.32-6-6-10.58-15-5-24.36,3.36-5.62,2.41-9.25-3.19-12.83s-5.19-7.45-.42-12.2c1.05-1,1.48-2.9,1.77-4.45,1.29-6.86.58-14.88,4-20.38C397.24,721.05,394.88,707.06,396.46,693.4ZM159.23,221.34c0-14.23.09-27.42-.13-40.6,0-1.33-1.72-3.34-3.07-3.82-11.13-3.95-22.33-7.75-33.62-11.21-1.29-.4-4.57,1.28-4.78,2.4q-2.82,15-4.66,30.22a6.21,6.21,0,0,0,2.87,5C130,209.46,144.24,215.2,159.23,221.34Zm240.4,369.22L336.44,655a30.89,30.89,0,0,0,4.37,0c17.94-4.07,35.89-8,53.74-12.46,1.7-.42,3.76-3.46,3.91-5.42.73-9,.92-18,1.15-27C399.75,604.23,399.63,598.32,399.63,590.56Zm9.86-136.95c-1,26.71-1.94,52.68-2.9,78.65l1.49.49L446.59,491l-1-1.63c-2.35,0-4.72.16-7.05,0-5.47-.46-9.52-3.3-11.44-8.38a126.09,126.09,0,0,1-5.25-16.83C420.39,457.68,416.53,454.65,409.49,453.61ZM162.1,165.87l2.44.77c13.85-17.15,27.7-34.29,42.3-52.38-14.14-1.5-26.29-2.68-38.4-4.14-4.89-.58-6.94.77-6.64,6,.43,7.79.26,15.62.29,23.43C162.12,148.35,162.1,157.11,162.1,165.87Zm291.28,26.72a10.32,10.32,0,0,0-.36-2.54c-4.35-9.78-8-19.55-4.19-30.59.57-1.62-1.25-5.34-2.95-6.25-8.17-4.4-10.41-11.44-10.79-20-.17-3.74-1.7-7.43-2.9-12.31-8.08,6.06-16.59,8.88-16.13,20.24.33,7.89-1.7,15.86-2.57,23.81-.22,2,0,4.13,0,7.12,8.54-1.08,16-2.25,23.54-2.85,2.49-.19,5.1,1.09,7.65,1.7-.8,2.86-1,6.15-2.58,8.49-1.77,2.6-4.81,4.35-7.94,7ZM367.1,714.51l-19.34,15.21c-7,5.52-7.26,8.5-1.4,15.06,6.76,7.57,8.69,16.75,7,26.3-1.95,11.28,3.66,24.91,13.7,30.61Zm22.26-133L341.87,531.8l-23.72,23Zm9.46.68,1.59-.4c.54-12.13,1.23-24.25,1.45-36.38,0-1.34-2.4-3.56-4-4-14.95-3.65-30-7-45-10.37a16.67,16.67,0,0,0-3.4-.3ZM399,721.32c2.5-.87,3.82-1.24,5.06-1.79,2.2-1,5-1.51,6.36-3.19s2.67-5.05,2-7c-4.12-12.72-4.3-12.67,9-15.15l.6-.09c5.66-.85,6.4-5.8,7.29-9.87a10.18,10.18,0,0,0-2-7.72c-5.48-6.37-11.64-12.15-17.32-18.36-2.1-2.29-3.6-5.13-5.37-7.72l-2.81,1.83C400.87,674.93,400,697.62,399,721.32ZM281,431.18c2.09,9.57,4.1,18.73,6.31,28.83l48.21-38.67L324.83,414c-5.59,4.77-5.59,4.75-13.7,1.47a3.24,3.24,0,0,0-2.26-.28c-4.36,2.35-9.6,4-12.73,7.49C291.67,427.72,287.58,432.13,281,431.18ZM165.4,328.53c0,12.43-.06,23.8.11,35.16,0,.93,1.39,2.28,2.43,2.69,16.2,6.38,32.42,12.73,48.75,18.76,1.89.7,6.2-.08,6.46-1,.93-3.31,4.7-6.55,0-10.63-5.06-4.37-9.53-5.28-15.74-2.84-9,3.54-13.42,2.18-17.8-4.44-6.44-9.74-11.58-19.82-6.18-31.91.12-.26-.23-.72-.63-1.83ZM293.71,569.61l33-31.21-50.91-6.88-1.32,1.69C281,545.6,287.59,558,293.71,569.61Zm110.2-475.3c9.61,3.79,18,7.52,26.71,10.39,5.2,1.71,9.83-1.55,10.1-6.35.34-6,.32-11.72-6.12-15.37-3.76-2.13-6.8-5.53-10.14-8.38-10.45-8.94-10.84-8.91-19.54,1.93a2,2,0,0,0-.21.56C410.2,85.4,410.26,86.88,403.91,94.31Zm56.35-11.5c-3.07-1.91-7.21-3.11-8.63-5.77s-.33-6.92-.33-10.18c-6.67-4.08-13.51-8.38-20.51-12.4a4.64,4.64,0,0,0-4.23.3c-3.12,2.65-5.88,5.72-9.28,9.14,8.48,7.12,16.21,13.7,24,20.17C447.59,89.27,453.32,88.94,460.26,82.81ZM161.12,328.42C154.84,331,149.88,333,144.9,335c-3,1.2-3.68,2.9-2.39,6.1a24.56,24.56,0,0,1,1.51,8.75c.15,10.33,6.51,19.13,17.1,22.89Zm181.2,400.91,23.86-19-26.39-21.25-1.36,1a58.59,58.59,0,0,1,.65,6.32c0,4.34,1.19,9.41-.62,12.86C334.37,717.09,338.4,722.43,342.32,729.33Zm-176-359.79-1.48.89c.85,2.57,1,6.79,2.66,7.42,7.14,2.81,14.65,6.11,22.1,6.3s13.7,0,18.69,6.4c2.29,2.94,5.36,3.34,8.07-1.3ZM268.1,429.63a37,37,0,0,0-5,0c-5.41.84-9.63-1-11.73-6a41.8,41.8,0,0,1-2.94-11.36c-.45-4.25-2-6.58-6.39-6.64-2.35,10.83,2.53,20.26,13.64,25.92C259.7,433.62,264.2,435.33,268.1,429.63ZM235.29,355c-10.41.07-12.52,1.36-13.79,9.57-.29,1.84,2.33,4.34,4,6.14.44.46,3.26-.2,3.63-1C231.35,365.09,233.13,360.3,235.29,355Zm14.34,48.57c.29-4.93,1.58-9.34.35-12.88-.65-1.89-5.63-2.29-8.92-3.46C239.69,398.4,240.36,399.77,249.63,403.54Zm-13.8.69,1-1.15c-3.86-4.93-9.46-7.73-15.07-10.26-1.05-.47-3.22,1.53-5.34,2.63Zm-9.75-15.87c-.2.49-.41,1-.62,1.48L236,396.7v-8.34ZM1513,644.75c1.66,18.09-9.23,29.68-20.34,41.27-8,8.36-15.33,17.43-23.64,25.46-10.08,9.74-21.25,17.78-36.7,14.15a20.08,20.08,0,0,0-4.17-.52c-10.09-.23-16.61-5.42-21.33-14.13-2.5-4.62-6.61-8.34-9.76-12.64-1.86-2.53-3.83-5.22-4.73-8.15-1.36-4.47-4-7-8.46-7.29s-9.44-1-13.66.21c-9,2.63-17.51,6.73-26.42,9.6-6.78,2.19-13.88,3.36-20.81,5.09-4.78,1.19-9.45,2.89-14.27,3.79-4.17.78-8.74,1.82-12.67.85-5.78-1.44-7.49-6.72-4.55-12,4-7.07,4.86-14.19,4.35-22.41-.71-11.69.58-23.56,1.69-35.28,1-10.74,8.63-16.18,17.92-19.79,8.58-3.33,17.11-6.76,25.73-10,10.12-3.8,15.26-12.35,20.75-20.8a61.29,61.29,0,0,1,10-11.78c4.25-3.87,9.46-4.73,15.17-2.69,7.11,2.55,9.07,1,13.21-5.06,3.42-5,8.17-9.17,12.85-13.11,1.13-1,4.32.26,6.47.83a103.74,103.74,0,0,1,12.79,3.89c2.11.85,4.89,2.64,5.29,4.47.58,2.64-.16,6-1.32,8.54-3.82,8.53,1.65,18,11,17.48,2.84-.17,6.75-3.32,7.93-6.07,2.74-6.34,3.66-13.45,6.21-19.89,1.34-3.39,4.56-6,6.93-9,2.42,2.29,6,4.14,7,6.94,4.43,12.16,8.1,24.59,12.08,36.91a21.85,21.85,0,0,0,1.73,4.41c4.73,8.07,9.55,16.1,14.34,24.14,1.13,1.89,1.86,4.3,3.49,5.55C1513,632.3,1513.89,638.3,1513,644.75Zm-30.34-43.56c-14.79,16.38-29.55,32.65-44.1,49.12-.76.86-.25,4,.75,5.06q16.65,17.76,33.76,35.08c.91.92,4,1.21,4.81.45,7.79-7.76,15.68-15.47,22.76-23.85,5.65-6.68,6.32-15.23,6.9-23.8.42-6.23-3.68-9.31-6.64-13.43-1.61-2.26-2.55-5-3.95-7.4C1492.8,615.26,1490.82,606.67,1482.63,601.19Zm-179.46,46.29c33.46-8.59,66.42-17,99.36-25.55,1.48-.38,3.43-1.1,4.06-2.26,4.64-8.54,9-17.24,13.9-26.75-3.45-.68-5.53-1.26-7.63-1.47-13.76-1.4-27.54-2.54-41.27-4.17-3.78-.45-6.12.43-7.88,3.66-5.26,9.61-13.76,15.43-23.57,19.49-7.38,3.06-14.83,6-22.42,8.45C1305.44,622.86,1301.24,632.1,1303.17,647.48ZM1403.67,626c-3.62.69-6.15,1-8.6,1.65-28.85,7.41-57.67,15-86.55,22.22-4.74,1.19-7.65,2.83-7,8.34s-1.78,12.15,6.92,14.29c11.45,2.82,22.64,6.66,34,9.66a20.35,20.35,0,0,0,9.24-.21q12.54-2.79,24.88-6.41c1.78-.53,3.56-2.44,4.5-4.16,4-7.38,7.77-14.9,11.5-22.43C1396.2,641.7,1399.65,634.37,1403.67,626Zm31.39,22.17c-1,.5-.36.37,0,0,14.7-16.16,29.44-32.28,44-48.61a8.11,8.11,0,0,0,1.64-6.51c-3.3-11.21-7.08-22.27-10.74-33.36-.07-.21-.64-.24-1-.37-2.31,6.79-4.66,13.53-6.91,20.31-3.65,11-13.5,14.68-23.38,8.68-2.82-1.72-5.59-3.52-8.88-5.61-6.74,13.39-13.19,26-19.38,38.8a5.19,5.19,0,0,0,.87,4.71C1418.88,633.51,1426.76,640.58,1435.06,648.18Zm-51.82,27.27c6.72,3,12.22,6.79,18.23,7.94,15.88,3.05,32,5,48,7.3,6.17.88,12.4,1.43,18.6,2.13l.64-1.54-61.49-63.73Zm89,21.86L1399.08,687c-.31.53-.61,1.06-.92,1.58a57.33,57.33,0,0,0,3.21,5.13c3.61,4.71,7.89,9,10.91,14.06,5.09,8.54,22.34,15.69,31.74,12.13C1455.25,715.63,1465.22,709.57,1472.27,697.31ZM1414.53,556c-3,3.43-6.7,6.83-9.32,10.94-4.35,6.8-10.63,9.67-18.33,7.35-8-2.42-12.93-.13-16.66,8a8.91,8.91,0,0,0,2.55,1.19c15.48,1.72,31,3.48,46.47,4.89,1.57.14,4.34-1.57,4.84-3,2.68-7.75,4.81-15.69,7.08-23.38Zm-73.09,131.53c-1.87-1.53-2.37-2.24-3-2.44-10.51-3.16-21-6.39-31.63-9.2-1.07-.29-3.47,1.68-4.14,3.11a83.43,83.43,0,0,0-3.92,11.27,47.08,47.08,0,0,0-1,6c2.27.16,5.13,1.29,6.69.32,7.91-4.89,16.79-4.58,25.44-5.74C1333.39,690.37,1336.82,688.9,1341.44,687.55ZM619.64,0C631.82,2,644,4.08,656.18,5.78c6.92,1,14,.92,20.88,2,2.31.35,4.31,2.7,6.45,4.13-2,1.59-3.88,3.71-6.2,4.67-6,2.51-12.36,4.37-18.46,6.77-4.92,1.93-7,5.82-6.25,11,1,7.19-1.82,12-8.61,14.57-5.07,1.94-8.07,5.75-9.23,11-1.41,6.36-5.53,10.07-11.64,11.66-11,2.86-22.07,5.58-33.1,8.36a26.08,26.08,0,0,0-4,1.11c-10.61,4.55-21.8,8.15-31.57,14.09-7.08,4.3-12.29,11.69-18.26,17.78-1.39,1.42-2.42,3.19-3.69,4.73-5.66,6.88-8.6,7.52-16.56,3.68a4.82,4.82,0,0,0-1.08-.51C497.77,117,496.7,103,494.76,89.51c-1-6.76,2.11-12.05,6.81-16.54,2-1.92,2.68-3.37,1.62-6.62s-.45-7.83.74-11.38c3.56-10.61,1-14.3-10.12-15a91,91,0,0,1-19.95-3.41c-2.63-.76-4.42-4.37-6.59-6.68,2.33-2.11,4.48-5.78,7-6.07,11.64-1.32,21.43-7.23,32.07-11.08,11.49-4.15,24-6.27,36.28-7.26,25.52-2.06,51.16-2.8,76.74-4.08C619.47,1,619.55.47,619.64,0ZM514.47,112.52c8.1,6.38,9.47,6.06,15.08-1A239.18,239.18,0,0,1,545.26,93.4c2.24-2.29,5.66-3.55,8.7-4.91,8.89-4,17.86-7.78,26.81-11.63a42.37,42.37,0,0,1,6.12-2.39c12.53-3.19,12.54-3.15,13.15-15.89a24.64,24.64,0,0,1,.15-3c.78-4.34-1.25-5.62-5.32-5.6-11,.06-22,.19-33-.4-5.69-.3-8.91,2-11.59,6.54-3.37,5.67-7,11.16-10.57,16.73Zm14.68-98.9c8.26,11,15.63,20.93,23.21,30.7.81,1,2.83,1.62,4.31,1.65,13.42.23,26.84.27,40.26.45,3.3,0,4.59-1.43,4.78-4.65.56-9.4,1.19-18.8,2-28.17.4-4.37-1.22-5.57-5.46-5.28-18.77,1.27-37.57,2.24-56.35,3.45C538.06,12,534.21,12.87,529.15,13.62Zm133.1.31c-16.07-5.7-32.28-6.88-48.73-6.2-3.16.13-5.53.67-5.83,4.41-.81,10-1.85,19.92-2.33,29.9-.07,1.44,2.41,4.21,3.84,4.3a214.92,214.92,0,0,0,23.4.34c8.67-.39,13.76-6,13.5-14.24a13.54,13.54,0,0,1,6.15-12.28C655.34,18,658.65,16.15,662.25,13.93ZM550.39,49.41c-12.88,0-24-.22-35.08.11-3.87.12-8.54,11.74-6,14.64,3.58,4.15,3.05,7.6-1,10.73-7.81,6.06-8.45,14-6.11,22.7a55.47,55.47,0,0,0,3.11,8.44,48.81,48.81,0,0,0,3.26,5.31c1.69-1.47,3.8-2.65,5-4.45,7-10.5,13.72-21.14,20.52-31.76C539.18,67.12,544.26,59.07,550.39,49.41Zm-1.68-3.83c-8.31-10.82-15.6-20.46-23.11-29.93a4.91,4.91,0,0,0-4.28-1.18c-5.88,1.81-11.67,4-17.45,6.11-6.64,2.47-13.21,5.17-19.88,7.58a52,52,0,0,1-7.07,1.52l.06,1.6c2.41.67,4.77,1.68,7.22,1.95a118.09,118.09,0,0,0,13.17.73c6.24,0,10.74,2.37,13.24,8.34.54,1.3,2,3.12,3.13,3.14C524.83,45.67,535.92,45.58,548.71,45.58Zm82.15,4.69c-8.23,0-15.79-.12-23.33.13a4.39,4.39,0,0,0-3.12,2.86c-.73,5.62-1,11.29-1.45,17C619.93,69.37,627.53,64,630.86,50.27Zm787.33,430.56c7,1.09,11.39,4.48,14.44,9.48,2.27,3.73,5,4.34,8.53,2.5,9.19-4.76,17.64-3.82,26.67,1.37,11.92,6.85,24.54,12.47,36.85,18.62,5.71,2.85,6.94,6.3,2.77,10.07-5,4.51-3.56,8.45.06,12.32,2.57,2.75,6.19,4.55,8.57,7.42a9.71,9.71,0,0,1,2,7.25c-.26,1.18-4.51,2.65-6.41,2.09-8.78-2.57-18.91-2.72-24.33-12.34-.54-1-4.61-1.31-5.69-.37-6.46,5.6-13,7.21-20.87,2.86-2.44-1.34-5.86-.82-8.79-1.4-7.65-1.53-10.25-6.47-6.76-13.38,2.1-4.18.91-6.93-2.77-9a27.29,27.29,0,0,0-6.06-2.6c-10.48-2.91-19.06-8.47-24.64-18-1.89-3.21-5-8.06-3.89-10.13C1409.66,484.46,1414.6,483,1418.19,480.83ZM1471.92,504c-9.18-6.08-17.08-10.89-27.91-5.9-9.06,4.18-10.46,2.92-16.6-4.47-2-2.43-5.21-4.05-8.14-5.46-.94-.45-3.39.59-4,1.62-.49.83.42,3,1.31,4,5.84,6.91,11.59,13.91,21.38,15.61,2.66.46,5.1,2.25,7.61,3.5,5.63,2.79,7.53,7.44,6.5,13.44-.29,1.7-.86,3.35-1.3,5l1.21.72Zm17.35,25.29c-4.24-6.55-9.16-14.15-14.68-22.66l-18.79,26.74c4.11,1.68,7.3,3.65,10.7,4.14,2.85.41,6.11-.47,8.89-1.56C1479.92,534.21,1484.2,531.8,1489.27,529.33Zm-6.51-19.77-1.19,1.14c8.08,10.93,13.32,23.84,24,33.09-5.61-7.68-12.62-14.84-3.64-24.82Zm-70.54-279.38c1,1.3,1.49,2.46,2.39,3.13,5.34,4,6.72,9.07,6.14,15.76-.39,4.52,1.64,9.34,3.06,13.88,2.15,6.85.68,9.54-6.16,11.37a207.54,207.54,0,0,0-22.78,7c-2.66,1-4.36,4.53-6.44,7s-3.86,6.68-6.12,6.92c-2.8.3-6.27-2.32-8.83-4.43a14.31,14.31,0,0,1-4-6.58c-.8-2.52-1.81-6.54-.57-7.86,5.06-5.35,8.31-12.66,16.2-15.21a85.49,85.49,0,0,0,13-6c4.65-2.43,5.7-6.48,4-11.26-2.26-6.41-4.79-12.73-7-19.18-1.76-5.24-3.36-10.55-4.63-15.93-1-4,2.59-6.64,7-5.17,6.63,2.25,13.26,4.57,19.67,7.36,8.06,3.5,8.73,8.64,2.12,14.48C1417.36,227.13,1415,228.33,1412.22,230.18Zm-1.49,14.51c-4.36,13.17-4.74,14.14-14.31,18.77-6.42,3.11-13,5.15-17.83,11.31-4.31,5.53-4.37,9.44,3.06,14.1-.1-7.64,4.91-11.33,10.78-13.63a174.87,174.87,0,0,1,20.92-6.55c3.72-.93,5.18-2,3.84-6.05s-1.81-8.57-3-12.78C1413.77,248.34,1412.38,247.09,1410.73,244.69Zm6.1-27.59-16-5-1.86,1.37c1.24,3.16,1.61,7.48,3.92,9.22C1406.24,225.21,1414.29,221.76,1416.83,217.1Zm-27.09,220.11c-1.65,3.21-3.14,7.34-5.66,10.69-3,4-7.36,4.65-11.71,1.71-3.31-2.24-6.55-4.59-9.67-7.08-4.06-3.24-7.39-6.22-3.53-12.44,3-4.79-2.55-17.92-7-21.58-2.36-1.94-3.7-5.14-5.44-7.81-.31-.47-.12-1.3-.47-1.7-6.43-7.62-6.13-16.11-3-24.78,1-2.73,2.91-7.16,4.49-7.2,3.55-.08,8.44,1.1,10.4,3.62,2.42,3.11,3,8.07,3.32,12.3s1.62,6.62,5.28,9.53c8.12,6.44,17.77,12.1,18,25C1384.77,423.67,1387.74,429.8,1389.74,437.21Zm-32.84-43.45c3.08,5.73,6.17,11.45,10,18.55,2.29-10.59,1.62-12-5.55-15.66-1.58-.8-3-1.83-4.57-2.75-.43-4.54-1-9.07-1.27-13.62-.25-3.57-.87-6.67-5.25-7.1C1346.82,381.33,1348.84,387.4,1356.9,393.76Zm15.67,31.13c.39,5.47.51,10.27,1.18,15,.24,1.68,1.82,3.17,2.78,4.75,1.67-1.17,4-2,4.88-3.58C1384.83,435,1382.16,430.11,1372.57,424.89Zm-6.83-8c-1.45,11.48.07,20,4,21.11C1368.74,431.12,1370.72,424,1365.74,416.91Zm12.19,5.11c.91-8.24-.7-12.74-5.32-14.87C1370.48,416.43,1371.54,419.38,1377.93,422Zm134.86,350.5c-3.24-2.34-7.49-3.84-8.65-6.62-1.79-4.31-.53-9.16,4.25-11.92,2.94-1.7,5.81-3.67,9-4.84a108.27,108.27,0,0,0,34.2-20.7c4.79-4.19,11.45-6.54,17.6-8.81,5.52-2,7.93-5.65,8.6-11,.35-2.79.17-5.79,1.2-8.29.94-2.28,3-5.42,4.91-5.65,2.07-.25,5,2,6.66,3.85,2.64,3,4.56,6.6,6.81,9.93s1,6.4-1.84,8.33c-17.4,11.86-32.77,26.61-52.62,35.07-7.06,3-12.44,9.84-18.85,14.57C1520.93,768.69,1517.22,770.15,1512.79,772.52Zm18-21.38c-9.83,1.47-19.11,7.07-20.34,12.26C1516.06,765.73,1524.48,760.66,1530.75,751.14Zm24.63-17.71,1.61,3.12,14.53-8.42c-.42-.76-.83-1.53-1.25-2.3ZM1591,712.6l-6.37-6.31-1.66,10.19ZM1320.26,511c-5.66-2.22-13.59-5.32-21.52-8.45a1.56,1.56,0,0,1-.89-.77c-2.63-8.56-9.82-15.67-8.21-25.56.74-4.56,3.37-6.14,7.95-8,7.87-3.19,15.13-8.52,21.66-14.1,4.41-3.77,7.24-9.44,10.58-14.39,2.8-4.16,5-4.51,8.46-.85,1.08,1.17,1.77,2.8,3,3.71,6.47,4.74,9.54,9.85,4,17.58-1.33,1.85-1.27,5.91-.15,8.09,4.51,8.83-1.42,14.61-5.16,21.22-2.09,3.69-4.28,7.55-5.26,11.61C1333,508.4,1330.3,511.09,1320.26,511Zm14.59-65.19a9.55,9.55,0,0,0-2,1.61c-6,8.63-12.75,16.36-22.33,21.37-1,.54-.79,4.94.09,7,.61,1.49,3.63,3.31,5,2.92,4.39-1.25,8.41-3.74,12.75-5.23,6.28-2.16,11.41-4.82,9.82-12.89a3.94,3.94,0,0,1,.74-2.85C1344.13,451.55,1339.32,448.93,1334.85,445.85Zm-10.41,60.63c5.92-12,10.91-22,15.89-32.1-.45-.51-.9-1-1.36-1.52-7.38,3.31-14.8,6.56-22.12,10-.81.39-1.8,2.18-1.54,2.83C1318,492.21,1320.94,498.63,1324.44,506.48Zm-5.81-3.21c-2.44-5.58-4.4-10.3-6.59-14.91-.43-.89-2.08-2.15-2.56-1.92-2.77,1.3-6.87,2.46-7.65,4.67a6.36,6.36,0,0,0,4.7,8.36C1310.17,500.48,1313.75,501.72,1318.63,503.27Zm-9.83-20.76c-2.72-8.45-5.15-10-10.66-7.37-4.29,2.06-3.35,6.18-1.4,8.66C1301.12,489.34,1304.32,482.48,1308.8,482.51ZM928.11,623.28c.33-1.93,0-5,1.34-7,4.77-7.06,5.12-14.66,4.78-22.81a14.34,14.34,0,0,1,9.24-14.29c8.48-3.55,13.75-10,18-17.7,2.66-4.75,4.9-4.94,8.71-1,5.15,5.28,4.74,11.48,3.06,18-1,3.83-1.64,7.74-2.55,11.59-1.2,5-2.06,10.22-3.86,15-3.56,9.54-7.21,19.09-11.67,28.22-4.05,8.27-10.14,11.32-16.6,9.94-4.72-1-9.38-8.12-10.26-15.72C928.22,626.34,928.21,625.14,928.11,623.28Zm39.94-55.76-2.19-.57c-1.26,1.73-2.29,3.71-3.84,5.15-4.2,3.89-8.11,8.61-13.09,11-6.46,3.16-9.15,7.47-8.43,14.17.7,6.53.57,12.6-3.83,18.19-1.57,2-1.81,5.25-2.09,8-.64,6.37,2.69,13.42,6.46,13.5,6.52.12,8.47-5.23,10.48-10,3-7.17,5.94-14.41,8.49-21.76,1.76-5,2.87-10.32,4.19-15.51,1.11-4.4,2.28-8.8,3.1-13.26A85.9,85.9,0,0,0,968.05,567.52ZM298.93,364.07c-6.13-.14-11.67-1.23-16.29-6.09-4.15-4.38-9.63-5.93-15.92-4.92a23.36,23.36,0,0,1-10-.74c-1.91-.56-4.55-3-4.55-4.56a8.29,8.29,0,0,1,3.66-6.07c12.18-7,29-5.29,40,3.61a61.73,61.73,0,0,0,6.94,4.65c3.68,2.24,8.25,5,6.34,9.48-1.2,2.85-6.08,4.16-9.3,6.16Zm2.1-7c-17.7-13.57-18.17-13.78-22.41-9.39C286.07,350.48,290.06,360.45,301,357ZM634.65,103.36c-2.2-.13-4.42-.12-6.59-.42-6.83-.93-13.81-8.81-13.91-15.56-.06-3.91,5.65-7.83,10.52-6.08,5.3,1.91,10,1.23,15.2.16,3.85-.81,8.2-1.17,11.89-.15,3,.83,6.45,3.52,7.66,6.27a7.54,7.54,0,0,1-4.2,10.09c-6.52,2.74-13.36,4.73-20.06,7Zm10.21-7.5V94.2H625.26c0,.56,0,1.11,0,1.66Zm7.46-6c.06-.57.13-1.14.19-1.7H638.1l0,1.7Zm31.91,70.58c-1.76,1.89-3.21,4.33-5.35,5.54-4,2.27-8.35,5.06-12.73,5.4-6.43.5-8.61-4.63-7.62-10.89,1.09-6.85,4.84-10.73,10.14-14.32,5.05-3.41,7.91-3.87,11,1.19,2.36,3.88,3,8.8,4.45,13.25Zm-18.92,4.13c5.13.84,8.65-.61,10.57-5.78C667.4,157.21,666.73,157.56,665.31,164.53ZM315,377.11c-3.11-.7-6.36-1.05-9.3-2.19-4.32-1.66-4.55-5.53-.91-8.23,2.68-2,5.14-4.3,7.81-6.32,1.24-.94,3-2.43,4.08-2.14a201.37,201.37,0,0,1,20.67,6.65c1.29.51,2.4,4,2,5.64s-2.84,3.49-4.62,3.78c-6.49,1.07-13.08,1.53-19.64,2.21C315,376.71,315,376.91,315,377.11Zm-.84-6.5,15.39-2.67C320,362.62,317.55,363,314.14,370.61ZM1426.5,752.8c-6.53.14-9.67-3.49-8.49-9.83,2.28-12.24,12.39-17,22.85-10.52a6.37,6.37,0,0,1,2.63,4.73C1443.16,743.44,1432.81,752.67,1426.5,752.8Zm-2-6.67c6.43.92,8.44-3.7,11.38-7.17C1429.2,733.88,1426.22,735.67,1424.48,746.13ZM1135.59,424c-1.18,5.43-2.94,10.8-3.36,16.28-.51,6.42,5.08,9.81,11,7.06,4.48-2.09,7.65-5.12,6-10.83-2.68-9.42-7.13-13.49-13.78-12.35Zm14.67-226.61c-32.94-5.84-65.91-11.51-98.82-17.47-4.41-.79-6.11.46-7.06,4.66q-11.1,49.54-22.57,99c-1,4.32-.13,6.25,4.13,7.25q28.07,6.6,56.06,13.51c4.06,1,6.67-.24,9.41-3.26q40.74-45,81.71-89.84c2.1-2.31,4-4.8,6.84-8.15C1169.09,201,1159.7,199.08,1150.26,197.41Zm105.6,253.85c-7.3-4.14-9.83-11.11-13.93-17.42s-4.72-12.47-2.65-19.4c1.66-5.62,4.41-7.57,10.19-6.24,7,1.59,12.17,5.71,16,11.76,1.12,1.74,3.49,3.88,5.22,3.83,6.12-.19,9.82-6.78,7.3-12.36q-14.83-32.85-29.77-65.65-26.41-58.32-52.83-116.62c-3.06-6.73-6.42-13.33-9.64-20l-1.51.33q-25.26,87.15-50.54,174.32c8-6.49,14.64-14,22-20.7,6.56-5.91,11.2-13.77,20.23-17.32,8.76-3.44,14.32-3.54,20.19,3.95,6.45,8.23,12.12,17.08,13.26,27.87.5,4.77,2.15,5.92,6.61,3.73,5.74-2.82,9.15-1.85,11.51,4.18s3.59,12.65,5.09,19.05c3.08,13.07,1.4,27.2,9.84,39.11,4.19,5.93,6.89,12.91,10.52,19.93C1259.49,458.73,1260.64,454,1255.86,451.26ZM925.13,266.48q43.8,10.51,87.62,21c4.76,1.15,5.29-1.86,6-5.22,2.73-12.93,5.49-25.85,8.39-38.75q6.81-30.17,13.83-60.3c.72-3.06.44-4.91-3.21-5.54-21.71-3.71-43.41-7.47-65.07-11.46-3.9-.72-5.32.88-6.7,4Q948.86,209,931.51,247.63c-2.65,6-5.28,11.93-7.85,17.73C924.5,266,924.78,266.4,925.13,266.48Zm-6.35,5.88c-24.5,19.37-49,38.72-73.36,58.29-1.68,1.36-2.76,4.37-2.84,6.66-.32,10.2-.17,20.42-.19,30.64V382.1H976.11L921.8,271.26C920.21,271.82,919.35,271.91,918.78,272.36ZM1155,134.9c8.67,18.94,17.58,37.77,25.92,56.86,2.47,5.63,6.43,8.49,11.85,9.48,22.64,4.15,45.35,7.92,68,12.08,5,.91,6.89-.54,7.44-5.49,3.47-31.26,7.13-62.49,10.67-93.74a69.87,69.87,0,0,0,0-7l-126,22.68C1153.84,132,1154.36,133.5,1155,134.9Zm225.84-14.34c1.32-3.73,1.57-9.26,4.18-10.8,5.18-3.05,11.26-1.42,16.33,2.25a3.51,3.51,0,0,0,1,.7c2.16.62,4.34,1.65,6.52,1.68,4.72.06,7.82,2.82,6.85,7.48a16.89,16.89,0,0,1-4,7.83c-4.1,4.31-3.21,7.2.94,10.93,8.47,7.63,16.48,15.78,24.71,23.68a37.38,37.38,0,0,0,3.46,2.62l1.39-.85c-.69-2.3-2.11-4.66-2-6.91.94-13-4.19-22.17-15.28-29.19-4.54-2.87-2.79-8.73,2.52-10.84,3.84-1.52,8.17-3.21,12.09-2.84,10.43,1,17.33-4.27,24.11-11.45-1.77-1.34-3.39-2.46-4.89-3.73a38.7,38.7,0,0,1-4.38-4.1c-3.83-4.41-2.74-7.73,2.95-8.94,7.81-1.67,15.07.33,22.18,3.43,2.35,1,4.88,1.63,8.15,2.69-2.23-6.58-6.55-9.63-13-10.5-9.3-1.25-18.57-2.71-27.89-3.89-4.09-.51-8.39-1.36-12.36-.67-38.3,6.62-76.54,13.52-114.8,20.37-10.57,1.9-21.13,3.91-32.23,6l59,116.76c5.32-1.43,9.68-2.5,14-3.81,1.37-.42,3.21-1.15,3.7-2.25,5.7-12.77,9.66-25.41.58-38.72-5.06-7.43-3.8-9.33,4.86-11.43-4-8.66-6-10-14.85-10.18-6.58-.11-13.16-.1-19.73-.23-7.06-.14-10.77-2.78-11-7.68-.79-16.7,8.12-25.54,24.64-25,10.94.35,21.9.07,32.85.07ZM803.39,70.65q28,34.53,56,69.06c2.42,3,4.72,2.69,7.85,1.47,19.41-7.55,38.89-14.9,58.32-22.39,22.24-8.57,44.48-17.11,66.6-26a15.12,15.12,0,0,0,7.27-6.39c4.21-8.18,7.71-16.73,11.39-25.17a27.56,27.56,0,0,0,1.15-4.55c-.3-.43-.59-.86-.89-1.28-8.87,7.85-16.9,5.83-25.16-.43-4.41-3.34-8.67-1-9,4.82-.27,5.32-3.34,7.6-7.67,8.58-3.27.74-6.77.34-10.13.79-6.85.94-13.68,2-20.5,3.21-10.19,1.72-20.38,3.44-30.53,5.39-3.86.74-8,1.43-11.3,3.36-7.38,4.31-14.22,9.53-21.44,14.11s-15.06,4-20.47-1.43c-1.63-1.63-3.14-4.71-2.71-6.67s3.19-3.75,5.32-4.82c2.69-1.36,5.79-1.92,9.22-3-10-10.16-54.47-16.86-64-10.28A5.32,5.32,0,0,0,803.39,70.65Zm302.05-17.53c-34,13.08-68,26.13-102,39.4a10,10,0,0,0-4.78,4.93c-8.93,19.7-17.6,39.52-26.47,59.25-1.94,4.31-1,5.85,3.8,6.62,18.19,2.91,36.32,6.15,54.45,9.47,10.55,1.93,10.52,2.09,15.83-6.81,1.13-1.9,2.32-3.75,3.39-5.67q26.22-47.29,52.4-94.61c2.18-3.94,4.17-8,6.79-13A20.49,20.49,0,0,0,1105.44,53.12ZM773.23,528c.33,1.08.74,2.14,1,3.24,2.14,10.08,6.18,19.94,2.07,30.56a244.3,244.3,0,0,0-8.06,24.3,15.67,15.67,0,0,0,.79,9.6c6.61,15.48,12.78,31,15.26,47.85.68,4.58,2.79,9.17,5.15,13.23,5.61,9.62,10.45,19.37,10.46,30.85,0,5,3.08,6.56,7.53,6.27,7.38-.5,14.77-1,22.15-1.62,5.31-.44,7.9-2.71,7.85-8.81-.24-30.83-.08-61.67.15-92.51A12.72,12.72,0,0,0,833,580.54c-14.72-13.28-29.27-26.74-43.89-40.11-4.9-4.48-9.84-8.91-14.76-13.37Zm64.36,49.31V390.13c-1.7,2.07-2.54,2.91-3.17,3.88q-35.1,54.54-70.22,109.05c-2.21,3.43-2.15,6.3.45,9.2,2,2.24,4.05,4.44,6.25,6.47q24.93,23,50,45.93c5,4.56,10,9,15,13.51Zm-3-190.45a21.27,21.27,0,0,0-3.23-.82q-55.64-.24-111.26-.5c-4.68,0-5.26,2.36-4.77,6.15,1.67,13.11,3.36,26.21,4.78,39.35.7,6.44.71,12.9,8.32,15.7,1.31.48,2.26,2.23,3.12,3.56,2.63,4.11,5.93,5.86,11.1,5.14,8.48-1.17,14.93,4.78,14.49,13.39-.26,5.15-.74,10.73-2.93,15.23-4,8.3-.1,13.56,5.29,19.64Zm285-328.63c9.46,20.55,19.23,40.95,28.29,61.67,2.53,5.79,5.62,6.41,11.09,5.4,35-6.5,70.11-12.7,105.16-19.07,3.49-.64,6.89-1.74,11.87-3-9.81-6.56-18-12.29-26.42-17.64-16.86-10.69-33.84-21.21-50.81-31.73a26.34,26.34,0,0,0-22.47-3,31.65,31.65,0,0,1-10.06,1.29c-7.19-.26-14.36-1.39-21.55-1.51-8.87-.15-17.75.36-27.62.61C1118.3,54.6,1118.81,56.49,1119.62,58.24ZM1001.89,367.77c4.56-4,8.13-9.31,11.36-14.52,2.54-4.1,2.12-9.12-2.37-11.68-6.78-3.87-11.93-9.08-16.69-15.14-2.46-3.13-4.91-5.65-2-9.29a7.22,7.22,0,0,1,10.32-1.4c11.69,8.63,25.12,8.76,38.56,8.23,7.12-.28,13.48.49,19.24,5,1.11.86,4,1.28,4.66.58,6.34-6.51,12.37-13.3,19.42-21L925.5,270.43c18.78,38.36,36.68,74.95,55,112.46C988.28,377.5,995.62,373.24,1001.89,367.77ZM901,484.38c-18.68,15.12-37.41,30.2-55.91,45.55a10.72,10.72,0,0,0-3.23,7.16c-.39,13.82-.56,27.66-.22,41.47a13.89,13.89,0,0,0,4,8.73c11.59,11.07,23.55,21.75,35.41,32.53,1.5,1.37,3.17,2.56,4.77,3.83l1.46-.85c-.54-2.62-.9-5.29-1.67-7.84-1.37-4.55-1.25-8.75,2.38-12.23,6.19-5.94,12.16-12.15,18.75-17.61,9.85-8.15,13.93-27.41,9.07-39.37-3.46-8.52-5.06-17.8-7.38-26.77-.29-1.11.2-2.4.08-3.59-1-10.86-2.14-21.72-3.31-33.52A41.27,41.27,0,0,0,901,484.38ZM1110.68,57.56c-8.15,14.7-16.34,29.39-24.26,44.22a8,8,0,0,0,0,6c2.75,6.65,5.95,13.11,8.95,19.66q13,28.38,26,56.77a9.61,9.61,0,0,0,8,6.1c15.39,2.55,30.71,5.58,46.07,8.36,1.09.2,2.26-.13,4.66-.3L1113.69,54.12C1112.18,55.83,1111.22,56.58,1110.68,57.56ZM844.94,325.92q35.4-27.85,70.82-55.68c3.15-2.47,3.29-4.64,1.57-8.14-15.64-31.79-31.07-63.67-46.61-95.5-2.14-4.38-4.56-8.62-6.92-13.06-.91.73-1.36.91-1.46,1.2-8.25,24.67-16.54,49.33-24.59,74.07-.65,2,0,4.62.69,6.78,1.25,4.18,3.27,8.16,4.31,12.38,1.33,5.45,5.14,8.79,9.9,9.2a154.9,154.9,0,0,0,26.2-.14c8.84-.75,14,4.11,11.91,12.83a107.92,107.92,0,0,1-4.93,14.8c-3.15,7.89-8.32,10.42-16.73,8.84A20.41,20.41,0,0,0,862,293c-6.15,1.06-12.23,2.56-19.08,4.06v29.47A9.11,9.11,0,0,0,844.94,325.92Zm-12.1-79.53c1.3,1.52,2.88,4.18,2.35,5.55-.69,1.78-3.35,2.81-5.19,4.11-2,1.41-4.34,2.48-6,4.21-3.34,3.53-6.77,3.89-9.68.17a100.92,100.92,0,0,1-8-12.59c-1.71-3-3-6.23-4.46-9.3-6,5.55-11.77,10.35-16.93,15.7-5.45,5.64-8.33,6.41-14.74,1.9-1.46-1-3.23-3.26-3-4.63.3-1.73,2.23-3.6,3.93-4.57,2.65-1.5,5.7-2.29,9.47-3.72a46.08,46.08,0,0,0-4.11-4.71c-8.09-6.86-16.17-13.73-24.49-20.31-1.35-1.07-4-1.26-5.83-.86-5.58,1.21-11.08,2.86-16.58,4.45-1.26.37-3.19.91-3.48,1.81-2.38,7.41-9,10.39-14.47,14.71a9.15,9.15,0,0,0-3.2,4.68,24.14,24.14,0,0,1-21,18.42l-5.26.53a7.94,7.94,0,0,0,6,1.25c7.18-1.69,14.22-4.19,21.48-5.36,14.21-2.27,28.52-4,42.81-5.69,6.47-.78,9.08,2.09,8.72,8.66-.15,2.79.1,5.6,0,8.4-.1,4.61,2.31,6.53,6.62,7.76a144,144,0,0,1,16.69,6.45c4.51,1.92,8.91,4.14,13.31,6.31,3.08,1.51,4.88,1,6.63-2.33,3.94-7.52,10.92-9.93,18.8-6.91,2.61,1,4.94,2.7,7.55,3.69,7.63,2.87,15.31,7.32,23.63,4.62,5.74-1.86,10.88-3,16.9-1.54,2.15.54,6.31-1.28,7.36-3.21,2.63-4.86,4.29-10.32,5.82-15.68,1-3.45-.79-5.06-4.62-4.9-8.76.34-17.53.56-26.29.31-2.81-.08-5.75-1.48-8.34-2.83-6.44-3.35-8.91-9.1-9.93-16.11-1-6.62-3.35-7.54-9.44-4.1C828.67,242.85,831.07,244.35,832.84,246.39Zm-61.46,45c5.64,28.26,11.44,56.5,16.91,84.79.87,4.51,2.74,6,7.14,5.9,12-.18,24-.19,36.05.14,5.15.14,7.08-1.42,7-6.79-.13-21.63-.87-43.34.6-64.88.87-12.72-3-19.31-14.91-23.05-8.27-2.59-10.7-2.41-15.4,4.78-1.55,2.38-5.18,5.64-7,5.17-6.44-1.65-12.58-4.56-18.67-7.35-3.82-1.76-7.35-4.17-12.49-7.14C771,287.15,771,289.31,771.38,291.38Zm149-31.3,1.78-.38,42.23-94.64-99.19-17.63Zm330.18,82.06c3-14.24,5.25-28,6.89-41.9,3-25.65,5.64-51.36,8.65-77,.5-4.28-1-5.55-4.92-6.21-12.62-2.14-25.16-4.8-37.78-7-11.2-1.91-22.48-3.42-35.31-5.35ZM842.53,527.19c20.68-16.85,40.25-32.73,59.69-48.77a6.13,6.13,0,0,0,1.77-4.68c-1.69-15.14-3.51-30.26-5.66-45.33-.24-1.66-2.75-4.16-4.36-4.28-16.76-1.31-33.56-2.2-51.44-3.28ZM1226.36,65.78c16.36,10.87,32.81,21.6,49,32.65a16.84,16.84,0,0,0,13.48,3q68.3-12.48,136.64-24.7a20.85,20.85,0,0,0,3.49-1.26,197.31,197.31,0,0,0-31.9-6.43,89,89,0,0,0-17.2,0c-6.28.48-12.51,2.48-18.74,2.37-10.14-.18-20.31-.88-29.62-6.13-3-1.67-7-1.79-10.51-2.19-14.27-1.61-28.58-1.75-42.64-6.29-8.47-2.74-18.29-2.1-27.45-1.68-7.68.35-15.3,2.44-22.88,4.05-2,.42-3.69,1.93-6.13,3.27C1223.87,63.91,1225.06,64.92,1226.36,65.78Zm-107.83,356.3q13.9-47.24,27.82-94.47c1.27-4.28-1.48-4.7-4.29-5.39-10.89-2.65-22.08-4.46-32.6-8.16-14.72-5.17-26.48-3.91-34.92,10.62-1.87,3.22-6.43,5.47-7,8.68-.52,2.87,2.71,6.43,4.28,9.69a6.62,6.62,0,0,1,.47,1.1c1.44,5.26,5,8.44,9.89,10.49,5.89,2.44,9.47,7.05,11.77,12.95,6,15.44,12.23,30.83,18.4,46.22,1.3,3.25,2.8,6.43,4.67,10.69A17.54,17.54,0,0,0,1118.53,422.08ZM673,381.22h111.9a9.85,9.85,0,0,0,.29-2.61c-3-14.71-6-29.4-8.89-44.11-.72-3.64-3-4.15-6.16-4.12-16,.19-32,.09-48.06.56-2.77.09-6,1.88-8.11,3.88-5.62,5.4-10.75,11.31-16,17.05q-12.76,13.83-25.5,27.69ZM768.2,325.4c-1.06-.87-2.06-1.81-3.18-2.59q-20.43-14.3-40.9-28.54c-10.18-7.1-20.39-14.19-30.54-21.34-8.42-5.95-16.42-4.3-22,4.1-1.68,2.52-4.9,4-7.09,6.22-3.27,3.37-8,6.57-9,10.64-2.62,9.92-8.91,16.19-16.62,22-3.81,2.85-7,6.58-11.61,11.1H767.84Zm562.55-20c3.93.81,5.87-1.22,4.79-4.45a57.59,57.59,0,0,0-7.06-14.95c-3.31-4.68-8-8.35-12-12.56-5.38-5.65-4.8-10.88,1.53-15.45a17,17,0,0,0,2.41-2.87c-5.27-1.83-10.13-3.09-14.59-5.18-4.3-2-5.58-6-3-10.08,2.34-3.72,5.32-7,10.88-5,4,1.41,8.43,1.56,12.47,2.89a38.93,38.93,0,0,1,10.78,5.14c3.1,2.28,5.1,6,8.07,8.52,4,3.43,7,6.95,6.25,12.76-.18,1.26,1.4,3.91,2.25,3.94a13.55,13.55,0,0,0,6.68-1.67c.54-.29.35-3.53-.52-4.58a194.78,194.78,0,0,0-13.95-15.46c-3.62-3.51-6-6.56-1.8-11.1.56-.61.57-1.73,1.07-3.41l-74.77-13.08c-2.85,24.65-5.57,48.24-8.38,72.56C1285.3,296.11,1308,300.71,1330.75,305.38Zm-359.29,81.3c-1.75-.12-3.5-.34-5.24-.34q-30.65-.12-61.28-.18c-7.2,0-7.3.18-6.55,7.58.12,1.2.31,2.39.45,3.58q5.88,50.4,11.8,100.78c.33,2.8,1,5.56,1.31,7.25,11.37-12.86,22.8-25.61,33.94-38.6,1.49-1.72,2.09-4.7,2.1-7.1.06-8.81-.51-17.62-.44-26.43.05-7.08.88-13.85-9.51-14.53-2.22-.15-5.56-4.85-5.75-7.64-.15-2.36,3-5.75,5.58-7.29,3.52-2.11,8-2.63,11.78-4.33,7.57-3.36,15-7.06,22.49-10.61ZM1285.2,109.25c-1.78,1.45-2.08,2.2-2.17,3-3.85,32.64-7.62,65.28-11.58,97.91-.49,4.09,1.36,5.29,4.79,5.9,13.61,2.4,27.19,5,40.81,7.35,8.77,1.51,17.6,2.72,28.06,4.32C1324.62,187.21,1304.91,148.23,1285.2,109.25Zm-24.33,190.6c-1.61,11.5-3.59,23-4.58,34.52-.61,7.2-1.45,15.15.86,21.69,4.78,13.54,11.55,26.39,17.59,39.48,2.61,5.68,5.42,11.28,8.13,16.91,2.24-1.67,3.48-3.13,3.31-4.39-1.43-10.4.16-21.78-11.64-28.38-6.37-3.56-7.62-11.32-6.23-17.59.82-3.69,5.82-7.65,9.82-9.2,9.1-3.52,18.76-5.62,28.19-8.32,17-4.87,27.17-17.63,27.26-34.91L1262,295.18A47,47,0,0,0,1260.87,299.85ZM708,331q-39.39.14-78.79.39c-1.32,0-3.37.24-3.84,1.07-3.8,6.82-10.16,12.5-9.11,21.54a226.92,226.92,0,0,1,1.4,22.72c0,4.09,2.13,4.58,5.29,4.58,13.23,0,26.46.24,39.69,0a9.65,9.65,0,0,0,6-2.91c5.74-5.87,11.14-12.07,16.71-18.11,8.51-9.24,17.05-18.44,26.35-28.5A23.12,23.12,0,0,0,708,331ZM874.48,145.2c29.14,5.24,58.3,10.4,87.42,15.76,4.09.75,5.25-1.55,6.54-4.44,6.26-14.08,12.61-28.11,18.85-42.2,2.38-5.38,4.54-10.85,6.81-16.27l-1.22-1.45c-40.09,15.48-80.17,31-121.86,47.09A28.16,28.16,0,0,0,874.48,145.2Zm303.1,66.34-86.17,94.83c18,4.28,33.95,7.87,49.77,12,5.43,1.4,7.78.1,9.33-5.34,8.73-30.59,17.8-61.07,26.7-91.61.87-3,1.35-6.08,2-9.12ZM701.48,385.62c-27-.23-54.05-.49-81.07-.5-1.76,0-3.95,1.59-5.18,3.07-5.08,6.05-2.76,12.44.84,17.77,7.93,11.76,16.56,23,24.95,34.47a25.5,25.5,0,0,0,3.09,2.88l60.95-56.68A21,21,0,0,0,701.48,385.62ZM854.26,139.07c-6.41-7.94-13.11-15.67-19.23-23.83-3.13-4.17-5.39-4.55-9.63-1.3-17.62,13.52-35,27.45-53.52,39.68-11.06,7.31-10,17.31-11.43,28.91l97.76-37.82C856.5,142.25,855.48,140.58,854.26,139.07ZM781,227.76a108.48,108.48,0,0,1-14.26-14.25c-1.52-1.89-.67-5.7-.91-8.63,3.14-.22,7-1.7,9.28-.42a241.57,241.57,0,0,1,23.12,15c5.34,3.83,8.26,9.27,10.08,15.82,2,7.07,4.22,14.44,10.33,19.88l6.34-6c-7.52-8.18-7.5-13.55,1-15.77,6.85-1.8,8.72-5.77,10.05-11.43a35.17,35.17,0,0,1,3-8.48c2.2-4.13,1.3-6.29-3-8.35C818.69,196.8,801.6,188,784.3,179.69c-1.85-.89-4.7-.6-6.79.06a89.85,89.85,0,0,0-13.92,5.53c-2,1-4.18,3.24-4.59,5.26-1.18,5.87-1.37,11.92-2.21,17.87-.61,4.29,1.08,7.21,4.33,9.81,8.53,6.84,16.91,13.87,25.59,21l5.71-4.49C788,232.11,784.07,230.42,781,227.76ZM1122.58,36.37a39.87,39.87,0,0,0-5-1.22c-11.09-1.32-22.18-2.66-33.29-3.73a24.92,24.92,0,0,0-8.28.74c-8.48,2.09-16.89,4.46-25.33,6.75-4,1.11-8.29,1.81-12.07,3.51-19,8.49-19.78,9.45-28.22,28.6-2.36,5.37-4.65,10.78-7.41,17.19a39.28,39.28,0,0,0,4.1-1c31.72-12.23,63.51-24.28,95.09-36.88,7.37-3,14-7.75,21-11.7Zm-3.08,152.14c-12.61-27.16-24.48-52.73-37.09-79.91l-37,66.81ZM646.66,445.89c6.48,6,13.31,8.13,21.69,7.08,12.95-1.61,26.79,1.27,38.36-7.57,1-.77,2.69-.64,4-1,7.12-1.79,7.58-2.73,6.58-9.92-1.84-13.27-3.44-26.58-5.18-39.88-.3-2.27-.81-4.53-1.48-8.24ZM843.29,590.17l-1.58.85v94.54a12.8,12.8,0,0,0,2.22-.93c12.23-8,20-20,27.94-31.71A6.61,6.61,0,0,0,873,648.4c-1.56-7.07,2.69-10.8,7.65-14.24l6.11-4.21ZM694.89,269.54l77.48,53.88,1.45-1.23c-2.32-12.14-4.49-24.31-7.13-36.38-.35-1.6-2.82-3.24-4.65-3.91-4.61-1.7-6.62-4.83-6.75-9.56-.12-4.37-.38-8.74-.63-14.1C734.62,262.11,714.33,260,694.89,269.54Zm105-197.12a5.85,5.85,0,0,0-4.57-1.9C783.22,72.84,772.2,77,765.4,88.37c-1.63,2.71-2.44,4.79.37,7.29,10.9,9.72,21.62,19.63,32.58,29.27,1.14,1,4.08,1.57,5.13.83,8.29-5.87,16.33-12.09,24.85-18.52C818.6,95.28,809.32,83.78,799.86,72.42Zm60.86,75.25-72.8,28.2c0,.54.05,1.08.08,1.62L841.94,204Zm8,238.37c-7.21,0-14.43-.23-21.61.17-1.65.09-4.48,2.23-4.55,3.56-.46,7.78-.43,15.61-.13,23.4.06,1.3,2.16,3.53,3.46,3.64,15.75,1.3,31.52,2.28,47.29,3.37,3.18.22,4.35-1.22,4-4.31-.89-7.75-2.06-15.49-2.42-23.27-.27-5.74-3-6.87-8-6.58-6,.35-12,.09-18,.09ZM753.39,185a5.38,5.38,0,0,0,2.83-3.49c1.72-11.66,3.32-23.34,4.56-35,.13-1.23-2-3.39-3.52-4-4.6-1.74-7.17.61-9.37,4.76-2,3.75-5.12,6.92-7.86,10.24-1.49,1.82-3.5,3.26-4.81,5.18-7.23,10.63-18.57,15.74-29,22.09-1.51.91-3.63,2.37-3.76,3.73-.45,4.9-.17,9.87-.17,16.51C720.41,198,736.94,191.59,753.39,185Zm12.2-30.85,32.57-24.33c-9.55-8.72-18.62-16.56-27.15-24.95-6-5.88-11.55-10.35-19.5-3.3-.84.75-2.32.73-3.3,1.37-3.31,2.17-6.93,4.08-9.69,6.83-4.75,4.73-4.07,9.58,2,12.66a27.33,27.33,0,0,0,11.86,3c9.07,0,14,4.69,13.13,13.63-.45,4.73-1,9.45-1.46,14.18Zm-13,35.44q-23.52,9-47,18.19c-1.19.46-2.93,1.7-2.95,2.62-.23,8.59-.14,17.19-.14,26.34,11.76-7.5,11.44-7.74,18.42-17,1.93-2.54,6.29-3.49,9.72-4.58,7-2.21,14.07-4,21.08-6.05a2.62,2.62,0,0,0,1.27-1.87c.85-5.83,1.6-11.67,2.4-17.73A11.38,11.38,0,0,0,752.62,189.62ZM668,236.26c-3.49-.16-6.53,1-6.35,4.55.2,4,.56,9.6,3.13,11.64,8,6.34,17.46,4,26.48,1.77,1.65-.41,4-1.43,4.45-2.7a45.77,45.77,0,0,0,2.42-12.78c0-.75-4.75-2-7.4-2.34-3.14-.42-6.37-.1-9.56-.1C676.74,236.3,672.34,236.45,668,236.26ZM973.17,415.64c-6.38,1.19-12.84,2.14-19.12,3.78-1.3.34-2.72,3.18-2.77,4.91-.21,6.37.17,12.76.25,19.15.07,5.07,0,10.15,0,15.92C960.59,454.71,974.78,425.13,973.17,415.64ZM673.24,219.25c-1.78.14-4.55-.26-5.16.69a37.53,37.53,0,0,0-4.15,9.74c-.17.59,2.17,2.74,3.39,2.77q13.78.36,27.59,0c1.23,0,3.34-1.84,3.44-3a118.66,118.66,0,0,0,.17-12.06C689.27,218.08,681.26,218.65,673.24,219.25Zm571.44,260.2c-3.62,5.83,4.54,9.58,5.4,15.11.17,1.08,2.49,1.84,3.83,2.72.12.08.38,0,.58-.1l11.07-2.84c-10.81-12.7-11-15.22-1.59-22l-4-9.39C1254.25,469,1248.36,473.53,1244.68,479.45Zm38.59,44.33-.54,2.53,44.47,8.92C1314.07,525.11,1297.93,527.52,1283.27,523.78ZM696.37,148.47c-.74-5.93,1.77-12.35-3.86-18.83-2.5,2.8-6.87,6-6.35,7.43,1.66,4.52,5.14,8.37,7.92,12.49ZM1272.55,507c-.16-1.72,1.35-3.93.7-5.19-.94-1.81-3.06-4-4.85-4.16-3.06-.28-3.81,2.16-2.82,5,1.85,5.27,3.47,10.64,5.57,15.81.71,1.74,2.59,3,3.44,4C1273.87,517.17,1273,512.12,1272.55,507ZM773.33,210.84c4.92,12.51,19.45,13.4,27.06,22.66C795.61,220.81,782.32,218.42,773.33,210.84ZM704.84,169.6a10.52,10.52,0,0,0,6.69-5.13c1.13-2.31-5.11-8.61-7.29-7.59-1.89.89-3,3.43-5.3,6.26C701.45,166,703.5,169.84,704.84,169.6Zm424.67,229.2-8.76,29.5C1129.16,423.32,1133.21,409.8,1129.51,398.8Zm111.21,78.42c1.69-1.56,3-2.82,4.85-4.48-7.75-4.47-9.63-14.6-20.17-17Zm24,32.75a94.52,94.52,0,0,0-5.68-9.52c-.33-.44-3.12.95-6.09,1.93l9.69,9.22ZM692,167.63c.38,1,1.79,2.46,2.56,2.36a3.64,3.64,0,0,0,2.5-2.53,64.24,64.24,0,0,0-.48-8.57C690.35,160.47,690.59,164,692,167.63ZM279.53,321.93c0-2.71.37-5.47-.06-8.11-1.5-9.15-1.79-18.38,3.94-26,3.45-4.58,3.9-8.26,1.71-13.05a24,24,0,0,1-1.84-6.33c-.62-4.13-2.83-5.44-6.95-5.6q-52.86-2.07-105.69-4.59c-5.41-.26-7,1.48-6.86,6.71.45,15,.25,30.06.78,45.07.6,17.26-2.62,13.17,14.68,17.93,5.14,1.41,7-.41,9-4.76,2.34-5.15,4.69-11.14,8.88-14.44,8.65-6.83,18.79-10.44,30.38-7.3,2.55.69,6.59.37,8.34-1.23,7.83-7.17,15.62-11.38,25.44-3.75a2.76,2.76,0,0,0,1.14.33c10.93,2.27,11.09,2.73,11.69,14,.2,3.85,1.74,7.64,2.68,11.45Zm83.65-141.42c-19-4.66-38-9.43-57.15-13.79a8.13,8.13,0,0,0-6.81,2.46c-4.6,6-8.53,12.58-12.71,18.93-4.89,7.45-9.79,14.89-15.07,22.92,2.72.95,4.55,1.61,6.41,2.23,14.62,4.85,29.36,9.4,43.84,14.65,9.3,3.37,18.08,7.15,27.84,1.14,3.21-2,6.86-2.32,6.86-7.5,0-2,2.58-4.53,4.62-5.84a135.27,135.27,0,0,1,14.71-8.07c5.14-2.49,10.11-3.07,13.16,4.13l16.58-8.28c-10.08-3.82-11-5.31-9.44-14.87C384.87,185.87,374,183.17,363.18,180.51ZM306.55,140c-5.57-1.15-9.18-4.42-9.58-10.07s-3.53-7-8.63-7.51c-15.54-1.42-31-3.4-46.56-5-9.23-.94-18.49-1.52-29.4-2.39,19.34,31.77,37.76,62,56.57,92.9l44-66.07C310.22,141.08,308.41,140.39,306.55,140ZM159,170c-.32-18.83-.73-37.66-1-56.49-.05-3.95-2.4-4.5-5.44-4.76-10.18-.89-20.34-1.92-30.51-2.77q-42.49-3.54-85-6.91a9.63,9.63,0,0,0-5.1.9c-3.81,2.07-7.38,4.55-11.09,6.82-4.7,2.87-9.44,5.7-14.3,8.62,3.56,5,7.42,8.79,9.23,13.41,1.49,3.83,3.83,5.69,6.87,5,4.45-1,8.67-3.21,12.8-5.27,4.57-2.27,8.65-6.1,13.42-7.22a284.09,284.09,0,0,1,33.69-5.7c11.19-1.24,21.27,1.26,29,10.74,6.85,8.4,8.41,17.83,8.31,28.11,0,2.39,1.08,6.36,2.67,7,11.53,4.36,23.32,8,35.65,12.13A22.63,22.63,0,0,0,159,170Zm3-66.32c0,1,2.38,2.52,3.78,2.67,23.51,2.5,47,4.75,70.56,7.23,3.82.41,5.91-1.2,7.78-4.18,6.28-10,12.72-19.93,19.07-29.9,6.19-9.72,12.34-19.46,19.19-30.25-10.78-.34-20.05-3.11-29.06,4.13-9.71,7.8-20.74,14.09-33.78,14.24-19.06.21-37.84,8.68-57.71,1C161.88,81,161.79,92.32,162.05,103.66ZM105.24,284.5c17.11-8.75,34.27-17.43,51.24-26.46,1.78-1,3.3-4,3.42-6.14.38-7-.13-14,.07-21,.11-3.79-1.32-5.83-4.8-7.22-12.84-5.11-25.55-10.53-38.37-15.67-7.2-2.89-10.86-1.12-14.07,6-1.88,4.17-3.22,9-6.24,12.18-9.62,10.07-8.87,22-7.6,34.26a2.36,2.36,0,0,0,0,.6c1.27,3.23,2,6.85,3.94,9.59,3.42,4.82,7.61,9.1,11.72,13.89C104.46,284.52,104.92,284.66,105.24,284.5ZM389.49,181c1.94-2.15,3.55-4.84,5.91-6.26,1.87-1.13,4.68-.93,7.07-.9,4.78.07,6.66-2.2,7.09-6.86.92-10,2.88-19.88,3.21-29.85.22-6.54-1.57-13.16-2.66-19.71-.17-1-1.36-1.94-2.23-2.75-9.45-8.89-20.91-7.71-28.09,2.9-3.37,5-9.17,8.74-7.08,16.38.45,1.63-1.57,4.72-3.29,6.06-8.94,6.93-18,13.76-27.33,20.11-4.19,2.85-7.76,1-7.88-4-.12-5.26-2.92-6.85-7.12-8-2.51-.66-4.86-1.91-7.37-2.54-1.41-.35-3.8-.59-4.37.17-3.86,5.1-7.35,10.48-11.47,16.53l86.11,21ZM262.76,208.26l1-1.76-54.39-89.36L162.43,175Zm54.86,380.13c11.89,7.41,16.79,18.31,16.75,31.87,0,2.8-.33,5.6-.35,8.4,0,7.29,0,14.58,0,19.57l63.39-59.81c-7.44-2.73-13.2-4.81-18.92-6.95-19.68-7.38-39.31-14.85-59.05-22.05-2.09-.76-5.49-.83-7.05.38-5.18,4-9.81,8.72-15.78,14.2C304.57,579.48,310.92,584.21,317.62,588.39ZM260.09,212.94l-.12-1.73-96.32-31.9v73.21ZM35.56,95.17q59,4.89,117.93,9.76c3.67.31,4.49-1.37,4.43-4.55-.2-9.21-.37-18.42-.3-27.63,0-4.08-1.76-5.54-5.64-6.08-8.5-1.2-16.91-3.18-25.43-4.19a47.16,47.16,0,0,0-15.19.33c-14,3-28,6.71-41.87,10.35-2.53.66-5.95,1.75-7,3.69C57.45,86.62,49,90.52,38.83,92.2c-1.48.25-2.92.81-5.23,1.46C35,94.73,35.24,95.14,35.56,95.17ZM402.35,534.43q1.74-38.08,3.39-76.19c.12-3,1.36-7.11-3.53-7.5-4.44-.35-9.23-4.42-13.15,2.28-6.87,11.73-14.64,22.94-22,34.4-7.86,12.27-15.66,24.58-24,37.66l58.53,13.39C402,536.33,402.3,535.39,402.35,534.43Zm10.58,4.76q43.8,1.62,87.62,3.18c5.26.19,10.86-5,11.26-10.27.51-6.65-4-13.85-9.08-15.09-2.81-.68-6.67-1.39-7.91-3.4-5.49-8.95-14.72-9.89-23.39-11.55-5.91-1.12-11.21-2.41-15.29-7.19-2.71-3.17-5.55-3.12-8.49.3-4.57,5.31-9.47,10.33-14.22,15.48l-25.62,27.79C410.64,538.86,411.78,539.15,412.93,539.19Zm-6.73,3.23c-.79,14-1.52,26.63-2.25,39.49a70.21,70.21,0,0,0,7.09,0c23.07-2.72,46.12-5.79,69.23-8.08,6.9-.68,11.35-2,11.53-10,0-2.09,2.23-4.15,3.51-6.18,2.11-3.34,4.28-6.65,7.38-11.45Zm-.73,46.46c13.77,13.72,27.61,27.37,41.31,41.15,3,3.05,5.57,2.41,9,.66,6-3,12.43-5.17,18.52-8,2.75-1.29,6.64-2.93,7.39-5.25,3.66-11.36,6.61-23,9.45-34.58,1.26-5.17-1.55-6.56-6.48-5.93-18.08,2.32-36.2,4.42-54.31,6.52-8.5,1-17,1.78-26.31,2.75A15.3,15.3,0,0,0,405.47,588.88Zm-66.62-68c.78-32.54,1.55-65.07,2.33-97.76-1.19.17-1.68.09-1.94.3q-26.33,20.94-52.63,41.92c-3.24,2.57-1.89,4.57.43,6.83,7.76,7.54,15.4,15.19,23.12,22.78q13.43,13.2,26.9,26.37Zm59.23,131.67c.44-5.25-1.39-6.92-6.5-5.74-17.95,4.15-35.94,8.12-53.86,12.35-1.36.31-3.55,2.48-3.34,3.21,2.66,9.24.59,20.38,11.07,26.57,4.43,2.61,8.12,6.5,12.16,9.78,14.14,11.48,9.56,9.74,23,.6,11.73-8,20.29-16.84,17.4-32.36C398,662.15,397.68,657.32,398.08,652.55ZM274.47,81.27c29.85,0,59.77-1.12,89.53.5,13.27.73,23.52-8.81,36.34-6.8.3,0,.73-.32,1-.6q11.06-10.83,22.09-21.69c-.29-.59-.57-1.18-.86-1.78-12.9-1.92-25.78-3-38.21,3.07-4.51,2.21-7.07,5.13-5.26,11,1.91,6.23-1.22,9.81-7.41,10.1-9.12.42-15.47-7-13.85-15.88.38-2.1-.33-4.4-.53-6.61-2.38.34-5.35-.11-7,1.16-5,3.85-9.36,8.66-14.38,12.56a132.29,132.29,0,0,1-17.7,12c-2,1.11-6.54.39-8.11-1.23-1.42-1.47-.38-5.32-.4-8.12,0-2,.8-4.59-.11-6.06-4.84-7.79-13.24-9.84-21.32-12.16a3.63,3.63,0,0,0-3,1.41c-6.07,9.13-12,18.36-19,29.12Zm96.07,3.58q-51.35-.06-102.7.05a6.9,6.9,0,0,0-5,2.33C257.5,95,252.54,103,247.57,111c-.53.85-.34,2.15-.51,3.49,11.5,1.35,22.59,2.78,33.71,3.94,8.58.89,17.66,3.13,23.42-6.48a4.51,4.51,0,0,1,2-1.29c9.78-4.59,19.52-9.27,29.37-13.71,6.34-2.85,12.89-3.85,19.86-1.86,3,.85,6.35.58,9.54.54,9.2-.12,9.2-.17,8.33-10.14A12.37,12.37,0,0,0,370.54,84.85Zm-263,203a5.11,5.11,0,0,0-2.36,3.69c0,9.24,1,18.32,5.51,27.06.52-.85.76-1.35,1.1-1.78,2-2.46,3.91-6.89,5.88-6.9,3.15,0,6.77,2.42,9.33,4.76,2.41,2.21,3.76,5.62,5.51,8.54,6.07,10.2,6.06,10.21,16.82,6,2.24-.88,4.39-2,6.68-2.72,4.14-1.3,5.33-4,5.22-8.21-.41-15.43-.53-30.87-.79-46.3-.06-3.34-.28-6.67-.49-11.38C141.57,270.11,124.5,278.9,107.52,287.87ZM336.64,529.51c.63-1.1-1.08-4.25-2.51-5.68-16.7-16.7-33.61-33.18-50.3-49.88-3.42-3.42-5.45-3.07-7.71,1-1.73,3.11-4.09,5.87-5.95,8.91-2.14,3.48-5.71,7-2.42,11.35,3.56,4.7,2.09,8-1.08,12.24-1.83,2.43-3.26,7-2.18,9.44,3,6.57,7.43,12.15,16.19,11.58,3.51-.23,7.12.89,10.69,1.38l39.42,5.41C332.41,533.78,335.2,532,336.64,529.51ZM172.28,252.94l.3,1.88L280.17,259l-13.93-44.62ZM343.91,516.15q21.39-32.92,42.64-65.93a5.65,5.65,0,0,0-.07-4.82c-6.08-11.13-17.64-16.6-26.37-25-.58-.56-2.29-.31-3.32,0-3.69,1.25-7.31,2.7-11.7,4.35-.8,30.14-1.6,60.78-2.41,91.49C343.56,516.19,343.85,516.25,343.91,516.15Zm97.82,147.16c3.85-5.48,6.3-11,3.6-17.89-.7-1.8.54-4.27.38-6.39s-.23-5.09-1.58-6.48c-9.57-9.93-19.45-19.56-29.27-29.25-3.16-3.12-6.43-6.13-10-9.48a11.37,11.37,0,0,0-1,2.51c-.58,15.18-1.16,30.37-1.59,45.56a6.37,6.37,0,0,0,1.37,4.41c9.87,9.3,19.9,18.43,30.69,28.35C436.34,671.54,438.89,667.33,441.73,663.31ZM314.81,266.1c1.1-.66,1.36-2.69,2.05-4.08,2.23-4.53,3.85-9.55,6.9-13.46s7.6-6.86,11.48-10.23c-.3-.78-.6-1.55-.91-2.33L270.2,214.65c7.1,22.65,13.66,43.52,20.46,65.18C299.29,275,307.13,270.68,314.81,266.1Zm80,426.53c-7.41,5.76-14.94,11.39-22.13,17.42-1.38,1.15-2,3.9-2,5.91q.38,43.29,1.14,86.57c0,1.94,1,4.61,2.45,5.65,8.58,6.14,18.35,9.2,29.62,10.49-4.45-3.81-8.44-6.81-11.92-10.32-6-6-10.58-15-5-24.36,3.36-5.62,2.41-9.25-3.19-12.83s-5.19-7.45-.42-12.2c1.05-1,1.48-2.9,1.77-4.45,1.29-6.86.58-14.88,4-20.38,8.09-13.08,5.73-27.07,7.31-40.73ZM159.1,180.74c0-1.33-1.72-3.34-3.07-3.82-11.13-3.95-22.33-7.75-33.62-11.21-1.29-.4-4.57,1.28-4.78,2.4q-2.82,15-4.66,30.22a6.21,6.21,0,0,0,2.87,5c14.13,6.08,28.4,11.82,43.39,18C159.23,207.11,159.32,193.92,159.1,180.74ZM336.44,655a30.89,30.89,0,0,0,4.37,0c17.94-4.07,35.89-8,53.74-12.46,1.7-.42,3.76-3.46,3.91-5.42.73-9,.92-18,1.15-27,.14-5.91,0-11.82,0-19.58Zm70.15-122.76,1.49.49L446.59,491l-1-1.63c-2.35,0-4.72.16-7.05,0-5.47-.46-9.52-3.3-11.44-8.38a126.09,126.09,0,0,1-5.25-16.83c-1.45-6.42-5.31-9.45-12.35-10.49C408.51,480.32,407.55,506.29,406.59,532.26Zm-242-365.62c13.85-17.15,27.7-34.29,42.3-52.38-14.14-1.5-26.29-2.68-38.4-4.14-4.89-.58-6.94.77-6.64,6,.43,7.79.26,15.62.29,23.43,0,8.76,0,17.52,0,26.28ZM453,190.05c-4.35-9.78-8-19.55-4.19-30.59.57-1.62-1.25-5.34-2.95-6.25-8.17-4.4-10.41-11.44-10.79-20-.17-3.74-1.7-7.43-2.9-12.31-8.08,6.06-16.59,8.88-16.13,20.24.33,7.89-1.7,15.86-2.57,23.81-.22,2,0,4.13,0,7.12,8.54-1.08,16-2.25,23.54-2.85,2.49-.19,5.1,1.09,7.65,1.7-.8,2.86-1,6.15-2.58,8.49-1.77,2.6-4.81,4.35-7.94,7l19.25,6.14A10.32,10.32,0,0,0,453,190.05ZM347.76,729.72c-7,5.52-7.26,8.5-1.4,15.06,6.76,7.57,8.69,16.75,7,26.3-1.95,11.28,3.66,24.91,13.7,30.61V714.51ZM341.87,531.8l-23.72,23,71.21,26.67Zm58.54,50c.54-12.13,1.23-24.25,1.45-36.38,0-1.34-2.4-3.56-4-4-14.95-3.65-30-7-45-10.37a16.67,16.67,0,0,0-3.4-.3l49.4,51.41ZM404,719.53c2.2-1,5-1.51,6.36-3.19s2.67-5.05,2-7c-4.12-12.72-4.3-12.67,9-15.15l.6-.09c5.66-.85,6.4-5.8,7.29-9.87a10.18,10.18,0,0,0-2-7.72c-5.48-6.37-11.64-12.15-17.32-18.36-2.1-2.29-3.6-5.13-5.37-7.72l-2.81,1.83c-.93,22.7-1.85,45.39-2.82,69.09C401.48,720.45,402.8,720.08,404,719.53ZM287.33,460l48.21-38.67L324.83,414c-5.59,4.77-5.59,4.75-13.7,1.47a3.24,3.24,0,0,0-2.26-.28c-4.36,2.35-9.6,4-12.73,7.49-4.47,5-8.56,9.41-15.12,8.46C283.11,440.75,285.12,449.91,287.33,460ZM165.51,363.69c0,.93,1.39,2.28,2.43,2.69,16.2,6.38,32.42,12.73,48.75,18.76,1.89.7,6.2-.08,6.46-1,.93-3.31,4.7-6.55,0-10.63-5.06-4.37-9.53-5.28-15.74-2.84-9,3.54-13.42,2.18-17.8-4.44-6.44-9.74-11.58-19.82-6.18-31.91.12-.26-.23-.72-.63-1.83l-17.38-4C165.4,341,165.34,352.33,165.51,363.69ZM326.73,538.4l-50.91-6.88-1.32,1.69c6.54,12.39,13.09,24.79,19.21,36.4ZM430.62,104.7c5.2,1.71,9.83-1.55,10.1-6.35.34-6,.32-11.72-6.12-15.37-3.76-2.13-6.8-5.53-10.14-8.38-10.45-8.94-10.84-8.91-19.54,1.93a2,2,0,0,0-.21.56c5.49,8.31,5.55,9.79-.8,17.22C413.52,98.1,421.93,101.83,430.62,104.7Zm21-27.66c-1.48-2.76-.33-6.92-.33-10.18-6.67-4.08-13.51-8.38-20.51-12.4a4.64,4.64,0,0,0-4.23.3c-3.12,2.65-5.88,5.72-9.28,9.14,8.48,7.12,16.21,13.7,24,20.17,6.28,5.2,12,4.87,18.95-1.26C457.19,80.9,453.05,79.7,451.63,77ZM144.9,335c-3,1.2-3.68,2.9-2.39,6.1a24.56,24.56,0,0,1,1.51,8.75c.15,10.33,6.51,19.13,17.1,22.89V328.42C154.84,331,149.88,333,144.9,335ZM366.18,710.37l-26.39-21.25-1.36,1a58.59,58.59,0,0,1,.65,6.32c0,4.34,1.19,9.41-.62,12.86-4.09,7.82-.06,13.16,3.86,20.06ZM164.8,370.43c.85,2.57,1,6.79,2.66,7.42,7.14,2.81,14.65,6.11,22.1,6.3s13.7,0,18.69,6.4c2.29,2.94,5.36,3.34,8.07-1.3l-50-19.71Zm98.3,59.23c-5.41.84-9.63-1-11.73-6a41.8,41.8,0,0,1-2.94-11.36c-.45-4.25-2-6.58-6.39-6.64-2.35,10.83,2.53,20.26,13.64,25.92,4,2.05,8.52,3.76,12.42-1.94A37,37,0,0,0,263.1,429.66Zm-41.6-65.12c-.29,1.84,2.33,4.34,4,6.14.44.46,3.26-.2,3.63-1,2.19-4.6,4-9.39,6.13-14.72C224.88,355,222.77,356.33,221.5,364.54ZM250,390.66c-.65-1.89-5.63-2.29-8.92-3.46-1.37,11.2-.7,12.57,8.57,16.34C249.92,398.61,251.21,394.2,250,390.66Zm-13.16,12.42c-3.86-4.93-9.46-7.73-15.07-10.26-1.05-.47-3.22,1.53-5.34,2.63l19.42,8.78Zm-11.36-13.24L236,396.7v-8.34h-9.9C225.88,388.85,225.67,389.35,225.46,389.84ZM1438.53,650.31c-.76.86-.25,4,.75,5.06q16.65,17.76,33.76,35.08c.91.92,4,1.21,4.81.45,7.79-7.76,15.68-15.47,22.76-23.85,5.65-6.68,6.32-15.23,6.9-23.8.42-6.23-3.68-9.31-6.64-13.43-1.61-2.26-2.55-5-3.95-7.4-4.12-7.16-6.1-15.75-14.29-21.23C1467.84,617.57,1453.08,633.84,1438.53,650.31Zm-36-28.38c1.48-.38,3.43-1.1,4.06-2.26,4.64-8.54,9-17.24,13.9-26.75-3.45-.68-5.53-1.26-7.63-1.47-13.76-1.4-27.54-2.54-41.27-4.17-3.78-.45-6.12.43-7.88,3.66-5.26,9.61-13.76,15.43-23.57,19.49-7.38,3.06-14.83,6-22.42,8.45-12.28,4-16.48,13.22-14.55,28.6C1336.63,638.89,1369.59,630.45,1402.53,621.93Zm-7.46,5.73c-28.85,7.41-57.67,15-86.55,22.22-4.74,1.19-7.65,2.83-7,8.34s-1.78,12.15,6.92,14.29c11.45,2.82,22.64,6.66,34,9.66a20.35,20.35,0,0,0,9.24-.21q12.54-2.79,24.88-6.41c1.78-.53,3.56-2.44,4.5-4.16,4-7.38,7.77-14.9,11.5-22.43,3.59-7.26,7-14.59,11.06-23C1400.05,626.7,1397.52,627,1395.07,627.66Zm40,20.49c14.7-16.16,29.44-32.28,44-48.61a8.11,8.11,0,0,0,1.64-6.51c-3.3-11.21-7.08-22.27-10.74-33.36-.07-.21-.64-.24-1-.37-2.31,6.79-4.66,13.53-6.91,20.31-3.65,11-13.5,14.68-23.38,8.68-2.82-1.72-5.59-3.52-8.88-5.61-6.74,13.39-13.19,26-19.38,38.8a5.19,5.19,0,0,0,.87,4.71c7.65,7.32,15.53,14.39,23.83,22C1434,648.68,1434.7,648.55,1435.06,648.15Zm-33.59,35.24c15.88,3.05,32,5,48,7.3,6.17.88,12.4,1.43,18.6,2.13l.64-1.54-61.49-63.73-24,47.9C1390,678.47,1395.46,682.24,1401.47,683.39Zm-2.39,3.59c-.31.53-.61,1.06-.92,1.58a57.33,57.33,0,0,0,3.21,5.13c3.61,4.71,7.89,9,10.91,14.06,5.09,8.54,22.34,15.69,31.74,12.13,11.23-4.25,21.2-10.31,28.25-22.57Zm6.13-120c-4.35,6.8-10.63,9.67-18.33,7.35-8-2.42-12.93-.13-16.66,8a8.91,8.91,0,0,0,2.55,1.19c15.48,1.72,31,3.48,46.47,4.89,1.57.14,4.34-1.57,4.84-3,2.68-7.75,4.81-15.69,7.08-23.38l-16.63-6C1411.55,559.45,1407.83,562.85,1405.21,567ZM1338.4,685.11c-10.51-3.16-21-6.39-31.63-9.2-1.07-.29-3.47,1.68-4.14,3.11a83.43,83.43,0,0,0-3.92,11.27,47.08,47.08,0,0,0-1,6c2.27.16,5.13,1.29,6.69.32,7.91-4.89,16.79-4.58,25.44-5.74,3.56-.47,7-1.94,11.61-3.29C1339.57,686,1339.07,685.31,1338.4,685.11ZM529.55,111.49A239.18,239.18,0,0,1,545.26,93.4c2.24-2.29,5.66-3.55,8.7-4.91,8.89-4,17.86-7.78,26.81-11.63a42.37,42.37,0,0,1,6.12-2.39c12.53-3.19,12.54-3.15,13.15-15.89a24.64,24.64,0,0,1,.15-3c.78-4.34-1.25-5.62-5.32-5.6-11,.06-22,.19-33-.4-5.69-.3-8.91,2-11.59,6.54-3.37,5.67-7,11.16-10.57,16.73l-25.23,39.66C522.57,118.9,523.94,118.58,529.55,111.49Zm22.81-67.17c.81,1,2.83,1.62,4.31,1.65,13.42.23,26.84.27,40.26.45,3.3,0,4.59-1.43,4.78-4.65.56-9.4,1.19-18.8,2-28.17.4-4.37-1.22-5.57-5.46-5.28-18.77,1.27-37.57,2.24-56.35,3.45-3.88.26-7.73,1.1-12.79,1.85C537.41,24.62,544.78,34.55,552.36,44.32ZM613.52,7.73c-3.16.13-5.53.67-5.83,4.41-.81,10-1.85,19.92-2.33,29.9-.07,1.44,2.41,4.21,3.84,4.3a214.92,214.92,0,0,0,23.4.34c8.67-.39,13.76-6,13.5-14.24a13.54,13.54,0,0,1,6.15-12.28c3.09-2.17,6.4-4,10-6.23C646.18,8.23,630,7.05,613.52,7.73ZM515.31,49.52c-3.87.12-8.54,11.74-6,14.64,3.58,4.15,3.05,7.6-1,10.73-7.81,6.06-8.45,14-6.11,22.7a55.47,55.47,0,0,0,3.11,8.44,48.81,48.81,0,0,0,3.26,5.31c1.69-1.47,3.8-2.65,5-4.45,7-10.5,13.72-21.14,20.52-31.76,5.12-8,10.2-16.06,16.33-25.72C537.51,49.41,526.4,49.19,515.31,49.52ZM525.6,15.65a4.91,4.91,0,0,0-4.28-1.18c-5.88,1.81-11.67,4-17.45,6.11-6.64,2.47-13.21,5.17-19.88,7.58a52,52,0,0,1-7.07,1.52l.06,1.6c2.41.67,4.77,1.68,7.22,1.95a118.09,118.09,0,0,0,13.17.73c6.24,0,10.74,2.37,13.24,8.34.54,1.3,2,3.12,3.13,3.14,11.09.23,22.18.14,35,.14C540.4,34.76,533.11,25.12,525.6,15.65ZM607.53,50.4a4.39,4.39,0,0,0-3.12,2.86c-.73,5.62-1,11.29-1.45,17,17-.93,24.57-6.26,27.9-20C622.63,50.27,615.07,50.15,607.53,50.4ZM1444,498.14c-9.06,4.18-10.46,2.92-16.6-4.47-2-2.43-5.21-4.05-8.14-5.46-.94-.45-3.39.59-4,1.62-.49.83.42,3,1.31,4,5.84,6.91,11.59,13.91,21.38,15.61,2.66.46,5.1,2.25,7.61,3.5,5.63,2.79,7.53,7.44,6.5,13.44-.29,1.7-.86,3.35-1.3,5l1.21.72L1471.92,504C1462.74,498,1454.84,493.15,1444,498.14Zm30.58,8.53-18.79,26.74c4.11,1.68,7.3,3.65,10.7,4.14,2.85.41,6.11-.47,8.89-1.56,4.53-1.78,8.81-4.19,13.88-6.66C1485,522.78,1480.11,515.18,1474.59,506.67Zm7,4c8.08,10.93,13.32,23.84,24,33.09-5.61-7.68-12.62-14.84-3.64-24.82l-19.15-9.41Zm-85.15-247.24c-6.42,3.11-13,5.15-17.83,11.31-4.31,5.53-4.37,9.44,3.06,14.1-.1-7.64,4.91-11.33,10.78-13.63a174.87,174.87,0,0,1,20.92-6.55c3.72-.93,5.18-2,3.84-6.05s-1.81-8.57-3-12.78c-.43-1.52-1.82-2.77-3.47-5.17C1406.37,257.86,1406,258.83,1396.42,263.46Zm4.37-51.4-1.86,1.37c1.24,3.16,1.61,7.48,3.92,9.22,3.39,2.56,11.44-.89,14-5.55Zm-27,227.82c.24,1.68,1.82,3.17,2.78,4.75,1.67-1.17,4-2,4.88-3.58,3.42-6,.75-10.94-8.84-16.16C1373,430.36,1373.08,435.16,1373.75,439.88Zm-17-46c-.43-4.54-1-9.07-1.27-13.62-.25-3.57-.87-6.67-5.25-7.1-3.43,8.15-1.41,14.22,6.66,20.57Zm.14-.15c3.07,5.74,6.16,11.46,10,18.56,2.29-10.59,1.62-12-5.55-15.66-1.58-.8-3-1.83-4.57-2.75ZM1369.69,438c-1-6.9,1-14.06-4-21.11C1364.29,428.39,1365.81,436.87,1369.69,438Zm2.92-30.87c-2.13,9.28-1.07,12.23,5.32,14.87C1378.84,413.78,1377.23,409.28,1372.61,407.15Zm137.8,356.25c5.65,2.33,14.07-2.74,20.34-12.26C1520.92,752.61,1511.64,758.21,1510.41,763.4ZM1557,736.55l14.53-8.42c-.42-.76-.83-1.53-1.25-2.3l-14.89,7.6Zm27.6-30.26-1.66,10.19,8-3.88ZM1332.88,447.46c-6,8.63-12.75,16.36-22.33,21.37-1,.54-.79,4.94.09,7,.61,1.49,3.63,3.31,5,2.92,4.39-1.25,8.41-3.74,12.75-5.23,6.28-2.16,11.41-4.82,9.82-12.89a3.94,3.94,0,0,1,.74-2.85c5.19-6.27.38-8.89-4.09-12A9.55,9.55,0,0,0,1332.88,447.46Zm7.45,26.92c-.45-.51-.9-1-1.36-1.52-7.38,3.31-14.8,6.56-22.12,10-.81.39-1.8,2.18-1.54,2.83,2.69,6.52,5.63,12.94,9.13,20.79C1330.36,494.51,1335.35,484.44,1340.33,474.38Zm-28.29,14c-.43-.89-2.08-2.15-2.56-1.92-2.77,1.3-6.87,2.46-7.65,4.67a6.36,6.36,0,0,0,4.7,8.36c3.64,1,7.22,2.25,12.1,3.8C1316.19,497.69,1314.23,493,1312,488.36Zm-13.9-13.22c-4.29,2.06-3.35,6.18-1.4,8.66,4.38,5.54,7.58-1.32,12.06-1.29C1306.08,474.06,1303.65,472.48,1298.14,475.14ZM965.86,567c-1.26,1.73-2.29,3.71-3.84,5.15-4.2,3.89-8.11,8.61-13.09,11-6.46,3.16-9.15,7.47-8.43,14.17.7,6.53.57,12.6-3.83,18.19-1.57,2-1.81,5.25-2.09,8-.64,6.37,2.69,13.42,6.46,13.5,6.52.12,8.47-5.23,10.48-10,3-7.17,5.94-14.41,8.49-21.76,1.76-5,2.87-10.32,4.19-15.51,1.11-4.4,2.28-8.8,3.1-13.26a85.9,85.9,0,0,0,.75-9ZM278.62,347.64c7.45,2.84,11.44,12.81,22.41,9.39C283.33,343.46,282.86,343.25,278.62,347.64ZM644.87,94.2H625.26c0,.56,0,1.11,0,1.66h19.62Zm7.64-6.08H638.1l0,1.7h14.2C652.38,89.25,652.45,88.68,652.51,88.12Zm23.37,70.63c-8.48-1.54-9.15-1.19-10.57,5.78C670.44,165.37,674,163.92,675.88,158.75ZM329.53,367.94c-9.51-5.32-12-4.91-15.39,2.67ZM1435.86,739c-6.66-5.08-9.64-3.29-11.38,7.17C1430.91,747.05,1432.92,742.43,1435.86,739Z"/></g></g></svg>