<svg id="Слой_1" data-name="Слой 1" xmlns="http://www.w3.org/2000/svg" viewBox="0 0 1717.33 870.67"><defs><style>.cls-1{fill:none;}</style></defs><path class="cls-1" d="M586.67,1005.27a12,12,0,1,1-12,12A12,12,0,0,1,586.67,1005.27ZM540.8,983.4a12,12,0,1,0,12-12A12,12,0,0,0,540.8,983.4Zm1253.07-33.87a12,12,0,1,0,12-12A12,12,0,0,0,1793.87,949.53Zm-1253.07,0a12,12,0,1,0,12-12A12,12,0,0,0,540.8,949.53Zm1286.93-33.86a12,12,0,1,0,12-12A12,12,0,0,0,1827.73,915.67Zm-135.46,0a12,12,0,1,0,12-12A12,12,0,0,0,1692.27,915.67Zm-1117.6,0a12,12,0,1,0,12-12A12,12,0,0,0,574.67,915.67Zm-33.87,0a12,12,0,1,0,12-12A12,12,0,0,0,540.8,915.67Zm-33.87,0a12,12,0,1,0,12-12A12,12,0,0,0,506.93,915.67Zm1219.2-33.87a12,12,0,1,0,12-12A12,12,0,0,0,1726.13,881.8Zm-33.86,0a12,12,0,1,0,12-12A12,12,0,0,0,1692.27,881.8Zm-135.47,0a12,12,0,1,0,12-12A12,12,0,0,0,1556.8,881.8Zm-508,0a12,12,0,1,0,12-12A12,12,0,0,0,1048.8,881.8Zm-33.87,0a12,12,0,1,0,12-12A12,12,0,0,0,1014.93,881.8Zm-406.4,0a12,12,0,1,0,12-12A12,12,0,0,0,608.53,881.8Zm-33.86,0a12,12,0,1,0,12-12A12,12,0,0,0,574.67,881.8Zm-33.87,0a12,12,0,1,0,12-12A12,12,0,0,0,540.8,881.8Zm-33.87,0a12,12,0,1,0,12-12A12,12,0,0,0,506.93,881.8Zm1219.2-33.87a12,12,0,1,0,12-12A12,12,0,0,0,1726.13,847.93Zm-33.86,0a12,12,0,1,0,12-12A12,12,0,0,0,1692.27,847.93Zm-33.87,0a12,12,0,1,0,12-12A12,12,0,0,0,1658.4,847.93Zm-33.87,0a12,12,0,1,0,12-12A12,12,0,0,0,1624.53,847.93Zm-33.86,0a12,12,0,1,0,12-12A12,12,0,0,0,1590.67,847.93Zm-33.87,0a12,12,0,1,0,12-12A12,12,0,0,0,1556.8,847.93Zm-474.13,0a12,12,0,1,0,12-12A12,12,0,0,0,1082.67,847.93Zm-33.87,0a12,12,0,1,0,12-12A12,12,0,0,0,1048.8,847.93Zm-33.87,0a12,12,0,1,0,12-12A12,12,0,0,0,1014.93,847.93Zm-406.4,0a12,12,0,1,0,12-12A12,12,0,0,0,608.53,847.93Zm-33.86,0a12,12,0,1,0,12-12A12,12,0,0,0,574.67,847.93Zm-33.87,0a12,12,0,1,0,12-12A12,12,0,0,0,540.8,847.93Zm-33.87,0a12,12,0,1,0,12-12A12,12,0,0,0,506.93,847.93ZM1760,814.07a12,12,0,1,0,12-12A12,12,0,0,0,1760,814.07Zm-33.87,0a12,12,0,1,0,12-12A12,12,0,0,0,1726.13,814.07Zm-33.86,0a12,12,0,1,0,12-12A12,12,0,0,0,1692.27,814.07Zm-33.87,0a12,12,0,1,0,12-12A12,12,0,0,0,1658.4,814.07Zm-33.87,0a12,12,0,1,0,12-12A12,12,0,0,0,1624.53,814.07Zm-33.86,0a12,12,0,1,0,12-12A12,12,0,0,0,1590.67,814.07Zm-33.87,0a12,12,0,1,0,12-12A12,12,0,0,0,1556.8,814.07Zm-406.4,0a12,12,0,1,0,12-12A12,12,0,0,0,1150.4,814.07Zm-67.73,0a12,12,0,1,0,12-12A12,12,0,0,0,1082.67,814.07Zm-33.87,0a12,12,0,1,0,12-12A12,12,0,0,0,1048.8,814.07Zm-33.87,0a12,12,0,1,0,12-12A12,12,0,0,0,1014.93,814.07Zm-33.86,0a12,12,0,1,0,12-12A12,12,0,0,0,981.07,814.07Zm-338.67,0a12,12,0,1,0,12-12A12,12,0,0,0,642.4,814.07Zm-33.87,0a12,12,0,1,0,12-12A12,12,0,0,0,608.53,814.07Zm-33.86,0a12,12,0,1,0,12-12A12,12,0,0,0,574.67,814.07Zm-33.87,0a12,12,0,1,0,12-12A12,12,0,0,0,540.8,814.07Zm-33.87,0a12,12,0,1,0,12-12A12,12,0,0,0,506.93,814.07Zm1219.2-33.87a12,12,0,1,0,12-12A12,12,0,0,0,1726.13,780.2Zm-33.86,0a12,12,0,1,0,12-12A12,12,0,0,0,1692.27,780.2Zm-33.87,0a12,12,0,1,0,12-12A12,12,0,0,0,1658.4,780.2Zm-33.87,0a12,12,0,1,0,12-12A12,12,0,0,0,1624.53,780.2Zm-33.86,0a12,12,0,1,0,12-12A12,12,0,0,0,1590.67,780.2Zm-406.4,0a12,12,0,1,0,12-12A12,12,0,0,0,1184.27,780.2Zm-33.87,0a12,12,0,1,0,12-12A12,12,0,0,0,1150.4,780.2Zm-33.87,0a12,12,0,1,0,12-12A12,12,0,0,0,1116.53,780.2Zm-33.86,0a12,12,0,1,0,12-12A12,12,0,0,0,1082.67,780.2Zm-33.87,0a12,12,0,1,0,12-12A12,12,0,0,0,1048.8,780.2Zm-33.87,0a12,12,0,1,0,12-12A12,12,0,0,0,1014.93,780.2Zm-33.86,0a12,12,0,1,0,12-12A12,12,0,0,0,981.07,780.2Zm-304.8,0a12,12,0,1,0,12-12A12,12,0,0,0,676.27,780.2Zm-33.87,0a12,12,0,1,0,12-12A12,12,0,0,0,642.4,780.2Zm-33.87,0a12,12,0,1,0,12-12A12,12,0,0,0,608.53,780.2Zm-33.86,0a12,12,0,1,0,12-12A12,12,0,0,0,574.67,780.2Zm-33.87,0a12,12,0,1,0,12-12A12,12,0,0,0,540.8,780.2Zm-33.87,0a12,12,0,1,0,12-12A12,12,0,0,0,506.93,780.2Zm1219.2-33.87a12,12,0,1,0,12-12A12,12,0,0,0,1726.13,746.33Zm-67.73,0a12,12,0,1,0,12-12A12,12,0,0,0,1658.4,746.33Zm-33.87,0a12,12,0,1,0,12-12A12,12,0,0,0,1624.53,746.33Zm-440.26,0a12,12,0,1,0,12-12A12,12,0,0,0,1184.27,746.33Zm-67.74,0a12,12,0,1,0,12-12A12,12,0,0,0,1116.53,746.33Zm-33.86,0a12,12,0,1,0,12-12A12,12,0,0,0,1082.67,746.33Zm-33.87,0a12,12,0,1,0,12-12A12,12,0,0,0,1048.8,746.33Zm-33.87,0a12,12,0,1,0,12-12A12,12,0,0,0,1014.93,746.33Zm-33.86,0a12,12,0,1,0,12-12A12,12,0,0,0,981.07,746.33Zm-304.8,0a12,12,0,1,0,12-12A12,12,0,0,0,676.27,746.33Zm-33.87,0a12,12,0,1,0,12-12A12,12,0,0,0,642.4,746.33Zm-33.87,0a12,12,0,1,0,12-12A12,12,0,0,0,608.53,746.33Zm-33.86,0a12,12,0,1,0,12-12A12,12,0,0,0,574.67,746.33Zm-33.87,0a12,12,0,1,0,12-12A12,12,0,0,0,540.8,746.33Zm-33.87,0a12,12,0,1,0,12-12A12,12,0,0,0,506.93,746.33Zm-33.86,0a12,12,0,1,0,12-12A12,12,0,0,0,473.07,746.33ZM1760,712.47a12,12,0,1,0,12-12A12,12,0,0,0,1760,712.47Zm-33.87,0a12,12,0,1,0,12-12A12,12,0,0,0,1726.13,712.47Zm-101.6,0a12,12,0,1,0,12-12A12,12,0,0,0,1624.53,712.47Zm-508,0a12,12,0,1,0,12-12A12,12,0,0,0,1116.53,712.47Zm-33.86,0a12,12,0,1,0,12-12A12,12,0,0,0,1082.67,712.47Zm-33.87,0a12,12,0,1,0,12-12A12,12,0,0,0,1048.8,712.47Zm-33.87,0a12,12,0,1,0,12-12A12,12,0,0,0,1014.93,712.47Zm-33.86,0a12,12,0,1,0,12-12A12,12,0,0,0,981.07,712.47Zm-304.8,0a12,12,0,1,0,12-12A12,12,0,0,0,676.27,712.47Zm-33.87,0a12,12,0,1,0,12-12A12,12,0,0,0,642.4,712.47Zm-33.87,0a12,12,0,1,0,12-12A12,12,0,0,0,608.53,712.47Zm-33.86,0a12,12,0,1,0,12-12A12,12,0,0,0,574.67,712.47Zm-33.87,0a12,12,0,1,0,12-12A12,12,0,0,0,540.8,712.47Zm-33.87,0a12,12,0,1,0,12-12A12,12,0,0,0,506.93,712.47Zm-33.86,0a12,12,0,1,0,12-12A12,12,0,0,0,473.07,712.47Zm-33.87,0a12,12,0,1,0,12-12A12,12,0,0,0,439.2,712.47ZM1726.13,678.6a12,12,0,1,0,12-12A12,12,0,0,0,1726.13,678.6Zm-33.86,0a12,12,0,1,0,12-12A12,12,0,0,0,1692.27,678.6Zm-101.6,0a12,12,0,1,0,12-12A12,12,0,0,0,1590.67,678.6Zm-101.6,0a12,12,0,1,0,12-12A12,12,0,0,0,1489.07,678.6Zm-372.54,0a12,12,0,1,0,12-12A12,12,0,0,0,1116.53,678.6Zm-33.86,0a12,12,0,1,0,12-12A12,12,0,0,0,1082.67,678.6Zm-33.87,0a12,12,0,1,0,12-12A12,12,0,0,0,1048.8,678.6Zm-33.87,0a12,12,0,1,0,12-12A12,12,0,0,0,1014.93,678.6Zm-33.86,0a12,12,0,1,0,12-12A12,12,0,0,0,981.07,678.6Zm-372.54,0a12,12,0,1,0,12-12A12,12,0,0,0,608.53,678.6Zm-33.86,0a12,12,0,1,0,12-12A12,12,0,0,0,574.67,678.6Zm-33.87,0a12,12,0,1,0,12-12A12,12,0,0,0,540.8,678.6Zm-33.87,0a12,12,0,1,0,12-12A12,12,0,0,0,506.93,678.6Zm-33.86,0a12,12,0,1,0,12-12A12,12,0,0,0,473.07,678.6Zm-33.87,0a12,12,0,1,0,12-12A12,12,0,0,0,439.2,678.6Zm1185.33-33.87a12,12,0,1,0,12-12A12,12,0,0,0,1624.53,644.73Zm-33.86,0a12,12,0,1,0,12-12A12,12,0,0,0,1590.67,644.73Zm-33.87,0a12,12,0,1,0,12-12A12,12,0,0,0,1556.8,644.73Zm-33.87,0a12,12,0,1,0,12-12A12,12,0,0,0,1522.93,644.73Zm-33.86,0a12,12,0,1,0,12-12A12,12,0,0,0,1489.07,644.73Zm-338.67,0a12,12,0,1,0,12-12A12,12,0,0,0,1150.4,644.73Zm-33.87,0a12,12,0,1,0,12-12A12,12,0,0,0,1116.53,644.73Zm-33.86,0a12,12,0,1,0,12-12A12,12,0,0,0,1082.67,644.73Zm-33.87,0a12,12,0,1,0,12-12A12,12,0,0,0,1048.8,644.73Zm-33.87,0a12,12,0,1,0,12-12A12,12,0,0,0,1014.93,644.73Zm-33.86,0a12,12,0,1,0,12-12A12,12,0,0,0,981.07,644.73Zm-406.4,0a12,12,0,1,0,12-12A12,12,0,0,0,574.67,644.73Zm-33.87,0a12,12,0,1,0,12-12A12,12,0,0,0,540.8,644.73Zm-33.87,0a12,12,0,1,0,12-12A12,12,0,0,0,506.93,644.73Zm-33.86,0a12,12,0,1,0,12-12A12,12,0,0,0,473.07,644.73Zm1151.46-33.86a12,12,0,1,0,12-12A12,12,0,0,0,1624.53,610.87Zm-33.86,0a12,12,0,1,0,12-12A12,12,0,0,0,1590.67,610.87Zm-101.6,0a12,12,0,1,0,12-12A12,12,0,0,0,1489.07,610.87Zm-304.8,0a12,12,0,1,0,12-12A12,12,0,0,0,1184.27,610.87Zm-33.87,0a12,12,0,1,0,12-12A12,12,0,0,0,1150.4,610.87Zm-33.87,0a12,12,0,1,0,12-12A12,12,0,0,0,1116.53,610.87Zm-33.86,0a12,12,0,1,0,12-12A12,12,0,0,0,1082.67,610.87Zm-33.87,0a12,12,0,1,0,12-12A12,12,0,0,0,1048.8,610.87Zm-33.87,0a12,12,0,1,0,12-12A12,12,0,0,0,1014.93,610.87Zm-33.86,0a12,12,0,1,0,12-12A12,12,0,0,0,981.07,610.87Zm-33.87,0a12,12,0,1,0,12-12A12,12,0,0,0,947.2,610.87Zm-33.87,0a12,12,0,1,0,12-12A12,12,0,0,0,913.33,610.87Zm-33.86,0a12,12,0,1,0,12-12A12,12,0,0,0,879.47,610.87Zm-33.87,0a12,12,0,1,0,12-12A12,12,0,0,0,845.6,610.87Zm-304.8,0a12,12,0,1,0,12-12A12,12,0,0,0,540.8,610.87Zm-33.87,0a12,12,0,1,0,12-12A12,12,0,0,0,506.93,610.87Zm-33.86,0a12,12,0,1,0,12-12A12,12,0,0,0,473.07,610.87Zm-33.87,0a12,12,0,1,0,12-12A12,12,0,0,0,439.2,610.87Zm-33.87,0a12,12,0,1,0,12-12A12,12,0,0,0,405.33,610.87ZM1624.53,577a12,12,0,1,0,12-12A12,12,0,0,0,1624.53,577Zm-101.6,0a12,12,0,1,0,12-12A12,12,0,0,0,1522.93,577Zm-33.86,0a12,12,0,1,0,12-12A12,12,0,0,0,1489.07,577Zm-135.47,0a12,12,0,1,0,12-12A12,12,0,0,0,1353.6,577Zm-203.2,0a12,12,0,1,0,12-12A12,12,0,0,0,1150.4,577Zm-33.87,0a12,12,0,1,0,12-12A12,12,0,0,0,1116.53,577Zm-33.86,0a12,12,0,1,0,12-12A12,12,0,0,0,1082.67,577Zm-33.87,0a12,12,0,1,0,12-12A12,12,0,0,0,1048.8,577Zm-33.87,0a12,12,0,1,0,12-12A12,12,0,0,0,1014.93,577Zm-33.86,0a12,12,0,1,0,12-12A12,12,0,0,0,981.07,577Zm-33.87,0a12,12,0,1,0,12-12A12,12,0,0,0,947.2,577Zm-33.87,0a12,12,0,1,0,12-12A12,12,0,0,0,913.33,577Zm-33.86,0a12,12,0,1,0,12-12A12,12,0,0,0,879.47,577Zm-33.87,0a12,12,0,1,0,12-12A12,12,0,0,0,845.6,577Zm-33.87,0a12,12,0,1,0,12-12A12,12,0,0,0,811.73,577Zm-406.4,0a12,12,0,1,0,12-12A12,12,0,0,0,405.33,577Zm-33.86,0a12,12,0,1,0,12-12A12,12,0,0,0,371.47,577Zm1219.2-33.87a12,12,0,1,0,12-12A12,12,0,0,0,1590.67,543.13Zm-101.6,0a12,12,0,1,0,12-12A12,12,0,0,0,1489.07,543.13Zm-33.87,0a12,12,0,1,0,12-12A12,12,0,0,0,1455.2,543.13Zm-101.6,0a12,12,0,1,0,12-12A12,12,0,0,0,1353.6,543.13Zm-33.87,0a12,12,0,1,0,12-12A12,12,0,0,0,1319.73,543.13Zm-135.46,0a12,12,0,1,0,12-12A12,12,0,0,0,1184.27,543.13Zm-33.87,0a12,12,0,1,0,12-12A12,12,0,0,0,1150.4,543.13Zm-33.87,0a12,12,0,1,0,12-12A12,12,0,0,0,1116.53,543.13Zm-33.86,0a12,12,0,1,0,12-12A12,12,0,0,0,1082.67,543.13Zm-33.87,0a12,12,0,1,0,12-12A12,12,0,0,0,1048.8,543.13Zm-33.87,0a12,12,0,1,0,12-12A12,12,0,0,0,1014.93,543.13Zm-33.86,0a12,12,0,1,0,12-12A12,12,0,0,0,981.07,543.13Zm-33.87,0a12,12,0,1,0,12-12A12,12,0,0,0,947.2,543.13Zm-33.87,0a12,12,0,1,0,12-12A12,12,0,0,0,913.33,543.13Zm-33.86,0a12,12,0,1,0,12-12A12,12,0,0,0,879.47,543.13Zm-33.87,0a12,12,0,1,0,12-12A12,12,0,0,0,845.6,543.13Zm-33.87,0a12,12,0,1,0,12-12A12,12,0,0,0,811.73,543.13Zm-338.66,0a12,12,0,1,0,12-12A12,12,0,0,0,473.07,543.13Zm-101.6,0a12,12,0,1,0,12-12A12,12,0,0,0,371.47,543.13Zm-33.87,0a12,12,0,1,0,12-12A12,12,0,0,0,337.6,543.13Zm-33.87,0a12,12,0,1,0,12-12A12,12,0,0,0,303.73,543.13Zm1219.2-33.86a12,12,0,1,0,12-12A12,12,0,0,0,1522.93,509.27Zm-33.86,0a12,12,0,1,0,12-12A12,12,0,0,0,1489.07,509.27Zm-33.87,0a12,12,0,1,0,12-12A12,12,0,0,0,1455.2,509.27Zm-33.87,0a12,12,0,1,0,12-12A12,12,0,0,0,1421.33,509.27Zm-33.86,0a12,12,0,1,0,12-12A12,12,0,0,0,1387.47,509.27Zm-33.87,0a12,12,0,1,0,12-12A12,12,0,0,0,1353.6,509.27Zm-33.87,0a12,12,0,1,0,12-12A12,12,0,0,0,1319.73,509.27Zm-33.86,0a12,12,0,1,0,12-12A12,12,0,0,0,1285.87,509.27Zm-67.74,0a12,12,0,1,0,12-12A12,12,0,0,0,1218.13,509.27Zm-33.86,0a12,12,0,1,0,12-12A12,12,0,0,0,1184.27,509.27Zm-33.87,0a12,12,0,1,0,12-12A12,12,0,0,0,1150.4,509.27Zm-33.87,0a12,12,0,1,0,12-12A12,12,0,0,0,1116.53,509.27Zm-33.86,0a12,12,0,1,0,12-12A12,12,0,0,0,1082.67,509.27Zm-33.87,0a12,12,0,1,0,12-12A12,12,0,0,0,1048.8,509.27Zm-33.87,0a12,12,0,1,0,12-12A12,12,0,0,0,1014.93,509.27Zm-33.86,0a12,12,0,1,0,12-12A12,12,0,0,0,981.07,509.27Zm-33.87,0a12,12,0,1,0,12-12A12,12,0,0,0,947.2,509.27Zm-33.87,0a12,12,0,1,0,12-12A12,12,0,0,0,913.33,509.27Zm-33.86,0a12,12,0,1,0,12-12A12,12,0,0,0,879.47,509.27Zm-33.87,0a12,12,0,1,0,12-12A12,12,0,0,0,845.6,509.27Zm-33.87,0a12,12,0,1,0,12-12A12,12,0,0,0,811.73,509.27Zm-372.53,0a12,12,0,1,0,12-12A12,12,0,0,0,439.2,509.27Zm-101.6,0a12,12,0,1,0,12-12A12,12,0,0,0,337.6,509.27Zm-33.87,0a12,12,0,1,0,12-12A12,12,0,0,0,303.73,509.27Zm-33.86,0a12,12,0,1,0,12-12A12,12,0,0,0,269.87,509.27ZM1556.8,475.4a12,12,0,1,0,12-12A12,12,0,0,0,1556.8,475.4Zm-33.87,0a12,12,0,1,0,12-12A12,12,0,0,0,1522.93,475.4Zm-33.86,0a12,12,0,1,0,12-12A12,12,0,0,0,1489.07,475.4Zm-33.87,0a12,12,0,1,0,12-12A12,12,0,0,0,1455.2,475.4Zm-33.87,0a12,12,0,1,0,12-12A12,12,0,0,0,1421.33,475.4Zm-33.86,0a12,12,0,1,0,12-12A12,12,0,0,0,1387.47,475.4Zm-33.87,0a12,12,0,1,0,12-12A12,12,0,0,0,1353.6,475.4Zm-33.87,0a12,12,0,1,0,12-12A12,12,0,0,0,1319.73,475.4Zm-33.86,0a12,12,0,1,0,12-12A12,12,0,0,0,1285.87,475.4Zm-33.87,0a12,12,0,1,0,12-12A12,12,0,0,0,1252,475.4Zm-33.87,0a12,12,0,1,0,12-12A12,12,0,0,0,1218.13,475.4Zm-33.86,0a12,12,0,1,0,12-12A12,12,0,0,0,1184.27,475.4Zm-33.87,0a12,12,0,1,0,12-12A12,12,0,0,0,1150.4,475.4Zm-33.87,0a12,12,0,1,0,12-12A12,12,0,0,0,1116.53,475.4Zm-33.86,0a12,12,0,1,0,12-12A12,12,0,0,0,1082.67,475.4Zm-33.87,0a12,12,0,1,0,12-12A12,12,0,0,0,1048.8,475.4Zm-33.87,0a12,12,0,1,0,12-12A12,12,0,0,0,1014.93,475.4Zm-33.86,0a12,12,0,1,0,12-12A12,12,0,0,0,981.07,475.4Zm-33.87,0a12,12,0,1,0,12-12A12,12,0,0,0,947.2,475.4Zm-33.87,0a12,12,0,1,0,12-12A12,12,0,0,0,913.33,475.4Zm-33.86,0a12,12,0,1,0,12-12A12,12,0,0,0,879.47,475.4Zm-33.87,0a12,12,0,1,0,12-12A12,12,0,0,0,845.6,475.4Zm-406.4,0a12,12,0,1,0,12-12A12,12,0,0,0,439.2,475.4Zm-67.73,0a12,12,0,1,0,12-12A12,12,0,0,0,371.47,475.4Zm-33.87,0a12,12,0,1,0,12-12A12,12,0,0,0,337.6,475.4Zm-33.87,0a12,12,0,1,0,12-12A12,12,0,0,0,303.73,475.4Zm-33.86,0a12,12,0,1,0,12-12A12,12,0,0,0,269.87,475.4Zm1354.66-33.87a12,12,0,1,0,12-12A12,12,0,0,0,1624.53,441.53Zm-67.73,0a12,12,0,1,0,12-12A12,12,0,0,0,1556.8,441.53Zm-33.87,0a12,12,0,1,0,12-12A12,12,0,0,0,1522.93,441.53Zm-33.86,0a12,12,0,1,0,12-12A12,12,0,0,0,1489.07,441.53Zm-33.87,0a12,12,0,1,0,12-12A12,12,0,0,0,1455.2,441.53Zm-33.87,0a12,12,0,1,0,12-12A12,12,0,0,0,1421.33,441.53Zm-33.86,0a12,12,0,1,0,12-12A12,12,0,0,0,1387.47,441.53Zm-33.87,0a12,12,0,1,0,12-12A12,12,0,0,0,1353.6,441.53Zm-33.87,0a12,12,0,1,0,12-12A12,12,0,0,0,1319.73,441.53Zm-33.86,0a12,12,0,1,0,12-12A12,12,0,0,0,1285.87,441.53Zm-33.87,0a12,12,0,1,0,12-12A12,12,0,0,0,1252,441.53Zm-33.87,0a12,12,0,1,0,12-12A12,12,0,0,0,1218.13,441.53Zm-33.86,0a12,12,0,1,0,12-12A12,12,0,0,0,1184.27,441.53Zm-33.87,0a12,12,0,1,0,12-12A12,12,0,0,0,1150.4,441.53Zm-33.87,0a12,12,0,1,0,12-12A12,12,0,0,0,1116.53,441.53Zm-169.33,0a12,12,0,1,0,12-12A12,12,0,0,0,947.2,441.53Zm-33.87,0a12,12,0,1,0,12-12A12,12,0,0,0,913.33,441.53Zm-33.86,0a12,12,0,1,0,12-12A12,12,0,0,0,879.47,441.53Zm-406.4,0a12,12,0,1,0,12-12A12,12,0,0,0,473.07,441.53Zm-33.87,0a12,12,0,1,0,12-12A12,12,0,0,0,439.2,441.53Zm-33.87,0a12,12,0,1,0,12-12A12,12,0,0,0,405.33,441.53Zm-33.86,0a12,12,0,1,0,12-12A12,12,0,0,0,371.47,441.53Zm-33.87,0a12,12,0,1,0,12-12A12,12,0,0,0,337.6,441.53Zm-33.87,0a12,12,0,1,0,12-12A12,12,0,0,0,303.73,441.53Zm-33.86,0a12,12,0,1,0,12-12A12,12,0,0,0,269.87,441.53Zm-33.87,0a12,12,0,1,0,12-12A12,12,0,0,0,236,441.53Zm1422.4-33.86a12,12,0,1,0,12-12A12,12,0,0,0,1658.4,407.67Zm-67.73,0a12,12,0,1,0,12-12A12,12,0,0,0,1590.67,407.67Zm-33.87,0a12,12,0,1,0,12-12A12,12,0,0,0,1556.8,407.67Zm-33.87,0a12,12,0,1,0,12-12A12,12,0,0,0,1522.93,407.67Zm-33.86,0a12,12,0,1,0,12-12A12,12,0,0,0,1489.07,407.67Zm-33.87,0a12,12,0,1,0,12-12A12,12,0,0,0,1455.2,407.67Zm-33.87,0a12,12,0,1,0,12-12A12,12,0,0,0,1421.33,407.67Zm-33.86,0a12,12,0,1,0,12-12A12,12,0,0,0,1387.47,407.67Zm-33.87,0a12,12,0,1,0,12-12A12,12,0,0,0,1353.6,407.67Zm-33.87,0a12,12,0,1,0,12-12A12,12,0,0,0,1319.73,407.67Zm-33.86,0a12,12,0,1,0,12-12A12,12,0,0,0,1285.87,407.67Zm-33.87,0a12,12,0,1,0,12-12A12,12,0,0,0,1252,407.67Zm-33.87,0a12,12,0,1,0,12-12A12,12,0,0,0,1218.13,407.67Zm-33.86,0a12,12,0,1,0,12-12A12,12,0,0,0,1184.27,407.67Zm-33.87,0a12,12,0,1,0,12-12A12,12,0,0,0,1150.4,407.67Zm-33.87,0a12,12,0,1,0,12-12A12,12,0,0,0,1116.53,407.67Zm-33.86,0a12,12,0,1,0,12-12A12,12,0,0,0,1082.67,407.67Zm-33.87,0a12,12,0,1,0,12-12A12,12,0,0,0,1048.8,407.67Zm-33.87,0a12,12,0,1,0,12-12A12,12,0,0,0,1014.93,407.67Zm-33.86,0a12,12,0,1,0,12-12A12,12,0,0,0,981.07,407.67Zm-101.6,0a12,12,0,1,0,12-12A12,12,0,0,0,879.47,407.67Zm-33.87,0a12,12,0,1,0,12-12A12,12,0,0,0,845.6,407.67Zm-372.53,0a12,12,0,1,0,12-12A12,12,0,0,0,473.07,407.67Zm-33.87,0a12,12,0,1,0,12-12A12,12,0,0,0,439.2,407.67Zm-33.87,0a12,12,0,1,0,12-12A12,12,0,0,0,405.33,407.67Zm-33.86,0a12,12,0,1,0,12-12A12,12,0,0,0,371.47,407.67Zm-33.87,0a12,12,0,1,0,12-12A12,12,0,0,0,337.6,407.67Zm-33.87,0a12,12,0,1,0,12-12A12,12,0,0,0,303.73,407.67Zm-33.86,0a12,12,0,1,0,12-12A12,12,0,0,0,269.87,407.67Zm-33.87,0a12,12,0,1,0,12-12A12,12,0,0,0,236,407.67ZM1658.4,373.8a12,12,0,1,0,12-12A12,12,0,0,0,1658.4,373.8Zm-67.73,0a12,12,0,1,0,12-12A12,12,0,0,0,1590.67,373.8Zm-33.87,0a12,12,0,1,0,12-12A12,12,0,0,0,1556.8,373.8Zm-33.87,0a12,12,0,1,0,12-12A12,12,0,0,0,1522.93,373.8Zm-33.86,0a12,12,0,1,0,12-12A12,12,0,0,0,1489.07,373.8Zm-33.87,0a12,12,0,1,0,12-12A12,12,0,0,0,1455.2,373.8Zm-33.87,0a12,12,0,1,0,12-12A12,12,0,0,0,1421.33,373.8Zm-33.86,0a12,12,0,1,0,12-12A12,12,0,0,0,1387.47,373.8Zm-33.87,0a12,12,0,1,0,12-12A12,12,0,0,0,1353.6,373.8Zm-33.87,0a12,12,0,1,0,12-12A12,12,0,0,0,1319.73,373.8Zm-33.86,0a12,12,0,1,0,12-12A12,12,0,0,0,1285.87,373.8Zm-33.87,0a12,12,0,1,0,12-12A12,12,0,0,0,1252,373.8Zm-33.87,0a12,12,0,1,0,12-12A12,12,0,0,0,1218.13,373.8Zm-33.86,0a12,12,0,1,0,12-12A12,12,0,0,0,1184.27,373.8Zm-33.87,0a12,12,0,1,0,12-12A12,12,0,0,0,1150.4,373.8Zm-33.87,0a12,12,0,1,0,12-12A12,12,0,0,0,1116.53,373.8Zm-67.73,0a12,12,0,1,0,12-12A12,12,0,0,0,1048.8,373.8Zm-33.87,0a12,12,0,1,0,12-12A12,12,0,0,0,1014.93,373.8Zm-33.86,0a12,12,0,1,0,12-12A12,12,0,0,0,981.07,373.8Zm-33.87,0a12,12,0,1,0,12-12A12,12,0,0,0,947.2,373.8Zm-33.87,0a12,12,0,1,0,12-12A12,12,0,0,0,913.33,373.8Zm-338.66,0a12,12,0,1,0,12-12A12,12,0,0,0,574.67,373.8Zm-33.87,0a12,12,0,1,0,12-12A12,12,0,0,0,540.8,373.8Zm-33.87,0a12,12,0,1,0,12-12A12,12,0,0,0,506.93,373.8Zm-33.86,0a12,12,0,1,0,12-12A12,12,0,0,0,473.07,373.8Zm-33.87,0a12,12,0,1,0,12-12A12,12,0,0,0,439.2,373.8Zm-33.87,0a12,12,0,1,0,12-12A12,12,0,0,0,405.33,373.8Zm-33.86,0a12,12,0,1,0,12-12A12,12,0,0,0,371.47,373.8Zm-33.87,0a12,12,0,1,0,12-12A12,12,0,0,0,337.6,373.8Zm-33.87,0a12,12,0,1,0,12-12A12,12,0,0,0,303.73,373.8Zm-33.86,0a12,12,0,1,0,12-12A12,12,0,0,0,269.87,373.8Zm1320.8-33.87a12,12,0,1,0,12-12A12,12,0,0,0,1590.67,339.93Zm-33.87,0a12,12,0,1,0,12-12A12,12,0,0,0,1556.8,339.93Zm-33.87,0a12,12,0,1,0,12-12A12,12,0,0,0,1522.93,339.93Zm-33.86,0a12,12,0,1,0,12-12A12,12,0,0,0,1489.07,339.93Zm-33.87,0a12,12,0,1,0,12-12A12,12,0,0,0,1455.2,339.93Zm-33.87,0a12,12,0,1,0,12-12A12,12,0,0,0,1421.33,339.93Zm-33.86,0a12,12,0,1,0,12-12A12,12,0,0,0,1387.47,339.93Zm-33.87,0a12,12,0,1,0,12-12A12,12,0,0,0,1353.6,339.93Zm-33.87,0a12,12,0,1,0,12-12A12,12,0,0,0,1319.73,339.93Zm-33.86,0a12,12,0,1,0,12-12A12,12,0,0,0,1285.87,339.93Zm-33.87,0a12,12,0,1,0,12-12A12,12,0,0,0,1252,339.93Zm-33.87,0a12,12,0,1,0,12-12A12,12,0,0,0,1218.13,339.93Zm-33.86,0a12,12,0,1,0,12-12A12,12,0,0,0,1184.27,339.93Zm-33.87,0a12,12,0,1,0,12-12A12,12,0,0,0,1150.4,339.93Zm-33.87,0a12,12,0,1,0,12-12A12,12,0,0,0,1116.53,339.93Zm-33.86,0a12,12,0,1,0,12-12A12,12,0,0,0,1082.67,339.93Zm-33.87,0a12,12,0,1,0,12-12A12,12,0,0,0,1048.8,339.93Zm-33.87,0a12,12,0,1,0,12-12A12,12,0,0,0,1014.93,339.93Zm-33.86,0a12,12,0,1,0,12-12A12,12,0,0,0,981.07,339.93Zm-33.87,0a12,12,0,1,0,12-12A12,12,0,0,0,947.2,339.93Zm-33.87,0a12,12,0,1,0,12-12A12,12,0,0,0,913.33,339.93Zm-33.86,0a12,12,0,1,0,12-12A12,12,0,0,0,879.47,339.93Zm-270.94,0a12,12,0,1,0,12-12A12,12,0,0,0,608.53,339.93Zm-33.86,0a12,12,0,1,0,12-12A12,12,0,0,0,574.67,339.93Zm-33.87,0a12,12,0,1,0,12-12A12,12,0,0,0,540.8,339.93Zm-33.87,0a12,12,0,1,0,12-12A12,12,0,0,0,506.93,339.93Zm-33.86,0a12,12,0,1,0,12-12A12,12,0,0,0,473.07,339.93Zm-33.87,0a12,12,0,1,0,12-12A12,12,0,0,0,439.2,339.93Zm-33.87,0a12,12,0,1,0,12-12A12,12,0,0,0,405.33,339.93Zm-33.86,0a12,12,0,1,0,12-12A12,12,0,0,0,371.47,339.93Zm-33.87,0a12,12,0,1,0,12-12A12,12,0,0,0,337.6,339.93Zm-33.87,0a12,12,0,1,0,12-12A12,12,0,0,0,303.73,339.93Zm-33.86,0a12,12,0,1,0,12-12A12,12,0,0,0,269.87,339.93Zm1320.8-33.86a12,12,0,1,0,12-12A12,12,0,0,0,1590.67,306.07Zm-33.87,0a12,12,0,1,0,12-12A12,12,0,0,0,1556.8,306.07Zm-33.87,0a12,12,0,1,0,12-12A12,12,0,0,0,1522.93,306.07Zm-33.86,0a12,12,0,1,0,12-12A12,12,0,0,0,1489.07,306.07Zm-33.87,0a12,12,0,1,0,12-12A12,12,0,0,0,1455.2,306.07Zm-33.87,0a12,12,0,1,0,12-12A12,12,0,0,0,1421.33,306.07Zm-33.86,0a12,12,0,1,0,12-12A12,12,0,0,0,1387.47,306.07Zm-33.87,0a12,12,0,1,0,12-12A12,12,0,0,0,1353.6,306.07Zm-33.87,0a12,12,0,1,0,12-12A12,12,0,0,0,1319.73,306.07Zm-33.86,0a12,12,0,1,0,12-12A12,12,0,0,0,1285.87,306.07Zm-33.87,0a12,12,0,1,0,12-12A12,12,0,0,0,1252,306.07Zm-33.87,0a12,12,0,1,0,12-12A12,12,0,0,0,1218.13,306.07Zm-33.86,0a12,12,0,1,0,12-12A12,12,0,0,0,1184.27,306.07Zm-33.87,0a12,12,0,1,0,12-12A12,12,0,0,0,1150.4,306.07Zm-33.87,0a12,12,0,1,0,12-12A12,12,0,0,0,1116.53,306.07Zm-33.86,0a12,12,0,1,0,12-12A12,12,0,0,0,1082.67,306.07Zm-33.87,0a12,12,0,1,0,12-12A12,12,0,0,0,1048.8,306.07Zm-33.87,0a12,12,0,1,0,12-12A12,12,0,0,0,1014.93,306.07Zm-33.86,0a12,12,0,1,0,12-12A12,12,0,0,0,981.07,306.07Zm-33.87,0a12,12,0,1,0,12-12A12,12,0,0,0,947.2,306.07Zm-67.73,0a12,12,0,1,0,12-12A12,12,0,0,0,879.47,306.07Zm-270.94,0a12,12,0,1,0,12-12A12,12,0,0,0,608.53,306.07Zm-33.86,0a12,12,0,1,0,12-12A12,12,0,0,0,574.67,306.07Zm-33.87,0a12,12,0,1,0,12-12A12,12,0,0,0,540.8,306.07Zm-67.73,0a12,12,0,1,0,12-12A12,12,0,0,0,473.07,306.07Zm-33.87,0a12,12,0,1,0,12-12A12,12,0,0,0,439.2,306.07Zm-33.87,0a12,12,0,1,0,12-12A12,12,0,0,0,405.33,306.07Zm-33.86,0a12,12,0,1,0,12-12A12,12,0,0,0,371.47,306.07Zm-33.87,0a12,12,0,1,0,12-12A12,12,0,0,0,337.6,306.07Zm-33.87,0a12,12,0,1,0,12-12A12,12,0,0,0,303.73,306.07Zm-33.86,0a12,12,0,1,0,12-12A12,12,0,0,0,269.87,306.07Zm-101.6,0a12,12,0,1,0,12-12A12,12,0,0,0,168.27,306.07Zm-33.87,0a12,12,0,1,0,12-12A12,12,0,0,0,134.4,306.07Zm1524-33.87a12,12,0,1,0,12-12A12,12,0,0,0,1658.4,272.2Zm-101.6,0a12,12,0,1,0,12-12A12,12,0,0,0,1556.8,272.2Zm-33.87,0a12,12,0,1,0,12-12A12,12,0,0,0,1522.93,272.2Zm-33.86,0a12,12,0,1,0,12-12A12,12,0,0,0,1489.07,272.2Zm-33.87,0a12,12,0,1,0,12-12A12,12,0,0,0,1455.2,272.2Zm-33.87,0a12,12,0,1,0,12-12A12,12,0,0,0,1421.33,272.2Zm-33.86,0a12,12,0,1,0,12-12A12,12,0,0,0,1387.47,272.2Zm-33.87,0a12,12,0,1,0,12-12A12,12,0,0,0,1353.6,272.2Zm-33.87,0a12,12,0,1,0,12-12A12,12,0,0,0,1319.73,272.2Zm-33.86,0a12,12,0,1,0,12-12A12,12,0,0,0,1285.87,272.2Zm-33.87,0a12,12,0,1,0,12-12A12,12,0,0,0,1252,272.2Zm-33.87,0a12,12,0,1,0,12-12A12,12,0,0,0,1218.13,272.2Zm-33.86,0a12,12,0,1,0,12-12A12,12,0,0,0,1184.27,272.2Zm-33.87,0a12,12,0,1,0,12-12A12,12,0,0,0,1150.4,272.2Zm-33.87,0a12,12,0,1,0,12-12A12,12,0,0,0,1116.53,272.2Zm-33.86,0a12,12,0,1,0,12-12A12,12,0,0,0,1082.67,272.2Zm-33.87,0a12,12,0,1,0,12-12A12,12,0,0,0,1048.8,272.2Zm-33.87,0a12,12,0,1,0,12-12A12,12,0,0,0,1014.93,272.2Zm-33.86,0a12,12,0,1,0,12-12A12,12,0,0,0,981.07,272.2Zm-33.87,0a12,12,0,1,0,12-12A12,12,0,0,0,947.2,272.2Zm-372.53,0a12,12,0,1,0,12-12A12,12,0,0,0,574.67,272.2Zm-33.87,0a12,12,0,1,0,12-12A12,12,0,0,0,540.8,272.2Zm-67.73,0a12,12,0,1,0,12-12A12,12,0,0,0,473.07,272.2Zm-33.87,0a12,12,0,1,0,12-12A12,12,0,0,0,439.2,272.2Zm-33.87,0a12,12,0,1,0,12-12A12,12,0,0,0,405.33,272.2Zm-33.86,0a12,12,0,1,0,12-12A12,12,0,0,0,371.47,272.2Zm-33.87,0a12,12,0,1,0,12-12A12,12,0,0,0,337.6,272.2Zm-33.87,0a12,12,0,1,0,12-12A12,12,0,0,0,303.73,272.2Zm-33.86,0a12,12,0,1,0,12-12A12,12,0,0,0,269.87,272.2Zm-33.87,0a12,12,0,1,0,12-12A12,12,0,0,0,236,272.2Zm-33.87,0a12,12,0,1,0,12-12A12,12,0,0,0,202.13,272.2Zm-33.86,0a12,12,0,1,0,12-12A12,12,0,0,0,168.27,272.2Zm1524-33.87a12,12,0,1,0,12-12A12,12,0,0,0,1692.27,238.33Zm-33.87,0a12,12,0,1,0,12-12A12,12,0,0,0,1658.4,238.33Zm-33.87,0a12,12,0,1,0,12-12A12,12,0,0,0,1624.53,238.33Zm-33.86,0a12,12,0,1,0,12-12A12,12,0,0,0,1590.67,238.33Zm-33.87,0a12,12,0,1,0,12-12A12,12,0,0,0,1556.8,238.33Zm-33.87,0a12,12,0,1,0,12-12A12,12,0,0,0,1522.93,238.33Zm-33.86,0a12,12,0,1,0,12-12A12,12,0,0,0,1489.07,238.33Zm-33.87,0a12,12,0,1,0,12-12A12,12,0,0,0,1455.2,238.33Zm-33.87,0a12,12,0,1,0,12-12A12,12,0,0,0,1421.33,238.33Zm-33.86,0a12,12,0,1,0,12-12A12,12,0,0,0,1387.47,238.33Zm-33.87,0a12,12,0,1,0,12-12A12,12,0,0,0,1353.6,238.33Zm-33.87,0a12,12,0,1,0,12-12A12,12,0,0,0,1319.73,238.33Zm-33.86,0a12,12,0,1,0,12-12A12,12,0,0,0,1285.87,238.33Zm-33.87,0a12,12,0,1,0,12-12A12,12,0,0,0,1252,238.33Zm-33.87,0a12,12,0,1,0,12-12A12,12,0,0,0,1218.13,238.33Zm-33.86,0a12,12,0,1,0,12-12A12,12,0,0,0,1184.27,238.33Zm-33.87,0a12,12,0,1,0,12-12A12,12,0,0,0,1150.4,238.33Zm-33.87,0a12,12,0,1,0,12-12A12,12,0,0,0,1116.53,238.33Zm-33.86,0a12,12,0,1,0,12-12A12,12,0,0,0,1082.67,238.33Zm-33.87,0a12,12,0,1,0,12-12A12,12,0,0,0,1048.8,238.33Zm-33.87,0a12,12,0,1,0,12-12A12,12,0,0,0,1014.93,238.33Zm-33.86,0a12,12,0,1,0,12-12A12,12,0,0,0,981.07,238.33Zm-169.34,0a12,12,0,1,0,12-12A12,12,0,0,0,811.73,238.33Zm-67.73,0a12,12,0,1,0,12-12A12,12,0,0,0,744,238.33Zm-33.87,0a12,12,0,1,0,12-12A12,12,0,0,0,710.13,238.33Zm-33.86,0a12,12,0,1,0,12-12A12,12,0,0,0,676.27,238.33Zm-67.74,0a12,12,0,1,0,12-12A12,12,0,0,0,608.53,238.33Zm-33.86,0a12,12,0,1,0,12-12A12,12,0,0,0,574.67,238.33Zm-33.87,0a12,12,0,1,0,12-12A12,12,0,0,0,540.8,238.33Zm-33.87,0a12,12,0,1,0,12-12A12,12,0,0,0,506.93,238.33Zm-33.86,0a12,12,0,1,0,12-12A12,12,0,0,0,473.07,238.33Zm-33.87,0a12,12,0,1,0,12-12A12,12,0,0,0,439.2,238.33Zm-33.87,0a12,12,0,1,0,12-12A12,12,0,0,0,405.33,238.33Zm-33.86,0a12,12,0,1,0,12-12A12,12,0,0,0,371.47,238.33Zm-33.87,0a12,12,0,1,0,12-12A12,12,0,0,0,337.6,238.33Zm-33.87,0a12,12,0,1,0,12-12A12,12,0,0,0,303.73,238.33Zm-33.86,0a12,12,0,1,0,12-12A12,12,0,0,0,269.87,238.33Zm-33.87,0a12,12,0,1,0,12-12A12,12,0,0,0,236,238.33Zm-33.87,0a12,12,0,1,0,12-12A12,12,0,0,0,202.13,238.33ZM1658.4,204.47a12,12,0,1,0,12-12A12,12,0,0,0,1658.4,204.47Zm-33.87,0a12,12,0,1,0,12-12A12,12,0,0,0,1624.53,204.47Zm-33.86,0a12,12,0,1,0,12-12A12,12,0,0,0,1590.67,204.47Zm-33.87,0a12,12,0,1,0,12-12A12,12,0,0,0,1556.8,204.47Zm-33.87,0a12,12,0,1,0,12-12A12,12,0,0,0,1522.93,204.47Zm-33.86,0a12,12,0,1,0,12-12A12,12,0,0,0,1489.07,204.47Zm-33.87,0a12,12,0,1,0,12-12A12,12,0,0,0,1455.2,204.47Zm-33.87,0a12,12,0,1,0,12-12A12,12,0,0,0,1421.33,204.47Zm-33.86,0a12,12,0,1,0,12-12A12,12,0,0,0,1387.47,204.47Zm-33.87,0a12,12,0,1,0,12-12A12,12,0,0,0,1353.6,204.47Zm-33.87,0a12,12,0,1,0,12-12A12,12,0,0,0,1319.73,204.47Zm-33.86,0a12,12,0,1,0,12-12A12,12,0,0,0,1285.87,204.47Zm-33.87,0a12,12,0,1,0,12-12A12,12,0,0,0,1252,204.47Zm-33.87,0a12,12,0,1,0,12-12A12,12,0,0,0,1218.13,204.47Zm-33.86,0a12,12,0,1,0,12-12A12,12,0,0,0,1184.27,204.47Zm-67.74,0a12,12,0,1,0,12-12A12,12,0,0,0,1116.53,204.47Zm-101.6,0a12,12,0,1,0,12-12A12,12,0,0,0,1014.93,204.47Zm-203.2,0a12,12,0,1,0,12-12A12,12,0,0,0,811.73,204.47Zm-33.86,0a12,12,0,1,0,12-12A12,12,0,0,0,777.87,204.47Zm-33.87,0a12,12,0,1,0,12-12A12,12,0,0,0,744,204.47Zm-33.87,0a12,12,0,1,0,12-12A12,12,0,0,0,710.13,204.47Zm-33.86,0a12,12,0,1,0,12-12A12,12,0,0,0,676.27,204.47Zm-67.74,0a12,12,0,1,0,12-12A12,12,0,0,0,608.53,204.47Zm-33.86,0a12,12,0,1,0,12-12A12,12,0,0,0,574.67,204.47Zm-33.87,0a12,12,0,1,0,12-12A12,12,0,0,0,540.8,204.47Zm-33.87,0a12,12,0,1,0,12-12A12,12,0,0,0,506.93,204.47Zm-33.86,0a12,12,0,1,0,12-12A12,12,0,0,0,473.07,204.47Zm-33.87,0a12,12,0,1,0,12-12A12,12,0,0,0,439.2,204.47Zm-33.87,0a12,12,0,1,0,12-12A12,12,0,0,0,405.33,204.47Zm914.4-33.87a12,12,0,1,0,12-12A12,12,0,0,0,1319.73,170.6Zm-338.66,0a12,12,0,1,0,12-12A12,12,0,0,0,981.07,170.6Zm-169.34,0a12,12,0,1,0,12-12A12,12,0,0,0,811.73,170.6Zm-33.86,0a12,12,0,1,0,12-12A12,12,0,0,0,777.87,170.6Zm-33.87,0a12,12,0,1,0,12-12A12,12,0,0,0,744,170.6Zm-33.87,0a12,12,0,1,0,12-12A12,12,0,0,0,710.13,170.6Zm-33.86,0a12,12,0,1,0,12-12A12,12,0,0,0,676.27,170.6Zm-33.87,0a12,12,0,1,0,12-12A12,12,0,0,0,642.4,170.6Zm-33.87,0a12,12,0,1,0,12-12A12,12,0,0,0,608.53,170.6Zm-33.86,0a12,12,0,1,0,12-12A12,12,0,0,0,574.67,170.6Z" transform="translate(-134.4 -158.6)"/></svg>