<svg id="Слой_1" data-name="Слой 1" xmlns="http://www.w3.org/2000/svg" viewBox="0 0 1416.22 623.8"><defs><style>.cls-1{fill:none;stroke:#000;stroke-linecap:round;stroke-linejoin:round;stroke-width:2px;}</style></defs><path class="cls-1" d="M684.34,324.56H307.61v6.38H690.72" transform="translate(-290.68 -272.54)"/><path class="cls-1" d="M1587.78,345.29H997.19" transform="translate(-290.68 -272.54)"/><path class="cls-1" d="M639.65,410.66H377.83V417H639.65" transform="translate(-290.68 -272.54)"/><path class="cls-1" d="M1517.55,401.09c-2.25-9.2-9.58-4.57-14.37-4.58-124.5-.26-249-.08-373.5-.28-37.78-.06-75.56-1-113.33-1.52" transform="translate(-290.68 -272.54)"/><path class="cls-1" d="M1236.62,361.23c-4.45-3.56-9.61-1.47-14.37-1.48q-97.37-.25-194.73,0c-4.84,0-10.5-2.14-14.52,1.6.37,6.36,4.14,4.61,6.54,4.61q106.95.12,213.89,0c1.06,0,2.13-1,3.19-1.53" transform="translate(-290.68 -272.54)"/><path class="cls-1" d="M540.68,724.74c11,3.53,22.37,1.4,33.52,1.47,51.08.3,102.16.2,153.24,0,5.37,0,11.49,2.25,16.31-2.72-3-5-7.61-3.49-11.53-3.5q-93.37-.1-186.75,0c-1.6,0-3.19,1-4.79,1.53" transform="translate(-290.68 -272.54)"/><path class="cls-1" d="M1482.43,515.88l-399,1.6" transform="translate(-290.68 -272.54)"/><path class="cls-1" d="M1549.47,311.8H1156.81" transform="translate(-290.68 -272.54)"/><path class="cls-1" d="M1466.47,482.4H1083.39" transform="translate(-290.68 -272.54)"/><path class="cls-1" d="M1527.13,431.38H1153.62" transform="translate(-290.68 -272.54)"/><path class="cls-1" d="M1463.28,535H1102.54" transform="translate(-290.68 -272.54)"/><path class="cls-1" d="M387.45,366H553.51v-6.37H377.87" transform="translate(-290.68 -272.54)"/><path class="cls-1" d="M1252.58,415.44c-5,3.37-10.67,1.48-16,1.48q-162.81.22-325.62.11" transform="translate(-290.68 -272.54)"/><path class="cls-1" d="M1252.58,412.25c-5-3.38-10.67-1.48-16-1.48q-162.81-.22-325.62-.11" transform="translate(-290.68 -272.54)"/><path class="cls-1" d="M1619.71,327.75H1278.12" transform="translate(-290.68 -272.54)"/><path class="cls-1" d="M377.87,503.13H537.55v-6.38H377.87" transform="translate(-290.68 -272.54)"/><path class="cls-1" d="M1156.81,624.3c-1.63-8.58-8.46-4.58-12.77-4.59-74.49-.27-149-.19-223.46-.19H840.77" transform="translate(-290.68 -272.54)"/><path class="cls-1" d="M1236.62,498.35c-30.27-3.69-60.66-.78-91-1.52-18.08-.44-36.18-.21-54.27.06-2.67.05-7.22-2.75-8.07,2.74.31,5.19,4.07,3.43,6.47,3.43q71.84.13,143.66,0c1.06,0,2.13-1,3.19-1.53" transform="translate(-290.68 -272.54)"/><path class="cls-1" d="M579,689.67c40.93,3.63,81.94.63,122.91,1.57,8.06.18,16.14,0,25.87,0-2.38-4.3-3-6.25-3.52-6.24-48.42.83-96.88-2.13-145.26,1.46" transform="translate(-290.68 -272.54)"/><path class="cls-1" d="M1274.93,326.15c-5-3.37-10.67-1.47-16-1.48q-138.87-.23-277.74-.11" transform="translate(-290.68 -272.54)"/><path class="cls-1" d="M1274.93,329.34c-5,3.38-10.67,1.48-16,1.49q-138.87.23-277.74.11" transform="translate(-290.68 -272.54)"/><path class="cls-1" d="M1121.7,598.79c-1.39,6.22-6.57,6.55-11.17,6.27-57.45-3.48-114.95-1.56-172.39-1.07-32.48.28-64.92,2-97.37-.42" transform="translate(-290.68 -272.54)"/><path class="cls-1" d="M1533.51,413.84H1255.78" transform="translate(-290.68 -272.54)"/><path class="cls-1" d="M1447.32,464.86H1172.77" transform="translate(-290.68 -272.54)"/><path class="cls-1" d="M1498.4,448.92H1223.85" transform="translate(-290.68 -272.54)"/><path class="cls-1" d="M1482.43,378.77h-265" transform="translate(-290.68 -272.54)"/><path class="cls-1" d="M1086.58,568.5H824.8" transform="translate(-290.68 -272.54)"/><path class="cls-1" d="M1482.43,362.82H1239.81" transform="translate(-290.68 -272.54)"/><path class="cls-1" d="M1070.62,635.46c-23.88-3.61-47.89-1.2-71.83-1.46-42-.47-84.07-.2-126.1,0-4.33,0-9.5-1.9-12.93,1.58.38,6.38,4.14,4.62,6.54,4.63q100.56.12,201.12,0c1.07,0,2.13-1,3.2-1.53" transform="translate(-290.68 -272.54)"/><path class="cls-1" d="M745,705.61H515.14" transform="translate(-290.68 -272.54)"/><path class="cls-1" d="M1463.28,499.94H1239.81" transform="translate(-290.68 -272.54)"/><path class="cls-1" d="M377.87,375.58c.79,7.26,6.21,6.38,11.17,6.38H574.2c2.31,0,5,.53,4.79-3.19" transform="translate(-290.68 -272.54)"/><path class="cls-1" d="M1463.28,551H1259" transform="translate(-290.68 -272.54)"/><path class="cls-1" d="M588.57,452.11c.07-3.37.94-6.6-4.79-6.49-64.38,1.2-128.79-1.95-193.14,1.71" transform="translate(-290.68 -272.54)"/><path class="cls-1" d="M725.84,740.69H531.1" transform="translate(-290.68 -272.54)"/><path class="cls-1" d="M1214.27,380.36c-13.18,3.47-26.61,1.4-39.9,1.48-50.55.3-101.09.12-151.64.12" transform="translate(-290.68 -272.54)"/><path class="cls-1" d="M569.41,394.71c-54.27,0-108.54-.07-162.81.07-9.58,0-19.15,1-28.73,1.53" transform="translate(-290.68 -272.54)"/><path class="cls-1" d="M1638.86,791.71H1463.28" transform="translate(-290.68 -272.54)"/><path class="cls-1" d="M1635.67,825.19h-169.2" transform="translate(-290.68 -272.54)"/><path class="cls-1" d="M1635.67,809.25h-169.2" transform="translate(-290.68 -272.54)"/><path class="cls-1" d="M524.72,482.4h-166" transform="translate(-290.68 -272.54)"/><path class="cls-1" d="M1121.7,654.59H962.08" transform="translate(-290.68 -272.54)"/><path class="cls-1" d="M1176,549.36c-25.63-3.72-51.11-.41-76.69-1.86v7c25.58-1.43,51.07,1.54,76.7-2" transform="translate(-290.68 -272.54)"/><path class="cls-1" d="M1361.12,292.67H1207.89" transform="translate(-290.68 -272.54)"/><path class="cls-1" d="M1619.71,844.32H1466.47" transform="translate(-290.68 -272.54)"/><path class="cls-1" d="M1102.54,688.07H965.27" transform="translate(-290.68 -272.54)"/><path class="cls-1" d="M496,584.44c-22.44-3.41-44.74-.69-67.12-1.86v6.91c22.38-1.17,44.68,1.55,67.12-1.86" transform="translate(-290.68 -272.54)"/><path class="cls-1" d="M709.88,791.71H582.18" transform="translate(-290.68 -272.54)"/><path class="cls-1" d="M658.8,654.59H531.1" transform="translate(-290.68 -272.54)"/><path class="cls-1" d="M416.18,345.29H291.68" transform="translate(-290.68 -272.54)"/><path class="cls-1" d="M1105.73,705.61H981.23" transform="translate(-290.68 -272.54)"/><path class="cls-1" d="M1105.73,740.69H981.23" transform="translate(-290.68 -272.54)"/><path class="cls-1" d="M1619.71,774.17H1498.4" transform="translate(-290.68 -272.54)"/><path class="cls-1" d="M859.92,515.88c7.89,6,17.06,3,25.54,3,56.4-.27,112.84,1.81,169.17-1.83,5-.32,14.53,10.08,16-4.37" transform="translate(-290.68 -272.54)"/><path class="cls-1" d="M706.69,774.17H585.38" transform="translate(-290.68 -272.54)"/><path class="cls-1" d="M1102.54,758.23H984.42" transform="translate(-290.68 -272.54)"/><path class="cls-1" d="M1102.54,723.15H984.42" transform="translate(-290.68 -272.54)"/><path class="cls-1" d="M706.69,759.82a831.74,831.74,0,0,1-114.93,0" transform="translate(-290.68 -272.54)"/><path class="cls-1" d="M706.69,756.63a834.89,834.89,0,0,0-114.93,0" transform="translate(-290.68 -272.54)"/><path class="cls-1" d="M1054.66,673.72a662.37,662.37,0,0,1-102.16,0" transform="translate(-290.68 -272.54)"/><path class="cls-1" d="M1054.66,670.54a662.37,662.37,0,0,0-102.16,0" transform="translate(-290.68 -272.54)"/><path class="cls-1" d="M1083.39,774.17h-99" transform="translate(-290.68 -272.54)"/><path class="cls-1" d="M1674,710.4c-.4-7.18-5.91-4.68-9.58-4.7-27.67-.16-55.33-.09-83-.09" transform="translate(-290.68 -272.54)"/><path class="cls-1" d="M1089.77,793.3c-30.81-3.52-61.72-.67-92.58-1.59" transform="translate(-290.68 -272.54)"/><path class="cls-1" d="M470.45,431.38H377.87" transform="translate(-290.68 -272.54)"/><path class="cls-1" d="M674.76,826.78H582.18" transform="translate(-290.68 -272.54)"/><path class="cls-1" d="M582.18,842.73c29.74,3.63,59.6.6,89.39,1.59" transform="translate(-290.68 -272.54)"/><path class="cls-1" d="M671.57,809.25H585.38" transform="translate(-290.68 -272.54)"/><path class="cls-1" d="M416.18,315c-.59-2.36,1.85-6.34-3.19-6.35q-31.94-.08-63.85,0a4.76,4.76,0,0,0-3.14,1.57c-4.33,5,1.83,3.31,3.14,4.74" transform="translate(-290.68 -272.54)"/><path class="cls-1" d="M1035.5,431.38,933.34,433" transform="translate(-290.68 -272.54)"/><path class="cls-1" d="M1153.62,637.05h-79.81" transform="translate(-290.68 -272.54)"/><path class="cls-1" d="M377.87,515.88c11.29,5.6,23.56,3.86,35.08,2.8,18.15-1.65,36.22-.57,54.31-1.2" transform="translate(-290.68 -272.54)"/><path class="cls-1" d="M409.79,566.9c25.48,3.65,51.09.59,76.62,1.6" transform="translate(-290.68 -272.54)"/><path class="cls-1" d="M1191.93,568.5H1118.5" transform="translate(-290.68 -272.54)"/><path class="cls-1" d="M604.53,568.5H531.1" transform="translate(-290.68 -272.54)"/><path class="cls-1" d="M930.15,452.11c4.83-1.05,4.11-5.9,1.58-6-18.06-.71-36.17-.57-54.25-.16-2.66.06-1.28,4-1.6,6.16" transform="translate(-290.68 -272.54)"/><path class="cls-1" d="M1067.42,809.25h-67" transform="translate(-290.68 -272.54)"/><path class="cls-1" d="M962.08,452.11c.59-2.36-1.85-6.35,3.19-6.36,22.35,0,44.69,0,67,0,3.73,0,3.29,2.51,3.12,4.8,0,.57-.92,1.19-1.55,1.56-.4.23-1,0-1.57,0" transform="translate(-290.68 -272.54)"/><path class="cls-1" d="M997.19,822c8.3,6.92,49.17,6.92,57.47,0" transform="translate(-290.68 -272.54)"/><path class="cls-1" d="M776.92,324.56c-12.78.9-25.87-1.84-38.5,3.27,7.08,4.88,15.05,2.28,22.54,3.11" transform="translate(-290.68 -272.54)"/><path class="cls-1" d="M1118.5,672.13h-60.65" transform="translate(-290.68 -272.54)"/><path class="cls-1" d="M697.11,273.54H636.45" transform="translate(-290.68 -272.54)"/><path class="cls-1" d="M575.8,688.07H518.34" transform="translate(-290.68 -272.54)"/><path class="cls-1" d="M1329.2,568.5h-57.46" transform="translate(-290.68 -272.54)"/><path class="cls-1" d="M639.65,877.8H582.18" transform="translate(-290.68 -272.54)"/><path class="cls-1" d="M604.53,621.11c-18-3.86-36.2-.4-54.27-1.59" transform="translate(-290.68 -272.54)"/><path class="cls-1" d="M1431.36,568.5h-54.27" transform="translate(-290.68 -272.54)"/><path class="cls-1" d="M1051.46,844.32h-51.08" transform="translate(-290.68 -272.54)"/><path class="cls-1" d="M441.72,452.11c-17-1-34.15,1.92-51.08-1.6" transform="translate(-290.68 -272.54)"/><path class="cls-1" d="M636.45,860.27H585.38" transform="translate(-290.68 -272.54)"/><path class="cls-1" d="M1600.55,860.27h-51.08" transform="translate(-290.68 -272.54)"/><path class="cls-1" d="M1568.63,758.23h-51.08" transform="translate(-290.68 -272.54)"/><path class="cls-1" d="M1428.16,586h-47.88" transform="translate(-290.68 -272.54)"/><path class="cls-1" d="M550.26,431.38h-41.5" transform="translate(-290.68 -272.54)"/><path class="cls-1" d="M1220.66,447.33a108.91,108.91,0,0,0-41.5,0" transform="translate(-290.68 -272.54)"/><path class="cls-1" d="M1220.66,450.51c-11.56,3.69-23.43.58-35.12,1.6" transform="translate(-290.68 -272.54)"/><path class="cls-1" d="M588.57,758.23H553.45" transform="translate(-290.68 -272.54)"/><path class="cls-1" d="M1705.9,895.34h-35.12" transform="translate(-290.68 -272.54)"/><path class="cls-1" d="M620.49,895.34H585.38" transform="translate(-290.68 -272.54)"/><path class="cls-1" d="M1310.05,586h-35.12" transform="translate(-290.68 -272.54)"/><path class="cls-1" d="M1619.71,688.07h-35.12" transform="translate(-290.68 -272.54)"/><path class="cls-1" d="M914.19,464.86H879.07" transform="translate(-290.68 -272.54)"/><path class="cls-1" d="M981.23,362.82H949.31" transform="translate(-290.68 -272.54)"/><path class="cls-1" d="M413,535H381.06" transform="translate(-290.68 -272.54)"/><path class="cls-1" d="M1428.16,602h-31.92" transform="translate(-290.68 -272.54)"/><path class="cls-1" d="M550.26,551H518.34" transform="translate(-290.68 -272.54)"/><path class="cls-1" d="M387.45,448.92H361.91" transform="translate(-290.68 -272.54)"/><path class="cls-1" d="M1310.05,621.11c-6.13,2.61-14.53-8.37-19.16,3.19" transform="translate(-290.68 -272.54)"/><path class="cls-1" d="M1586.19,401.09q-9.59-10.84-19.16,0" transform="translate(-290.68 -272.54)"/><path class="cls-1" d="M1570.22,735.9c-4.07,10.84-13.78-.85-19.15,4.79" transform="translate(-290.68 -272.54)"/><path class="cls-1" d="M429,533.42a11.36,11.36,0,0,0-12.77,0" transform="translate(-290.68 -272.54)"/><path class="cls-1" d="M534.3,633.87c-4.83,1-4.07,6-1.59,6,30.35.57,60.72.37,91.09.37v-6.37H535.89" transform="translate(-290.68 -272.54)"/><path class="cls-1" d="M518.34,668.94c-3.73-.18-3.68,2.65-3,4.71.33,1,3,1.6,4.57,1.6q76.62.12,153.24-.06c.57,0,1.15-2,3.52-6.25H519.93" transform="translate(-290.68 -272.54)"/><path class="cls-1" d="M361.91,461.67c-3.73-.18-4,3-3,4.69,2.16,3.66,6.25,1.59,9.4,1.59q98.18.19,196.33,0c2.66,0,7.22,2.74,8.62-6.25H363.5" transform="translate(-290.68 -272.54)"/><path class="cls-1" d="M1051.46,461.67c-4.82,1.06-4.06,6-1.59,6,30.36.57,60.73.37,91.09.37v-6.38h-87.91" transform="translate(-290.68 -272.54)"/><path class="cls-1" d="M828,582.85c-3.73-.18-4.11,3.14-3,4.65,2.77,3.82,7.32,1.61,11,1.62q130.08.2,260.18,0c3.21,0,7.95,2.71,10.94-6.25H829.59" transform="translate(-290.68 -272.54)"/><path class="cls-1" d="M879.07,496.75c-1.29,6-1.29,6.29,3.2,6.33,14.89.13,29.79.05,44.69.05,16.49,0,33,.14,49.48-.15,2.67,0,7.22,2.76,8.61-6.23H880.67" transform="translate(-290.68 -272.54)"/></svg>