<svg id="Слой_2" data-name="Слой 2" xmlns="http://www.w3.org/2000/svg" viewBox="0 0 1882.35 923.61"><path d="M1291.57,320.67q180.93,0,361.85.15c4,0,10.22-3.22,11.65,4.44,1.62,8.64-3.49,9.07-10.19,9.05-69.06-.16-138.12-.05-207.18-.09q-254.6-.17-509.19-.37c-3.78,0-7.56.41-11.33.25-4.2-.17-9,1-9-6.35,0-7.51,4.35-7.06,9.45-7.05q117,.14,234,.14,64.95,0,129.9,0Zm89.13-76.31q204.1,0,408.2-.11c4,0,9.93,3,10.1-5.72.17-8.35-5.13-6.31-9.57-6.31q-223.17,0-446.33,0-185.53.1-371.07.53c-4.26,0-10.46-2.26-10.19,6,.27,8.48,6.65,5.27,10.67,5.27q204.1.19,408.19.11Zm-99.36,99.29q-199.93,0-399.87-.07c-4.51,0-7.88-.35-8.07,6-.22,7.29,4.44,5.38,8.23,5.38q101.51,0,203-.1,297.84.21,595.68.71c8.8,0,8.08-4.94,6.64-9.69s-6.53-2.31-9.87-2.31q-197.88-.21-395.75-.12Zm88.7-89.08H1016.5c-8.25,0-16.49,0-24.74-.12-4.49-.07-7.17,1.36-7.13,6.42,0,4.86,2.47,6.78,7,6.77,1.38,0,2.75.11,4.12.11l183.41.07q225.13.13,450.26.23c38.81,0,77.62-.6,116.43-.49,7.46,0,9.76-2.19,8.24-9.37-1.45-6.86-6.71-3.54-9.91-3.55q-187.08-.31-374.15-.18Zm-55.7,57.51q147.89,0,295.76-.13c4.58,0,11.29,2.92,11.53-6.87.24-10-6.35-6.87-11-6.87q-190.17-.1-380.33,0-107.19,0-214.38,0c-5,0-9.36-.59-9,7.09.29,6.81,3.68,6.51,8.65,6.5q149.41-.17,298.83-.08Zm43.22,163.26H1105.14c-4.68,0-9.51-1.39-9.58,6.6s4.23,7.74,9.82,7.71c26.78-.15,53.57-.13,80.36-.12q212.74,0,425.49.28c8.21,0,11.77-2.22,9.92-10.29-1.51-6.52-7.27-4-11.18-4q-126.2-.24-252.41-.12ZM1446.7,222.8q18.55,0,37.1,0,109.25.1,218.49.21c7,0,10.37-4.68,7.57-10.76-2.35-5.11-7.22-2.77-10.88-2.77q-177.8-.07-355.58.11c-49.47,0-98.94-.13-148.41-.08-3.72,0-8.61-2.06-10.19,4-2.24,8.59,2.34,9.51,9.43,9.5q126.24-.26,252.47-.11Zm-132.59,66.39c100,0,199.94-.13,299.91.22,8.66,0,8.34-4.4,6.85-9.43-1.43-4.82-6.47-2.53-9.82-2.54q-84.52-.21-169-.08-212.82,0-425.65.09c-4.36,0-9.8-2.11-9.5,6.34s5.81,5,9.4,5q148.92.17,297.84.09Zm33.33,156.43q52.53,0,105,0c46,0,92-.22,138,.06,7.18.05,9-2.54,8.38-9-.68-7.69-6.49-4.77-10.15-4.78q-133.89-.2-267.78,0c-72.1,0-144.2.17-216.29-.08-7.44,0-10,2.32-8.85,9.34,1.23,7.4,7.16,4,10.72,4q120.48.35,240.94.18Zm188.26-67.35q65.41,0,130.83.05c4.7,0,8.73.32,8.65-6.65-.07-6.47-3.38-7.33-8.45-7.19-3.77.1-7.55-.15-11.33-.15H1231c-12.7,0-25.41.13-38.11-.14-7.7-.16-9.55,3.85-8.28,10.37s6.73,3.56,10.12,3.57q117.43.31,234.87.15ZM1358.36,511.76c77.64,0,155.29-.13,232.94.21,7.2,0,7.81-2.64,7.58-8.3-.34-8.34-6.42-5.59-10.57-5.59q-230.88-.06-461.77,0c-4.76,0-8.45-.78-8.42,6.36,0,6.63,2.18,7.68,8.33,7.66,77.3-.24,154.61-.16,231.91-.16Zm-11-45.24H1589.5c4.73,0,9.69,1.33,9.41-6.69-.29-8.21-6-5.1-9.54-5.1q-242.68-.17-485.38,0c-3.59,0-8.18-2.12-8.31,5.29s3.92,6.41,8.45,6.41q121.61,0,243.2,0ZM346.16,244q122.14,0,244.3,0c3.45,0,7.79,1.79,7.77-4.82,0-6-2.89-6.15-7.8-6.15q-221.08-.19-442.18-.72-23.19,0-46.39.15c-2.18,0-5.31-1-5.86,2.43-.41,2.66-1,6.21.26,8,2.2,3,6.38,1.46,9.7,1.46q120.11.09,240.2.05ZM991.57,622.54q100,0,200,.09c4.32,0,7.37.12,7.33-5.53,0-4.92-1.32-8-6.85-7.88-1.72,0-3.44,0-5.15,0l-392.75.14c-4.92,0-10.27-1.92-10,7,.23,8,4.92,6.57,9.58,6.57H991.57ZM967.9,600.3q88.61,0,177.2.09c5.64,0,9-.79,9-7.6.08-7.59-4.87-6-9.07-6q-176.16-.12-352.34-.27c-5.82,0-8.6.82-8.61,7.7,0,7.41,4.2,6.15,8.65,6.15q87.57-.06,175.13,0Zm456.82-199.81c70.41,0,140.83-.11,211.24.19,6.33,0,6.16-2.61,6.44-7.19.37-5.89-2.65-5.66-7-5.65q-121.08.35-242.16.4c-58.73,0-117.46-.24-176.19-.34-4.31,0-9.77-2.85-10.08,5.73s5.37,6.22,9.56,6.22q104.09.13,208.15.06ZM356.34,378.21q82.38,0,164.76,0c4.5,0,9.5,1.75,9.84-6.38.36-9-5.09-6.89-10-6.91-5.83,0-11.66-.16-17.49-.17q-155-.24-309.93-.48c-5.46,0-9.89-.2-9.7,7.8.19,8.19,5.37,6.33,9.8,6.33q81.36.08,162.7,0Zm645.53,265.55q94.32,0,188.65.07c4.86,0,8.47.52,8.36-6.54-.11-7.28-4.58-5.26-8.31-5.26q-95.88-.06-191.75,0-91.76,0-183.5.11c-4.68,0-8.65-.66-8.5,6.47.16,7.78,5.06,4.58,8.5,4.59q93.28.08,186.55,0ZM261.63,267.88c32.64,0,65.27.09,97.91,0,27.82-.1,55.65-.6,83.47-.49,6.13,0,7.64-2.12,7.24-7.72-.56-7.72-6.3-5-10-5q-114.94-.28-229.88-.21c-42.6,0-85.21.11-127.81-.06-6.37,0-10.78.52-9.71,8.64.93,7,6.09,4.26,9.49,4.27q89.66.22,179.31.11ZM947.29,511.82c51.82,0,103.64-.13,155.45.17,5.92,0,7.42-1.33,7.54-7.19.19-9-5.88-6.68-10.52-6.68Q946.88,498,794,498c-4.44,0-9.5-1.82-9.87,6.32-.4,8.65,4.77,7.24,9.76,7.24H947.29Zm-11.51,44.79q19.05,0,38.11,0c42.57-.09,85.14-.36,127.71-.13,7.19,0,9.07-2.61,8.28-9-.84-6.78-6.08-4.36-9.6-4.37q-83.44-.2-166.9-.05c-53.57,0-107.14.16-160.71.05-5.81,0-9.94.21-9.46,7.81s6.12,5.2,9.84,5.21c54.24.18,108.48.12,162.73.12ZM357.64,320.78q-81.84,0-163.69,0c-4.77,0-10.23-2-10.13,6.83.1,9.16,6.12,6.47,10.56,6.49,23,.1,46-.19,69-.18q130.21,0,260.43.34c5.47,0,6.89-1.44,7.12-6.79.34-8.12-5-6.62-9.56-6.62q-81.84-.06-163.69,0ZM1391.55,421.92q88.07,0,176.12,0c4.3,0,8.53,1.86,8.73-5.77.2-7.93-4.16-6.75-9-6.74q-175.61.06-351.21.07c-4,0-8.92-2.21-9.17,5.67-.27,8.48,5.14,6.4,9.45,6.41q87.54.11,175.09.05ZM947.34,577.12c59,0,118.1-.23,177.14.28,7.25.06,7.33-2.59,7-7.67-.48-6.68-5.56-3.55-8.43-3.56q-114.82-.28-229.67-.19c-41.19,0-82.39.14-123.59,0-4.68,0-7,.72-6.62,6.09.32,4.24,1.35,5.59,6.07,5.57,59.37-.23,118.75-.15,178.13-.15ZM515.25,733.77c47.71,0,95.43-.15,143.14.2,5.6,0,6-1.85,6.32-6.3.48-7.18-3.63-7.45-9-7.41q-42.23.29-84.46.22-99.9,0-199.81-.1c-7.53,0-11.74,5-8.57,10.25,2.41,4,6.77,2.84,10.3,2.85q71,.19,142.08.09ZM358.55,354.84q82.44,0,164.88,0c3.85,0,7.22,1,7.42-5.19.22-6.62-3.24-6-7.66-6q-165.41,0-330.8-.27c-4.84,0-8.57-.36-8.38,6.6.2,7.34,5.1,5.07,8.63,5.08q83,.15,165.91.07ZM1078,489.47c4.79,0,9.5,1.18,9.47-6.76,0-7.35-3.71-7.15-9-7.14q-130.83.1-261.65-.06c-5.31,0-10.1-.77-10.06,7.47s5.07,6.47,9.61,6.47q64.9,0,129.8,0Q1012.11,489.46,1078,489.47ZM947.27,532.85h96.86c19.58,0,39.17-.19,58.74.17,6,.11,7.54-2,7.34-7.66-.24-6.61-4.79-4.56-8-4.56q-155.09-.12-310.17-.12c-4.41,0-7.73-.48-7.85,6-.13,7.26,4,6.35,8.56,6.34q77.28-.06,154.57,0Zm-34-5.3v.22H859.67l.28-.22ZM318.08,311.3H441.65c4,0,8.71,2.47,8.78-5.52.06-7.19-3-7.35-8.57-7.35q-124.62.06-249.24-.33c-5.66,0-8.84.42-8.71,7.48.13,6.88,3.63,6.54,8.54,6.52,41.87-.14,83.75-.08,125.63-.08ZM513.16,763.87c-39.85,0-79.7.06-119.55-.08-5.71,0-9.7-.12-9.54,7.8.16,8.1,5.08,6.48,9.66,6.48q119.55,0,239.1,0c4.66,0,9.56,1.43,9.67-6.58s-4.28-7.54-9.79-7.52c-39.85.12-79.7.06-119.55.06Zm-222.72-332q-60.3,0-120.61,0c-4.78,0-8.46-.3-8.4,6.68s3.93,6.81,8.58,6.85c10.3.07,20.61.29,30.91.26q104.07-.25,208.15-.68c4.63,0,10.84,1.84,10.79-6.83-.06-9-6.27-6.21-10.87-6.22q-59.26-.12-118.55-.05Zm10.24-10.2q66.92,0,133.82.06c4.56,0,7.63.2,7.64-6.14s-3.15-6.08-7.67-6.05c-21.62.12-43.24-.05-64.86-.06q-99.86,0-199.71-.05c-4.58,0-8.57-.75-8.5,6.43S165.2,422,170,422c43.57-.15,87.15-.09,130.73-.09Zm1157.91,99q-65.4,0-130.79,0c-4.42,0-9.63-2-9.49,6.41.14,8,5.26,5.67,9.08,5.68q130.77.13,261.54,0c4.18,0,9.85,2.49,10.06-6s-5.31-6.15-9.62-6.16q-65.38-.09-130.78,0Zm-935,234.25c44.27,0,88.53-.07,132.8.09,5,0,8.5.19,8.45-6.59,0-6.24-3.72-5.26-7.43-5.26q-132.81,0-265.62-.09c-4.52,0-7.71-.1-7.72,6.19s3.27,6.08,7.74,6.07q65.89-.15,131.78-.06Zm-22.85-44.65c44,0,87.94.06,131.91-.12,3.64,0,9.41,2.84,9.61-5.19.19-7.86-4.9-6.7-9.66-6.71q-131.4-.16-262.81-.43c-5.47,0-8.16,1-8.21,7.2-.07,6.94,4.24,5.49,8.27,5.48q65.44,0,130.89,0ZM1704.46,875.13c-37.08,0-74.17.06-111.26-.07-5.16,0-8.48.54-8.29,7.09.18,6,2.63,7.24,8.19,7.23q109.71-.24,219.43,0c5.35,0,9.07-.09,9.19-7.32.13-7.59-3.92-7-9.09-6.95-36.05.14-72.11.07-108.17.07Zm-.5-43.45c-36.39,0-72.78,0-109.18.08-3.28,0-7.34-1.86-9,3.86-2.38,8-.67,10,10.64,10q108.15-.07,216.29-.13c5.41,0,9,0,9-7.28,0-8.08-5-6.58-9.61-6.59q-54.08,0-108.15,0ZM524.5,786.59c-36.71,0-73.41.1-110.12-.11-5.63,0-7.85,1.46-7.89,7.41,0,6.41,3.58,6.09,8,6.08,14-.06,28.06.17,42.09.17q88.5,0,177-.13c4.59,0,8.73.27,8.71-6.74,0-7.23-4.09-6.14-8.71-6.12-36.36.11-72.72.06-109.08.06ZM311.76,399.79q56.7,0,113.4,0c10,0,19.93.18,29.89.17,4.73,0,9.86,1,9.56-6.87-.29-7.54-5.56-4.31-8.89-4.66-4.42-.46-8.93,0-13.39-.05q-135.55-.13-271.11-.28c-4.52,0-9.78-1.79-9.72,6.38.07,8.7,6.05,5.73,10.07,5.75,46.73.15,93.46.09,140.19.09ZM666.8,177c16.83,0,33.67,0,50.51,0,32,.08,63.91.1,95.86.37,4.67,0,6.64-1.11,7-6.08.42-5.74-2.92-5-6.45-5q-144.32,0-288.64-.15c-4.61,0-8,.26-8.2,6.23-.24,6.56,4.2,5,7.66,5q71.12.08,142.25,0ZM1691.91,897.74q-49,0-97.93,0c-4.14,0-9.27-1.75-9.35,5.79-.08,6.78,3.36,7.79,9,7.79,64.94,0,129.88.17,194.82.15,4.52,0,10.51,2.24,10.55-6.75,0-8.72-5.32-7-10.24-7q-48.45,0-96.9,0ZM1047,666.87c32.94,0,65.87-.06,98.81.07,5,0,8.63-.18,8.58-6.75-.05-6.13-2.79-7.15-8.28-7.14q-98.3.12-196.57-.25c-5.61,0-8.74.6-8.77,7.63s3.87,6.54,8.46,6.54q48.88-.06,97.77,0ZM1457.57,201c4.84,0,7.48-.48,7.41-6.44-.07-5.73-1.54-7.52-7.51-7.51q-98.29.16-196.58-.29c-6.34,0-9.5,1.77-9.38,8.57.14,7.5,5.4,5.57,9.48,5.58q48.38.09,96.75,0C1391,200.92,1424.3,200.85,1457.57,201Zm135.08,653.17c-7.1-.07-9.37,2.42-7.91,8.75,1.28,5.53,6.1,3.35,9.45,3.36q109.21.24,218.43.24c4.13,0,8.89,1.87,9.08-5.78.2-8.4-5.23-6.32-9.58-6.33q-54.61-.12-109.22-.06C1666.15,854.35,1629.4,854.55,1592.65,854.18Zm-562-177c-34.65,0-69.31.11-104-.2-6.69-.06-9.95,2-8.13,8.57,1.39,5.08,6.31,3,9.69,3q107.57.33,215.14.25c4.14,0,11.05,3.29,10.86-6.11-.18-8.71-6.48-5.41-10.35-5.43-36-.23-72.06-.14-108.09-.14ZM946.22,378.22q43.78,0,87.57,0c4.48,0,8.74.93,8.8-6.32s-3.81-7.4-9.09-7.38c-35.71.11-71.41.08-107.11.11-22.66,0-45.32.12-68,.11-5.3,0-8.15,1.61-8.11,7.73,0,6.78,4.36,5.64,8.36,5.64q43.77,0,87.56,0ZM468.28,688.58q49.47,0,98.94,0c4.21,0,8.72,1.52,8.7-6.19s-5-5.27-8.26-5.28q-98.41-.17-196.85,0c-4.49,0-9-.74-8.92,6.37.05,8.18,5.87,5.2,9.51,5.22,32.29.2,64.59.12,96.88.12ZM290.41,454.66q-48.37,0-96.75,0c-4.34,0-9.89-2.17-9.66,6.21.21,8,5.55,5.33,9.37,5.33q97.26.12,194.52,0c4.05,0,8.87,2.45,9-5.45.12-7.59-4.48-6-8.7-6q-48.88,0-97.78,0Zm9.81-166.19q55.68,0,111.34,0c4.21,0,8.17.59,7.94-6-.23-6.35-4.34-5-7.83-5q-109.8-.12-219.59-.15c-4.12,0-7.91-.77-8.06,5.85-.15,7,4,5.69,8,5.68q54.12,0,108.24,0ZM1046.16,734c25.75,0,51.51-.21,77.25.17,5.67.09,7.9-.91,8-7,.14-6.63-3.27-6.85-8.33-6.84q-76.75.17-153.51-.06c-5.54,0-7.85,1.17-8,7.25-.19,6.86,3.44,6.83,8.35,6.81,25.41-.12,50.81-.06,76.22-.06Zm.27,52.7c-25.76,0-51.53.15-77.3-.12-5.15-.06-7.44.86-7.45,6.54,0,5.2,1.23,7.34,6.87,7.33q77.82-.23,155.63.05c5.45,0,7.12-1.62,7-7.05-.12-5.6-2.21-6.59-7.46-6.52-25.76.32-51.53.14-77.3.14Zm.35-8.57c25.76,0,51.52-.17,77.27.13,5.59.07,7.07-2,7-7,0-4.73-.5-7.46-6.57-7.43q-77.26.36-154.55,0c-6.2,0-8.35,2-8.37,8.33,0,7.48,4.68,6,8.93,6h76.25ZM535.55,831.48c-25.39,0-50.78.07-76.17-.06-5.16,0-9.35-.43-9.26,7.07.09,6.55,3.38,7.1,8.4,7.09q76.68-.24,153.35-.24c5.74,0,7.61-1.85,7.7-7.7.11-6.54-3.62-6-7.85-6q-38.09.06-76.17,0ZM468.31,666.76c26.11,0,52.21-.08,78.32.07,4.43,0,7.19-.4,6.74-5.94-.38-4.52-.51-7.8-6.64-7.79q-77.26.18-154.53-.17c-5.26,0-8.09.7-8.11,7.12s2.68,7,8,7c25.41-.23,50.83-.1,76.25-.1Zm567.53,43.59c29.17,0,58.36-.55,87.5.35,8.1.25,8.25-3.64,8.56-8.66.43-7-5.14-3.82-8-3.83q-87-.3-174-.19c-4.09,0-8.87-1.94-9,5.76-.18,8.33,5.14,6.36,9.54,6.37q42.72.11,85.46,0ZM534.2,821.48c25.76,0,51.51-.14,77.26.11,4.85,0,8.09.85,8.2-6.15.11-7.59-4.3-6.1-8.56-6.11l-151.44-.14c-1.72,0-3.45-.11-5.15.06-6.12.62-3.71,5.45-4.12,8.76-.52,4.21,1.57,4.63,5.55,4.58,26.08-.3,52.17-.15,78.26-.15Zm512-66.44c25.72,0,51.44-.17,77.16.15,5.29.06,8.32-.29,8.43-6.64.12-7.12-4.65-5.34-8.42-5.35q-76.65-.08-153.29,0c-3.56,0-8.42-2.18-8.5,5.15-.09,6.93,3.64,6.59,8.49,6.56,25.38-.14,50.76-.07,76.13-.07Zm667.5,67c26.08,0,52.17-.2,78.24.15,5.56.08,7.06-1.47,7-6.8,0-4.89-1.35-6.4-6.4-6.37q-77.76.32-155.52.11c-5,0-7.44,1-7.47,6.77,0,6.35,3.4,6.1,7.91,6.08,25.4-.14,50.79-.07,76.19-.07ZM724.37,200.67c21.64,0,43.27-.11,64.91.09,4.62,0,7.74.2,7.62-6.1-.11-5.64-1.34-7.53-7.45-7.51q-64.92.27-129.84-.33c-6,0-7.41,1.88-7.44,7.58s2.2,6.66,7.27,6.6c21.64-.25,43.29-.11,64.93-.11ZM1036,821.49q33.4,0,66.8,0c3.69,0,7.39.79,7.24-5.47-.14-5.65-2.23-6.83-7.33-6.8-28.09.15-56.18,0-84.27,0-16.79,0-33.58.14-50.36-.06-4.89-.06-6.88,1.46-6.3,6.51.47,4.1.72,6.77,6.44,6.65,22.59-.45,45.19-.18,67.78-.18ZM901.85,466.05q33,0,65.9,0c3.87,0,8.11,1.71,8.41-5.32.33-8-4.71-5.8-8.72-5.81-43.58-.05-87.17,0-130.76-.1-4.12,0-7.11-.41-7.16,5.46s2.53,6.38,7.48,6.32c21.61-.28,43.23-.12,64.85-.12Zm-389.7,423c18.84,0,37.69-.18,56.53.11,5.34.08,7.43-1.58,7.46-6.93s-1.73-7.15-7.2-7.12q-55.52.3-111,0c-5.88,0-7.7,1.86-7.71,7.65s2.45,6.66,7.46,6.59c18.16-.25,36.33-.1,54.49-.1Zm-266-413.74c-17.83,0-35.66.12-53.49-.07-5.55,0-8.83.67-8.8,7.67s3.66,6.68,8.47,6.67c36-.09,72-.14,108,0,5.58,0,9.31-.58,9.2-7.44-.11-6.49-3.89-6.77-8.86-6.73-18.17.16-36.34.07-54.51.07Zm267,435.77c17.49,0,35-.05,52.46,0,5,0,10.58,1.88,10.47-6.74-.1-8-5.43-6.42-10-6.43-36-.09-72,0-108-.27-5.55,0-7.95,1-8,7.17-.07,6.88,3.74,6.7,8.57,6.67,18.17-.13,36.34,0,54.5,0ZM1047,831.55c-17.83,0-35.67.06-53.5,0-4.8,0-8.93,0-9.17,6.55-.23,6.24,3.3,7.58,8.38,7.56l109-.43c5.1,0,8.38-1.44,8.22-7.69-.18-6.47-4.28-5.87-8.44-5.87H1047ZM1803,720.41c-18.17,0-36.35.08-54.53-.06-4.5,0-7.62-.09-7.58,6.19,0,6.06,2.2,7.31,7.7,7.39,36.35.59,72.7.39,109-.36,5-.1,7.34-1,7.39-6.76,0-5.95-2.67-6.59-7.49-6.54-18.17.18-36.35.07-54.53.07ZM513.13,222.62c18.21,0,36.42,0,54.63,0,4.14,0,8.06,1.11,8-5.78-.09-6.17-2.34-7.45-7.93-7.42q-55.14.28-110.29,0c-5.2,0-7.31,1.05-7.27,6.71s1.89,6.73,7.26,6.61c18.54-.4,37.1-.16,55.65-.16ZM357.48,209.4c-18.53,0-37.06.29-55.57-.15-6.81-.16-6.86,4-7.35,8.43-.56,5,2.86,5.39,6.59,5.38q55.58-.15,111.14-.2c4.87,0,7.39-1,7.46-6.77.08-6.21-3.14-6.46-7.73-6.43-18.18.1-36.36,0-54.54,0Zm378.39,13.29c18.15,0,36.32-.32,54.47.2,5,.15,6.82-.65,6.43-5.74-.31-4.08.82-7.58-6-7.5-36.32.38-72.63.14-109-.05-4.86,0-8.57-.24-8.82,6.49-.26,6.95,3.58,6.72,8.43,6.69,18.16-.14,36.32-.06,54.48-.06ZM513.12,854.41q-27.76,0-55.53,0c-3.76,0-7.47-.84-7.44,5.3,0,5.56,2,6.73,7.25,6.69,37-.3,74-.31,111.05-.23,4.76,0,7.81-.28,7.74-6.35s-3.72-5.38-7.54-5.37q-27.76,0-55.53,0ZM781,143.49c-17.51,0-35-.1-52.53.08-4.21,0-9.82-2.45-10.21,5.89s5.18,6.68,9.46,6.68c35.71,0,71.41-.28,107.12-.22,5.38,0,7.18-1.76,7.24-7.08.07-6.06-3.71-5.41-7.52-5.41H781ZM446.64,643.81c18.16,0,36.32-.12,54.47.09,4.25.05,7.2.26,7.06-5.51-.12-4.81-1.29-6.27-6.43-6.24q-55.5.3-111-.16c-5,0-6.37,1.61-6.54,6.45-.19,5.71,2.69,5.67,6.94,5.62,18.5-.18,37-.08,55.51-.08Zm734.47-111c17.8,0,35.61-.08,53.42.06,4.38,0,7.78.48,7.76-6,0-6-2.7-6.36-7.48-6.34q-54.45.24-108.89,0c-4.44,0-7.67-.3-7.76,6-.09,7.13,3.84,6.41,8.5,6.38,18.15-.13,36.3,0,54.45,0ZM603,143.5c-17.46,0-34.92-.07-52.38.05-4.3,0-9.87-2.22-10.14,5.92s5.37,6.43,9.73,6.43q52.89.1,105.77-.13c3.57,0,8.37,1.91,8.55-5.25.19-7.41-4-7.23-9.15-7.2-17.46.11-34.92,0-52.38,0Zm511.85,266c-18.49,0-37,.07-55.48-.06-4.32,0-7,.44-7.08,5.91,0,5.1,1.83,6.31,6.56,6.29q55.49-.23,111,0c4.93,0,6.37-1.48,6.43-6.4.06-5.56-2.59-5.81-7-5.76-18.15.2-36.3.09-54.45.09ZM502,200.8c15.11,0,30.23-.2,45.33.1,5.6.11,6.18-2.71,5.83-7-.27-3.38.58-6.75-5-6.72-30.21.15-60.43,0-90.64-.16-6.28,0-7,3.56-7.2,8.65-.28,6.27,3.7,5.24,7.42,5.24q22.15,0,44.3,0Zm690.64,342.13q-21.6,0-43.2,0c-4.81,0-9.94-.77-9.86,6.74.07,6.79,4.18,7.56,9.55,7.49,28.79-.37,57.58-.84,86.36-.74,5.91,0,6.68-2.06,6.76-7s-1.41-6.46-6.42-6.34c-14.39.33-28.8.11-43.19.11ZM235.25,511.6c14.39,0,28.78-.13,43.16.07,4.79.07,7.73-.47,7.6-6.5s-2.46-7.23-8.08-7.17c-28.77.3-57.54.26-86.31.08-4.67,0-7.58,0-7.62,6.12-.05,6.38,2.81,7.3,8.11,7.22,14.38-.23,28.76-.08,43.14-.08ZM147.3,209.35c-5.36-.09-8.07,1-8.24,7.31-.18,6.55,3.18,6,7.65,6q43.8-.15,87.6.1c4.52,0,7.84.28,7.82-6.11s-2.95-7.36-8.25-7.29c-14.42.2-28.86.07-43.29.06S161.73,209.57,147.3,209.35ZM280.19,543.06q-21.63,0-43.24,0c-4.33,0-9.07-1.2-9.32,6-.26,7.45,4.5,7.41,9.41,7.39,28.82-.11,57.64-.33,86.46-.49,4,0,7.36-.06,7.24-5.85-.12-5.36-2-7.2-7.31-7.11-14.41.25-28.83.09-43.24.09Zm155.21.05c-14.73,0-29.46.25-44.18-.13-5.59-.15-6.91,1.84-7,7-.16,6.33,3.68,6.36,8,6.34q43.65-.15,87.3-.37c3.72,0,7.75.2,7.58-5.68s-3-7.35-8.48-7.24c-14.38.31-28.77.11-43.15.11ZM991.84,854.45c-3.88,0-7.53-.63-7.31,5.5.18,5.25,2.71,6.32,7.1,6.31q44.26-.16,88.52-.17c4.17,0,7.19-.3,7.31-5.88s-2.89-5.85-7.08-5.81c-14.76.12-29.52,0-44.27.05S1006.6,854.49,991.84,854.45Zm-691-277c15.07,0,30.15-.08,45.22.06,4.2,0,7.41-.07,7.25-5.73-.15-5.3-3-6-7.32-6-29.81.12-59.62.18-89.43,0-5.12,0-6.39,1.78-6.29,6.55s2.12,5.41,6.39,5.32c14.72-.31,29.45-.11,44.18-.11ZM1692.63,800.6c11.32,0,22.64-.27,33.95.12,5.16.18,6.58-1.7,6.33-6.48-.22-4.26.4-7.92-6.15-7.82-22.63.31-45.27.22-67.9-.12-6.07-.09-6.38,3-6.65,7.62-.29,5,1.6,6.64,6.47,6.54,11.31-.22,22.63-.07,34-.07Zm-667.06,88.57c11,0,22-.29,33,.12,5.25.2,6.5-1.75,6.26-6.53-.22-4.41.06-7.73-6.37-7.62-22.31.38-44.63.23-67,0-5.87-.07-6.79,3.24-6.91,7.77-.13,4.89,2.25,6.44,7,6.32,11.32-.28,22.66-.09,34-.09Zm.1,22.21c10.64,0,21.31-.39,31.93.17,5.33.28,7.46-.71,7.27-6.42-.15-4.87-.73-7.41-6.71-7.32-21.64.33-43.29.15-64.94,0-5.09,0-8.85.46-8.64,6.93s4.23,6.85,9.13,6.8c10.65-.11,21.3,0,32,0ZM1513.8,556.44c11,0,22-.06,33,0,4.89,0,8.75-.29,8.62-7s-4.34-6.68-9-6.67c-21.28.07-42.56.18-63.84.13-4.8,0-8.89-.06-9.08,6.54-.19,7.13,4.36,7.53,9.48,7.53q15.45,0,30.89,0Zm-133-13.48q-15.4,0-30.82,0c-4.2,0-8.79-1.77-9.14,5.78-.32,7,3,7.91,8.41,7.92,21.57,0,43.14,0,64.71.36,5.52.09,7.18-2.53,7.44-7.36.31-5.7-2.88-6.86-7.73-6.79-11,.16-21.91,0-32.87,0ZM524.6,955.65c5.12.1,6.62-2.17,6.14-6.82-.34-3.26.87-7.08-4.73-7.05q-34.93.19-69.85,0c-5.37,0-5.8,3.12-5.88,7.38-.11,4.81,1.46,6.63,6.5,6.47,11-.35,21.92-.11,32.88-.1C501.31,955.57,513,955.41,524.6,955.65ZM991.71,388.48c-15.06,0-30.12.16-45.17-.12-3.93-.07-5.88.73-5.48,4.89.3,3.18-1,7,4.75,6.91q45.15-.44,90.31-.32c5.21,0,6-2.45,6.46-6.76.62-6.28-3.8-4.44-6.72-4.46-14.72-.14-29.43-.07-44.15-.07ZM447.35,622.4c10.95,0,21.9-.12,32.85.05,4.2.07,7.24,0,7-5.74-.21-5.1-1.72-7.55-7.11-7.52-22.25.13-44.5.23-66.75,0-5.81-.06-6.54,2.57-6.76,7.49-.25,5.63,2.74,6.09,6.9,6.08,11.29,0,22.58,0,33.88,0ZM1026.2,223c10.29,0,20.6-.25,30.88.12,4.61.17,7.92.7,7.66-5.81-.21-5.38-1-8-7.38-7.94-21.62.36-43.25.22-64.87.09-4.86,0-7.49,1-7.85,6.68-.4,6.36,3.38,6.54,7.58,6.58,11.32.11,22.65,0,34,0ZM535.09,311c11.66,0,23.32-.31,35,.14,5,.2,5.87-2.05,5.84-6,0-3.69-.27-6.48-5.47-6.46-23,.1-46-.11-69-.45-5.66-.08-5.65,3.19-5.82,7.29-.21,4.94,1.54,6.49,6.57,6.3,10.95-.41,21.92-.13,32.88-.13Zm1167.6,609.27c-4.33-.06-7.22.41-7,6,.2,5,2.31,6.43,7,6.4q34.5-.18,69,0c5,0,6.46-2.06,6.47-6.78s-2.44-5.67-6.46-5.63c-11.67.11-23.34,0-35,0C1725.35,920.36,1714,920.46,1702.69,920.31Zm-1211.64.12c-11.29,0-22.57.14-33.85-.07-4.45-.08-7,.67-7,6,0,5,1.63,6.39,6.48,6.35q33.85-.33,67.71,0c4.91,0,6.44-1.42,6.47-6.36,0-5.49-2.57-5.9-7-5.79-10.93.27-21.88.09-32.82.09ZM1514,577.9c11.29,0,22.58-.2,33.85.09,4.64.12,6.74-1,7.1-6,.41-5.63-2.28-6.09-6.66-6.07q-33.35.17-66.69,0c-4.3,0-7,.29-7.18,5.75s2.18,6.14,6.77,6c10.93-.28,21.87-.09,32.81-.09ZM535,254.65c-10.6,0-21.2.16-31.8-.08-4.56-.1-7.64-.19-7.76,6.06-.12,6.59,3,7,8.12,6.94,21.53-.26,43.06-.28,64.59-.25,4.59,0,8-.29,7.81-6.39-.21-5.84-3.52-6.43-8.14-6.37-10.94.15-21.88.05-32.82.05ZM867.71,400c11,0,21.93-.32,32.87.14,5.45.22,7.62-.65,8-6.88.43-7.57-4.58-4.45-7.34-4.56-22.19-.9-44.45,1.4-66.62-1.45-5.47-.7-4.82,3.51-4.86,6.87s-.68,6.5,5.12,6.13c10.91-.68,21.9-.19,32.86-.19ZM390.2,200.8c7.86,0,15.72-.12,23.58,0,4.4.1,6.28-1.57,5.73-6.06-.43-3.57.78-7.74-5.32-7.66-15.38.18-30.76.09-46.14,0-5.26,0-6,3.22-6.15,7.39-.17,4.85,2,6.69,6.77,6.52,7.17-.25,14.35-.07,21.53-.07ZM1525.5,600.59c7.55,0,15.11-.14,22.65,0,6,.16,6.3-3.59,6.54-8.09.29-5.51-2.65-6-7.08-5.91q-21.09.25-42.21-.11c-4.94-.08-8.45-.09-8.26,6.76.16,6,1.94,7.73,7.78,7.27,6.82-.54,13.72-.12,20.58-.12Zm243.31,109.89c7.88,0,15.77-.31,23.62.12,5,.27,6.5-1.48,6.51-6.34s-1.27-6.5-6.39-6.4c-15.06.3-30.14.36-45.19-.2-6.35-.24-6.15,2.92-6.39,7.42-.32,6.06,2.22,6.24,7.32,5.63,6.75-.8,13.67-.2,20.52-.2ZM881.08,421.67c4.93.23,6.57-1.4,6.37-6.37-.18-4.35-1.24-5.79-5.92-5.7-15.38.28-30.78.16-46.16-.25-4.75-.12-5.85,1.61-5.74,5.86.09,3.77.16,6.65,5.28,6.44,7.86-.31,15.73-.08,23.6-.07C866,421.58,873.57,421.33,881.08,421.67Zm488.18,155.87c7.85,0,15.72-.37,23.54.13,4.63.3,6-1.1,6-5.53,0-3.92-.33-6.34-5.37-6.25q-23.54.4-47.09-.06c-5.07-.09-5.29,2.48-5.35,6.32-.07,4.21,1,6.13,5.75,5.86,7.48-.42,15-.11,22.51-.11Zm512.19,387.77c-7.5,0-15,.41-22.51-.14-5-.37-6.74,1-6.6,6,.12,4.22.28,7,5.92,6.81,15.34-.52,30.71-.74,46-.45,5.76.11,5.73-2.77,5.93-6.88.24-4.94-2.2-5.4-6.27-5.23-7.5.32-15,.09-22.52.09ZM479.74,977.56c7.2,0,14.43-.35,21.6.12,4.64.31,6.86-.33,6.84-5.72,0-5-1.61-6.49-6.49-6.41-14.74.24-29.49.09-44.23,0-3.83,0-7.48-.69-7.27,5.41.21,5.91,3.1,6.54,8,6.29,7.18-.37,14.4-.1,21.59-.1ZM391.15,520.71c-7.52,0-15,0-22.56,0-3.69,0-6.6-.05-6.31,5.34.24,4.55.94,7,6.17,6.88,15-.23,30.08-.2,45.12,0,4.49,0,5.77-1.72,5.85-6,.1-5.16-2-6.33-6.75-6-7.15.43-14.34.11-21.52.11ZM947.73,288.32c7.52,0,15-.18,22.56.07,4.5.15,5.9-1.62,5.86-6s-1.92-5-5.65-5c-15.39.17-30.77.15-46.15.05-3.47,0-5.87.19-6,4.69s1.42,6.17,5.79,6.09c7.86-.15,15.73,0,23.59,0ZM680,244.21c7.85,0,15.71-.3,23.53.1,5.45.27,4.88-3.25,5.26-6.58.46-4-1.08-5.34-5.17-5.27-15,.26-30,.4-45,.09-5.09-.11-6.35,1.59-6.42,6.37-.08,5,2.37,5.38,6.31,5.25,7.15-.23,14.32-.06,21.48-.06Zm17.29-5.28v.23H664l1-.23Zm172.13,95.22c4.12,0,8.27-.3,12.36.07,6.12.54,5.35-3.54,5.58-7.33.28-4.36-1.27-6.14-5.88-6-8.23.32-16.49.25-24.73,0-4.13-.13-6.4.59-6.24,5.49.15,4.69.6,8.23,6.55,7.93,4.11-.21,8.24,0,12.36,0Zm844.12,444.08c4.12,0,8.24-.11,12.36,0s7.47-.28,6.92-5.93c-.41-4.23,0-8.48-6.2-8.42-7.89.09-15.78-.08-23.68,0-6.17,0-6.79,4.4-7.19,9.16-.53,6.34,3.93,5.06,7.49,5.15s6.87,0,10.3,0ZM1380.69,622.69c3.41,0,6.84-.2,10.24,0,4.31.33,8.12,1,8-5.59-.11-5.42-1.25-8.34-7.44-8a195.19,195.19,0,0,1-21.5,0c-5.17-.28-7.73,1.64-8,6.74s2.13,7.5,7.41,7.14c3.74-.26,7.51,0,11.27,0Zm155.16-13.5a112.43,112.43,0,0,1-11.32-.07c-5.27-.54-6.49,2-6.19,6.6.24,3.9-.27,7.71,5.62,7.45,8.22-.37,16.46-.36,24.69-.5,4.25-.08,6.32-2.19,6-6.46-.27-4-1-7.46-6.48-7-4.09.34-8.23.06-12.35.06ZM1135,378.39c4.1,0,8.21-.1,12.31,0,4.79.15,7.94-.92,7.38-6.83-.45-4.63-1.27-7.79-7.1-7.41-7.15.47-14.36.39-21.53.21-5.55-.14-7.78,1.77-7.87,7.71-.08,6.2,3,6.57,7.58,6.21,3.06-.24,6.15-.05,9.23-.05Zm601,577.34c3.76,0,7.54-.15,11.29,0,5,.25,7.75-1.58,7.56-7-.18-5-2.09-7.55-7.46-7.4-7.19.19-14.4.15-21.57-.24-6.1-.33-7.4,2.57-7.51,8-.13,5.78,2.45,7.06,7.42,6.69,3.4-.25,6.84-.05,10.27-.05ZM357.43,622.64c4.1,0,8.24-.39,12.28.1,5.46.66,6.21-2.14,6.3-6.56.1-4.72-1.56-7-6.47-6.9-7.85.13-15.7.17-23.55-.1-5.62-.19-6.81,2.75-7,7.6-.18,5.52,3,6.07,7.17,5.94,3.75-.11,7.5,0,11.25,0Zm1246.32,30.11c-3.75,0-7.52.3-11.24-.06-7.77-.76-6.75,5.66-7.35,9.63-.76,5.11,3.9,4.44,7.19,4.48,7.16.09,14.33-.08,21.48.1,4.53.11,7.84-.11,7.69-6.29-.14-5.54-1.44-8.37-7.54-7.63-3.36.4-6.82.07-10.23.07Zm132.79-318.37c3.75,0,7.55-.41,11.23.1,5.38.75,6.48-2.4,6.71-6.47.27-4.7-1.07-7.78-6.85-7.48-7.48.38-15,.3-22.49,0-5.65-.2-6.74,2.61-6.76,7.57,0,5.15,2.48,6.49,6.92,6.37,3.75-.11,7.49,0,11.24,0ZM1158.29,845.15c3.78,0,7.6-.35,11.32.09,5.1.59,6.57-1.43,6.61-6.3s-.92-7.69-6.73-7.34a181.5,181.5,0,0,1-21.63,0c-5.51-.32-7,1.95-7.23,7.06-.31,5.83,2.43,7.14,7.36,6.91,3.42-.15,6.86,0,10.3,0Zm614.61-58.73c-4.75-.07-9.41-1.23-9.38,6.69,0,7.17,3.44,7.66,8.89,7.43a177.78,177.78,0,0,1,18.47.05c5.1.32,8.16,0,8.17-6.65,0-6.88-3-8.14-8.71-7.59-3,.29-6.15,0-9.23.06C1778.37,786.42,1775.63,786.45,1772.9,786.42Zm-1282,236.1c3.08,0,6.21-.33,9.25.07,5.35.7,8.07-.26,8.08-6.73s-2.68-7.28-8-7c-6.84.34-13.72.2-20.57-.05-4.48-.17-7,.7-6.84,6.07.11,5,1.26,7.92,6.75,7.79,3.77-.1,7.55,0,11.32,0Zm1358.32-36.24c-4.11,0-8.23.26-12.31-.06-5.39-.43-7.19,1.79-7.2,7.08,0,5.67,2.58,7,7.62,6.7a150.81,150.81,0,0,1,20.5,0c5.55.49,7.09-1.24,7.14-6.65.06-5.06-.66-7.85-6.52-7.05-3,.41-6.15.07-9.23.07ZM1358.73,586.61c-3.08,0-6.17,0-9.25,0-4.42-.09-8.76-1.19-8.63,6.19.12,6.41,2.19,8.46,8.4,8a169.64,169.64,0,0,1,19.53-.13c6.19.27,7.3-3,7.45-8.28.17-5.79-3.14-5.82-7.21-5.67-3.43.13-6.86,0-10.29,0ZM334.89,600.52c4.08,0,8.17-.07,12.25,0,6.15.14,5.84-4.28,6.15-8.4.35-4.75-2.24-5.65-6.31-5.54-7.49.2-15,.33-22.46-.06-5.11-.28-6.42,1.73-6.29,6.47s.42,8.18,6.45,7.64c3.38-.3,6.8,0,10.21,0Zm844.9,199.81c4.11,0,8.23-.12,12.33,0,4.67.18,6.65-1.54,6.76-6.55.13-5.62-2.31-7.17-7.34-7.07-6.84.14-13.74.39-20.52-.3-6.25-.65-7.22,2.1-7.63,7.45-.46,6.08,2.16,7,7.16,6.46a86.26,86.26,0,0,1,9.24-.06ZM558.46,333.84a85.7,85.7,0,0,1,9.21.06c5.37.57,8.37-.68,8.27-7s-3.83-6.15-8.2-6.08c-6.48.1-13,.13-19.46,0-4.38-.12-8-.44-7.7,6.07.3,5.45,1.58,8.32,7.65,7.54,3.36-.44,6.82-.08,10.23-.08Zm-67.7,665.42c3.08,0,6.18-.18,9.25,0,4.58.32,8.4,1.11,8.27-6.11-.11-6.42-2.72-7.19-8-6.92a181.14,181.14,0,0,1-20.58-.06c-5.62-.36-6.92,2-6.87,7.14.05,5.62,2.54,7.27,7.62,6.75,3.41-.35,6.85-.43,10.27-.63ZM868.1,310.94c4.45,0,8.93-.3,13.34.1,3.74.33,6.14-.15,5.76-4.58-.31-3.52,1.18-8.07-5-8q-12.86,0-25.71-.07c-5.25,0-5.89,3.28-6.06,7.5-.2,4.87,2.12,5.72,6.35,5.27A108.75,108.75,0,0,1,868.1,311ZM1714.93,388c-4.11,0-8.23.14-12.34,0-4.45-.2-7,.83-6.85,6.17.12,5,1.9,6.59,6.76,6.41,7.87-.29,15.77-.29,23.63.08,4.81.23,6.69-1.18,6.82-6.22.13-5.24-2.11-6.51-6.71-6.2-3.76.24-7.54.05-11.31.05Zm-1469,145.1c4.45,0,8.92-.27,13.34.08,5.18.4,5.16-2.62,5.31-6.38.15-4.12-.59-6.37-5.48-6.18-8.2.31-16.43.16-24.65,0-4.69-.09-6.66,1.61-6.69,6.61,0,5.3,2.26,6.39,6.88,6,3.73-.34,7.52-.07,11.29-.07Zm1446.13-87.77c3.73,0,7.5-.3,11.2.07,5.49.55,7-1.81,7-7,.1-5.56-2-7-7.2-6.66a178,178,0,0,1-21.42.06c-5.64-.32-6.7,2.11-6.73,7.15,0,5.37,2.49,6.26,6.9,6,3.38-.22,6.79,0,10.2,0ZM1590.84,677.09c-4-.21-6.35.62-6,5.53.27,4,.85,6.6,5.6,6.51,8.2-.14,16.41-.24,24.6,0,5.06.17,6.25-2.08,6.52-6.72.36-6.08-3.21-5.52-7.12-5.37s-7.52,0-11.28,0C1599,677.13,1594.93,677.29,1590.84,677.09ZM958.15,267.49c3.76,0,7.57-.36,11.28.09,5.08.62,6.66-1.46,6.74-6.27s-1.6-6.86-6.54-6.71c-7.52.23-15.07.3-22.58,0-5.52-.25-5.92,2.82-6.07,7.06-.16,4.42,1.36,6.28,5.88,6,3.74-.27,7.52-.06,11.29-.06ZM1125.3,388.06c-4.53-.41-7,.3-7,5.78s1.82,7.19,7.24,6.81a189.53,189.53,0,0,1,22.61-.29c5.73.27,5.54-3.17,6.08-7.09.8-5.66-2.8-5.12-6.27-5.11h-10.29C1133.52,388.14,1129.38,388.43,1125.3,388.06Zm33.28,466.32c-4.09,0-8.18.1-12.27,0-3.89-.11-6.57.37-6.1,5.51.4,4.43,1.27,6.86,6.56,6.51a198,198,0,0,1,22.46-.06c4.43.22,7-.14,7-5.63,0-4.9-1.44-6.8-6.41-6.3-3.72.37-7.5.08-11.25.08ZM1024,466.33c4.08,0,8.19-.34,12.22.08,5.12.54,6.07-1.83,6.55-6.36.57-5.41-2.2-5.37-6-5.33-7.82.1-15.65.27-23.45-.13-5-.25-6.32,1.57-6.41,6.38-.09,5.47,2.46,6.13,6.87,5.72,3.37-.32,6.79-.07,10.19-.07Zm156.37,110.92c4.12,0,8.24-.15,12.35,0s6.1-1.25,6.19-5.84c.11-4.77-1.87-5.76-6.08-5.63a219.67,219.67,0,0,1-23.66,0c-7-.53-5.57,4.75-6.18,8.13-1,5.32,3.34,3.61,6.07,3.65,3.77.05,7.54,0,11.31,0ZM669.42,267.15c3.42,0,6.86-.16,10.27,0,4.65.26,7-1.63,7.19-6.4.19-5.09-2.48-6.4-7-6.25-7.18.24-14.4.45-21.57,0-4.56-.25-6.07,1.13-6,5.64.07,4.23.29,7.48,5.84,7.07,3.75-.27,7.53-.05,11.3-.05Zm132-23.1c4.45,0,8.91-.21,13.35.06s4.75-2.35,4.93-5.78-.44-5.32-4.19-5.35q-12.83-.09-25.64-.33c-4.73-.09-5.46,2.64-5.5,6.63,0,4.34,2.07,5.12,5.76,4.88s7.53,0,11.29,0ZM1336,177.77c3.42,0,6.86-.24,10.26.06,3.94.36,7.33,1.26,7.36-4.93,0-5.37-1.57-7.25-7-6.94-7.16.4-14.37.25-21.55,0-4.43-.14-6.92.61-6.77,6,.16,5.79,3.28,5.71,7.42,5.41,3.4-.25,6.84,0,10.26,0ZM91.22,288.9c3.43,0,6.92-.4,10.28.1,4,.59,6.68.72,6.53-4.6-.11-4,.23-7.42-5.62-7.13-7.88.38-15.79.28-23.68,0-4.41-.16-5.86,1.25-5.91,5.79,0,4.76,1.8,5.91,6.05,5.64,4.1-.27,8.23-.06,12.35-.06ZM535,289c4.44,0,8.92-.4,13.3.1,4.82.56,4.93-2,4.86-5.48-.07-3,.85-6.29-4.18-6.19-8.89.19-17.79.2-26.67-.07-5.16-.15-5.11,2.71-5.14,6.54,0,4.2,1.58,5.38,5.53,5.07s8.2-.07,12.3-.07ZM1925.37,764.11c-4.82.36-6.94,2.16-7.09,7.47-.21,6.73,3.66,6.4,8.28,6.67,5.37.31,6.31-2.56,6-6.91C1932.47,766.71,1930.86,763.7,1925.37,764.11Zm.12,22.1c-5.08,0-7.26,1.29-7.12,6.86s2.05,7.8,7.75,7.8,6.94-2.89,6.21-7.87C1933.27,787.69,1930.67,786.2,1925.49,786.21Zm-147.83-13.76c-.42-4.64-.76-8.82-7.23-8.75-5.61.06-6.65,2.86-6.78,7.72-.14,5.17,1.27,7.88,6.54,7C1774.57,778.44,1778.16,778,1777.66,772.45ZM1726,298.06c-5,.15-7.71.94-7.62,6.65.08,5,1.42,7.58,7,7.49,5-.09,8.17-1,7.07-6.92C1733.28,300.27,1731.8,297.89,1726,298.06ZM1198.85,771.68c-.09-4.89-1.57-7.8-6.92-7.72s-6.91,3-7.25,7.79c-.35,5,1.72,6.9,6.73,6.22C1196.12,778.8,1199,777.39,1198.85,771.68Zm15.87-584.84c-6.15.07-7.49,2.87-7.64,8.11s2.13,6.32,6.85,6.09c4.26-.19,7.73-.28,6.59-6.34C1220.08,191.34,1221.57,186.77,1214.72,186.84Zm511.57,777.35c-4.18.34-8.3.48-7.84,6.75.33,4.59,1.79,7,6.69,7s8.29-.91,7.38-6.63C1733.14,966.36,1731.28,963.78,1726.29,964.19Zm-22.15-599.28c-4.93.2-8.48,1.11-8.32,7.48.12,5.29,2.51,6.16,7,6.09s8.46-.32,7.22-6.69C1710.83,367.32,1709.28,364.71,1704.14,364.91Zm-624.66,13.53c5.16.2,7.75-1.45,7.85-6.8.07-4.05-1.07-6.72-5.64-6.67-4.29,0-8.68,0-7.93,6C1072.85,375.89,1074.29,378.24,1079.48,378.44Zm535.45,119.33c-4.78.1-7.65.65-7,6.91.47,4.59.12,7.71,6.2,7.47,5.34-.22,7.69-2,6.61-7.23C1621.72,500,1620.1,497.66,1614.93,497.77Zm317.71,450.58c0-5.16-2.21-6.29-7-5.81-4.49.46-7.6.54-7.35,6.67.24,5.84,2.91,7,8.27,6.38C1932.11,956.81,1932.66,953.15,1932.64,948.35Zm-88.59-243c-.46-4.55-.93-7.81-6.82-7.66-5.3.14-7.32,2.31-7.3,7.39,0,4.52,1.1,7.45,6.94,6C1840.54,711.38,1844.74,712,1844.05,705.35Zm-111-2c-.07-7-4.56-5.09-8.28-5.44-5.14-.47-6.52,2.1-6.09,6.77.4,4.27,1.32,7.5,7.53,5.9C1730.79,711.24,1733.07,709.37,1733,703.34Zm-222.89-86.63c.12-4.54,0-7.84-6.16-7.74-4.94.07-6.56,1.65-6.28,6.46.25,4.27-.34,8.65,6.55,7.38C1509.65,624.53,1510,621.05,1510.13,616.71Zm192.46-207.5c-4.32-.08-6.72.69-6.93,6-.27,7.08,4.37,6,8.54,6.71,5.61.93,6.29-2.24,5.85-7.12C1711.34,408.83,1706.92,409.28,1702.59,409.21Zm230.16,517c0-5.47-2.92-5.83-7.12-6-4.92-.19-7.43.93-7.37,6.66,0,5.48,2.66,6.27,7.53,5.63C1930.32,933.5,1932.8,932,1932.75,926.21ZM1376.24,172c0-5.46-2.38-6.27-6.81-6-3.84.24-7.59-.34-7.55,5.59,0,5.27,2.57,6.51,6.76,6.07C1372.86,177.77,1376.2,177.85,1376.24,172ZM1541,704.79c-.24,5.56,3.11,6.57,6.9,6.45s6.86-1.58,6.92-6.87c0-5.09-1.54-7-7-6.44C1543,697.1,1541.22,699.42,1541,704.79Zm117.25-118.3c-5.27.27-5.77,3-5.91,7.28-.16,5,2.4,6.88,6.68,6.83s7.33-1.72,6-7.3C1665.53,588.67,1663.89,586.21,1658.23,586.49Zm.22,22.57c-5.46-.13-5.84,2.78-6.16,7.07-.44,6,3,6.68,7.53,7,5,.35,5.64-2.59,5.36-6.52C1666,611.49,1663.9,609.19,1658.45,609.06ZM524.89,1052.32c-6.12,0-7.27,3.71-7.38,8.7-.11,4.56,2.25,5.64,6.36,5.83,5.42.24,7.69-1.78,6.71-7.24C531.08,1055.41,530.32,1052.29,524.89,1052.32ZM1732.68,284c.24-5.65-2.2-7-7.22-6.77-4,.19-7.14.13-7.11,5.8.05,6.28,3.84,6.13,8.21,6.07C1730.68,290.08,1732.48,288.73,1732.68,284Zm-6.35,392.64c-4.46.29-7.79.42-7.68,6.64.12,6.77,4.54,5.43,8.41,6,4.79.65,6.22-1.62,5.5-6.08C1733.24,678.55,1731.45,676.33,1726.33,676.66Zm-228.65-15.84c-.85,5.27,2,6,6.52,6.14,5.44.21,6.22-2.24,5.81-6.75-.39-4.27-.1-8.7-6.63-6.92C1495.92,651.56,1498.25,657.29,1497.68,660.82Zm50.41,59.38c-4.51,0-7,1.33-7.12,6.41-.14,4.69,1.52,7.21,6.14,7.41,4.89.2,7.81-2,7.68-6.9C1555.3,721.77,1552.75,720.16,1548.09,720.2Zm44.61-22.38c-3.39.52-7.77-.83-7.79,5.3,0,5.2,1.71,7.34,7.07,7.12,4.16-.17,7.71-.18,6.72-5.83C1599.35,699.79,1597.9,697,1592.7,697.82ZM390.76,489.63c5.73.15,6.1-2.9,5.64-7.1-.33-3,1.82-7.43-4.2-7.16-4.55.2-8.41,1-7.18,6.72C384.54,486.67,385.31,489.48,390.76,489.63ZM1525.92,653c-4.05.68-8,.47-7.68,6.82.28,5,1.07,7.2,6.71,7.27,5.42.07,6.63-2.14,6.07-7.6C1529.7,657.72,1533,651.8,1525.92,653Zm5.91,30.63c-.62-3.23.63-8.25-5.83-7.18-4,.65-8-.29-7.73,6.32.21,6,2.92,6.9,7.24,6.38C1530.33,689.91,1532.7,688.15,1531.83,683.62Zm105.06-97c-4.69.46-7.61,1.32-7.05,7,.41,4.26,1.29,7,6.31,7.08,6.14.09,6.17-3.79,5.91-8.11C1642.35,588.88,1642.14,586.06,1636.89,586.58Zm-118.33,118c.3,5.52,2.83,5.82,7.06,5.78,4.48,0,6.43-.61,5.89-6.27-.45-4.64-.45-7.25-6-6C1520.87,697.56,1518.23,698.49,1518.56,704.56Zm102.77-65.4c-.23-4.79-1.2-7.57-6.88-7.5-5,.06-6.52,2.45-6.9,6.72-.5,5.62,3.15,5.89,7.18,5.72C1618.17,644.14,1621.59,644.65,1621.33,639.16ZM58.23,298.38c-4.11.49-8,.68-7.82,6.78.18,5.49,3,6.77,7.59,6.92,5.22.16,4.94-3.38,4.9-7.48C62.11,302.4,64.15,297.68,58.23,298.38ZM1621.56,749c.06-5.43-2.77-5.91-7.07-6.07-4.87-.18-6.56,1.54-6.68,6.42-.14,5.53,2.75,6.28,7.35,5.89C1619.72,756,1621.51,754,1621.56,749Zm-97.49-104.91c3.31-.42,8.2,1.71,7.67-4.85-.27-3.4,1.61-8.16-4.82-7.42-3.58.42-9-1.8-8.41,5.51C1518.07,641.3,1518.41,644.85,1524.07,644.13ZM841.7,327.28c.55-4.79-1.06-6.75-6.08-6.7-4.39.05-6,1.52-5.86,5.94s-.08,8.57,6.19,7.12C842.51,335.47,841.28,330.9,841.7,327.28ZM1903.49,845c4.9.05,6.54-2,6.68-6.64.14-4.47-.62-6.92-6-6.88-4.75,0-7.21,1.15-6.32,6.18C1897.3,842.07,1898.08,845,1903.49,845Zm-333.9-302.28c-5.48,0-6,2.61-5.86,7,.18,4,0,6.85,5.88,6.95,6.55.13,6.43-3.28,6.23-7.8C1576.75,544,1574.54,542.73,1569.59,542.76Zm-63.91,133.75c-3.59.18-8.81-1.55-8.1,5.55.35,3.5-1.55,8,4.87,7.27,3.29-.39,8.2,1.75,7.58-5.44C1509.2,681.54,1512.23,676.18,1505.68,676.51Zm-113.32-44.68c-4.33.18-6.89.45-6.47,6,.34,4.59,1.35,6.6,6.36,6.41,4.51-.17,7.27-1.08,6.36-6.24C1399.48,632.94,1397.19,631.62,1392.36,631.83Zm171.28,94.86c0,4.55,1.12,6.46,6.14,6.84,5.6.42,6.11-2.25,6.28-6.51.18-4.45-.72-7.44-6.12-6.57C1564.93,719.53,1563.63,722,1563.64,726.69Zm339.92,82.39c-5.82-.12-5.58,3.11-5.85,7.16-.37,5.72,2.9,5.47,7.07,5.77,5.41.38,5.52-2.55,5.24-6.49C1910.55,810.88,1908.59,809.18,1903.56,809.08ZM1163,814.6c0,4.24.67,7.37,6,6.86,3-.28,7.44,2.35,6.81-3.86-.37-3.64,1.44-8.9-5.82-8.39C1166.21,808.59,1163.05,809.25,1163,814.6Zm600.61-554.47c.17,4.07.27,7.57,5.59,7.67,4.69.09,7.85-1.31,8-6.75.07-4.58-1.55-7.16-6.79-6.68C1766.41,253.9,1763.43,254.71,1763.64,260.13ZM1569.46,676.78c-4.31,0-5.88,1.64-5.8,6.06.09,4.63,1.36,6.58,6.4,6.66,5.21.08,6.7-2,6-6.63C1577.08,677.39,1573.7,676.82,1569.46,676.78ZM948.08,298.06c-4.16.24-7.5.38-6.75,6.13.52,4-.87,7.69,6,7.8,7.1.11,4.82-3.81,5-8.22C952.77,301.38,954.06,297.71,948.08,298.06Zm681.57,451.39c-.14,5.4,2.7,5.95,7,6s6.06-1,5.62-5.81c-.38-4.28-.67-7.56-6.59-6.38C1630.86,742.05,1629.77,744.81,1629.65,749.45ZM1007.3,415c.43,4.14.73,6.88,6.22,6.79s6-2.46,6-6.87-1.6-6.4-6.24-5.22C1009.35,409.21,1006.78,409.91,1007.3,415Zm674.54,39.47c-4.39-.08-7.29.41-6.8,6,.33,3.78.39,6.67,5.47,6.5,4.41-.14,7.64-.75,6.57-6.7C1688.46,456,1686.33,454.57,1681.84,454.49ZM1904.29,942.6c-4.62.15-6.69,1.23-6.62,6.28.06,4.51,1,6.67,6.1,6.73,4.79.06,7.15-1.07,6.23-6.43C1910.68,945.05,1909.76,942.43,1904.29,942.6ZM1629.76,571.94c0,5,2.15,6.17,6.71,6.3s5.81-1.5,5.74-5.8-.39-7.55-6.28-6.42C1631.44,565,1629.75,567,1629.76,571.94Zm258.09,177.81c-.27-3.53.29-7-5.07-6.72-4.19.21-8.33-.56-8.19,6,.1,4.32,1.29,6.53,5.81,6.25C1884,755,1888.31,755.87,1887.85,749.75Zm-250.67-318c-4.14.25-7.06.53-7.11,5.94s2.08,7.12,7.11,7.26c5.33.15,4.94-3.26,4.91-7.06C1642.19,434.79,1642.57,431.43,1637.18,431.75Zm5-15.6c-.36-3.15,1.12-7.35-4.56-6.88-3.42.28-8.22-1.3-7.64,5,.31,3.33-1.16,8.21,5.5,7.34C1639.2,422,1642.79,421.91,1642.13,416.15ZM1013.06,920.41c-4.09.14-6.19.86-6,5.57.14,4.43,1.1,6.77,6.21,6.8,4.81,0,7-1.43,6-6.76C1020.48,921,1017.73,920.25,1013.06,920.41Zm662-283.61c.22,3.76-.66,7.85,5.4,7.39,3.51-.27,7.06.24,6.9-5.06-.11-4,.16-7.92-6.2-7.18C1677.89,631.36,1674.76,631.55,1675.07,636.8Zm-17-5c-5.73-.38-5.63,3.25-5.8,7.27-.23,5.25,3.1,5,6.74,5.15,5,.19,7.07-1.79,5.91-6.64C1666.21,631.18,1661.9,632,1658.06,631.76Zm-5.8,118.18c-.49,5.16,2.59,5.29,6.28,5.49,4.67.25,6.64-1.27,6.57-6.35s-2.37-6.57-7.34-5.86C1652.2,741.92,1652.63,746,1652.26,749.94Zm-15.45-52.14c-4.37.32-7.1,1.22-7,6.47.09,4.11.63,6.32,5.63,6,4.38-.26,7.63-.52,6.59-5.87C1642.3,700.46,1642.07,697.41,1636.81,697.8ZM495.93,283.21c-.22,5.43,2.48,5.71,6.79,6.17,5.58.6,4.9-2.52,5.25-6.08.53-5.41-2-6.61-7.06-5.74C496,276.11,496.09,279.13,495.93,283.21Zm6.42,748.4c-3.6.19-6.7.22-6.56,5.33s2.08,7.1,7.33,7.08,4.94-3.25,4.81-7.38C509.17,1032.4,506.56,1031.38,502.35,1031.61Z" transform="translate(-50.41 -143.25)"/></svg>